<?xml version="1.0" encoding="UTF-8"?>
<svg id="bg" xmlns="http://www.w3.org/2000/svg" viewBox="0 0 89.92 23.61">
  <defs>
    <style>
      .cls-1 {
        fill: #f0cb9c;
      }
    </style>
  </defs>
  <path class="cls-1" d="m3.43,23.57l-2.79-1.1c.04-.1.97-2.44,2.87-5.57l2.56,1.56c-1.76,2.9-2.64,5.1-2.65,5.12Zm62.49-2.33c-1.8-.43-3.56-1.23-5.87-2.68l1.6-2.54c2.02,1.27,3.5,1.96,4.97,2.31l-.7,2.92Zm6.59-.01l-.59-2.94c1.55-.31,3.35-.86,5.49-1.68l1.07,2.8c-2.3.88-4.25,1.48-5.97,1.82Zm11.58-4.21l-1.25-2.73c1.58-.73,3.34-1.57,5.37-2.57l1.33,2.69c-2.06,1.02-3.84,1.87-5.45,2.61Zm-29.05-1.83c-1.27-.86-2.98-2-4.97-3.23l1.58-2.55c2.04,1.26,3.79,2.43,5.08,3.3l-1.68,2.48Zm-45.62-1.48l-2.33-1.89c1.36-1.68,2.81-3.2,4.32-4.52l1.98,2.25c-1.38,1.21-2.71,2.61-3.97,4.16Zm35.53-4.72c-1.43-.78-2.92-1.55-4.44-2.29-.27-.13-.54-.26-.82-.39l1.26-2.72c.29.13.58.27.87.42,1.56.77,3.09,1.56,4.55,2.35l-1.44,2.63Zm-26.95-2.72l-1.46-2.62c1.9-1.05,3.88-1.85,5.91-2.36l.74,2.91c-1.78.45-3.52,1.15-5.19,2.08Zm16.31-1.91c-1.89-.49-3.77-.76-5.58-.79l.06-3c2.04.04,4.15.34,6.27.89l-.75,2.9Z"/>
</svg>