<?xml version="1.0" encoding="UTF-8"?>
<svg id="bg" xmlns="http://www.w3.org/2000/svg" viewBox="0 0 161.44 63.41">
  <defs>
    <style>
      .cls-1 {
        fill: #f0cb9c;
      }
    </style>
  </defs>
  <path class="cls-1" d="m136.54,63.39c-1.25,0-2.54-.07-3.82-.21l.33-2.98c1.94.21,3.86.25,5.71.11l.23,2.99c-.81.06-1.63.09-2.45.09Zm8.65-1.21l-.84-2.88c1.8-.53,3.57-1.25,5.25-2.16l1.43,2.64c-1.86,1.01-3.82,1.81-5.83,2.4Zm-18.58-.18c-1.91-.52-3.88-1.2-5.85-2.01l1.14-2.77c1.85.76,3.7,1.4,5.49,1.89l-.79,2.89Zm-11.41-4.67c-1.94-1.07-3.69-2.23-5.21-3.44l1.85-2.33-.46-.85c1.61-.87,3.18-1.95,4.66-3.22l1.95,2.28c-1.38,1.18-2.83,2.22-4.33,3.1.92.63,1.92,1.24,2.98,1.83l-1.45,2.62Zm-14.56-.78l-.07-3c1.92-.05,3.8-.31,5.59-.77l.75,2.9c-2.01.52-4.12.81-6.27.87Zm55.58-.3l-1.92-2.31c1.46-1.21,2.82-2.58,4.04-4.05l2.31,1.91c-1.34,1.62-2.83,3.11-4.43,4.44Zm-61.85-.18c-1.97-.34-4-.87-6.03-1.56l.97-2.84c1.88.64,3.76,1.13,5.57,1.45l-.51,2.96Zm-11.75-3.95c-1.84-.91-3.65-1.94-5.37-3.05l1.63-2.52c1.63,1.05,3.33,2.02,5.07,2.88l-1.33,2.69Zm-44.25-2.63h-.42s.07-3,.07-3h.34s0,0,0,0c1.58,0,3.33-.35,4.94-.98l1.1,2.79c-1.97.78-4.06,1.19-6.03,1.19Zm67.13-.1c-1.36-1.8-2.37-3.74-2.99-5.75l2.87-.89c.52,1.68,1.37,3.31,2.52,4.83l-2.39,1.81Zm-73.78-3.06c-1.47-1.5-2.74-3.44-3.58-5.48l2.77-1.14c.69,1.68,1.74,3.29,2.95,4.52l-2.14,2.1Zm90.63-1l-2.3-1.92c1.35-1.61,2.47-3.18,3.34-4.67l2.59,1.52c-.95,1.63-2.18,3.34-3.63,5.08Zm-49.88-.56c-.8-1-2.13-2.54-3.94-4.26l2.07-2.17c1.92,1.83,3.35,3.49,4.21,4.56l-2.34,1.88Zm-22.56-.05l-2.14-2.11c1.26-1.27,2.15-2.78,2.65-4.48l2.88.85c-.64,2.18-1.78,4.11-3.39,5.74Zm54.84-7.35l-2.99-.19c.12-2.02.57-4.13,1.33-6.26l2.83,1c-.66,1.87-1.05,3.7-1.16,5.44Zm-40.67-.61c-1.56-1.16-3.21-2.22-4.88-3.14l1.46-2.62c1.79.99,3.54,2.12,5.21,3.36l-1.79,2.41Zm-34.04-2.18l-2.98-.32c.27-2.52,1.42-4.64,3.35-6.15l1.84,2.37c-1.29,1-2.03,2.38-2.21,4.09Zm98.38-.31l-2.94-.62c.15-.69.22-1.37.22-2.02,0-1.06-.2-2.05-.59-2.95l2.75-1.2c.56,1.28.84,2.68.84,4.15,0,.85-.1,1.74-.28,2.64Zm-77.6-1.49c-.11-.92-.29-1.87-.56-2.86-.6-.17-1.21-.32-1.82-.46l.67-2.92c.49.11.99.23,1.48.36l1.63-.63c.16.41.31.83.44,1.23.8.26,1.6.54,2.39.84l-1.08,2.8c-.13-.05-.26-.1-.39-.15.09.48.16.96.22,1.43l-2.98.34Zm-13.73-4.12l-.43-2.97c1.55-.22,3.27-.28,5.21-.18.38.02.75.05,1.12.08l-.25,2.99c-.34-.03-.69-.05-1.04-.07-1.72-.1-3.26-.04-4.61.15Zm71.29-1.89l-2.58-1.53c.79-1.33,1.54-2.41,2.16-3.28.55-.76,1.42-1.34,2.6-1.71l.89,2.86c-.76.24-1,.51-1.06.59-.59.82-1.29,1.83-2.03,3.07Zm13.36-1.81c-1.44-.9-3.19-1.57-5.05-1.92l.55-2.95c2.24.42,4.35,1.22,6.1,2.33l-1.6,2.54Zm-74.83-2.79c-.33-.57-.68-1.16-1.06-1.75-.66-1.04-1.39-2.04-2.17-2.97l2.29-1.93c.87,1.04,1.68,2.15,2.41,3.3.4.63.77,1.25,1.12,1.86l-2.6,1.5Zm-7.32-8.67c-1.45-1.15-3.06-2.2-4.8-3.12l1.41-2.65c1.89,1.01,3.65,2.16,5.24,3.42l-1.86,2.35Zm-10.08-5.45c-1.75-.63-3.64-1.17-5.59-1.62l.67-2.92c2.07.47,4.06,1.05,5.93,1.72l-1.01,2.82Zm-11.35-2.64c-1.89-.24-3.87-.41-5.86-.5l.13-3c2.08.09,4.13.26,6.11.52l-.38,2.98Zm-17.56-.08L.17,2.35c.1-.01,2.45-.35,6.15-.47l.1,3c-3.52.12-5.8.44-5.82.44Z"/>
</svg>