<?xml version="1.0" encoding="UTF-8"?>
<svg id="bg" xmlns="http://www.w3.org/2000/svg" viewBox="0 0 170.07 69.6">
  <defs>
    <style>
      .cls-1 {
        fill: #eacca2;
      }
    </style>
  </defs>
  <path class="cls-1" d="m3.61,55.66c-1.52-1.54-2.8-3.31-3.06-5.45-.24-2.01-.25-4.64.18-6.32.65-3.06,1.87-4.53,3.21-6.89,2.09-3.68,5.97-6.03,10.15-6.83,2.65-.51,5.23.03,7.79.69,2.83.73,5.65,1.64,8.23,2.86,3,1.42,6.07,2.85,8.84,4.76.19.13.42.2.77.35,0-2.34.53-4.45,1.69-6.33,2.35-3.78,5.9-5.89,10.09-7.1,7.9-2.3,15.4-1.05,22.74,2.33,3.57,1.65,6.32,4.02,8.1,7.51.4.78.6,1.61.72,2.47.07.54.27.71.73.31,3.28-2.85,7.27-3.34,11.33-3.04,4.46.33,8.82,1.35,12.77,3.57,4.97,2.8,8.45,7.04,7.28,14.55-.23,1.47-.68,2.91-1.28,4.28-1.76,4.03-4.33,7.52-7.37,10.68-.53.55-1.27.84-2.03.83-3.79-.05-7.61.19-11.38-.07-3.83-.27-7.66-.76-11.45-1.47-3.23-.61-6.5-1.03-9.73-1.65-4.59-.88-9.13-2.03-13.74-2.75-3.95-.62-7.86-1.5-11.85-1.88-6.09-.58-12.17-1.51-18.3-1.06-3.84.28-5.48.01-9.3.2-1.23.06-3.15-.2-4.98-.27-.42-.02-1.58-.27-2.15-.39-.92-.19-1.86-.41-2.74-.74-2.18-.82-3.89-1.78-5.24-3.15Z"/>
  <path class="cls-1" d="m117.11,10.46c-.21-5.56,3.31-8.19,7.67-9.48,7.04-2.08,13.73-.82,19.66,3.66,1.13.85,1.89,2.07,2.39,3.36.44,1.12.95,1.29,2.04.85,5.57-2.28,10.98-1.36,16,1.47,5.14,2.89,6.43,7.71,4,13.23-1.22,2.77-2.98,5.19-5.07,7.37-.42.44-4.09.68-4.72.7-4.6.12-6.01-.05-10.55-.7-5.18-.74-10.27-2.09-15.45-2.86-3.44-.51-6.79-1.39-10.26-1.79-4.6-.53-9.2-1.05-13.82-.98-2.44.04-4.88.25-7.33.2-2.4-.05-4.78-.39-7.03-1.2-3.46-1.25-6.09-5.17-5.03-8.73,1.19-4.01,2.91-8.07,6.79-10.46,2.58-1.59,5.39-1.08,8.09-.33,4.18,1.17,8.09,2.99,11.78,5.27.2.12.42.21.83.42Z"/>
</svg>