<?xml version="1.0" encoding="UTF-8"?>
<svg id="bg" xmlns="http://www.w3.org/2000/svg" viewBox="0 0 48.97 33.36">
  <defs>
    <style>
      .cls-1 {
        fill: #f0cb9c;
      }
    </style>
  </defs>
  <path class="cls-1" d="m.11,32.97l-.22-2.99L0,31.47l-.11-1.5s2.31-.19,5.45-1.31l1.01,2.83c-3.55,1.26-6.12,1.47-6.23,1.47Zm11.92-4.17l-1.55-2.57c1.63-.98,3.15-2.14,4.52-3.42l2.05,2.19c-1.52,1.43-3.21,2.71-5.02,3.81Zm9.73-4.64c-2.37-.1-4.5-.5-6.33-1.19l1.05-2.81c1.54.58,3.36.91,5.41,1l-.13,3Zm6.36-.5l-.69-2.92c1.73-.41,3.44-1.12,5.08-2.11l1.56,2.56c-1.91,1.16-3.91,1.98-5.95,2.46Zm-6.96-3.44l-2.46-1.71c.64-.93,1.24-1.91,1.78-2.93.37-.69.68-1.37.93-2.01l2.79,1.09c-.29.75-.65,1.53-1.08,2.32-.59,1.12-1.26,2.21-1.97,3.23Zm-11.23-1.1c-1.39-1.73-2.27-3.89-2.54-6.25l2.98-.35c.21,1.83.85,3.41,1.9,4.72l-2.34,1.88Zm29.11-1.86l-2.12-2.13c1.28-1.27,2.52-2.75,3.7-4.4l2.44,1.74c-1.27,1.78-2.63,3.39-4.03,4.78Zm-16.92-8.7c-.4-1.91-1.77-2.89-2.84-3.38l1.24-2.73c2.41,1.09,4.02,3.04,4.54,5.49l-2.94.62Zm-11.13-1.25l-2.8-1.06c.15-.4.31-.77.49-1.12.84-1.66,2.68-2.89,5.05-3.38l.61,2.94c-1.45.3-2.56.97-2.98,1.8-.13.26-.25.54-.36.83Zm35.35-.1l-2.64-1.43c.91-1.69,1.76-3.47,2.52-5.29l2.77,1.15c-.8,1.92-1.69,3.79-2.65,5.57Z"/>
</svg>