<?xml version="1.0" encoding="UTF-8"?>
<svg id="bg" xmlns="http://www.w3.org/2000/svg" viewBox="0 0 73.87 48.22">
  <defs>
    <style>
      .cls-1 {
        fill: #f0cb9c;
      }
    </style>
  </defs>
  <path class="cls-1" d="m35.91,47.77c-.17,0-.34,0-.51,0-.87-.03-1.76-.25-2.65-.65l1.22-2.74c.54.24,1.06.37,1.54.39,1.1.04,2.23-.08,3.39-.36l.7,2.92c-1.25.3-2.5.45-3.7.45Zm35.38-3.03s-1.26-1.9-3.66-4.42l2.17-2.07c2.61,2.73,3.95,4.76,4,4.84l-2.51,1.64Zm-25.72-.12l-1.75-2.43c1.49-1.08,2.65-2.41,3.44-3.95l2.67,1.36c-1.01,1.97-2.47,3.66-4.36,5.02Zm-17.89-1.91c-1.31-1.82-2.26-3.87-2.76-5.93l2.92-.7c.4,1.67,1.21,3.4,2.28,4.88l-2.44,1.75Zm35.67-6.33c-1.52-1.24-3.1-2.37-4.72-3.38l1.58-2.55c1.73,1.07,3.42,2.29,5.04,3.6l-1.89,2.33Zm-11.89-3.21l-3-.07v-.21c0-1.64-.27-3.39-.82-5.24l.68-.2.59-2.04c1.97.57,3.94,1.28,5.83,2.13l-1.23,2.74c-.79-.35-1.59-.68-2.39-.98.23,1.24.34,2.43.34,3.58,0,.09,0,.19,0,.3Zm-23.44-2.08l-2.78-1.13c.88-2.16,2.6-3.85,4.96-4.89l1.21,2.75c-1.66.73-2.8,1.83-3.39,3.28Zm14.41-3.99c-1.05-.14-2.12-.24-3.19-.3-.9-.05-1.74-.06-2.53-.03l-.11-3c.88-.03,1.81-.02,2.81.03,1.15.06,2.3.17,3.43.33l-.4,2.97Zm3.06-4.74c-.61-1.18-1.31-2.42-2.1-3.66-.28-.44-.57-.87-.87-1.29l2.44-1.74c.33.46.65.94.96,1.43.83,1.32,1.59,2.63,2.23,3.9l-2.67,1.37Zm-6.73-9.2c-1.37-1.25-2.9-2.41-4.56-3.43l1.58-2.55c1.82,1.13,3.51,2.4,5.01,3.78l-2.03,2.21Zm-9.69-6.05c-1.71-.72-3.56-1.35-5.49-1.87l.79-2.89c2.05.56,4.03,1.24,5.86,2l-1.15,2.77Zm-11.21-3.11c-1.86-.3-3.83-.53-5.83-.68l.22-2.99c2.09.16,4.14.4,6.09.71l-.48,2.96ZM.28,3.38L.02.39C1.37.27,3.53.14,6.14.12v3c-2.5.01-4.57.14-5.86.25Z"/>
</svg>