<?xml version="1.0" encoding="UTF-8"?>
<svg id="bg" xmlns="http://www.w3.org/2000/svg" viewBox="0 0 101.53 42.7">
  <defs>
    <style>
      .cls-1 {
        fill: #f0cb9c;
      }
    </style>
  </defs>
  <path class="cls-1" d="m84.06,41.7c-.22.04-.44,0-.66,0l.09-3c.19,0,.37,0,.57,0,1.61,0,3.28-.22,4.95-.65l.75,2.9c-1.92.49-3.83.75-5.7.75Zm-6.99-1.21c-1.94-.7-3.84-1.71-5.64-3.01l1.75-2.44c1.58,1.13,3.23,2.01,4.91,2.62l-1.02,2.82Zm18.59-1.82l-1.38-2.66c2.88-1.5,4.68-3.08,4.7-3.1l1.99,2.24c-.08.07-2.08,1.84-5.31,3.52Zm-89.91-1.65c-.94-.99-2.02-2.9-3.2-5.68l2.76-1.17c1,2.34,1.95,4.09,2.61,4.79l-2.18,2.06Zm60.99-3.75c-.39-.43-.78-.88-1.17-1.34-.98-1.18-1.88-2.37-2.67-3.53l2.47-1.7c.74,1.08,1.59,2.2,2.51,3.31.36.43.71.84,1.07,1.23l-2.22,2.02ZM.54,25.3c-.12-.8-.18-1.62-.18-2.44,0-1.34.16-2.71.48-4.08l2.92.68c-.27,1.15-.4,2.29-.4,3.41,0,.67.05,1.34.15,1.99l-2.97.45Zm67.5-.75h-.24s.04-3,.04-3h.2c.96,0,1.95-.04,2.93-.11.91-.06,1.77-.17,2.57-.3l.5,2.96c-.9.15-1.86.26-2.86.33-1.05.08-2.11.11-3.15.11Zm-6.42-.48c-2.03-.31-4.06-.76-6.06-1.36l.86-2.87c.81.24,1.62.46,2.44.65-.41-1.27-.68-2.52-.82-3.73l2.98-.35c.19,1.68.71,3.47,1.52,5.31l-.62.27-.31,2.07Zm18.59-2.1l-1.56-2.56c1.54-.94,2.52-2.19,2.91-3.7l2.91.74c-.58,2.27-2.05,4.17-4.26,5.52Zm-30.45-1.45c-1.86-.85-3.69-1.83-5.46-2.92l1.58-2.55c1.66,1.03,3.38,1.95,5.12,2.74l-1.24,2.73ZM5.82,14.34l-2.58-1.54c.28-.47.47-.73.47-.73l.08-.11c1.24-1.45,2.53-2.76,3.83-3.9l1.97,2.26c-1.17,1.03-2.34,2.21-3.47,3.53-.05.08-.16.24-.3.48Zm33.45-.32c-2.7-2.18-4.29-3.94-4.58-4.27l2.25-1.98c.26.3,1.7,1.89,4.21,3.92l-1.88,2.33Zm22.29-2.85l-2.83-1c.74-2.09,1.96-3.96,3.65-5.55l2.06,2.18c-1.34,1.27-2.31,2.74-2.88,4.37Zm19.52-.43c-.62-1.6-1.65-3.22-2.9-4.54l2.18-2.06c1.53,1.63,2.75,3.54,3.51,5.52l-2.8,1.08ZM14.21,7.09l-1.41-2.65c1.97-1.05,4.01-1.78,6.06-2.16l.55,2.95c-1.75.33-3.5.95-5.2,1.85Zm15.95-.28c-1.73-.83-3.51-1.39-5.28-1.66l.45-2.96c2.07.32,4.13.96,6.13,1.92l-1.3,2.71Zm38.84-2.85l-1.07-2.8c1.39-.53,2.83-.88,4.17-1,.85-.08,1.73.02,2.64.29l-.84,2.88c-.55-.16-1.05-.22-1.53-.18-1.07.1-2.24.38-3.37.81Z"/>
</svg>