<?xml version="1.0" encoding="UTF-8"?>
<svg id="bg" xmlns="http://www.w3.org/2000/svg" viewBox="0 0 85.29 34.09">
  <defs>
    <style>
      .cls-1 {
        fill: #f0cb9c;
      }
    </style>
  </defs>
  <path class="cls-1" d="m55.19,33.66l-.73-2.91c.58-.14,1.07-.36,1.46-.65.85-.62,1.7-1.44,2.43-2.38l2.35,1.87c-.9,1.14-1.95,2.15-3.02,2.93-.71.51-1.55.9-2.5,1.13Zm-6.71-.33c-2.15-.62-4.17-1.64-5.84-2.96l1.86-2.36c1.34,1.06,3.05,1.93,4.81,2.43l-.83,2.88Zm-9.8-8.52c-.22-.77-.33-1.56-.33-2.34,0-1.52.41-3.06,1.22-4.57l2.64,1.41c-.57,1.07-.86,2.13-.86,3.15,0,.51.07,1.02.21,1.52l-2.88.82Zm25.04-1.04l-2.88-.83c.3-1.06.46-2.14.46-3.19,0-.69-.07-1.37-.2-2.04l2.94-.58c.17.86.25,1.74.25,2.62,0,1.33-.19,2.68-.58,4.02ZM2.62,19.41l-2.05-2.19c.99-.92,2.59-2.37,4.65-4l1.87,2.35c-1.98,1.57-3.52,2.96-4.46,3.84Zm43.11-4.19l-1.94-2.29c.67-.57,1.42-1.14,2.22-1.7.95-.67,1.93-1.3,2.91-1.87l1.52,2.58c-.91.54-1.82,1.12-2.71,1.75-.72.51-1.39,1.02-2,1.53Zm13.15-2.28c-1.02-1.34-2.37-2.62-4.02-3.78l.42-.59-.81-1.97c1.9-.78,3.88-1.43,5.9-1.93l.73,2.91c-.84.21-1.68.45-2.51.71,1.03.9,1.92,1.85,2.67,2.84l-2.39,1.82Zm-47.05-.86l-1.68-2.49c1.74-1.17,3.5-2.25,5.23-3.21l1.45,2.62c-1.66.92-3.34,1.95-5,3.07Zm72.17-4.14s-2.16-.71-5.6-1.2l.42-2.97c3.73.53,6.03,1.29,6.13,1.33l-.95,2.84Zm-17.19-1.39l-.33-2.98c2.03-.22,4.18-.32,6.18-.28l-.05,3c-1.9-.04-3.9.05-5.8.27Zm-44.72-.11l-1.17-2.76c1.96-.83,3.93-1.52,5.84-2.05l.8,2.89c-1.79.5-3.63,1.15-5.48,1.93Zm27.81-.11c-1.21-.56-2.54-1.09-3.92-1.58-.49-.17-.98-.33-1.47-.47l.84-2.88c.54.16,1.09.33,1.63.53,1.47.52,2.88,1.09,4.18,1.69l-1.26,2.72Zm-16.69-2.94l-.34-2.98c2.13-.24,4.27-.28,6.27-.13l-.22,2.99c-1.81-.14-3.76-.1-5.71.12Z"/>
</svg>