<?xml version="1.0" encoding="UTF-8"?>
<svg id="bg" xmlns="http://www.w3.org/2000/svg" viewBox="0 0 69.69 53.41">
  <defs>
    <style>
      .cls-1 {
        fill: #f0cb9c;
      }
    </style>
  </defs>
  <path class="cls-1" d="m3.41,53.07l-2.86-.92c.41-1.29,1.12-3.34,2.11-5.76l2.78,1.14c-.96,2.33-1.63,4.29-2.03,5.54Zm42.86-9.72c-.87,0-1.72-.07-2.54-.2l.47-2.96c1.7.27,3.6.19,5.39-.22l.68,2.92c-1.31.3-2.66.46-4,.46Zm-38.38-1.17l-2.68-1.36c.94-1.87,1.96-3.67,3-5.35l2.55,1.58c-1,1.61-1.97,3.34-2.87,5.12Zm29.67-1.94c-1.68-1.67-2.56-3.84-2.61-6.46l3-.06c.03,1.81.61,3.29,1.72,4.39l-2.11,2.13Zm18.72-.34l-2.06-2.18c.43-.4.75-.83.95-1.27.45-.97.78-2.1.97-3.27l2.96.48c-.23,1.44-.65,2.84-1.21,4.05-.36.79-.91,1.53-1.62,2.2Zm-42.18-7.65l-2.37-1.84c1.31-1.68,2.69-3.24,4.1-4.64l2.11,2.13c-1.33,1.31-2.62,2.77-3.85,4.35Zm24.92-3.83l-2.81-1.05c.31-.83.69-1.7,1.11-2.58.5-1.03,1.04-2.05,1.62-3.04l2.59,1.52c-.54.92-1.04,1.87-1.51,2.83-.38.8-.72,1.58-1,2.33Zm16.96-.62c-.42-1.79-1.2-3.37-2.32-4.69l2.29-1.94c1.43,1.69,2.43,3.69,2.96,5.95l-2.92.68Zm-33.65-3.62l-1.75-2.44c1.74-1.25,3.56-2.31,5.41-3.17l1.26,2.72c-1.68.78-3.34,1.75-4.93,2.89Zm27.06-4.16c-1.55-.68-3.35-1.13-5.35-1.35l.08-.7-1.67-1.33c1.28-1.6,2.7-3.14,4.21-4.56l2.05,2.19c-.63.59-1.24,1.2-1.83,1.83,1.33.29,2.57.68,3.71,1.18l-1.2,2.75Zm-16.77-.56l-.67-2.92c.55-.13,1.12-.24,1.69-.34,1.55-.26,3.05-.45,4.46-.56l.23,2.99c-1.32.1-2.73.28-4.2.53-.51.09-1.02.19-1.51.3Zm20.58-8.87l-1.74-2.44c1.66-1.18,3.43-2.28,5.26-3.26l1.42,2.64c-1.72.92-3.38,1.95-4.94,3.06Zm10.22-5.49l-1.08-2.8c3.52-1.36,5.91-1.81,6.01-1.83l.55,2.95s-2.24.43-5.49,1.68Z"/>
</svg>