<?xml version="1.0" encoding="UTF-8"?>
<svg id="bg" xmlns="http://www.w3.org/2000/svg" viewBox="0 0 62.72 93.25">
  <defs>
    <style>
      .cls-1 {
        fill: #f93;
      }
    </style>
  </defs>
  <path class="cls-1" d="m19.05,28.63c-1.01,2.83-.33,6.12.56,9.35,2.03,7.36,6.26,13.28,12.17,18.04,6.91,5.57,14.8,9.42,23.04,12.9-3.28-4.84-6.07-9.83-7.89-16.4,1.73.42,2.85.39,3.47.92.94.81,1.52,2.04,2.29,3.06,2.48,3.32,4.84,6.75,7.49,9.92,3.49,4.16,3.48,6.32-.76,9.52-6.91,5.21-13.87,10.36-20.87,15.46-1.63,1.19-3.36,2.64-5.69,1.32-.8-2.38.94-3.58,2.34-4.77,4.16-3.52,8.42-6.92,12.65-10.37,1.23-1,2.47-2,4.11-3.32-1.27-.59-2.14-1.11-3.09-1.41-7.72-2.47-14.79-6.19-21.12-11.22-9.2-7.32-14.85-16.7-15.77-28.61-.2-2.54-.03-5.11-.03-8.23-4.71-2.71-8.73-6.84-10.71-12.46C.32,9.69-.1,6.71.02,3.92.14,1.01,1.5.26,5.12,0c-3.26,2.96-2.48,6.12-.97,9.32,2.08,4.43,4.86,8.25,9.62,10.83.78-1.33,1.5-2.51,2.17-3.72,2.33-4.28,5.33-8,9.26-10.92,2.77-2.06,5.82-3.29,9.38-3.12,9.18.43,14.41,9.9,9.67,17.77-3.22,5.36-8.31,7.91-14.37,8.42-3.47.29-6.98.05-10.83.05Zm1.51-6.28c4.29,2.17,10.37,2.02,14.69-.58,1.6-.96,3.08-2.32,4.2-3.82,1.71-2.29,1.53-5.21-.16-7.11-1.83-2.06-4.16-3.06-6.89-2.18-1.34.43-2.66,1.17-3.75,2.07-3.77,3.11-6.6,6.91-8.09,11.61Z"/>
</svg>