<?xml version="1.0" encoding="UTF-8"?>
<svg xmlns="http://www.w3.org/2000/svg" viewBox="0 0 299.59 201.52">
  <defs>
    <style>
      .cls-1 {
        fill: #f3eae6;
      }

      .cls-2 {
        fill: #eec899;
      }

      .cls-3 {
        fill: #eea77d;
      }

      .cls-4 {
        fill: #655142;
      }

      .cls-5 {
        fill: #b13c14;
      }

      .cls-6 {
        fill: #c7b2ab;
      }

      .cls-7 {
        fill: #604c3f;
      }

      .cls-8 {
        fill: #5c9db8;
      }

      .cls-9 {
        fill: #75a9c5;
      }

      .cls-10 {
        fill: #fff;
        opacity: .26;
      }

      .cls-11 {
        fill: #bb8057;
        opacity: .44;
      }
    </style>
  </defs>
  <g id="_圖層_3" data-name="圖層 3">
    <g>
      <g>
        <path class="cls-8" d="m285.21,107.7s-8.26-20.12-37.67,0c-31.99,20.12-75.85,29.93-100.1,30.44-24.25.52-86.69-8.77-107.84-7.74s-36.12,5.68-36.64,30.44c-.3,14.22,4.68,25.04,8.98,31.68,3.05,4.72,8.3,7.54,13.91,7.54h242.32c5.81,0,11.25-2.95,14.34-7.88,9.46-15.08,25.54-49.64,2.7-84.49Z"/>
        <path class="cls-7" d="m286.66,107.31c-2.49-6.01-9.21-9.38-15.44-9.47-8.29-.12-16.22,3.85-23,8.26-8.24,5.37-17.01,9.84-26.06,13.67-17.07,7.23-35.15,12.41-53.46,15.36-7.03,1.13-14.15,1.99-21.27,2.1-5.96.09-11.94-.29-17.88-.71-15.89-1.13-31.73-2.9-47.59-4.45-13.19-1.28-26.56-2.9-39.83-2.66-12.14.22-27.36,1.62-35.18,12.22-4.44,6.01-5.53,13.9-5.45,21.18.1,9.15,2.37,18.12,6.69,26.19,1.91,3.57,4.05,6.93,7.53,9.17,2.86,1.84,6.24,2.77,9.63,2.8.74,0,1.48,0,2.22,0h239.01c2.44,0,4.84-.17,7.18-.94,4.22-1.38,7.8-4.12,10.19-7.87,1.61-2.54,3.08-5.17,4.44-7.85,7.59-14.89,11.67-31.82,9.27-48.52-1.48-10.29-5.45-20-11.1-28.7-.6-.93-3.4.08-2.67,1.2,5.82,8.95,9.75,19,11.06,29.62,1.09,8.9.32,17.94-1.85,26.62-1.83,7.29-4.62,14.32-8.13,20.96-1.4,2.66-2.84,5.48-4.69,7.86-2.78,3.57-7.03,5.7-11.55,5.78-2.22.04-4.44,0-6.65,0H54.06c-6.42,0-12.84,0-19.26,0-2.76,0-5.52.02-8.28,0-2.25-.02-4.45-.43-6.51-1.37-3.91-1.8-6.35-4.99-8.42-8.63-4.45-7.85-6.94-16.83-7.16-25.85-.18-7.3.74-15.3,5.17-21.36,3.5-4.8,8.97-7.36,14.6-8.73,11.91-2.9,24.48-2,36.57-1.08,15.54,1.19,31.04,2.92,46.56,4.41,13.11,1.26,26.39,2.79,39.57,2.53,15.73-.31,31.52-3.46,46.65-7.6,18.26-5,36.21-11.94,52.46-21.73,7.24-4.36,14.5-9.73,23.3-10.05,4.22-.15,8.38,1.24,11.42,4.23,1.23,1.21,2.48,2.85,3.03,4.17.47,1.13,3.33.28,2.9-.78Z"/>
      </g>
      <path class="cls-9" d="m13.12,154.94c1.4-12.02,8.85-26.94,37.88-24.4,0,0,14.41,14.66,50.53,18.87s67.08,12.47,57.28,16.6c-9.49,4-21.4,20.08-133.51,4.73-7.68-1.05-13.06-8.09-12.16-15.79Z"/>
      <path class="cls-9" d="m183.73,133.04s-17.71,28.32,12.73,34.52c23.78,4.84,65.2.7,85.39-6.82,6.92-2.58,11.07-9.68,10.22-17.02-1.82-15.68-7.1-44.3-21.31-44.94,0,0-10.22-1.97-31.84,13.95-32.01,16.12-55.19,20.31-55.19,20.31Z"/>
      <ellipse class="cls-10" cx="259.8" cy="131.65" rx="20.97" ry="16.9" transform="translate(-2.63 257.99) rotate(-52.58)"/>
      <ellipse class="cls-10" cx="225.83" cy="144.22" rx="13.45" ry="6.25" transform="translate(-25.94 235.93) rotate(-52.58)"/>
    </g>
  </g>
  <g id="bg">
    <g>
      <path class="cls-3" d="m54.33,103.66c-1.81,1.84-12.77,4.8-10.78,5.3,1.99.49-7.3,3.46-7.47,6.58-.17,3.13-3.98,4.77-2.16,6.33,0,0,2.82-2.71,2.66-1.4-.17,1.32-4.81,5.76-4.15,8.07,0,0,3.65-1.15,2.99,0-.66,1.15-1.66,2.8-1,5.76s-.83,4.61,1.33,4.12c2.16-.49,4.32-1.64,3.49.09-.83,1.72-1.16,3.53,1.66,4.03,2.82.49,2.91.66,2.45,1.81-.46,1.15.7,1.81,7.34.66,6.64-1.15,6.85,8.38,12.99,10.1,6.14,1.71,19.75,15.1,23.14,10.97,4.02-4.89,17.34,10.61,17.98,11.17.64.56,1.91-24.42-11.12-46.72-.3-.51-26.56-24.36-26.56-24.36l-12.79-2.5Z"/>
      <path class="cls-7" d="m54.03,103.55c-.74.7-1.83,1.1-2.75,1.5-1.21.52-2.45.99-3.68,1.46-1.1.42-2.21.82-3.28,1.3-.32.15-1.23.45-1.33.88s.45.42.41.61c-.11.51-2.08,1.27-2.5,1.51-1.71.96-4.38,2.2-5.06,4.21-.24.72-.21,1.47-.56,2.19-.38.8-.95,1.46-1.46,2.18-.62.87-1.11,1.79-.22,2.64.18.17.47.1.63-.06.42-.4,1.31-1.46,1.9-1.51.27-.02.11.04,0,.34-.06.16-.16.31-.25.45-.31.53-.69,1.02-1.06,1.51-1.13,1.54-3.22,3.8-2.75,5.88.04.17.3.18.43.14.6-.19,1.23-.37,1.86-.45.67-.09.68-.01.5.55-.15.48-.48.92-.65,1.4-.39,1.11-.44,2.28-.27,3.44.12.81.31,1.58.31,2.41,0,.52-.09,1.03-.08,1.55.03,1.91,2.41.77,3.48.46.26-.08.64-.26.91-.25.82.02.4.38.23.82-.16.38-.32.76-.41,1.17-.16.76-.1,1.53.49,2.1.78.76,2,.8,2.99,1.02.33.07,1.1.14,1.29.48.17.29-.1.64-.17.92-.19.78.21,1.15.96,1.35,1.95.5,4.33-.08,6.25-.39,2.33-.38,4.02.2,5.55,2.01,2.46,2.9,3.82,6.73,7.74,7.99,3.66,1.17,6.87,3.78,9.99,5.92s6.37,4.73,10.03,5.65c1.01.25,2.16.34,3.07-.25.47-.3.75-.81,1.25-1.07.56-.28,1.2-.26,1.8-.15,3.38.65,6.47,3.64,8.9,5.89,1.26,1.17,2.48,2.38,3.67,3.63.7.73,1.34,1.57,2.1,2.24,1.17,1.04,1.16-1.29,1.2-1.94.18-3.29-.05-6.61-.39-9.88-1.21-11.64-4.52-23.19-10.19-33.45-.5-.9-.85-1.56-1.56-2.24s-1.43-1.34-2.14-2c-2.34-2.17-4.69-4.32-7.05-6.48-4.98-4.56-9.97-9.1-14.96-13.64-.81-.73-1.43-1.58-2.51-1.79-3.2-.63-6.41-1.25-9.61-1.88-.87-.17-1.75-.34-2.62-.51-.35-.07-.74.42-.25.51,2.65.52,5.31,1.04,7.96,1.56l4.16.81c.18.04.79.25.52.08.1.06.2.17.28.25,1.36,1.47,3.03,2.75,4.51,4.1,2.58,2.35,5.15,4.69,7.73,7.04,4.46,4.07,8.96,8.09,13.33,12.26.71.68,1.06,1.33,1.56,2.24,1.68,3.05,3.15,6.22,4.41,9.47,2.12,5.45,3.68,11.11,4.72,16.86.78,4.3,1.29,8.67,1.4,13.05.03,1.3.04,2.6-.04,3.89-.02.36-.04.73-.1,1.09-.01.08-.1.32-.07.39,0,0-.03.09-.02.1,0,.01,0,.02-.01.03-.1.19.08.15.54-.11.05-.18-1.44-1.55-1.61-1.72-1.05-1.12-2.12-2.21-3.23-3.28-2.49-2.4-5.2-4.91-8.36-6.4-1.06-.5-2.28-.92-3.47-.73-.46.07-.91.24-1.3.51-.48.34-.76.87-1.34,1.08-1.25.45-2.87-.32-3.98-.83-1.88-.87-3.64-2.02-5.36-3.16-3.41-2.26-6.68-4.85-10.33-6.71-1.54-.79-3.28-1.09-4.65-2.2-1.52-1.23-2.54-2.95-3.61-4.55-.96-1.43-2-2.97-3.57-3.79-1.86-.98-3.78-.42-5.75-.15-.82.11-4.36.89-4.88-.23-.37-.82.89-1.46-.35-2.05-1.07-.5-2.38-.31-3.41-.89-1.25-.7-.88-2.05-.42-3.12.19-.45.58-1.07.01-1.39-.69-.39-2.03.29-2.67.47-.44.13-1.55.64-1.88.18-.17-.24,0-.96.02-1.24.08-1.46-.34-2.8-.37-4.24-.03-1.21.3-2.34.86-3.4.24-.45.7-.92.17-1.29-.72-.51-2.5.2-3.24.42l.43.14c-.36-1.59,1.1-3.37,1.96-4.56.67-.93,1.9-2.1,2.15-3.26.17-.77-.42-.87-1.03-.61-.85.37-1.59,1.12-2.26,1.76l.63-.06c-1.09-1.04.29-2.26.93-3.17.34-.48.67-.98.9-1.53.25-.61.24-1.22.41-1.83.59-2.16,3.84-3.48,5.61-4.46.57-.32,1.48-.67,1.89-1.22.38-.5.05-.4-.14-.77-.1-.19-.28.14.04-.15.28-.25.8-.4,1.14-.54,1.06-.45,2.15-.85,3.23-1.26,2.06-.78,4.73-1.47,6.36-3.03.32-.31-.38-.42-.6-.2Z"/>
    </g>
    <g>
      <path class="cls-1" d="m192.28,93.44c-8.64-3.21-19.66-5.14-28.3-10.5,0,0,.86,2.79,0,2.14-.86-.64-5.4.21-14.9-6.86,0,0-.22,2.36,1.3,3.64,0,0-8.86-1.5-13.82-5.14,0,0,.22,1.93,1.51,3.43,0,0-4.1-1.5-5.62-2.36,0,0-.43,1.93,1.51,3,0,0-9.07-1.5-11.45-3,0,0-.65,1.71,1.51,3.21,0,0-10.15-2.57-10.15-1.29s-10.15,1.29-10.58,1.93c-.43.64,3.67,2.57-1.51,3.43-5.18.86-12.96,0-12.96,0,0,0,4.1,2.36,2.59,2.78-1.51.43-4.54-.43-6.91.86,0,0,3.24,1.07.86,1.93-2.38.86-11.45,2.36-13.82,4.28-2.38,1.93-4.32,3.64-7.13,3.43-2.81-.21-4.1,1.5-4.1,1.5,0,0,3.02,1.93.86,1.93s-8.61,2.18-7.78,1.5c.78-.64,4.97,3,3.46,3.21-1.51.21-.65,1.29,3.67,2.14,4.32.86-4.32,1.93-1.51,3.43,2.81,1.5,14.47,4.07,14.47,7.07,0,0-4.54-1.5-4.54,0s6.48,3.43,7.13,4.5c0,0-4.54,0-2.81,2.14,1.73,2.14,9.07,6.21,7.56,6.43-1.51.21-.43,3.39,1.94,4.48,2.38,1.09-.65,2.37.65,2.59s6.05,3.21,8.86,6.21c2.81,3,6.05,3,7.56,6.43,1.51,3.43,5.83,2.79,12.1,2.14,6.26-.64,17.93,3.64,20.09,2.14,0,0,4.32.64,4.75-1.07,0,0,4.07.31,3.68-3.11-.3-2.59-3.9-5.03-3.9-5.03,0,0,7.34-.64,13.18-2.79,5.83-2.14,11.02-3,15.12-.86,4.1,2.14,7.99,2.57,7.99,2.57l-2.81-2.78s5.83,1.93,7.78,1.07c0,0-4.1-1.5-3.02-1.93,1.08-.43,6.91-.86,15.77-3.64,8.86-2.79,18.14,2.57,19.66,4.71,1.51,2.14,3.24,5.14,5.83,9.43,2.59,4.28,1.08,7.07,6.05,8.78,0,0,1.51,1.71,5.18,1.93,3.67.21,4.75-2.36,4.75-2.36,0,0,4.1,0,2.59-6-1.51-6-4.75-20.14-13.61-24.64-8.86-4.5-21.82-5.78-25.71-12-3.89-6.21-4.1-14.14-3.89-18.42s.86-6.64.86-6.64Z"/>
      <path class="cls-7" d="m193.31,93.09c-9.45-3.48-19.6-5.17-28.3-10.5-.29-.18-2.25.2-2.11.65.09.3.17.6.24.9.04.2.1.41.12.62.05.47-.17.55.34.33l1.51-.3c-.44-.09-.89-.32-1.36-.41-.94-.17-1.87-.35-2.78-.62-3.97-1.17-7.56-3.45-10.86-5.89-.35-.25-2.08.16-2.11.65-.11,1.38.35,2.75,1.36,3.71l1.93-.75c-4.72-.81-9.77-2.29-13.7-5.1-.31-.22-2.17.17-2.11.65.16,1.26.73,2.45,1.51,3.43l2.11-.65c-1.89-.69-3.84-1.39-5.62-2.36-.41-.23-2.01.12-2.11.65-.26,1.29.52,2.41,1.57,3.06l1.93-.75c-1.57-.26-3.14-.57-4.7-.91-2.18-.48-4.68-.88-6.62-2.05-.38-.23-1.94.11-2.1.56-.47,1.37.53,2.59,1.55,3.37l1.93-.75c-2.33-.59-4.7-1.13-7.08-1.46-1.23-.18-2.52-.33-3.74,0-.5.14-.9.31-1.26.66-.3.28.14.07-.22.28-.46.27-1.39.23-1.91.28-.87.1-1.74.18-2.61.25-1.35.12-2.72.19-4.05.45-.63.13-2.15.37-1.76,1.26s2.01,1.84.13,2.3c-2.59.64-5.54.45-8.19.35-1.51-.06-3.02-.15-4.52-.32-.29-.03-2.27.55-1.93.75.49.28.96.58,1.42.91.32.23.64.46.93.73.1.1.45.73.51.76-.1-.05,1.26-.14.4-.25-.32-.04-.66,0-.98,0-.69-.01-1.38-.03-2.07.01-1.43.09-2.83.39-4.12,1.03-.05.02-.69.36-.41.46.4.14,1.92.65,1.63,1.27-.12.25-1.01.37-1.21.42-.57.15-1.14.28-1.7.42-2.83.67-5.7,1.29-8.45,2.28-1,.36-2.02.76-2.9,1.37-1.61,1.11-3.21,3.13-5.32,3.14s-4.82.24-6.28,2.09c-.04.06-.02.12.04.15.43.28.9.58,1.24.96.06.07.23.38.31.44.23.17,1.54-.17.88-.23-.41-.04-.89.08-1.29.14-1.99.31-3.92.92-5.87,1.38-.34.08-1.91.45-1.65.72.13.15.62.26.81.37.74.44,1.54,1.07,2.04,1.78.08.12.25.62.34.68.09.06,1.4-.42.53-.21-.18.05-.37.1-.54.16-.4.15-1.1.39-.96.92s1.29.84,1.7.98c.49.17.99.31,1.5.44.57.14,1.59.14,2.08.5.36.26.29.21-.03.47-.42.35-1.15.51-1.64.76-.61.31-1.84.92-1.11,1.7.37.4,1.09.59,1.59.78.88.34,1.77.63,2.67.93,2.3.77,4.63,1.5,6.84,2.49,1.21.54,3.6,1.46,3.69,3.05l2.11-.65c-1.09-.36-2.24-.66-3.39-.71-.82-.03-3.37.14-3.26,1.41.1,1.12,2.32,1.91,3.13,2.3s1.61.74,2.4,1.13c.51.25,1.24.53,1.59,1.01l1.8-.7c-1.3,0-4.33.17-4.93,1.61-.37.89.79,1.78,1.37,2.28,1.09.93,2.28,1.75,3.45,2.57.97.68,2.07,1.32,2.91,2.17.06.06.24.32.32.36.02.01.03.12.04.12-.11-.03,1.85-.62.81-.41-.48.1-1.12.3-1.44.7-.77.97.19,2.49.85,3.23.82.91,3.02,1.37,2.17,2.81-.58.99-.05.86.83,1.24,1.54.66,2.97,1.67,4.31,2.66,1.69,1.25,3.07,2.77,4.65,4.13,1.4,1.2,3.12,1.9,4.59,3,.73.55,1.34,1.21,1.78,2.02.34.63.6,1.26,1.1,1.78.91.92,2.2,1.28,3.46,1.41,3.56.38,7.07-.66,10.62-.47,3.89.21,7.72,1.21,11.53,1.93,2.33.44,5.45,1.2,7.63-.16l-1.72.4c1.06.15,2.17.18,3.24.05,1.13-.14,3.05-.48,3.48-1.72l-1.97.6c1.77.12,4.62-.34,5.45-2.15,1.21-2.62-1.82-5.42-3.74-6.74l-1.51.75c2.03-.18,4.06-.5,6.07-.88,3.73-.7,7.19-2.01,10.82-3.06,3.9-1.13,7.6-1.34,11.3.48,2.37,1.17,5.04,2.08,7.68,2.39.26.03,2.3-.38,1.93-.75-.94-.93-1.87-1.86-2.81-2.78l-2.05.71c2.78.91,6.3,2.01,9.17.91.04-.01.99-.43.66-.56-.62-.23-1.23-.47-1.82-.76-.38-.18-.73-.44-1.1-.62s.05-.16-.46-.12c.13-.01-.37.13-.38.15.05-.07.03-.02.06-.02.72-.03,1.5-.27,2.22-.39,1.19-.2,2.38-.42,3.56-.66,3.57-.73,7.01-1.83,10.53-2.74s7.54-.32,10.99.93c2.17.79,4.51,1.86,6.2,3.48.77.74,1.31,1.74,1.88,2.63.82,1.29,1.6,2.6,2.39,3.92.92,1.53,1.96,3.04,2.72,4.66.52,1.11.84,2.28,1.23,3.44.32.96.72,1.86,1.45,2.59.83.82,1.88,1.03,2.81,1.63.81.52,1.45,1.04,2.4,1.37,1.51.52,3.17.71,4.75.48,1.77-.26,4.05-1.1,4.84-2.88l-1.78.61c1.31-.01,2.87-.52,3.78-1.49,1.75-1.88.72-4.84.17-6.99-1.48-5.85-3.29-11.86-6.74-16.89-1.72-2.51-3.89-4.72-6.63-6.11-3.32-1.68-6.92-2.8-10.46-3.93s-6.9-2.14-10.08-3.8-5.07-3.8-6.47-7.03c-1.71-3.94-2.36-8.3-2.42-12.58-.05-3.13.08-6.45.9-9.49.09-.35-2-.1-2.14.41-.64,2.37-.82,4.92-.91,7.36-.12,3.32.1,6.68.82,9.93s1.94,6.98,4.35,9.43c2.08,2.11,4.94,3.34,7.67,4.38,3.37,1.28,6.83,2.26,10.24,3.43,3.03,1.04,6.27,2.14,8.84,4.11,4.89,3.76,7.46,10,9.28,15.7.84,2.63,1.62,5.33,2.17,8.04.27,1.35.43,3.07-.52,4.22-.18.22-.54.45-.66.54.18-.14.14-.05.25-.05-.42,0-1.58.15-1.78.61-1.04,2.36-3.97,1.9-5.94,1.08-.73-.3-1.23-.78-1.87-1.18-1.02-.64-2.14-.84-2.98-1.81-.7-.81-1.02-1.85-1.34-2.85-.41-1.3-.84-2.58-1.52-3.77-1.63-2.88-3.37-5.75-5.19-8.52-2.7-4.12-8.1-6.05-12.81-6.66-3.65-.47-6.98.19-10.47,1.22-3.2.94-6.44,1.7-9.72,2.3-1.53.28-3.88.27-5.22,1.17s2.21,2.01,2.87,2.26l.66-.56c-.75.29-2.86-.29-3.9-.54-.84-.2-1.67-.42-2.49-.69-.33-.11-2.42.35-2.05.71.94.93,1.87,1.86,2.81,2.78l1.93-.75c-3.05-.35-5.74-1.64-8.52-2.85-3.13-1.36-6.7-1.11-9.96-.42-3.94.84-7.63,2.5-11.58,3.32-2.19.45-4.42.82-6.65,1.02-.19.02-1.87.5-1.51.75,1.52,1.05,3.2,2.57,3.72,4.4.26.92.23,2.38-.78,2.87-.17.08-.28.06-.46.11-.08.02-.68-.01-.33.01-.42-.03-1.79.08-1.97.6-.34.96-1.75.55-2.6.5-.4-.02-.76-.02-1.17.09-.21.06-.65.13-.79.32.21-.29.61-.03.07-.12-1.25-.2-2.52-.24-3.77-.46-1.61-.29-3.2-.63-4.8-.95-3.1-.61-6.31-1.26-9.48-1.09-1.88.1-3.75.41-5.64.51-1.56.09-3.32.16-4.76-.55s-1.68-2.01-2.56-3.18c-.98-1.31-2.41-2.06-3.78-2.87-1.73-1.02-2.99-2.37-4.47-3.7s-3.02-2.47-4.67-3.5c-.6-.37-1.22-.74-1.86-1.04-.17-.08-1.17-.31-1.24-.46-.1-.19.43-.76.51-.94.18-.46.1-.78-.24-1.13-.54-.55-1.38-.76-1.95-1.32s-1.05-1.29-1.21-2.06c-.05-.25.02-.53-.03-.76-.09-.4.48-.15-.23-.17-.53-.01-.32.12-.04.04.26-.08,1.02-.25,1.11-.59.16-.58-1.23-1.39-1.58-1.65-1.26-.93-2.57-1.8-3.83-2.73-.75-.56-2.64-1.67-2.71-2.74-.05-.8.77-.71,1.39-.72.19,0,2.01-.4,1.8-.7-.51-.7-1.52-1.06-2.27-1.41-1.23-.58-2.5-1.1-3.66-1.82-.36-.22-.92-.52-1.1-.93-.01-.03-.11-.57-.06-.52.09.07-1.38.13-.23.24.88.08,1.77.31,2.61.59.35.12,2.14-.08,2.11-.65-.06-1.05-1.17-1.77-1.97-2.25-1.46-.87-3.08-1.48-4.67-2.06s-3.32-1.13-4.98-1.69c-.79-.27-2.76-.63-3.28-1.38-.82-1.19,3.44-1.42,3.17-2.6-.07-.29-.57-.4-.8-.47-1.14-.35-2.32-.48-3.44-.9-.32-.12-.73-.25-1-.48-.07-.06-.29-.34-.34-.35-.17-.05-1.05.32-.21.09.29-.08.77-.21.99-.44.72-.75-.76-1.89-1.29-2.33-1.02-.85-2.01-1.41-3.36-1.04-.98.27-1.66.99-.23.84s2.87-.67,4.28-1.02c.79-.2,1.6-.41,2.41-.52.75-.1,1.49-.08,2.22-.34,1.53-.55.73-1.35-.23-2.06-.11-.08-.38-.19-.44-.31,0,.02-.06.13.13-.06.86-.86,1.83-.67,2.95-.71,2.11-.08,4.07-.95,5.76-2.16.98-.7,1.85-1.62,2.91-2.2.84-.45,1.77-.74,2.68-1.01,2.06-.63,4.16-1.1,6.25-1.59,1.48-.35,3.56-.57,4.8-1.53,1.17-.9-.55-1.66-1.35-1.93l-.41.46c1.64-.8,3.57-.27,5.32-.47.56-.06,2.18-.25,2.38-.97.28-.98-2.29-2.27-2.96-2.66l-1.93.75c3.45.38,6.97.52,10.44.31,2.05-.12,4.59-.23,6.38-1.35,1.08-.68.77-1.39.08-2.23-.12-.14-.25-.37-.38-.48-.35-.28.36-.27-.38-.11-.66.14-.26.13-.05.12.38,0,.77-.09,1.15-.13,1.61-.16,3.22-.26,4.83-.46,1.35-.16,2.79-.32,4.04-.88.32-.15.76-.34.91-.68.23-.52-.73.26-.86.19.15.08.53.01.72.02,2.8.2,5.62.92,8.33,1.61.32.08,2.26-.5,1.93-.75-.88-.66-1.89-1.85-1.47-3.06l-2.1.56c1.93,1.16,4.43,1.59,6.61,2.07,1.65.36,3.31.69,4.97.97.31.05,2.26-.55,1.93-.75-1.02-.63-1.7-1.71-1.45-2.93l-2.11.65c1.77.97,3.72,1.66,5.62,2.36.29.1,2.34-.36,2.11-.65-.79-.98-1.35-2.17-1.51-3.43l-2.11.65c3.98,2.85,9.16,4.36,13.95,5.18.28.05,2.29-.41,1.93-.75-.95-.91-1.34-2.28-1.24-3.58l-2.11.65c3.93,2.9,8.25,5.51,13.11,6.44.75.14,1.53.46,2.25.55.62.09,1.87-.22,2.04-.91.15-.59-.2-1.45-.38-2.02l-2.11.65c8.69,5.32,18.85,7.02,28.3,10.5.42.16.99-.01,1.39-.16.08-.03.97-.44.66-.56Z"/>
    </g>
    <g>
      <path class="cls-1" d="m188.36,93.79c1.44-.16,3.29,2.27,3.4,2.42,0,0,0,0,0,0,0,0-2.25,19.32,3.03,23.9,5.27,4.58,19.12,8.66,24.92,9.76,5.8,1.1,6.72-2.08,8.87-1.76,2.14.33,5.28.16,6.37-.82,1.09-.98,5.01.82,6.82-.63s3.46-.85,9.4-.19c5.93.65,3.13-.49,3.63-1.45.49-.96,4.12,1.45,4.12,1.45.82-2.62-2.14-5.4-2.14-5.4,0-1.14,3.63,1.31,3.63,1.31.99-4.41-4.78-7.68-4.78-7.68.33-.65,3.79.65,3.79.65,0-2.78-5.61-4.74-5.27-5.4.33-.65,15.68-11.9,15.85-14.84.17-2.94-16.34-1.83-16.34-1.83,0,0-2.31-1.63-4.78-1.8-2.47-.16-9.56.49-10.22,0-.66-.49,2.47-1.31,2.47-1.31-1.98-1.15-4.95.16-6.16,0-1.22-.16,2.04-2.78,2.04-2.78,0,0-3.79.16-5.93,2.13,0,0-.82-.82-.99-2.94-.16-2.13-2.97,2.13-4.04-.16-1.07-2.29-5.03-4.09-5.03-4.09.5,1.31-.33,1.96-.33,1.96,0,0-.82-1.31-3.79-4.09-2.97-2.78-16.67-10-16.67-10-1.65,2.61,5.46,17.19,5.3,18.17-.16.98-4.28-.82-5.44-.98-1.14-.16,2.7,3.34,2.8,3.43-5.44-2.94-10.05-.98-10.05-.98,3.13.49,2.47,2.62,2.47,2.62-3.13-1.47-6.92,1.31-6.92,1.31Z"/>
      <path class="cls-7" d="m188.23,94.02c1.07-.02,1.97.93,2.64,1.67.14.16.45.42.53.63.05.13-.03-.17,0,.04.1.62-.14,1.45-.19,2.08-.24,3.1-.34,6.22-.23,9.33.12,3.31.39,6.87,1.74,9.94s4.51,4.66,7.39,6.05c4.07,1.96,8.39,3.44,12.73,4.69,3.37.97,7.48,2.49,11.01,1.68,1.36-.31,2.37-1.16,3.63-1.64.77-.29,1.55-.04,2.35,0,1.13.06,2.3.01,3.41-.23.78-.17,1.34-.53,2.04-.86.94-.44,2.29-.02,3.3.06.84.07,1.73.09,2.54-.19.66-.22,1.13-.73,1.76-.99,1.75-.72,4.18-.03,5.97.19,1.55.19,3.13.43,4.69.45.46,0,1.07.04,1.48-.21.82-.49-.13-.88.07-1.46.22-.67,3.02,1.1,3.53,1.44.18.12.59,0,.65-.23.56-2.17-.8-3.69-1.97-5.3-.19-.27-.22-.16.16-.02s.77.33,1.14.54c.52.28,1.02.59,1.51.92.17.12.61,0,.65-.23.54-2.84-1.34-5.22-3.46-6.87-.32-.25-.65-.53-1.01-.72-.42-.23-.49-.16-.03,0,.94.34,1.98.45,2.93.81.19.07.59-.07.58-.31-.14-2.71-3.35-3.42-4.97-4.97-.47-.45-.14-.51.32-.89.66-.56,1.34-1.1,2.02-1.64,4.01-3.21,8.31-6.36,11.71-10.24.62-.71,2.06-2.14,1.24-3.14-.98-1.19-3.5-1.22-4.87-1.34-2.5-.22-5.02-.21-7.53-.15-.92.02-1.84.06-2.76.1-.37.02-.88.14-1.24.07.5.1-.14-.21-.25-.28-.32-.19-.64-.37-.97-.53-.94-.45-1.94-.8-2.98-.95-1.49-.2-3.05-.06-4.54,0-1.7.07-3.41.2-5.11.12-.09,0-.68.02-.75-.07-.19-.25.35-.4.59-.5.48-.19.99-.34,1.49-.48.12-.03.48-.26.23-.39-.81-.41-1.66-.54-2.56-.5-.58.02-1.15.11-1.71.21-.46.08-1.19.36-1.65.26-.56-.12-.35-.34-.05-.72.23-.3.51-.56.79-.81.35-.33.71-.65,1.09-.95.23-.19-.1-.3-.25-.29-2.22.11-4.58.81-6.27,2.27l.63-.07c-.35-.37-.55-.9-.69-1.38-.17-.55-.03-1.73-.51-2.11-.61-.5-1.61.32-2.12.6-.9.51-1.3.43-1.84-.46-.47-.78-1.11-1.4-1.81-1.96-.96-.76-2.03-1.41-3.14-1.92-.16-.07-.73,0-.65.28.18.59.26,1.34-.26,1.79l.63-.07c-2.37-3.7-6.4-6.13-10.08-8.31-3.42-2.03-6.91-3.96-10.43-5.81-.18-.1-.52-.02-.63.17-.79,1.39.03,3.65.43,5.03.76,2.62,1.77,5.17,2.78,7.71.44,1.1.89,2.2,1.32,3.3.18.47.77,1.44.7,1.96-.05.36-.14.28-.61.2-.74-.12-1.48-.38-2.19-.61-.58-.19-1.92-.9-2.54-.53-1.02.61,2.25,3.26,2.77,3.74l.62-.33c-3.1-1.61-7.14-2.35-10.49-.96-.16.07-.35.33-.07.38,1.19.22,2.75.96,2.33,2.45l.65-.23c-2.46-1.04-5.35-.14-7.44,1.37-.4.29.21.43.46.25,1.8-1.29,4.28-2.14,6.41-1.25.2.09.58.02.65-.23.48-1.67-1.28-2.54-2.62-2.79l-.07.38c3.06-1.27,6.81-.47,9.62,1,.16.09.86-.12.62-.33-.61-.56-1.21-1.13-1.79-1.73-.35-.36-.65-.76-.99-1.13-.06-.07-.11-.23-.17-.28.08.06-.39-.33-.15,0l-.12.08c.09.02.17.04.25.06.11.07.39.11.51.15.76.23,4.76,2.03,5.12.48.09-.39-.25-1.01-.38-1.35-.34-.94-.73-1.86-1.1-2.78-.98-2.44-1.97-4.88-2.8-7.37-.42-1.25-.81-2.52-1.07-3.82-.16-.83-.42-1.97.03-2.76l-.63.17c3.44,1.81,6.84,3.69,10.18,5.67,3.73,2.2,7.82,4.64,10.23,8.38.12.19.51.03.63-.07.63-.55.62-1.4.4-2.13l-.65.28c1.16.53,2.3,1.22,3.28,2.04.78.65,1.2,1.36,1.78,2.16.24.33.49.55.9.61s.82-.08,1.18-.24c.42-.18.98-.75,1.42-.79.66-.06.61,1.72.84,2.3.14.37.33.78.61,1.07.16.17.48.05.63-.07,1.51-1.3,3.63-1.88,5.6-1.98l-.25-.29c-.54.44-2.65,1.91-2.37,2.76.17.52,1.12.32,1.5.27,1.68-.23,3.39-.8,5,.01l.23-.39c-.5.13-4.21,1.39-2.25,1.83,1.1.25,2.37.08,3.48.04,1.68-.06,3.36-.15,5.04-.17,1.92-.02,3.66.39,5.34,1.36.49.28.69.45,1.23.45,1.93-.02,3.86-.18,5.79-.18,2.56,0,5.22-.02,7.73.53.63.14,1.74.32,2.09.95.31.56-.18,1.22-.5,1.67-1.41,2-3.43,3.65-5.26,5.24-2.1,1.83-4.27,3.58-6.45,5.32-.86.69-1.72,1.37-2.57,2.07-.23.19-.93.61-.96.96-.05.66,1.76,1.44,2.18,1.71,1.3.85,3.02,1.97,3.11,3.69l.58-.31c-1-.37-3.48-1.54-4.35-.46-.06.07-.02.16.05.2,2.6,1.49,5.32,4.31,4.7,7.54l.65-.23c-.76-.51-3.08-2.31-4.05-1.48-.52.45.11.81.42,1.18,1.08,1.29,1.94,2.9,1.49,4.62l.65-.23c-.61-.4-4.9-3.06-4.83-.85,0,.24.29.54.26.75-.07.48-1.08.26-1.54.23-2.5-.15-4.96-.63-7.45-.82-1.17-.09-2.38-.07-3.44.5-.95.52-1.58.95-2.74.93-1.04-.02-2.07-.26-3.11-.27-.54,0-1.02.06-1.5.3s-.87.55-1.41.7c-.84.22-1.75.28-2.61.28-1.45,0-2.68-.41-4.02.27-1.69.85-3.02,1.62-5.01,1.57s-3.88-.62-5.74-1.1c-4.51-1.16-8.99-2.6-13.27-4.44-3.1-1.33-7.31-2.98-9.02-6.12-1.59-2.93-1.89-6.59-2.05-9.85-.18-3.54-.06-7.1.25-10.64.04-.48.26-1.21.12-1.68-.16-.51-.93-1.09-1.31-1.42-.65-.57-1.39-1.09-2.29-1.07-.29,0-.76.46-.27.45Z"/>
    </g>
    <g>
      <path class="cls-6" d="m219.67,130.13l.1-.5c-5.89-1.12-19.67-5.24-24.8-9.7-5.11-4.44-2.96-23.49-2.94-23.68l-.51-.06c-.09.79-2.2,19.51,3.11,24.13,5.27,4.58,18.91,8.66,25.05,9.82Z"/>
      <path class="cls-7" d="m220.04,130.11l.1-.5c.03-.15-.13-.23-.25-.25-3.88-.75-7.7-1.88-11.44-3.17-4.09-1.41-8.34-3-11.92-5.48-2.64-1.84-3.53-4.53-4.05-7.61-.59-3.5-.63-7.09-.51-10.62.07-2.09.19-4.18.42-6.26.02-.14-.12-.24-.25-.25l-.51-.06c-.19-.02-.46.08-.49.3-.64,5.54-.84,11.35.04,16.86.45,2.82,1.22,5.89,3.53,7.77,3.28,2.66,7.47,4.3,11.39,5.73,4.36,1.6,8.87,2.95,13.43,3.83.37.07.73-.46.24-.55-3.93-.76-7.81-1.9-11.59-3.2-4.08-1.41-8.29-3.01-11.87-5.47-2.71-1.86-3.73-4.5-4.3-7.66-.64-3.47-.7-7.05-.6-10.57.06-2.27.2-4.54.46-6.8l-.49.3.51.06-.25-.25c-.61,5.34-.78,10.92-.02,16.25.39,2.77,1.05,5.98,3.32,7.85,3.21,2.65,7.39,4.25,11.25,5.67,4.36,1.6,8.87,2.98,13.44,3.86l-.25-.25-.1.5c-.07.37.67.29.74-.05Z"/>
    </g>
    <g>
      <g>
        <path class="cls-5" d="m241.42,97.11c1.8-1.19,4.84-1.7,7.51-2.15,2.46-.41,4.4-.74,4.92-1.52l-.43-.28c-.4.6-2.43.94-4.58,1.3-2.73.46-5.82.98-7.71,2.23l.28.42Z"/>
        <path class="cls-7" d="m241.66,97.26c2.07-1.33,4.76-1.64,7.14-2.04,1.16-.19,2.34-.36,3.47-.68.66-.19,1.46-.43,1.89-1.01.07-.1.1-.21-.02-.29l-.43-.28c-.16-.1-.47-.04-.58.11-.22.28-.63.39-.96.48-.54.16-1.1.27-1.65.38-1.2.23-2.41.41-3.61.63-2.06.38-4.22.84-6.01,1.98-.1.07-.17.19-.1.3l.28.42c.17.25.86-.01.67-.31l-.28-.42-.1.3c1.99-1.28,4.53-1.64,6.82-2.03,1.16-.2,2.33-.37,3.47-.64.67-.16,1.61-.34,2.06-.92l-.58.11.43.28-.02-.29c-.48.65-1.56.79-2.3.95-1.26.27-2.53.45-3.8.67-2.14.38-4.41.8-6.27,1.99-.41.26.19.47.47.29Z"/>
      </g>
      <g>
        <path class="cls-5" d="m217.8,91.11l.48-.18c-1.78-4.66-15.35-20.07-17.98-20.94l-.16.48c2.31.76,15.81,15.78,17.66,20.64Z"/>
        <path class="cls-7" d="m217.95,91.3l.48-.18c.09-.03.25-.17.21-.29-.53-1.34-1.38-2.57-2.19-3.75-1.24-1.78-2.58-3.5-3.96-5.18-2.79-3.41-5.71-6.77-8.92-9.79-.88-.83-1.89-1.93-3.06-2.35-.21-.08-.51.05-.58.26l-.16.48c-.03.1.08.17.15.19.95.34,1.8,1.31,2.51,1.98,1.37,1.29,2.68,2.65,3.95,4.04,2.96,3.2,5.81,6.54,8.37,10.07,1,1.38,2.06,2.82,2.68,4.42.12.3.84.09.72-.19-.54-1.38-1.42-2.65-2.26-3.86-1.28-1.83-2.68-3.59-4.1-5.32-2.78-3.35-5.68-6.67-8.88-9.63-.52-.48-1.05-.96-1.62-1.39-.2-.15-.41-.31-.63-.42-.05-.02-.22-.08-.24-.11.11.19.18-.14.24-.32l-.58.26c1.02.36,1.93,1.37,2.69,2.08,1.39,1.3,2.71,2.69,4,4.09,3,3.26,5.89,6.66,8.48,10.26.98,1.37,2.04,2.8,2.66,4.38l.21-.29-.48.18c-.47.18-.05.52.31.38Z"/>
      </g>
    </g>
    <g>
      <path class="cls-6" d="m136.36,147.17l.38-.35c-2.48-2.63-8.17-2.01-15.35-.93-7.3,1.1-12.81-.79-13.55-2.63-.11-.27-.12-.49-.04-.67.19-.45.96-.75,1.84-1.09,1.17-.46,2.63-1.03,3.57-2.27,1.88-2.48,5.89-3.97,5.93-3.98l.5-.18-2.09-1.24c4.58-1.28,6.2-5.19,6.27-5.36l.14-.35h-.38c-1.31,0-2.1-.27-2.36-.81-.67-1.37,1.76-4.66,3.64-7.02,2.41-3.01,5.03-7.43,3.89-11.44-.75-2.63-3.04-4.64-6.81-5.99l-.17.48c3.6,1.29,5.79,3.19,6.49,5.65,1.14,4-1.89,8.6-3.8,10.99-3.22,4.02-4.33,6.28-3.7,7.56.33.67,1.12,1.03,2.42,1.09-.53,1.02-2.39,4.01-6.35,4.86l-.63.14,2.27,1.35c-1.16.49-4.09,1.86-5.68,3.96-.85,1.13-2.18,1.65-3.35,2.1-.99.39-1.84.72-2.12,1.36-.13.31-.12.67.04,1.07.73,1.82,4.55,3.28,9.7,3.28,1.38,0,2.86-.11,4.4-.34,7.03-1.06,12.58-1.67,14.89.78Z"/>
      <path class="cls-7" d="m136.66,147.25l.38-.35c.06-.05.11-.15.04-.22-1.67-1.68-4.21-1.94-6.46-1.94-3.72,0-7.35.83-11.04,1.15-3.21.28-7.04.19-9.94-1.42-.4-.22-.8-.47-1.1-.82-.81-.93.59-1.72,1.41-2.04,1.37-.55,2.6-1.17,3.57-2.31,1.67-1.95,3.9-3.2,6.29-4.07.13-.05.33-.24.14-.36l-2.09-1.24-.23.39c3.01-.91,5.54-3.01,6.72-5.95.05-.12-.15-.18-.23-.18-1.2,0-2.87-.04-2.57-1.66.25-1.37,1.25-2.68,2.05-3.79,1.8-2.51,3.85-4.78,5-7.7.97-2.47,1.24-5.28-.18-7.64s-3.83-3.56-6.23-4.45c-.2-.07-.51.05-.58.25l-.17.48c-.03.1.08.15.15.17,2.85,1.06,5.84,2.85,6.47,6.07s-1.17,6.58-3,9.15c-1.53,2.14-8.46,9.59-1.97,10.08l-.2-.24c-1.41,2.65-3.8,4.19-6.7,4.81-.14.03-.47.25-.23.39l2.27,1.35.14-.36c-1.11.47-2.2,1.03-3.2,1.71-.58.38-1.13.81-1.64,1.28-.7.65-1.21,1.49-2,2.04-1.4.96-6.24,1.8-4.05,4.43,1.58,1.89,4.76,2.37,7.05,2.59,3.92.39,7.72-.42,11.6-.85,3.01-.34,7.55-1.06,9.95,1.34.2.19.88-.08.67-.29-2-2-5.34-1.88-7.95-1.72-4.61.28-9.14,1.52-13.79,1.1-1.97-.18-4.13-.56-5.84-1.62-.47-.29-.96-.67-1.25-1.16-.9-1.55.96-2.12,2.05-2.56.81-.33,1.62-.68,2.32-1.22s1.18-1.31,1.84-1.92c1.31-1.22,2.92-2.1,4.55-2.8.13-.05.33-.24.14-.36l-2.27-1.35-.23.39c3.1-.67,5.76-2.33,7.27-5.18.08-.15-.07-.23-.2-.24-3.88-.29-1.93-3.67-.59-5.63,1.78-2.61,3.94-4.89,5.19-7.84,1.04-2.45,1.45-5.28-.01-7.65-.67-1.09-1.65-1.96-2.72-2.64-.63-.4-1.3-.74-1.98-1.04-.16-.07-.71-.21-.82-.33-.2-.23-.22-.05-.07-.45l-.58.25c2.74,1.02,5.6,2.66,6.58,5.6,1.15,3.43-.59,7.08-2.5,9.88-1.59,2.33-3.82,4.43-4.81,7.12-.82,2.23.93,2.67,2.83,2.67l-.23-.18c-1.07,2.66-3.37,4.65-6.1,5.47-.13.04-.47.24-.23.39l2.09,1.24.14-.36c-1.96.72-3.88,1.69-5.45,3.07-.61.54-1.06,1.2-1.64,1.76-.82.78-1.89,1.2-2.92,1.61-.92.37-2.6.89-1.93,2.2.97,1.9,4.3,2.42,6.13,2.68,4.23.6,8.33-.3,12.53-.76,2.11-.23,4.29-.42,6.41-.13.85.12,1.71.32,2.48.7.33.17.82.41,1.05.7.18.23.23.08-.08.37s.4.33.59.15Z"/>
    </g>
    <g>
      <path class="cls-6" d="m137.01,155.21s1.37-4.83-2.95-6.52l-.19.47c3.88,1.53,2.69,5.73,2.64,5.9l.49.14Z"/>
      <path class="cls-7" d="m137.37,155.16c.49-1.69.24-3.76-.88-5.14-.56-.69-1.32-1.17-2.13-1.5-.19-.07-.57.01-.65.22l-.19.47c-.02.05.03.1.07.11,1.19.48,2.13,1.34,2.54,2.57.27.84.3,1.74.17,2.61-.03.21-.07.41-.13.61-.01.05.02.1.07.11l.49.14c.17.05.36.01.51-.07.07-.04.24-.21.07-.26l-.49-.14.07.11c.45-1.54.26-3.41-.77-4.67-.51-.62-1.2-1.05-1.94-1.35l.07.11.19-.47-.65.22c1.34.54,2.38,1.52,2.82,2.91.29.92.33,1.92.18,2.87-.03.21-.07.42-.13.63-.07.23.66.13.72-.1Z"/>
    </g>
    <g>
      <path class="cls-6" d="m132.23,156.35c1.35-2.19.49-4.55-2.4-6.63l-.3.41c2.65,1.91,3.45,4.02,2.26,5.96l.44.27Z"/>
      <path class="cls-7" d="m132.58,156.39c.64-1.06.83-2.31.41-3.49-.52-1.42-1.68-2.52-2.87-3.39-.16-.11-.47-.05-.58.1l-.3.41c-.08.11-.09.23.02.31,1.01.74,2.03,1.66,2.49,2.86.37.97.24,1.96-.29,2.85-.05.08-.01.2.07.25l.44.27c.27.16.91-.21.56-.42l-.44-.27.07.25c.57-.96.72-2.07.32-3.12-.49-1.29-1.56-2.28-2.65-3.08l.02.31.3-.41-.58.1c1.12.81,2.23,1.84,2.71,3.17.4,1.1.22,2.22-.37,3.22-.09.16.08.28.22.3.18.03.38-.06.47-.22Z"/>
    </g>
    <g>
      <path class="cls-6" d="m106.84,153.31c1.17-.31,2.54-1.64,2.47-2.82-.04-.66-.5-1.51-2.5-1.81l-.08.5c.92.14,2.02.49,2.07,1.34.05.91-1.13,2.05-2.09,2.3l.13.49Z"/>
      <path class="cls-7" d="m106.89,153.5c1.15-.32,2.29-1.24,2.68-2.38.26-.77,0-1.51-.65-1.97-.55-.39-1.23-.56-1.89-.66-.16-.03-.55.03-.58.24l-.08.5c-.01.09.06.14.14.16.7.11,2,.38,1.92,1.34-.04.44-.32.85-.62,1.16-.32.33-.71.63-1.16.76-.11.03-.35.13-.31.28l.13.49c.07.26.79.06.72-.19l-.13-.49-.31.28c.58-.16,1.11-.49,1.55-.91.39-.37.77-.86.85-1.41.16-1.18-1.31-1.56-2.2-1.7l.14.16.08-.5-.58.24c.9.14,2.16.48,2.34,1.54.1.58-.2,1.16-.55,1.6-.4.5-.97.94-1.59,1.11-.11.03-.35.13-.31.28s.31.12.41.09Z"/>
    </g>
    <g>
      <path class="cls-6" d="m232.28,161.17c.01-.12.35-2.85-.32-5.03l-.49.15c.64,2.08.3,4.79.3,4.82l.51.06Z"/>
      <path class="cls-7" d="m232.64,161.13c.21-1.67.17-3.47-.32-5.09-.04-.15-.31-.12-.41-.09l-.49.15c-.1.03-.36.13-.31.28.45,1.52.48,3.2.3,4.77-.01.09.06.15.14.16l.51.06c.17.02.38,0,.51-.14.1-.1.09-.24-.07-.26l-.51-.06.14.16c.19-1.6.16-3.33-.3-4.88l-.31.28.49-.15-.41-.09c.47,1.58.52,3.35.32,4.98-.04.29.69.17.73-.09Z"/>
    </g>
    <g>
      <path class="cls-6" d="m222.28,161.73c1-1.15,2.61-3.53,2.11-6.63l-.51.08c.47,2.9-1.05,5.14-1.99,6.22l.39.33Z"/>
      <path class="cls-7" d="m222.61,161.72c1.61-1.85,2.52-4.25,2.14-6.71-.01-.09-.25-.06-.3-.05l-.51.08c-.09.01-.45.1-.43.25.34,2.25-.49,4.45-1.96,6.14-.03.03-.05.07,0,.11l.39.33c.16.13.81-.14.68-.26l-.39-.33v.11c1.5-1.74,2.36-3.98,2.01-6.3l-.43.25.51-.08-.3-.05c.37,2.4-.5,4.75-2.07,6.56-.11.12.09.14.18.14.15,0,.38-.06.48-.18Z"/>
    </g>
    <g>
      <path class="cls-3" d="m188.36,93.79c1.44-.16,3.29,2.27,3.4,2.42,0,0,0,0,0,0,1.21,1.33.88,2.97,2.86,7.71,1.98,4.74,11.54,8.17,14.01,7.85,2.47-.33,3.13-4.74,4.45-5.4,1.32-.65,2.64-5.89,4.94-7.03,2.31-1.14,2.97-2.45,5.12-3.11,2.15-.65,2.46-.33,4.77-2.94,0,0,1.48-.65,3.13-3.76,0,0-.82-.82-.99-2.94-.16-2.13-2.97,2.13-4.04-.16-1.07-2.29-5.03-4.09-5.03-4.09.5,1.31-.33,1.96-.33,1.96,0,0-.82-1.31-3.79-4.09-2.97-2.78-16.67-10-16.67-10-1.65,2.61,5.46,17.19,5.3,18.17-.16.98-4.28-.82-5.44-.98-1.14-.16,2.7,3.34,2.8,3.43-5.44-2.94-10.05-.98-10.05-.98,3.13.49,2.47,2.62,2.47,2.62-3.13-1.47-6.92,1.31-6.92,1.31Z"/>
      <path class="cls-7" d="m188.14,94.14c1.52-.03,3.29,2.17,3.8,3.54.85,2.26,1.18,4.67,2.31,6.84,1.94,3.75,6.82,5.91,10.66,7.05,1.35.4,3.03.89,4.42.36,1.86-.71,2.48-2.82,3.37-4.4.38-.67.91-.96,1.39-1.51.63-.73,1.02-1.7,1.45-2.55.52-1.02,1.03-2.09,1.77-2.98.88-1.07,2.34-1.63,3.44-2.47.79-.6,1.54-1.14,2.5-1.46.55-.18,1.13-.29,1.68-.47.91-.3,1.65-.81,2.35-1.47.39-.38.7-.84,1.1-1.16.22-.17.46-.31.68-.49,1.09-.92,1.88-2.16,2.55-3.4.04-.08.07-.18,0-.26-.35-.36-.54-.88-.68-1.35-.18-.6-.03-1.73-.54-2.15-.7-.59-1.84.3-2.44.63-.82.46-1.02.31-1.5-.48s-1.11-1.4-1.81-1.96c-.97-.76-2.05-1.42-3.17-1.94-.25-.11-1.17.01-1.04.45.16.55.27,1.27-.22,1.7l1.01-.12c-2.38-3.7-6.42-6.15-10.11-8.33-3.42-2.03-6.91-3.96-10.43-5.81-.29-.15-.84-.02-1,.27-.81,1.42,0,3.68.42,5.09.76,2.62,1.77,5.17,2.78,7.71.69,1.71,1.22,3.6,2.02,5.26.02.05.04.17.04.21,0-.14.34-.13.09-.14-.12,0-.27-.01-.38-.05-.7-.25-1.48-.38-2.19-.61s-1.98-.9-2.76-.51c-1.35.69,2.07,3.38,2.66,3.91l.99-.52c-3.19-1.66-7.32-2.37-10.75-.95-.25.1-.56.51-.12.59,1.15.22,2.65.92,2.24,2.35l1.04-.36c-2.55-1.07-5.58-.16-7.75,1.41-.64.46.34.66.73.38,1.71-1.24,4.06-2.06,6.1-1.21.31.13.93.02,1.04-.36.49-1.72-1.33-2.62-2.7-2.88l-.12.59c2.97-1.23,6.64-.4,9.36,1.01.26.13,1.36-.19.99-.52-.61-.56-1.21-1.13-1.79-1.73-.34-.35-.63-.8-.99-1.13-.32-.29.05-.4-.48-.16-.57.26.17.29.47.38.87.26,5.08,2.14,5.47.34.09-.41-.25-1.02-.38-1.39-.34-.94-.73-1.86-1.1-2.78-.98-2.44-1.97-4.88-2.8-7.37-.42-1.25-.81-2.52-1.07-3.82-.16-.8-.42-1.94.01-2.7l-1,.27c3.44,1.81,6.84,3.69,10.18,5.67,3.72,2.2,7.8,4.62,10.2,8.36.19.3.82.04,1.01-.12.66-.58.67-1.45.44-2.23l-1.04.45c.82.38,1.61.84,2.36,1.35.64.44,1.26.93,1.78,1.51.45.5.66,1.23,1.17,1.66.62.53,1.52.31,2.18,0,.39-.18.73-.48,1.12-.63.3-.12.16-.15.29-.03.18.17.17,1.2.23,1.45.13.54.39.99.6,1.49.03.08.21.23.22.3,0,.14-.6.85-.75,1.08-.54.82-1.47,1.77-2.05,2.22-1.12.87-1.81,2.08-3.24,2.51s-2.77.83-4.03,1.77c-.75.56-1.47,1.13-2.29,1.59-.59.33-1.12.64-1.58,1.14-.9.97-1.51,2.2-2.1,3.37-.53,1.04-.97,2.09-1.85,2.85-.8.69-1.19,1.62-1.66,2.56-.55,1.09-1.23,2.59-2.61,2.63-1.05.03-2.22-.38-3.2-.7-2.81-.9-5.68-2.29-7.87-4.29-2.59-2.36-2.98-5.77-4.08-8.92-.61-1.76-2.6-4.13-4.58-4.09-.46,0-1.22.71-.44.7Z"/>
    </g>
    <g>
      <path class="cls-3" d="m228.09,116.03c1.32,4.09,6.26,5.4,12.36,5.4s9.73.98,14.34,3.62c.49-.96,4.12,1.45,4.12,1.45.82-2.62-2.14-5.4-2.14-5.4,0-1.14,3.63,1.31,3.63,1.31.99-4.41-4.78-7.68-4.78-7.68.33-.65,3.79.65,3.79.65,0-2.78-5.61-4.74-5.27-5.4.33-.65,15.68-11.9,15.85-14.84.17-2.94-16.34-1.83-16.34-1.83,0,0-2.31-1.63-4.78-1.8-2.47-.16-9.56.49-10.22,0-.66-.49,2.47-1.31,2.47-1.31-1.98-1.15-4.95.16-6.16,0-1.22-.16,2.04-2.78,2.04-2.78,0,0-3.79.16-5.93,2.13-1.48,2.78-1.32,10.46-.82,16.51.49,6.05-3.46,5.89-2.14,9.97Z"/>
      <path class="cls-7" d="m227.51,116.18c1.5,4.32,6.52,5.34,10.56,5.58,2.93.17,5.85.03,8.75.62,2.68.55,5.16,1.64,7.53,2.98.26.15.74.09.93-.17-.09.13-.03,0,.27.1.13.05.27.09.41.14.44.17.86.39,1.27.62s.84.49,1.25.75c.33.22.94.01,1.04-.37.29-1.11.07-2.17-.43-3.18-.3-.62-.92-1.87-1.57-2.21-.07-.04-.11-.17-.19-.19l-.3.34c.09.02.18.04.26.07.25.23.84.36,1.15.53.52.28,1.02.59,1.51.92.31.21.96.02,1.04-.37.65-3.4-2.17-6.38-4.91-7.95l.03.47c-.13.17-.09-.01.09.08.16.08.46.07.63.11.35.08.7.18,1.05.28.4.12.8.26,1.2.41.25.09.94-.05.92-.42-.14-2.59-3.08-3.71-4.87-5.04-.12-.09-.32-.19-.4-.33-.06-.11-.12.27,0,.05.09-.17.39-.34.53-.46.67-.57,1.37-1.11,2.06-1.66,4.02-3.22,8.33-6.38,11.74-10.26.67-.76,2.12-2.25,1.25-3.32-1.01-1.24-3.57-1.29-5-1.42-2.51-.22-5.05-.21-7.57-.15-.95.02-1.9.06-2.85.11-.28.01-.57,0-.85.05-.49.07-.18-.14.04.08-1.05-1.04-3.2-1.64-4.59-1.82-1.53-.2-3.13-.04-4.67.02-1.68.07-3.4.23-5.09.11-.17-.01-.46.02-.61-.07.16.11-.28.25.18.04.16-.07.32-.15.48-.21.47-.18.95-.33,1.44-.46.22-.06.77-.48.35-.69-.86-.44-1.75-.58-2.72-.55-1.05.04-2.15.5-3.18.46-.47-.02-.39-.04-.09-.43.19-.25.43-.47.66-.69.36-.35.75-.69,1.14-1.01s.12-.66-.32-.64c-2.01.1-5.28.71-6.54,2.47-.75,1.05-.86,2.83-.99,4.05-.2,1.88-.23,3.78-.21,5.67s.12,3.89.26,5.82.26,3.67-.54,5.4c-.42.9-1.06,1.68-1.45,2.59-.45,1.04-.38,2.09-.06,3.15.15.5,1.31.18,1.16-.31-.71-2.35.69-3.53,1.55-5.54,1.23-2.9.41-6.35.3-9.38-.11-3.25-.24-6.73.57-9.92.17-.66.32-1.24.87-1.68.67-.53,1.58-.86,2.39-1.1s1.71-.41,2.58-.45l-.32-.64c-.65.52-2.75,1.95-2.52,2.94.16.68,1.23.49,1.71.43,1.6-.22,3.31-.81,4.85-.03l.35-.69c-.85.23-1.94.46-2.64,1.02-.62.49-.41.97.29,1.14,1.13.27,2.46.1,3.61.06,1.63-.05,3.25-.15,4.88-.17,1.93-.03,3.67.34,5.36,1.31.5.29.77.5,1.34.49,1.89-.04,3.78-.18,5.68-.19,2.54-.02,5.18-.02,7.68.49.59.12,1.74.29,2.08.88.3.51-.17,1.11-.46,1.53-1.38,1.96-3.37,3.59-5.17,5.15-2.1,1.83-4.27,3.58-6.45,5.32-.88.7-1.76,1.4-2.62,2.11-.29.24-.99.65-1.04,1.07-.09.74,1.55,1.43,2.02,1.73,1.27.81,3.17,1.95,3.26,3.64l.92-.42c-1.06-.4-3.68-1.59-4.61-.43-.12.14-.16.36.03.47,2.56,1.47,5.25,4.23,4.64,7.41l1.04-.37c-.91-.61-3.23-2.4-4.36-1.46-.64.54,0,.94.37,1.39,1.06,1.27,1.9,2.84,1.47,4.53l1.04-.37c-1.01-.67-3.97-2.77-5.05-1.28l.93-.17c-4.53-2.56-9.16-3.66-14.36-3.69-4.28-.03-10.54-.33-12.22-5.15-.17-.5-1.33-.17-1.16.31Z"/>
    </g>
    <path class="cls-7" d="m182.33,122.39c.11.24.14.49.26.54.27.11.6.2.87.15.79-.15,1.59-.33,2.36-.57,5.71-1.79,11.42-3.6,17.13-5.4.39-.12.8-.18,1.16-.37.33-.17.8-.41.54-.9-.11-.19-.5-.35-.74-.33-.6.07-1.2.21-1.78.39-4.76,1.45-9.51,2.91-14.26,4.38-1.65.51-3.3,1.02-4.93,1.57-.24.08-.42.36-.61.54Z"/>
    <path class="cls-7" d="m251.63,131.06c-.11.24-.14.49-.26.54-.27.11-.6.2-.87.15-.79-.15-1.59-.33-2.36-.57-5.71-1.79-11.42-3.6-17.13-5.4-.39-.12-.8-.18-1.16-.37-.33-.17-.8-.41-.54-.9.11-.19.5-.35.74-.33.6.07,1.2.21,1.78.39,4.76,1.45,9.51,2.91,14.26,4.38,1.65.51,3.3,1.02,4.93,1.57.24.08.42.36.61.54Z"/>
    <path class="cls-7" d="m188.13,108.64c-.86,0-1.17,0-1.47,0-.43.01-.87.13-.9.6-.03.42.29.71.77.74,3.26.15,6.42.91,9.61,1.53,2.19.43,4.36.94,6.55,1.37,1.09.22,2.19.44,3.3.11.14-.04.28-.29.29-.45.02-.17-.1-.36-.2-.52-.04-.07-.17-.11-.26-.12-5.04-.66-9.92-2.1-14.91-2.95-1.1-.19-2.22-.25-2.77-.31Z"/>
    <path class="cls-7" d="m233.25,120.18c-.86,0-1.17,0-1.47,0-.43.01-.87.13-.9.6-.03.42.29.71.77.74,3.26.15,6.42.91,9.61,1.53,2.19.43,4.36.94,6.55,1.37,1.09.22,2.19.44,3.3.11.14-.04.28-.29.29-.45.02-.17-.1-.36-.2-.52-.04-.07-.17-.11-.26-.12-5.04-.66-9.92-2.1-14.91-2.95-1.1-.19-2.22-.25-2.77-.31Z"/>
    <g>
      <path class="cls-7" d="m211.4,122.92c.36.14.65.36.93.35,1.75-.08,2.98.79,4.11,2,.47.5,1.17.8,1.95.5.57-.22.99,0,1.2.53.36.91,1.02.83,1.74.56,1.03-.39,1.72-1.12,1.82-2.22.08-.8.03-1.62-.04-2.42-.03-.4-.22-.76-.69-.89-.39-.11-.74.33-.75,1.03,0,.4.07.81.04,1.21-.1,1.28-1,2.25-2.27,2.4-.24.03-.63-.15-.75-.36-.78-1.3-2.46-1.83-2.87-3.44-.05-.18-.53-.43-.73-.37-1.33.39-2.58.12-3.84-.29-.11-.04-.38.16-.45.3-.07.15-.07.42.02.55.17.24.42.41.59.56Z"/>
      <path class="cls-7" d="m216.53,116.87c-.96-.31-1.82-.97-2.88-.88-.25.02-.58.25-.7.48-.13.23-.17.73-.04.84,1.75,1.35,3.38,2.99,5.84,2.85.26-.01.57-.22.74-.44.28-.36.13-.78-.14-1.09-.2-.22-.45-.41-.71-.56-.7-.41-1.41-.8-2.11-1.2Z"/>
      <path class="cls-7" d="m207.05,117.3c-.36.75-.59,1.53-.17,2.32.12.23.43.41.69.49.31.09.69-.13.64-.42-.24-1.66.77-2.61,1.87-3.55.27-.23.27-.56.1-.81-.26-.4-.68-.39-1.05-.17-.88.52-1.66,1.16-2.07,2.14Z"/>
    </g>
    <path class="cls-7" d="m207.57,108.13c.62.05,1.39.12,2.16.16.42.02.68-.46.45-.82-.1-.16-.2-.35-.34-.46-.97-.79-2.07-1.29-3.33-1.38-.53-.04-.96.24-1.07.63-.13.49.03.87.39,1.21.45.41,1.02.52,1.73.66Z"/>
    <path class="cls-7" d="m230.12,116.95c.39.08,1.18.28,1.92.37.7.08,1.02-.25.74-.58-.97-1.17-2.18-2.29-4.54-2.93-1.14-.31-2.11-.03-1.97.59.24,1.08,1.17,1.73,3.84,2.54Z"/>
    <path class="cls-11" d="m41.05,118.58s-.88,5.1,1.13,10c0,0,1.76,4.52,2.01,1.88s1.76-4.15,1.76-4.15c0,0-1.76,4.9,0,7.17s6.66,6.41,6.16,2.51-.13-5.15,2.51-.13,4.27,11.04,7.17,12.31,5.01.21,6.97,3.32,4.47,2.35,9.88,5.12,7.43,4.4,8.18,2.89-16.79-10.06-22.98-19.61-9.97-13.95-12.1-12.95-7.67-13.95-10.69-8.36Z"/>
  </g>
  <g id="cat">
    <path class="cls-2" d="m113.94,1.49c2.47-.18,4.95-.37,7.42-.55,3.99.08,7.99.17,11.98.25,1.43,0,2.86.01,4.28.02.57,0,1.14.02,1.71.03.95.06,1.9.13,2.85.19,3.6.17,7.2.33,10.8.5.84.07,1.67.13,2.51.2.23.16.45.33.67.49,1.05.01,2.09.02,3.14.04,1.14.18,2.28.36,3.42.54,1.05.19,2.09.38,3.14.57.86.19,1.71.38,2.57.57.76.22,1.51.45,2.27.67.82.39,1.64.78,2.46,1.18.43.54.87,1.08,1.3,1.62.52,1.63-.59,2.61-1.48,3.68-.78.67-1.56,1.33-2.34,2-.57.21-1.16.37-1.71.63-2.15,1.02-4.22,2.22-6.43,3.08-4.74,1.85-9.51,3.68-14.35,5.25-5.85,1.9-11.78,3.55-17.68,5.27-.48.14-1.03,0-1.55,0,.09-.68.18-1.36.27-2.03-.66.27-1.32.52-1.97.81-.21.09-.36.31-.55.45-1.14.82-2.28,1.64-3.7,2.67-.1-.9-.23-1.44-.21-1.96.17-3.44.41-6.88.56-10.33.08-1.83-.39-2.15-1.87-1.08-2.65,1.92-5.17,4.01-7.71,6.07-.22.18-.4.8-.27.95.22.26.8.54,1.03.42,1.53-.81,3.01-1.7,4.48-2.63.57-.36,1.05-.87,1.75-1.47.14.8.32,1.3.3,1.8-.1,2.4-.24,4.81-.41,7.2-.05.69-.28,1.37-.43,2.06-1.94.4-3.9.73-5.82,1.2-2.8.69-5.58,1.48-8.38,2.22.16-1.44.38-2.88.44-4.33.04-.9-.15-1.81-.24-2.72-.89.35-1.91.53-2.66,1.07-2.21,1.62-4.37,3.33-6.43,5.15-.5.44-.52,1.41-.76,2.14-1.81,1.41-4.59.83-6.36,3.25,1.26.52,2.31,1.13,3.45,1.4,3.2.75,6.43,1.36,9.64,2.02-.2,1.09-.41,2.17-.7,3.72,1.11-.42,1.89-.57,2.51-.98,1.14-.76,2.17-1.67,3.25-2.51,1.55.31,3.1.66,4.66.92,6.77,1.15,13.6,1.99,20.13,4.25,1.11.38,2.21.92,3.16,1.59,1.32.94,1.44,2.13.13,3.05-1.89,1.31-3.91,2.52-6.04,3.36-6.02,2.39-12.34,3.72-18.74,4.57-5.77.77-11.55,1.45-17.34,2.01-5.04.49-10.11.77-15.17,1.09-.73.05-1.49-.21-2.23-.32.59-1,1.18-2,1.77-3-.15-.13-.3-.26-.45-.39-.43.2-.91.35-1.29.62-1.07.79-2.07,1.68-3.17,2.43-.51.35-1.18.49-1.77.72-.13-.62-.26-1.25-.38-1.87-.03-.14,0-.28.02-.43.36-3.18.76-6.35,1.06-9.54.15-1.55-.73-2.12-2-1.19-2.65,1.92-5.19,4-7.72,6.07-.28.23-.27.82-.4,1.24.44.06.99.33,1.29.15,1.51-.86,2.96-1.82,4.42-2.76.46-.3.89-.65,1.34-.97.14.08.27.17.41.25-.16,3.12-.32,6.23-.48,9.35-.4-.1-.8-.27-1.2-.27-3.07-.03-6.14,0-9.21-.05-1.17-.02-2.34-.16-3.51-.24-.21-.64-.41-1.28-.62-1.93-.62.26-1.28.46-1.87.79-.77.44-1.49.97-2.23,1.47-2.58-.31-5.16-.68-7.74-.91-7.88-.7-15.75-1.47-23.38-3.73-.94-.28-1.89-.7-2.68-1.27-1.32-.94-1.48-1.99-.29-3.09,1.35-1.24,2.83-2.43,4.46-3.25,6.49-3.27,13.09-6.32,19.59-9.58,3.86-1.94,7.59-4.14,10.62-7.34,2.58-2.72,2.62-5.5-.08-8.08-1.09-1.04-2.42-1.81-3.61-2.74-1.37-1.07-2.85-2.06-4.03-3.32-1.17-1.24-.95-2.2.18-3.52,2.02-2.34,4.78-3.39,7.54-4.41,7.1-2.62,14.5-4.09,21.93-5.31,7.42-1.22,14.88-2.22,22.34-3.18,6.1-.78,12.23-1.36,18.35-2.03Zm-27.59,41.02c.16.05.32.1.49.15,0,1.18.11,2.37-.02,3.54-.33,2.91-.78,5.81-1.16,8.72-.07.57-.02,1.15-.03,1.73.62-.08,1.41.07,1.82-.26,2.38-1.89,4.7-3.84,6.96-5.87.55-.5.77-1.36,1.15-2.06-2.87.24-4.17,3.09-7,3.43,0-.84-.05-1.5,0-2.15.28-3.25.6-6.51.88-9.76.04-.49-.11-.99-.17-1.48-.58.09-1.31,0-1.72.31-2.64,2.01-5.22,4.1-7.79,6.2-.23.19-.26.64-.38.96.34.12.71.41,1,.33.8-.21,1.66-.43,2.33-.89,1.27-.87,2.43-1.92,3.64-2.89Z"/>
    <path class="cls-4" d="m108.17,42.27c-1.08.85-2.11,1.75-3.25,2.51-.62.41-1.4.56-2.51.98.29-1.55.49-2.64.7-3.72.27-2.56.54-5.12.81-7.67v-3.45c-2.09,1.61-3.78,2.92-5.47,4.22-.69.08-1.38.16-2.07.24.24-.73.27-1.7.76-2.14,2.06-1.82,4.22-3.53,6.43-5.15.75-.55,1.77-.73,2.66-1.07.09.91.28,1.82.24,2.72-.07,1.45-.29,2.89-.44,4.33-.11,2.17-.21,4.35-.32,6.52.15.06.3.11.45.17l6.02-4.14c.12.15.25.31.37.46-.59,2.42-2.64,3.68-4.37,5.19Z"/>
    <path class="cls-4" d="m50.76,63.23c.74-.49,1.46-1.03,2.23-1.47.58-.33,1.24-.53,1.87-.79.21.64.41,1.28.62,1.93-.15,1.06-.35,2.11-.44,3.18-.23,2.81-.4,5.62-.62,8.68,2.87-.68,4.19-3.26,7.06-4.13-.34.87-.45,1.45-.76,1.89-2.04,2.89-4.99,4.75-7.8,6.77-.25.18-.85.22-1.02.05-.26-.25-.43-.77-.38-1.13.38-2.5.94-4.99,1.21-7.5.2-1.82.04-3.68.04-5.52-.16-.04-.31-.08-.47-.12-.44.39-.85.83-1.34,1.16-1.4.94-2.79,1.89-4.27,2.69-.38.21-1.04-.09-1.57-.16-.02-.17-.05-.34-.07-.52,1.9-1.67,3.8-3.33,5.7-5Z"/>
    <path class="cls-4" d="m67.92,51.9c.74-.49,1.46-1.03,2.23-1.47.58-.33,1.24-.53,1.87-.79.21.64.41,1.28.62,1.93-.15,1.06-.35,2.11-.44,3.18-.23,2.81-.4,5.62-.62,8.68,2.87-.68,4.19-3.26,7.06-4.13-.34.87-.45,1.45-.76,1.89-2.04,2.89-4.99,4.75-7.8,6.77-.25.18-.85.22-1.02.05-.26-.25-.43-.77-.38-1.13.38-2.5.94-4.99,1.21-7.5.2-1.82.04-3.68.04-5.52-.16-.04-.31-.08-.47-.12-.44.39-.85.83-1.34,1.16-1.4.94-2.79,1.89-4.27,2.69-.38.21-1.04-.09-1.57-.16-.02-.17-.05-.34-.07-.52,1.9-1.67,3.8-3.33,5.7-5Z"/>
    <path class="cls-4" d="m118.74,17.62c.74-.49,1.46-1.03,2.23-1.47.58-.33,1.24-.53,1.87-.79.21.64.41,1.28.62,1.93-.15,1.06-.35,2.11-.44,3.18-.23,2.81-.4,5.62-.62,8.68,2.87-.68,4.19-3.26,7.06-4.13-.34.87-.45,1.45-.76,1.89-2.04,2.89-4.99,4.75-7.8,6.77-.25.18-.85.22-1.02.05-.26-.25-.43-.77-.38-1.13.38-2.5.94-4.99,1.21-7.5.2-1.82.04-3.68.04-5.52-.16-.04-.31-.08-.47-.12-.44.39-.85.83-1.34,1.16-1.4.94-2.79,1.89-4.27,2.69-.38.21-1.04-.09-1.57-.16-.02-.17-.05-.34-.07-.52,1.9-1.67,3.8-3.33,5.7-5Z"/>
    <path class="cls-4" d="m37.84,89.37h-.13s-.11.06-.11.06c-.43.29-.85.57-1.28.85-.63.61-1.47.77-1.94.08-.33-.5-.27-1.41-.12-2.07.27-1.17.75-2.29,1.14-3.43.1-2.28.2-4.57.3-6.85v-1.8c-.69.5-1.15.83-1.6,1.15-1.21.89-2.36,1.9-3.67,2.61-.59.32-1.5.05-2.56.05.34-.57.42-.81.58-.94,2.58-2.08,5.16-4.17,7.79-6.18.42-.33,1.11-.31,1.67-.45.14.61.43,1.23.39,1.83-.23,3.07-.55,6.14-.83,9.21,0,.09,0,.19,0,.28.05.63.1,1.26.15,1.89.69-.29,1.43-.5,2.06-.89,1.38-.86,2.7-1.81,4.16-2.56-.15,2.36-1.77,3.58-3.24,4.9-.24.18-.47.37-.71.55-.24.14-.48.27-.72.41-.1.07-.2.13-.3.2-.09.09-.19.17-.28.26-.25.28-.5.55-.75.83Z"/>
    <path class="cls-4" d="m86.35,42.51c-1.21.97-2.36,2.02-3.64,2.89-.67.46-1.53.68-2.33.89-.29.07-.66-.21-1-.33.12-.33.14-.77.38-.96,2.57-2.1,5.15-4.19,7.79-6.2.41-.31,1.14-.22,1.72-.31.06.5.21,1,.17,1.48-.27,3.26-.6,6.51-.88,9.76-.06.65,0,1.31,0,2.15,2.83-.34,4.13-3.18,7-3.43-.37.7-.59,1.56-1.15,2.06-2.25,2.03-4.58,3.99-6.96,5.87-.42.33-1.2.19-1.82.26,0-.58-.05-1.16.03-1.73.38-2.91.83-5.81,1.16-8.72.13-1.17.02-2.36.02-3.54-.16-.05-.32-.1-.49-.15Z"/>
  </g>
</svg>