<?xml version="1.0" encoding="UTF-8"?>
<svg xmlns="http://www.w3.org/2000/svg" xmlns:xlink="http://www.w3.org/1999/xlink" viewBox="0 0 152.4 184.53">
  <defs>
    <style>
      .cls-1, .cls-2, .cls-3, .cls-4, .cls-5, .cls-6 {
        fill: none;
      }

      .cls-2 {
        opacity: .51;
      }

      .cls-3 {
        clip-path: url(#clippath-3);
      }

      .cls-4 {
        clip-path: url(#clippath-2);
      }

      .cls-5 {
        clip-path: url(#clippath-1);
      }

      .cls-7 {
        fill: #9ce7e3;
      }

      .cls-6 {
        clip-path: url(#clippath);
      }
    </style>
    <clipPath id="clippath">
      <rect class="cls-1" x="461.68" y="302.95" width="416" height="276"/>
    </clipPath>
    <clipPath id="clippath-1">
      <rect class="cls-1" x="-29.23" y="86.06" width="909.25" height="606.17"/>
    </clipPath>
    <clipPath id="clippath-2">
      <rect class="cls-1" x="21.75" y="303.42" width="416" height="276"/>
    </clipPath>
    <clipPath id="clippath-3">
      <rect class="cls-1" x="-423.46" y="303.44" width="416.32" height="275.98" transform="translate(-430.59 882.87) rotate(-180)"/>
    </clipPath>
  </defs>
  <g id="_圖層_3" data-name="圖層 3">
    <g class="cls-6">
      <g class="cls-5">
        <image width="6720" height="4480" transform="translate(-29.23 86.06) scale(.14)" xlink:href="../../../../../../../../../../../../Users/pinyiwu/Downloads/pink-pet-bag-arrangement.jpg"/>
      </g>
    </g>
    <g class="cls-4">
      <image width="2670" height="4000" transform="translate(19.49 109.03) scale(.16)" xlink:href="../../../../../../../../../../../../Users/pinyiwu/Downloads/pexels-arina-krasnikova-7725981.jpg"/>
    </g>
    <g class="cls-3">
      <image width="6720" height="4480" transform="translate(65.3 320.98) rotate(-180) scale(.07)" xlink:href="../../../../../../../../../../../../Users/pinyiwu/Downloads/still-life-pet-food-assortment.jpg"/>
    </g>
  </g>
  <g id="bg">
    <g class="cls-2">
      <path class="cls-7" d="m117.38,146.02c-10.49,6.25-2.78,15.5-2.89,24.75-.03,2.25-.38,4.51-.1,6.74,1.1,8.87,10.58,7.8,16.32,4.4,7.86-4.65,14.41-11.51,18.63-19.61,1.58-3.02,2.86-6.3,2.94-9.71.09-3.84-1.68-8.47-5.53-9.92-3.63-1.37-7.03.84-10.63,1.04-6,.34-11.77-1.27-17.45,1.59-.46.23-.89.47-1.29.71Z"/>
      <path class="cls-7" d="m127.34,127.73c-1.55,1.61-1.88,4.17-1.07,6.24.81,2.08,2.62,3.67,4.67,4.53,2.06.86,4.34,1.05,6.57.89,2.95-.21,6.11-1.2,7.72-3.69,1.95-3.03.71-7.4-2.13-9.62-4.55-3.56-11.84-2.43-15.76,1.64Z"/>
      <path class="cls-7" d="m104,132.23c-.75,1.92-.11,4.22,1.32,5.71s3.54,2.2,5.61,2.2,4.08-.66,5.92-1.59c2.44-1.23,4.79-3.21,5.26-5.9.58-3.28-2.04-6.57-5.26-7.45-5.15-1.41-10.97,2.17-12.86,7.03Z"/>
      <path class="cls-7" d="m94.15,156.14c.89,1.86,3,2.98,5.06,2.95s4.03-1.07,5.44-2.57c1.41-1.5,2.32-3.42,2.9-5.4.78-2.62.95-5.69-.69-7.88-1.99-2.68-6.18-3.02-9.02-1.28-4.56,2.78-5.95,9.47-3.7,14.18Z"/>
      <path class="cls-7" d="m98.08,180.21c1.43,1.63,3.89,2.14,5.97,1.51,2.09-.63,3.79-2.27,4.8-4.21,1.01-1.94,1.39-4.15,1.42-6.33.05-2.89-.65-6.04-2.92-7.79-2.78-2.13-7.13-1.25-9.53,1.35-3.84,4.16-3.36,11.35.25,15.47Z"/>
    </g>
    <g class="cls-2">
      <path class="cls-7" d="m52.11,107.86c-9.81.27-8.04,9.78-11.75,16.22-.9,1.57-2.03,3.01-2.72,4.69-2.71,6.65,4.36,9.62,9.72,9.5,7.34-.17,14.63-2.41,20.77-6.43,2.29-1.5,4.48-3.3,5.87-5.66,1.57-2.65,2.15-6.6.02-9.13-2.01-2.39-5.26-2.18-7.87-3.44-4.34-2.12-7.76-5.52-12.86-5.74-.41-.02-.8-.02-1.18-.01Z"/>
      <path class="cls-7" d="m66.28,98.94c-1.72.52-2.95,2.18-3.2,3.96-.25,1.78.39,3.6,1.5,5.02,1.1,1.41,2.63,2.44,4.26,3.2,2.15,1.01,4.76,1.56,6.86.45,2.56-1.36,3.4-4.91,2.29-7.59-1.79-4.28-7.35-6.35-11.7-5.04Z"/>
      <path class="cls-7" d="m48.14,92.93c-1.28,1.06-1.74,2.92-1.32,4.52.42,1.6,1.62,2.93,3.07,3.74,1.45.81,3.12,1.14,4.78,1.21,2.2.09,4.62-.37,6.01-2.07,1.7-2.07,1.15-5.41-.76-7.29-3.06-3.01-8.55-2.79-11.78-.12Z"/>
      <path class="cls-7" d="m31.85,105.83c-.11,1.65.93,3.27,2.39,4.06,1.46.79,3.25.83,4.83.33s2.97-1.49,4.16-2.65c1.57-1.54,2.9-3.62,2.62-5.8-.34-2.66-3.15-4.54-5.83-4.44-4.29.16-7.89,4.3-8.17,8.49Z"/>
      <path class="cls-7" d="m25.15,124.25c.36,1.7,1.89,3.03,3.6,3.4s3.55-.1,5.02-1.07c1.47-.96,2.6-2.37,3.48-3.88,1.17-2.01,1.92-4.49,1.01-6.61-1.11-2.58-4.51-3.67-7.21-2.8-4.33,1.41-6.82,6.64-5.9,10.95Z"/>
    </g>
    <g class="cls-2">
      <path class="cls-7" d="m23.18,55.44c-5.54-4.6-9.17,1.5-14.34,3.25-1.26.43-2.58.67-3.77,1.27-4.71,2.35-2.26,7.42.76,9.94,4.13,3.46,9.23,5.75,14.57,6.51,1.99.28,4.06.35,5.98-.27,2.15-.7,4.38-2.6,4.43-5.03.05-2.29-1.85-3.75-2.67-5.71-1.37-3.27-1.61-6.8-4.31-9.39-.22-.21-.43-.4-.65-.58Z"/>
      <path class="cls-7" d="m35.31,57.39c-1.2-.54-2.69-.22-3.68.63-1,.86-1.53,2.18-1.6,3.49-.08,1.31.27,2.62.79,3.83.7,1.6,1.87,3.17,3.57,3.57,2.07.49,4.26-1.06,4.93-3.08,1.09-3.23-.98-7.06-4.01-8.44Z"/>
      <path class="cls-7" d="m28.22,45.29c-1.22-.04-2.37.77-2.91,1.86-.54,1.09-.53,2.4-.12,3.55.4,1.15,1.17,2.14,2.05,2.98,1.17,1.12,2.73,2.03,4.32,1.77,1.94-.32,3.25-2.42,3.11-4.39-.23-3.14-3.36-5.68-6.44-5.77Z"/>
      <path class="cls-7" d="m12.99,44.51c-.86.86-1.07,2.25-.65,3.39.42,1.14,1.39,2.03,2.5,2.52s2.36.62,3.57.56c1.61-.08,3.35-.59,4.25-1.93,1.1-1.63.47-4.03-1.06-5.27-2.44-1.99-6.44-1.45-8.61.73Z"/>
      <path class="cls-7" d="m.37,51.42c-.62,1.11-.43,2.58.33,3.62s2.01,1.66,3.28,1.84c1.28.18,2.58-.04,3.8-.45,1.62-.54,3.23-1.55,3.76-3.16.64-1.96-.71-4.21-2.62-5.03-3.07-1.32-6.97.36-8.55,3.18Z"/>
    </g>
    <g class="cls-2">
      <path class="cls-7" d="m51.53,11.09c-2.96-4.76-7.13-1.14-11.38-1.11-1.03,0-2.07-.13-3.09.01-4.06.58-3.48,4.92-1.88,7.52,2.2,3.57,5.4,6.51,9.15,8.38,1.4.7,2.91,1.26,4.48,1.26,1.76,0,3.87-.84,4.5-2.62.6-1.68-.45-3.22-.57-4.87-.21-2.75.48-5.41-.88-7.99-.11-.21-.22-.4-.33-.58Z"/>
      <path class="cls-7" d="m60.01,15.51c-.75-.7-1.93-.82-2.87-.44-.95.39-1.66,1.23-2.04,2.18-.38.95-.44,2-.35,3.02.12,1.35.6,2.79,1.76,3.51,1.41.87,3.4.26,4.4-1.06,1.59-2.12,1.01-5.45-.89-7.21Z"/>
      <path class="cls-7" d="m57.74,4.84c-.89-.33-1.94-.01-2.61.66-.67.67-.98,1.64-.96,2.59.02.95.34,1.87.78,2.7.59,1.11,1.51,2.17,2.75,2.36,1.51.24,2.99-.99,3.37-2.48.6-2.38-1.09-5.01-3.34-5.84Z"/>
      <path class="cls-7" d="m46.69.53c-.85.42-1.34,1.4-1.31,2.35.03.95.53,1.84,1.23,2.47s1.59,1.03,2.5,1.29c1.21.33,2.62.39,3.61-.38,1.21-.94,1.33-2.86.51-4.15-1.32-2.07-4.39-2.65-6.54-1.57Z"/>
      <path class="cls-7" d="m35.69,2.54c-.73.67-.95,1.8-.64,2.75s1.07,1.72,1.97,2.17c.9.45,1.92.6,2.91.6,1.33,0,2.77-.35,3.55-1.41.95-1.29.51-3.28-.7-4.36-1.94-1.73-5.23-1.45-7.09.25Z"/>
    </g>
  </g>
</svg>