<?xml version="1.0" encoding="UTF-8"?>
<svg id="bg" xmlns="http://www.w3.org/2000/svg" viewBox="0 0 43.6 64.53">
  <defs>
    <style>
      .cls-1 {
        fill: #f93;
      }
    </style>
  </defs>
  <path class="cls-1" d="m17.04,43.17q2.67,1.71,2.42,11.49c4.93-6.66,7.3-13.45,5.61-21.81-1.18.53-2.17.86-3.03,1.39-4.03,2.49-8.27,2.72-12.39.6-2.67-1.37-5.31-3.1-7.38-5.25-3.88-4.03-2.62-9.56,2.46-11.88,5.09-2.33,10.04-1.49,14.77,1.13,1.79,1,3.45,2.24,5.57,3.63C27.12,14.52,23.97,7.47,22.5,0c2.62-.13,3.12,1.67,3.7,2.92,3.08,6.54,4.4,13.43,2.95,20.59-.47,2.32-.31,4.24.5,6.47,2.28,6.29,1.73,12.63-.63,18.82-.55,1.45-1.22,2.86-2.07,4.82,5.72-1.14,10.16-4.95,16.65-4.78-1.22,1.45-1.73,2.48-2.55,2.95-6.98,3.95-14.01,7.8-21.03,11.66-.56.31-1.14.61-1.75.79-3.26.94-5.05-.44-4.69-3.84.29-2.7.94-5.37,1.49-8.04.62-3.06,1.31-6.11,1.97-9.2Zm5.27-14.91c-2.25-3.49-5.29-5.56-8.99-6.28-2.09-.41-4.42-.1-6.55.33-1.58.32-2.27,1.72-1.6,3.38,2.5,6.2,11.96,7.81,17.14,2.56Z"/>
</svg>