<?xml version="1.0" encoding="UTF-8"?>
<svg id="bg" xmlns="http://www.w3.org/2000/svg" viewBox="0 0 165.47 160.53">
  <defs>
    <style>
      .cls-1 {
        fill: #ffce66;
      }

      .cls-2 {
        fill: #ccd6a6;
      }

      .cls-3 {
        fill: #476f9c;
      }

      .cls-4 {
        fill: #604c3f;
      }
    </style>
  </defs>
  <g>
    <path class="cls-2" d="m76.04,72.47c.29.3.58.6.88.9,2.34,2.4,4.69,4.8,7.04,7.21.22.22.43.44.65.66,2.56,2.61,5.12,5.22,7.67,7.82.02.03.05.05.08.08,34.89,35.55,67.71,68.47,67.71,68.47,0,0,1.43.2,2.95-1.21.6-.56.92-1.13,1.08-1.66.1-.33.14-.65.13-.92,0-.68-.21-1.13-.21-1.13C164.02,152.68,15.13.83,10.63,2.02c-2.1.56,30.27,34.44,65.41,70.45Z"/>
    <path class="cls-4" d="m75.71,72.62c20.47,21.08,41.16,41.95,61.85,62.82,6.23,6.28,12.46,12.56,18.7,18.83.75.75,1.5,1.51,2.25,2.26.35.35.71.84,1.12,1.12.55.38,1.3.16,1.91-.06,1.73-.62,4.05-3.05,2.82-5.06-.56-.92-1.7-1.74-2.45-2.49-2.25-2.29-4.49-4.57-6.74-6.86-7.83-7.96-15.67-15.91-23.52-23.85-10.57-10.7-21.16-21.38-31.78-32.03-11.29-11.33-22.6-22.64-33.96-33.9-9.96-9.87-19.96-19.72-30.06-29.45-6.58-6.34-13.15-12.74-20.1-18.68-1.3-1.11-2.81-2.73-4.45-3.37-.5-.2-1.2-.18-1.09.53.08.49.6,1.07.87,1.46.63.88,1.32,1.72,2.01,2.56,5.67,6.84,11.84,13.29,17.93,19.75,9.45,10.04,19.01,19.97,28.6,29.87,5.35,5.52,10.72,11.03,16.09,16.54.2.21.89-.07.67-.3C57.87,53.36,39.27,34.44,21.42,14.86c-2.45-2.69-4.89-5.39-7.23-8.17-.75-.89-1.5-1.8-2.19-2.73-.36-.49-.64-1.12-1.03-1.58-.24-.28.02-.11-.19-.21-.23-.1-.13.13-.16.09.04.06.38.18.52.26.7.41,1.34.93,1.98,1.44,6.11,4.87,11.71,10.43,17.36,15.81,9.37,8.93,18.62,18,27.83,27.1,11.02,10.88,21.99,21.81,32.93,32.77,10.7,10.72,21.38,21.47,32.04,32.23,8.61,8.7,17.22,17.41,25.81,26.13,4.56,4.63,9.11,9.26,13.66,13.9.27.28.67.57.89.9,1.11,1.74-1.01,4.07-2.6,4.49-.25.07-.98-.01-.65.17-.02-.01-.03-.04-.05-.05-.14-.1-.26-.26-.38-.38-4.06-4.08-8.12-8.16-12.18-12.24-18.68-18.81-37.31-37.66-55.88-56.58-5.19-5.29-10.38-10.57-15.54-15.88-.2-.21-.89.07-.67.3Z"/>
  </g>
  <path class="cls-3" d="m76.04,72.47c.29.3.58.6.88.9l6.07-.15c.26,0,.5.09.69.28.18.19.28.43.27.69l-.23,5.39c-.01.35.07.7.25.99.08.14.17.26.29.38.11.11.23.21.36.29.3.18.65.27,1.01.27l5.44-.13c.26,0,.51.09.69.28.18.19.28.43.26.69l-.23,5.39c-.02.49.16.97.49,1.33.01.02.02.03.04.04.01.01.02.02.04.03.36.34.84.53,1.34.52l5.44-.13c.26,0,.51.09.69.28.18.19.28.43.27.69l-.23,5.39c-.02.51.17,1.01.53,1.37.36.36.86.56,1.37.55l5.44-.13c.26,0,.51.09.69.28.18.19.28.43.27.69l-.23,5.39c-.02.51.17,1.01.53,1.37.36.36.86.56,1.37.55l5.44-.13c.26,0,.5.09.69.28.18.19.28.43.27.69l-.23,5.39c-.02.51.17,1.01.53,1.37.36.36.86.56,1.37.55l5.44-.13c.26,0,.51.09.69.28.18.19.28.43.27.69l-.23,5.39c-.02.51.17,1.01.53,1.37.36.36.86.57,1.37.55l5.44-.13c.26,0,.51.09.69.28.18.19.28.43.26.69l-.23,5.39c-.02.51.17,1.01.53,1.37.36.36.86.56,1.37.55l5.44-.13c.26,0,.5.09.69.28.18.19.28.43.27.69l-.23,5.4c-.02.51.17,1.01.53,1.37s.86.56,1.37.55l5.44-.13c.26,0,.5.09.69.28.18.19.28.43.27.69l-.23,5.4c-.02.51.17,1.01.53,1.37.36.36.86.56,1.37.55l5.44-.13c.26,0,.51.09.69.28.19.19.28.43.27.69l-.23,5.4c-.02.51.17,1.01.53,1.37.3.31.71.5,1.13.54.08,0,.16.01.24,0l5.81-.14c.1-.33.14-.65.13-.92l-5.97.14c-.26,0-.51-.09-.69-.28-.18-.19-.28-.43-.27-.69l.23-5.4c.02-.51-.18-1.01-.53-1.37-.36-.36-.86-.56-1.37-.55l-5.44.13c-.26,0-.5-.09-.69-.28-.18-.19-.28-.43-.27-.69l.23-5.39c.02-.51-.17-1.01-.53-1.37-.36-.36-.86-.56-1.37-.55l-5.44.13c-.26,0-.51-.09-.69-.28-.18-.19-.28-.43-.27-.69l.23-5.39c.02-.51-.17-1.01-.53-1.37-.36-.36-.86-.57-1.37-.55l-5.44.13c-.26,0-.51-.09-.69-.28-.18-.19-.28-.43-.26-.69l.23-5.39c.02-.51-.17-1.01-.53-1.37-.36-.36-.86-.56-1.37-.55l-5.44.13c-.26,0-.51-.09-.69-.28-.19-.19-.28-.43-.27-.69l.23-5.4c.02-.51-.17-1.01-.53-1.37-.36-.36-.86-.56-1.37-.55l-5.44.13c-.26,0-.51-.09-.69-.28-.18-.19-.28-.43-.27-.69l.23-5.39c.02-.51-.17-1.01-.53-1.37-.36-.36-.86-.56-1.37-.55l-5.44.13c-.26,0-.51-.09-.69-.28-.18-.19-.28-.43-.27-.69l.23-5.4c.02-.51-.17-1.01-.53-1.37-.36-.36-.86-.56-1.37-.55l-5.44.13c-.26,0-.51-.09-.69-.28-.18-.19-.28-.43-.27-.69l.23-5.39c.02-.51-.17-1.01-.53-1.37-.36-.36-.86-.56-1.37-.55l-5.44.13c-.26,0-.5-.09-.69-.28-.18-.19-.28-.43-.27-.69l.23-5.39c.02-.51-.17-1.01-.53-1.37-.36-.36-.86-.56-1.37-.55l-5.44.13c-.26,0-.51-.09-.69-.28-.18-.19-.28-.43-.27-.69l.23-5.39c.02-.51-.17-1.01-.53-1.37-.36-.36-.86-.56-1.37-.55l-6.92.17Z"/>
  <path class="cls-3" d="m84.68,116.04l.63-.42c-.26-.38-6.54-9.32-28.08-15.36-18.57-5.21-18.99-23.27-19.36-39.2-.06-2.44-.11-4.74-.22-6.98-.47-9.29-9.77-16.19-18.75-22.87C10.76,25.17,3.07,19.47,1.74,12.29c-.91-4.92-.39-8.19,1.54-9.72,2.65-2.1,7.15-.22,7.19-.2l.3-.69c-.2-.09-4.97-2.07-7.97.31C.64,3.7.03,7.22,1,12.43c1.38,7.46,9.18,13.25,17.44,19.39,8.85,6.57,18,13.36,18.45,22.3.11,2.24.17,4.53.22,6.96.38,16.19.8,34.54,19.91,39.9,21.23,5.96,27.59,14.97,27.65,15.06Z"/>
  <g>
    <path class="cls-1" d="m83.48,119.36c.69,2.18,2.7,7.32,8.05,14.49,7.24,9.69,12.68,7.93,17.33,14.59,4.66,6.66,6.81,12.09,6.81,12.09,0,0,2.24-4.34,5.67-3.34,3.43,1,4.35-1.56,5.25-4.02.9-2.46,4.35.46,4.35.46-1.23-10.76-21.67-22.28-30.51-25.87-6.73-2.73-10.92-7.23-12.54-9.22-1.93,1.41-3.65,1.08-4.42.82Z"/>
    <path class="cls-4" d="m83.11,119.46c.84,2.64,2.09,5.16,3.47,7.56,2.35,4.09,5.09,8.21,8.58,11.41,2.49,2.28,5.41,3.73,8.26,5.46,3.44,2.09,5.55,5.15,7.62,8.54,1.6,2.62,3.13,5.35,4.27,8.21.06.16.66-.05.72-.16.56-1.07,1.42-2.12,2.44-2.76,1.83-1.15,3.9.42,5.84-.57,1.51-.77,1.98-2.44,2.59-3.89.72-1.73,2.72-.32,3.7.5.1.08.72-.06.7-.22-.41-3.23-2.29-6.06-4.38-8.47-2.54-2.93-5.58-5.42-8.72-7.67s-6.7-4.43-10.24-6.33c-3.11-1.66-6.4-2.91-9.54-4.5-3.88-1.97-7.4-4.75-10.16-8.13-.11-.13-.52.02-.64.1-1.22.82-2.47,1.12-3.84.68-.16-.05-.79.21-.6.27,1.74.56,3.52.05,4.99-.95l-.64.1c2.18,2.66,4.82,4.96,7.74,6.78,3.21,2.01,6.82,3.24,10.19,4.95,7.02,3.56,14.03,7.89,19.53,13.58,2.6,2.69,5.11,5.97,5.59,9.79l.7-.22c-.94-.79-2.27-1.65-3.56-1.43-1.89.33-1.89,2.86-2.91,4.16-1.28,1.63-2.83.6-4.47.67-.77.03-1.53.28-2.2.66-1.19.68-2.19,1.82-2.83,3.03l.72-.16c-.91-2.29-2.1-4.49-3.33-6.62-1.97-3.41-4.04-7.03-7.32-9.34-2.56-1.81-5.47-3.03-7.96-4.95-3.86-2.99-6.75-7.13-9.28-11.26-1.73-2.83-3.31-5.83-4.32-9-.05-.15-.77.06-.72.19Z"/>
  </g>
  <g>
    <path class="cls-3" d="m80.33,115.48c-.31-1.02.4-2.56,3.33-3.84h0c.6-.26,1.28-.12,1.88.39.75.65,1.34,1.9,1.02,3.04-.15.55-.66,1.5-2.35,1.78-.59.1-1.14.12-1.64.06-1.16-.12-2-.63-2.24-1.44Zm3.63-3.16c-2.32,1.01-3.13,2.21-2.91,2.94.19.62,1.21,1.15,3.02.85.96-.16,1.56-.59,1.74-1.24.24-.84-.23-1.79-.78-2.27-.15-.13-.4-.3-.69-.33-.13-.01-.26,0-.39.06Z"/>
    <path class="cls-3" d="m82.03,119.58c.87.09,1.65-.07,2.33-.5,1.98-1.25,2.26-4.29,2.27-4.42l-.76-.07s-.26,2.8-1.93,3.85c-.8.5-1.82.54-3.04.09-1.13-.41-1.74-.93-1.81-1.53-.13-1.18,1.72-2.64,2.45-3.1l-.41-.63c-.31.2-3,1.97-2.79,3.82.1.92.88,1.64,2.31,2.16.48.18.95.29,1.38.33Z"/>
    <path class="cls-3" d="m84.4,119.95c.98.1,2.3-.06,3.72-1.1.52-.38,1.02-.85,1.49-1.41.89-1.05,1.16-1.98.82-2.76-.75-1.68-4.08-1.86-4.46-1.87l-.03.75c.9.04,3.32.36,3.79,1.42.22.5-.02,1.16-.7,1.97-.43.51-.89.94-1.36,1.29-1.76,1.28-3.3,1.03-4.07.76-.23-.08-.36-.15-.36-.15l-.38.65s.19.11.49.21c.27.09.63.19,1.05.23Z"/>
    <path class="cls-3" d="m83.79,122.2c.06,0,.13.01.19.01,1.21.02,2.33-.97,3.32-2.94l-.68-.34c-.84,1.67-1.75,2.54-2.63,2.53-1.32-.02-2.52-1.98-2.87-2.73l-.69.32c.06.12,1.4,2.95,3.36,3.15Z"/>
  </g>
  <path class="cls-3" d="m125,150.71l.73-.22c-.03-.09-2.9-9.02-13.74-13.36-7.92-3.18-13.95-6.86-17.9-10.96l-.55.52c4.03,4.17,10.14,7.92,18.16,11.13,10.5,4.21,13.27,12.8,13.3,12.88Z"/>
  <path class="cls-3" d="m120.88,152.09l.73-.19c-1.93-7.39-10.88-12.07-11.26-12.27l-.35.67c.09.05,9.03,4.73,10.87,11.79Z"/>
  <path class="cls-3" d="m108.79,143.83l.54-.52c-2.61-2.66-5.01-3.93-7.33-5.17-1.34-.71-2.73-1.45-4.15-2.45-4.74-3.35-6.34-5.89-9.73-12.3l-.67.35c3.44,6.53,5.08,9.12,9.96,12.56,1.46,1.03,2.87,1.78,4.23,2.5,2.37,1.26,4.62,2.45,7.14,5.03Z"/>
  <path class="cls-3" d="m117.38,154.92l.72-.25c-1.25-3.57-5.21-7.75-5.37-7.92l-.55.52s4.01,4.24,5.21,7.65Z"/>
</svg>