<?xml version="1.0" encoding="UTF-8"?>
<svg id="bg" xmlns="http://www.w3.org/2000/svg" viewBox="0 0 300.51 234.66">
  <defs>
    <style>
      .cls-1 {
        fill: #eee9e0;
      }

      .cls-2 {
        fill: #f1cf8c;
      }

      .cls-3 {
        fill: #ffce66;
      }

      .cls-4 {
        fill: #b5a589;
      }

      .cls-5 {
        fill: #ccd6a6;
      }

      .cls-6 {
        fill: #d4d0c2;
      }

      .cls-7 {
        fill: #e28d44;
      }

      .cls-8 {
        fill: #476f9c;
      }

      .cls-9 {
        fill: #604c3f;
      }
    </style>
  </defs>
  <g>
    <path class="cls-5" d="m4.68,5.85C.25,9.86.85,17.79,6.02,23.57c5.17,5.78,12.94,7.21,17.37,3.2,4.43-4.01,3.83-11.94-1.34-17.72C16.88,3.28,9.11,1.85,4.68,5.85Zm16.06,4.4c4.32,4.83,4.82,11.46,1.12,14.81-3.7,3.35-10.2,2.15-14.52-2.68-4.32-4.83-4.82-11.46-1.12-14.81,3.7-3.35,10.2-2.15,14.52,2.68Z"/>
    <g>
      <path class="cls-9" d="m4.35,5.86C.22,9.71.85,16.05,3.43,20.58s7.8,8.56,13.4,8.64c4.83.07,8.99-3.08,9.75-7.94.9-5.76-2.48-11.63-7.05-14.94-4.36-3.15-10.79-4.34-15.14-.52-.29.26.42.2.57.07,4.03-3.54,9.91-2.16,13.89.72s7.21,7.98,7.14,13.19-3.59,9.1-8.73,9.07-10.19-3.67-12.86-8.07-3.6-11.03.61-14.96c.18-.17-.52-.12-.66.02Z"/>
      <path class="cls-9" d="m20.39,10.38c2.73,3.11,4.54,7.69,3.05,11.79-.67,1.83-2.03,3.36-3.86,4.1-1.92.78-4.12.6-6.06-.05-4.18-1.41-7.6-5.06-8.9-9.25-1.14-3.67-.51-8.29,3.16-10.29,4.32-2.35,9.63.45,12.59,3.71.14.16.83-.1.68-.26-2.93-3.22-7.47-5.48-11.88-4.31-4.15,1.1-6.23,5.08-5.74,9.19.58,4.9,4.2,9.36,8.71,11.24,3.59,1.49,8.18,1.22,10.77-1.98,3.45-4.26,1.38-10.45-1.86-14.14-.14-.16-.83.09-.68.26Z"/>
    </g>
  </g>
  <g>
    <g>
      <path class="cls-6" d="m123.49,131.94c1.25-.08,2.48-.08,3.69,0,4.68.31,9.03,1.79,12.66,4.14,5.96,3.85,10.01,10.02,10.51,17.19.88,12.69-9.72,23.72-23.68,24.63-6.39.42-12.38-1.36-17.08-4.63-5.55-3.86-9.3-9.8-9.78-16.66v-.04c-.88-12.69,9.72-23.72,23.68-24.63Z"/>
      <path class="cls-9" d="m123.33,132.08c10.88-.62,22.12,5.4,25.65,16.11,2.85,8.65-.35,17.99-7.27,23.72-8.26,6.85-20.49,7.74-29.79,2.48-8.49-4.81-13.54-14.53-11.25-24.22,2.47-10.42,12.26-17.35,22.65-18.1.19-.01.79-.32.31-.29-9.17.66-18.08,5.68-22.14,14.15-4.51,9.4-1.35,20.5,6.82,26.77s20.38,7.03,29.64,2.1c8.15-4.34,13.68-13.03,12.69-22.41-.63-6-3.89-11.44-8.61-15.13-5.22-4.08-11.82-5.85-18.39-5.48-.19.01-.79.32-.31.29Z"/>
    </g>
    <g>
      <path class="cls-3" d="m123.49,131.94c6.07-.4,11.78,1.19,16.36,4.14,2.23,3.41,3.63,7.39,3.93,11.69.96,13.83-9.87,25.79-24.18,26.73-3.5.23-6.88-.22-10-1.24-5.56-3.87-9.31-9.82-9.79-16.7-.88-12.69,9.73-23.72,23.68-24.63Z"/>
      <path class="cls-9" d="m123.34,132.11c5.27-.3,10.56.82,15.15,3.48,2.05,1.19,3.04,4.14,3.76,6.3s1.16,4.63,1.23,7.02c.22,8-3.69,15.7-10.09,20.45-3.4,2.52-7.41,4.17-11.6,4.77-2.73.39-5.51.36-8.22-.11-1.42-.24-3.02-.5-4.23-1.32-.92-.62-1.76-1.4-2.55-2.17-6.1-5.98-8.33-15.06-5.24-23.09,3.45-8.99,12.39-14.65,21.81-15.33.22-.02.78-.37.3-.33-8.33.6-16.39,4.74-20.9,11.93-4.85,7.74-4.29,17.72,1.38,24.89.76.97,1.61,1.87,2.51,2.7.78.72,1.7,1.65,2.67,2.12,1.11.55,2.58.72,3.79.93,1.47.25,2.96.37,4.46.38,4.33.02,8.65-.99,12.51-2.93,7.55-3.8,13.03-11.21,13.98-19.66.29-2.61.17-5.26-.37-7.82-.31-1.49-.77-2.95-1.36-4.35-.51-1.23-1.16-3.01-2.1-3.97-.79-.81-2.21-1.32-3.24-1.8-1.43-.66-2.92-1.19-4.45-1.59-2.9-.75-5.89-1-8.88-.83-.22.01-.78.36-.3.33Z"/>
    </g>
    <g>
      <path class="cls-1" d="m123.49,131.94c1.25-.08,2.48-.08,3.69,0,3.85,3.08,6.44,7.62,6.8,12.82.7,10.04-7.17,18.74-17.57,19.42-6.76.44-12.93-2.61-16.61-7.57v-.04c-.88-12.69,9.72-23.72,23.68-24.63Z"/>
      <path class="cls-9" d="m123.33,132.08c1.05-.06,2.47-.29,3.48.1.82.31,1.51,1.17,2.1,1.82,1.23,1.34,2.26,2.86,3.04,4.5,1.43,3.02,1.98,6.44,1.57,9.76-.79,6.33-5.09,11.85-10.94,14.35-6.78,2.9-14.93,1.35-20.28-3.69-.61-.58-1.18-1.2-1.71-1.85s-.49-1.24-.49-2.09c0-1.56.18-3.12.52-4.64.64-2.81,1.87-5.48,3.53-7.83,4.41-6.23,11.62-9.88,19.16-10.43.19-.01.79-.32.32-.29-6.69.48-13.21,3.2-17.89,8.07-2.31,2.4-4.13,5.28-5.21,8.44-.51,1.48-.85,3.02-1.02,4.57-.09.81-.13,1.63-.13,2.45,0,.97.02,1.36.63,2.11,4.73,5.76,12.55,8.08,19.73,6.34,6.45-1.56,11.95-6.35,13.88-12.77,1.18-3.93.96-8.23-.64-12.01-.84-1.99-2.05-3.82-3.52-5.39-.52-.56-1.3-1.54-2.02-1.81-.49-.19-1.34-.07-1.86-.07-.65,0-1.29.03-1.94.06-.19.01-.79.31-.32.29Z"/>
    </g>
    <g>
      <path class="cls-4" d="m121.81,145.21c.5,2.07.25,3.74-.72,4.95-1.67,2.08-4.85,2.02-4.98,2.02l.02-1.03s2.82.05,4.17-1.64c.77-.96.94-2.33.53-4.07l.99-.24Z"/>
      <path class="cls-9" d="m121.45,145.31c.49,2.11.27,4.46-1.71,5.72-1.01.64-2.39.96-3.5.93l.23.19.02-1.03-.5.27c1.2.02,2.49-.28,3.52-.89.77-.45,1.37-1.13,1.66-1.97.36-1.02.24-2.15,0-3.18l-.31.3.99-.24c.12-.03.35-.14.31-.3s-.3-.14-.42-.11l-.99.24c-.12.03-.34.14-.31.3.41,1.74.3,3.71-1.4,4.7-.57.33-1.23.52-1.89.62-.23.03-.46.06-.69.07-.15,0-.09,0-.21,0s-.5.07-.5.27l-.02,1.03c0,.13.11.18.23.19,2.62.07,5.62-1.22,6.3-3.96.27-1.09.16-2.25-.1-3.34-.07-.28-.79-.09-.72.19Z"/>
    </g>
  </g>
  <g>
    <path class="cls-4" d="m43.2,52.1l-.95.38c-.03-.08-3.22-7.82-10.59-10.53-2.67-.98-11.55-4.81-13.86-12.82l.98-.28c.05.16.1.32.15.48,1.91,5.74,7.96,9.77,13.07,11.65,7.81,2.87,11.06,10.78,11.19,11.12Z"/>
    <path class="cls-9" d="m43.05,51.93l-.95.38.51.07c-1.34-3.27-3.8-6.3-6.61-8.4-1.86-1.39-3.96-2.09-6.04-3.04s-4.25-2.22-6.1-3.74c-2.63-2.16-4.72-4.89-5.71-8.17l-.31.3.98-.28-.42-.11c.99,3.32,3.25,6.04,5.94,8.15,1.33,1.05,2.77,1.95,4.28,2.73s3.2,1.3,4.75,2.07c4.15,2.06,7.7,6,9.44,10.31.11.28.83.06.72-.19-1.6-3.97-4.72-7.6-8.36-9.81-1.51-.91-3.15-1.43-4.74-2.15s-3.16-1.61-4.6-2.63c-3.02-2.15-5.63-5.05-6.71-8.66-.05-.16-.3-.14-.42-.11l-.98.28c-.11.03-.36.14-.31.3,1.56,5.18,5.78,8.9,10.44,11.35,1.76.92,3.68,1.5,5.43,2.43,2.48,1.33,4.56,3.3,6.22,5.56.91,1.24,1.77,2.59,2.36,4.02.08.19.37.13.51.07l.95-.38c.47-.19.05-.48-.3-.34Z"/>
  </g>
  <g>
    <path class="cls-8" d="m53.24,45.02c7.44.1,14.4,3.5,18.86,9.17,0,0,0,0,0,.01,1.67,2.12,2.99,4.57,3.84,7.28.71,2.23,1.06,4.5,1.08,6.73.12,10.33-6.73,20.06-17.42,23.45-11.07,3.51-22.7-.93-28.36-10.08-.99-1.59-1.8-3.33-2.39-5.2-.31-.98-.55-1.96-.72-2.94h0c-.67-3.77-.38-7.55.73-11.07,0,0,0,0,0-.01,2.32-7.37,8.22-13.59,16.33-16.15,2.68-.85,5.39-1.23,8.03-1.2Z"/>
    <path class="cls-9" d="m53.09,45.21c10.11.21,19.4,6.63,22.49,16.37,2.86,9.01-.25,18.98-7.37,25.09-7.41,6.37-18.22,7.8-26.99,3.48-9.43-4.64-14.76-15.26-12.58-25.6,2.4-11.4,12.9-19.4,24.44-19.35.26,0,.77-.38.29-.38-10.09-.04-19.69,5.68-23.87,14.97-4.59,10.22-1.2,22.51,8.02,28.87,8,5.52,18.74,5.74,27.15,1,8.18-4.61,13.37-13.67,12.64-23.1-.97-12.42-11.77-21.47-23.94-21.73-.26,0-.78.37-.29.38Z"/>
  </g>
  <g>
    <path class="cls-3" d="m72.09,54.19s0,0,0,.01c.09.14.91,1.52-1.48,3.15-2.53,1.72-10.46-4.64-7.1,2.46,3.35,7.1.32,14.18-5.34,8.75-5.67-5.42-8.63-3.63-8.81,3.26-.18,6.89-5.11,12.09-10.15,2.88-5.04-9.21-8.84-6.75-11.07-1.26-2.08-11.66,5.08-23.44,17.06-27.24,10.19-3.22,20.84.28,26.89,7.98Z"/>
    <path class="cls-9" d="m71.76,54.32c.82,1.06-.71,2.75-1.59,3.07-.99.36-2.35-.19-3.29-.48-1.06-.32-3.22-1.34-4.23-.35-.54.53-.23,1.43-.03,2.04.63,1.85,1.54,3.49,1.82,5.46.23,1.6.22,3.42-.56,4.87-1.14,2.1-3.25,1.27-4.75.04-1.87-1.55-4.16-4.26-6.93-3.69-2.32.47-2.9,3.14-3.1,5.16-.28,2.86-.2,6.54-2.75,8.5-3.48,2.69-6.62-4.28-7.93-6.27s-3.41-4.8-6.18-4.19c-2.34.52-3.62,3.01-4.46,5.03l.72-.15c-1.32-7.75,1.37-15.68,6.98-21.16,6.51-6.35,16.32-8.62,24.95-5.77,4.46,1.48,8.39,4.22,11.31,7.89.13.16.82-.08.68-.26-5.67-7.1-14.97-10.39-23.87-8.82-8.26,1.46-15.57,6.86-19.04,14.55-1.94,4.31-2.53,9.1-1.74,13.76.04.22.66-.01.72-.15.86-2.07,2.59-5.61,5.38-4.38,3.6,1.58,4.62,6.18,7.1,8.89,1.46,1.6,3.55,2.58,5.56,1.35,2.22-1.36,2.99-4.43,3.16-6.85.16-2.28.2-7.93,3.98-6.63,1.76.61,3.1,1.99,4.47,3.19,1,.88,2.25,1.72,3.63,1.68,2.41-.08,3.37-2.48,3.48-4.57.1-1.91-.32-3.83-1.04-5.59-.28-.68-1.73-3-1.06-3.79.49-.58,2.41.31,3.02.49,1,.31,2.06.65,3.12.63,1.5-.03,4.44-2.08,3.13-3.77-.12-.16-.82.08-.68.26Z"/>
  </g>
  <g>
    <path class="cls-8" d="m53.24,45.02c10.15,6.51,4.03,16.76,1.02,14.73-3-2.02-7.34-4.18-8.51,1.25-1.17,5.43-4.82,6.72-7.29,2.89-2.47-3.83-7.11-6.91-9.59-1.52,2.32-7.37,8.22-13.59,16.33-16.15,2.68-.85,5.39-1.23,8.03-1.2Z"/>
    <path class="cls-9" d="m52.95,45.21c3.53,2.32,6.3,6.11,5.34,10.52-.28,1.27-.87,2.63-1.88,3.49-1.24,1.06-2.04.18-3.22-.51-2.63-1.52-6.16-2.3-7.48,1.22-.72,1.93-.96,5.15-3.38,5.85-2.27.66-3.52-2.22-4.68-3.58-1.24-1.43-2.97-2.9-4.95-2.96s-3.34,1.43-4.16,3.11l.71-.02c3.32-10.26,13.11-17.13,23.86-17.08.31,0,.76-.46.27-.46-11.15-.05-21.4,6.92-24.86,17.62-.1.3.61.18.71-.02.6-1.24,1.49-2.59,3.01-2.68,1.09-.06,2.14.5,3,1.13.95.7,1.76,1.59,2.45,2.54.59.8,1.07,1.65,1.89,2.25,1.1.81,2.48.92,3.67.24,1.74-1,2.42-3.07,2.89-4.9.3-1.17.73-2.58,2-3.03.99-.35,2.14.02,3.06.42.87.37,1.68.86,2.47,1.37.41.26.76.49,1.25.52,2.26.13,3.67-2.66,4.1-4.48,1.06-4.57-1.82-8.53-5.48-10.93-.23-.15-.88.17-.57.38Z"/>
  </g>
  <g>
    <path class="cls-3" d="m76.16,67.39c.29.28.58.55.87.83.12,10.33-6.73,20.06-17.42,23.45-11.07,3.51-22.7-.93-28.36-10.08,2.05-3.17,4.71-3.86,10.88,3.58,6.18,7.44,10.87,2.93,11.12-3.9.26-6.83,6.23-3.22,10.33-1.27,4.1,1.95,8.01-2.08,6.72-7.98-1.29-5.91.42-9.84,5.85-4.62Z"/>
    <path class="cls-9" d="m75.82,67.54c.59.56.86.93.83,1.76-.02.57-.06,1.14-.12,1.71-.13,1.24-.37,2.47-.7,3.67-.65,2.39-1.68,4.66-3.03,6.74-2.81,4.32-6.97,7.67-11.77,9.54-10.17,3.95-22.29.68-28.65-8.3-.29-.41-.76-.88-.58-1.36.1-.26.43-.58.62-.77.45-.47.98-.87,1.63-.96,1.68-.23,3.39,1.26,4.52,2.29,2.8,2.54,5.86,8.31,10.45,7.26,1.48-.34,2.61-1.44,3.33-2.74,1.08-1.97,1.04-4.03,1.37-6.18.14-.89.43-1.93,1.26-2.42s1.86-.26,2.71-.04c1.81.48,3.49,1.41,5.17,2.22s3.42,1.06,5.08.13c1.83-1.02,2.78-3.08,2.95-5.11.22-2.59-.95-5.07-.54-7.67.15-.95.53-2.19,1.71-2.13,1.43.08,2.8,1.45,3.76,2.35.2.18.88-.09.67-.29-1.29-1.22-3.51-3.26-5.47-2.25-1.65.86-1.57,3.32-1.43,4.89.28,3.18,1.48,6.72-1.2,9.29-2.41,2.31-5.21.23-7.64-.86-1.65-.74-3.72-1.66-5.55-1.08-2.24.71-2.18,3.17-2.38,5.1-.25,2.39-1.3,6.05-4.15,6.43-3.63.48-6.26-4-8.39-6.19-1.47-1.5-3.5-3.51-5.78-3.46-1.62.04-2.75,1.2-3.58,2.47-.04.06-.03.11,0,.16,4.75,7.55,13.43,11.78,22.29,11.31s16.7-5.29,20.99-12.77c1.14-1.98,2-4.12,2.54-6.34.29-1.21.49-2.45.59-3.69.04-.54.15-1.17.07-1.71-.1-.65-.37-.77-.9-1.28-.19-.19-.88.09-.67.29Z"/>
  </g>
  <g>
    <path class="cls-4" d="m120.34,148.83l-.33.97-.15-.05c-6.54-2.31-15.5-5.47-27.33-33.09-11.58-27.05-24.06-29.35-24.18-29.37l.16-1.01c.53.09,13.16,2.41,24.96,29.98,11.65,27.2,20.36,30.28,26.72,32.52l.15.05Z"/>
    <path class="cls-9" d="m119.98,148.87l-.33.97.58-.26c-3.14-1.11-6.12-2.41-8.78-4.45-4.78-3.66-8.32-8.79-11.33-13.94-8.02-13.74-12.04-30.92-25.38-40.91-1.79-1.34-3.99-2.84-6.25-3.22l.23.2.16-1.01-.5.27c1.7.28,3.87,1.52,5.43,2.58,4.92,3.34,8.76,8.18,11.95,13.14,5.4,8.41,8.58,17.92,13.38,26.64,3.02,5.48,6.55,10.97,11.38,15.03,2.87,2.41,6.11,3.91,9.61,5.14.27.09.85-.3.43-.44-3.13-1.1-6.08-2.41-8.71-4.47-4.81-3.76-8.34-9.04-11.33-14.29-7.83-13.74-11.99-30.81-25.39-40.6-1.87-1.37-4.14-2.81-6.48-3.2-.16-.03-.47.08-.5.27l-.16,1.01c-.02.14.13.18.23.2,1.54.26,3.74,1.58,5.2,2.59,4.96,3.46,8.8,8.42,11.98,13.49,5.3,8.45,8.45,17.97,13.34,26.65,3.01,5.33,6.53,10.63,11.28,14.57,2.92,2.42,6.22,3.93,9.77,5.19.21.07.51-.05.58-.26l.33-.97c.1-.29-.63-.2-.73.07Z"/>
  </g>
  <g>
    <g>
      <path class="cls-4" d="m91.4,107.2c.07.21.12.44.13.67.1,1.47-1,2.74-2.46,2.84-.71.05-1.39-.19-1.92-.66-.53-.47-.86-1.12-.9-1.83-.1-1.47,1-2.74,2.46-2.84h0c.71-.05,1.39.19,1.92.66.36.32.62.72.77,1.16Zm-4.06,1.36c.09.27.25.52.48.72.33.29.75.43,1.18.4.9-.06,1.58-.84,1.51-1.75-.03-.44-.23-.84-.56-1.13-.33-.29-.75-.43-1.18-.4-.9.06-1.58.84-1.51,1.75,0,.14.04.28.08.41Z"/>
      <g>
        <path class="cls-9" d="m91.04,107.29c.29.93.09,1.97-.63,2.64s-1.78.72-2.62.19-1.33-1.61-1.15-2.62c.15-.85.75-1.64,1.61-1.87,1.2-.32,2.4.54,2.79,1.65.09.26.81.05.72-.19-.45-1.3-1.73-2.05-3.09-1.92-1.13.11-2.17.82-2.61,1.88-.46,1.12-.1,2.46.84,3.21,1.01.8,2.44.83,3.54.19,1.17-.68,1.72-2.07,1.31-3.36-.08-.26-.8-.06-.72.19Z"/>
        <path class="cls-9" d="m86.98,108.65c.3.85,1.14,1.31,2.02,1.22.76-.07,1.47-.54,1.76-1.25s.06-1.55-.53-2.02c-.68-.54-1.65-.54-2.39-.1s-1.12,1.32-.86,2.15c.08.26.8.06.72-.19-.17-.54-.06-1.16.36-1.56.17-.16.36-.25.52-.28.3-.05.61.04.86.2.51.32.78.96.68,1.56-.05.26-.16.51-.34.72-.15.17-.35.3-.53.35-.65.17-1.34-.35-1.56-.98-.09-.26-.81-.05-.72.19Z"/>
      </g>
    </g>
    <g>
      <path class="cls-4" d="m103.83,108.73l.32.98c-.1.03-2.37.77-5.51-.97-.49-.27-.94-.55-1.38-.81-2.22-1.34-3.68-2.23-6.46-.76l-.48-.91c3.29-1.74,5.23-.57,7.47.79.43.26.87.53,1.35.79,2.72,1.51,4.62.92,4.7.9Z"/>
      <path class="cls-9" d="m103.47,108.82l.32.98.24-.16c-.51.17-1.61.12-2.29,0-1.63-.3-3.02-1.16-4.42-2-1.04-.63-2.14-1.28-3.39-1.36s-2.36.35-3.41.89l.64-.1-.24-.45c-.04-.08-.12-.18-.14-.27-.06-.24-.14-.04.06-.23.33-.31,1.15-.46,1.59-.54s.91-.08,1.36-.02c1.42.2,2.66,1.01,3.86,1.74,1.85,1.12,4.08,2.19,6.29,1.5.49-.15.03-.22-.24-.13.15-.05-.04,0-.08.01-.19.03-.38.05-.58.05-.68.01-1.36-.12-2.01-.32-1.49-.48-2.76-1.44-4.12-2.19-1-.55-2.06-.96-3.21-.97-1.29-.01-2.53.43-3.66,1.01-.01,0-.11.06-.09.1l.48.91c.08.15.54-.05.64-.1.88-.45,1.79-.74,2.78-.56.64.12,1.24.4,1.81.7,1.31.71,2.51,1.61,3.91,2.14s3.19.82,4.7.32c.04-.01.27-.09.24-.16l-.32-.98c-.05-.15-.77.07-.72.19Z"/>
    </g>
    <g>
      <polygon class="cls-2" points="118.24 107.44 118.36 108.46 115.49 108.78 115.37 107.76 118.24 107.44"/>
      <path class="cls-9" d="m117.88,107.54c.04.34.08.68.11,1.02l.42-.27c-.84.09-1.67.18-2.51.27l-.36.04.3.07-.11-1.02-.42.27c.84-.09,1.67-.18,2.51-.27.12-.01.24-.03.36-.04s.39-.08.42-.22c.03-.15-.23-.13-.3-.12-.84.09-1.67.18-2.51.27-.12.01-.24.03-.36.04-.11.01-.44.1-.42.27l.11,1.02c.01.11.25.08.3.07.84-.09,1.67-.18,2.51-.27l.36-.04c.11-.01.44-.1.42-.27-.04-.34-.08-.68-.11-1.02-.02-.2-.75-.04-.72.19Z"/>
    </g>
    <g>
      <path class="cls-7" d="m103.28,109.34s-.18-2.61,2.55-3.85c2.73-1.24,5.12-2.25,4.4-5.1,0,0,8.79,4.41,3.65,15.93,0,0-.44-1.92-2.39-2.13-1.95-.21-4.97-.26-6.74-1.9-1.54-1.43-1.48-2.96-1.48-2.96Z"/>
      <path class="cls-9" d="m103.64,109.31c-.03-.54.1-1.11.31-1.6.6-1.41,1.89-1.93,3.19-2.54,2.07-.98,4.04-2.3,3.45-4.87l-.64.3c3.29,1.66,5.2,5.51,5.17,9.09-.02,2.29-.68,4.52-1.59,6.6l.71-.06c-.15-.64-.56-1.25-1.07-1.66-.96-.77-2.29-.68-3.45-.8-1.51-.17-3.12-.44-4.35-1.39-.89-.68-1.75-1.89-1.72-3.07,0-.37-.73-.25-.73.06-.06,2.55,2.54,4.12,4.71,4.6.68.15,1.37.25,2.06.32s1.45.05,2.12.25c.85.25,1.51,1.03,1.72,1.88.07.3.62.14.71-.06,1.43-3.26,2.25-7,1.05-10.47-.69-1.99-2-3.73-3.67-4.99-.34-.26-.7-.51-1.09-.71-.2-.1-.72-.02-.64.3.73,3.21-2.71,3.85-4.8,5.13-1.26.76-2.24,2.24-2.15,3.76.02.37.75.25.73-.06Z"/>
    </g>
    <g>
      <path class="cls-7" d="m119.46,106.29c.87-.06,1.62.6,1.68,1.48.06.87-.59,1.63-1.46,1.68-.87.06-1.62-.6-1.68-1.48s.59-1.63,1.46-1.68Z"/>
      <path class="cls-9" d="m119.31,106.47c.56-.03,1.09.33,1.32.84.25.54.17,1.19-.22,1.63-.08.09-.17.16-.26.22-.05.03-.1.05-.14.07-.04.02-.08.03-.11.03-.24.04-.51-.02-.74-.14-.51-.27-.82-.85-.79-1.42.02-.32.14-.63.34-.87.09-.11.2-.2.33-.27.1-.05.18-.08.28-.09.16-.01.38-.05.48-.19.09-.13-.08-.18-.18-.17-.79.06-1.59.48-1.88,1.26-.25.69,0,1.49.6,1.92,1.3.92,3.51-.18,3.14-1.86-.19-.86-1.01-1.36-1.86-1.32-.15,0-.38.05-.48.19s.08.18.18.17Z"/>
    </g>
    <path class="cls-2" d="m111.86,112.14v1.03c-6.4-.08-7.49-3.29-7.54-3.44l.97-.31s.98,2.66,6.57,2.73Z"/>
  </g>
  <g>
    <g>
      <path class="cls-4" d="m166.92,185.2c.21.62.19,1.32-.1,1.96-.61,1.34-2.18,1.92-3.51,1.3-1.33-.62-1.92-2.21-1.31-3.54h0c.61-1.34,2.18-1.92,3.51-1.3.69.32,1.19.91,1.41,1.59Zm-4.06,1.35c.14.42.44.78.87.98.82.38,1.79.02,2.16-.8.37-.82.01-1.8-.81-2.18-.82-.38-1.79-.02-2.16.8-.18.39-.19.82-.06,1.2Z"/>
      <g>
        <path class="cls-9" d="m166.56,185.3c.34,1.07-.01,2.34-1.01,2.94-.81.48-1.83.29-2.52-.31s-1.06-1.62-.84-2.54c.1-.45.31-.85.63-1.19.3-.31.69-.53,1.11-.6,1.17-.2,2.26.64,2.63,1.71.08.24.8.03.72-.19-.42-1.2-1.57-1.97-2.83-1.93s-2.32.71-2.81,1.81c-.46,1.02-.23,2.27.57,3.08.86.86,2.18,1.03,3.3.6,1.43-.55,2.25-2.08,1.78-3.56-.07-.24-.8-.03-.72.19Z"/>
        <path class="cls-9" d="m162.5,186.65c.27.77,1.02,1.25,1.83,1.22s1.6-.46,1.93-1.21c.29-.66.12-1.46-.4-1.95-.59-.56-1.49-.63-2.22-.33-.89.37-1.44,1.31-1.14,2.27.08.24.8.03.72-.19-.19-.61-.02-1.35.53-1.71.2-.13.34-.17.59-.15.27.02.54.14.76.31.44.36.66.96.55,1.52-.06.27-.18.53-.37.73-.09.09-.19.17-.3.23-.02.01-.08.04-.13.06,0,0-.12.03-.11.03-.27.04-.59-.03-.85-.19-.31-.19-.53-.49-.65-.83-.08-.24-.8-.03-.72.19Z"/>
      </g>
    </g>
    <g>
      <polygon class="cls-2" points="161.8 211.75 160.49 214.34 159.58 213.87 160.89 211.28 161.8 211.75"/>
      <path class="cls-9" d="m161.47,211.75c-.38.75-.77,1.51-1.15,2.26-.05.11-.11.21-.16.32l.63-.17c-.3-.16-.61-.31-.91-.47l.05.18c.38-.75.77-1.51,1.15-2.26l.16-.32-.63.17c.3.16.61.31.91.47.15.08.38.01.51-.07.1-.06.22-.2.06-.28-.3-.16-.61-.31-.91-.47-.16-.08-.54,0-.63.17-.38.75-.77,1.51-1.15,2.26l-.16.32c-.04.08-.04.14.05.18.3.16.61.31.91.47.16.08.54,0,.63-.17.38-.75.77-1.51,1.15-2.26.05-.11.11-.21.16-.32.15-.3-.57-.22-.67-.01Z"/>
    </g>
    <g>
      <path class="cls-7" d="m166.67,200.49s-2.36-1.1-4.49,1.03c-2.12,2.13-3.92,4.01-6.31,2.32,0,0,.97,9.82,13.52,9.09,0,0-1.63-1.09-1.13-3,.5-1.9,1.53-4.76.63-7-.78-1.95-2.23-2.44-2.23-2.44Z"/>
      <path class="cls-9" d="m166.97,200.34c-1.19-.54-2.71-.33-3.84.25s-1.89,1.62-2.82,2.44c-.52.46-1.1.94-1.77,1.17-.83.29-1.63-.03-2.32-.5-.14-.09-.72,0-.7.23.39,3.85,3.48,7.11,7,8.36,2.15.76,4.47.92,6.73.8.07,0,.67-.18.49-.3-.68-.47-1.15-1.28-1.2-2.11-.04-.77.3-1.56.5-2.3s.39-1.54.5-2.33c.27-2.08-.31-4.93-2.57-5.72-.18-.06-.83.22-.59.31.81.28,1.48,1.06,1.88,1.79.83,1.49.72,3.22.37,4.83-.16.74-.37,1.47-.57,2.2-.17.61-.32,1.2-.18,1.84.15.68.61,1.36,1.19,1.76l.49-.3c-3.52.19-7.25-.41-9.97-2.82-1.5-1.33-2.57-3.11-3.11-5.04-.1-.38-.2-.77-.24-1.16l-.7.23c1.98,1.33,3.92.41,5.52-1.04,1.08-.98,2.05-2.38,3.61-2.53.56-.06,1.19.01,1.71.25.17.08.84-.19.59-.31Z"/>
    </g>
    <g>
      <path class="cls-7" d="m157.85,214.51c-.36.79-.01,1.73.78,2.1.79.37,1.72.02,2.08-.77.36-.79.01-1.73-.78-2.1s-1.72-.02-2.08.77Z"/>
      <path class="cls-9" d="m157.49,214.56c-.29.66-.13,1.44.41,1.92.63.56,1.56.55,2.29.19.68-.33,1.12-1.04,1.02-1.8s-.7-1.3-1.42-1.43c-.89-.16-1.9.29-2.29,1.12-.07.14.25.12.3.11.14-.02.35-.08.42-.22.11-.24.3-.47.53-.59.07-.04.07-.04.16-.07-.06.02,0,0,.01,0,.12-.03-.07,0,.05-.01.1-.01.22-.02.36.01.57.11,1.01.59,1.13,1.15s-.09,1.19-.57,1.51c-.03.02-.09.05-.13.07.05-.02-.06.02-.06.02-.11.04.07-.01-.05.01s.07,0-.05.01c-.02,0-.05,0-.08.01.06,0-.07,0-.06,0-.04,0-.07,0-.11,0-.28-.03-.55-.16-.76-.34-.51-.44-.65-1.17-.38-1.78.06-.14-.24-.12-.3-.11-.14.02-.36.08-.42.22Z"/>
    </g>
  </g>
  <g>
    <path class="cls-4" d="m198.51,200.32l-.93.42c-.04-.1-4.76-9.84-26.1-12.54-10.47-1.32-17.58-5.74-21.7-9.21-4.4-3.71-6.69-7.4-6.91-8.07h0c-.11-.32.07-.52.13-.57l.71.75c.17-.16.17-.38.14-.5.14.37,2.2,3.92,6.65,7.66,4.01,3.36,10.92,7.64,21.11,8.92,21.98,2.78,26.71,12.71,26.9,13.14Z"/>
    <path class="cls-9" d="m198.35,200.1l-.93.42.52.12c-.5-1.05-1.32-1.98-2.12-2.81-2.24-2.31-5-4.07-7.89-5.45-5.13-2.45-10.72-3.7-16.32-4.45-6.19-.83-12.17-2.79-17.45-6.15-2.56-1.63-4.93-3.55-7.02-5.75-1.02-1.07-1.98-2.21-2.83-3.42-.24-.34-1.4-1.65-1.01-2.14l-.64.05.71.75c.19.2.55.12.68-.12.17-.31.17-.25.16-.57l-.73.12c.64,1.55,1.96,2.98,3.05,4.21,1.79,2.01,3.82,3.8,6.01,5.36,4.49,3.18,9.64,5.36,15.01,6.52,3.38.73,6.83,1,10.21,1.75,2.78.61,5.52,1.42,8.15,2.49,3.38,1.37,6.66,3.21,9.33,5.73,1.08,1.03,2.31,2.38,2.9,3.67.15.33.87.12.72-.19-1.76-3.85-6.12-6.61-9.71-8.42-4.88-2.46-10.27-3.83-15.65-4.64-3.51-.53-6.94-1.05-10.32-2.2-2.71-.92-5.33-2.12-7.78-3.61s-4.89-3.35-6.98-5.45c-1.5-1.51-3.4-3.38-4.23-5.4-.12-.28-.74-.2-.73.12l-.12.42.68-.12-.71-.75c-.17-.17-.49-.14-.64.05-.78.99,1.11,2.93,1.64,3.62,1.79,2.32,3.91,4.39,6.21,6.2,4.24,3.32,9.18,5.72,14.37,7.14,3.26.89,6.59,1.22,9.91,1.81,3.11.55,6.18,1.32,9.15,2.4,3.68,1.34,7.26,3.18,10.19,5.81,1.09.98,2.5,2.47,3.05,3.63.1.2.34.21.52.12l.93-.42c.45-.2.05-.61-.32-.44Z"/>
  </g>
  <g>
    <path class="cls-4" d="m169.76,192.73c.12.35.22.71.3,1.09.95,4.19-1.97,7.46-2.09,7.59l-.75-.69s2.68-3.02,1.85-6.67c-.83-3.66-3.54-5.97-3.57-5.99l.65-.79c.11.09,2.49,2.11,3.61,5.47Z"/>
    <path class="cls-9" d="m169.4,192.83c.95,2.95.35,6.26-1.76,8.59l.67-.14c-.19-.17-.39-.44-.62-.57-.14-.08-.09-.15-.12-.01,0-.03.06-.06.07-.08.31-.42.62-.85.87-1.31.9-1.63,1.33-3.51.92-5.36s-1.34-3.51-2.53-4.92c-.3-.36-.62-.72-.98-1.03-.12-.1-.14.05.03-.09.2-.16.36-.44.53-.64l-.67.14c1.66,1.4,2.89,3.4,3.59,5.43.08.23.8.02.72-.19-.71-2.05-1.95-4.1-3.64-5.51-.17-.14-.55-.01-.67.14l-.65.79s-.04.1,0,.13c1.69,1.44,2.96,3.59,3.49,5.73.58,2.34-.18,5-1.77,6.8-.03.04-.04.1,0,.13l.75.69c.16.15.55,0,.67-.14,2.15-2.38,2.79-5.76,1.82-8.78-.07-.23-.79-.02-.72.19Z"/>
  </g>
  <g>
    <g>
      <path class="cls-8" d="m213.38,190.18c2.66-.17,5.22.09,7.61.73,8.37,2.24,14.6,9.12,15.24,18.22.39,5.56-1.31,11.18-4.48,15.63-2.74,3.85-6.59,6.82-11.14,8.13-1.26.36-2.58.6-3.95.69-2.26.15-4.44-.05-6.5-.54-8.86-2.1-15.48-9.67-16.14-19.17-.48-6.93,2.2-13.68,6.95-18.2,2.59-2.47,5.8-4.27,9.45-5.07.96-.21,1.95-.35,2.96-.42Z"/>
      <path class="cls-9" d="m213.34,190.41c8.33-.46,16.66,3.5,20.47,11.14,4,8.02,2.06,18.16-3.69,24.83-3.05,3.53-7.2,6.1-11.85,6.8s-9.4-.23-13.41-2.53c-6.9-3.94-10.86-11.57-10.5-19.45.47-10.49,8.23-19.97,18.99-20.79.38-.03.58-.5.08-.46-9.54.73-17.13,7.96-19.23,17.17-1.92,8.38,1.02,17.35,7.98,22.53,7.48,5.57,18.2,5.64,25.54-.21s10.82-16.29,7.97-25.26c-3.03-9.54-12.57-14.77-22.25-14.23-.38.02-.58.49-.08.46Z"/>
    </g>
    <g>
      <path class="cls-3" d="m213.38,190.18c11.96-.78,22.04,7.24,22.85,18.95.81,11.71-7.61,23.67-19.58,24.45-2.26.15-4.44-.05-6.5-.54-7.11-3.99-12.26-11.94-12.91-21.37-.41-5.91,1.01-11.47,3.72-16,3.27-3.12,7.53-5.17,12.41-5.49Z"/>
      <path class="cls-9" d="m213.24,190.38c7.57-.44,15.17,2.72,19.42,9.17,4.34,6.59,4.12,15.28.6,22.18-3.96,7.75-11.81,12.63-20.62,11.54-1.25-.16-2.31-.42-3.37-1.1-.91-.59-1.78-1.24-2.6-1.95-1.48-1.27-2.8-2.72-3.95-4.3-2.48-3.42-4.1-7.43-4.79-11.59-.87-5.27-.27-10.77,1.85-15.68.55-1.27,1.13-2.65,2.19-3.57,1.01-.87,2.09-1.65,3.25-2.3,2.49-1.41,5.25-2.18,8.1-2.4.35-.03.61-.42.1-.39-4.45.34-9.3,2.1-12.47,5.36-1.5,1.55-2.34,4.23-2.96,6.25-.76,2.49-1.15,5.09-1.19,7.7-.14,9.09,4.12,18.21,11.87,23.2,2.05,1.32,4.72,1.39,7.11,1.31,1.95-.06,3.87-.39,5.72-1.02,3.8-1.28,7.12-3.72,9.64-6.81,5.22-6.39,7.16-15.7,3.93-23.43-3.57-8.55-12.55-13.09-21.55-12.57-.26.01-.77.43-.29.4Z"/>
    </g>
    <g>
      <path class="cls-8" d="m213.38,190.18c11.96-.78,22.04,7.24,22.85,18.95.72,10.37-5.81,20.94-15.62,23.76-8.84-3.13-15.58-12.04-16.33-22.92-.52-7.48,1.89-14.39,6.14-19.37.96-.21,1.95-.35,2.96-.42Z"/>
      <path class="cls-9" d="m213.34,190.39c7.1-.41,14.24,2.37,18.59,8.12,4.38,5.79,4.98,13.57,2.58,20.3-1.27,3.54-3.36,6.82-6.12,9.38-1.44,1.34-3.06,2.48-4.83,3.34-.75.37-1.82,1-2.66,1.06-.77.05-1.76-.59-2.44-.92-6.54-3.26-11.16-9.6-12.98-16.6-1.17-4.51-1.22-9.31-.11-13.84.58-2.35,1.46-4.61,2.65-6.71.54-.95,1.13-1.86,1.78-2.72.42-.56.68-.97,1.39-1.15s1.44-.2,2.13-.25c.37-.03.59-.47.09-.43-.93.07-2.24.04-3.11.45-.63.3-1.13,1.26-1.53,1.81-1.26,1.75-2.28,3.66-3.06,5.67-1.68,4.27-2.22,8.95-1.69,13.5.92,7.92,5.24,15.46,12.1,19.67.75.46,1.54.88,2.34,1.25.59.27,1.42.78,2.08.78.74,0,1.83-.59,2.5-.88.88-.38,1.73-.83,2.54-1.32,3.27-2.01,5.95-4.92,7.84-8.25,3.8-6.71,4.47-15.32.63-22.17-4.13-7.37-12.41-10.99-20.64-10.52-.37.02-.59.46-.09.43Z"/>
    </g>
    <g>
      <path class="cls-3" d="m221,190.91c8.37,2.24,14.6,9.12,15.24,18.22.39,5.56-1.31,11.18-4.48,15.63-.76.17-1.53.29-2.33.34-8.88.58-16.63-6.98-17.32-16.9-.52-7.53,3.19-14.25,8.9-17.3Z"/>
      <path class="cls-9" d="m220.78,191.12c5.26,1.45,9.89,4.8,12.59,9.59,3.09,5.5,3.24,12.24,1.14,18.11-.56,1.58-1.29,3.09-2.16,4.52-.18.3-.42.84-.69,1.06-.44.36-1.17.39-1.71.45-.78.08-1.57.09-2.36.03-2.69-.19-5.27-1.17-7.48-2.71-4.57-3.19-7.26-8.56-7.64-14.06-.47-6.8,2.68-13.74,8.77-17.08.43-.23-.2-.39-.46-.25-11.25,6.16-11.97,23.17-2.2,31.03,2.13,1.71,4.66,2.9,7.36,3.34,1.37.22,2.77.25,4.15.1.51-.06,1.46-.07,1.89-.37.53-.37.94-1.34,1.26-1.87,3.49-5.93,4.55-13.46,2.05-19.96s-7.74-10.61-14.07-12.35c-.25-.07-.85.31-.44.42Z"/>
    </g>
    <g>
      <path class="cls-1" d="m275.36,212.15l10.82-9.74h0c-.33-.14-.67-.29-1.01-.44-9.04-4-15.34,1.18-24.08,1.57-8.74.39-24.01-2.49-31.17,2.92-7.16,5.41-8.32,6.37-8.32,6.37,0,0,5.2-.87,24.49,9.35,6.26,3.31,12.92,5.75,19.45,6.58-2.63-1.97-5.31-4.9-6.83-9.17,0,0,3.97,5.73,10.91,9.47,5.05.09,9.95-.89,14.45-3.31-3.01-.63-6.84-2.1-10.93-5.33,0,0,6.69,2.82,14.7,2.89,4.7-3.62,8.82-9.11,12.02-16.97,0,0-3.38-.22-9.11-2.18-5.95,4.77-15.37,7.99-15.37,7.99Z"/>
      <path class="cls-9" d="m275.66,212.25c1.8-1.62,3.61-3.25,5.41-4.87l3.72-3.35,1.18-1.07c.22-.2.76-.48.27-.32.22-.07.46-.34.15-.47-2.61-1.11-5.14-1.94-8.01-1.96-2.65-.02-5.24.58-7.78,1.24-2.79.73-5.57,1.52-8.45,1.77-2.32.2-4.66.1-6.98,0-4.97-.21-9.97-.59-14.94-.18-2.22.18-4.46.52-6.57,1.24-2.22.75-3.96,2.01-5.82,3.41-2.17,1.64-4.38,3.25-6.48,4.98-.22.18-.09.46.2.41,1.74-.28,3.99.56,5.63,1.06,7.76,2.38,14.71,6.52,22.02,9.93,5.14,2.4,10.56,4.19,16.2,4.93.21.03.71-.23.41-.46-3.09-2.35-5.4-5.41-6.75-9.06l-.69.25c2.11,3.03,5.05,5.66,8.07,7.75,1.01.7,2.26,1.79,3.53,1.82,1.63.04,3.27-.09,4.88-.32,3.28-.48,6.43-1.5,9.36-3.04.16-.08.35-.37.05-.44-4.01-.87-7.63-2.79-10.86-5.3l-.49.44c1.66.69,3.42,1.2,5.16,1.63s3.38.74,5.1.96c1.04.13,2.08.23,3.12.28.68.03,1.3.16,1.89-.16,1.19-.64,2.36-2,3.29-2.97,1.17-1.21,2.24-2.52,3.22-3.88,2.25-3.13,4.02-6.57,5.49-10.13.06-.16-.06-.28-.22-.29-1.66-.11-3.32-.51-4.92-.92-.78-.2-1.56-.42-2.34-.66-.55-.17-1.45-.7-2.05-.58-.44.09-.95.69-1.33.96-.65.47-1.32.91-2,1.34-3.74,2.34-7.87,4.26-12.05,5.69-.43.15-.31.62.13.47,3.89-1.33,7.7-3.08,11.24-5.15,1.29-.75,2.46-1.74,3.74-2.47.74-.42,1.71.16,2.51.4s1.6.45,2.4.65c1.44.35,2.92.68,4.4.79l-.22-.29c-1.38,3.35-3.02,6.6-5.1,9.57-1.7,2.44-3.81,5.19-6.31,6.87-.72.48-1.62.27-2.46.21-.95-.07-1.9-.17-2.84-.31-1.67-.24-3.32-.58-4.96-1.01-1.52-.4-3.05-.85-4.5-1.46-.23-.1-.8.2-.49.44,3.26,2.54,6.94,4.49,11,5.37l.05-.44c-2.94,1.55-6.11,2.57-9.41,3-1.5.2-3.52.58-4.98.1-1.26-.41-2.59-1.58-3.63-2.37-2.54-1.91-5.01-4.21-6.84-6.84-.15-.22-.8-.04-.69.25,1.38,3.73,3.76,6.87,6.92,9.27l.41-.46c-5.33-.7-10.47-2.37-15.35-4.59-4.59-2.09-8.97-4.62-13.58-6.69-4.24-1.91-8.81-3.96-13.48-4.57-.52-.07-1.1-.16-1.62-.07l.2.41c1.42-1.17,2.92-2.27,4.38-3.38,1.97-1.5,3.89-3.25,6.16-4.29,2.08-.95,4.36-1.39,6.61-1.65,9.48-1.07,19.08,1.41,28.44-.88,2.87-.7,5.7-1.63,8.65-1.95,3.54-.38,6.66.43,9.89,1.81l.15-.47c-.56.19-1.11.92-1.53,1.3l-3.75,3.37c-1.93,1.73-3.85,3.47-5.78,5.2-.33.3.38.4.6.2Z"/>
    </g>
    <g>
      <path class="cls-1" d="m251.17,181.78s7.23-2.05,13.24-7.4c3.32-9.06,3.21-18.21,3.21-18.21-3.02,4.07-7.86,6.33-13.1,8.27-3.08,7.79-10.03,12.06-10.03,12.06,2.94-2.53,4.8-7.57,5.69-10.51-3.55,1.24-7.1,2.53-10.26,4.29-2.17,5.65-2.99,13.52-2.99,13.52-1.15-4.15-.66-8.43.14-11.71-3.35,2.45-5.98,5.74-7.23,10.56-4.7,18.13-7.54,27.73-7.54,27.73,0,0,.76-2.64,6.02-6.69,5.26-4.05,14.97-6.57,27.27-16.26,3.37-2.66,5.79-6.21,7.54-9.96-2.43,1.34-7.14,3.63-11.96,4.31Z"/>
      <path class="cls-9" d="m251.2,181.88c1.66-.48,3.28-1.16,4.83-1.89s3.1-1.57,4.56-2.51c.72-.46,1.42-.95,2.11-1.46.73-.54,1.71-1.14,2.15-1.92.55-.99.79-2.35,1.09-3.44.25-.89.47-1.8.67-2.7.44-1.98.77-3.98,1-5.99s.4-3.92.38-5.88c0-.15-.66.09-.72.17-2.17,2.85-5.16,4.8-8.38,6.29-.8.37-1.61.72-2.43,1.05-.55.22-1.74.43-2.2.86-.34.31-.5,1.07-.71,1.51-.35.74-.75,1.46-1.18,2.16-2.01,3.26-4.85,6.37-8.14,8.4l.6-.04c3.01-2.68,4.57-6.78,5.72-10.55.04-.14-.43-.01-.48,0-2.74.96-5.48,1.94-8.11,3.18-.85.4-2.09.74-2.51,1.59-.55,1.11-.82,2.48-1.13,3.68-.81,3.12-1.39,6.32-1.73,9.52l.72-.19c-1.01-3.85-.78-7.83.13-11.68.04-.18-.62.06-.68.1-2.68,1.99-4.88,4.52-6.23,7.6-.88,2-1.33,4.16-1.88,6.26s-1.08,4.1-1.62,6.14c-1.42,5.31-2.86,10.61-4.37,15.89-.23.81-.46,1.62-.7,2.43-.03.11.66.03.71-.14.55-1.81,2.3-3.44,3.62-4.67,2.34-2.17,4.95-3.77,7.79-5.21,6.96-3.54,13.83-6.99,20.1-11.7,4.09-3.07,7.13-6.69,9.32-11.33.07-.14-.58.04-.63.07-3.59,1.96-7.46,3.57-11.53,4.18-.17.03-.79.33-.32.26,4.37-.66,8.53-2.33,12.4-4.45l-.63.07c-1.97,4.16-4.64,7.72-8.29,10.53s-7.74,5.47-11.89,7.74c-5.42,2.97-11.48,5.14-16.2,9.23-1.6,1.38-3.8,3.28-4.44,5.41l.71-.14c.72-2.43,1.4-4.87,2.08-7.32,1.96-7.04,3.58-14.21,5.69-21.2,1.2-3.98,3.65-7.26,6.98-9.73l-.68.1c-.91,3.87-1.16,7.86-.14,11.74.04.14.71-.04.72-.19.3-2.87.81-5.73,1.48-8.53.26-1.07.54-2.13.87-3.18.14-.45.25-1.03.49-1.44.42-.73,1.5-1.05,2.21-1.39,2.57-1.22,5.26-2.17,7.95-3.12h-.48c-1.14,3.73-2.68,7.83-5.66,10.48-.16.14.51.01.6-.04,3.29-2.04,6.16-5.12,8.2-8.37.47-.75.9-1.52,1.28-2.31.16-.33.26-.79.48-1.07.32-.43.62-.5,1.09-.68,1.57-.61,3.13-1.26,4.63-2.02,2.89-1.46,5.55-3.34,7.53-5.94l-.72.17c.05,5.4-.9,10.98-2.5,16.11-.38,1.2-.69,2.09-1.68,2.9-.77.63-1.57,1.22-2.4,1.78-1.52,1.02-3.11,1.93-4.76,2.72-1.53.74-3.13,1.43-4.77,1.9-.41.12-.37.31.05.19Z"/>
    </g>
    <g>
      <path class="cls-4" d="m265.69,161.98c-.07.21-1.98,5.15-16.28,15.76-14.07,10.45-20.8,22.79-20.87,22.91l-.9-.49c.07-.13,6.89-12.66,21.16-23.25,13.94-10.35,15.91-15.24,15.93-15.29l.96.36Z"/>
      <path class="cls-9" d="m265.33,162.02c-.33.91-1.11,1.88-1.73,2.67-2.27,2.88-5.04,5.38-7.83,7.74-4.72,4-9.85,7.45-14.33,11.74-3.46,3.31-6.65,6.92-9.48,10.78-1.34,1.82-2.66,3.7-3.74,5.69l.63-.17c-.2-.11-.73-.28-.85-.46,0,0,.03.28.05.08s.28-.49.38-.66c.6-1.02,1.25-2.01,1.92-2.98,2.6-3.81,5.56-7.37,8.77-10.68,4.49-4.64,9.65-8.33,14.65-12.38,3.22-2.61,6.39-5.37,9.08-8.53.82-.97,1.8-2.06,2.27-3.27l-.65.22.96.36c.23.09.88-.25.57-.36l-.96-.36c-.22-.08-.56-.01-.65.22-.3.78-1.16,1.86-1.76,2.6-2.32,2.87-5.11,5.37-7.93,7.73-4.81,4.03-9.98,7.55-14.48,11.94-3.33,3.25-6.41,6.77-9.15,10.52-1.33,1.82-2.65,3.7-3.73,5.69-.04.08-.03.15.05.2l.9.49c.17.1.53.01.63-.17,3.13-5.75,7.63-10.95,12.27-15.52,7.18-7.08,16.25-12.11,22.72-19.93.81-.97,1.74-2.07,2.18-3.28.09-.26-.63-.17-.73.08Z"/>
    </g>
    <g>
      <path class="cls-4" d="m295.25,210.48c-.57.28-13.98,6.92-25.26,6.07-3.99-.3-8.95-1.57-14.21-2.92-9.45-2.42-20.16-5.16-26.76-2.39l-.4-.95c6.91-2.91,17.8-.12,27.41,2.34,5.21,1.33,10.13,2.59,14.03,2.89,11.01.83,24.6-5.89,24.74-5.96l.46.92Z"/>
      <path class="cls-9" d="m295.1,210.3c-6.08,3.03-12.94,5.26-19.71,5.92-5.34.53-10.48-.58-15.64-1.86-5.42-1.34-10.8-2.88-16.31-3.8-4.75-.8-10-1.35-14.58.5l.51.08-.4-.95-.21.27c4.86-1.97,10.53-1.21,15.54-.29,5.6,1.03,11.06,2.62,16.59,3.95,4.6,1.11,9.2,1.99,13.95,1.56,4.47-.41,8.87-1.58,13.09-3.07,2.37-.84,4.75-1.76,7-2.88l-.51-.08.46.92c.14.28.85.05.72-.19l-.46-.92c-.09-.18-.36-.16-.51-.08-5.96,2.96-12.71,5.14-19.34,5.81-5.24.53-10.28-.58-15.34-1.83-5.56-1.38-11.08-2.95-16.74-3.87-4.83-.79-10.11-1.25-14.76.63-.08.03-.26.16-.21.27l.4.95c.08.19.37.14.51.08,4.72-1.91,10.28-1.1,15.14-.19,5.53,1.03,10.93,2.6,16.39,3.91,4.7,1.13,9.38,2.01,14.23,1.58,4.45-.39,8.82-1.53,13.03-2.99,2.53-.88,5.05-1.87,7.45-3.07.45-.22.04-.52-.3-.35Z"/>
    </g>
  </g>
</svg>