<?xml version="1.0" encoding="UTF-8"?>
<svg id="bg" xmlns="http://www.w3.org/2000/svg" viewBox="0 0 115.8 101.06">
  <defs>
    <style>
      .cls-1 {
        fill: #eee9e0;
      }

      .cls-2 {
        fill: #f1cf8c;
      }

      .cls-3 {
        fill: #ffce66;
      }

      .cls-4 {
        fill: #ff7e37;
      }

      .cls-5 {
        fill: #cc9963;
      }

      .cls-6 {
        fill: #476f9c;
      }

      .cls-7 {
        fill: #604c3f;
      }
    </style>
  </defs>
  <g>
    <path class="cls-2" d="m79.75,43.01c-.72-.23-17.67-5.71-25.84-18.05C46.83,14.23,36.86,3.44,30.59,3.51c-1.67.02-3.01.86-4.09,2.58-1.17,1.86-1.46,3.53-.9,5.13,1.88,5.29,12.54,8.97,19.6,11.41.51.18,1,.35,1.48.51,10.3,3.59,19.53,19.22,19.25,26.62l-2.89-.11c.23-6.29-8.41-20.7-17.32-23.8-.47-.16-.96-.33-1.47-.51-8.03-2.77-19.03-6.56-21.37-13.16-.87-2.44-.47-5,1.17-7.6,1.6-2.54,3.85-3.9,6.51-3.93,10.15-.11,23.26,18.93,25.78,22.75,7.59,11.49,24.13,16.84,24.3,16.89l-.88,2.73Z"/>
    <path class="cls-7" d="m79.96,42.77c-5.83-1.85-11.49-4.86-16.4-8.48-2.08-1.53-4.06-3.23-5.83-5.12s-3.22-4.03-4.7-6.18c-3.38-4.89-7.14-9.62-11.5-13.68-2.79-2.6-6.54-5.94-10.6-6.06-4.3-.13-7.28,5.34-5.26,9s6.82,5.76,10.52,7.34c2.39,1.02,4.83,1.9,7.29,2.76,2.21.77,4.42,1.46,6.43,2.69,4.59,2.81,8.24,7.15,11.04,11.7,2.33,3.78,4.74,8.48,4.62,13.05l.49-.29c-.96-.04-1.93-.07-2.89-.11l.24.23c.1-4.24-2.32-8.63-4.52-12.1-2.71-4.28-6.28-8.52-10.8-10.96-2.26-1.22-4.81-1.87-7.22-2.73-2.75-.99-5.48-2.04-8.11-3.32-4.66-2.28-10.93-6.21-9.84-12.31.61-3.42,3.29-6.89,6.92-7.27,2.13-.22,4.26.53,6.12,1.51,4.24,2.22,7.78,5.74,10.95,9.27,2.8,3.12,5.38,6.44,7.77,9.88.97,1.39,1.87,2.83,2.94,4.14,1.65,2.03,3.56,3.85,5.61,5.49,3.99,3.18,8.5,5.72,13.17,7.73,1.12.48,2.44,1.24,3.66,1.44.1.02.2.07.29.1-.15-.05.09-.33-.18.08-.41.64-.54,1.66-.77,2.39-.13.4.59.39.69.08.29-.91.59-1.82.88-2.73.04-.13,0-.24-.14-.28-6.91-2.21-13.76-6.09-19.1-10.97-3.02-2.76-5.14-6.08-7.51-9.36-2.62-3.62-5.44-7.12-8.55-10.34-5.05-5.22-15.69-14.16-21.77-5.17-7.81,11.53,10.32,17.95,18.2,20.71,2.85.99,5.54,1.89,7.97,3.74s4.57,4.2,6.41,6.67,3.36,5.04,4.55,7.81c.88,2.04,1.68,4.29,1.63,6.54,0,.13.11.23.24.23.96.04,1.93.07,2.89.11.16,0,.49-.07.49-.29.09-3.54-1.37-7.08-2.94-10.18-2.06-4.08-4.77-7.89-8.05-11.08-1.55-1.51-3.25-2.9-5.12-4.01s-3.93-1.78-5.99-2.49c-4.59-1.59-9.31-3.22-13.43-5.83-1.7-1.08-3.46-2.4-4.44-4.2-1.39-2.55-.17-6.21,2.34-7.65,1.93-1.11,4.31-.19,6.1.77,2.06,1.1,3.92,2.6,5.64,4.16,4.35,3.94,8.08,8.59,11.45,13.38,1.53,2.18,2.94,4.41,4.74,6.39,1.55,1.71,3.26,3.28,5.08,4.71,5.24,4.14,11.48,7.53,17.87,9.56.31.1.85-.35.42-.49Z"/>
  </g>
  <g>
    <path class="cls-2" d="m46.63,53.57l-1.92-2.15c2.15-1.89,4.06-6.59,5.11-12.57,1.03-5.88.69-10.05.21-10.73-.93-1.2-3.64-2.31-5.93-3-.04,4.89-2.45,9.69-7.19,14.3-4.24,4.12-9.43,7.21-12.97,9.17l-1.41-2.51c13.3-7.37,19.55-15,18.58-22.67l-.26-2.02,2,.44c.73.16,7.22,1.66,9.47,4.55,2.05,2.65.54,11.82.36,12.86-.55,3.19-2.25,10.98-6.06,14.33Z"/>
    <path class="cls-7" d="m46.97,53.43l-.8-.9c-.25-.28-.86-.73-.98-1.09-.07-.23.21-.31.51-.67.41-.49.77-1.02,1.1-1.57,1.84-3.14,2.76-6.84,3.38-10.39.55-3.14,1.06-6.65.5-9.83-.44-2.52-4.29-3.42-6.35-4.05-.14-.04-.58.04-.58.25-.23,11.15-11.3,18.46-20.02,23.31l.59.02-.59-1.04c-.15-.26-.81-1.08-.77-1.37.03-.23,2.29-1.3,2.7-1.54,1.02-.62,2.02-1.25,3-1.92,3.08-2.08,6.03-4.42,8.46-7.25,1.88-2.19,3.45-4.71,4.13-7.54.52-2.2.27-4.31-.01-6.52l-.58.3c1.76.39,3.51.77,5.22,1.35,2.7.92,6.16,2.25,6.86,5.33.64,2.79.3,5.84-.05,8.65-.26,2.06-.63,4.1-1.15,6.11-.94,3.7-2.28,7.83-5.18,10.47-.31.28.4.3.58.13,2.52-2.3,3.86-5.69,4.83-8.89.71-2.34,1.21-4.73,1.55-7.15.39-2.87.72-5.9.28-8.79-.47-3.07-2.85-4.51-5.56-5.63-2.24-.93-4.58-1.47-6.94-1.99-.17-.04-.61.05-.58.3.23,1.78.49,3.51.22,5.3-.34,2.34-1.35,4.52-2.68,6.47-3.83,5.59-9.91,9.47-15.73,12.71-.05.03-.18.14-.14.21.47.84.94,1.67,1.41,2.51.11.2.43.11.59.02,8.82-4.9,20.06-12.35,20.3-23.62l-.58.25c1.82.56,5.59,1.47,6.04,3.67s.21,4.67-.04,6.89c-.35,3.13-.97,6.26-1.99,9.25-.75,2.21-1.73,4.61-3.48,6.22-.06.05-.11.14-.04.21.64.72,1.28,1.43,1.92,2.15.17.19.87-.07.67-.29Z"/>
  </g>
  <g>
    <path class="cls-2" d="m43.17,24.24c1.12.34,2.29.51,3.45.51,1.16,0,2.29-.18,3.34-.54,1.05-.36,2.03-.89,2.89-1.57.87-.68,1.62-1.5,2.3-2.4l.02-.02c.77-1.03,2.24-1.24,3.28-.47,1.04.77,1.25,2.22.48,3.25-.05.07-.11.13-.16.2-1.04,1.1-2.21,2.11-3.53,2.92-1.32.81-2.78,1.41-4.28,1.73-1.5.33-3.04.39-4.53.23-1.49-.17-2.93-.55-4.29-1.14-.73-.32-1.07-1.16-.75-1.89.3-.68,1.06-1.01,1.75-.8h.04Z"/>
    <path class="cls-7" d="m42.95,24.43c2.32.67,4.8.72,7.11-.06s3.9-2.31,5.44-4.14c1.04-1.23,2.86-.76,3.4.7s-.56,2.41-1.51,3.27c-2.19,2-4.88,3.36-7.85,3.67-1.7.18-3.44.02-5.09-.42-.73-.2-1.91-.44-2.45-1-.25-.26-.41-.66-.37-1.02.01-.15.05-.28.12-.41.13-.23.92-.66,1.2-.58.22.07.85-.26.45-.39-.89-.27-2,.15-2.38,1.03-.62,1.46.92,2.11,2.01,2.47,3.19,1.07,6.68,1.08,9.84-.08,1.6-.59,3.09-1.47,4.4-2.55.99-.81,2.4-1.85,2.47-3.25.13-2.56-3.14-3.31-4.72-1.69-.63.64-1.12,1.4-1.78,2.02-.84.78-1.8,1.42-2.86,1.86-2.23.92-4.7.85-6.99.19-.23-.06-.85.27-.45.39Z"/>
  </g>
  <g>
    <path class="cls-5" d="m46.6,25.18c-1.2,0-2.39-.18-3.56-.53l.25-.82c1.07.32,2.21.49,3.31.49h.02c1.11,0,2.19-.17,3.19-.52,1-.34,1.93-.84,2.76-1.5.79-.62,1.51-1.38,2.22-2.32l.7.51c-.75,1-1.53,1.81-2.38,2.48-.91.72-1.93,1.27-3.02,1.64-1.1.38-2.27.57-3.47.57h-.02Z"/>
    <path class="cls-7" d="m46.74,24.95c-1.19-.01-2.34-.18-3.48-.52l.15.18.25-.82-.58.25c2.21.65,4.6.71,6.79-.03s3.89-2.2,5.27-4.01l-.63.17.7.51-.06-.21c-2.06,2.71-4.95,4.48-8.42,4.48-.3,0-.76.46-.27.46,3.85,0,7.07-1.88,9.37-4.89.06-.08,0-.16-.06-.21l-.7-.51c-.18-.14-.51.01-.63.17-1.27,1.67-2.87,3.06-4.9,3.7s-4.08.53-6.05-.05c-.2-.06-.51.04-.58.25l-.25.82c-.03.09.08.16.15.18,1.19.35,2.4.53,3.64.54.3,0,.76-.45.27-.46Z"/>
  </g>
  <g>
    <path class="cls-2" d="m41.76,26.55l.26.12c.1.04.2.09.3.13.21.09.42.17.63.24.43.15.87.28,1.31.39.89.22,1.79.35,2.69.41,1.8.1,3.58-.14,5.22-.74,1.64-.59,3.16-1.49,4.51-2.64,1.36-1.14,2.56-2.49,3.63-3.98.9-1.26,2.66-1.55,3.92-.66s1.57,2.63.67,3.89c-.06.09-.13.17-.2.24l-.02.03c-1.48,1.64-3.16,3.15-5.06,4.41-1.89,1.26-4.03,2.24-6.28,2.76-2.25.54-4.6.58-6.82.2-1.11-.19-2.2-.48-3.24-.87-.52-.19-1.03-.41-1.54-.65-.25-.12-.5-.25-.75-.38-.12-.07-.25-.14-.37-.21-.13-.08-.24-.14-.4-.25-.67-.43-.86-1.32-.42-1.98.4-.6,1.17-.81,1.81-.52l.13.06Z"/>
    <path class="cls-7" d="m41.48,26.75c6.31,2.89,13.1.82,17.58-4.21.59-.67,1.07-1.45,1.68-2.1,1.01-1.09,2.69-1.16,3.7,0,1.55,1.8-.03,3.52-1.33,4.8-3.03,2.97-6.82,5.3-11.07,5.93-2.38.36-4.82.18-7.13-.46-1.12-.31-2.21-.73-3.24-1.26-.37-.19-.83-.38-1.15-.66-.26-.23-.52-.59-.53-.93-.13-.42.1-.66.7-.71.25-.42.52-.55.8-.4.26.12.91-.24.56-.4-1.01-.46-2.35-.17-2.74.98-.63,1.85,2.15,2.74,3.4,3.23,4.47,1.78,9.49,1.66,13.9-.24,2.19-.94,4.18-2.29,5.97-3.85,1.26-1.1,3.21-2.54,3.24-4.39.03-1.68-1.39-2.99-3.02-3.03-1.96-.05-2.79,1.49-3.91,2.82-1.96,2.33-4.42,4.3-7.37,5.19s-6.54.62-9.46-.72c-.26-.12-.91.24-.56.4Z"/>
  </g>
  <g>
    <path class="cls-5" d="m47.75,28.29c-.27,0-.54,0-.81-.02-.97-.06-1.9-.2-2.78-.42-.4-.1-.84-.22-1.35-.4l.28-.81c.49.17.89.29,1.27.38.83.21,1.71.34,2.62.39,1.78.1,3.48-.14,5.05-.71,1.57-.56,3.04-1.42,4.38-2.56,1.27-1.07,2.47-2.38,3.56-3.9l.71.5c-1.13,1.58-2.38,2.95-3.7,4.06-1.42,1.21-2.98,2.12-4.65,2.71-1.44.52-2.98.78-4.58.78Z"/>
    <path class="cls-7" d="m47.89,28.07c-1.23-.01-2.44-.16-3.63-.46-.27-.07-1.01-.21-1.04-.33-.04-.15.18-.52.24-.69l-.58.25c3.21,1.08,6.7,1.09,9.85-.19s5.62-3.69,7.58-6.4l-.63.17c.11.08.66.37.68.48-.02-.09-.58.58-.6.6-.24.31-.49.62-.75.92-.9,1.04-1.89,2.01-2.99,2.84-2.37,1.79-5.17,2.79-8.14,2.82-.29,0-.76.44-.27.44,5.66-.06,10.18-3.31,13.41-7.76.06-.08.01-.15-.05-.2l-.71-.5c-.18-.12-.51.01-.63.17-1.81,2.49-4.07,4.75-6.93,5.99-3,1.3-6.32,1.25-9.39.22-.19-.06-.51.05-.58.25l-.28.81c-.03.09.08.14.14.17,1.63.54,3.3.84,5.01.85.29,0,.76-.43.27-.44Z"/>
  </g>
  <g>
    <g>
      <path class="cls-6" d="m48.96,55.45c.93,1.07,1.75,2.19,2.48,3.36,1.13,1.8,2.03,3.7,2.69,5.65.85,2.5,1.33,5.08,1.43,7.68.09,2.17-.09,4.35-.52,6.48-1.17,5.77-4.22,11.22-9.08,15.34-11.55,9.81-28.93,8.48-38.82-2.98-3.31-3.84-5.37-8.32-6.2-12.96-.64-3.58-.55-7.26.24-10.79.64-2.85,1.75-5.6,3.3-8.15,1.36-2.24,3.08-4.31,5.13-6.14.17-.15.35-.31.52-.46,1.8-1.53,3.75-2.79,5.79-3.78,10.15-4.94,22.56-3.24,30.98,4.62.72.67,1.4,1.38,2.06,2.14Z"/>
      <path class="cls-7" d="m48.62,55.58c8.05,9.48,8.79,23.54,1.42,33.64-6.08,8.34-16.58,12.54-26.74,10.68-10.2-1.87-18.72-9.58-21.47-19.62-3.34-12.21,2.49-25.45,13.74-31.24,11.12-5.73,24.87-2.79,33.05,6.53.14.16.82-.1.68-.26-7.3-8.32-18.98-11.59-29.56-8.3C7.8,50.73-.51,62.25.19,74.82c.64,11.43,8.68,21.44,19.62,24.7,9.38,2.79,19.83.44,27.1-6.12,4.91-4.43,8.09-10.57,8.85-17.14.88-7.58-1.54-15.14-6.46-20.94-.13-.16-.82.09-.68.26Z"/>
    </g>
    <g>
      <path class="cls-3" d="m48.96,55.45c.93,1.07,1.75,2.19,2.48,3.36,1.13,1.8,2.03,3.7,2.69,5.65.85,2.5,1.33,5.08,1.43,7.68.09,2.17-.09,4.35-.52,6.48-1.73,3.72-4.28,7.15-7.63,9.99-12.44,10.56-31.15,9.13-41.8-3.21-1.97-2.28-3.52-4.77-4.67-7.38-.64-3.58-.55-7.26.24-10.79.64-2.85,1.75-5.6,3.3-8.15,1.36-2.24,3.08-4.31,5.13-6.14.17-.15.35-.31.52-.46,1.8-1.53,3.75-2.79,5.79-3.78,10.15-4.94,22.56-3.24,30.98,4.62.72.67,1.4,1.38,2.06,2.14Z"/>
      <path class="cls-7" d="m48.63,55.59c3.92,4.61,6.27,10.35,6.56,16.41.08,1.61,0,3.22-.2,4.82s-.71,2.75-1.48,4.08c-1.39,2.4-3.12,4.6-5.13,6.51-6.84,6.51-16.56,9.32-25.82,7.5-4.43-.87-8.65-2.77-12.23-5.52-1.89-1.45-3.6-3.14-5.1-5-1.73-2.16-3.73-4.86-4.11-7.64-1.61-11.98,5.2-23.85,16.33-28.53s23.48-1.39,31.17,7.38c.17.19.86-.07.67-.28-6.95-7.93-17.9-11.33-28.13-8.74C9.7,49.48,1,59.6.21,71.47c-.09,1.43-.08,2.87.05,4.3.07.76.09,1.62.32,2.35.25.8.74,1.59,1.14,2.32,1.4,2.56,3.18,4.9,5.27,6.94,3.41,3.33,7.61,5.81,12.17,7.2,8.99,2.74,19.02,1.09,26.64-4.41,2.41-1.74,4.57-3.84,6.37-6.21.97-1.28,1.84-2.65,2.59-4.08.8-1.52.99-3.04,1.12-4.76.52-7.22-1.9-14.3-6.57-19.8-.16-.19-.86.07-.67.28Z"/>
    </g>
    <g>
      <path class="cls-4" d="m48.96,55.45c.93,1.07,1.75,2.19,2.48,3.36,1.13,1.8,2.03,3.7,2.69,5.65.85,2.5,1.33,5.08,1.43,7.68-1.45,2.01-3.16,3.87-5.14,5.55-13.28,11.28-33.26,9.75-44.64-3.42-1.89-2.19-3.42-4.56-4.6-7.04.64-2.85,1.75-5.6,3.3-8.15,1.36-2.24,3.08-4.31,5.13-6.14.17-.15.35-.31.52-.46,1.8-1.53,3.75-2.79,5.79-3.78,10.15-4.94,22.56-3.24,30.98,4.62.72.67,1.4,1.38,2.06,2.14Z"/>
      <path class="cls-7" d="m48.63,55.61c3.51,4.13,5.78,9.16,6.41,14.56.1.82.26,1.63-.18,2.37-.29.49-.74.95-1.1,1.37-.95,1.12-1.97,2.17-3.07,3.14-1.61,1.43-3.37,2.7-5.24,3.77-7.08,4.05-15.63,5.17-23.51,3.11-8.39-2.19-15.63-7.87-19.73-15.52-.36-.67-.6-1.07-.5-1.86.09-.72.43-1.55.67-2.24.41-1.18.91-2.34,1.48-3.45,1.19-2.32,2.72-4.45,4.52-6.33,3.41-3.56,7.79-6.15,12.56-7.43,10.05-2.7,20.87.71,27.7,8.51.23.26.91-.04.66-.33-6.33-7.22-15.98-10.8-25.49-9.33-10.05,1.55-18.77,8.64-22.12,18.27-.28.8-.97,2.24-.86,3.1.06.48.58,1.18.82,1.62.39.71.8,1.4,1.24,2.08,1.38,2.12,3.01,4.06,4.85,5.79,3.16,2.99,6.94,5.31,11.04,6.78,7.99,2.88,16.99,2.49,24.68-1.1,2.21-1.03,4.31-2.32,6.23-3.83,1.07-.84,2.08-1.74,3.04-2.7.63-.63,1.23-1.29,1.8-1.97.41-.49,1.15-1.13,1.35-1.73.34-1.06-.14-2.79-.33-3.86-.29-1.66-.74-3.29-1.34-4.86-1.14-3.02-2.82-5.78-4.9-8.24-.22-.26-.91.03-.66.33Z"/>
    </g>
    <g>
      <path class="cls-1" d="m48.96,55.45c.93,1.07,1.75,2.19,2.48,3.36,1.13,1.8,2.03,3.7,2.69,5.65-1.12,1.38-2.39,2.68-3.8,3.88-12.44,10.56-31.15,9.13-41.8-3.21-1.63-1.89-2.98-3.93-4.05-6.06,1.36-2.24,3.08-4.31,5.13-6.14.17-.15.35-.31.52-.46,1.8-1.53,3.75-2.79,5.79-3.78,10.15-4.94,22.56-3.24,30.98,4.62.72.67,1.4,1.38,2.06,2.14Z"/>
      <path class="cls-7" d="m48.63,55.59c1.53,1.8,2.85,3.76,3.88,5.88.39.8,1.21,2.11,1.07,3-.17,1.04-1.75,2.21-2.5,2.9-2.7,2.52-5.86,4.52-9.3,5.86-6.51,2.54-13.88,2.62-20.46.28-3.28-1.17-6.35-2.91-9.02-5.15-1.34-1.12-2.58-2.37-3.71-3.71-.65-.78-1.26-1.59-1.83-2.43s-1.75-2.17-1.71-3.19c.03-.85,1.04-1.86,1.56-2.53.73-.93,1.51-1.81,2.36-2.64,1.55-1.52,3.27-2.85,5.13-3.96,3.44-2.05,7.31-3.31,11.29-3.69,8.79-.83,17.45,2.76,23.25,9.37.16.18.85-.08.67-.28-5.45-6.22-13.42-9.77-21.7-9.6s-16.36,4.08-21.54,10.62c-.35.44-.68.88-1,1.34-.21.31-.89,1.03-.91,1.39-.03.69.86,1.75,1.23,2.36,1.21,1.96,2.65,3.78,4.28,5.42,2.67,2.68,5.85,4.83,9.33,6.32,6.66,2.85,14.29,3.2,21.19,1,3.97-1.26,7.66-3.34,10.79-6.08.99-.86,1.91-1.79,2.78-2.77.21-.24.69-.62.75-.95.09-.49-.6-1.61-.8-2.07-1.1-2.54-2.61-4.87-4.4-6.98-.15-.18-.85.07-.67.28Z"/>
    </g>
    <g>
      <path class="cls-6" d="m48.96,55.45c.93,1.07,1.75,2.19,2.48,3.36-11.92,9.9-29.69,8.47-39.83-3.28-.72-.84-1.39-1.7-1.99-2.6.17-.15.35-.31.52-.46,1.8-1.53,3.75-2.79,5.79-3.78,10.15-4.94,22.56-3.24,30.98,4.62.72.67,1.4,1.38,2.06,2.14Z"/>
      <path class="cls-7" d="m48.63,55.61c.9,1.06,1.73,2.18,2.48,3.36l.1-.31c-8.63,7.07-20.84,8.49-30.8,3.38-2.47-1.27-4.75-2.89-6.74-4.83-1.05-1.02-2.03-2.13-2.91-3.3-.12-.16-.53-.6-.55-.75-.06-.53.51-.83.85-1.09.68-.54,1.39-1.06,2.12-1.53,5.24-3.42,11.62-4.9,17.84-4.2,6.83.77,13.09,4.12,17.61,9.28.2.23.89-.05.67-.31-4.96-5.65-11.97-9.15-19.49-9.59s-14.86,2.17-20.49,7.13c-.07.06-.09.17-.03.25,7.29,10.59,21.03,15.16,33.21,11.01,3.35-1.14,6.45-2.89,9.19-5.13.1-.08.17-.19.1-.31-.75-1.18-1.58-2.29-2.48-3.36-.2-.24-.89.04-.67.31Z"/>
    </g>
    <g>
      <path class="cls-4" d="m46.9,53.31c-10.15,4.94-22.56,3.24-30.98-4.62,10.15-4.94,22.56-3.24,30.98,4.62Z"/>
      <path class="cls-7" d="m46.76,53.14c-10.11,4.84-22.26,2.98-30.49-4.6l-.19.31c10.11-4.84,22.26-2.98,30.49,4.6.2.18.88-.1.67-.29-8.5-7.83-21.06-9.62-31.46-4.64-.08.04-.32.19-.19.31,8.5,7.83,21.06,9.62,31.46,4.64.45-.22.04-.49-.29-.33Z"/>
    </g>
  </g>
  <g>
    <g>
      <path class="cls-6" d="m87.52,34.74c1.42-.02,2.82.07,4.19.27,2.12.29,4.16.83,6.09,1.58,2.48.95,4.78,2.25,6.85,3.84,1.73,1.33,3.31,2.86,4.67,4.55,3.72,4.59,5.96,10.41,6.04,16.75.17,15.08-12.01,27.44-27.22,27.61-5.09.06-9.88-1.26-14-3.61-3.18-1.81-5.97-4.24-8.19-7.11-1.79-2.32-3.21-4.92-4.18-7.74-.85-2.47-1.36-5.1-1.46-7.84,0-.23-.01-.46-.02-.69-.03-2.36.25-4.64.79-6.83,2.69-10.89,11.97-19.24,23.45-20.59.98-.11,1.97-.18,2.98-.19Z"/>
      <path class="cls-7" d="m87.49,35.01c12.77-.04,24.26,8.92,26.92,21.48,2.09,9.84-1.61,20.25-9.43,26.57-8.48,6.86-20.62,7.95-30.19,2.69-10.99-6.04-16.56-19.19-13.06-31.27,3.31-11.42,13.96-19.24,25.76-19.47.41,0,.56-.54.06-.53-10.63.2-20.53,6.36-25.06,16.06-5.39,11.54-1.86,25.59,8.22,33.33,9.03,6.93,21.78,7.61,31.53,1.77,8.72-5.22,14.03-15.01,13.45-25.19-.39-6.87-3.42-13.42-8.38-18.19-5.31-5.1-12.41-7.81-19.75-7.78-.41,0-.56.53-.06.53Z"/>
    </g>
    <g>
      <path class="cls-3" d="m87.52,34.74c1.42-.02,2.82.07,4.19.27,2.12.29,4.16.83,6.09,1.58,2.48.95,4.78,2.25,6.85,3.84,1.73,1.33,3.31,2.86,4.67,4.55,1.77,3.71,2.78,7.85,2.83,12.22.19,16.24-12.94,29.55-29.31,29.73-3.02.03-5.95-.38-8.7-1.19-3.18-1.81-5.97-4.24-8.19-7.11-1.79-2.32-3.21-4.92-4.18-7.74-.85-2.47-1.36-5.1-1.46-7.84,0-.23-.01-.46-.02-.69-.03-2.36.25-4.64.79-6.83,2.69-10.89,11.97-19.24,23.45-20.59.98-.11,1.97-.18,2.98-.19Z"/>
      <path class="cls-7" d="m87.39,34.98c6.28-.02,12.4,2,17.33,5.92,1.12.89,2.17,1.87,3.14,2.92,1.1,1.19,1.71,2.51,2.25,4.02,1.02,2.87,1.59,5.9,1.67,8.95.25,9.13-3.92,18.01-11.1,23.66-3.52,2.77-7.66,4.7-12.05,5.63-2.63.55-5.34.73-8.02.55-1.51-.1-3.02-.32-4.49-.65-1.68-.38-2.97-1.14-4.34-2.14-9.49-6.95-13.49-19.58-9.62-30.71,3.74-10.75,14.02-17.93,25.33-18.15.39,0,.57-.49.08-.48-10.14.19-19.66,5.79-24.44,14.8-5.69,10.7-3.46,24.24,5.31,32.59,2.08,1.99,4.42,3.89,7.27,4.53s5.9.88,8.87.68c4.64-.32,9.18-1.72,13.2-4.07,8.16-4.77,13.73-13.33,14.63-22.75.31-3.25.08-6.57-.69-9.74-.41-1.67-.96-3.3-1.65-4.88-.65-1.46-1.89-2.61-3.06-3.69-5.25-4.88-12.19-7.49-19.34-7.47-.32,0-.75.48-.26.48Z"/>
    </g>
    <g>
      <path class="cls-4" d="m87.52,34.74c1.42-.02,2.82.07,4.19.27,2.12.29,4.16.83,6.09,1.58,2.48.95,4.78,2.25,6.85,3.84.62,2.39.96,4.89.99,7.47.2,17.34-13.81,31.55-31.3,31.75-2.9.03-5.72-.32-8.4-1.02-1.79-2.32-3.21-4.92-4.18-7.74-.85-2.47-1.36-5.1-1.46-7.84,0-.23-.01-.46-.02-.69-.03-2.36.25-4.64.79-6.83,2.69-10.89,11.97-19.24,23.45-20.59.98-.11,1.97-.18,2.98-.19Z"/>
      <path class="cls-7" d="m87.39,34.97c5.54-.02,10.97,1.54,15.57,4.64.67.45,1.23.79,1.5,1.6.19.57.27,1.23.37,1.83.28,1.62.43,3.27.45,4.91.02,1.95-.14,3.91-.48,5.83-1.4,7.87-5.9,15.02-12.38,19.72-3.27,2.37-7,4.11-10.93,5.06-2.08.5-4.21.79-6.35.86-1.34.04-2.67,0-4-.12-1.4-.13-3.23-.18-4.52-.76-1.05-.47-1.76-2.05-2.32-3-.7-1.2-1.3-2.45-1.8-3.74-.93-2.39-1.52-4.92-1.74-7.48-.42-4.91.51-9.93,2.72-14.34,4.52-9.05,13.82-14.81,23.9-15,.29,0,.76-.46.27-.45-8.99.17-17.51,4.47-22.73,11.85-6.05,8.56-6.61,20.17-1.4,29.28.35.61.72,1.2,1.11,1.78.26.38.65,1.18,1.03,1.39.99.56,2.67.61,3.8.76,2.64.36,5.34.4,7.99.11,4.13-.45,8.15-1.7,11.81-3.67,7.44-4,13.12-10.93,15.5-19.04.7-2.39,1.11-4.87,1.22-7.36.06-1.4.03-2.8-.09-4.2-.08-.94-.21-1.88-.38-2.81-.11-.63-.13-1.75-.5-2.27-.3-.43-1.06-.82-1.49-1.1-.6-.41-1.22-.79-1.86-1.14-1.37-.77-2.8-1.41-4.27-1.94-3.13-1.12-6.42-1.64-9.74-1.63-.3,0-.76.45-.27.45Z"/>
    </g>
    <g>
      <path class="cls-1" d="m87.52,34.74c1.42-.02,2.82.07,4.19.27,2.12.29,4.16.83,6.09,1.58.35,1.74.54,3.54.56,5.38.18,16.24-12.94,29.55-29.31,29.73-2.51.03-4.95-.25-7.28-.81-.85-2.47-1.36-5.1-1.46-7.84,0-.23-.01-.46-.02-.69-.03-2.36.25-4.64.79-6.83,2.69-10.89,11.97-19.24,23.45-20.59.98-.11,1.97-.18,2.98-.19Z"/>
      <path class="cls-7" d="m87.38,34.93c2.57,0,5.12.3,7.59.98,1.09.3,2.32.45,2.63,1.65.3,1.13.32,2.42.37,3.59.15,3.57-.36,7.17-1.5,10.56-2.17,6.42-6.62,11.98-12.39,15.52-3,1.84-6.33,3.14-9.79,3.78-1.83.34-3.69.51-5.55.5-1.21,0-2.41-.08-3.61-.24-.6-.08-1.2-.17-1.8-.29-.77-.15-1.12-.27-1.46-1.03-.86-1.93-1.06-4.48-1.17-6.56-.13-2.36.06-4.74.55-7.05.75-3.52,2.2-6.87,4.26-9.83,4.99-7.16,13.16-11.44,21.87-11.6.25,0,.78-.38.29-.37-7.74.15-15.18,3.33-20.45,9.03-5.93,6.4-8.48,15.46-6.73,24.02.12.58.25,1.15.41,1.72.1.37.23,1.42.52,1.67.54.47,2.1.49,2.8.59,2.25.32,4.53.39,6.79.21,3.64-.29,7.22-1.23,10.52-2.78,6.49-3.04,11.79-8.39,14.7-14.94,1.7-3.83,2.54-8.01,2.49-12.2-.02-1.51-.15-3.02-.4-4.51-.09-.53-.05-.74-.44-1.02-.51-.37-1.53-.53-2.12-.7-2.64-.76-5.36-1.1-8.1-1.09-.25,0-.78.37-.29.37Z"/>
    </g>
    <g>
      <path class="cls-6" d="m87.52,34.74c1.42-.02,2.82.07,4.19.27,0,15.43-12.51,28.02-28.1,28.19-1.11.01-2.21-.04-3.29-.15,0-.23-.01-.46-.02-.69-.03-2.36.25-4.64.79-6.83,2.69-10.89,11.97-19.24,23.45-20.59.98-.11,1.97-.18,2.98-.19Z"/>
      <path class="cls-7" d="m87.39,34.96c1.4,0,2.8.08,4.19.27l-.23-.18c-.06,11.07-6.71,21.3-16.92,25.68-2.54,1.09-5.23,1.79-7.98,2.09-1.53.17-3.06.21-4.6.12-.64-.03-1,.14-1.19-.63-.1-.4,0-.99.02-1.41.04-1.07.15-2.14.32-3.21.92-5.75,3.73-11.12,7.92-15.16,4.96-4.79,11.58-7.45,18.46-7.58.29,0,.76-.45.27-.44-7.25.14-14.24,2.92-19.44,8-5.53,5.41-8.49,12.9-8.26,20.62,0,.09.16.12.23.12,12.55,1.22,24.9-5.82,29.76-17.56,1.41-3.41,2.11-7.05,2.13-10.73,0-.14-.11-.16-.23-.18-1.39-.19-2.78-.27-4.19-.27-.29,0-.76.44-.27.44Z"/>
    </g>
    <g>
      <path class="cls-4" d="m84.55,34.93c-2.69,10.89-11.97,19.24-23.45,20.59,2.69-10.89,11.97-19.24,23.45-20.59Z"/>
      <path class="cls-7" d="m84.18,34.96c-2.74,10.82-11.99,18.92-23.05,20.3l.34.24c2.74-10.82,11.99-18.92,23.05-20.3.4-.05.56-.59.06-.53-11.43,1.42-21.01,9.69-23.85,20.89-.04.17.21.25.34.24,11.43-1.42,21.01-9.69,23.85-20.89.09-.35-.65-.27-.73.05Z"/>
    </g>
  </g>
</svg>