<svg width="375" height="192" viewBox="0 0 375 192" fill="none" xmlns="http://www.w3.org/2000/svg">
<g clip-path="url(#clip0_269_5608)">
<path d="M350.854 119.235C309.737 143.031 333.363 172.319 353.99 203.913C392.813 219.663 497.405 226.552 485.451 193.684C470.509 152.598 402.251 89.4898 350.854 119.235Z" fill="#EDD6D6"/>
<path d="M60.5783 213.401C60.6666 210.716 60.8193 208.03 60.8193 205.344C60.8193 199.627 59.8231 194.039 58.3449 188.531C58.0798 187.542 57.7264 186.577 57.4131 185.612C56.674 185.741 56.5775 186.264 56.4892 186.746C55.6376 191.313 54.8021 195.888 53.9425 200.456C53.5649 202.482 53.1552 204.5 52.7213 206.518C52.6571 206.808 52.3518 207.073 52.0224 206.952C51.7653 206.856 51.3959 206.591 51.3878 206.39C51.3718 205.465 51.3637 204.516 51.5324 203.616C52.7455 197.223 53.4926 190.75 55.0752 184.422C55.2038 183.924 55.2359 183.393 55.3966 182.911C57.2443 177.274 57.9754 171.437 58.6101 165.575C58.7868 163.935 58.8029 162.278 58.9073 160.63C58.9394 160.147 59.2849 159.874 59.7187 159.906C59.9758 159.93 60.3534 160.188 60.4176 160.413C60.7631 161.595 60.9639 162.761 60.755 164.039C60.2408 167.199 59.9035 170.383 59.5098 173.567C59.3974 174.476 59.1402 175.393 59.8713 176.221C60.281 176.687 59.9918 177.218 59.7347 177.652C58.7385 179.341 58.6823 181.198 58.7868 183.063C58.8912 184.848 59.7427 185.741 61.4619 185.805C63.0124 185.862 64.5549 185.789 66.0893 185.492C69.126 184.897 71.1987 182.935 73.0545 180.659C73.657 179.911 73.8097 178.971 73.89 178.038C74.1552 175.023 74.0186 172.056 72.7734 169.217C72.0664 167.609 71.3594 166.001 70.7408 164.361C70.2749 163.114 69.7527 161.836 69.9455 160.461C69.9776 160.26 70.3471 160.051 70.5962 159.946C70.7327 159.89 70.9898 160.027 71.1264 160.147C71.271 160.276 71.3835 160.485 71.4237 160.67C72.0423 163.307 73.2232 165.728 74.3399 168.164C75.8582 171.469 76.0751 174.926 75.7377 178.472C75.577 180.185 74.846 181.608 73.6892 182.879C70.8212 186.022 67.3827 187.816 63.0526 187.695C62.3376 187.679 61.6146 187.759 60.8916 187.84C60.7148 187.856 60.5461 188.041 60.3453 188.169C60.9237 191.297 61.5343 194.425 62.0886 197.569C62.2412 198.437 62.8518 198.807 63.5347 198.984C64.1051 199.129 64.7718 199.073 65.3582 198.936C68.7806 198.132 72.1467 197.159 75.32 195.615C82.6386 192.053 86.326 184.559 84.647 176.575C84.181 174.347 83.3938 172.216 82.6065 170.078C80.7588 165.028 79.0154 159.938 78.3567 154.575C77.6578 148.931 77.2079 143.262 77.9952 137.577C78.4612 134.232 79.6822 131.193 81.8352 128.579C83.3214 126.778 85.097 125.452 87.5472 125.218C89.2262 125.058 90.6722 124.189 92.1103 123.377C92.8413 122.967 93.4117 122.356 93.8456 121.64C94.5927 120.394 94.4561 119.011 93.46 117.942C91.9657 116.341 90.2385 115.594 87.9409 115.835C83.3617 116.325 80.1642 118.939 77.4408 122.316C76.5973 123.361 76.4688 124.792 76.0591 126.071C75.7618 127.019 75.2878 127.124 74.2997 126.416C73.8819 126.119 73.5686 126.055 73.3115 126.465C72.8697 127.156 72.4439 127.872 72.0985 128.62C69.2947 134.763 68.162 141.203 68.628 147.933C68.7645 149.887 68.7405 151.865 69.2385 153.787C69.2867 153.98 69.2948 154.205 69.2466 154.398C69.1743 154.696 69.0778 154.985 68.7163 155.074C68.2263 155.194 67.8487 154.929 67.7363 154.559C67.4631 153.675 67.2542 152.758 67.1337 151.841C66.1456 143.913 66.716 136.186 69.9616 128.756C71.0542 126.256 72.5644 124.077 74.2194 121.954C74.3479 121.793 74.4523 121.576 74.6291 121.496C76.999 120.346 78.5013 118.134 80.5901 116.639C83.1126 114.838 85.9485 113.985 89.0012 113.897C91.9817 113.809 94.0946 115.425 95.6451 117.765C96.5609 119.148 96.3842 120.732 95.6692 122.203C95.0104 123.546 93.966 124.543 92.6726 125.242C91.1301 126.079 89.5636 126.923 87.7801 127.092C85.6271 127.293 84.1891 128.563 82.976 130.163C81.3211 132.342 80.333 134.819 79.9153 137.521C79.4172 140.705 79.4653 143.905 79.5698 147.113C79.7947 154.422 81.3934 161.434 83.9481 168.26C84.888 170.777 85.8682 173.27 86.4144 175.915C87.491 181.11 86.5912 185.99 84.0285 190.565C82.5262 193.259 80.1883 195.141 77.5292 196.612C73.9703 198.574 70.1142 199.684 66.1777 200.584C65.0128 200.85 63.39 200.439 62.8036 201.613C62.3457 202.514 62.7393 203.841 62.7152 204.974C62.6751 207.25 62.6188 209.517 62.5545 211.793C62.5304 212.541 62.3778 213.24 61.5744 213.562C61.245 213.514 60.9076 213.457 60.5783 213.409V213.401Z" fill="#402716"/>
<path d="M7.33855 204.075C11.1947 206.463 11.4518 207.009 12.0222 213.53C12.7773 213.587 13.4039 213.225 14.0225 212.863C16.4808 211.44 19.1159 211.231 21.8152 211.818C23.3657 212.156 24.8198 212.212 26.3542 211.673C27.8243 211.158 27.8725 211.279 27.8404 210.057C27.8083 208.923 27.6878 207.814 27.262 206.728C26.8041 205.578 26.4426 204.38 26.2096 203.166C24.9001 196.331 22.4257 189.875 19.9915 183.394C19.1962 181.271 18.4491 179.108 17.9671 176.897C17.3324 173.978 16.9789 170.995 16.529 168.036C16.4728 167.65 16.5532 167.176 17.0593 167.047C17.5252 166.934 17.8466 167.2 18.0072 167.61C18.2241 168.189 18.4411 168.768 18.5776 169.371C18.7785 170.279 18.9954 171.196 19.0516 172.121C19.2926 175.996 20.586 179.591 21.9035 183.177C22.8274 185.693 23.8236 188.194 24.7073 190.727C25.7999 193.847 26.8121 196.991 27.4548 200.239C27.7119 201.558 28.0171 202.868 28.451 204.139C29.2624 206.511 29.5757 208.947 29.7283 211.432C29.8167 212.863 30.1702 214.286 30.4192 215.71C30.5799 216.61 31.1503 217.165 31.9777 217.478C32.4678 217.663 32.9819 217.808 33.4478 217.462C33.9941 217.06 33.7371 216.522 33.5523 216.079C33.3113 215.517 32.9498 215.01 32.6847 214.455C32.5562 214.182 32.524 213.836 32.8132 213.611C33.1747 213.329 33.5604 213.329 33.9379 213.595C34.6449 214.093 34.9983 214.825 35.3117 215.605C35.9945 217.277 36.0829 217.334 37.7057 217.084C38.1074 217.02 38.509 216.883 38.8706 216.715C39.1678 216.57 39.2963 216.232 39.0875 215.959C38.5251 215.235 38.019 214.367 37.2799 213.9C36.4444 213.37 36.1713 212.783 36.2275 211.882C36.4042 209.301 36.4685 206.712 36.7497 204.147C37.2317 199.733 37.9226 195.342 38.9027 191C39.1759 189.794 39.3847 188.564 39.5293 187.334C39.69 185.999 39.8426 184.729 40.6299 183.522C41.2324 182.606 41.4092 181.408 41.851 180.362C42.0117 179.985 42.3893 179.727 42.8633 179.88C43.3533 180.033 43.4337 180.443 43.3453 180.861C43.2328 181.359 43.032 181.842 42.9035 182.34C42.092 185.428 41.0879 188.459 40.5737 191.636C39.7061 197.039 38.6296 202.41 38.3404 207.902C38.3082 208.521 38.3002 209.14 38.2439 209.759C38.1717 210.563 38.4127 211.142 39.216 211.472C39.7784 211.705 40.3568 211.987 40.8228 212.373C42.9436 214.134 42.4054 217.398 39.8346 218.459C39.2642 218.693 38.6537 218.853 38.0512 218.95C36.6212 219.175 35.1912 219.376 33.7531 219.521C31.0699 219.802 29.3748 218.685 28.5956 216.16C28.4751 215.766 28.4429 215.348 28.3465 214.946C28.2019 214.327 27.6074 214.005 27.1897 214.214C25.8963 214.865 24.8278 214.142 23.6469 213.933C20.6182 213.402 17.5332 212.751 14.6331 214.536C14.1993 214.801 13.6932 214.962 13.2112 215.147C12.697 215.34 12.1507 215.34 11.8053 214.881C11.4599 214.423 11.1465 214.528 10.8171 214.809C10.4235 215.147 10.1102 215.565 9.70044 215.878C8.26242 216.98 6.67984 217.68 4.82407 217.334C3.88414 217.165 2.97633 217.318 2.05246 217.382C-0.00415039 217.527 -2.06881 217.728 -4.13345 217.696C-11.3557 217.607 -18.594 217.929 -25.8082 217.302C-26.9329 217.205 -28.0897 217.302 -29.1502 216.771C-29.6643 216.514 -29.9375 216.128 -29.7126 215.533C-29.5358 215.074 -29.118 214.873 -28.7244 214.978C-24.8763 215.983 -20.9559 215.79 -17.0355 215.79C-12.5929 215.79 -8.15025 215.83 -3.71568 215.822C-2.4785 215.822 -1.24133 215.685 -0.00414848 215.669C0.911686 215.661 1.22497 215.018 1.52221 214.359C1.89176 213.539 1.89177 212.726 1.18481 212.083C0.574257 211.536 -0.124689 211.078 -0.743279 210.547C-1.63501 209.784 -2.46245 209.502 -3.37828 209.317C-4.52709 209.076 -5.6438 209.333 -6.7685 209.237C-7.17019 209.205 -7.57183 209.084 -7.94138 208.923C-8.06992 208.867 -8.15026 208.569 -8.15026 208.384C-8.15026 208.208 -8.06188 207.99 -7.93334 207.862C-7.79677 207.733 -7.58791 207.645 -7.3951 207.621C-6.27039 207.476 -5.11353 207.138 -4.01292 207.283C-0.97621 207.685 1.4178 206.173 3.75558 204.734C5.8604 203.447 7.09758 201.349 7.27432 198.832C7.66796 193.187 6.95294 187.68 4.88026 182.405C3.56275 179.044 1.40975 176.334 -1.6832 174.396C-2.37409 173.962 -3.01675 173.423 -3.61124 172.868C-3.77191 172.716 -3.80409 172.265 -3.70769 172.024C-3.53095 171.59 -3.10515 171.477 -2.6874 171.711C0.791159 173.665 3.84393 176.077 5.68363 179.735C6.28615 180.933 6.88068 182.156 7.28236 183.426C8.81678 188.299 9.51571 193.3 9.19437 198.406C9.1301 199.427 8.92924 200.464 8.62396 201.437C8.35082 202.306 7.83664 203.094 7.33855 204.091V204.075ZM-0.132713 208.698C0.750986 209.365 1.33745 209.783 1.88374 210.242C3.27355 211.392 3.97248 212.775 3.33782 214.608C3.28962 214.753 3.42619 214.97 3.48242 215.163C4.27775 215.307 5.08113 215.541 6.01303 215.307C6.06123 214.946 6.16567 214.552 6.16567 214.166C6.16567 212.831 6.12551 211.488 6.12551 210.153C6.12551 209.727 6.22993 209.325 6.76015 209.277C7.24217 209.229 7.5555 209.542 7.68404 209.928C7.86882 210.507 7.99732 211.118 8.05356 211.729C8.12586 212.582 8.10982 213.45 8.13392 214.383C8.53561 214.206 8.77662 214.174 8.88909 214.037C10.2628 212.292 10.3512 210.089 9.15416 207.998C8.23833 206.398 6.7682 205.811 4.96867 206.495C3.33784 207.114 1.76322 207.878 -0.132713 208.706V208.698Z" fill="#402716"/>
<path d="M62.5951 83.1256C62.0007 83.5759 61.4705 83.994 62.0167 84.8785C62.8281 86.1972 63.3664 87.6606 63.744 89.1642C63.8645 89.6628 63.9287 90.1854 63.9127 90.692C63.9046 91.0699 63.8966 91.5363 63.3663 91.6488C62.8442 91.7614 62.6112 91.4156 62.4907 91.0136C62.2899 90.3221 62.1613 89.6065 61.9765 88.9069C61.5749 87.4033 60.9723 85.9881 59.944 84.6695C58.755 84.6695 57.8874 85.4253 56.9314 85.956C56.5779 86.149 56.2727 86.4706 55.8148 86.3661C55.7184 86.3419 55.5898 86.2937 55.5577 86.2213C55.4854 86.0525 55.3729 85.7952 55.4452 85.6987C55.6942 85.377 55.9674 85.0554 56.3049 84.8464C57.1725 84.2996 58.0802 83.8091 58.98 83.3025C59.695 82.8925 59.9843 82.3457 59.7272 81.5095C59.2452 79.9335 58.8273 78.3414 58.3534 76.7654C58.024 75.6638 57.9999 75.6719 56.7386 76.7011C56.4414 76.4679 56.1441 76.2347 55.8549 76.0015C57.6063 73.1069 57.6304 73.0988 56.0558 70.1399C54.8909 67.9447 53.5091 65.8783 51.7658 64.0932C50.7697 63.072 50.1912 63.056 49.195 64.1575C48.0944 65.3797 46.9938 66.6421 46.1101 68.0251C44.6078 70.373 43.2261 72.8013 41.9005 75.2538C40.9686 76.9664 41.0409 77.0147 39.2815 76.7895C37.7471 76.5966 36.2207 76.3634 34.6783 76.2106C34.2123 76.1624 33.9311 76.484 34.0115 76.9986C34.1239 77.7062 34.2766 78.4057 34.365 79.1133C34.381 79.25 34.1722 79.4832 34.0276 79.5395C33.8669 79.5958 33.5295 79.5395 33.4813 79.443C33.1358 78.7032 32.8306 77.9394 32.5333 77.1675C32.2843 76.5162 31.8585 76.1463 31.1355 76.2186C29.4886 76.3714 27.8497 76.5242 26.2028 76.6931C25.6967 76.7413 25.3994 76.5001 25.3834 76.0418C25.3673 75.5995 25.6404 75.2779 26.0903 75.1653C26.2912 75.1171 26.492 75.0769 26.7009 75.0608C31.1676 74.8035 30.1312 74.2004 28.4361 71.5631C27.199 69.6494 26.0662 67.6874 25.1182 65.6129C24.2104 63.6269 22.9412 61.9061 21.3344 60.3141C20.9649 60.6116 20.6033 60.8287 20.3463 61.1262C17.5907 64.3505 15.0521 67.7276 13.0919 71.5229C11.7664 74.0879 10.2882 76.5805 8.85818 79.0892C8.60914 79.5314 8.31993 79.9817 7.95842 80.3355C7.78971 80.4963 7.31574 80.5446 7.1149 80.424C6.90602 80.2953 6.7614 79.8772 6.79353 79.6118C6.84173 79.2178 7.04261 78.8319 7.23542 78.4701C8.93855 75.2859 10.6256 72.0857 12.3689 68.9257C14.2728 65.4682 16.7553 62.4207 19.2859 59.4135C19.4224 59.2527 19.567 59.108 19.7197 58.9713C20.8444 57.9501 21.9611 57.934 22.9412 59.108C24.3952 60.8528 25.8252 62.6137 26.7812 64.7204C27.3757 66.031 28.1148 67.2854 28.8057 68.5558C29.0226 68.9418 29.4243 69.175 29.826 68.982C30.0027 68.8935 30.1071 68.4272 30.0589 68.1699C29.6974 66.2401 29.2797 64.3264 28.886 62.4047C28.8217 62.1072 28.7093 61.8016 28.7173 61.4961C28.7173 61.1986 28.8217 60.8528 29.2315 60.8769C29.4082 60.885 29.6894 60.9734 29.7376 61.1021C30.0027 61.7694 30.2518 62.4449 30.4205 63.1364C31.2158 66.3446 31.971 69.5609 32.7824 72.7611C33.176 74.2969 33.2242 74.2647 34.8309 74.4497C35.8512 74.5703 36.8634 74.7874 37.8837 74.916C38.9682 75.0527 39.8038 74.9 40.3179 73.6456C40.8481 72.3591 42.1335 71.5389 42.72 70.1801C43.2903 68.8614 44.1258 67.6553 44.9212 66.4492C45.9495 64.8973 47.0983 63.4258 48.5122 62.1956C49.902 60.9895 50.9785 60.9895 52.3764 62.1152C52.6977 62.3725 53.0191 62.6459 53.2842 62.9595C55.3006 65.3154 57.2367 67.7196 58.265 70.7188C58.1365 71.7721 59.3014 71.9812 59.5906 72.7611C59.6307 73.3642 59.5745 73.9914 59.7272 74.5703C60.2895 76.7333 60.9322 78.8801 61.5267 81.0351C61.6874 81.614 62.0569 81.8552 62.6112 81.9276C62.6112 82.3296 62.6112 82.7316 62.6032 83.1337L62.5951 83.1256ZM30.8543 71.2977C30.8061 71.2254 30.7659 71.1128 30.7016 71.0887C30.6534 71.0726 30.5088 71.153 30.4927 71.2093C30.4365 71.4585 30.5409 71.5872 30.7418 71.5389C30.798 71.5229 30.8141 71.3862 30.8543 71.3058V71.2977ZM30.2598 69.9067C30.1794 69.7539 30.1071 69.6252 30.0348 69.4886C29.9706 69.5529 29.842 69.6413 29.8501 69.6896C29.8822 69.8343 29.9706 69.963 30.0348 70.0996C30.1071 70.0353 30.1794 69.971 30.2517 69.9067H30.2598Z" fill="#402716"/>
<path d="M68.419 102.101C68.7001 103.999 68.9653 105.832 69.2625 107.859C70.9094 108.084 72.5322 108.309 74.163 108.518C74.5727 108.574 74.9905 108.542 75.3922 108.63C75.5529 108.663 75.818 108.92 75.7939 109.016C75.7296 109.29 75.6011 109.692 75.3922 109.772C74.2836 110.19 73.1508 109.845 72.0341 109.74C69.2304 109.467 69.2384 109.443 68.9492 112.176C68.909 112.578 68.8688 113.013 68.7001 113.374C68.5877 113.608 68.2342 113.849 67.9932 113.841C67.7843 113.841 67.4469 113.527 67.4067 113.302C67.3023 112.812 67.3425 112.289 67.3344 111.774C67.3344 111.155 67.3425 110.536 67.3505 109.917C67.3505 109.209 67.0131 108.791 66.3463 108.542C64.8922 108.003 63.4542 107.432 61.8796 107.352C61.4699 107.336 61.0441 107.296 60.6585 107.175C60.3853 107.087 60.1283 106.821 60.2327 106.467C60.2809 106.315 60.4657 106.13 60.6183 106.09C60.9076 106.017 61.2289 106.025 61.5342 106.017C63.0043 105.961 64.386 106.419 65.7678 106.829C67.3103 107.288 67.6477 107.054 67.2782 105.446C66.5792 102.375 67.5754 101.772 63.5104 102.777C62.8115 102.954 62.0804 103.01 61.3815 103.179C60.6826 103.356 59.8872 103.46 59.357 103.878C58.7384 104.369 59.1562 105.237 59.1401 105.937C59.116 106.781 58.9232 107.561 58.393 108.244C57.8548 108.928 57.2763 109.378 56.2802 108.92C55.3483 108.486 54.3038 108.277 53.4201 107.77C52.0384 106.982 51.0743 106.701 49.8291 108.277C48.1983 110.343 45.6035 110.126 43.2255 109.997C42.1329 109.941 41.5465 108.864 40.7351 108.357C40.5583 108.397 40.4378 108.389 40.3655 108.437C37.2565 110.544 33.786 111.75 30.1789 112.683C28.0821 113.23 26.1781 114.315 24.3866 115.562C24.1376 115.738 23.8564 115.891 23.5672 115.98C23.4146 116.028 23.1495 115.972 23.037 115.859C22.788 115.618 22.8522 115.28 23.0531 115.047C23.3262 114.741 23.6395 114.476 23.9769 114.243C26.5316 112.418 29.3675 111.075 32.4122 110.52C35.4088 109.973 37.61 108.108 40.1325 106.757C40.3816 106.62 40.6387 106.355 40.7351 106.098C40.968 105.422 41.1046 104.345 41.8678 104.514C42.6391 104.682 43.3219 105.511 43.9084 106.162C44.2699 106.572 43.6915 106.845 43.4264 107.119C43.0809 107.465 42.9523 107.826 43.4986 108.035C45.6597 108.864 47.644 108.373 49.074 106.677C49.4034 106.283 49.6605 105.824 49.9657 105.414C50.3835 104.851 50.8414 104.699 51.5483 105.06C52.9141 105.776 54.328 106.419 55.7499 107.014C56.9068 107.497 57.4933 107.038 57.5977 105.824C57.67 104.916 57.0353 103.943 57.686 103.123C58.3769 102.246 59.5499 102.31 60.5219 102.037C61.9118 101.643 63.3417 101.41 64.7396 101.072C65.8643 100.799 65.8482 100.767 65.7358 99.3836C65.7117 99.0861 65.7197 98.7725 65.792 98.4911C65.9044 98.081 66.2579 98.2177 66.5391 98.2498C66.6355 98.2579 66.764 98.3303 66.7962 98.4107C67.6076 100.63 69.3107 100.059 70.9013 99.6891C73.9139 98.9976 76.9105 98.2418 79.9231 97.5262C80.5095 97.3895 81.1282 97.1724 81.6664 97.6629C82.036 98.0006 81.4093 98.6599 80.2605 98.9414C77.1595 99.7052 74.0425 100.429 70.9335 101.145C70.1301 101.329 69.2866 101.354 68.4431 102.109L68.419 102.101Z" fill="#402716"/>
<path d="M59.7024 128.58C59.4052 132.399 59.4935 136.211 60.5218 139.926C61.0922 142 61.3171 144.187 62.3615 146.133C62.4498 146.302 62.2651 146.76 62.0723 146.921C61.7349 147.186 61.301 147.17 60.9556 146.849C60.4093 146.334 60.2005 145.651 59.9836 144.951C58.5134 140.094 57.3645 135.198 57.6297 130.068C57.6618 129.473 57.943 128.66 57.3405 128.339C55.9988 127.623 56.5452 126.948 57.1959 126.192C57.5333 125.798 57.8466 125.388 58.184 125.002C58.6419 124.471 59.0918 123.627 59.8952 124.117C60.5299 124.503 59.9032 125.235 59.8711 125.822C59.8148 126.747 59.7506 127.663 59.6944 128.588L59.7024 128.58Z" fill="#402716"/>
<path d="M3.01707 118.448C2.60735 118.488 2.19761 118.569 1.7879 118.569C1.17734 118.577 0.727476 118.07 1.00062 117.62C1.68348 116.502 2.44667 115.433 3.20987 114.371C3.2902 114.259 3.58742 114.251 3.78022 114.275C4.14977 114.315 4.206 114.637 4.27831 114.934C4.39078 115.376 3.85255 116.1 4.60771 116.229C5.78866 116.422 5.80472 117.105 5.60387 117.998C5.42713 118.794 5.09778 119.598 6.12608 120.136C6.34299 120.249 6.43938 120.659 6.51168 120.957C6.9696 122.967 7.63637 124.905 8.504 126.786C8.67271 127.148 8.70485 127.647 8.263 127.872C7.70868 128.161 7.21862 127.872 6.99368 127.381C6.47952 126.264 6.02164 125.114 5.61996 123.956C5.30665 123.047 5.12185 122.155 3.78827 122.42C3.41872 122.492 3.08934 121.978 3.13754 121.536C3.23395 120.619 3.3946 119.718 3.52314 118.81C3.65971 118.544 3.81235 118.183 3.52314 118.014C3.16163 117.805 3.1215 118.223 3.00903 118.456L3.01707 118.448Z" fill="#402716"/>
<path d="M0.309923 95.613C0.390259 92.0188 1.41056 88.7141 3.20206 85.6184C3.71621 84.7258 4.16609 83.8012 4.65614 82.8926C4.90519 82.4342 5.20241 82.0081 5.78886 81.9518C5.98971 81.9277 6.22268 81.8794 6.39139 81.9518C6.71273 82.0885 6.80112 82.4101 6.65651 82.6996C6.02185 83.9941 5.41129 85.3048 4.68826 86.5431C2.99317 89.4538 2.02912 92.5575 1.86845 95.9186C1.84435 96.4171 1.96486 96.9719 1.57121 97.39C1.44267 97.5267 1.22579 97.6634 1.04905 97.6634C0.880346 97.6634 0.663442 97.5187 0.550971 97.382C0.133222 96.8513 0.261754 96.208 0.293889 95.605L0.309923 95.613Z" fill="#402716"/>
<path d="M39.9086 101.242C39.7158 101.418 39.531 101.692 39.2819 101.804C38.3259 102.223 37.2896 102.287 36.2533 102.335C34.6064 102.424 32.9595 102.488 31.3206 102.641C28.549 102.898 25.7854 103.163 23.1183 104.064C22.6443 104.225 22.106 104.249 21.5999 104.281C21.4473 104.289 21.1339 104.072 21.15 103.991C21.1902 103.71 21.2625 103.372 21.4553 103.195C21.6642 103.011 22.0257 102.986 22.3149 102.89C25.1668 101.933 28.1152 101.475 31.0956 101.209C33.6584 100.976 36.2292 100.759 38.7919 100.55C39.0811 100.526 39.4024 100.574 39.6756 100.679C39.7961 100.727 39.8202 101 39.9166 101.242H39.9086Z" fill="#402716"/>
<path d="M62.5947 83.1255C62.5947 82.7234 62.5947 82.3214 62.6028 81.9193C67.2944 79.1694 71.9941 76.4195 76.6857 73.6776C77.1276 73.4203 77.5293 73.0585 78.0836 73.1147C78.2603 73.1308 78.5013 73.2434 78.5736 73.3881C78.654 73.5329 78.6298 73.8143 78.5334 73.951C78.3647 74.2002 78.1398 74.4334 77.8828 74.5782C73.1108 77.4005 68.4914 80.4881 63.4864 82.8923C63.2213 83.0209 62.9 83.0451 62.6028 83.1174L62.5947 83.1255Z" fill="#402716"/>
<path d="M45.1379 174.331C45.0335 172.908 45.0977 171.597 46.9936 171.461C47.4756 171.429 47.6444 171.043 47.8372 170.681C48.7289 169.04 49.2351 167.272 49.5725 165.446C49.7412 164.546 49.9822 163.645 50.2714 162.777C50.3357 162.592 50.7694 162.447 51.0426 162.431C51.38 162.407 51.6371 162.72 51.621 163.018C51.396 166.652 50.5044 170.094 48.5602 173.23C48.0059 174.114 47.1704 174.371 46.2385 174.516C45.8689 174.452 45.5074 174.388 45.1379 174.323V174.331Z" fill="#402716"/>
<path d="M27.7284 83.0371C27.6319 83.1577 27.5195 83.4231 27.3829 83.4392C27.0937 83.4713 26.7804 83.407 26.5073 83.3105C25.5272 82.9567 24.6595 82.3939 23.9124 81.6782C21.4702 79.3223 19.052 76.9422 16.6339 74.5622C16.425 74.3531 16.2724 74.0556 16.184 73.7742C16.1439 73.6295 16.2563 73.3722 16.3929 73.2676C16.5295 73.1631 16.8267 73.0827 16.9472 73.1631C17.373 73.4365 17.7747 73.7581 18.1362 74.1119C19.6787 75.6236 21.197 77.1593 22.7315 78.679C24.1213 80.054 25.487 81.4531 27.2946 82.3054C27.5677 82.4341 27.8087 82.6431 27.7284 83.0371Z" fill="#402716"/>
<path d="M32.2432 131.611C32.4842 131.611 32.7172 131.547 32.8859 131.619C35.3523 132.705 38.0034 133.075 40.6063 133.654C41.3855 133.831 42.2612 133.831 42.9119 134.426C43.1368 134.635 43.2975 134.884 43.2011 135.222C43.1047 135.559 42.8396 135.68 42.5343 135.768C42.4379 135.792 42.3255 135.825 42.2291 135.801C39.2647 134.988 36.1637 134.699 33.2957 133.517C32.7253 133.284 32.1308 133.083 31.8335 132.488C31.7532 132.327 31.7371 132.062 31.8175 131.909C31.8898 131.756 32.1227 131.692 32.2513 131.611H32.2432Z" fill="#402716"/>
<path d="M51.886 100.011C52.3038 100.099 53.0108 100.212 53.6936 100.389C54.2238 100.525 54.5853 100.911 54.6415 101.466C54.7138 102.174 54.2801 102.712 53.6775 102.865C52.6653 103.114 51.4924 103.782 50.7613 102.286C50.6247 101.997 50.4239 102.214 50.1749 102.431C49.2189 103.283 48.0379 102.986 47.6362 101.836C47.4354 101.265 47.7809 100.823 48.279 100.614C49.3314 100.188 50.4561 100.091 51.878 100.019L51.886 100.011Z" fill="#402716"/>
<path d="M59.5903 72.7613C59.3011 71.9813 58.1362 71.7723 58.2647 70.7189C58.7307 71.0245 59.1565 71.1451 59.5662 70.5903C60.7873 68.9339 62.0165 67.2855 63.2858 65.6613C63.6553 65.1869 64.1454 64.8009 64.6194 64.415C64.7318 64.3265 65.021 64.3748 65.1897 64.4471C65.5512 64.5919 65.5914 64.9537 65.4067 65.203C63.4786 67.7358 61.5264 70.2445 59.5823 72.7693L59.5903 72.7613Z" fill="#402716"/>
<path d="M31.0231 96.5375C31.0793 97.0842 30.9026 97.5426 30.4527 97.8562C29.5288 98.4994 28.5166 98.9738 27.408 99.1829C26.8697 99.2874 26.3877 99.0623 26.0904 98.6039C25.7932 98.1376 25.8655 97.6069 26.1628 97.1646C26.8135 96.2158 27.7293 95.5645 28.7415 95.0741C29.9626 94.479 30.9428 95.1223 31.0231 96.5294V96.5375Z" fill="#402716"/>
<path d="M56.4969 76.9581C55.806 78.4778 54.633 79.6518 53.6449 80.9544C52.8978 81.9354 52.0302 82.8279 51.5401 83.9857C51.3553 84.4119 51.042 84.6612 50.6001 84.3958C50.1583 84.1385 50.2547 83.6641 50.4073 83.2942C50.6082 82.8279 50.8492 82.3615 51.1625 81.9595C52.6729 80.0136 54.2072 78.0919 55.7336 76.1621C55.9907 76.4275 56.2398 76.6928 56.4969 76.9581Z" fill="#402716"/>
<path d="M1.79672 106.065C1.40308 107.464 1.47538 108.984 1.79672 110.512C1.87706 110.89 1.82082 111.356 1.3388 111.509C0.832682 111.678 0.334575 111.597 -0.139409 111.348C-0.484855 111.171 -0.549079 110.785 -0.444642 110.56C0.0855775 109.378 -0.17954 108.132 -0.0510021 106.918C0.013267 106.298 0.0453799 105.671 0.479196 105.189C0.672003 104.972 0.953172 104.771 1.27452 104.948C1.43519 105.036 1.59586 105.181 1.6762 105.342C1.76457 105.51 1.74853 105.736 1.80476 106.065H1.79672Z" fill="#402716"/>
<path d="M61.4848 98.2179C61.2358 98.1777 60.9225 98.1375 60.6253 98.0652C59.0266 97.6712 58.673 96.6982 59.6451 95.3795C60.1351 94.7122 60.8904 94.5433 61.517 95.0177C61.9187 95.3233 62.2962 95.6931 62.5935 96.0952C62.955 96.5776 63.3647 97.1163 62.9148 97.7596C62.5774 98.234 62.0552 98.2501 61.4848 98.2179Z" fill="#402716"/>
<path d="M62.3456 123.9C61.9841 123.924 61.6789 123.988 61.3816 123.94C61.229 123.916 61.0442 123.723 60.9799 123.57C60.9157 123.401 60.8996 123.088 61.0041 122.999C62.2332 121.914 63.4704 120.844 64.7478 119.815C64.9165 119.679 65.3663 119.759 65.5993 119.888C65.8965 120.048 65.9046 120.459 65.7279 120.708C65.1012 121.592 64.113 122.276 64.3621 123.602C64.4183 123.916 64.0006 124.021 63.7034 124.101C63.1892 124.246 62.8437 123.409 62.3456 123.892V123.9Z" fill="#402716"/>
<path d="M62.7784 151.424C62.7302 152.083 62.7302 152.59 62.6579 153.08C62.6097 153.394 62.3447 153.571 62.0233 153.603C61.6698 153.635 61.4449 153.41 61.3244 153.128C60.8906 152.067 60.9709 150.965 61.1556 149.872C61.1878 149.671 61.5654 149.397 61.7984 149.389C62.0313 149.381 62.425 149.606 62.4892 149.816C62.666 150.378 62.7142 150.989 62.7865 151.424H62.7784Z" fill="#402716"/>
<path d="M45.1383 174.332C45.5078 174.396 45.8693 174.461 46.2389 174.525C45.3713 175.482 45.6524 176.857 45.0178 177.886C44.825 178.2 44.5277 178.553 44.0377 178.336C43.6199 178.151 43.411 177.814 43.4753 177.379C43.644 176.157 43.9734 175.007 45.1463 174.332H45.1383Z" fill="#402716"/>
<path d="M66.6349 119.132C66.2333 119.084 66.1529 118.77 66.1127 118.481C66.0083 117.669 66.7473 116.985 66.4742 116.125C66.3457 115.707 66.4983 115.329 66.9803 115.192C67.4784 115.047 68.0729 115.618 68.1693 116.27C68.33 117.371 67.848 118.24 67.1731 119.028C67.0767 119.14 66.8036 119.108 66.6269 119.14L66.6349 119.132Z" fill="#402716"/>
<path d="M11.4363 128.338C11.2355 128.491 11.0908 128.676 10.9141 128.716C10.7454 128.757 10.4803 128.708 10.3598 128.596C9.65281 127.928 9.33149 127.068 9.28329 126.119C9.26722 125.862 9.43593 125.452 9.63677 125.347C10.0385 125.146 10.4481 125.339 10.657 125.749C11.0828 126.569 11.4443 127.414 11.4363 128.338Z" fill="#402716"/>
<path d="M40.1477 158.009C40.1799 156.883 40.5334 156.216 41.0234 156.368C41.7786 156.593 41.7705 157.253 41.8107 157.856C41.9553 159.971 41.6661 160.887 40.927 160.718C40.2361 160.566 40.0915 160.043 40.1477 158.009Z" fill="#402716"/>
<path d="M0.511157 100.92C0.535258 100.735 0.559396 100.534 0.599564 100.333C0.687934 99.8507 1.06549 99.6577 1.4752 99.5934C1.90099 99.521 2.55174 100.124 2.51157 100.526C2.48747 100.824 2.43123 101.145 2.30269 101.411C2.08578 101.861 1.89298 102.367 1.25833 102.4C0.77631 102.424 0.479023 101.861 0.511157 100.92Z" fill="#402716"/>
<path d="M62.049 156.69C61.6152 156.634 61.2778 156.425 61.2377 155.975C61.1814 155.291 61.8562 154.511 62.4828 154.576C63.0853 154.632 63.238 155.13 63.2139 155.669C63.1818 156.353 62.74 156.73 62.041 156.69H62.049Z" fill="#402716"/>
<path d="M49.8038 134.216C49.611 134.329 49.378 134.586 49.137 134.602C48.3819 134.634 47.8115 134.256 47.4741 133.581C47.3456 133.316 47.3696 132.97 47.6909 132.833C48.4622 132.52 49.5789 133.05 49.8681 133.846C49.9003 133.927 49.8359 134.039 49.8038 134.224V134.216Z" fill="#402716"/>
<path d="M46.4551 134.337C46.431 134.434 46.4309 134.53 46.3827 134.618C46.0855 135.197 45.6035 135.173 45.1134 134.94C44.5912 134.691 43.9405 134.514 44.1092 133.694C44.1253 133.605 44.1896 133.509 44.2619 133.461C44.9849 133.002 46.2301 133.509 46.4551 134.345V134.337Z" fill="#402716"/>
<path d="M36.2121 83.5754C36.0193 83.7764 35.9551 83.9051 35.8828 83.9131C35.706 83.9292 35.4409 83.9613 35.3445 83.8649C34.4287 82.8839 34.0109 81.6537 33.7298 80.3752C33.7057 80.2465 33.8824 80.0053 34.019 79.9329C34.1636 79.8606 34.4689 79.8606 34.5492 79.9571C35.4329 81.0506 35.8345 82.3452 36.2121 83.5754Z" fill="#402716"/>
<path d="M37.0068 85.1202C37.0631 85.4097 36.8702 85.6831 36.581 85.7072C35.8901 85.7635 35.8098 85.1685 35.6973 84.6941C35.6652 84.5574 35.8339 84.292 35.9865 84.1955C36.3159 83.9784 36.9104 84.5091 37.0068 85.1202Z" fill="#402716"/>
<path d="M56.4976 76.9586C56.2406 76.6932 55.9915 76.4279 55.7344 76.1625L55.8469 76.0098C56.1441 76.2429 56.4333 76.4761 56.7305 76.7093C56.7305 76.854 56.6422 76.9425 56.4976 76.9586Z" fill="#402716"/>
<path d="M30.8454 71.2978C30.8052 71.3782 30.7892 71.5149 30.7329 71.531C30.5321 71.5873 30.4276 71.4586 30.4839 71.2013C30.4999 71.145 30.6445 71.0646 30.6927 71.0807C30.765 71.1048 30.7971 71.2174 30.8454 71.2898V71.2978Z" fill="#402716"/>
<path d="M374.845 108.272C374.659 105.678 374.749 103.047 374.897 100.438C375.068 97.4277 374.979 94.4399 374.697 91.4446C374.184 86.0041 372.952 80.8683 368.667 77.0035C367.263 74.2609 364.612 73.54 361.954 72.8116C359.86 72.2319 358.122 72.8339 356.563 74.2609C354.105 76.5204 353.199 79.5231 352.79 82.6447C352.523 84.6737 353.377 86.5021 355.174 87.7061C355.449 87.892 355.828 88.0555 356.206 87.7284C356.592 87.4014 356.57 86.9034 356.399 86.673C355.701 85.7366 354.788 84.8967 354.781 83.6258C354.781 80.3629 355.701 77.4569 358.241 75.2346C358.857 74.6994 359.592 74.4244 360.394 74.4393C362.266 74.4839 364.122 74.9001 365.481 76.1711C368.459 78.9433 371.162 81.9683 371.979 86.1751C372.454 88.6055 373.018 91.0284 373.011 93.5331C372.989 102.415 372.974 111.297 372.922 120.178C372.885 125.597 371.853 130.844 369.647 135.786C366.848 142.044 365.385 148.63 364.382 155.363C363.743 157.385 363.112 159.407 362.206 162.268C361.449 158.373 360.045 155.623 359.503 152.517C358.642 147.522 357.914 142.476 356.392 137.615C356.065 136.574 356.065 135.705 356.459 134.634C357.313 132.315 357.885 129.9 358.575 127.529C358.842 126.778 359.102 126.035 359.37 125.284C359.63 124.504 359.897 123.716 360.157 122.936C363.038 114.976 364.211 106.77 363.692 98.3196C363.632 97.3088 363.276 96.2608 364.219 95.3912C364.412 95.2129 364.442 94.5811 364.278 94.3507C363.521 93.2953 362.667 92.3142 361.471 91.7345C361.3 91.6527 360.959 91.7568 360.795 91.8906C360.625 92.0318 360.439 92.3663 360.506 92.5223C361.278 94.4622 361.961 96.4169 362.013 98.5426C362.117 102.593 362.214 106.651 361.412 110.643C360.639 114.47 359.748 118.276 358.902 122.088C358.419 122.795 358.07 123.553 358.115 124.437C357.751 124.913 357.446 125.403 357.506 126.042C356.904 127.626 356.31 129.216 355.709 130.799C355.456 130.628 355.211 130.45 354.959 130.279C354.892 130.034 354.899 129.729 354.758 129.543C352.612 126.674 351.892 123.515 352.753 120.015C352.842 119.643 352.82 119.234 352.887 118.855C353.823 113.571 353.719 108.257 353.392 102.928C353.214 100.014 352.523 97.2716 350.771 94.9007C348.84 92.2845 347.236 89.5196 346.367 86.3609C346.144 85.5656 345.008 85.6474 344.852 84.7332C344.748 84.1014 344.466 83.492 344.28 82.8676C343.694 80.8683 343.085 78.8764 342.535 76.8697C342.342 76.1711 342.565 75.5839 343.426 75.4947C343.946 75.4427 344.466 75.4278 344.978 75.3386C345.483 75.2494 346.07 75.1528 346.1 74.4913C346.129 73.8224 345.558 73.7184 345.053 73.6366C344.035 73.4731 342.966 73.867 341.8 73.2947C341.518 72.0238 341.169 70.6488 340.902 69.2515C340.293 66.0481 339.528 62.8819 338.451 59.8049C336.988 55.6279 335.548 51.436 333.29 47.586C332.533 46.2928 331.686 45.2225 330.127 44.955C330.327 44.68 330.528 44.405 330.728 44.13C331.01 43.8698 331.337 43.6469 331.575 43.3421C335.184 38.6969 339.164 34.401 343.545 30.4692C343.835 30.2091 344.139 29.9564 344.407 29.674C344.845 29.2131 345.476 28.7003 345.016 28.0388C344.488 27.2807 343.835 27.8084 343.36 28.2172C342.171 29.228 341.006 30.276 339.877 31.3611C336.669 34.4307 333.743 37.7604 331.003 41.2462C330.535 41.8408 330.134 42.5989 329.154 42.3611C328.404 38.5259 327.223 34.8097 326.08 31.0787C325.181 28.1503 323.518 25.6828 321.669 23.3267C320.443 21.7733 318.869 21.4983 317.184 22.472C316.515 22.8584 315.854 23.3267 315.342 23.899C313.953 25.4449 312.438 26.9388 311.354 28.6854C309.372 31.8888 307.641 35.2557 305.844 38.5705C305.607 39.009 305.532 39.5516 305.48 40.0496C305.458 40.2651 305.636 40.659 305.792 40.6962C306.134 40.7854 306.624 40.83 306.854 40.6442C307.248 40.3394 307.523 39.8563 307.775 39.4104C309.186 36.9205 310.604 34.4307 311.971 31.9185C313.426 29.2577 315.32 26.9611 317.577 24.9618C318.587 24.0625 319.404 24.1665 320.221 25.2145C321.825 27.2807 323.228 29.4658 323.948 32.0226C324.721 34.7726 325.634 37.4928 326.243 40.2874C326.681 42.2942 327.765 43.8252 329.065 45.2746C329.325 45.5644 329.77 45.3563 330.038 45.0293C329.963 45.9806 330.275 46.8279 330.758 47.6232C333.825 52.707 335.6 58.3036 337.204 63.9596C338.02 66.8434 338.548 69.8089 339.179 72.7373C339.32 73.3988 339.261 74.1346 338.555 74.417C335.399 75.6434 332.251 76.9663 328.723 76.4609C325.552 76.0075 322.486 76.5501 319.463 77.4494C318.981 77.5906 318.513 77.8433 318.104 78.1258C317.956 78.2298 317.882 78.6163 317.948 78.8244C318 79.0102 318.275 79.2332 318.476 79.2555C318.854 79.3001 319.27 79.2778 319.634 79.1663C322.805 78.2075 326.013 77.9474 329.302 78.4008C330.728 78.6015 332.161 78.4082 333.557 77.992C335.548 77.3974 337.545 76.84 339.766 76.2082C340.567 78.8616 341.362 81.4555 342.112 84.0568C342.268 84.5994 342.023 85.1791 341.436 85.2386C338.206 85.5879 334.991 86.398 331.716 85.7366C330.832 85.5582 329.993 85.1345 329.109 84.9339C327.847 84.6514 326.562 84.4285 325.27 84.2501C324.721 84.1758 324.201 84.5102 324.119 85.0602C324.09 85.2683 324.55 85.7068 324.847 85.7886C326.102 86.123 327.468 86.1676 328.642 86.673C331.515 87.9217 334.449 88.0109 337.471 87.617C339.914 87.2974 342.357 86.9629 344.83 87.1115C344.592 88.769 345.32 90.1811 346.085 91.5413C346.85 92.9014 347.674 94.2392 348.587 95.5027C350.258 97.7919 350.882 100.334 351.209 103.136C351.914 109.171 351.283 115.102 350.444 121.04C350.295 122.066 350.28 123.166 349.857 124.073C349.33 125.203 349.427 126.124 350.214 126.927C351.818 128.569 352.159 130.554 351.922 132.702C351.714 134.567 351.766 136.21 353.6 137.429C354.253 137.867 354.625 138.953 354.825 139.807C355.672 143.353 356.399 146.92 357.179 150.48C356.503 152.65 357.58 154.464 358.33 156.367C358.805 157.571 359.214 158.827 359.459 160.098C360.877 167.315 361.36 174.569 359.941 181.852C359.667 183.257 359.377 184.662 359.139 186.074C359.05 186.579 358.991 187.129 359.11 187.612C359.184 187.925 359.57 188.274 359.889 188.385C360.454 188.586 361.011 188.192 361.092 187.717C361.909 182.967 363.038 178.248 362.949 173.394C362.867 169.076 363.885 164.936 364.649 160.744C364.857 159.6 365.073 158.448 365.288 157.303C366.268 155.705 366.461 153.884 366.818 152.1C367.583 148.265 368.154 144.386 369.714 140.744C370.486 138.945 371.14 137.094 371.852 135.281C373.494 131.119 374.437 126.815 374.659 122.334C374.89 117.636 375.187 112.954 374.845 108.242V108.272Z" fill="#402716"/>
<path d="M270.43 191.217C266.465 187.56 260.985 186.884 256.291 189.493C255.497 189.931 254.791 190.526 254.027 191.031C253.529 191.366 253.173 192.064 252.267 191.648C251.747 188.355 251.472 184.996 252.333 181.651C252.89 179.496 253.247 177.333 253.173 175.089C253.135 174.056 253.351 173.008 253.455 171.974C253.975 166.764 255.096 161.673 256.373 156.612C256.529 155.987 256.752 155.356 256.796 154.716C256.834 154.174 256.47 153.706 255.957 153.512C255.333 153.275 254.992 153.706 254.843 154.233C253.284 159.629 252.029 165.092 251.531 170.704C251.279 173.565 251.279 176.493 250.603 179.258C249.645 183.16 249.913 187.025 249.994 190.942C250.024 192.503 250.707 193.677 251.613 194.807C252.274 195.624 252.994 195.706 253.484 194.851C254.153 193.677 254.999 192.748 256.128 192.049C256.499 191.819 256.767 191.908 257.034 192.124C257.019 191.901 256.975 191.641 257.064 191.581C258.853 190.407 260.791 189.723 262.967 189.998C264.69 190.214 265.128 190.845 265.024 192.845C265.002 193.239 265.002 193.625 264.987 194.019C264.905 196.977 264.905 196.992 262.18 197.475C261.408 197.616 260.621 197.631 259.856 197.795C258.579 198.062 257.309 198.359 256.069 198.739C255.772 198.828 255.393 199.326 255.415 199.608C255.452 200.143 255.883 200.582 256.484 200.485C260.472 199.831 264.452 199.147 268.433 198.471C268.559 198.449 268.715 198.426 268.797 198.337C269.049 198.062 269.376 197.787 269.465 197.46C269.569 197.081 269.301 196.776 268.915 196.568C268.366 196.286 267.534 196.457 267.304 195.684C266.992 194.666 266.992 193.61 267.304 192.607C267.408 192.28 267.935 192.146 268.292 192.399C268.707 192.696 269.071 193.082 269.435 193.447C269.94 193.952 270.519 194.309 271.076 193.64C271.537 193.075 271.292 192.406 270.935 191.826C270.802 191.611 270.608 191.418 270.423 191.239L270.43 191.217Z" fill="#402716"/>
<path d="M301.94 154.36C301.628 154.352 301.101 154.657 301.026 154.924C300.633 156.299 300.261 157.697 300.053 159.101C298.442 169.938 296.363 180.685 294.172 191.417C293.979 192.376 293.801 192.986 292.62 193.231C291.358 193.491 291.373 193.818 291.952 195.186C292.056 195.424 292.256 195.624 292.338 195.862C292.739 196.977 292.442 197.631 291.365 197.958C290.742 198.144 290.103 198.263 289.464 198.389C288.402 198.605 287.734 198.025 287.229 197.192C287.095 196.969 286.991 196.732 286.888 196.494C286.42 195.483 286.791 193.61 285.439 193.588C283.65 193.558 284.86 195.461 284.355 196.36C284.266 196.516 283.954 196.568 283.739 196.613C283.635 196.635 283.442 196.546 283.405 196.457C283.197 195.996 282.9 195.52 282.878 195.044C282.826 194.011 282.952 192.963 282.952 191.923C282.952 191.529 282.744 191.202 282.283 191.128C281.838 191.053 281.489 191.261 281.34 191.626C280.962 192.577 280.657 193.558 280.316 194.524C278.385 194.524 276.462 194.517 274.538 194.524C273.714 194.524 273.001 194.821 272.548 195.535C272.429 195.721 272.392 196.033 272.452 196.241C272.519 196.449 272.771 196.776 272.92 196.769C274.984 196.642 277.056 196.524 279.113 196.278C279.736 196.204 280.108 195.936 280.702 196.613C283.561 199.838 286.991 201.563 291.447 200.24C292.813 199.831 294.254 199.66 295.65 199.34C296.014 199.259 296.348 199.021 296.682 198.828C297.068 198.597 297.105 197.742 296.704 197.482C296.393 197.274 296.021 197.126 295.657 197.029C294.855 196.813 294.469 196.301 295.167 195.736C295.828 195.201 296.281 194.755 296.229 193.855C296.133 192.153 296.311 190.474 296.742 188.816C298.851 180.73 300.217 172.502 301.487 164.252C301.94 161.294 302.459 158.336 302.898 155.37C302.987 154.776 302.497 154.382 301.962 154.367L301.94 154.36Z" fill="#402716"/>
<path d="M266.792 85.4914C268.225 85.3354 268.247 85.3577 268.678 86.7178C269.072 87.9441 269.376 89.1928 269.814 90.3968C269.918 90.6718 270.431 90.984 270.728 90.9617C271.032 90.932 271.426 90.5678 271.559 90.2556C271.864 89.5198 271.804 88.7617 271.455 87.9962C271.188 87.4239 271.002 86.7847 270.921 86.1604C270.832 85.4394 271.188 84.9043 271.968 84.8077C272.48 84.7482 273.007 84.7482 273.527 84.7333C276 84.659 278.473 84.6144 280.946 84.5029C281.428 84.4806 281.904 84.2056 282.364 84.0198C282.468 83.9827 282.602 83.7894 282.579 83.7151C282.512 83.4921 282.423 83.2171 282.253 83.0908C281.562 82.6002 280.767 82.7563 279.988 82.786C278.428 82.8529 276.869 82.9421 275.309 82.957C273.787 82.9718 272.265 82.8975 270.587 82.8529C270.483 81.2475 270.037 79.8948 269.592 78.5421C266.859 70.2253 266.584 61.9382 269.859 53.6808C270.089 53.1085 270.193 52.4841 270.349 51.8821C269.673 52.0233 269.398 51.6591 269.339 51.0274C270.319 50.9085 270.535 50.9902 270.445 51.6294C270.668 51.2058 271.054 51.1092 271.515 51.3247C273.111 52.0605 274.693 52.8335 276.275 53.599C278.918 55.5091 281.918 56.7578 284.844 58.1253C285.995 58.6605 287.258 59.151 288.609 58.9132C288.832 58.876 289.203 58.6307 289.188 58.5267C289.144 58.1774 289.003 57.5902 288.817 57.553C285.297 56.8693 282.371 54.8402 279.208 53.3612C278.629 53.0862 278.02 52.8781 277.418 52.6328C275.51 51.0125 273.252 50.024 270.958 49.1396C269.777 48.6862 269.064 48.0173 268.79 46.6794C267.973 42.7105 267.794 38.697 267.757 34.6687C267.742 33.3829 267.891 32.0748 268.663 30.9376C269.168 30.1944 269.851 29.9268 270.646 30.2836C272.205 30.9896 273.542 32.0227 274.715 33.2417C278.198 36.8612 281.651 40.5031 285.111 44.1376C287.235 44.3308 289.144 43.4612 291.089 42.8295C294.097 41.8558 297.127 41.2984 300.305 41.6328C301.24 41.7295 302.451 42.3166 303.03 40.9862C303.386 40.1612 302.406 39.5443 300.438 39.3511C299.659 39.2768 298.879 39.2842 298.099 39.2619C294.891 39.1504 291.966 40.295 289.025 41.3355C286.641 42.1754 286.693 42.1977 284.911 40.3545C282.015 37.3518 279.089 34.3863 276.156 31.4282C274.767 30.0309 273.193 28.8788 271.411 28.0316C269.851 27.2883 268.7 27.489 267.52 28.693C266.176 30.0606 265.567 31.7477 265.522 33.643C265.433 36.9058 265.552 40.1538 266.057 43.3869C266.235 44.5315 266.651 45.6686 266.205 47.0065C264.653 46.6869 263.346 45.9362 262.099 45.0072C261.869 44.8362 261.282 44.8362 261.059 45.0072C260.525 45.4234 260.836 45.9734 261.156 46.3673C262.099 47.5267 263.473 48.0693 264.802 48.545C266.213 49.0504 267.29 49.8605 268.151 51.0348C268.441 51.8524 268.054 52.5436 267.772 53.2794C267.252 54.6098 266.681 55.9328 266.339 57.3152C264.557 64.4503 264.861 71.5111 267.089 78.5198C267.549 79.9692 268.389 81.359 268.069 83.0239C266.792 83.7894 265.337 83.7968 263.933 84.0198C258.423 84.8894 253.373 86.8144 249.089 90.486C248.606 90.9022 248.19 91.4151 247.812 91.9353C247.715 92.0691 247.812 92.4556 247.945 92.6042C248.094 92.7603 248.465 92.909 248.621 92.8272C249.304 92.4705 249.995 92.0914 250.581 91.6083C255.304 87.7509 260.874 86.1529 266.792 85.4989V85.4914Z" fill="#402716"/>
<path d="M270.355 51.8743C270.355 51.8743 270.393 51.8743 270.415 51.8669C270.43 51.7777 270.445 51.6959 270.459 51.6216C270.43 51.681 270.4 51.7479 270.378 51.8223C270.378 51.8371 270.37 51.8594 270.363 51.8743H270.355Z" fill="#402716"/>
<path d="M356.614 188.779C356.548 188.266 356.458 187.753 356.303 187.255C355.04 183.123 354.29 178.923 354.023 174.598C353.718 169.663 353.132 164.735 352.151 159.867C351.632 157.317 351.312 154.724 350.971 152.137C350.176 146.184 349.174 140.282 346.731 134.745C346.389 133.98 346.337 133.259 346.374 132.478C346.5 129.617 346.181 126.741 346.745 123.894C346.835 123.426 346.783 122.772 346.055 122.734C345.416 122.705 345.156 123.307 345.097 123.738C344.904 125.15 344.8 126.584 344.74 128.004C344.651 130.211 344.941 132.441 344.399 134.626C344.042 136.053 343.693 137.421 345.609 138.112C345.958 138.238 346.144 138.959 346.292 139.435C346.612 140.424 346.849 141.442 347.124 142.445C348.245 146.481 348.491 150.665 349.144 154.783C350.102 160.833 351.394 166.838 351.743 172.963C352.018 177.794 352.59 182.565 354.053 187.203C354.246 187.805 354.246 188.474 354.335 189.113C354.654 189.292 354.951 189.515 355.285 189.611C356.132 189.849 356.718 189.463 356.622 188.764L356.614 188.779Z" fill="#402716"/>
<path d="M268.887 99.8802C268.991 98.7059 269.466 97.9329 270.357 97.3012C272.756 96.7363 274.723 95.2424 276.907 94.2316C277.271 94.0681 277.419 93.5924 277.144 93.2877C276.921 93.0424 276.394 92.7897 276.164 92.8938C274.211 93.808 272.295 94.7965 270.364 95.7627C269.986 95.6512 269.607 95.4802 269.57 95.0492C269.511 94.41 269.57 93.7559 269.496 93.1167C269.473 92.9235 269.169 92.6262 268.983 92.6188C268.634 92.6113 268.152 92.6708 267.966 92.9012C267.647 93.2803 267.327 93.8228 267.335 94.2836C267.387 96.3573 266.54 97.7471 264.557 98.4383C264.335 98.5127 264.179 98.7877 263.986 98.9586C263.748 99.1741 263.689 99.412 263.889 99.6498C264.045 99.8356 264.238 100.118 264.424 100.125C264.795 100.125 265.181 99.9917 265.553 99.8877C266.161 99.7167 266.659 99.9174 266.614 100.549C266.466 102.883 266.258 105.217 266.006 107.536C265.716 110.241 265.285 112.939 265.493 115.682C263.637 116.15 262.397 117.131 261.773 119.1C260.949 121.694 259.716 124.147 258.795 126.711C256.991 131.758 256.122 137.012 255.661 142.334C255.572 143.36 255.654 144.408 255.75 145.441C255.802 145.939 256.04 146.437 256.27 146.89C256.367 147.083 256.671 147.262 256.894 147.269C257.288 147.284 257.711 147.083 257.726 146.652C257.822 144.452 257.696 142.223 257.978 140.045C258.899 132.91 261.067 126.117 264.105 119.606C264.587 118.565 265.07 119.361 265.515 119.725C265.285 123.106 265.53 126.481 265.805 129.848C265.924 131.267 266.191 132.687 266.533 134.077C267.045 136.202 268.04 136.797 270.253 136.463C270.617 136.41 270.988 136.247 271.04 135.756C271.092 135.303 270.884 134.939 270.506 134.879C268.946 134.627 268.345 133.631 268.189 132.189C267.513 125.968 267.09 119.732 267.543 113.482C267.869 108.94 268.501 104.421 268.887 99.8877V99.8802Z" fill="#402716"/>
<path d="M277.122 172.086C277.835 177.638 280.627 182.736 280.545 188.429C280.545 188.6 280.872 188.913 281.036 188.913C281.392 188.913 281.875 188.838 282.068 188.608C282.773 187.753 282.795 186.713 282.654 185.642C282.313 183.048 281.191 180.64 280.701 178.113C279.736 173.119 278.37 168.25 276.669 163.471C275.867 161.219 275.704 158.9 275.912 155.667C275.912 155.638 276.053 154.738 276.127 153.832C276.157 153.445 276.001 153.088 275.555 152.955C274.939 152.769 274.508 153.103 274.308 153.571C274.055 154.159 273.922 154.813 273.825 155.452C273.394 158.336 273.662 161.167 274.538 163.932C275.399 166.652 276.766 169.306 277.122 172.086Z" fill="#402716"/>
<path d="M354.268 189.099L354.32 189.143C354.32 189.143 354.32 189.136 354.32 189.128C354.298 189.114 354.275 189.099 354.253 189.091C354.186 189.136 354.097 189.18 354.016 189.233C354.112 189.21 354.216 189.18 354.32 189.143C354.32 189.143 354.29 189.121 354.268 189.106V189.099Z" fill="#402716"/>
<path d="M355.16 193.758C354.402 194.435 353.823 194.621 353.712 193.379C353.6 192.101 353.637 190.8 353.667 189.515C353.667 189.418 353.845 189.321 354.023 189.225C353.793 189.284 353.563 189.321 353.259 189.262C352.137 189.054 351.759 189.351 351.736 190.228C351.707 191.521 351.751 192.822 351.714 194.115C351.699 194.479 351.58 194.896 351.358 195.171C350.882 195.765 348.343 196.219 347.659 195.817C346.872 195.356 347.043 194.465 346.895 193.729C346.709 192.844 346.568 191.952 346.36 191.068C346.256 190.622 345.848 190.548 345.447 190.562C344.949 190.577 344.771 190.956 344.771 191.335C344.771 193.008 344.823 194.687 344.86 196.36C344.734 196.345 344.526 196.375 344.481 196.3C343.197 194.048 342.098 191.64 341.89 189.098C341.437 183.576 339.677 178.381 338.422 173.052C338.125 171.781 337.635 170.517 336.647 169.611C334.746 167.857 333.818 165.604 333.053 163.211C332.058 160.09 330.469 157.228 328.88 154.374C328.508 153.705 328.078 152.999 327.231 152.798C326.993 152.746 326.704 152.761 326.481 152.851C326.065 153.021 325.991 153.43 326.043 153.824C326.08 154.069 326.214 154.307 326.347 154.53C328.545 158.105 330.335 161.851 331.627 165.857C332.021 167.076 332.555 168.429 333.454 169.269C335.711 171.387 336.476 174.055 337.041 176.909C337.271 178.054 337.753 179.146 338.058 180.283C338.667 182.528 339.313 184.765 339.276 187.21C337.887 187.523 336.61 187.723 335.392 188.11C332.771 188.95 330.885 191.544 330.81 194.294C330.803 194.702 331.085 195 331.479 195.156C331.969 195.349 332.184 195.037 332.333 194.665C332.711 193.699 332.971 192.666 333.461 191.759C334.545 189.775 336.521 189.388 338.503 189.425C340.3 189.463 339.885 191.373 340.523 192.398C340.865 192.941 341.021 193.602 340.805 194.39C339.706 194.925 338.511 195.081 337.271 194.962C337.018 193.833 336.855 192.948 336.602 192.094C336.558 191.93 336.187 191.752 335.979 191.767C335.786 191.781 335.489 192.012 335.444 192.205C335.318 192.703 335.281 193.231 335.251 193.744C335.206 194.39 335.266 195.037 334.672 195.512C334.293 195.81 333.662 196.048 333.899 196.665C334.211 197.46 334.946 197.229 335.578 197.155C336.87 196.999 338.169 196.709 339.461 196.702C341.221 196.694 343.033 196.085 344.749 196.969C344.786 197.385 344.994 197.742 345.387 197.809C346.018 197.913 346.672 197.883 347.31 197.928C350.073 198.129 352.642 197.17 355.286 196.627C355.761 196.531 356.221 196.196 356.6 195.862C357.15 195.379 357.194 194.725 356.778 194.13C356.377 193.558 355.791 193.201 355.174 193.744L355.16 193.758Z" fill="#402716"/>
<path d="M300.059 76.8623C300.357 77.2562 300.765 77.5832 301.159 77.9028C302.881 79.3224 302.985 79.9319 302.072 81.8197C301.426 83.1724 300.208 83.9528 299.25 84.9933C298.96 85.3055 298.938 85.7737 299.235 86.0264C299.48 86.242 299.978 86.3906 300.267 86.2866C301.916 85.6994 302.852 84.2129 304.188 82.7562C304.879 83.3285 305.258 83.6927 305.688 83.9751C306.223 84.3244 306.78 84.6737 307.374 84.8967C307.864 85.0825 308.421 85.0082 308.651 84.3987C308.792 84.0197 308.711 83.6406 308.362 83.3656C307.649 82.8082 306.884 82.3028 306.23 81.6859C305.569 81.0616 305.005 80.3258 304.879 79.3744C304.76 78.4677 305.532 78.0292 305.956 77.4048C306.03 77.3008 306.126 77.2042 306.186 77.0927C306.758 76.067 306.342 74.8481 305.272 74.5954C303.728 74.2312 302.183 74.3204 300.683 74.8704C299.985 75.1231 299.621 76.2602 300.067 76.8474L300.059 76.8623Z" fill="#402716"/>
<path d="M284.672 44.7468C284.88 44.6576 285.059 44.4718 285.2 44.2116C285.17 44.1819 285.148 44.1522 285.118 44.1299C285.118 44.1299 285.111 44.1299 285.103 44.1299C284.962 44.3306 284.672 44.5164 284.665 44.7468H284.672Z" fill="#402716"/>
<path d="M283.939 44.68C281.823 43.4463 279.743 42.153 277.634 40.897C276.751 40.3693 275.86 39.8638 274.939 39.4105C274.79 39.3361 274.427 39.5071 274.293 39.6706C274.159 39.8341 274.115 40.1537 274.167 40.3693C274.226 40.5997 274.397 40.8449 274.59 40.9861C277.954 43.3942 281.474 45.5348 285.157 47.4226C285.268 47.4821 285.402 47.5044 285.528 47.5192C285.922 47.5638 286.308 47.5415 286.538 47.1625C286.768 46.7908 286.679 46.4564 286.338 46.1963C285.833 45.8172 285.283 45.4827 284.823 45.0442C284.704 44.9327 284.667 44.8361 284.667 44.7469C284.444 44.8436 284.192 44.8361 283.932 44.68H283.939Z" fill="#402716"/>
<path d="M316.903 40.2493C316.695 40.1972 316.339 40.2864 316.205 40.4425C314.698 42.1222 313.91 44.1587 313.487 46.3438C313.42 46.6783 313.613 47.0945 313.777 47.429C313.873 47.6296 314.163 47.7263 314.363 47.8749C314.757 47.8452 315.143 47.7931 315.151 47.2803C315.173 45.5263 316.019 44.0621 316.762 42.5533C316.985 42.0925 317.208 41.6242 317.356 41.1411C317.475 40.7547 317.319 40.3682 316.911 40.2567L316.903 40.2493Z" fill="#402716"/>
<path d="M317.205 55.5463C318.579 54.4017 319.923 53.2273 321.252 52.0307C321.408 51.8895 321.401 51.5774 321.468 51.3395C321.416 51.228 321.393 51.0571 321.312 51.0125C321.111 50.8936 320.799 50.6855 320.658 50.7598C318.95 51.674 317.42 52.8334 316.329 54.4686C316.106 54.7956 316.113 55.2341 316.522 55.4645C316.715 55.576 317.086 55.6577 317.205 55.5537V55.5463Z" fill="#402716"/>
<path d="M282.779 88.9174C282.675 89.0363 282.735 89.4302 282.853 89.6011C282.972 89.7646 283.314 89.943 283.47 89.8836C285.029 89.3336 286.44 88.3971 288.118 88.1295C288.207 88.1147 288.237 87.691 288.311 87.364C288.044 87.1707 287.755 86.7843 287.443 86.762C285.512 86.6282 284.004 87.5052 282.772 88.9099L282.779 88.9174Z" fill="#402716"/>
<path d="M307.656 89.3704C307.166 89.9426 306.765 90.5967 306.387 91.2433C306.327 91.3399 306.587 91.6224 306.706 91.8156C306.951 91.7933 307.27 91.8528 307.434 91.719C307.924 91.3251 308.436 90.9163 308.793 90.4035C309.29 89.6899 310.129 88.6271 309.29 88.0325C308.028 87.1332 308.132 88.8204 307.656 89.3704Z" fill="#402716"/>
<path d="M324.566 148.808C324.937 148.295 325.353 147.789 325.175 147.068C325.048 146.883 324.945 146.593 324.766 146.526C324.566 146.452 324.202 146.511 324.061 146.652C323.712 147.009 323.422 147.433 323.155 147.856C322.576 148.793 322.568 149.714 323.103 149.804C323.905 149.93 324.202 149.313 324.566 148.808Z" fill="#402716"/>
<path d="M315.083 63.989C314.288 64.16 314.05 64.71 314.058 65.4235C314.058 66.3748 314.63 66.9323 315.491 66.8579C316.174 66.791 316.649 66.1816 316.553 65.4978C316.427 64.6431 315.743 63.937 315.09 63.989H315.083Z" fill="#402716"/>
<path d="M304.805 151.149C304.59 150.45 304.234 150.242 303.84 150.28C303.172 150.339 302.518 150.584 302.407 151.342C302.355 151.669 302.503 152.167 302.741 152.368C303.179 152.732 303.706 152.554 304.137 152.19C304.545 151.848 304.872 151.461 304.805 151.149Z" fill="#402716"/>
<path d="M289.397 70.7599C290.288 70.7301 290.867 70.1578 290.786 69.3626C290.704 68.597 289.969 68.0693 289.167 68.218C288.38 68.3592 287.771 69.147 287.986 69.7862C288.209 70.4477 288.684 70.7822 289.397 70.7599Z" fill="#402716"/>
<path d="M321.275 144.274C321.632 144.215 321.906 143.902 321.892 143.791C321.721 142.55 321.134 141.94 320.429 142.082C320.072 142.148 319.716 142.409 319.916 142.869C320.191 143.494 320.213 144.445 321.268 144.274H321.275Z" fill="#402716"/>
<g clip-path="url(#clip1_269_5608)">
<path d="M153.188 164.933C153.945 165.107 154.048 165.713 153.823 166.255C153.291 167.532 152.701 168.79 152.021 169.989C150.713 172.298 149.297 174.549 147.982 176.852C143.25 185.113 140.16 194.065 137.121 203.043C135.588 207.564 135.075 212.285 134.223 216.942C134.171 217.239 134.197 217.69 134.607 217.729C134.896 217.755 135.319 217.626 135.492 217.406C136.274 216.42 136.973 215.362 137.743 214.362C137.839 214.233 138.224 214.175 138.371 214.265C138.634 214.427 139.006 214.723 138.999 214.962C138.987 215.517 138.903 216.149 138.621 216.607C138.025 217.587 137.3 218.496 136.608 219.412C135.14 221.341 133.614 223.217 132.19 225.185C126.208 233.453 124.759 242.682 126.612 252.557C127.228 255.827 128.093 259.045 128.882 262.437C130.401 262.366 131.767 262.334 133.126 262.225C136.576 261.954 140.006 261.87 143.455 262.321C145.616 262.599 147.815 262.579 149.995 262.663C150.79 262.695 151.284 262.315 151.367 261.47C151.464 260.561 151.566 259.645 151.72 258.742C151.746 258.587 152.041 258.445 152.233 258.355C152.643 258.174 152.868 258.49 153.047 258.768C153.592 259.606 153.317 260.567 153.413 261.47C153.445 261.792 153.541 262.186 153.753 262.405C154.336 263.005 157.144 262.405 157.465 261.657C157.51 261.554 157.548 261.438 157.574 261.328C158.51 256.162 157.401 254.537 152.239 254.949C151.073 255.04 150.015 255.459 148.931 255.865C147.969 256.226 146.956 256.471 145.956 256.697C145.27 256.852 144.584 256.717 143.975 256.323C143.667 256.123 143.468 255.833 143.59 255.465C143.654 255.278 143.847 254.982 143.975 254.988C146.232 255.014 148.168 253.924 150.239 253.266C151.996 252.711 153.868 252.718 155.708 253.027C158.266 253.466 159.536 254.756 159.863 257.368C159.978 258.277 159.908 259.213 159.895 260.135C159.889 260.819 159.844 261.509 159.805 262.379C161.998 262.515 164.159 262.644 166.319 262.792C167.006 262.837 167.717 262.869 168.249 263.392C168.397 263.534 168.487 263.805 168.474 264.011C168.461 264.211 168.326 264.482 168.166 264.579C167.877 264.746 167.531 264.882 167.204 264.888C166.518 264.908 165.826 264.843 165.14 264.811C161.466 264.637 157.792 264.553 154.105 264.727C150.085 264.914 146.052 264.817 142.051 264.282C139.756 263.972 137.473 263.921 135.172 264.108C133.453 264.243 131.722 264.205 130.004 264.263C128.805 264.301 127.593 264.385 127.734 262.586C126.24 260.877 124.894 259 123.214 257.491C121.143 255.627 118.694 254.556 115.776 254.272C108.813 253.595 102.318 251.415 96.5158 247.345C90.9376 243.43 87.1548 238.2 84.962 231.77C83.3462 227.036 82.4935 222.134 82.1793 217.161C81.0765 199.625 85.1223 183.43 94.9577 168.815C96.3747 166.713 98.0289 164.778 99.6254 162.804C102.312 159.483 105.947 157.496 109.769 155.865C112.115 154.865 114.571 154.413 117.181 154.923C119.97 155.471 122.06 156.909 123.458 159.347C125.612 163.101 125.33 166.861 123.316 170.57C122.81 171.505 121.976 172.143 121.098 172.711C119.732 173.588 118.277 174.259 116.706 174.672C115.738 174.93 114.635 175.013 114.411 176.374C114.372 176.606 113.904 176.852 113.59 176.942C111.583 177.522 110.243 179.012 109.134 180.599C104.396 187.351 100.504 194.51 98.9266 202.759C98.1956 206.584 98.4649 210.363 99.0291 214.143C99.3369 216.2 99.8242 218.226 100.247 220.264C101.286 225.21 103.96 229.177 107.666 232.479C108.781 233.472 110.038 234.304 111.198 235.252C112.942 236.665 114.885 237.542 117.123 237.832C118.367 237.993 119.598 238.335 120.803 238.703C121.233 238.832 121.47 239.374 121.246 239.838C121.117 240.109 120.726 240.483 120.515 240.451C117.687 240.006 114.699 240.019 112.212 238.432C108.217 235.891 104.447 233.04 101.786 228.977C100.132 226.442 98.7727 223.798 98.2341 220.767C97.8302 218.49 97.2916 216.239 96.8812 213.969C95.6566 207.287 96.5735 200.831 99.0612 194.581C100.517 190.931 102.273 187.416 104.3 184.049C106.095 181.076 107.999 178.187 110.852 176.084C111.198 175.826 111.692 175.394 111.679 175.065C111.59 172.924 112.987 173.085 114.436 173.008C115.815 172.93 117.123 172.427 118.38 171.827C121.925 170.144 123.682 166.493 122.592 162.617C121.553 158.941 119.098 156.561 114.327 156.838C111.397 157.006 108.736 158.128 106.403 159.941C105.505 160.637 104.71 161.36 103.594 161.837C102.511 162.301 101.677 163.456 100.863 164.417C95.9708 170.189 92.1302 176.606 89.3988 183.669C84.2823 196.897 82.6345 210.499 85.2569 224.527C85.5967 226.339 86.0327 228.145 86.5585 229.912C89.277 239.032 95.1821 245.269 103.793 249.035C107.512 250.66 111.391 251.808 115.411 252.112C118.405 252.337 121.008 253.253 123.406 254.956C123.778 255.22 124.156 255.465 124.676 255.343C125.157 254.446 124.721 253.556 124.548 252.686C122.669 242.953 124.06 233.808 129.472 225.43C130.696 223.534 131.382 221.515 131.716 219.309C132.094 216.794 132.569 214.291 132.94 211.776C133.825 205.791 135.774 200.115 137.845 194.472C140.961 185.991 144.552 177.754 149.502 170.163C150.316 168.912 150.944 167.532 151.637 166.203C151.9 165.694 152.066 165.12 152.708 164.946L152.945 164.958L153.182 164.939L153.188 164.933Z" fill="#402716"/>
<path d="M216.447 107.19C215.703 108.525 215.555 109.911 215.536 111.466C215.511 113.833 216.293 115.684 217.812 117.348C218.12 117.683 218.389 118.064 218.601 118.463C218.883 119.005 218.421 119.824 217.691 120.089C217.216 120.263 216.684 120.16 216.568 119.65C216.075 117.522 214.094 116.335 213.356 114.374C213.068 113.284 211.715 113.265 211.292 112.304C211.875 111.272 211.189 109.711 212.702 109.002C212.92 108.899 212.843 107.912 212.721 107.377C211.741 103.101 210.516 98.9019 208.74 94.8774C206.829 90.5432 204.258 86.5961 201.905 82.6619C200.95 82.6167 200.777 83.2294 200.546 83.726C199.372 86.2285 198.186 88.7245 197.071 91.2527C195.705 94.342 195.179 97.6507 194.756 100.979C194.673 101.643 194.718 102.404 193.807 102.578H193.846C192.916 102.436 192.877 101.688 192.909 101.024C193.038 98.4827 193.384 95.9738 194.108 93.5294C195.391 89.2017 197.391 85.1772 199.507 81.2236C200.334 79.6757 201.546 79.5596 202.867 80.7657C203.117 80.9914 203.354 81.2623 203.527 81.5461C206.906 87.0282 210.484 92.4072 212.459 98.631C213.19 100.934 213.811 103.268 214.51 105.584C214.741 106.358 215.28 106.254 215.838 105.951C216.043 106.364 216.248 106.777 216.459 107.19H216.447Z" fill="#402716"/>
<path d="M153.188 164.933L152.951 164.952L152.714 164.939C153.412 164.352 152.81 163.649 152.88 163.004C152.957 162.295 153.836 162.037 153.797 161.231C153.714 159.631 155.067 158.857 155.894 157.799C156.272 157.316 157.458 157.735 157.304 156.696C157.202 155.974 156.432 155.684 155.894 155.278C152.348 152.595 150.745 148.88 150.232 144.578C150.136 143.772 150.078 142.94 150.495 142.211C150.643 141.953 151.008 141.675 151.277 141.669C151.54 141.669 151.906 141.946 152.04 142.198C152.188 142.475 152.124 142.869 152.156 143.217C152.406 145.79 152.399 145.739 154.958 145.532C161.728 144.99 168.448 144.152 174.949 142.056C175.385 141.914 175.847 141.772 176.289 141.779C176.571 141.779 176.93 142.004 177.116 142.243C177.43 142.636 177.052 142.888 176.751 142.978C171.243 144.61 165.748 146.287 159.946 146.571C157.997 146.667 156.06 146.964 154.124 147.209C153.303 147.312 153.028 147.925 153.38 148.731C154.233 150.673 155.483 152.272 157.182 153.575C158.914 154.903 160.568 156.342 162.216 157.78C162.818 158.309 163.363 158.967 163.37 159.837C163.37 160.134 163.184 160.56 162.947 160.702C162.722 160.837 162.209 160.818 162.017 160.644C160.818 159.573 159.882 158.225 158.484 157.361C157.868 156.98 157.311 157.122 157.291 157.812C157.266 158.793 156.99 159.605 156.33 160.321C156.022 160.656 155.522 161.121 155.58 161.43C155.958 163.436 154.31 163.785 153.201 164.597C153.143 164.642 153.182 164.816 153.175 164.933H153.188Z" fill="#402716"/>
<path d="M166.627 106.022C166.576 106.183 166.55 106.428 166.435 106.609C166.32 106.783 166.127 106.938 165.935 107.015C165.582 107.157 165.249 107.002 165.063 106.699C164.89 106.415 164.729 106.074 164.71 105.751C164.569 103.423 163.8 101.23 163.274 98.9855C162.466 95.5543 160.517 92.6585 158.574 89.8013C157.895 88.7952 157.08 88.9113 156.42 89.9496C155.048 92.1103 154.221 94.5159 153.31 96.8894C152.688 98.5082 152.118 100.14 151.444 101.733C151.278 102.126 150.823 102.423 150.297 102.165C149.809 101.927 149.662 101.443 149.81 101.011C151.175 97.0893 152.304 93.0648 154.317 89.4079C156.349 85.7123 158.356 85.938 160.562 88.9371C164.12 93.7678 166.063 99.2886 166.653 105.28C166.672 105.506 166.64 105.738 166.627 106.028V106.022Z" fill="#402716"/>
<path d="M225.165 199.547C225.108 200.16 225.088 200.618 225.024 201.076C224.954 201.573 224.691 201.979 224.178 202.011C223.479 202.056 223.158 201.553 223.107 200.941C222.812 197.49 222.645 194.027 222.242 190.595C221.459 183.83 220.555 177.084 219.69 170.331C219.497 168.835 219.343 167.345 219.715 165.861C219.805 165.5 220.145 165.326 220.498 165.365C220.696 165.39 220.966 165.558 221.036 165.732C221.241 166.261 221.44 166.809 221.498 167.37C222.575 177.116 224.184 186.803 224.96 196.587C225.043 197.625 225.101 198.657 225.165 199.547Z" fill="#402716"/>
<path d="M223.678 133.162C223.537 135.045 223.133 136.851 222.582 138.612C222.421 139.134 222.017 139.592 221.665 140.03C221.562 140.153 221.229 140.166 221.036 140.108C220.844 140.05 220.645 139.863 220.549 139.682C220.453 139.495 220.414 139.231 220.459 139.024C220.568 138.457 220.735 137.902 220.863 137.341C222.049 132.272 221.71 132.543 217.337 133.142C211.195 133.994 205.071 134.922 199.141 136.838C198.705 136.98 198.23 137.089 197.826 136.786C197.704 136.696 197.634 136.374 197.698 136.238C197.974 135.671 198.557 135.548 199.102 135.367C202.045 134.368 205.059 133.633 208.104 133.097C211.945 132.433 215.811 131.917 219.671 131.343C221.12 131.124 221.299 130.788 221.197 129.266C221.081 127.576 220.177 126.228 219.543 124.758C219.325 124.261 219.607 123.816 220.062 123.649C220.331 123.545 220.786 123.597 221.004 123.771C222.248 124.751 222.793 126.19 223.063 127.66C223.402 129.466 223.486 131.324 223.678 133.155V133.162Z" fill="#402716"/>
<path d="M210.091 210.344C210.367 209.57 210.701 208.338 211.239 207.203C212.983 203.546 214.118 199.702 214.971 195.742C215.381 193.84 216.029 191.976 216.657 190.131C216.779 189.776 217.266 189.435 217.792 189.673C218.286 189.892 218.439 190.331 218.318 190.802C217.343 194.71 216.401 198.625 215.317 202.501C214.855 204.152 214.214 205.784 213.438 207.313C212.913 208.345 212.342 209.312 212.137 210.473C212.079 210.802 211.893 211.124 211.694 211.395C211.419 211.769 211.04 212.073 210.527 211.905C209.976 211.724 209.982 211.26 210.091 210.344Z" fill="#402716"/>
<path d="M150.521 121.688C150.361 121.282 150.079 120.875 150.073 120.463C150.053 119.076 149.329 118.16 148.277 117.418C148.303 116.967 148.329 116.522 148.348 116.07C149.194 116.09 149.63 115.722 149.489 114.826C149.13 112.53 149.149 110.214 149.271 107.905C149.322 106.983 149.348 106.048 149.842 105.222C150.079 104.829 150.374 104.461 150.906 104.519C151.496 104.577 151.605 105.029 151.592 105.506C151.586 105.964 151.515 106.422 151.47 106.886C151.137 110.124 151.272 113.342 151.624 116.58C151.752 117.747 152.208 118.483 153.131 119.095C153.798 119.534 154.388 120.095 155.01 120.604C154.689 120.843 154.362 121.075 154.041 121.314C153.939 121.275 153.83 121.249 153.727 121.204C152.855 120.809 152.067 120.991 151.361 121.753C151.079 121.74 150.804 121.72 150.521 121.707V121.688Z" fill="#402716"/>
<path d="M193.832 102.572H193.793C193.575 103.036 193.607 103.501 194.075 103.739C194.671 104.042 195.364 104.178 195.954 104.487C196.383 104.713 196.544 105.235 196.371 105.68C196.274 105.938 195.909 106.151 195.62 106.261C195.313 106.377 194.947 106.338 194.607 106.371C194.421 107.132 194.966 107.66 195.178 108.286C195.486 109.202 195.434 110.079 195.024 110.04C194.306 109.976 194.191 109.357 193.928 108.867C193.767 108.563 193.601 108.26 193.46 107.944C192.735 106.332 191.568 105.532 189.747 105.397C187.824 105.248 185.92 104.797 184.009 104.449C183.675 104.391 183.419 104.145 183.393 103.752C183.355 103.172 183.727 102.843 184.182 102.849C185.317 102.849 186.452 102.959 187.587 103.062C189.292 103.223 190.991 103.455 192.697 103.597C193.331 103.649 193.723 103.223 193.825 102.578L193.832 102.572Z" fill="#402716"/>
<path d="M186.343 138.651C185.259 138.464 183.72 138.702 183.701 137.116C183.688 135.735 185.137 135.432 186.208 135.123C187.298 134.8 188.459 134.671 189.6 134.562C190.446 134.478 191.222 134.787 191.594 135.632C191.889 136.316 191.703 136.993 191.267 137.586C190.921 138.064 190.485 138.431 189.908 138.593C189.254 138.573 188.587 138.522 188.164 139.186C187.927 139.186 187.689 139.173 187.446 139.167C187.176 138.786 186.805 138.618 186.343 138.657V138.651Z" fill="#402716"/>
<path d="M188.158 139.179C188.581 138.515 189.248 138.566 189.902 138.586C190.178 139.566 190.453 140.546 190.742 141.527C190.87 141.978 191.094 142.365 191.55 142.572C192.075 142.817 192.685 143.12 192.415 143.803C192.12 144.552 191.274 144.771 190.684 144.442C189.421 143.739 188.632 144.184 187.857 145.171C187.671 145.409 187.28 145.551 186.959 145.609C186.504 145.687 185.997 145.583 185.818 145.1C185.715 144.829 185.747 144.3 185.927 144.165C187.299 143.126 187.709 141.553 188.337 140.088C188.498 139.714 188.376 139.456 188.164 139.179H188.158Z" fill="#402716"/>
<path d="M178.764 147.667C178.649 147.854 178.578 148.131 178.418 148.215C174.616 150.06 170.814 151.891 166.986 153.691C166.768 153.794 166.39 153.543 166.082 153.452C166.191 153.143 166.21 152.723 166.422 152.536C166.851 152.169 167.364 151.891 167.877 151.653C170.878 150.247 173.885 148.86 176.892 147.467C177.405 147.228 177.905 146.951 178.508 147.145C178.796 147.235 178.88 147.409 178.764 147.673V147.667Z" fill="#402716"/>
<path d="M205.327 104.5C205.212 104.777 205.103 105.106 204.955 105.409C203.493 108.395 201.942 111.33 200.839 114.484C200.698 114.884 200.32 115.219 199.993 115.522C199.89 115.613 199.518 115.567 199.409 115.451C199.095 115.116 199.134 115.658 199.178 115.2C199.191 115.084 199.166 114.961 199.204 114.858C200.499 111.175 202.083 107.621 203.961 104.203C204.019 104.1 204.07 103.99 204.16 103.926C204.449 103.707 204.789 103.642 205.077 103.874C205.218 103.99 205.244 104.261 205.34 104.513L205.327 104.5Z" fill="#402716"/>
<path d="M154.035 121.301C154.356 121.063 154.683 120.83 155.003 120.592C155.914 121.269 156.85 121.927 157.741 122.636C159.453 123.991 161.152 125.345 163.069 126.403C163.774 126.79 164.467 127.228 164.781 128.028C164.832 128.164 164.653 128.415 164.537 128.589C164.486 128.667 164.339 128.692 164.236 128.705C164.127 128.718 163.992 128.738 163.909 128.686C160.44 126.461 156.92 124.313 154.035 121.301Z" fill="#402716"/>
<path d="M205.54 140.431C203.719 140.514 201.904 140.611 200.083 140.663C199.942 140.663 199.718 140.379 199.679 140.192C199.647 140.044 199.795 139.708 199.916 139.682C203.603 138.889 207.322 138.56 211.086 138.96C211.368 138.992 211.451 139.16 211.496 139.431C211.56 139.863 211.297 140.134 210.996 140.153C209.181 140.256 207.354 140.302 205.54 140.36C205.54 140.385 205.54 140.411 205.54 140.431Z" fill="#402716"/>
<path d="M175.475 104.539C175.379 104.745 175.34 105.035 175.187 105.132C173.045 106.467 171.468 108.447 169.57 110.066C169.237 110.35 168.813 110.595 168.397 110.698C168.127 110.769 167.743 110.621 167.486 110.446C167.166 110.227 167.178 109.769 167.409 109.55C169.288 107.75 170.839 105.596 173.084 104.197C173.545 103.907 174.116 103.771 174.648 103.623C174.975 103.532 175.571 104.229 175.475 104.532V104.539Z" fill="#402716"/>
<path d="M157.811 116.27C157.978 116.051 158.068 115.793 158.221 115.748C158.414 115.69 158.709 115.735 158.863 115.857C161.652 118.05 164.255 120.449 166.775 122.939C166.852 123.016 166.954 123.126 166.954 123.223C166.961 123.429 166.98 123.694 166.864 123.823C166.743 123.971 166.448 124.1 166.281 124.055C165.967 123.965 165.646 123.784 165.402 123.565C163.03 121.417 160.664 119.256 158.311 117.076C158.08 116.864 157.965 116.522 157.805 116.257L157.811 116.27Z" fill="#402716"/>
<path d="M148.348 116.071C148.322 116.522 148.297 116.967 148.277 117.419C145.507 116.083 142.994 114.342 140.519 112.536C140.167 112.278 139.872 111.911 139.615 111.543C139.513 111.395 139.525 111.079 139.615 110.917C139.705 110.769 139.961 110.646 140.154 110.646C140.365 110.646 140.603 110.743 140.789 110.866C143.315 112.594 145.834 114.336 148.354 116.071H148.348Z" fill="#402716"/>
<path d="M211.285 112.304C211.702 113.265 213.055 113.285 213.35 114.375C212.696 113.826 212.08 113.484 211.291 114.246C209.644 115.832 207.951 117.374 206.252 118.902C206.021 119.115 205.662 119.225 205.348 119.276C205.239 119.296 204.982 119.012 204.957 118.844C204.854 118.186 205.361 117.78 205.752 117.412C207.573 115.684 209.439 114.007 211.291 112.304H211.285Z" fill="#402716"/>
<path d="M216.446 107.19C216.241 106.777 216.036 106.364 215.824 105.951C217.03 103.733 218.235 101.514 219.447 99.3018C219.556 99.1083 219.703 98.9083 219.883 98.7923C220.062 98.6762 220.332 98.5794 220.511 98.6375C220.665 98.6891 220.832 98.9599 220.838 99.147C220.851 99.4824 220.838 99.8629 220.691 100.147C219.396 102.572 218.229 105.074 216.433 107.19H216.446Z" fill="#402716"/>
<path d="M150.521 121.688C150.803 121.701 151.079 121.72 151.361 121.733C151.566 122.875 151.643 123.952 150.996 125.048C150.367 126.125 149.899 127.319 149.88 128.628C149.873 129.195 149.386 129.382 148.918 129.363C148.277 129.331 147.828 128.905 147.809 128.28C147.79 127.725 147.892 127.119 148.117 126.616C148.873 124.952 149.707 123.326 150.515 121.682L150.521 121.688Z" fill="#402716"/>
<path d="M168.39 139.56C169.14 139.689 170.384 139.882 171.615 140.134C171.775 140.166 171.961 140.456 171.993 140.643C172.045 141.011 171.827 141.334 171.442 141.301C169.397 141.127 167.319 141.166 165.338 140.527C165.139 140.463 164.992 140.244 164.825 140.095C165.05 139.876 165.268 139.489 165.505 139.476C166.3 139.424 167.101 139.508 168.396 139.566L168.39 139.56Z" fill="#402716"/>
<path d="M216.932 152.227C216.9 151.015 216.823 149.847 215.554 149.17C215.278 149.022 215.265 148.519 215.522 148.261C215.733 148.048 216.099 147.835 216.362 147.874C217.131 147.996 217.881 148.235 218.638 148.441C219.895 148.783 220.17 149.383 219.164 150.208C218.272 150.937 218.772 151.582 218.772 152.292C218.157 152.266 217.548 152.247 216.932 152.221V152.227Z" fill="#402716"/>
<path d="M201.577 128.512C200.827 128.447 200 127.589 200.038 126.931C200.109 125.751 201.282 124.764 202.359 124.964C203.135 125.106 203.764 125.938 203.687 126.706C203.578 127.718 202.545 128.602 201.577 128.518V128.512Z" fill="#402716"/>
<path d="M213.605 126.706C213.534 126.919 213.528 127.202 213.387 127.325C211.746 128.731 209.841 129.686 207.822 130.395C207.674 130.447 207.328 130.292 207.27 130.15C207.136 129.84 207.213 129.466 207.533 129.286C209.296 128.286 211.066 127.306 212.836 126.325C212.925 126.274 213.092 126.235 213.163 126.28C213.329 126.39 213.464 126.558 213.611 126.699L213.605 126.706Z" fill="#402716"/>
<path d="M217.599 157.696C217.715 158.07 217.542 158.38 217.266 158.58C216.426 159.18 215.58 159.767 214.701 160.295C214.297 160.541 213.785 160.56 213.541 160.05C213.413 159.779 213.368 159.322 213.509 159.089C214.201 157.967 215.253 157.303 216.529 157.051C216.984 156.961 217.414 157.167 217.599 157.69V157.696Z" fill="#402716"/>
<path d="M203.04 164.249C202.668 164.21 202.424 164.243 202.232 164.152C201.937 164.017 201.629 163.823 201.693 163.411C201.725 163.198 201.776 162.914 201.918 162.811C203.206 161.869 204.63 161.876 206.059 162.379C206.284 162.456 206.521 162.927 206.489 163.178C206.451 163.449 206.13 163.843 205.88 163.888C204.899 164.075 203.892 164.146 203.04 164.243V164.249Z" fill="#402716"/>
<path d="M170.359 134.161C170.25 134.948 169.41 135.632 168.698 135.509C167.807 135.355 167.166 134.361 167.378 133.478C167.538 132.813 168.23 132.246 168.827 132.285C169.705 132.343 170.481 133.291 170.359 134.161Z" fill="#402716"/>
<path d="M218.574 153.014C218.767 153.427 218.991 153.826 219.145 154.252C219.318 154.742 219.145 155.123 218.677 155.381C218.145 155.671 217.574 155.697 217.023 155.536C216.484 155.374 215.92 155.136 215.83 154.471C215.734 153.723 216.298 153.543 216.856 153.356C217.061 153.291 217.221 153.104 217.407 152.975C217.792 152.988 218.183 153.001 218.568 153.014H218.574Z" fill="#402716"/>
<path d="M170.775 121.739C170.679 122.12 170.609 122.455 170.506 122.771C170.48 122.849 170.352 122.9 170.263 122.952C170.019 123.094 169.775 123.062 169.673 122.804C169.198 121.63 169.038 120.417 169.307 119.173C169.346 119.005 169.621 118.811 169.814 118.786C169.961 118.766 170.256 118.953 170.288 119.095C170.487 119.979 170.628 120.882 170.782 121.739H170.775Z" fill="#402716"/>
<path d="M219.588 144.274C219.607 144.049 219.569 143.791 219.665 143.61C219.832 143.294 220.139 143.152 220.505 143.268C220.838 143.378 221.165 143.623 221.076 143.984C220.845 144.887 219.953 145.558 220.3 146.706C220.428 147.138 219.8 147.415 219.332 147.422C218.863 147.435 218.46 147.235 218.286 146.745C218.081 146.183 218.447 145.848 218.851 145.667C219.505 145.377 220.139 145.164 219.594 144.268L219.588 144.274Z" fill="#402716"/>
<path d="M151.073 135.742C150.996 136.09 150.925 136.774 150.682 137.393C150.534 137.78 150.143 138.128 149.63 138.044C149.098 137.96 148.867 137.528 148.905 137.064C148.963 136.393 149.104 135.729 149.284 135.077C149.457 134.426 150.13 134.039 150.534 134.284C150.938 134.529 151.092 134.858 151.073 135.742Z" fill="#402716"/>
<path d="M208.802 160.012C208.706 161.082 207.667 161.83 206.674 161.514C206.501 161.463 206.308 161.237 206.263 161.057C206.116 160.412 206.52 159.986 206.975 159.657C207.43 159.328 207.962 159.096 208.507 159.444C208.661 159.541 208.706 159.818 208.796 160.012H208.802Z" fill="#402716"/>
<path d="M179.874 103.771C179.56 104.803 178.059 105.197 177.367 104.481C177.239 104.352 177.155 104.049 177.213 103.881C177.482 103.049 178.604 102.591 179.399 103.023C179.643 103.152 179.739 103.545 179.874 103.771Z" fill="#402716"/>
<path d="M201.648 105.384C201.411 105.887 201.174 106.383 200.5 106.364C199.981 106.351 199.648 105.777 199.801 105.139C199.949 104.513 200.327 104.21 200.988 104.384C201.488 104.52 201.609 104.932 201.648 105.384Z" fill="#402716"/>
<path d="M218.574 153.014C218.189 153.001 217.798 152.988 217.413 152.975C217.253 152.73 217.093 152.478 216.933 152.233C217.542 152.259 218.157 152.279 218.773 152.304C218.709 152.543 218.645 152.782 218.58 153.02L218.574 153.014Z" fill="#402716"/>
<path d="M186.343 138.651C186.804 138.619 187.17 138.786 187.446 139.16C186.958 139.251 186.606 139.051 186.343 138.651Z" fill="#402716"/>
<g clip-path="url(#clip2_269_5608)">
<path d="M111.551 109.29C111.115 109.172 110.811 108.776 110.811 108.324V108.316C110.811 108.104 110.879 107.899 111.001 107.73C112.069 105.942 113.556 104.86 114.98 103.961C115.299 103.76 115.61 103.57 115.913 103.385C116.688 102.912 117.408 102.472 118.068 101.959C117.349 101.423 116.563 100.952 115.721 100.447C115.515 100.324 115.306 100.199 115.094 100.07C113.685 99.2148 112.182 98.2309 110.938 96.7355C110.706 96.4579 110.643 96.0773 110.772 95.7398C110.9 95.4023 111.201 95.1603 111.558 95.1067C111.754 95.0773 111.902 95.042 112.074 95.0011C112.17 94.9783 112.273 94.9537 112.395 94.9275C112.663 94.8703 113.111 94.7842 113.576 94.9249L113.579 94.926C115.224 95.4314 116.845 96.0219 118.431 96.6229L118.434 96.6242C118.727 96.7364 119.02 96.8677 119.319 97.0109C119.066 96.2313 118.802 95.4358 118.537 94.6361C118.136 93.4291 117.732 92.2123 117.359 91.0255L111.551 109.29ZM111.551 109.29C111.668 109.322 111.788 109.331 111.904 109.32M111.551 109.29L111.904 109.32M111.904 109.32C113.93 109.388 115.675 108.924 117.283 108.304C118.1 107.989 118.892 107.63 119.66 107.28L119.714 107.256C119.93 107.157 120.144 107.06 120.357 106.964C120.099 107.979 119.832 109.002 119.565 110.028C119.162 111.571 118.757 113.122 118.378 114.661L118.377 114.664C118.04 116.049 117.87 117.637 118.619 119.233C118.845 119.715 119.409 119.936 119.902 119.735C119.973 119.706 120.042 119.678 120.109 119.65C120.343 119.555 120.549 119.472 120.719 119.397C120.938 119.3 121.164 119.188 121.37 119.035C121.822 118.699 122.03 118.264 122.226 117.854L122.234 117.838L122.235 117.835C122.904 116.427 123.517 114.989 124.107 113.565L111.904 109.32ZM134.723 111.148C134.723 111.148 134.723 111.148 134.722 111.147L135.16 110.248L134.724 111.148C134.724 111.148 134.724 111.148 134.723 111.148ZM134.723 111.148C134.756 111.164 134.792 111.181 134.83 111.2C135.167 111.367 135.703 111.634 136.26 111.716C136.599 111.767 136.985 111.76 137.382 111.62C137.781 111.479 138.129 111.226 138.422 110.88C138.999 110.206 138.94 109.384 138.662 108.742C138.396 108.125 137.891 107.546 137.291 107.041L137.278 107.029C137.142 106.912 136.945 106.743 136.714 106.599C134.814 105.362 132.912 104.123 131.002 102.885L134.723 111.148ZM130.41 102.509C131.012 102.203 131.568 101.914 132.1 101.604C133.316 100.903 134.5 100.157 135.67 99.4199C135.76 99.3635 135.849 99.3072 135.939 99.2509L135.94 99.2502C136.437 98.9362 136.902 98.5009 137.151 97.8713C137.401 97.239 137.378 96.5525 137.174 95.8449C137.027 95.3315 136.501 95.0248 135.982 95.1485C134.284 95.5527 132.619 95.9465 130.896 96.3538C130.356 96.4816 129.809 96.6108 129.255 96.742C129.352 96.1646 129.439 95.6417 129.523 95.1163L129.523 95.1157C129.601 94.6289 129.684 94.1353 129.768 93.6368C129.98 92.3723 130.198 91.0773 130.345 89.7868C130.399 89.3127 130.324 88.8644 130.246 88.4984C130.21 88.328 130.176 88.1851 130.144 88.05C130.097 87.8477 130.053 87.6631 130.012 87.4302C129.96 87.1376 129.781 86.8831 129.523 86.7358C129.265 86.5884 128.955 86.5633 128.677 86.6673C126.86 87.3466 126.283 88.6788 125.914 89.6652L125.913 89.6693C125.428 90.9818 124.989 92.3468 124.558 93.6877C124.346 94.3482 124.135 95.0029 123.922 95.6427C123.61 95.0669 123.325 94.477 123.03 93.8688C122.792 93.3767 122.547 92.8725 122.279 92.3541C121.445 90.7447 120.424 89.1179 118.718 87.8736C118.427 87.6608 118.043 87.6218 117.714 87.7715C117.386 87.9213 117.163 88.2365 117.133 88.5963C117.063 89.4064 117.108 90.2275 117.359 91.0251L130.41 102.509ZM130.41 102.509C130.617 102.638 130.811 102.761 131.002 102.885L130.41 102.509Z" stroke="#402716" stroke-width="2" stroke-linejoin="round"/>
</g>
</g>
<g clip-path="url(#clip3_269_5608)">
<path d="M218.612 46.9479C218.176 46.8298 217.874 46.4342 217.874 45.9826V45.9738C217.874 45.7606 217.942 45.5547 218.065 45.3848C219.167 43.5502 220.7 42.4392 222.172 41.5145C222.501 41.3079 222.822 41.1128 223.135 40.9227C223.948 40.4287 224.705 39.9686 225.398 39.4295C224.644 38.8678 223.82 38.3761 222.937 37.8493C222.725 37.7225 222.509 37.5936 222.289 37.4612C220.832 36.5815 219.282 35.5711 217.998 34.0359C217.766 33.7585 217.701 33.3773 217.83 33.0392C217.958 32.701 218.259 32.4586 218.617 32.4052C218.822 32.3747 218.977 32.3378 219.156 32.2954C219.255 32.272 219.361 32.2469 219.486 32.2203C219.762 32.1614 220.218 32.075 220.687 32.2168L220.691 32.2179C222.392 32.7378 224.067 33.3453 225.708 33.9639L225.711 33.9652C226.037 34.0894 226.362 34.2361 226.695 34.3965C226.427 33.5717 226.146 32.7298 225.864 31.8833C225.45 30.6412 225.032 29.3892 224.646 28.167M218.612 46.9479L225.6 27.8659M218.612 46.9479C218.731 46.9799 218.851 46.9894 218.968 46.9783M218.612 46.9479L218.968 46.9783M224.646 28.167L225.6 27.8659M224.646 28.167C224.646 28.1672 224.646 28.1673 224.646 28.1674L225.6 27.8659M224.646 28.167C224.388 27.35 224.341 26.5081 224.413 25.6764C224.444 25.3171 224.666 25.0023 224.994 24.8525C225.321 24.7026 225.705 24.7409 225.997 24.9528C227.755 26.2292 228.809 27.8987 229.671 29.5544C229.948 30.0865 230.2 30.6047 230.446 31.111C230.764 31.7629 231.071 32.395 231.41 33.0116M225.6 27.8659C225.517 27.6031 225.459 27.3334 225.425 27.0572C225.234 26.8875 225.034 26.7254 224.822 26.5713L225.409 25.762L226.405 25.8476C226.383 26.1073 226.377 26.354 226.388 26.5888C227.805 27.9742 228.651 29.7116 229.512 31.4781C229.924 32.3244 230.339 33.1774 230.823 34.0015C230.899 33.9141 230.971 33.8355 231.03 33.7715C231.066 33.7322 231.097 33.6984 231.12 33.6716C231.196 33.5867 231.224 33.5457 231.232 33.5343C231.292 33.3612 231.351 33.187 231.41 33.0116M231.41 33.0116C231.639 32.3283 231.865 31.6283 232.094 30.9221C232.539 29.5423 232.993 28.1384 233.494 26.7876L233.496 26.7835C233.877 25.7688 234.47 24.4093 236.334 23.7156C236.612 23.6122 236.922 23.6375 237.179 23.7848C237.437 23.9321 237.616 24.1861 237.667 24.4782C237.71 24.7185 237.756 24.9097 237.805 25.1186C237.838 25.2576 237.873 25.4044 237.91 25.5787C237.991 25.9548 238.068 26.4131 238.012 26.897C237.86 28.2248 237.635 29.5569 237.415 30.8584C237.328 31.3716 237.242 31.8801 237.162 32.3816L237.162 32.3822C237.073 32.9364 236.981 33.4879 236.877 34.0999C237.468 33.9607 238.05 33.8238 238.626 33.6883C240.408 33.269 242.13 32.8637 243.886 32.4476C244.405 32.3247 244.93 32.6306 245.078 33.143C245.287 33.8679 245.31 34.5687 245.054 35.2129C244.799 35.8539 244.324 36.2973 243.814 36.6179L243.813 36.6186C243.72 36.6764 243.628 36.7344 243.535 36.7924C242.325 37.551 241.1 38.3185 239.842 39.0404C239.28 39.3668 238.691 39.6707 238.051 39.994C238.28 40.1359 238.495 40.2706 238.704 40.4063C240.681 41.6813 242.649 42.9562 244.615 44.2305C244.851 44.3767 245.053 44.5497 245.194 44.6705L245.208 44.6823C245.826 45.2001 246.344 45.7927 246.618 46.4227C246.903 47.078 246.962 47.9134 246.374 48.5964C246.074 48.9489 245.719 49.2052 245.313 49.3476C244.909 49.4892 244.517 49.4967 244.171 49.4455C243.601 49.3611 243.052 49.0901 242.703 48.9178C242.663 48.8983 242.626 48.8801 242.592 48.8636C241.459 48.3168 240.334 47.6959 239.236 47.0898C238.671 46.7781 238.113 46.4704 237.565 46.1787L237.564 46.1781C237.459 46.1217 237.353 46.0677 237.246 46.0143C237.435 46.5409 237.631 47.0666 237.828 47.5977C237.846 47.6459 237.864 47.6942 237.882 47.7425C238.158 48.4836 238.436 49.2353 238.699 49.9958L238.7 49.9975C238.913 50.6169 239.068 51.2842 239.131 51.9623C239.169 52.3611 239.028 52.7526 238.934 52.9643C238.877 53.0908 238.801 53.2346 238.703 53.3652C238.656 53.4289 238.582 53.5182 238.48 53.6023C238.398 53.6705 238.182 53.8331 237.859 53.8554C237.836 53.857 237.813 53.8578 237.79 53.8578C237.532 53.8578 237.218 53.8202 236.924 53.732C236.693 53.6625 236.208 53.4865 235.93 53.0284C235.228 51.9063 234.563 50.7489 233.907 49.6089C233.639 49.1421 233.372 48.6782 233.105 48.2208L233.105 48.2199C233.048 48.1229 232.991 48.0261 232.933 47.927C232.918 47.9641 232.904 48.0011 232.889 48.038C232.424 49.2283 232.002 50.3075 231.56 51.3676C230.95 52.8338 230.316 54.3133 229.625 55.7623L229.624 55.7646L229.617 55.7789C229.413 56.2027 229.201 56.6446 228.74 56.9859C228.529 57.1414 228.299 57.2548 228.072 57.3545C227.898 57.4314 227.685 57.5173 227.443 57.6151C227.374 57.643 227.302 57.6719 227.228 57.7018C226.736 57.9014 226.174 57.6817 225.948 57.2014C225.177 55.5661 225.352 53.9385 225.699 52.5149L225.7 52.5116C226.093 50.927 226.511 49.3314 226.928 47.7425C227.21 46.6657 227.492 45.592 227.764 44.5269C227.521 44.6352 227.278 44.7453 227.033 44.8564L226.977 44.8818C226.183 45.2416 225.364 45.6112 224.52 45.9348C222.858 46.5723 221.058 47.0482 218.968 46.9783M231.41 33.0116C231.549 33.2659 231.694 33.5176 231.847 33.7669C231.915 33.8783 231.985 33.9893 232.057 34.0998C232.106 34.0275 232.145 33.955 232.172 33.8784C232.479 32.9848 232.769 32.0871 233.058 31.1896C233.497 29.8324 233.935 28.4759 234.432 27.1353C234.696 26.4325 235.016 25.6954 235.76 25.1434C235.738 25.0369 235.716 24.9303 235.698 24.8275L236.683 24.6528L237.032 25.5901C236.986 25.6068 236.943 25.6241 236.9 25.6419C236.993 26.0484 237.06 26.4229 237.019 26.7832C236.87 28.0828 236.652 29.3734 236.433 30.6647C236.346 31.184 236.258 31.7034 236.175 32.2235C236.066 32.8967 235.954 33.5656 235.821 34.3487L218.968 46.9783M218.765 33.3943C219.009 33.3578 219.231 33.3055 219.434 33.2578C219.599 33.2188 219.752 33.1827 219.894 33.161C219.77 33.0294 219.649 32.8935 219.532 32.7526L218.765 33.3943ZM218.765 33.3943L218.912 34.3833C219.14 34.3493 219.376 34.298 219.57 34.2533C219.291 33.9863 219.022 33.7014 218.765 33.3943ZM218.968 46.9783C219.281 46.9485 219.571 46.7713 219.737 46.4873C219.844 46.3045 219.956 46.1301 220.074 45.9631C222.504 45.8102 224.548 44.884 226.63 43.9413C227.064 43.7443 227.501 43.5466 227.943 43.3551L218.968 46.9783ZM226.943 39.4067C226.694 39.1798 226.437 38.9659 226.172 38.762L226.191 40.0752C226.45 39.8656 226.702 39.6441 226.943 39.4067ZM236.696 35.17C237.428 34.9975 238.145 34.8286 238.854 34.662C240.636 34.2426 242.36 33.8369 244.117 33.4207C244.152 33.5403 244.179 33.6549 244.199 33.7648L244.348 34.3937C244.308 34.4031 244.268 34.4125 244.229 34.4219C244.162 35.0137 243.818 35.4341 243.282 35.7711C243.19 35.8284 243.099 35.8857 243.007 35.943C241.793 36.7041 240.583 37.4621 239.342 38.1743C238.695 38.55 238.027 38.8866 237.255 39.2753C237.188 39.3091 237.121 39.3433 237.052 39.3779L236.696 35.17ZM237.004 40.5231C237.012 40.5278 237.02 40.5325 237.027 40.5372C237.453 40.7993 237.809 41.0184 238.162 41.2466C240.141 42.5226 242.11 43.7986 244.079 45.0747L244.081 45.0759C244.253 45.1816 244.407 45.3136 244.562 45.4456C245.678 46.3788 246.132 47.3471 245.615 47.9457C244.845 48.8517 243.918 48.3987 243.142 48.0188C243.103 48.0001 243.065 47.9815 243.028 47.9633C241.917 47.4274 240.837 46.8312 239.755 46.2338C239.184 45.9186 238.612 45.6031 238.035 45.296C237.68 45.1062 237.316 44.9363 236.885 44.7396L237.004 40.5231ZM236.008 45.4391C236.043 45.5914 236.081 45.7269 236.129 45.8594C236.375 46.5583 236.633 47.2515 236.89 47.9442C237.184 48.7348 237.478 49.5249 237.754 50.3225C237.945 50.8771 238.081 51.4669 238.135 52.0567C238.162 52.3296 237.917 52.849 237.79 52.8578C237.445 52.8578 236.928 52.7522 236.783 52.5057C236.09 51.3978 235.437 50.2635 234.784 49.1277C234.513 48.657 234.243 48.1862 233.969 47.7168C233.794 47.4159 233.616 47.1176 233.394 46.7498L236.008 45.4391ZM232.283 46.8441C232.169 47.133 232.059 47.4141 231.952 47.6886C231.49 48.8711 231.075 49.9325 230.637 50.9828C230.029 52.4441 229.403 53.9054 228.722 55.3315C228.312 56.1859 228.248 56.2117 227.08 56.6833C227.008 56.7121 226.932 56.7427 226.852 56.7752C226.778 56.6173 226.714 56.459 226.66 56.3005L226.476 55.8485C226.493 55.8417 226.51 55.8351 226.526 55.8285C226.293 54.8059 226.421 53.7739 226.671 52.7522C227.063 51.1679 227.477 49.5895 227.891 48.0102C228.195 46.8516 228.499 45.6924 228.795 44.5301C228.835 44.3771 228.861 44.2192 228.881 44.0432L232.283 46.8441Z" stroke="#402716" stroke-width="2" stroke-linejoin="round"/>
</g>
<g clip-path="url(#clip4_269_5608)">
<path d="M71.2237 38.974C70.7862 38.8571 70.4818 38.4607 70.4818 38.0079V37.9998C70.4818 37.7905 70.5475 37.5881 70.6671 37.42C71.6688 35.7267 73.0626 34.7019 74.3914 33.8539C74.6904 33.6631 74.9814 33.4834 75.2641 33.3089C75.9622 32.8779 76.6097 32.4781 77.204 32.0178C76.5539 31.5342 75.8452 31.1046 75.0832 30.6426C74.8916 30.5264 74.6966 30.4082 74.4983 30.2866C73.1853 29.4811 71.778 28.5503 70.6118 27.1342C70.383 26.8564 70.3212 26.477 70.4499 26.1409C70.5786 25.8048 70.8781 25.5637 71.2339 25.5098C71.4139 25.4825 71.5471 25.4504 71.7046 25.4124C71.7939 25.3909 71.891 25.3675 72.0088 25.342C72.2587 25.288 72.6941 25.2023 73.1473 25.3412L73.1509 25.3423C74.6851 25.8188 76.1957 26.3752 77.6725 26.941L77.676 26.9423C77.9032 27.0304 78.1311 27.1309 78.3618 27.24C78.1401 26.5505 77.9093 25.8478 77.6773 25.1413C77.304 24.0043 76.9275 22.8577 76.5805 21.7413L71.2237 38.974ZM71.2237 38.974C71.3391 39.0048 71.4561 39.0142 71.57 39.0041M71.2237 38.974L71.57 39.0041M71.57 39.0041C73.4693 39.0673 75.1028 38.6274 76.6046 38.0422C77.3672 37.7451 78.1069 37.4058 78.8214 37.077L78.8709 37.0543C79.0282 36.9819 79.1843 36.91 79.3398 36.839C79.1093 37.7527 78.8716 38.6739 78.6332 39.5978C78.2581 41.0512 77.8813 42.5113 77.5278 43.9601L77.527 43.9634C77.2127 45.2709 77.0516 46.7783 77.7555 48.2961C77.9808 48.7818 78.5487 49.0039 79.0437 48.7999C79.1095 48.7728 79.1735 48.7466 79.2355 48.7211C79.4538 48.6316 79.6476 48.5522 79.8064 48.4811C80.0125 48.3889 80.2284 48.2815 80.4267 48.1324C80.8602 47.8065 81.0592 47.3856 81.2402 47.0028L81.2496 46.983L81.2507 46.9807C81.8741 45.6539 82.4453 44.2996 82.9947 42.9585M71.57 39.0041L93.2206 39.8188L92.7806 40.7168C92.7803 40.7166 92.7799 40.7165 92.7796 40.7163C91.757 40.2152 90.7396 39.6448 89.7497 39.0898C89.2421 38.8053 88.7418 38.5248 88.2517 38.2597L88.2505 38.2591C88.2298 38.2478 88.2092 38.2367 88.1885 38.2257M82.9947 42.9585C82.9946 42.9587 82.9945 42.9589 82.9945 42.9591L82.0693 42.5794L82.9947 42.9585ZM82.9947 42.9585C83.3807 42.018 83.7498 41.0603 84.1538 40.0103M84.1538 40.0103C84.1692 40.0371 84.1845 40.0638 84.1999 40.0906L84.2004 40.0915C84.44 40.5087 84.6798 40.9323 84.9213 41.3588C85.5115 42.4014 86.1116 43.4616 86.7439 44.4887M84.1538 40.0103C84.1663 39.9777 84.1789 39.9451 84.1915 39.9123C84.3275 39.5587 84.4676 39.1944 84.6138 38.8166C84.7845 39.1048 84.927 39.3482 85.0675 39.5934C85.314 40.0226 85.5577 40.453 85.8013 40.8833C86.3891 41.9218 86.9762 42.9589 87.6 43.9718M84.1538 40.0103C83.9683 39.6882 83.774 39.36 83.5059 38.9096L87.8035 36.9231C87.8157 36.9862 87.8269 37.0439 87.8373 37.0959C87.8825 37.3228 87.9138 37.4487 87.9524 37.5557L87.9568 37.5679L87.9568 37.568C88.0328 37.7876 88.1102 38.0066 88.1885 38.2257M86.7439 44.4887C87.0122 44.9373 87.4788 45.1081 87.6943 45.1738C87.9707 45.2581 88.2641 45.2938 88.5068 45.2938C88.5302 45.2938 88.5537 45.2929 88.577 45.2913C88.9027 45.2684 89.1185 45.1022 89.1978 45.0354C89.297 44.9519 89.3681 44.8641 89.4131 44.8028C89.5055 44.6769 89.5771 44.5398 89.6295 44.4207C89.7165 44.223 89.8492 43.8511 89.8129 43.468M86.7439 44.4887C86.7455 44.4912 86.747 44.4937 86.7485 44.4962L87.6 43.9718M86.7439 44.4887C86.7409 44.4837 86.738 44.4786 86.735 44.4735L87.6 43.9718M89.8129 43.468C89.7557 42.842 89.6146 42.2264 89.4214 41.6553L89.4208 41.6536C89.1839 40.9574 88.9331 40.2694 88.6851 39.5918L88.6366 39.4593C88.4851 39.0454 88.3351 38.6355 88.1885 38.2257M89.8129 43.468C89.8128 43.4666 89.8126 43.4651 89.8125 43.4636L88.8173 43.5613M89.8129 43.468C89.813 43.469 89.8131 43.4699 89.8132 43.4708L88.8173 43.5613M88.1885 38.2257C87.915 38.0798 87.64 37.9495 87.3044 37.7939C87.3026 37.7931 87.3009 37.7923 87.2992 37.7915C87.2339 37.7612 87.1663 37.73 87.0959 37.6975C87.0419 37.6725 86.9864 37.6468 86.929 37.6203C86.9533 37.7167 86.9799 37.8067 87.0118 37.8952C87.2331 38.5342 87.4651 39.1679 87.6969 39.8013C87.9615 40.5242 88.226 41.2465 88.4741 41.9758C88.6457 42.4828 88.7682 43.0221 88.8173 43.5613M82.7421 25.901C82.4832 25.4083 82.2416 24.9041 81.9927 24.3848C81.7704 23.9208 81.5422 23.4448 81.2907 22.9539C80.5136 21.4372 79.5576 19.8959 77.9573 18.7156C77.6658 18.5007 77.2809 18.4601 76.951 18.6096C76.6211 18.7591 76.3979 19.0753 76.3673 19.4362C76.3025 20.203 76.3444 20.9824 76.5804 21.7408L82.7421 25.901ZM82.7421 25.901C82.9227 25.3498 83.1018 24.7869 83.2823 24.2193C83.6842 22.9561 84.0936 21.669 84.5448 20.4331L84.5463 20.429C84.8903 19.4993 85.435 18.2216 87.1566 17.5709C87.4354 17.4656 87.7466 17.49 88.0055 17.6377C88.2644 17.7853 88.444 18.0407 88.4953 18.3343C88.5334 18.5527 88.5735 18.724 88.6178 18.9131C88.6476 19.0402 88.6793 19.1753 88.7135 19.3381C88.7861 19.6838 88.8573 20.112 88.8061 20.5662C88.669 21.7822 88.4659 23.0031 88.2678 24.1937C88.1898 24.6625 88.1126 25.1266 88.0405 25.5838L88.0404 25.5844C87.9664 26.0519 87.89 26.5173 87.8055 27.0259C88.2873 26.9106 88.7624 26.7971 89.2328 26.6846C90.8364 26.3013 92.3866 25.9308 93.9669 25.5504C94.4883 25.4249 95.0159 25.7331 95.1627 26.249C95.3542 26.922 95.3773 27.5796 95.1393 28.1879C94.9019 28.7946 94.4588 29.2137 93.9872 29.5146L93.9861 29.5153C93.9029 29.5683 93.8195 29.6213 93.7361 29.6744C92.6469 30.3678 91.5432 31.0705 90.4095 31.7316M82.7421 25.901L90.4075 31.7327C90.4081 31.7323 90.4088 31.732 90.4095 31.7316M90.4095 31.7316C89.9397 32.0083 89.4486 32.268 88.9214 32.5398M90.4095 31.7316L88.9214 32.5398M88.8173 43.5613C88.8418 43.8109 88.6212 44.2857 88.5068 44.2938C88.1964 44.2938 87.7307 44.1972 87.6 43.9718M95.2529 36.7585C95.2488 36.7548 95.2445 36.7511 95.2402 36.7474C95.114 36.6375 94.9275 36.4753 94.7086 36.3374C92.9393 35.1726 91.1689 34.0072 89.3903 32.8417L95.2529 36.7585ZM95.2529 36.7585C95.2514 36.7572 95.2499 36.7559 95.2484 36.7546L94.6012 37.5169L95.2572 36.7622C95.2558 36.761 95.2544 36.7597 95.2529 36.7585ZM88.9214 32.5398C89.0834 32.6424 89.2381 32.7417 89.3899 32.8414L88.9214 32.5398ZM79.5978 39.8617C79.8712 38.8023 80.1448 37.7425 80.411 36.6799L80.3456 46.5554C79.9761 47.3366 79.9185 47.3602 78.8672 47.7913C78.8029 47.8177 78.7348 47.8456 78.6627 47.8753C78.6094 47.7603 78.562 47.6451 78.5203 47.5297L78.2817 46.9508C78.3051 46.9411 78.328 46.9317 78.3503 46.9225C78.167 46.0161 78.2817 45.1023 78.4993 44.1972C78.8527 42.7487 79.2252 41.3056 79.5978 39.8617ZM96.3105 40.4507C96.3115 40.4495 96.3125 40.4483 96.3136 40.447C96.3144 40.4461 96.3151 40.4452 96.3159 40.4443L95.5488 39.8027L96.3105 40.4507Z" stroke="#402716" stroke-width="2" stroke-linejoin="round"/>
</g>
<path d="M117.897 54.2342C120.297 49.8662 124.902 48.7678 128.034 45.5199C124.781 42.7197 120.419 41.6099 117.31 38.1057C118.216 37.9451 118.873 37.6221 119.402 37.7655C121.566 38.3604 123.711 39.0688 125.832 39.8003C126.881 40.1664 127.865 40.6924 129.26 41.3199C129.141 40.42 129.173 39.8659 128.996 39.374C127.982 36.5006 126.9 33.6629 125.898 30.7778C125.606 29.9391 125.523 29.0382 125.578 28.0883C129.695 30.8984 130.761 35.6672 133.577 39.5746C134.016 38.9866 134.427 38.6591 134.556 38.2491C135.468 35.3449 136.239 32.4107 137.221 29.5271C137.643 28.3074 138.191 27.0052 140.026 26.2657C140.242 27.3097 140.604 28.169 140.533 28.9838C140.33 31.3265 139.951 33.6515 139.642 35.9858C139.477 37.2209 139.301 38.4451 139.067 40.0999C142.879 39.0912 146.333 38.1827 149.891 37.2374C150.364 38.7146 149.91 39.6078 148.901 40.2792C147.25 41.3749 145.611 42.4703 143.924 43.4992C142.696 44.2558 141.406 44.9012 139.704 45.8402C140.938 46.5625 141.733 47.0034 142.516 47.4784C145.105 49.0438 147.681 50.6095 150.258 52.1752C150.483 52.3044 150.686 52.4682 150.889 52.6319C152.357 53.788 152.975 55.0128 152.331 55.7983C151.326 57.0455 150.047 56.3809 149.007 55.913C146.797 54.9242 144.675 53.7524 142.497 52.6724C141.68 52.266 140.831 51.9395 139.531 51.3771C139.793 52.4198 139.867 52.9597 140.067 53.4622C140.797 55.3613 141.596 57.2246 142.314 59.124C142.578 59.828 142.774 60.579 142.865 61.3329C142.91 61.6817 142.613 62.356 142.45 62.3718C142.007 62.3841 141.338 62.2671 141.143 61.9564C139.828 59.9832 138.615 57.9394 137.357 55.9195C136.929 55.2313 136.49 54.5548 135.71 53.3458C134.733 56.0147 133.998 58.135 133.192 60.2234C132.462 62.1177 131.709 64.0127 130.885 65.8645C130.357 67.042 130.298 67.0098 128.533 67.7812C127.681 66.1 127.785 64.3585 128.157 62.6321C128.935 59.0881 129.794 55.5644 130.595 52.0197C130.72 51.4856 130.704 50.9103 130.794 49.9481C126.571 51.736 122.954 54.3087 117.897 54.2229L117.897 54.2342Z" fill="#EDD6D6"/>
<path d="M229.897 124.234C232.297 119.866 236.902 118.768 240.034 115.52C236.781 112.72 232.419 111.61 229.31 108.106C230.216 107.945 230.873 107.622 231.402 107.766C233.566 108.36 235.711 109.069 237.832 109.8C238.881 110.166 239.865 110.692 241.26 111.32C241.141 110.42 241.173 109.866 240.996 109.374C239.982 106.501 238.9 103.663 237.898 100.778C237.606 99.9391 237.523 99.0382 237.578 98.0883C241.695 100.898 242.761 105.667 245.577 109.575C246.016 108.987 246.427 108.659 246.556 108.249C247.468 105.345 248.239 102.411 249.221 99.5271C249.643 98.3074 250.191 97.0052 252.026 96.2657C252.242 97.3097 252.604 98.169 252.533 98.9838C252.33 101.327 251.951 103.651 251.642 105.986C251.477 107.221 251.301 108.445 251.067 110.1C254.879 109.091 258.333 108.183 261.891 107.237C262.364 108.715 261.91 109.608 260.901 110.279C259.25 111.375 257.611 112.47 255.924 113.499C254.696 114.256 253.406 114.901 251.704 115.84C252.938 116.562 253.733 117.003 254.516 117.478C257.105 119.044 259.681 120.61 262.258 122.175C262.483 122.304 262.686 122.468 262.889 122.632C264.357 123.788 264.975 125.013 264.331 125.798C263.326 127.045 262.047 126.381 261.007 125.913C258.797 124.924 256.675 123.752 254.497 122.672C253.68 122.266 252.831 121.939 251.531 121.377C251.793 122.42 251.867 122.96 252.067 123.462C252.797 125.361 253.596 127.225 254.314 129.124C254.578 129.828 254.774 130.579 254.865 131.333C254.91 131.682 254.613 132.356 254.45 132.372C254.007 132.384 253.338 132.267 253.143 131.956C251.828 129.983 250.615 127.939 249.357 125.919C248.929 125.231 248.49 124.555 247.71 123.346C246.733 126.015 245.998 128.135 245.192 130.223C244.462 132.118 243.709 134.013 242.885 135.865C242.357 137.042 242.298 137.01 240.533 137.781C239.681 136.1 239.785 134.359 240.157 132.632C240.935 129.088 241.794 125.564 242.595 122.02C242.72 121.486 242.704 120.91 242.794 119.948C238.571 121.736 234.954 124.309 229.897 124.223L229.897 124.234Z" fill="#EDD6D6"/>
<path d="M16.9288 28.1391C17.5998 26.7525 18.3602 25.2471 19.7022 24.2567C21.5362 22.9494 23.728 23.3455 25.7857 24.0586C28.1565 24.8509 30.393 25.9602 32.4507 27.2675C31.9586 23.0286 37.058 20.6516 41.3523 20.9686C45.1545 21.2459 50.2091 23.2663 50.5223 27.0298C52.9825 24.3359 59.3344 25.6829 61.7946 27.6637C66.2231 31.1895 63.1366 36.7754 59.9159 39.8654C59.7817 39.9843 59.6475 39.9447 59.5581 39.8654C59.5133 39.8654 59.5133 39.8654 59.4686 39.8654C48.8225 40.42 38.8473 35.9434 28.2012 36.1019C24.3095 36.1811 18.9417 36.9338 16.571 33.3288C15.4974 31.7045 16.1236 29.8426 16.9288 28.1391Z" fill="#F0CB9C"/>
</g>
<defs>
<clipPath id="clip0_269_5608">
<rect width="375" height="192" fill="white"/>
</clipPath>
<clipPath id="clip1_269_5608">
<rect width="159.586" height="185.49" fill="white" transform="translate(82 79.9404)"/>
</clipPath>
<clipPath id="clip2_269_5608">
<rect width="29" height="34" fill="white" transform="translate(110 85.9404)"/>
</clipPath>
<clipPath id="clip3_269_5608">
<rect width="30" height="35" fill="white" transform="translate(217 22.9404)"/>
</clipPath>
<clipPath id="clip4_269_5608">
<rect width="27" height="32" fill="white" transform="translate(69.7959 16.9404)"/>
</clipPath>
</defs>
</svg>
