<svg width="313" height="310" viewBox="0 0 313 310" fill="none" xmlns="http://www.w3.org/2000/svg">
<path d="M83.8839 76.366C68.7205 68.1708 111.262 62.7073 134.428 61C217.748 61 139.562 80.7 118.238 85.034C96.9149 89.368 156.937 89.7619 144.3 97.2479C131.664 104.734 83.8839 105.916 65.7195 101.188C47.5552 96.4599 102.838 86.61 83.8839 76.366Z" fill="#F0CB9C"/>
<path d="M325.5 161C127.5 276 126 290.5 1 307.225" stroke="#EFD8BA" stroke-width="4" stroke-dasharray="20 20"/>
<g clip-path="url(#clip0_944_2901)">
<path d="M221.582 139.092C221.318 138.802 221.328 138.361 221.686 138.291C222.84 137.999 223.712 137.368 224.5 136.494C224.773 136.181 225.18 136.094 225.62 136.105C226.126 136.147 226.615 136.141 227.104 136.134C228.262 136.168 229.385 135.942 230.454 135.406C232.561 134.401 234.803 133.785 237.164 133.51C241.184 132.985 245.253 132.444 249.291 131.968C252.693 131.549 256.102 131.619 259.452 132.147C261.02 132.42 262.511 132.939 264.095 133.098C265.613 133.225 266.828 132.639 267.364 131.197C267.379 131.083 267.262 130.905 267.18 130.824C267.163 130.776 267 130.778 266.951 130.795C266.79 130.96 266.646 131.174 266.502 131.387C265.297 132.789 263.438 132.78 261.793 131.66C261.645 131.548 261.575 131.19 261.622 131.01C261.685 130.879 261.994 130.826 262.255 130.79C262.418 130.788 262.566 130.9 262.729 130.898C264.757 131.394 265.778 130.875 266.633 128.94C266.871 128.366 266.217 126.956 265.694 126.865C265.465 126.835 265.19 126.986 265.012 127.102C264.383 127.648 263.688 128.163 262.892 128.385C262.016 128.69 261.12 128.783 260.297 128.141C260.214 128.061 260.081 127.834 260.096 127.72C260.11 127.605 260.271 127.44 260.417 127.389C260.661 127.305 260.921 127.269 261.15 127.298C261.739 127.421 262.308 127.332 262.859 127.032C263.36 126.748 264.108 126.543 264.051 125.908C263.992 125.11 263.164 125.397 262.641 125.306C259.914 124.999 257.155 124.757 254.771 123.239C253.933 122.712 253.052 122.691 252.142 122.898C251.346 123.12 250.516 123.245 249.686 123.37C249.523 123.372 249.275 123.131 249.159 122.953C249.025 122.726 249.135 122.415 249.379 122.33C251.441 121.668 253.404 120.876 255.606 122.185C257.807 123.494 260.323 123.82 262.836 123.983C264.174 124.064 265.48 124.21 266.424 125.355C267.65 126.84 268.827 128.341 268.837 130.412C268.852 131.553 268.49 132.552 267.586 133.249C266.73 133.928 265.858 134.559 264.751 134.671C263.671 134.391 262.701 133.801 261.039 133.887C262.614 134.65 263.777 135.01 265.003 135.238C266.986 136.077 268.97 136.916 270.683 138.231C271.82 139.145 273.115 139.732 274.472 140.024C278.789 140.98 282.825 142.852 286.938 144.478C287.561 144.698 288.088 145.115 288.727 145.384C290.596 146.208 291.342 148.351 290.571 150.529C287.938 157.558 281.138 158.722 275.925 155.349C275.301 154.966 274.74 154.451 274.147 154.002C273.851 153.778 273.552 153.39 273.048 153.511C272.026 153.866 271.251 153.208 270.463 152.827C267.444 151.365 264.41 150.019 261.377 148.672C256.571 146.467 251.61 144.917 246.474 143.646C243.906 143.011 241.367 142.147 238.674 141.937C235.132 141.64 231.715 142.173 228.336 143.13C228.238 143.164 228.126 143.312 228.063 143.443C227.967 143.64 228.067 143.769 228.296 143.799C230.425 144.587 232.507 145.391 234.808 145.574C237.272 145.754 239.455 146.851 241.856 147.162C242.476 147.22 242.94 147.768 243.078 148.321C243.522 149.913 244.483 151.107 245.429 152.416C246.16 153.417 246.632 154.618 246.534 155.907C246.445 159.104 243.305 160.905 240.481 159.376C238.992 157.765 236.987 157.807 235.027 157.506C232.38 157.117 229.781 156.547 227.149 156.043C226.152 155.843 225.188 155.742 224.212 155.917C222.472 156.25 220.727 156.256 219.023 155.593C218.701 155.923 218.411 156.188 218.072 156.469C214.773 159.854 210.943 162.496 206.596 164.281C204.682 165.055 202.819 165.976 201.007 167.043C199.292 168.076 197.443 168.883 195.561 169.592C195.366 169.659 195.023 169.615 194.907 169.437C194.691 169.13 194.784 168.77 195.042 168.571C195.43 168.273 195.9 168.055 196.321 167.854C197.943 167.18 199.448 166.329 201.019 165.51C202.493 164.725 203.967 163.94 205.491 163.3C209.319 161.751 212.764 159.571 215.794 156.825C217.164 155.584 218.469 154.312 219.443 152.718C219.618 152.438 219.729 152.127 220.069 152.009C220.167 151.975 220.264 151.941 220.33 151.973C220.478 152.085 220.626 152.197 220.66 152.294C220.798 152.847 220.444 153.243 220.287 153.734C220.035 154.422 220.203 154.746 220.855 154.738C221.85 154.774 222.862 154.859 223.821 154.634C224.894 154.425 225.987 154.427 227.033 154.609C229.141 155.022 231.267 155.484 233.376 155.897C234.602 156.126 235.844 156.403 237.068 156.469C238.324 156.469 239.323 156.831 240.231 157.716C241.074 158.57 242.103 158.703 243.208 158.428C244.41 158.119 244.94 157.444 245.069 156.089C245.08 155.648 244.701 155.344 244.279 155.545C242.854 156.313 241.419 156.266 239.975 155.568C239.664 155.457 239.384 155.282 239.298 154.875C239.247 154.729 239.228 154.517 239.243 154.403C239.321 154.157 239.645 153.99 239.842 154.085C240.729 154.596 241.614 154.943 242.687 154.734C243.907 154.473 244.347 153.228 243.568 152.244C243.287 151.905 242.99 151.681 242.535 151.784C241.608 151.943 240.695 151.987 239.827 151.689C239.45 151.547 239.042 151.471 238.743 151.083C238.61 150.857 238.525 150.613 238.686 150.448C238.767 150.365 238.993 150.232 239.108 150.247C239.942 150.448 240.695 150.732 241.525 150.607C241.834 150.554 241.995 150.389 242.025 150.16C242.114 149.474 241.661 148.486 241.007 148.331C239.241 147.962 237.583 147.12 235.722 146.948C233.078 146.721 230.461 146.103 227.955 145.173C226.316 144.542 224.631 144.091 222.899 143.819C222.327 143.745 221.658 143.705 221.23 143.417C219.848 142.424 219.024 143.038 218.093 144.126C216.31 146.22 214.444 148.233 212.661 150.327C212.388 150.64 212.132 151.002 212.039 151.362C211.838 152.196 211.404 152.675 210.508 152.768C209.727 152.876 209.212 153.437 208.615 153.917C207.194 155.012 205.672 155.814 203.965 156.244C203.673 156.345 203.282 156.318 203.004 156.305C202.89 156.29 202.773 156.112 202.723 155.966C202.672 155.82 202.767 155.623 202.831 155.492C202.894 155.361 203.072 155.244 203.218 155.193C207.084 154.067 209.788 151.326 212.361 148.521C214.226 146.507 216.009 144.414 217.809 142.369C218.355 141.742 218.836 141.084 219.647 140.747C220.02 140.563 220.394 140.542 220.771 140.684C220.824 140.993 220.716 141.467 220.93 141.611C222.065 142.363 223.261 142.82 224.658 142.443C226.82 141.91 229.031 141.36 231.209 140.875C234.315 140.232 237.476 140.061 240.631 140.656C244.783 141.45 248.89 142.588 252.965 143.791C258.072 145.29 262.88 147.658 267.734 149.845C268.899 150.368 269.998 150.86 271.162 151.383C271.276 151.398 271.471 151.33 271.552 151.247C271.632 151.165 271.71 150.919 271.611 150.79C271.376 150.271 271.141 149.753 270.84 149.202C270.438 148.359 270.004 147.582 269.602 146.74C269.435 146.416 269.479 146.073 269.918 145.92C270.161 145.836 270.439 145.848 270.572 146.075C271.222 147.159 271.903 148.177 272.407 149.312C273.381 151.485 274.95 153.013 276.938 154.178C279.895 155.934 282.912 155.976 285.906 154.226C286.537 153.842 287.068 153.33 287.435 152.657C287.928 151.721 288.028 150.595 289.063 149.962C289.241 149.845 289.286 149.502 289.315 149.274C289.591 147.868 289.138 146.879 287.905 146.161C286.032 145.011 283.97 144.418 281.937 143.597C279.282 142.555 276.757 141.413 273.913 140.928C272.524 140.702 271.244 140.001 270.075 139.152C267.376 137.197 264.374 135.785 261.103 135.011C258.503 134.442 256.011 133.398 253.367 133.171C252.2 132.485 250.947 132.648 249.742 132.794C245.444 133.306 241.163 133.866 236.882 134.427C234.587 134.734 232.296 135.366 230.223 136.469C229.624 136.787 229.022 136.941 228.353 136.901C226.998 136.772 226.069 138.023 224.716 138.057C224.667 138.074 224.604 138.205 224.572 138.27C224.383 138.827 223.945 138.98 223.374 138.905C222.868 138.863 222.362 138.821 221.904 138.761L221.773 138.698L221.582 139.092Z" fill="#402716"/>
<path d="M128.108 196.321C128.86 197.697 129.474 198.521 129.795 199.446C130.134 200.42 130.714 201.146 131.279 201.987C133.324 205.042 134.996 208.282 136.118 211.822C136.374 212.715 136.679 213.592 136.967 214.42C137.494 216.092 138.247 217.632 139.342 219.052C141.232 221.506 142.572 224.261 143.556 227.249C144.098 228.807 144.329 230.255 143.338 231.801C142.811 232.639 142.743 233.7 142.658 234.712C142.573 235.724 142.129 236.642 141.536 237.449C140.862 238.338 140.521 238.457 139.393 238.194C137.839 237.807 136.67 236.957 135.87 235.598C135.303 234.594 134.816 233.508 134.59 232.386C134.084 229.833 132.864 227.582 131.433 225.35C129.687 222.682 128.038 219.981 125.743 217.776C125.578 217.616 125.445 217.389 125.231 217.245C121.674 214.552 119.02 210.999 116.253 207.594C113.884 204.706 111.176 202.099 108.325 199.706C107.467 198.967 106.288 198.559 105.287 198.034C103.809 197.237 102.38 196.424 100.87 195.694C98.2133 194.489 96.3757 192.344 94.4578 190.281C94.2757 190.072 94.1572 189.731 94.0873 189.373C94.0535 189.276 94.1975 189.062 94.3266 188.962C94.4558 188.863 94.6675 188.844 94.7818 188.859C95.0613 189.034 95.3407 189.21 95.5397 189.468C97.7943 192.342 100.883 194.161 104.035 195.848C104.84 196.278 105.613 196.774 106.449 197.138C109.089 198.294 111.185 200.24 113.183 202.22C114.504 203.507 115.696 204.894 116.888 206.281C119.985 210.008 123.163 213.652 126.904 216.718C129.804 219.094 131.751 222.183 133.392 225.488C134.095 226.881 134.766 228.34 135.291 229.85C135.545 230.58 136.106 231.095 136.391 231.76C136.643 232.327 136.874 232.52 137.49 232.251C138.058 231.999 138.39 232.484 138.769 232.789C139.213 233.125 139.671 233.185 140.19 232.95C141.974 232.275 143.12 230.075 142.559 228.305C141.947 226.389 141.255 224.555 140.076 222.891C138.914 221.275 137.93 219.543 136.945 217.811C136.279 216.679 135.741 215.446 135.447 214.129C134.53 210.081 132.625 206.486 130.574 202.942C129.223 200.627 127.744 198.413 126.459 196.13C125.642 194.722 124.363 194.184 122.961 194.235C121.56 194.286 120.171 194.059 118.807 194.533C117.736 194.906 116.462 194.694 115.538 193.923C115.325 193.779 115.272 193.47 115.464 193.239C115.528 193.108 115.755 192.974 115.869 192.989C116.686 193.142 117.44 193.426 118.335 193.332C119.508 193.252 119.621 193.104 119.083 191.872C118.998 191.628 118.882 191.45 119.123 191.203C119.333 191.021 119.545 191.002 119.79 191.08C120.036 191.158 120.281 191.237 120.478 191.332C121.679 192.115 123.07 192.505 124.38 192.977C129.54 194.786 134.03 197.81 138.408 200.982C139.001 201.431 139.513 201.962 140.025 202.494C140.356 202.816 140.442 203.222 140.072 203.569C139.75 203.9 139.437 203.626 139.189 203.385C136.481 200.778 133.132 198.995 129.992 197.03C129.484 196.825 129.124 196.732 128.108 196.321ZM141.038 234.292C139.016 234.286 139.016 234.286 137.081 233.43C136.626 234.789 137.337 235.579 138.292 236.284C139.626 237.294 140.356 237.04 140.939 235.419C141.098 235.09 141.288 234.697 141.038 234.292Z" fill="#402716"/>
<path d="M86.2761 131.117C86.3396 130.985 86.4667 130.723 86.6445 130.606C87.2755 130.223 87.8895 129.791 88.6031 129.489C89.9327 128.917 91.0147 128.104 92.1115 127.177C94.8853 124.793 97.7416 122.49 100.598 120.187C101.583 119.408 102.684 118.807 103.869 118.449C106.321 117.651 108.756 116.804 111.208 116.006C117.509 114.034 123.88 112.419 130.301 110.95C135.503 109.742 140.847 109.412 146.126 109.051C150.932 108.744 155.721 108.389 160.582 108.555C163.942 108.642 167.177 109.154 170.463 109.813C171.46 110.012 172.478 110.586 173.51 109.627C173.912 109.214 174.619 109.678 175.159 109.818C178.055 110.612 180.951 111.406 183.848 112.201C184.567 112.387 185.105 112.364 185.603 111.754C186.261 110.979 187.504 111.257 188.211 110.465C188.372 110.3 188.717 110.507 188.802 110.751C188.986 111.123 189.122 111.513 189.257 111.903C189.359 112.195 189.526 112.519 189.302 112.815C188.965 113.26 188.603 113.003 188.226 112.862C187.407 112.546 186.672 112.474 186.03 113.298C185.742 113.725 185.156 113.765 184.667 113.772C183.835 113.733 183.003 113.695 182.169 113.494C176.998 112.126 171.708 111.509 166.493 110.484C162.047 109.628 157.548 109.719 153.051 109.972C147.43 110.289 141.743 110.575 136.16 111.315C133.083 111.73 130.075 112.339 127.1 113.046C119.933 114.883 112.734 116.786 105.754 119.158C104.146 119.717 102.753 120.42 101.546 121.658C99.6957 123.557 97.6143 125.264 95.2832 126.565C94.1017 127.249 92.8228 127.967 92.1388 129.296C91.98 129.624 91.5269 129.891 91.1204 129.978C89.7696 130.175 88.6707 130.939 87.4723 131.574C87.2457 131.707 86.9853 131.743 86.7736 131.762C86.4306 131.718 86.2972 131.491 86.2761 131.117Z" fill="#402716"/>
<path d="M128.569 173.944C128.516 173.635 128.349 173.311 128.705 173.078C129.077 172.894 129.325 173.135 129.524 173.393C129.59 173.425 129.624 173.522 129.609 173.637C130.15 176.451 132.149 178.43 133.743 180.66C134.24 181.306 134.732 181.463 135.462 181.209C136.387 180.887 137.378 180.597 138.337 180.373C138.532 180.305 138.812 180.481 138.977 180.641C139.159 180.851 139.049 181.162 138.871 181.279C138.532 181.56 138.159 181.744 137.852 181.96C136.429 182.892 136.218 184.166 137.327 185.473C138.783 187.15 140.337 188.793 141.972 190.353C143.737 191.978 145.439 193.733 146.995 195.539C149.677 198.7 152.408 201.845 155.09 205.006C156.498 206.7 157.485 208.595 158.164 210.706C158.488 211.794 158.517 212.821 158.466 213.93C158.462 214.86 157.916 215.486 157.221 216.001C156.559 216.45 155.843 216.589 155.136 216.125C152.686 214.575 150.188 213.042 147.851 211.344C146.32 210.239 144.966 208.854 143.547 207.6C143.382 207.44 143.249 207.213 143.164 206.969C143.113 206.823 143.16 206.643 143.272 206.495C143.336 206.364 143.562 206.231 143.693 206.294C144.07 206.436 144.415 206.644 144.729 206.917C146.903 208.617 149.06 210.269 151.186 211.986C152.553 213.093 154.192 213.724 155.845 214.241C156.157 214.351 156.531 214.33 156.773 214.083C156.934 213.917 157.175 213.67 157.124 213.524C157.04 213.28 156.747 213.382 156.569 213.498C156.326 213.583 156.083 213.668 155.888 213.735C155.803 213.492 155.701 213.2 155.617 212.956C156.589 212.454 156.659 211.557 156.663 210.627C156.64 210.089 156.309 209.768 155.706 209.759C155.314 209.732 154.859 209.835 154.451 209.759C154.222 209.729 153.925 209.505 153.875 209.359C153.805 209.001 154.063 208.802 154.487 208.764C154.65 208.762 154.83 208.808 154.976 208.758C155.382 208.671 155.558 208.391 155.325 208.036C154.207 206.077 152.912 204.235 151.407 202.575C149.207 200.174 147.025 197.821 144.745 195.503C141.326 192.106 138.116 188.528 135.019 184.801C133.031 182.381 131.075 179.895 129.733 176.978C129.475 175.921 128.973 174.949 128.569 173.944Z" fill="#402716"/>
<path d="M62.1272 170.3C63.3553 169.437 64.2256 168.643 65.28 168.222C65.767 168.052 65.7607 167.563 65.6739 167.157C65.4855 166.458 65.2802 165.711 65.0919 165.012C65.0411 164.866 65.1681 164.603 65.2655 164.569C65.4434 164.453 65.7525 164.4 65.9325 164.447C66.5867 164.601 66.9698 165.232 66.9274 165.738C66.887 167.663 68.2165 168.347 69.6773 169.094C70.6618 169.571 71.6293 169.999 72.5968 170.426C74.6462 171.297 75.5543 173.437 74.9295 175.565C74.5398 176.956 71.9693 178.669 70.0554 178.188C68.4358 177.768 66.8013 177.463 65.2135 176.978C64.3624 176.728 63.7738 176.606 62.9332 177.171C61.8174 177.886 60.1808 177.418 59.3848 176.385C59.1858 176.127 59.116 175.769 59.3892 175.455C59.5988 175.273 59.7936 175.206 60.0392 175.284C60.2191 175.331 60.3504 175.394 60.4816 175.458C60.9093 175.746 61.32 175.985 61.8726 175.847C62.5057 175.627 62.3025 175.043 62.3618 174.586C62.563 173.751 63.5709 173.51 64.0366 174.222C64.6526 175.208 65.5206 175.507 66.4691 175.723C67.6632 176.017 68.889 176.246 70.1318 176.524C71.3089 176.769 72.2808 176.268 73.0198 175.41C73.727 174.619 73.3101 172.635 72.26 172.126C70.6849 171.364 69.1267 170.65 67.5346 169.839C66.4846 169.331 64.7971 169.972 63.9797 171.075C63.6748 171.454 63.535 171.994 63.2788 172.356C63.0226 172.718 62.5695 172.985 62.2223 172.614C61.5935 171.905 61.1574 172.221 60.5751 172.587C59.9272 172.921 59.1714 172.474 59.0317 171.759C58.6487 169.872 59.229 168.088 60.6477 166.83C60.8573 166.648 61.2807 166.61 61.575 166.671C61.9836 166.748 62.2821 167.135 62.2715 167.576C62.3794 168.357 62.2586 169.108 62.1272 170.3Z" fill="#402716"/>
<path d="M215.264 119.508C215.033 119.316 214.788 119.237 214.784 118.911C214.745 118.488 215.118 118.304 215.379 118.268C215.868 118.261 216.391 118.352 216.865 118.461C221.165 119.367 225.435 120.502 229.691 121.752C234.372 123.126 239.108 123.718 243.982 123.606C245.171 123.574 246.279 123.462 247.397 122.91C247.623 122.776 247.869 122.855 248.051 123.064C248.284 123.42 248.125 123.748 247.867 123.947C247.608 124.146 247.333 124.297 246.992 124.415C246.132 124.769 245.22 124.813 244.307 124.857C239.11 125.136 233.982 124.517 229.021 122.967C224.798 121.652 220.481 120.697 216.227 119.61C215.853 119.631 215.51 119.587 215.264 119.508Z" fill="#402716"/>
<path d="M186.77 171.939C186.87 172.068 187.018 172.18 187.069 172.326C187.119 172.472 187.073 172.652 186.961 172.8C186.624 173.245 186.103 173.317 185.665 173.469C181.248 174.896 176.772 175.524 172.119 175.013C167.742 174.515 163.381 173.903 159.005 173.405C157.747 173.242 156.523 173.176 155.283 173.062C155.005 173.049 154.921 172.806 154.836 172.562C154.783 172.253 154.993 172.071 155.188 172.003C156.064 171.698 156.979 171.817 157.893 171.936C161.372 172.364 164.834 172.743 168.28 173.237C172.053 173.726 175.89 174.084 179.73 173.513C181.699 173.21 183.634 172.811 185.551 172.199C185.923 172.015 186.345 171.814 186.77 171.939Z" fill="#402716"/>
<path d="M42.9536 133.681C42.8943 134.139 43.0933 134.397 43.2923 134.655C45.5426 137.202 47.1471 140.247 49.1561 143.042C49.7869 143.914 50.2399 144.903 50.4007 145.994C50.4367 146.254 50.4727 146.514 50.4261 146.694C50.3308 146.891 50.1042 147.025 49.9094 147.092C49.812 147.126 49.5495 146.999 49.5156 146.902C47.9599 142.585 44.9813 139.199 42.3267 135.646C40.7009 133.482 40.8873 132.762 43.4704 132.028C45.4691 131.497 47.4847 131.014 49.5003 130.532C51.7277 130.03 53.9465 130.132 56.1865 130.608C56.5951 130.685 56.9889 130.875 57.2217 131.231C57.3212 131.36 57.3403 131.572 57.2767 131.703C57.2132 131.834 57.0692 132.048 56.9549 132.033C56.6288 132.038 56.3028 132.042 55.9916 131.932C53.4235 131.296 50.9145 131.459 48.3802 132.176C46.9341 132.57 45.4541 132.866 44.008 133.26C43.6502 133.33 43.2776 133.514 42.9536 133.681Z" fill="#402716"/>
<path d="M45.806 174.065C45.5159 174.329 45.3232 174.56 45.0649 174.759C44.8722 174.99 44.4636 174.913 44.4128 174.767C44.1419 173.988 43.2887 173.575 43.0982 172.714C42.9078 171.852 42.2494 171.371 41.4131 171.007C40.6425 170.674 39.9205 170.325 39.1647 169.878C38.8197 169.671 38.5381 169.332 38.3052 168.976C38.1888 168.798 38.1359 168.489 38.3942 168.29C38.5234 168.191 38.7669 168.106 38.8494 168.187C40.3483 169.358 42.3893 169.576 43.7611 171.009C44.0257 171.299 44.3666 171.181 44.5911 170.884C45.0082 170.357 45.4168 170.434 45.7174 170.984C46.1006 171.615 46.4032 172.329 46.7864 172.96C47.2034 173.688 47.6035 174.368 48.408 174.797C50.5103 175.977 51.2236 178.185 52.1465 180.212C52.2798 180.438 52.1528 180.701 51.8606 180.802C51.6171 180.887 51.3884 180.857 51.1577 180.665C50.6136 180.199 50.3935 179.566 50.1416 178.998C49.606 177.929 49.0556 176.974 47.9548 176.32C47.1333 175.841 46.583 174.886 45.806 174.065Z" fill="#402716"/>
<path d="M39.6883 157.415C39.9996 157.525 40.2303 157.718 40.2176 157.995C40.2387 158.37 39.9973 158.618 39.6226 158.639C37.2767 158.799 35.1213 159.822 32.896 160.486C32.1973 160.675 32.0575 161.215 32.4407 161.846C32.6735 162.201 32.9064 162.557 33.2197 162.83C34.0453 163.635 34.9684 164.406 35.7453 165.227C36.2407 165.71 37.1892 165.926 37.0218 166.857C36.9477 167.429 36.1135 167.228 34.9428 166.216C34.0367 165.494 33.2111 164.689 32.3367 163.901C32.089 163.66 31.8583 163.467 31.6424 163.16C30.2304 161.14 30.1331 159.919 32.7966 159.102C34.2258 158.659 35.6211 158.12 37.0503 157.677C38.0094 157.453 38.8711 157.262 39.6883 157.415Z" fill="#402716"/>
<path d="M84.6724 143.302C88.7203 144.896 91.411 147.454 93.1531 151.051C93.2039 151.197 93.2717 151.392 93.2568 151.507C93.2589 151.67 93.1636 151.867 93.0175 151.917C92.8228 151.985 92.4649 152.055 92.3337 151.991C92.0204 151.718 91.7388 151.379 91.5716 151.055C90.166 148.269 88.0045 146.291 85.1994 144.974C84.8056 144.784 84.5092 144.559 84.1472 144.303C83.9334 144.159 83.8487 143.915 83.9271 143.67C84.052 143.244 84.395 143.289 84.7549 143.382C84.8354 143.299 84.9179 143.38 84.6724 143.302Z" fill="#402716"/>
<path d="M184.004 163.512C184.084 163.429 184.212 163.167 184.423 163.148C184.976 163.01 185.545 162.921 186.132 162.881C188.704 162.587 191.175 162.001 193.475 160.765C194.025 160.464 194.692 160.341 195.342 160.17C195.439 160.136 195.621 160.346 195.672 160.492C195.723 160.638 195.791 160.833 195.727 160.964C195.664 161.095 195.486 161.212 195.357 161.311C192.136 163.195 188.677 164.234 184.978 164.429C184.766 164.448 184.472 164.386 184.275 164.291C184.044 164.098 183.879 163.938 184.004 163.512Z" fill="#402716"/>
<path d="M68.8129 136.152C70.549 136.749 72.2554 137.575 73.5615 138.977C73.8092 139.218 73.9595 139.494 74.1098 139.769C74.1437 139.866 74.1627 140.078 74.0992 140.209C73.9721 140.472 73.7117 140.508 73.4661 140.429C73.3349 140.366 73.1549 140.319 73.0554 140.19C71.0718 138.096 68.438 137.429 65.8043 136.761C65.33 136.653 64.7923 136.677 64.4281 136.257C64.263 136.097 64.1784 135.853 64.1593 135.641C64.1234 135.381 64.3986 135.231 64.676 135.243C66.0161 135.487 67.4198 135.599 68.8129 136.152Z" fill="#402716"/>
<path d="M63.4483 157.614C63.0989 158.336 62.6542 159.255 62.2412 160.108C61.9702 160.584 61.3011 160.544 61.0344 160.091C60.901 159.864 60.7677 159.638 60.7486 159.426C60.5159 157.815 60.6431 156.297 61.3906 154.836C61.6765 154.245 62.2757 153.928 62.8156 154.067C63.4211 154.239 63.7852 154.658 63.891 155.276C63.982 156.009 63.7469 156.746 63.4483 157.614Z" fill="#402716"/>
<path d="M42.7034 159.805C43.4531 157.252 44.5141 154.808 46.117 152.668C46.3415 152.372 46.6506 152.319 46.947 152.543C47.1608 152.687 47.1968 152.948 47.0697 153.21C46.8791 153.604 46.7372 153.981 46.5297 154.326C44.7552 157.072 43.5714 160.103 42.8131 163.26C42.7665 163.44 42.703 163.571 42.6564 163.751C42.5463 164.063 42.4361 164.374 41.945 164.217C41.5681 164.075 41.5152 163.766 41.5597 163.423C41.6042 163.08 41.6656 162.786 41.7758 162.475C42.1061 161.541 42.4048 160.673 42.7034 159.805Z" fill="#402716"/>
<path d="M128.57 173.944C128.974 174.95 129.476 175.922 129.685 176.995C129.442 177.08 129.247 177.148 129.02 177.281C128.487 177.63 128.044 177.457 127.778 177.004C127.394 176.373 127.157 175.691 126.872 175.026C126.436 174.086 125.983 173.097 125.498 172.174C125.347 171.899 125.089 172.098 124.911 172.214L124.928 172.263C125.172 172.178 125.415 172.093 125.314 171.801C125.094 171.168 124.776 170.569 124.573 169.985C124.505 169.79 124.615 169.479 124.776 169.314C125.066 169.049 125.443 169.191 125.61 169.515C126.127 170.372 126.546 171.264 127.014 172.138C127.331 172.737 127.583 173.305 127.901 173.904C128.083 174.114 128.343 174.078 128.57 173.944Z" fill="#402716"/>
<path d="M157.08 158.136C156.9 158.089 156.589 157.979 156.309 157.803C156.161 157.691 155.962 157.432 155.992 157.204C156.019 156.812 156.343 156.645 156.686 156.689C157.095 156.766 157.504 156.842 157.912 156.918C160.349 157.49 162.784 157.899 165.303 157.296C165.498 157.228 165.792 157.29 165.894 157.582C166.013 157.923 165.902 158.234 165.578 158.401C165.091 158.57 164.653 158.723 164.132 158.795C161.74 159.135 159.453 158.839 157.08 158.136Z" fill="#402716"/>
<path d="M81.1516 183.882C83.309 184.278 85.532 184.706 87.7339 184.759C88.2886 184.784 88.8941 184.956 89.434 185.096C89.6796 185.174 89.8129 185.401 89.8489 185.661C89.8383 186.101 89.4169 186.302 89.1713 186.224C87.3379 185.661 85.4197 186.109 83.5714 185.66C83.0971 185.552 82.5424 185.527 82.1317 185.288C81.5559 184.887 81.2679 185.315 80.8635 185.565C80.6369 185.698 80.4697 185.374 80.4337 185.114C80.9186 184.781 80.9779 184.324 81.1516 183.882Z" fill="#402716"/>
<path d="M106.102 191.745C106.214 191.597 106.278 191.466 106.341 191.334C106.801 190.301 106.898 190.267 107.686 190.649C108.359 191.015 108.935 191.415 109.64 191.716C110.69 192.224 111.664 193.141 113.027 192.667C113.125 192.633 113.307 192.843 113.389 192.923C113.455 192.955 113.489 193.052 113.523 193.15C113.508 193.264 113.446 193.558 113.429 193.51C112.777 193.518 112.159 193.624 111.56 193.941C111.187 194.125 110.777 193.886 110.415 193.63C109.477 192.973 108.395 192.531 107.281 192.154C106.858 192.192 106.432 192.067 106.102 191.745Z" fill="#402716"/>
<path d="M143.396 178.123C143.248 176.755 143.231 176.706 144.108 176.402C144.789 176.164 145.537 175.959 146.236 175.771C146.479 175.686 146.758 175.862 146.746 176.139C146.765 176.351 146.672 176.711 146.525 176.762C145.926 177.079 145.293 177.299 144.709 177.503C144.173 177.689 144.243 178.047 144.378 178.436C144.497 178.777 144.404 179.137 144.063 179.256C142.845 179.679 141.622 179.613 140.428 179.319C140.313 179.304 140.114 179.046 140.146 178.98C140.176 178.751 140.335 178.423 140.481 178.372C141.425 178.262 142.386 178.201 143.396 178.123Z" fill="#402716"/>
<path d="M95.666 175.232C94.7724 176.743 93.6988 178.208 92.0134 179.013C91.6407 179.197 91.2512 179.332 90.8405 179.093C90.6266 178.949 90.4615 178.788 90.6373 178.509C90.669 178.443 90.6839 178.329 90.7812 178.295C92.5323 177.522 93.6228 176.106 94.6138 174.561C94.6773 174.429 94.8552 174.313 94.9356 174.23C95.1453 174.048 95.3908 174.127 95.6047 174.271C95.6872 174.351 95.8037 174.529 95.8058 174.692C95.7909 174.806 95.7443 174.986 95.666 175.232Z" fill="#402716"/>
<path d="M209.874 113.741C210.005 113.804 210.185 113.851 210.285 113.98C210.401 114.158 210.486 114.401 210.522 114.662C210.507 114.776 210.297 114.958 210.183 114.943C208.242 114.854 206.252 114.782 204.304 114.204C203.944 114.111 203.874 113.753 203.967 113.393C204.029 113.099 204.255 112.965 204.549 113.027C206.264 113.249 208.094 113.487 209.874 113.741Z" fill="#402716"/>
<path d="M76.4659 183.437C76.8427 183.579 76.9125 183.936 76.9654 184.245C77.0035 184.669 77.1728 185.156 76.7028 185.374C75.5848 185.926 74.4817 186.365 73.313 186.771C73.1669 186.822 72.8387 186.663 72.7223 186.485C72.6059 186.307 72.5361 185.949 72.6483 185.801C73.5948 184.599 74.9732 184.01 76.269 183.341C76.3346 183.373 76.4172 183.454 76.4659 183.437Z" fill="#402716"/>
<path d="M42.4149 165.255C42.4953 165.172 42.6245 165.073 42.7706 165.022C42.9654 164.954 43.1136 165.066 43.1326 165.278C43.1621 166.305 43.5453 166.936 44.625 167.215C44.985 167.309 44.9468 168.141 44.5762 168.488C44.3348 168.736 43.994 168.854 43.7293 168.564C43.4478 168.225 43.0392 168.149 42.6941 167.941C42.4485 167.863 42.3151 167.637 42.3766 167.342C42.3195 166.707 42.3428 165.989 42.4149 165.255Z" fill="#402716"/>
<path d="M56.9391 177.671C56.8439 177.868 56.6363 178.213 56.4119 178.51C56.1874 178.806 55.7301 178.747 55.5311 178.488C54.9003 177.616 54.4473 176.627 54.9386 175.528C55.1758 174.955 55.8745 174.766 56.3678 175.086C57.24 175.711 57.4114 176.361 56.9391 177.671Z" fill="#402716"/>
<path d="M106.102 191.746C106.45 192.116 106.875 192.241 107.316 192.252C107.563 192.493 107.665 192.786 107.44 193.082C107.248 193.313 107.036 193.332 106.79 193.253C106.234 193.065 105.645 192.942 105.249 192.588C104.606 191.993 103.189 192.158 103.318 190.803C104.422 190.365 105.084 191.172 105.937 191.585C105.986 191.568 106.069 191.648 106.102 191.746Z" fill="#402716"/>
<path d="M46.9958 150.015C47.0488 149.069 47.792 148.537 48.5521 148.055C48.7787 147.921 49.0221 147.837 49.2211 148.095C49.3376 148.273 49.4561 148.614 49.3926 148.745C48.914 149.567 48.3698 150.356 47.8256 151.146C47.6329 151.377 47.3089 151.544 46.9808 151.385C46.587 151.194 46.7458 150.866 46.856 150.555C46.7882 150.36 46.9005 150.212 46.9958 150.015Z" fill="#402716"/>
<path d="M193.178 111.249C192.833 111.042 192.558 111.192 192.3 111.391C191.961 111.672 191.622 111.954 191.241 111.486C190.86 111.018 190.528 110.533 190.814 109.943C191.004 109.549 191.229 109.252 191.701 109.197C192.059 109.128 192.289 109.32 192.537 109.562C192.901 109.981 192.471 110.785 193.24 110.955C193.274 111.052 193.21 111.184 193.178 111.249Z" fill="#402716"/>
<path d="M62.3523 189C61.5181 188.798 61.1751 188.754 60.8639 188.644C60.504 188.55 60.2563 188.309 60.3982 187.932C60.4448 187.752 60.7031 187.553 60.8979 187.486C62.0539 187.357 63.1337 187.636 64.0567 188.407C64.1392 188.487 64.207 188.682 64.2091 188.845C64.1794 189.074 63.9867 189.305 63.7581 189.275C63.1039 189.12 62.4666 189.014 62.3523 189Z" fill="#402716"/>
<path d="M220.807 140.944C220.43 140.802 220.056 140.823 219.683 141.007C219.518 140.846 219.384 140.62 219.236 140.507C218.857 140.202 217.898 140.427 218.197 139.559C218.417 138.936 219.137 139.123 219.692 139.148C220.295 139.157 220.951 139.474 221.55 139.157L221.713 139.155L221.845 139.218C221.542 139.76 221.356 140.48 220.807 140.944Z" fill="#402716"/>
<path d="M75.5478 134.956C75.9946 134.2 76.6045 133.442 77.6123 133.201C77.8071 133.133 78.0865 133.309 78.2516 133.47C78.4824 133.663 78.3553 133.925 78.1944 134.09C77.6312 134.668 77.0023 135.215 76.4221 135.744C76.2125 135.926 75.9839 135.896 75.77 135.752C75.4737 135.528 75.4546 135.316 75.5478 134.956Z" fill="#402716"/>
<path d="M69.8602 188.299C69.7861 188.871 69.0429 189.402 68.0817 189.463C67.7556 189.467 67.4275 189.309 67.3894 188.885C67.3513 188.462 67.0169 187.814 67.7156 187.625C68.2025 187.456 68.8737 187.659 69.1913 187.003C69.2866 186.806 69.6127 186.802 69.8752 186.929C70.089 187.073 70.125 187.334 70.0466 187.579C70.0149 187.645 70 187.759 69.8602 188.299Z" fill="#402716"/>
<path d="M52.6564 181.836C52.7856 181.737 52.8978 181.588 52.9952 181.554C53.4843 181.548 53.7171 181.904 53.9331 182.211C54.2485 182.647 54.5089 182.611 54.8964 182.313C55.1547 182.114 55.5633 182.19 55.6988 182.579C55.8342 182.969 55.8554 183.344 55.8934 183.767C55.9104 183.816 55.7643 183.867 55.7156 183.884C55.5356 183.837 55.3726 183.839 55.2731 183.71C54.7079 182.869 53.8399 182.571 52.8914 182.355C52.7771 182.34 52.4489 182.181 52.6564 181.836Z" fill="#402716"/>
<path d="M195.88 110.855C196.153 110.542 196.344 110.148 196.634 109.884C197.053 109.52 197.641 109.642 197.908 110.096C198.209 110.646 198.118 111.169 197.696 111.37C197.421 111.52 197.08 111.639 196.771 111.692C196.559 111.711 196.216 111.666 196.117 111.537C195.92 111.442 195.916 111.116 195.88 110.855Z" fill="#402716"/>
<path d="M181.222 162.733C181.04 162.523 180.892 162.411 180.841 162.265C180.79 162.119 180.885 161.922 180.966 161.839C181.563 161.359 182.278 161.219 183.013 161.291C183.127 161.306 183.293 161.467 183.343 161.613C183.394 161.759 183.413 161.971 183.333 162.053C182.77 162.631 181.988 162.739 181.222 162.733Z" fill="#402716"/>
<path d="M200.224 111.42C200.353 111.32 200.546 111.09 200.821 110.939C201.226 110.69 201.546 110.196 202.073 110.613C202.5 110.901 202.119 111.689 201.342 112.123C201.067 112.273 200.726 112.392 200.447 112.216C200.216 112.023 200.099 111.845 200.224 111.42Z" fill="#402716"/>
<path d="M93.6102 172.618C93.8304 171.995 94.4106 171.466 95.122 171C95.2194 170.966 95.4481 170.996 95.5793 171.059C95.7106 171.123 95.844 171.35 95.8122 171.415C95.5136 172.283 95.0668 173.039 94.0907 173.215C93.8303 173.251 93.5996 173.058 93.6102 172.618Z" fill="#402716"/>
<path d="M193.178 111.25C193.259 111.167 193.274 111.053 193.288 110.939C193.543 110.414 193.945 110.001 194.529 109.798C194.87 109.679 195.181 109.789 195.38 110.048C195.596 110.355 195.486 110.666 195.245 110.913C194.825 111.278 194.358 111.659 193.754 111.65C193.445 111.703 193.263 111.493 193.178 111.25Z" fill="#402716"/>
<path d="M81.1515 183.882C80.9778 184.324 80.9354 184.83 80.4654 185.048C79.9424 184.957 79.3982 185.747 78.9325 185.036C78.634 184.648 79.1168 184.153 80.1077 183.863C80.4168 183.81 80.7874 183.463 81.1515 183.882Z" fill="#402716"/>
<path d="M176.852 162.723C176.96 162.249 177.413 161.982 178.196 162.037C178.539 162.082 178.819 162.258 178.791 162.649C178.745 162.829 178.569 163.109 178.357 163.128C178.016 163.246 177.593 163.284 177.201 163.257C176.892 163.31 176.839 163.001 176.852 162.723Z" fill="#402716"/>
<path d="M81.1694 132.129C81.5124 132.173 81.6288 132.351 81.6161 132.629C81.5737 133.135 81.1058 133.516 80.6315 133.408C80.4516 133.361 80.2526 133.103 80.2335 132.891C80.2272 132.402 80.7121 132.07 81.1694 132.129Z" fill="#402716"/>
<path d="M124.911 172.214C124.458 172.481 124.79 172.966 124.631 173.294C124.536 173.491 124.36 173.77 124.197 173.772C124.034 173.774 123.755 173.599 123.638 173.421C123.488 173.146 123.581 172.786 123.888 172.57C124.195 172.354 124.688 172.674 124.911 172.214Z" fill="#402716"/>
<path d="M82.6764 132.696C82.3482 132.537 82.2953 132.228 82.4054 131.917C82.5325 131.654 82.7273 131.587 82.9729 131.665C83.3984 131.79 83.5677 132.277 83.2946 132.59C83.1337 132.755 82.8733 132.791 82.6764 132.696Z" fill="#402716"/>
<path d="M264.905 135.272C263.679 135.043 262.517 134.683 260.942 133.921C262.604 133.834 263.574 134.425 264.653 134.704C264.77 134.882 264.837 135.077 264.905 135.272Z" fill="#402716"/>
<path d="M155.823 213.704C155.336 213.873 154.861 213.765 154.434 213.477C154.285 213.365 154.021 213.075 154.084 212.943C154.178 212.583 154.504 212.579 154.864 212.672C155.109 212.751 155.306 212.846 155.552 212.924C155.653 213.217 155.738 213.46 155.823 213.704Z" fill="#402716"/>
</g>
<path d="M79.0377 118.49C79.7133 117.958 80.1861 117.602 80.4562 117.423C80.9771 117.077 81.3202 117.028 81.4857 117.277C81.613 117.469 81.6216 117.67 81.5116 117.881C81.2403 118.31 80.9532 118.694 80.6503 119.033C80.3667 119.36 80.1122 119.625 79.8869 119.83C79.6616 120.035 79.2915 120.336 78.7768 120.734C78.2941 121.137 77.9015 121.467 77.599 121.723C76.8717 122.345 76.3537 122.758 76.0451 122.963C75.6207 123.245 75.2582 123.306 74.9577 123.147C74.8362 123.09 74.7373 123.004 74.6609 122.889C74.4955 122.64 74.4936 122.365 74.6553 122.064C74.927 121.552 75.1527 120.616 75.3323 119.254C75.4993 117.873 75.59 116.335 75.6047 114.641C75.6017 113.926 75.5684 113.52 75.5048 113.424C75.4666 113.367 75.3802 113.341 75.2456 113.348C75.1302 113.342 75.034 113.364 74.9568 113.415C74.8604 113.48 74.7444 113.598 74.609 113.771C74.2864 114.206 73.7199 114.693 72.9097 115.231C71.5786 116.116 70.7158 116.261 70.3212 115.667C70.194 115.476 70.182 115.291 70.2855 115.111C70.3372 115.022 70.9163 114.554 72.0229 113.708C73.1361 112.831 73.7281 112.341 73.7991 112.238C73.9797 112.008 74.4559 111.636 75.2275 111.123C75.8063 110.739 76.1792 110.505 76.3462 110.421C76.5133 110.338 76.6865 110.306 76.8659 110.325C77.0966 110.337 77.2565 110.41 77.3455 110.544C77.3583 110.563 77.371 110.583 77.3837 110.602C77.4983 110.774 77.4823 111.42 77.3359 112.539C77.1894 113.657 77.1191 114.284 77.1249 114.418C77.1302 114.636 77.0968 114.92 77.0246 115.272C76.9589 115.591 76.938 115.937 76.9619 116.307C76.9857 116.678 76.9675 117.132 76.9072 117.669C76.8535 118.174 76.8162 118.599 76.7953 118.944C76.7616 119.27 76.7894 119.5 76.8784 119.635C77.0057 119.826 77.243 119.806 77.5902 119.576C77.8796 119.383 78.3621 119.021 79.0377 118.49Z" fill="#624E40"/>
<path d="M90.8417 110.646C91.5174 110.114 91.9902 109.759 92.2603 109.579C92.7811 109.233 93.1243 109.185 93.2898 109.434C93.417 109.625 93.4257 109.826 93.3157 110.038C93.0444 110.466 92.7573 110.85 92.4544 111.19C92.1708 111.516 91.9163 111.782 91.691 111.987C91.4656 112.192 91.0956 112.493 90.5809 112.89C90.0982 113.294 89.7056 113.624 89.4031 113.88C88.6758 114.501 88.1578 114.914 87.8491 115.119C87.4247 115.401 87.0623 115.463 86.7618 115.304C86.6403 115.246 86.5413 115.16 86.465 115.045C86.2995 114.796 86.2977 114.521 86.4594 114.221C86.7311 113.709 86.9567 112.772 87.1364 111.41C87.3033 110.029 87.3941 108.492 87.4087 106.798C87.4058 106.082 87.3725 105.676 87.3089 105.58C87.2707 105.523 87.1843 105.498 87.0496 105.504C86.9343 105.498 86.838 105.521 86.7609 105.572C86.6644 105.636 86.5485 105.754 86.413 105.927C86.0904 106.362 85.524 106.849 84.7138 107.388C83.3826 108.272 82.5198 108.418 82.1253 107.824C81.998 107.632 81.9861 107.447 82.0895 107.268C82.1412 107.178 82.7204 106.71 83.827 105.865C84.9401 104.987 85.5322 104.497 85.6032 104.395C85.7838 104.164 86.2599 103.793 87.0316 103.28C87.6103 102.895 87.9832 102.661 88.1503 102.578C88.3173 102.494 88.4906 102.462 88.6699 102.481C88.9006 102.493 89.0605 102.567 89.1496 102.701C89.1623 102.72 89.1751 102.739 89.1878 102.758C89.3023 102.931 89.2864 103.576 89.1399 104.695C88.9935 105.814 88.9232 106.44 88.9289 106.575C88.9343 106.792 88.9009 107.076 88.8286 107.428C88.763 107.748 88.7421 108.093 88.7659 108.464C88.7898 108.834 88.7716 109.288 88.7113 109.825C88.6575 110.33 88.6202 110.756 88.5993 111.101C88.5657 111.427 88.5934 111.657 88.6825 111.791C88.8098 111.982 89.047 111.963 89.3943 111.732C89.6837 111.54 90.1661 111.178 90.8417 110.646Z" fill="#624E40"/>
<path d="M102.646 102.802C103.321 102.271 103.794 101.915 104.064 101.736C104.585 101.389 104.928 101.341 105.094 101.59C105.221 101.781 105.23 101.983 105.12 102.194C104.848 102.623 104.561 103.007 104.258 103.346C103.975 103.673 103.72 103.938 103.495 104.143C103.27 104.348 102.9 104.649 102.385 105.046C101.902 105.45 101.51 105.78 101.207 106.036C100.48 106.658 99.9619 107.071 99.6532 107.276C99.2288 107.558 98.8663 107.619 98.5658 107.46C98.4443 107.403 98.3454 107.317 98.269 107.202C98.1036 106.953 98.1017 106.678 98.2634 106.377C98.5351 105.865 98.7608 104.928 98.9405 103.567C99.1074 102.186 99.1982 100.648 99.2128 98.9543C99.2099 98.2384 99.1766 97.8326 99.1129 97.7368C99.0748 97.6793 98.9883 97.6539 98.8537 97.6606C98.7384 97.6544 98.6421 97.6769 98.5649 97.7282C98.4685 97.7923 98.3525 97.9108 98.2171 98.0836C97.8945 98.5188 97.3281 99.0056 96.5178 99.544C95.1867 100.429 94.3239 100.574 93.9294 99.9802C93.8021 99.7886 93.7902 99.6033 93.8936 99.4241C93.9453 99.3346 94.5245 98.8669 95.631 98.0212C96.7442 97.1434 97.3363 96.6534 97.4073 96.551C97.5879 96.3205 98.064 95.9489 98.8356 95.4362C99.4144 95.0516 99.7873 94.8176 99.9543 94.7342C100.121 94.6508 100.295 94.6186 100.474 94.6374C100.705 94.6498 100.865 94.723 100.954 94.8571C100.966 94.8762 100.979 94.8954 100.992 94.9145C101.106 95.0869 101.09 95.7325 100.944 96.8514C100.798 97.9703 100.727 98.5968 100.733 98.731C100.738 98.9483 100.705 99.2328 100.633 99.5845C100.567 99.9042 100.546 100.249 100.57 100.62C100.594 100.991 100.576 101.445 100.515 101.982C100.462 102.487 100.424 102.912 100.403 103.257C100.37 103.583 100.397 103.813 100.487 103.947C100.614 104.139 100.851 104.119 101.198 103.888C101.488 103.696 101.97 103.334 102.646 102.802Z" fill="#624E40"/>
<path d="M114.45 94.9588C115.125 94.4271 115.598 94.0715 115.868 93.892C116.389 93.5459 116.732 93.4973 116.898 93.7463C117.025 93.9378 117.034 94.1392 116.924 94.3503C116.653 94.7791 116.365 95.1631 116.063 95.5024C115.779 95.8289 115.524 96.0946 115.299 96.2996C115.074 96.5046 114.704 96.8056 114.189 97.2029C113.706 97.6064 113.314 97.9363 113.011 98.1926C112.284 98.8139 111.766 99.2271 111.457 99.4322C111.033 99.7142 110.67 99.7756 110.37 99.6164C110.248 99.5591 110.149 99.4729 110.073 99.358C109.908 99.109 109.906 98.8342 110.067 98.5335C110.339 98.0216 110.565 97.0848 110.745 95.723C110.911 94.342 111.002 92.8046 111.017 91.1107C111.014 90.3948 110.981 89.989 110.917 89.8932C110.879 89.8357 110.792 89.8103 110.658 89.817C110.542 89.8108 110.446 89.8333 110.369 89.8846C110.273 89.9487 110.157 90.0672 110.021 90.24C109.699 90.6752 109.132 91.162 108.322 91.7004C106.991 92.5849 106.128 92.7303 105.733 92.1366C105.606 91.945 105.594 91.7597 105.698 91.5805C105.749 91.491 106.329 91.0233 107.435 90.1776C108.548 89.2998 109.14 88.8098 109.211 88.7074C109.392 88.4769 109.868 88.1053 110.64 87.5926C111.218 87.208 111.591 86.974 111.758 86.8906C111.925 86.8072 112.099 86.775 112.278 86.7938C112.509 86.8062 112.669 86.8794 112.758 87.0135C112.77 87.0326 112.783 87.0518 112.796 87.0709C112.91 87.2433 112.895 87.8889 112.748 89.0078C112.602 90.1266 112.531 90.7532 112.537 90.8874C112.542 91.1047 112.509 91.3892 112.437 91.7409C112.371 92.0606 112.35 92.4058 112.374 92.7765C112.398 93.1472 112.38 93.6011 112.319 94.1381C112.266 94.6432 112.228 95.0683 112.207 95.4135C112.174 95.7396 112.202 95.9696 112.291 96.1037C112.418 96.2952 112.655 96.2756 113.002 96.0449C113.292 95.8526 113.774 95.4906 114.45 94.9588Z" fill="#624E40"/>
<path d="M126.254 87.1152C126.93 86.5835 127.402 86.2279 127.672 86.0484C128.193 85.7023 128.536 85.6537 128.702 85.9027C128.829 86.0942 128.838 86.2956 128.728 86.5067C128.457 86.9355 128.169 87.3195 127.867 87.6588C127.583 87.9853 127.328 88.251 127.103 88.456C126.878 88.661 126.508 88.962 125.993 89.3593C125.51 89.7628 125.118 90.0927 124.815 90.349C124.088 90.9703 123.57 91.3835 123.261 91.5886C122.837 91.8706 122.474 91.932 122.174 91.7728C122.052 91.7155 121.954 91.6293 121.877 91.5144C121.712 91.2654 121.71 90.9906 121.872 90.6899C122.143 90.178 122.369 89.2412 122.549 87.8794C122.716 86.4984 122.806 84.961 122.821 83.2671C122.818 82.5512 122.785 82.1454 122.721 82.0496C122.683 81.9921 122.596 81.9667 122.462 81.9734C122.346 81.9672 122.25 81.9897 122.173 82.041C122.077 82.1051 121.961 82.2236 121.825 82.3964C121.503 82.8316 120.936 83.3184 120.126 83.8568C118.795 84.7413 117.932 84.8867 117.537 84.293C117.41 84.1014 117.398 83.9161 117.502 83.7369C117.553 83.6474 118.133 83.1797 119.239 82.334C120.352 81.4562 120.944 80.9662 121.015 80.8638C121.196 80.6333 121.672 80.2617 122.444 79.749C123.023 79.3644 123.395 79.1304 123.562 79.047C123.73 78.9636 123.903 78.9314 124.082 78.9502C124.313 78.9626 124.473 79.0358 124.562 79.1699C124.575 79.189 124.587 79.2082 124.6 79.2273C124.715 79.3997 124.699 80.0453 124.552 81.1642C124.406 82.283 124.335 82.9096 124.341 83.0438C124.346 83.2611 124.313 83.5456 124.241 83.8973C124.175 84.217 124.154 84.5622 124.178 84.9329C124.202 85.3036 124.184 85.7575 124.123 86.2945C124.07 86.7996 124.032 87.2247 124.012 87.5699C123.978 87.896 124.006 88.126 124.095 88.2601C124.222 88.4516 124.459 88.432 124.806 88.2013C125.096 88.009 125.578 87.647 126.254 87.1152Z" fill="#624E40"/>
<path d="M138.058 79.2716C138.734 78.7399 139.206 78.3843 139.477 78.2048C139.997 77.8587 140.341 77.8101 140.506 78.0591C140.633 78.2506 140.642 78.452 140.532 78.6631C140.261 79.0919 139.974 79.4759 139.671 79.8152C139.387 80.1417 139.133 80.4074 138.907 80.6124C138.682 80.8173 138.312 81.1184 137.797 81.5157C137.314 81.9192 136.922 82.2491 136.619 82.5054C135.892 83.1267 135.374 83.5399 135.065 83.745C134.641 84.027 134.279 84.0884 133.978 83.9292C133.857 83.8719 133.758 83.7857 133.681 83.6708C133.516 83.4218 133.514 83.147 133.676 82.8463C133.947 82.3344 134.173 81.3976 134.353 80.0358C134.52 78.6548 134.61 77.1174 134.625 75.4235C134.622 74.7076 134.589 74.3018 134.525 74.206C134.487 74.1485 134.401 74.1231 134.266 74.1298C134.151 74.1236 134.054 74.1461 133.977 74.1974C133.881 74.2615 133.765 74.3799 133.629 74.5528C133.307 74.988 132.74 75.4748 131.93 76.0132C130.599 76.8977 129.736 77.0431 129.342 76.4494C129.214 76.2578 129.202 76.0725 129.306 75.8933C129.358 75.8037 129.937 75.3361 131.043 74.4903C132.156 73.6126 132.748 73.1226 132.819 73.0202C133 72.7897 133.476 72.4181 134.248 71.9054C134.827 71.5208 135.199 71.2868 135.367 71.2034C135.534 71.12 135.707 71.0878 135.886 71.1066C136.117 71.119 136.277 71.1922 136.366 71.3263C136.379 71.3454 136.391 71.3646 136.404 71.3837C136.519 71.5561 136.503 72.2017 136.356 73.3206C136.21 74.4394 136.139 75.066 136.145 75.2002C136.151 75.4175 136.117 75.702 136.045 76.0537C135.979 76.3734 135.958 76.7186 135.982 77.0893C136.006 77.46 135.988 77.9139 135.928 78.4509C135.874 78.956 135.836 79.3811 135.816 79.7263C135.782 80.0524 135.81 80.2824 135.899 80.4165C136.026 80.608 136.263 80.5884 136.611 80.3577C136.9 80.1654 137.382 79.8034 138.058 79.2716Z" fill="#624E40"/>
<defs>
<clipPath id="clip0_944_2901">
<rect width="132.245" height="249.951" fill="white" transform="translate(66.4326 264) rotate(-109.173)"/>
</clipPath>
</defs>
</svg>
