<svg width="382" height="446" viewBox="0 0 382 446" fill="none" xmlns="http://www.w3.org/2000/svg">
<g clip-path="url(#clip0_944_2998)">
<path d="M286.208 257.567C282.41 265.425 278.153 273.058 275.595 281.237C276.511 281.444 276.197 282.777 275.281 282.571C275.092 282.563 274.876 282.486 274.769 282.448C274.527 282.542 274.123 282.458 273.96 282.279C265.043 280.358 256.735 276.907 249.681 271.917C243.006 267.183 234.487 260.103 234.648 251.489C234.765 244.424 241.266 238.496 249.104 240.032C257.94 241.744 261.596 249.917 268.537 254.143C269.335 248.346 271.628 240.673 276.957 236.736C281.429 233.456 287.093 235.6 289.323 239.408C292.586 244.91 288.891 252.082 286.208 257.567Z" fill="#EDD6D6"/>
<path d="M346.392 338.937C346.028 338.963 345.664 338.989 345.32 339.066C344.651 339.269 343.679 339.243 343.886 340.321C344.061 341.18 344.83 340.822 345.419 340.824C346.669 340.741 347.533 341.448 348.097 342.618C348.321 343.053 348.51 343.675 348.396 344.067C348.215 344.834 347.481 344.598 346.893 344.597C342.244 344.326 337.602 343.936 332.993 343.359C329.688 342.969 326.38 342.986 323.137 343.441C313.362 344.825 303.468 344.399 293.535 343.874C292.179 343.823 291.216 343.272 290.473 342.055C289.257 340.037 287.783 338.178 286.208 336.474C285.912 336.126 285.418 335.681 284.94 336.1C284.489 336.45 284.546 337.008 284.928 337.438C287.575 340.52 289.678 343.989 291.974 347.266C294.415 350.777 297.712 353.199 301.137 355.398C303.928 357.206 306.926 358.586 310.011 359.642C311.807 360.273 313.531 360.991 315.255 361.71C316.47 362.22 317.911 362.353 317.764 364.44C317.722 365.152 318.958 365.307 319.472 365.802C319.92 366.264 320.434 366.759 319.896 367.433C319.211 368.28 318.159 368.46 317.698 367.828C317.191 367.214 316.823 366.546 316.316 365.933C315.895 365.402 315.255 365.13 314.632 365.315C314.334 365.374 314.042 365.72 313.889 366.012C313.815 366.098 313.992 366.551 314.144 366.665C314.619 367.06 315.24 367.281 315.688 367.744C316.307 368.371 316.092 369.325 315.31 369.514C313.794 369.875 312.212 370.203 310.619 369.956C308.913 369.694 307.181 369.501 305.509 369.053C299.159 367.301 292.783 365.618 286.641 363.031C284.323 362.024 281.938 361.39 279.465 361.081C278.857 361.028 278.249 360.976 277.647 360.805C271.253 358.665 264.782 358.932 258.339 359.13C256.163 359.168 253.967 359.157 251.771 359.145C248.668 359.139 245.721 358.435 242.85 356.832C241.074 355.845 239.245 354.994 237.443 354.074C236.895 353.767 236.321 353.527 235.7 353.306C235.323 353.163 234.906 353.326 234.904 353.733C234.864 354.039 235.014 354.56 235.251 354.757C235.858 355.216 236.538 355.588 237.218 355.96C239.482 357.104 241.727 358.199 243.991 359.343C244.453 359.568 244.915 359.794 245.331 360.037C245.483 360.152 245.713 360.468 245.679 360.655C245.646 360.842 245.407 361.051 245.241 361.174C244.551 361.733 243.516 360.862 242.897 361.742C243.561 362.758 244.259 363.587 245.609 363.349C246.318 363.246 247.071 363.532 247.765 363.667C248.28 363.755 248.842 363.825 249.01 363.296C249.825 361.006 251.875 361.191 253.556 361.114C258.875 360.776 264.254 360.588 269.623 360.925C271.812 361.056 274.014 361.355 276.16 362.198C276.847 362.451 277.58 362.687 278.301 362.753C281.409 363.046 284.369 363.919 287.261 365.166C292.96 367.578 298.848 369.104 304.736 370.631C306.877 371.186 309.125 371.467 311.287 371.666C315.631 372.114 319.382 370.359 322.87 368.069C324.024 367.328 324.175 365.936 323.366 364.686C322.662 363.57 321.62 362.817 320.505 362.152C317.416 360.401 314.14 359.13 310.857 357.978C305.222 356.005 300.128 352.951 295.646 348.73C294.98 348.121 294.242 347.598 293.934 346.674C293.816 346.372 293.54 346.075 293.62 345.869C293.754 345.527 294.11 345.62 294.394 345.799C296.927 345.853 299.507 345.889 302.06 345.993C309.037 346.34 315.937 346.08 322.826 345.244C326.545 344.776 330.356 344.679 334.131 345.176C338.13 345.7 342.177 346.207 346.173 346.037C346.695 346.007 346.979 346.186 347.334 346.685C348.182 348.035 348.275 347.999 349.052 347.115C351.206 344.419 350.801 341.33 349.596 338.381C348.402 335.6 345.101 333.991 342.817 334.71C342.585 334.8 342.314 334.79 342.128 334.863C338.716 336.254 335.219 335.648 331.683 334.943C328.194 334.219 324.711 333.376 321.201 332.602C320.263 332.389 319.278 332.194 318.267 332.067C317.929 332.025 317.591 332.389 317.589 332.796C317.555 332.983 317.739 333.317 317.891 333.432C318.194 333.661 318.544 333.872 318.901 333.965C323.864 335.04 328.76 336.49 333.752 337.091C333.977 337.119 334.248 337.129 334.492 337.208C337.194 338.24 339.716 337.718 342.24 336.79C343.836 336.225 345.502 336.385 346.905 337.924C347.248 338.254 347.683 338.548 347.291 339.049C347.172 339.154 346.683 338.997 346.392 338.937ZM246.59 361.343C246.457 361.278 246.325 361.214 246.259 361.182C246.359 361.027 246.459 360.872 246.625 360.749C246.671 360.731 246.823 360.846 246.955 360.91C246.809 361.083 246.689 361.188 246.59 361.343Z" fill="#402716"/>
<path d="M140.213 315.472C139.933 315.987 139.753 316.347 139.6 316.639C139.466 316.981 139.24 317.359 139.609 317.621C139.893 317.8 140.316 317.924 140.594 317.816C140.938 317.739 141.184 317.411 141.404 317.151C147.787 310.368 156.034 307.262 164.596 304.961C172.767 302.755 181.128 302.677 189.633 304.746C191.933 305.297 194.254 305.492 196.567 305.806C200.587 306.381 204.626 307.006 208.645 307.581C209.273 307.683 209.862 307.685 210.528 308.295C209.531 309.438 208.469 310.549 207.538 311.724C206.8 312.708 205.95 313.678 205.759 314.97C205.658 315.531 205.901 316.016 206.456 316.205C206.813 316.297 207.289 316.285 207.403 315.893C207.992 313.981 209.162 312.597 210.417 311.295C212.981 308.554 216.202 306.948 219.764 306.078C221.028 305.758 222.418 305.621 223.592 304.931C224.016 304.649 224.428 304.198 224.231 303.695C224.101 303.225 223.546 303.035 222.99 303.253C220.127 304.545 216.82 304.562 213.996 305.954C213.108 306.417 212.077 306.24 211.112 306.096C209.294 305.82 207.456 305.494 205.638 305.219C203.192 304.841 200.773 304.395 198.32 304.136C194.763 303.786 191.266 303.181 187.73 302.475C179.072 300.698 170.663 301.2 162.431 303.662C159.411 304.551 156.451 305.592 153.529 306.733C150.217 307.969 147.253 309.823 144.493 312.061C143.205 313.143 141.828 313.449 140.135 313.357C136.392 313.08 133.23 311.416 130.243 309.105C128.469 307.711 127.266 305.862 126.533 303.713C125.853 301.834 125.536 299.928 125.312 297.987C124.645 290.943 126.993 285.735 132.721 282.338C137.767 279.381 142.989 276.878 148.879 276.084C150.295 275.879 151.724 275.842 153.21 276.363C155.383 277.137 157.281 275.701 157.581 273.322C158.031 269.958 156.041 266.097 153.058 264.48C151.236 263.51 149.313 263.102 147.348 263C141.681 262.721 136.142 263.319 130.902 265.366C127.888 266.544 124.788 267.639 122.009 269.42C120.265 270.565 118.732 271.975 117.627 273.799C116.122 276.241 114.618 278.684 113.246 281.192C111.501 284.25 110.284 287.566 109.82 291.168C109.684 292.323 109.481 293.446 109.232 294.586C108.726 296.987 108.717 299.426 109.157 301.921C109.669 304.735 110.041 307.605 110.506 310.437C110.551 310.826 110.689 311.178 110.846 311.58C110.924 311.781 111.294 312.043 111.387 312.007C111.711 311.88 112.136 311.598 112.15 311.361C112.18 310.479 112.144 309.566 111.995 308.638C111.68 306.327 111.299 303.983 110.871 301.657C110.476 299.55 110.484 297.518 110.921 295.492C111.562 292.343 111.799 289.119 112.995 286.159C114.778 281.694 117.347 277.734 119.982 273.806C120.9 272.462 122.18 271.498 123.539 270.735C130.539 266.899 137.95 264.526 146.131 264.809C148.347 264.871 150.509 265.07 152.614 266.218C154.72 267.367 156.381 270.66 156.027 273.176C155.878 274.161 155.181 274.84 154.308 274.659C148.062 273.446 142.511 275.383 137.104 277.959C134.937 278.979 132.763 280.118 130.8 281.523C125.892 284.832 123.518 289.701 123.639 296.031C123.687 299.027 124.192 301.961 125.312 304.828C126.412 307.644 128.117 309.819 130.485 311.503C133.064 313.452 135.672 314.52 140.213 315.472Z" fill="#402716"/>
<path d="M167.723 373.715C167.572 375.108 166.511 375.812 165.819 376.778C164.562 378.486 163.2 380.062 161.99 381.752C158.378 386.874 153.792 390.868 148.765 394.281C145.767 396.322 142.645 398.18 139.686 400.321C139.401 400.548 139.03 400.693 138.686 400.77C138.481 400.792 138.17 400.681 137.999 400.516C137.827 400.351 137.736 399.981 137.79 399.844C138.745 397.5 139.785 395.238 141.308 393.252C142.119 392.182 143.128 391.208 143.438 389.811C143.472 389.624 143.4 389.304 143.229 389.139C142.952 388.842 142.602 388.63 142.31 388.976C139.612 392.059 137.502 395.551 135.998 399.5C135.678 400.321 136.024 401.346 136.736 401.937C138.694 403.665 142.399 403.435 143.897 401.111C145.421 398.719 147.609 397.342 149.804 395.847C154.831 392.433 159.398 388.389 163.095 383.35C165.236 380.484 167.377 377.619 169.584 374.786C171.107 372.799 172.874 372.399 174.932 373.972C175.558 374.481 175.98 375.012 176.768 374.704C177.993 374.283 179.258 373.963 180.483 373.543C181.616 373.158 183.034 374.053 184.397 373.985C189.524 373.837 194.599 373.42 199.649 372.665C203.031 372.155 206.419 371.933 209.831 372.05C216.928 372.292 223.628 370.834 229.766 367.393C231.264 366.576 232.755 365.877 234.273 365.111C234.412 365.056 234.46 364.632 234.381 364.43C234.303 364.229 234.046 363.982 233.887 363.986C232.876 363.859 232.046 364.473 231.185 364.868C228.303 366.109 225.479 367.502 222.519 368.543C219.141 369.746 215.692 370.224 212.141 370.162C206.009 370.064 199.994 370.675 193.965 371.523C190.722 371.978 187.395 371.944 184.1 372.13C182.896 372.194 181.765 372.172 180.606 372.625C179.4 373.096 177.807 372.849 176.446 372.511C171.959 371.423 171.998 371.524 169.966 371.796C168.623 371.914 168.268 372.923 167.696 373.784L167.723 373.715Z" fill="#402716"/>
<path d="M226.674 262.333C230.287 263.647 232.734 265.532 234.774 268.155C236.88 270.811 239.013 273.398 241.166 276.035C241.272 276.168 241.635 276.142 241.801 276.019C241.967 275.897 242.14 275.655 242.108 275.436C242.15 274.723 241.729 274.192 241.374 273.693C239.182 270.955 237.036 268.199 234.751 265.497C233.039 263.441 230.921 262.123 228.584 261.065C227.105 260.426 225.64 261.056 225.092 262.661C224.844 263.396 224.709 264.144 224.64 264.925C224.274 268.778 223.571 272.589 223.927 276.509C223.964 277.016 223.843 277.527 223.795 277.951C222.895 278.245 222.268 277.736 221.608 277.414C217.838 275.699 214.048 273.933 210.277 272.217C209.373 271.817 208.395 271.503 207.483 271.221C207.305 271.175 207.066 271.384 206.92 271.557C206.647 271.954 206.851 272.338 207.154 272.567C207.92 273.022 208.712 273.408 209.484 273.744C213.717 275.685 217.949 277.626 222.182 279.567C224.011 280.418 224.03 280.468 223.957 282.468C223.925 283.756 223.762 284.98 223.65 286.473C221.566 286.475 219.791 285.487 217.921 284.942C216.85 284.665 215.874 283.944 214.756 284.091C214.551 284.114 214.312 284.323 214.232 284.528C214.198 284.715 214.309 285.136 214.441 285.2C215.319 285.669 216.243 286.119 217.128 286.469C219.123 287.198 221.098 287.875 223.232 288.549C223.224 290.581 223.177 292.513 223.176 294.426C223.167 294.951 223.159 295.477 223.309 295.998C223.38 296.318 223.696 296.716 224.007 296.827C224.383 296.969 224.761 296.706 224.809 296.281C224.951 295.414 225.028 294.515 225.038 293.583C225.055 292.533 224.98 291.519 225.017 290.519C225.054 289.519 225.478 289.237 226.522 289.583C229.125 290.363 231.775 291.125 234.257 292.417C234.719 292.642 235.181 292.867 235.65 292.974C235.829 293.02 236.068 292.811 236.214 292.638C236.453 292.429 236.42 292.209 236.163 291.962C235.03 290.839 233.59 290.3 232.216 289.793C230.446 289.093 228.669 288.512 226.892 287.931C225.961 287.599 225.4 287.122 225.491 285.985C225.868 280.794 225.16 280.897 229.788 283.031C233.202 284.654 236.589 286.346 240.002 287.969C240.53 288.227 241.158 288.329 241.74 288.45C241.852 288.464 242.052 288.154 242.179 287.931C242.205 287.862 242.173 287.643 242.087 287.561C241.566 287.184 241.092 286.79 240.517 286.551C236.206 284.408 231.915 282.316 227.623 280.224C226.369 279.613 225.776 278.917 225.69 277.327C225.378 272.289 226.025 267.514 226.674 262.333Z" fill="#402716"/>
<path d="M277 266.791C276.67 266.63 276.426 266.551 276.254 266.386C275.892 266.006 275.483 265.644 274.973 265.843C274.324 266.097 274.579 266.751 274.849 267.167C275.533 268.233 275.417 269.032 274.64 269.916C271.206 273.576 267.792 277.287 264.424 280.979C263.673 281.794 262.817 282.477 262.475 283.654C262.381 284.096 262.499 284.398 262.849 284.609C263.047 284.706 263.364 284.698 263.53 284.575C263.888 284.261 264.208 283.847 264.5 283.501C268.133 279.53 271.833 275.592 275.467 271.622C276.29 270.72 276.806 270.809 277.517 271.807C277.832 272.205 278.168 272.654 278.438 273.07C280.087 275.788 280.073 276.026 277.711 278.05C276.708 278.905 275.726 279.811 274.744 280.716C274.624 280.821 274.689 281.26 274.813 281.443C274.919 281.576 275.203 281.755 275.408 281.732C276.162 281.612 276.628 281.024 277.218 280.62C278.471 279.724 279.416 278.311 281.052 277.846C283.227 279.721 284.998 281.928 285.847 284.785C286.526 287.071 287.927 289.016 289.051 291.071C289.438 291.789 289.925 292.352 290.605 292.724C291.786 293.422 291.48 294.006 290.776 294.803C290.337 295.322 290.671 296.177 291.28 296.229C292.271 296.306 293.244 296.332 294.216 296.358C294.646 296.364 294.938 296.017 294.847 295.647C294.566 294.655 295.262 294.384 295.747 293.846C296.252 293.359 295.804 292.897 295.415 292.585C295.111 292.355 294.715 292.162 294.378 292.12C291.468 291.923 290.147 289.773 288.979 287.33C288.559 286.393 287.981 285.459 287.608 284.503C286.679 281.852 285.252 279.568 283.428 277.498C282.598 276.605 282.692 276.162 283.628 275.275C283.774 275.101 284.006 275.011 284.218 274.87C284.689 274.57 284.942 274.123 284.587 273.625C284.232 273.126 283.722 273.325 283.278 273.556C283.065 273.697 282.834 273.788 282.668 273.91C281.912 274.438 281.337 274.198 280.771 273.434C280.186 272.619 279.415 271.877 278.949 270.957C278.115 269.37 278.073 268.169 279.309 266.816C280.956 265.013 282.412 262.995 283.433 260.683C283.694 260.118 283.98 259.484 283.632 258.866C283.554 258.665 283.111 258.49 283.065 258.508C282.726 258.872 282.368 259.186 282.161 259.615C280.84 262.392 279.026 264.724 277 266.791ZM292.629 294.485C292.365 294.356 292.055 294.245 291.79 294.116C291.871 293.911 291.938 293.537 292.004 293.569C292.388 293.593 292.925 293.326 293.068 293.965C293.061 294.084 292.802 294.243 292.629 294.485Z" fill="#402716"/>
<path d="M119.148 398.373C125.365 395.133 131.845 392.427 137.201 387.668C138.084 386.918 139.097 386.638 140.149 386.458C141.817 386.213 143.446 385.866 145.121 385.502C145.26 385.448 145.327 385.073 145.361 384.886C145.402 384.58 145.257 384.347 144.94 384.355C144.331 384.303 143.703 384.2 143.134 384.249C142.062 384.378 140.983 384.625 139.911 384.754C138.316 384.913 136.965 385.558 135.677 386.64C130.442 390.888 124.471 393.801 118.441 396.562C117.997 396.794 117.381 396.86 117.192 396.238C116.531 394.409 116.19 395.18 115.386 396.132C113.805 397.967 111.827 398.102 110.547 397.153C108.746 395.827 108.643 395.288 110.183 393.758C110.834 393.098 111.367 392.137 112.55 392.428C113.085 392.567 111.949 393.764 110.77 394.167C110.678 394.203 110.519 394.207 110.406 394.193C110.175 394.284 109.969 394.306 109.757 394.447C109.664 394.483 109.65 394.72 109.67 394.771C109.749 394.972 109.866 395.274 110.018 395.388C111.92 396.153 113.994 395.168 114.056 392.999C114.115 391.237 114.859 390.54 115.947 389.768C116.822 389.136 117.593 388.371 118.343 387.556C120.773 385.157 123.118 382.676 125.845 380.625C126.581 380.048 127.535 379.617 127.718 378.444C127.733 378.207 127.634 377.955 127.536 377.704C127.516 377.653 127.272 377.575 127.179 377.611C126.762 377.774 126.259 377.855 125.9 378.169C124.474 379.306 123.047 380.443 121.64 381.63C121.07 382.085 120.597 382.791 119.975 382.976C118.115 383.413 117.105 384.387 116.648 386.363C116.513 387.112 115.617 387.693 114.908 388.202C113.515 389.152 112.037 390.02 110.624 390.919C109.729 391.501 108.768 392.05 107.912 392.733C106.744 393.711 106.559 395.29 107.461 396.503C108.928 398.481 110.748 399.857 113.183 399.659C115.227 399.557 117.259 399.285 119.148 398.373Z" fill="#402716"/>
<path d="M127.337 324.792C127.09 325.527 126.83 326.092 126.701 326.722C126.164 328.903 125.123 331.165 127.855 332.822C128.357 333.148 128.116 333.764 128.068 334.189C127.772 337.261 127.476 340.333 127.067 343.392C126.726 346.076 126.768 348.784 127.399 351.494C128.467 356.005 128.628 360.522 128.584 365.062C128.565 368.026 128.547 370.989 128.549 374.003C128.54 374.529 128.671 374.999 128.821 375.52C128.88 375.671 129.217 375.714 129.461 375.792C129.574 375.806 129.779 375.784 129.806 375.715C130 375.118 130.26 374.552 130.276 373.909C130.401 368.758 130.574 363.589 130.204 358.4C129.988 355.933 129.614 353.47 129.147 351.044C128.654 348.685 128.61 346.384 128.883 344.074C129.157 341.764 129.271 339.458 129.611 337.18C129.83 335.414 130.16 333.661 130.604 331.923C130.987 330.44 131.567 329.053 132.907 328.24C133.895 327.622 134.54 326.675 134.141 325.381C133.664 323.886 132.528 323.576 131.172 323.526C126.88 323.348 123.111 321.225 119.469 318.88C118.835 318.49 118.282 317.894 117.675 317.435C117.286 317.124 116.904 316.693 116.462 316.518C116.198 316.389 115.702 316.351 115.443 316.51C115.158 316.738 115.176 317.194 115.472 317.542C115.788 317.941 116.151 318.321 116.54 318.633C118.669 320.526 120.998 322.109 123.56 323.195C124.689 323.624 125.971 324.167 127.337 324.792ZM128.42 332.08C127.373 329.126 127.902 327.47 129.125 325.949C129.883 325.015 130.873 325.498 132.11 325.653C130.555 327.42 129.404 329.261 128.42 332.08Z" fill="#402716"/>
<path d="M260.665 308.711C261.16 309.156 261.561 309.637 261.519 310.349C261.489 311.23 261.004 311.768 260.328 312.09C259.347 312.589 258.393 313.019 257.432 313.569C257.127 313.746 256.986 314.207 257.329 314.537C257.454 314.72 257.744 314.78 257.95 314.758C258.313 314.732 258.638 314.605 258.989 314.41C260.407 313.798 261.977 313.301 262.902 311.838C264.324 311.92 265.723 312.765 267.16 312.203C267.253 312.167 267.412 312.163 267.505 312.127C271.35 311.436 272.096 310.333 271.53 306.148C271.742 306.008 271.868 305.784 272.1 305.694C281.868 302.922 291.753 300.451 302.078 300.476C302.555 300.464 303.058 300.383 303.495 300.271C303.839 300.194 304.124 299.967 304.04 299.478C303.956 298.989 303.626 298.828 303.242 298.804C302.409 298.724 301.53 298.661 300.689 298.7C299.009 298.776 297.282 298.871 295.575 299.016C295.099 299.028 294.576 299.059 294.139 299.171C292.828 299.51 292.012 298.379 291.015 298.015C289.885 297.586 290.12 300.104 288.493 300.043C287.045 300.03 285.614 300.472 284.191 300.797C279.596 301.896 274.989 302.826 270.642 304.698C269.688 305.129 269.07 304.094 268.237 304.014C268.012 303.986 267.754 304.145 267.674 304.35C267.574 304.505 267.572 304.912 267.678 305.044C268.356 305.823 269.154 306.497 269.786 307.294C270.398 308.04 270.195 309.163 269.485 309.672C267.688 310.954 265.604 310.956 263.549 310.484C262.835 310.299 262.647 309.27 262.326 308.584C261.758 308.226 261.182 308.393 260.665 308.711Z" fill="#402716"/>
<path d="M167.696 373.784C166.625 373.507 167.631 371.839 166.526 371.748C165.74 371.65 165.326 372.507 164.822 372.994C163.932 373.863 162.995 373.244 162.069 373.2C161.348 373.133 160.439 373.952 160.052 373.234C159.5 372.232 160.679 371.829 161.23 371.324C164.436 368.449 167.233 365.211 169.991 361.872C171.965 359.536 173.576 356.82 175.312 354.286C175.512 353.976 175.586 353.483 175.171 353.24C174.907 353.111 174.364 353.091 174.172 353.282C173.401 354.047 172.604 354.88 172.052 355.792C168.557 361.621 163.842 366.246 159.023 370.737C156.58 372.967 154.117 375.146 151.675 377.376C151.124 377.881 150.639 378.418 150.154 378.956C149.888 379.233 149.82 379.608 150.044 380.042C150.438 380.642 150.995 380.424 151.28 380.197C152.567 379.114 153.816 377.931 155.064 376.748C155.973 375.929 156.731 374.995 158.165 375.246C159.289 375.387 160.334 375.327 160.958 376.648C161.24 377.234 161.869 376.93 162.287 376.767C163.963 375.996 165.39 374.859 166.75 373.69C167.155 373.358 167.385 373.674 167.716 373.835C167.723 373.716 167.696 373.784 167.696 373.784Z" fill="#402716"/>
<path d="M258.467 273.393C258.56 271.444 258.773 269.389 258.715 267.325C258.572 263.265 260.001 259.808 261.41 256.3C261.678 255.616 262.293 255.55 262.927 255.94C265.355 257.368 267.438 259.279 269.348 261.432C270.388 262.591 271.429 263.75 272.47 264.909C272.852 265.339 273.414 265.409 273.752 265.045C273.899 264.872 273.895 264.178 273.704 263.963C270.833 260.446 267.917 256.947 264.05 254.574C263.634 254.33 263.198 254.037 262.736 253.811C261.653 253.365 260.667 253.576 260.2 254.57C258.525 258.355 256.87 262.19 256.945 266.625C257.032 273.142 256.944 271.959 252.082 273.742C250.579 274.272 249.082 274.682 247.559 275.161C246.983 275.329 246.446 275.596 246.14 276.18C246.066 276.266 246.033 276.453 246.118 276.536C246.243 276.719 246.427 277.053 246.54 277.067C247.128 277.069 247.744 277.002 248.32 276.835C251.644 275.769 254.976 274.583 258.467 273.393Z" fill="#402716"/>
<path d="M290.871 311.463C290.488 312.946 290.173 314.055 289.904 315.145C289.836 315.52 289.947 315.94 290.297 316.151C290.845 316.459 291.184 316.095 291.437 315.648C292.076 314.413 291.963 312.891 293.079 311.644C297.165 312.251 301.429 312.904 305.673 313.507C306.863 313.68 308.08 313.785 309.296 313.889C309.68 313.913 309.906 313.535 309.974 313.161C310.002 312.686 309.652 312.475 309.296 312.382C305.303 311.739 301.31 311.095 297.271 310.47C295.969 310.283 294.6 310.064 293.298 309.877C293.01 309.004 292.828 308.264 292.58 307.491C292.213 306.417 291.501 305.825 291.143 306.139C290.545 306.662 290.96 307.312 291.083 307.902C291.335 309.368 291.162 309.61 289.926 309.455C287.744 309.206 285.543 308.906 283.361 308.657C282.415 308.563 281.423 308.486 280.451 308.46C279.955 308.422 279.392 308.758 279.363 309.233C279.355 309.758 279.883 310.016 280.445 310.086C283.235 310.388 286.025 310.689 288.835 311.041C289.304 311.147 289.906 311.318 290.871 311.463Z" fill="#402716"/>
<path d="M223.814 329.31C229.118 326.194 234.508 323.161 239.772 319.945C241.768 318.76 243.737 317.643 245.85 316.76C246.314 316.578 246.777 316.397 247.136 316.083C247.375 315.874 247.628 315.427 247.576 315.158C247.504 314.838 247.089 314.594 246.718 314.739C246.373 314.816 245.983 314.91 245.678 315.088C243.836 315.981 241.868 316.692 240.151 317.768C234.064 321.479 227.892 325.108 221.516 328.352C221.072 328.584 220.694 328.848 220.25 329.079C219.918 329.324 219.851 329.699 220.081 330.015C220.206 330.198 220.47 330.326 220.695 330.355C221.078 330.379 221.423 330.302 221.747 330.175C222.423 329.853 223.033 329.499 223.663 329.195C223.775 329.209 223.795 329.26 223.814 329.31Z" fill="#402716"/>
<path d="M292.134 319.898C292.306 320.063 292.589 320.242 292.563 320.31C291.577 322.028 292.031 322.779 293.93 322.443C295.665 323.736 297.38 324.979 299.141 326.204C303.877 329.572 309.129 331.521 314.52 333.009C314.811 333.07 315.228 332.907 315.487 332.748C315.626 332.693 315.674 332.269 315.569 332.136C315.247 331.45 314.619 331.347 314.018 331.176C311.229 330.468 308.655 329.213 305.96 328.063C303.398 326.977 301.035 325.58 298.787 323.792C297.534 322.774 296.295 321.519 294.501 321.988C294.157 322.064 293.814 321.734 293.796 321.278C293.772 320.533 292.802 320.101 293.195 319.193C293.382 318.714 293.371 318.139 292.67 318.123C292.353 318.131 292.021 318.376 291.736 318.604C291.39 319.087 291.772 319.517 292.134 319.898Z" fill="#402716"/>
<path d="M260.665 308.711C261.182 308.393 261.759 308.226 262.365 308.684C263.261 308.103 264.117 307.421 264.696 306.441C265.022 305.907 265.487 305.32 265.252 304.716C264.93 304.03 264.215 304.251 263.672 304.231C262.138 304.135 260.833 304.761 259.567 305.488C258.605 306.037 256.589 305.665 256.901 307.283C257.16 308.631 258.958 308.856 260.36 308.888C260.433 308.801 260.526 308.765 260.665 308.711Z" fill="#402716"/>
<path d="M241.626 324.555C241.666 324.656 241.764 324.907 241.764 324.907C243.887 325.005 244.919 326.689 246.19 328.164C247.461 329.639 249.239 329.814 250.685 328.727C250.898 328.586 250.84 328.029 250.815 327.691C250.802 327.522 250.46 327.192 250.321 327.246C249.752 327.294 249.176 327.461 248.58 327.578C248.004 327.745 247.707 327.397 247.491 326.844C247.125 325.77 246.41 325.991 245.753 326.363C245.356 326.577 244.847 326.37 244.861 326.132C245.142 323.703 242.49 325.261 242.191 323.813C242.026 323.935 241.813 324.076 241.667 324.249C241.621 324.267 241.633 324.436 241.626 324.555Z" fill="#402716"/>
<path d="M225.082 314.494C223.704 315.207 222.398 315.832 221.159 316.491C221.02 316.545 220.972 316.969 221.031 317.12C221.109 317.322 221.346 317.519 221.571 317.547C221.769 317.643 222.087 317.635 222.253 317.513C224.512 316.456 226.772 315.399 229.032 314.343C229.356 314.216 229.517 313.805 229.267 313.439C229.142 313.256 228.831 313.145 228.626 313.168C227.197 313.204 226.227 314.279 225.082 314.494Z" fill="#402716"/>
<path d="M239.236 311.458C239.454 311.605 239.579 311.788 239.823 311.867C240.068 311.945 240.319 311.905 240.525 311.883C242.961 311.279 245.449 310.945 248.009 310.93C248.439 310.936 249.035 310.819 248.919 310.111C248.822 309.453 248.307 309.365 247.811 309.327C245.165 309.258 242.545 309.528 240.028 310.338C239.498 310.487 239.225 310.883 239.236 311.458Z" fill="#402716"/>
<path d="M252.323 312.665C252.88 313.955 253.38 314.687 254.265 315.037C254.463 315.134 254.741 315.025 254.927 314.953C255.178 314.912 255.312 314.57 255.121 314.355C253.85 312.88 253.426 311.249 253.83 309.41C253.837 309.291 253.561 308.993 253.382 308.947C253.157 308.919 252.879 309.027 252.733 309.201C251.783 310.325 251.996 311.692 252.323 312.665Z" fill="#402716"/>
<path d="M263.615 318.864C263.833 319.011 264.044 319.276 264.249 319.254C266.332 319.252 268.377 317.235 268.551 315.08C268.539 314.911 268.301 314.714 268.13 314.549C268.044 314.467 267.839 314.489 267.793 314.507C266.846 316.326 265.248 317.298 263.729 318.471C263.676 318.608 263.688 318.777 263.615 318.864Z" fill="#402716"/>
<path d="M241.814 301.639C242.201 302.358 243.384 302.649 243.982 302.126C244.46 301.707 244.654 301.11 244.332 300.424C244.011 299.738 243.099 299.456 242.469 299.76C241.84 300.064 241.466 301.022 241.814 301.639Z" fill="#402716"/>
<path d="M272.877 293.042C273.04 293.732 273.825 294.237 274.599 294.166C275.373 294.095 275.919 293.303 275.598 292.617C275.217 291.78 274.55 291.576 273.815 291.748C273.173 291.883 272.913 292.448 272.877 293.042Z" fill="#402716"/>
<path d="M226.631 350.066C226.751 349.961 227.075 349.834 227.314 349.625C227.434 349.52 227.501 349.146 227.442 348.995C227.364 348.794 227.126 348.597 226.902 348.569C226.564 348.526 226.181 348.502 225.837 348.579C224.711 348.844 224.027 349.692 224.428 350.172C224.876 350.635 225.24 350.609 226.631 350.066Z" fill="#402716"/>
<path d="M276.361 332.61C276.979 333.644 278.003 333.94 279.061 334.048C279.127 334.08 279.273 333.907 279.3 333.839C279.361 333.583 279.468 333.31 279.343 333.127C278.705 332.042 277.622 331.596 276.629 331.926C276.489 331.98 276.468 332.336 276.361 332.61Z" fill="#402716"/>
<path d="M240.098 363.879C240.243 364.112 240.381 364.464 240.657 364.762C240.763 364.895 241.073 365.005 241.278 364.983C241.464 364.911 241.637 364.669 241.717 364.464C241.879 363.647 241.557 362.961 241.05 362.347C240.859 362.132 240.37 361.975 240.092 362.084C239.768 362.211 239.786 362.667 239.877 363.038C239.863 363.275 239.961 363.527 240.098 363.879Z" fill="#402716"/>
<path d="M238.816 363.742C238.671 363.509 238.593 363.307 238.421 363.142C238.164 362.895 237.934 362.579 237.536 362.792C237.185 362.988 237.098 363.312 237.235 363.664C237.412 364.116 237.609 364.619 237.905 364.967C238.116 365.233 238.419 365.462 238.836 365.299C239.42 365.013 239.177 364.529 239.046 364.058C238.961 363.975 238.855 363.843 238.816 363.742Z" fill="#402716"/>
<path d="M285.584 321.877C285.861 322.175 286.164 322.404 286.543 322.14C287.16 321.667 287.427 320.983 287.159 320.16C287.08 319.959 286.87 319.694 286.691 319.647C286.513 319.601 286.168 319.678 286.049 319.782C285.603 320.42 285.382 321.086 285.584 321.877Z" fill="#402716"/>
<path d="M282.087 323.185C282.237 323.706 282.506 324.123 283.102 324.006C283.493 323.912 283.607 323.519 283.516 323.149C283.392 322.559 283.023 322.298 282.454 322.346C282.044 322.391 282.042 322.797 282.087 323.185Z" fill="#402716"/>
</g>
<path d="M213.551 94.8174C101.024 88.7832 -2.61113 221.331 87.6729 313.785" stroke="#EFD8BA" stroke-width="4" stroke-dasharray="20 20"/>
<defs>
<clipPath id="clip0_944_2998">
<rect width="246.736" height="166.215" fill="white" transform="matrix(-0.931452 0.363864 0.363864 0.931452 295.823 201)"/>
</clipPath>
</defs>
</svg>
