<svg width="270" height="264" viewBox="0 0 270 264" fill="none" xmlns="http://www.w3.org/2000/svg">
<g clip-path="url(#clip0_944_3114)">
<path d="M254 185C251.306 184.095 228.068 185 222.006 149.714C218.092 126.929 203.484 52 135.119 52C49.0599 52 67.7639 108.661 -7 80.8393" stroke="#EFD8BA" stroke-width="4" stroke-dasharray="12 12"/>
<path d="M221.868 77.7608C222.407 72.3882 225.238 66.9943 226.586 64.9689C232.315 58.573 233.326 85.7558 233.326 90.5526C233.326 93.4696 232.315 104.517 231.304 109.74C232.203 111.659 234 115.753 234 116.776C234 117.799 231.079 115.07 229.619 113.578C228.608 114.537 226.249 116.52 224.901 116.776C223.553 117.032 225.013 112.192 225.912 109.74C220.789 101.554 221.306 89.4866 222.205 84.4765C222.092 84.6897 221.261 85.244 218.835 85.7557C216.408 86.2674 219.846 80.6389 221.868 77.7608Z" fill="#EDD6D6"/>
<g clip-path="url(#clip1_944_3114)">
<path d="M131.354 145.781C132.125 145.974 132.19 146.553 131.997 147.132C131.483 148.418 130.84 149.64 130.197 150.862C128.911 153.178 127.497 155.43 126.147 157.681C121.39 165.915 118.305 174.856 115.283 183.797C113.741 188.3 113.226 192.996 112.391 197.691C112.326 198.013 112.391 198.463 112.776 198.463C113.098 198.463 113.483 198.335 113.676 198.142C114.448 197.177 115.155 196.083 115.926 195.118C116.055 194.99 116.44 194.925 116.569 194.99C116.826 195.183 117.212 195.44 117.212 195.697C117.212 196.276 117.083 196.855 116.826 197.37C116.248 198.335 115.476 199.235 114.833 200.2C113.355 202.13 111.812 203.995 110.398 205.925C104.42 214.159 102.941 223.357 104.805 233.199C105.448 236.48 106.284 239.696 107.055 243.041C108.598 242.976 109.948 242.912 111.298 242.848C114.769 242.591 118.176 242.526 121.647 242.912C123.833 243.169 126.019 243.169 128.204 243.234C128.976 243.234 129.49 242.912 129.554 242.012C129.618 241.111 129.747 240.21 129.876 239.31C129.876 239.181 130.197 238.988 130.39 238.924C130.776 238.731 131.033 239.053 131.226 239.31C131.74 240.146 131.483 241.111 131.611 242.012C131.675 242.333 131.74 242.719 131.933 242.976C132.511 243.555 135.34 242.976 135.661 242.205C135.725 242.076 135.725 242.012 135.79 241.883C136.754 236.737 135.597 235.129 130.454 235.515C129.297 235.579 128.204 236.029 127.111 236.415C126.147 236.801 125.119 236.994 124.154 237.251C123.447 237.38 122.804 237.251 122.162 236.866C121.84 236.673 121.647 236.351 121.776 236.029C121.84 235.836 122.033 235.579 122.162 235.579C124.412 235.579 126.34 234.486 128.461 233.842C130.197 233.263 132.125 233.263 133.925 233.585C136.497 234.035 137.782 235.322 138.104 237.895C138.232 238.795 138.168 239.76 138.168 240.661C138.168 241.368 138.104 242.012 138.104 242.912C140.289 243.041 142.475 243.169 144.661 243.298C145.368 243.362 146.075 243.362 146.589 243.877C146.718 244.006 146.846 244.263 146.782 244.52C146.782 244.713 146.653 244.971 146.461 245.099C146.203 245.292 145.818 245.421 145.496 245.421C144.789 245.421 144.146 245.357 143.439 245.357C139.775 245.164 136.047 245.099 132.383 245.292C128.333 245.485 124.283 245.356 120.297 244.842C117.983 244.52 115.733 244.456 113.419 244.649C111.684 244.778 109.948 244.778 108.212 244.778C106.991 244.842 105.769 244.906 105.962 243.105C104.484 241.368 103.134 239.503 101.463 238.023C99.4055 236.158 96.9627 235.129 94.0057 234.807C86.9989 234.1 80.5063 231.977 74.7209 227.924C69.1283 224 65.3356 218.79 63.15 212.358C61.5429 207.662 60.7072 202.773 60.3858 197.82C59.293 180.323 63.3428 164.178 73.1781 149.576C74.5923 147.453 76.2637 145.523 77.8707 143.594C80.5706 140.249 84.2347 138.319 88.0274 136.646C90.4059 135.617 92.8486 135.167 95.4842 135.682C98.2484 136.261 100.37 137.676 101.784 140.12C103.97 143.851 103.648 147.646 101.655 151.313C101.141 152.213 100.305 152.856 99.4055 153.435C98.0556 154.336 96.577 154.979 94.97 155.365C94.0057 155.622 92.9129 155.687 92.6558 157.038C92.5915 157.295 92.1415 157.488 91.8201 157.617C89.8273 158.195 88.4774 159.675 87.3203 161.283C82.5634 168.037 78.6421 175.177 77.0993 183.411C76.3922 187.206 76.6494 191.001 77.2279 194.797C77.5493 196.855 77.9993 198.849 78.4493 200.908C79.4778 205.861 82.1777 209.785 85.9061 213.065C86.9989 214.03 88.2846 214.866 89.4417 215.831C91.1773 217.246 93.1701 218.083 95.3557 218.404C96.577 218.597 97.8627 218.919 99.0198 219.305C99.4698 219.433 99.6626 219.948 99.4698 220.463C99.3412 220.72 98.9555 221.106 98.7627 221.106C95.9342 220.656 92.9129 220.656 90.4059 219.112C86.4204 216.603 82.6277 213.708 79.9278 209.656C78.2564 207.147 76.9065 204.51 76.3922 201.487C76.0065 199.235 75.428 196.984 75.0423 194.732C73.8209 188.043 74.7209 181.61 77.2279 175.37C78.7064 171.704 80.4421 168.23 82.4991 164.885C84.299 161.926 86.2275 159.032 89.056 156.909C89.3774 156.652 89.8916 156.201 89.8916 155.88C89.8273 153.757 91.1773 153.886 92.6558 153.821C94.0057 153.757 95.3557 153.242 96.6413 152.664C100.177 150.991 101.977 147.324 100.884 143.465C99.8555 139.798 97.4127 137.418 92.5915 137.676C89.6345 137.869 86.9989 138.962 84.6204 140.763C83.7205 141.471 82.9491 142.178 81.792 142.629C80.6992 143.079 79.8635 144.237 79.0278 145.202C74.1423 150.927 70.2854 157.359 67.5212 164.435C62.3786 177.622 60.7072 191.194 63.3428 205.217C63.6642 207.019 64.1142 208.82 64.6285 210.621C67.3284 219.691 73.3067 225.93 81.9206 229.661C85.649 231.269 89.5702 232.427 93.5558 232.749C96.577 233.006 99.1484 233.907 101.591 235.579C101.977 235.836 102.362 236.094 102.877 235.965C103.391 235.064 102.941 234.164 102.748 233.328C100.884 223.614 102.234 214.48 107.698 206.118C108.919 204.253 109.626 202.194 109.948 200.007C110.334 197.498 110.784 194.99 111.169 192.481C112.069 186.499 113.998 180.838 116.119 175.242C119.269 166.815 122.869 158.581 127.819 150.991C128.654 149.769 129.233 148.354 129.94 147.067C130.197 146.553 130.39 145.974 131.033 145.845H131.29L131.354 145.781Z" fill="#402716"/>
<path d="M203.544 191.709C204.572 192.738 204.379 194.218 204.894 195.44C205.408 196.598 205.729 197.82 205.986 199.106C206.629 202.001 207.272 204.96 207.851 207.919C208.108 209.334 208.558 210.621 209.458 211.65C214.086 217.053 215.179 223.55 215.243 230.368C215.243 230.947 215.243 231.526 215.179 232.105C215.05 233.006 215.372 233.585 216.272 233.971C216.979 234.292 217.622 234.807 218.265 235.386C219.872 236.865 220.386 239.052 219.614 241.046C219.1 242.333 218.136 243.105 216.85 243.362C216.207 243.491 215.5 243.491 214.793 243.491C212.479 243.491 211.451 243.812 211.901 240.403C212.093 238.988 211.708 237.444 209.779 237.123C209.522 237.058 209.136 236.737 209.072 236.479C208.943 235.965 209.265 235.643 209.715 235.386C209.843 235.322 209.908 235.257 210.036 235.193C211.001 234.55 212.286 234.164 212.865 233.263C213.636 232.105 213.25 230.561 213.25 229.211C213.25 226.316 212.736 223.486 212.093 220.655C211.515 218.275 210.486 216.088 208.879 214.223C206.951 211.907 205.922 209.334 205.536 206.375C205.279 204.317 204.637 202.323 204.122 200.328C204.058 200.007 204.058 199.621 203.479 199.621C202.901 200.071 203.158 200.779 203.158 201.422C202.901 207.983 202.644 214.544 202.451 221.106C202.387 222.135 202.322 223.228 202.515 224.193C203.158 227.988 202.965 231.784 202.515 235.579C202.322 237.509 202.451 239.438 202.708 241.368C204.508 241.883 206.244 241.561 207.979 241.754C208.558 241.818 208.686 242.269 208.686 242.719C208.622 243.169 208.494 243.619 207.915 243.684C207.658 243.684 207.465 243.748 207.208 243.748C200.394 243.877 193.644 244.005 186.83 244.07C185.223 244.07 183.616 244.005 182.009 243.877C179.116 243.684 176.288 243.362 173.395 243.619C172.881 243.684 172.495 243.362 172.495 242.848C172.495 242.333 172.817 241.947 173.331 241.883C174.938 241.497 176.545 241.561 178.152 241.625C180.916 241.754 183.68 241.947 186.444 242.011C188.309 242.076 188.309 241.947 188.694 240.21C190.237 233.52 189.659 226.959 187.923 220.398C186.252 213.901 184.709 207.404 183.809 200.779C183.745 200.328 183.616 199.878 183.68 199.428C183.745 199.171 184.13 198.913 184.387 198.785C184.516 198.72 184.837 198.849 184.966 198.978C185.673 199.492 185.866 200.328 185.995 201.1C186.573 206.504 187.987 211.714 189.144 217.053C189.98 220.848 190.944 224.643 191.459 228.567C191.844 231.591 191.78 234.55 191.266 237.509C191.073 238.666 190.88 239.76 190.816 240.918C190.751 241.69 191.33 241.883 191.909 241.883C192.359 241.883 192.808 241.754 192.873 241.175C192.937 240.275 192.937 239.374 193.001 238.409C193.001 238.28 193.258 238.088 193.451 237.959C193.837 237.766 194.094 238.023 194.351 238.28C194.801 238.731 194.801 239.31 194.866 239.889C194.93 240.339 194.93 240.854 195.058 241.239C195.251 241.69 195.573 241.947 196.151 241.883C196.73 241.818 196.923 241.432 196.858 240.918C196.73 240.146 196.537 239.374 196.473 238.538C196.473 238.345 196.665 238.023 196.794 238.023C197.115 237.959 197.501 237.959 197.758 238.087C198.273 238.409 198.401 238.988 198.53 239.567C198.723 240.082 198.98 240.596 199.237 241.111C199.301 241.239 199.687 241.239 199.88 241.239C200.072 241.239 200.33 241.111 200.394 240.918C200.522 240.596 200.651 240.275 200.587 239.953C200.33 237.509 200.651 235.129 200.78 232.684C200.972 229.918 201.037 227.152 200.458 224.386C200.33 223.614 200.33 222.778 200.33 222.006C200.651 213.387 200.972 204.703 201.358 196.083C201.422 195.182 201.422 194.218 201.551 193.317C201.615 192.416 202.258 191.902 203.094 191.645H203.351L203.544 191.709ZM212.029 236.737C213.315 237.766 214.408 238.859 214.022 240.725C213.958 241.175 214.215 241.625 214.793 241.561C215.372 241.561 215.95 241.432 216.079 240.725C216.207 239.953 216.272 239.117 216.465 238.409C216.85 236.994 216.85 236.608 215.886 236.158C214.536 235.386 213.25 235.45 212.029 236.737Z" fill="#402716"/>
<path d="M161.052 242.462C162.274 240.983 162.595 239.117 162.852 237.38C163.367 233.971 163.559 230.498 163.881 227.024C163.945 226.574 163.752 226.059 163.881 225.673C164.074 224.708 161.31 224.58 163.238 223.229C163.174 222.071 163.109 220.977 162.981 219.82C162.917 218.662 162.724 217.504 162.659 216.346C162.531 213.773 163.045 211.264 163.817 208.884C165.424 204.188 166.709 199.428 167.481 194.475C167.545 194.218 167.609 194.025 167.674 193.832C167.866 193.382 168.252 193.06 168.702 193.189C168.959 193.253 169.345 193.639 169.345 193.896C169.473 194.475 169.473 195.054 169.345 195.633C168.638 199.235 167.995 202.902 166.774 206.375C166.131 208.241 165.552 210.106 165.102 211.972C164.331 215.252 164.138 218.597 165.488 221.814C165.681 222.328 165.745 222.907 165.809 223.486C166.002 229.018 165.552 234.55 164.267 239.953C164.009 241.047 163.559 242.14 163.109 243.234C162.338 244.971 160.924 245.936 158.995 245.936C156.681 245.871 154.367 245.743 152.117 245.421C150.06 245.099 148.967 243.684 148.903 241.562C148.839 240.275 148.967 239.053 149.032 237.766C149.289 233.907 148.839 230.24 147.489 226.574C145.753 221.685 144.275 216.732 142.475 211.843C141.51 209.141 140.739 206.311 140.225 203.481C139.389 199.042 138.232 194.733 136.689 190.487C136.175 189.072 135.725 187.657 135.404 186.177C135.275 185.534 135.275 184.826 135.404 184.119C135.404 183.926 135.854 183.669 136.175 183.54C136.304 183.476 136.625 183.669 136.753 183.862C136.946 184.119 137.139 184.441 137.203 184.762C137.589 187.078 138.489 189.201 139.261 191.388C140.546 194.861 141.51 198.399 142.153 202.066C142.925 206.311 144.21 210.299 145.625 214.352C147.296 218.983 148.903 223.743 150.317 228.439C151.153 231.205 151.217 234.1 151.153 236.994C151.153 238.281 151.024 239.503 151.024 240.79C151.024 241.369 150.96 241.947 151.346 242.462C151.603 242.848 151.924 243.105 152.503 243.041C152.953 242.977 153.017 242.591 153.081 242.333C153.21 241.626 153.21 240.983 153.21 240.275C153.21 239.696 153.146 239.117 153.21 238.538C153.274 238.088 153.338 237.573 153.981 237.509C154.688 237.445 155.01 237.959 155.074 238.538C155.203 239.246 155.203 239.889 155.203 240.597C155.203 241.304 155.138 242.012 155.138 242.655C155.138 242.977 155.396 243.427 155.588 243.491C156.231 243.62 156.938 243.684 157.645 243.62C157.903 243.62 158.224 243.234 158.288 242.912C158.481 242.14 158.545 241.304 158.674 240.532C158.738 239.953 158.803 239.246 159.51 239.246C160.41 239.246 160.538 240.018 160.602 240.661C160.731 241.304 160.474 241.947 161.052 242.462Z" fill="#402716"/>
<path d="M194.801 88.1452C194.03 89.496 193.901 90.8468 193.901 92.3906C193.901 94.7707 194.673 96.5718 196.151 98.2443C196.472 98.5659 196.73 98.9518 196.922 99.3378C197.18 99.8524 196.73 100.689 196.022 100.946C195.573 101.139 194.994 101.01 194.865 100.496C194.351 98.3729 192.358 97.215 191.651 95.221C191.33 94.1274 189.98 94.1274 189.594 93.1625C190.173 92.1333 189.466 90.5895 191.008 89.8819C191.201 89.7533 191.137 88.7884 191.008 88.2738C190.044 84.0283 188.823 79.8472 187.023 75.7947C185.094 71.4849 182.523 67.561 180.145 63.6372C179.18 63.5728 178.988 64.2161 178.795 64.6664C177.638 67.1751 176.416 69.6838 175.323 72.1924C173.973 75.2801 173.395 78.5607 173.009 81.9056C172.945 82.5488 172.945 83.3207 172.045 83.5137H172.109C171.145 83.3851 171.145 82.6132 171.145 81.9699C171.274 79.4612 171.595 76.9525 172.366 74.5082C173.652 70.1984 175.645 66.2102 177.766 62.222C178.602 60.6782 179.823 60.5495 181.109 61.7717C181.366 62.029 181.623 62.2863 181.752 62.5436C185.159 68.0113 188.759 73.3503 190.687 79.5899C191.394 81.9056 192.037 84.2213 192.744 86.537C193.001 87.3089 193.515 87.1803 194.094 86.923C194.351 87.3732 194.608 87.7592 194.801 88.1452Z" fill="#402716"/>
<path d="M131.354 145.781H131.097H130.84C131.547 145.202 130.969 144.495 131.033 143.851C131.097 143.144 131.997 142.886 131.933 142.05C131.868 140.442 133.218 139.67 134.054 138.641C134.44 138.191 135.597 138.577 135.468 137.547C135.34 136.84 134.568 136.518 134.054 136.132C130.519 133.431 128.911 129.764 128.397 125.454C128.269 124.618 128.269 123.846 128.654 123.074C128.783 122.817 129.169 122.56 129.426 122.56C129.683 122.56 130.069 122.817 130.197 123.074C130.326 123.331 130.261 123.717 130.326 124.103C130.583 126.676 130.583 126.612 133.154 126.419C139.968 125.904 146.654 125.068 153.21 122.946C153.66 122.817 154.11 122.688 154.56 122.688C154.817 122.688 155.203 122.946 155.396 123.139C155.717 123.524 155.332 123.782 155.01 123.846C149.482 125.454 143.954 127.127 138.168 127.448C136.24 127.577 134.247 127.834 132.318 128.092C131.483 128.22 131.226 128.799 131.547 129.635C132.383 131.565 133.668 133.173 135.34 134.46C137.075 135.811 138.747 137.226 140.354 138.641C140.932 139.156 141.511 139.799 141.511 140.699C141.511 141.021 141.318 141.407 141.061 141.536C140.804 141.664 140.354 141.664 140.161 141.471C138.94 140.378 138.04 139.027 136.625 138.191C135.983 137.805 135.468 137.933 135.404 138.641C135.404 139.606 135.083 140.442 134.44 141.15C134.118 141.471 133.604 141.922 133.668 142.243C134.054 144.237 132.383 144.623 131.29 145.395C131.354 145.459 131.354 145.652 131.354 145.781Z" fill="#402716"/>
<path d="M144.854 86.987C144.789 87.18 144.789 87.3729 144.661 87.5659C144.532 87.7589 144.339 87.8875 144.147 87.9519C143.761 88.0805 143.439 87.9519 143.247 87.6302C143.054 87.3729 142.925 86.987 142.925 86.6653C142.797 84.3496 142.025 82.1626 141.511 79.9112C140.675 76.5019 138.747 73.6073 136.818 70.777C136.111 69.7478 135.34 69.8764 134.633 70.9056C133.283 73.0284 132.447 75.4727 131.483 77.8528C130.84 79.4609 130.261 81.069 129.619 82.6772C129.426 83.0631 128.976 83.3848 128.462 83.1275C127.947 82.8701 127.819 82.4199 127.947 81.9696C129.297 78.0457 130.454 74.0576 132.447 70.391C134.504 66.7245 136.497 66.9174 138.682 69.9407C142.218 74.7651 144.211 80.2971 144.789 86.2151C144.918 86.4724 144.854 86.7297 144.854 86.987Z" fill="#402716"/>
<path d="M203.544 180.323C203.479 180.902 203.479 181.417 203.415 181.867C203.351 182.381 203.094 182.767 202.579 182.832C201.872 182.896 201.551 182.381 201.487 181.738C201.165 178.329 201.037 174.855 200.651 171.446C199.879 164.692 198.98 158.002 198.08 151.248C197.887 149.768 197.758 148.289 198.08 146.81C198.144 146.424 198.53 146.295 198.851 146.295C199.044 146.295 199.301 146.488 199.365 146.681C199.558 147.195 199.751 147.774 199.815 148.289C200.908 158.002 202.515 167.651 203.286 177.428C203.415 178.393 203.479 179.423 203.544 180.323Z" fill="#402716"/>
<path d="M202.066 114.069C201.937 115.934 201.487 117.735 200.973 119.536C200.78 120.051 200.394 120.501 200.073 120.951C199.944 121.08 199.623 121.08 199.43 121.016C199.237 120.951 199.044 120.759 198.916 120.566C198.787 120.373 198.787 120.115 198.851 119.922C198.98 119.343 199.109 118.829 199.237 118.25C200.459 113.168 200.073 113.49 195.702 114.069C189.53 114.905 183.424 115.87 177.445 117.735C176.995 117.864 176.545 117.993 176.16 117.671C176.031 117.607 175.967 117.285 176.031 117.156C176.288 116.577 176.867 116.449 177.445 116.256C180.402 115.291 183.424 114.519 186.445 114.004C190.302 113.361 194.159 112.846 198.016 112.268C199.494 112.075 199.623 111.689 199.559 110.209C199.43 108.537 198.53 107.186 197.887 105.706C197.694 105.192 197.952 104.741 198.402 104.613C198.659 104.484 199.109 104.549 199.366 104.741C200.587 105.706 201.166 107.186 201.423 108.601C201.744 110.402 201.873 112.268 202.066 114.069Z" fill="#402716"/>
<path d="M188.437 191.066C188.694 190.294 189.016 189.072 189.594 187.914C191.33 184.248 192.487 180.452 193.323 176.464C193.709 174.534 194.351 172.733 194.994 170.868C195.123 170.482 195.573 170.16 196.151 170.418C196.666 170.611 196.794 171.061 196.666 171.576C195.701 175.499 194.737 179.359 193.644 183.218C193.194 184.891 192.551 186.499 191.78 188.043C191.266 189.072 190.687 190.037 190.494 191.195C190.43 191.516 190.237 191.838 190.044 192.095C189.787 192.481 189.402 192.739 188.887 192.61C188.309 192.417 188.309 191.967 188.437 191.066Z" fill="#402716"/>
<path d="M128.718 102.619C128.59 102.233 128.268 101.782 128.268 101.396C128.268 100.046 127.497 99.0807 126.468 98.3731C126.468 97.9229 126.533 97.4726 126.533 97.0223C127.368 97.0223 127.818 96.7007 127.69 95.8001C127.304 93.4844 127.368 91.233 127.497 88.9173C127.561 88.0167 127.561 87.0519 128.075 86.2156C128.332 85.8297 128.59 85.4437 129.168 85.508C129.747 85.5724 129.875 86.0226 129.875 86.4729C129.875 86.9232 129.811 87.3735 129.747 87.8238C129.425 91.04 129.554 94.2563 129.875 97.4726C130.004 98.6304 130.454 99.4023 131.418 99.9813C132.061 100.432 132.704 101.01 133.282 101.461C132.961 101.718 132.639 101.911 132.318 102.168C132.189 102.104 132.125 102.104 131.997 102.04C130.711 101.461 130.711 101.461 129.618 102.554C129.232 102.683 128.975 102.683 128.718 102.619Z" fill="#402716"/>
<path d="M172.109 83.5781C171.852 84.0284 171.916 84.4787 172.366 84.736C172.945 85.0576 173.652 85.1863 174.23 85.5079C174.68 85.7652 174.809 86.2798 174.68 86.6657C174.552 86.9231 174.23 87.116 173.909 87.2447C173.588 87.3733 173.202 87.309 172.881 87.3733C172.688 88.1452 173.266 88.6598 173.459 89.3031C173.781 90.2036 173.716 91.1042 173.331 91.0399C172.623 90.9756 172.495 90.3323 172.238 89.882C172.045 89.5604 171.916 89.3031 171.788 88.9815C171.081 87.3733 169.859 86.6014 168.059 86.4084C166.131 86.2798 164.202 85.8295 162.274 85.4436C161.952 85.3792 161.695 85.1219 161.631 84.736C161.567 84.1571 161.952 83.8354 162.402 83.8354C163.56 83.8354 164.652 83.9641 165.809 84.0284C167.545 84.2214 169.216 84.4144 170.952 84.543C171.595 84.6717 172.045 84.2214 172.109 83.5781Z" fill="#402716"/>
<path d="M164.588 119.536C163.495 119.343 161.953 119.601 161.953 117.993C161.953 116.642 163.367 116.32 164.46 115.998C165.552 115.677 166.71 115.548 167.867 115.42C168.702 115.355 169.474 115.612 169.859 116.513C170.181 117.221 169.988 117.864 169.538 118.443C169.217 118.893 168.767 119.279 168.188 119.472C167.545 119.472 166.838 119.408 166.452 120.051C166.195 120.051 166.002 120.051 165.745 120.051C165.424 119.665 165.102 119.536 164.588 119.536Z" fill="#402716"/>
<path d="M166.452 120.05C166.902 119.407 167.545 119.472 168.188 119.472C168.445 120.436 168.767 121.401 169.024 122.43C169.152 122.881 169.409 123.267 169.859 123.46C170.374 123.717 171.016 124.039 170.759 124.682C170.438 125.454 169.602 125.647 169.024 125.325C167.738 124.618 166.967 125.068 166.195 126.033C166.002 126.29 165.617 126.419 165.295 126.483C164.845 126.547 164.331 126.483 164.138 125.968C164.01 125.711 164.074 125.196 164.267 125.068C165.617 124.039 166.067 122.43 166.709 121.015C166.774 120.629 166.645 120.372 166.452 120.05Z" fill="#402716"/>
<path d="M157.003 128.542C156.875 128.735 156.81 128.992 156.682 129.056C152.889 130.922 149.032 132.723 145.239 134.524C145.046 134.653 144.661 134.395 144.339 134.267C144.468 133.945 144.468 133.559 144.661 133.366C145.111 132.98 145.625 132.723 146.139 132.466C149.161 131.051 152.182 129.7 155.203 128.285C155.717 128.027 156.232 127.77 156.81 127.963C157.067 128.092 157.132 128.285 157.003 128.542Z" fill="#402716"/>
<path d="M183.68 85.5079C183.552 85.7652 183.487 86.0869 183.295 86.4085C181.816 89.3675 180.273 92.3264 179.181 95.4784C179.052 95.8643 178.666 96.186 178.345 96.5076C178.216 96.5719 177.895 96.5719 177.766 96.4433C177.445 96.1216 177.509 96.6363 177.509 96.186C177.509 96.0573 177.509 95.9287 177.509 95.8643C178.795 92.1978 180.402 88.6599 182.266 85.2506C182.33 85.122 182.395 85.0577 182.459 84.9933C182.716 84.8004 183.102 84.736 183.359 84.929C183.552 84.9933 183.552 85.2506 183.68 85.5079Z" fill="#402716"/>
<path d="M132.19 102.232C132.511 101.975 132.833 101.782 133.154 101.524C134.054 102.232 135.018 102.875 135.918 103.583C137.654 104.934 139.325 106.284 141.254 107.314C141.961 107.7 142.668 108.15 142.989 108.922C143.054 109.05 142.861 109.308 142.732 109.501C142.668 109.565 142.539 109.629 142.411 109.629C142.282 109.629 142.154 109.629 142.089 109.629C138.618 107.378 135.083 105.255 132.19 102.232Z" fill="#402716"/>
<path d="M183.873 121.337C182.073 121.401 180.209 121.529 178.409 121.594C178.281 121.594 178.024 121.337 178.024 121.144C177.959 121.015 178.152 120.629 178.281 120.629C182.009 119.857 185.737 119.535 189.466 119.921C189.723 119.921 189.852 120.114 189.852 120.372C189.916 120.822 189.659 121.079 189.337 121.079C187.537 121.208 185.673 121.208 183.873 121.272V121.337Z" fill="#402716"/>
<path d="M153.725 85.5079C153.66 85.7008 153.596 86.0225 153.403 86.0868C151.282 87.4376 149.675 89.3674 147.746 90.9755C147.425 91.2328 146.975 91.4901 146.589 91.6188C146.332 91.6831 145.946 91.5544 145.689 91.3615C145.368 91.1685 145.368 90.7182 145.625 90.4609C147.489 88.6598 149.096 86.5371 151.282 85.1219C151.732 84.8646 152.31 84.6716 152.825 84.543C153.21 84.543 153.789 85.2505 153.725 85.5079Z" fill="#402716"/>
<path d="M135.982 97.2146C136.175 97.0217 136.24 96.7644 136.368 96.7C136.561 96.6357 136.882 96.7 137.011 96.8287C139.775 99.0158 142.411 101.396 144.918 103.904C144.982 103.969 145.111 104.097 145.111 104.162C145.111 104.355 145.111 104.612 145.046 104.741C144.918 104.869 144.596 104.998 144.468 104.998C144.146 104.934 143.825 104.741 143.568 104.483C141.189 102.361 138.811 100.174 136.432 97.9865C136.304 97.8579 136.175 97.4719 135.982 97.2146Z" fill="#402716"/>
<path d="M126.533 97.0225C126.533 97.4728 126.468 97.923 126.468 98.3733C123.704 97.0225 121.197 95.2857 118.69 93.4846C118.304 93.2273 118.047 92.8413 117.79 92.5197C117.661 92.391 117.726 92.0694 117.79 91.8764C117.854 91.7478 118.111 91.6191 118.304 91.6191C118.497 91.6191 118.754 91.6835 118.947 91.8121C121.454 93.5489 123.961 95.2857 126.533 97.0225Z" fill="#402716"/>
<path d="M189.595 93.291C190.045 94.2559 191.395 94.2559 191.652 95.3494C191.009 94.7705 190.366 94.4489 189.595 95.2208C187.923 96.8289 186.252 98.3084 184.516 99.8522C184.259 100.045 183.938 100.174 183.616 100.238C183.488 100.238 183.231 99.9809 183.231 99.7879C183.102 99.1446 183.616 98.7587 184.002 98.3727C185.866 96.6359 187.795 94.9635 189.595 93.291Z" fill="#402716"/>
<path d="M194.802 88.1451C194.609 87.7591 194.416 87.3089 194.159 86.9229C195.38 84.7359 196.601 82.4845 197.823 80.2974C197.951 80.1044 198.08 79.9114 198.273 79.7828C198.466 79.6541 198.723 79.5898 198.916 79.6541C199.044 79.7185 199.237 79.9758 199.237 80.1687C199.237 80.4904 199.237 80.8763 199.108 81.1336C197.759 83.578 196.601 86.0867 194.802 88.1451Z" fill="#402716"/>
<path d="M128.719 102.618C128.976 102.618 129.297 102.618 129.555 102.682C129.747 103.84 129.812 104.87 129.169 105.963C128.526 107.057 128.076 108.214 128.076 109.565C128.076 110.144 127.562 110.337 127.112 110.273C126.469 110.273 126.019 109.823 126.019 109.179C126.019 108.6 126.083 108.022 126.34 107.507C127.048 105.899 127.883 104.291 128.719 102.618Z" fill="#402716"/>
<path d="M146.589 120.436C147.36 120.565 148.582 120.758 149.803 121.015C149.932 121.015 150.125 121.337 150.189 121.53C150.253 121.916 149.996 122.237 149.61 122.173C147.553 121.98 145.496 122.044 143.504 121.401C143.311 121.337 143.182 121.144 142.989 120.951C143.246 120.758 143.439 120.372 143.696 120.308C144.532 120.308 145.303 120.436 146.589 120.436Z" fill="#402716"/>
<path d="M195.251 133.109C195.187 131.887 195.123 130.729 193.837 130.086C193.58 129.957 193.515 129.442 193.773 129.185C193.965 128.992 194.351 128.735 194.608 128.799C195.38 128.928 196.151 129.185 196.858 129.378C198.144 129.7 198.401 130.343 197.372 131.115C196.472 131.822 196.987 132.466 196.987 133.173C196.537 133.173 195.894 133.109 195.251 133.109Z" fill="#402716"/>
<path d="M179.888 109.437C179.116 109.373 178.281 108.537 178.345 107.829C178.409 106.671 179.566 105.642 180.659 105.835C181.43 105.964 182.073 106.8 182.009 107.572C181.88 108.665 180.852 109.501 179.888 109.437Z" fill="#402716"/>
<path d="M191.973 107.636C191.909 107.829 191.909 108.151 191.78 108.279C190.109 109.694 188.245 110.659 186.188 111.367C186.059 111.431 185.673 111.238 185.609 111.11C185.48 110.788 185.545 110.402 185.866 110.273C187.602 109.244 189.402 108.279 191.202 107.314C191.266 107.25 191.459 107.25 191.523 107.25C191.652 107.314 191.78 107.507 191.973 107.636Z" fill="#402716"/>
<path d="M185.352 193.832C185.031 195.182 184.645 196.34 183.745 197.305C183.424 197.627 182.909 197.82 182.459 197.562C182.074 197.305 181.817 196.855 182.074 196.405C182.652 195.375 183.167 194.411 183.745 193.446C183.938 193.124 184.324 192.995 184.645 193.188C184.966 193.317 185.159 193.639 185.352 193.832Z" fill="#402716"/>
<path d="M171.466 188.686C171.402 189.458 171.402 189.522 171.402 189.651C171.273 191.002 170.695 191.902 170.181 191.645C169.281 191.195 169.409 190.358 169.473 189.586C169.538 188.943 169.666 188.236 169.859 187.592C169.988 187.078 170.373 186.82 170.888 186.885C171.402 187.013 171.595 187.464 171.595 187.914C171.466 188.429 171.466 188.879 171.466 188.686Z" fill="#402716"/>
<path d="M177.509 200.072C177.509 200.265 177.509 200.586 177.445 200.715C176.609 201.487 175.838 202.259 174.874 202.902C174.424 203.224 173.781 203.159 173.395 202.645C173.138 202.259 173.266 201.808 173.652 201.487C174.552 200.779 175.259 199.879 176.416 199.621C176.866 199.428 177.252 199.621 177.509 200.072Z" fill="#402716"/>
<path d="M195.959 138.577C196.087 138.963 195.894 139.284 195.637 139.477C194.802 140.056 193.966 140.635 193.066 141.214C192.68 141.472 192.166 141.472 191.909 140.957C191.78 140.7 191.716 140.249 191.909 139.992C192.616 138.898 193.644 138.191 194.93 137.934C195.316 137.805 195.766 137.998 195.959 138.577Z" fill="#402716"/>
<path d="M181.366 145.073C180.981 145.009 180.723 145.073 180.531 144.945C180.209 144.816 179.952 144.623 180.016 144.237C180.081 144.044 180.081 143.723 180.273 143.658C181.559 142.693 182.973 142.693 184.452 143.208C184.645 143.272 184.902 143.787 184.902 143.98C184.837 144.237 184.516 144.623 184.323 144.687C183.23 144.945 182.202 145.009 181.366 145.073Z" fill="#402716"/>
<path d="M148.582 115.098C148.453 115.87 147.618 116.577 146.911 116.449C146.011 116.32 145.368 115.291 145.561 114.455C145.689 113.811 146.396 113.232 147.039 113.232C147.939 113.232 148.711 114.197 148.582 115.098Z" fill="#402716"/>
<path d="M196.922 133.881C197.115 134.267 197.372 134.717 197.501 135.103C197.694 135.617 197.501 136.003 197.051 136.196C196.537 136.518 195.958 136.518 195.38 136.325C194.865 136.196 194.287 135.939 194.158 135.231C194.094 134.46 194.608 134.331 195.187 134.138C195.38 134.074 195.573 133.881 195.765 133.752C196.151 133.881 196.537 133.881 196.922 133.881Z" fill="#402716"/>
<path d="M203.544 191.709H203.286H203.029C202.965 191.516 202.901 191.258 202.772 191.13C201.679 189.779 201.679 189.715 202.386 188.621C202.708 188.171 203.029 187.656 203.672 187.914C204.251 188.107 204.443 188.878 204.122 189.586C203.801 190.229 203.094 190.808 203.544 191.709Z" fill="#402716"/>
<path d="M149.032 102.683C148.903 103.069 148.839 103.39 148.775 103.712C148.775 103.776 148.646 103.841 148.517 103.905C148.26 104.034 148.003 104.034 147.939 103.776C147.489 102.618 147.296 101.396 147.553 100.174C147.617 99.9811 147.875 99.7881 148.067 99.7881C148.196 99.7881 148.517 99.9811 148.517 100.11C148.71 100.946 148.839 101.847 149.032 102.683Z" fill="#402716"/>
<path d="M197.951 125.132C197.951 124.875 197.951 124.618 198.015 124.489C198.208 124.167 198.465 124.039 198.851 124.167C199.173 124.296 199.494 124.489 199.43 124.875C199.173 125.776 198.273 126.419 198.658 127.577C198.787 128.027 198.144 128.284 197.694 128.284C197.244 128.284 196.794 128.091 196.665 127.577C196.473 126.998 196.794 126.676 197.244 126.483C197.823 126.29 198.465 126.033 197.951 125.132Z" fill="#402716"/>
<path d="M129.233 116.641C129.168 116.963 129.104 117.67 128.847 118.314C128.718 118.7 128.333 119.021 127.818 118.957C127.304 118.893 127.047 118.442 127.111 117.992C127.176 117.349 127.304 116.641 127.497 115.998C127.69 115.355 128.333 114.969 128.718 115.226C129.104 115.419 129.297 115.741 129.233 116.641Z" fill="#402716"/>
<path d="M202.708 186.499C202.58 186.306 202.258 186.049 202.194 185.791C202.001 185.212 202.387 184.698 202.772 184.312C202.965 184.119 203.415 184.054 203.672 184.183C203.93 184.312 204.122 184.698 204.187 184.955C204.187 185.791 203.48 186.628 202.708 186.499Z" fill="#402716"/>
<path d="M187.152 140.827C187.023 141.921 185.995 142.628 185.03 142.307C184.838 142.243 184.645 142.05 184.645 141.857C184.516 141.213 184.902 140.763 185.352 140.441C185.802 140.12 186.316 139.862 186.895 140.248C187.023 140.377 187.023 140.634 187.152 140.827Z" fill="#402716"/>
<path d="M158.096 84.7361C157.774 85.7653 156.296 86.1512 155.589 85.4437C155.46 85.315 155.396 84.9934 155.46 84.8647C155.717 84.0285 156.874 83.5782 157.646 84.0285C157.903 84.1571 157.967 84.5431 158.096 84.7361Z" fill="#402716"/>
<path d="M179.952 86.408C179.695 86.9227 179.502 87.4373 178.795 87.3729C178.28 87.3729 177.959 86.794 178.087 86.1507C178.216 85.5075 178.602 85.2502 179.245 85.3788C179.823 85.5075 179.887 85.9578 179.952 86.408Z" fill="#402716"/>
<path d="M196.922 133.88C196.537 133.88 196.151 133.88 195.765 133.816C195.572 133.559 195.444 133.301 195.251 133.044C195.894 133.044 196.472 133.108 197.115 133.108C197.051 133.43 196.987 133.623 196.922 133.88Z" fill="#402716"/>
<path d="M164.588 119.536C165.038 119.471 165.424 119.664 165.681 120.05C165.231 120.179 164.846 119.986 164.588 119.536Z" fill="#402716"/>
</g>
<path d="M119.164 12.7313C139.989 10.6925 165.725 33.7563 175.989 45.543C184.243 49.3655 189.005 50.9583 192.721 52.2325C187.735 53.5068 186.502 56.0479 181.704 57.011C180.963 60.3028 176.942 62.4264 175.989 63.3822C175.671 57.3293 174.507 53.4006 174.402 50.9583C153.132 45.543 135.989 37.8973 124.878 22.6065C115.989 10.3738 115.46 12.7313 119.164 12.7313Z" fill="#F0CB9C"/>
<path d="M132.687 32.673C132.878 32.8005 133.132 32.9279 133.322 33.0553C133.386 32.9916 133.449 32.9916 133.513 32.9916C132.814 32.4819 132.116 31.9722 131.417 31.5262C130.084 30.5705 128.687 29.6149 127.354 28.6592C128.243 29.4874 129.195 30.252 130.148 31.0165C130.846 31.5899 131.608 32.1633 132.306 32.7367C132.433 32.6093 132.56 32.6093 132.687 32.673Z" fill="#402716" stroke="#402716" stroke-miterlimit="10"/>
<path d="M184.814 51.4043C184.751 51.4043 184.751 51.468 184.688 51.468C184.751 51.468 184.751 51.468 184.814 51.4043Z" fill="#402716" stroke="#402716" stroke-miterlimit="10"/>
<path d="M138.274 26.1104H138.338C136.56 24.8361 134.655 23.6893 132.624 22.6699C133.449 23.1796 134.274 23.6256 135.1 24.1353C136.179 24.7724 137.195 25.4095 138.274 26.1104Z" fill="#402716" stroke="#402716" stroke-miterlimit="10"/>
<path d="M154.084 30.125C154.02 30.125 154.02 30.125 154.084 30.125C154.211 30.1887 154.338 30.2524 154.465 30.3161C154.592 30.2524 154.655 30.1887 154.782 30.125C154.465 30.1887 154.274 30.1887 154.084 30.125Z" fill="#402716"/>
<path d="M154.084 30.125C154.02 30.125 154.02 30.125 154.084 30.125ZM154.084 30.125C154.211 30.1887 154.338 30.2524 154.465 30.3161C154.592 30.2524 154.655 30.1887 154.782 30.125C154.465 30.1887 154.274 30.1887 154.084 30.125Z" stroke="#402716" stroke-miterlimit="10"/>
<path d="M121.068 19.3574C121.068 19.4211 121.068 19.4211 121.068 19.3574C121.132 19.4211 121.132 19.4211 121.068 19.3574C121.132 19.4211 121.068 19.4211 121.068 19.3574Z" fill="#402716"/>
<path d="M121.068 19.3574C121.068 19.4211 121.068 19.4211 121.068 19.3574ZM121.068 19.3574C121.132 19.4211 121.132 19.4211 121.068 19.3574ZM121.068 19.3574C121.068 19.4211 121.132 19.4211 121.068 19.3574Z" stroke="#402716" stroke-miterlimit="10"/>
<path d="M168.179 52.0417C168.37 52.1054 168.56 52.1054 168.751 52.1691C168.624 52.0417 168.497 51.978 168.37 51.8506C168.306 51.9143 168.243 51.978 168.179 52.0417Z" fill="#402716" stroke="#402716" stroke-miterlimit="10"/>
<path d="M173.005 52.2324C172.814 52.4873 172.56 52.6147 172.306 52.6784C172.433 52.7421 172.56 52.7421 172.624 52.8058C172.814 52.8695 172.941 52.9333 173.132 52.997C173.322 53.1244 173.513 53.2518 173.703 53.3792C173.766 53.3792 173.766 53.4429 173.83 53.4429C173.83 53.3792 173.893 53.3155 173.893 53.2518C173.639 52.9333 173.322 52.551 173.005 52.2324Z" fill="#402716" stroke="#402716" stroke-miterlimit="10"/>
<path d="M177.005 57.2656C177.068 57.393 177.132 57.4568 177.195 57.5842C177.195 57.5205 177.195 57.4568 177.195 57.393C177.132 57.393 177.068 57.3293 177.005 57.2656Z" fill="#402716" stroke="#402716" stroke-miterlimit="10"/>
<path d="M176.497 51.3403C176.624 51.2129 176.687 51.1491 176.814 51.0217H176.751C176.624 51.0217 176.433 50.958 176.306 50.958C176.37 51.0854 176.433 51.2129 176.497 51.3403Z" fill="#402716" stroke="#402716" stroke-miterlimit="10"/>
<path d="M131.481 32.9922C131.608 33.1833 131.671 33.4382 131.735 33.693C131.735 33.5019 131.735 33.3745 131.798 33.1833C131.671 33.1196 131.544 33.0559 131.481 32.9922Z" fill="#402716" stroke="#402716" stroke-miterlimit="10"/>
<path d="M156.878 28.9779C157.005 28.9142 157.132 28.8505 157.259 28.7868C157.068 28.6594 156.878 28.532 156.624 28.4045C156.56 28.4045 156.497 28.3408 156.433 28.3408C156.433 28.3408 156.497 28.4045 156.56 28.4045C156.751 28.532 156.814 28.7231 156.878 28.9779Z" fill="#402716" stroke="#402716" stroke-miterlimit="10"/>
<path d="M152.433 29.041C151.735 28.4676 150.91 28.0216 150.021 27.6394C149.894 27.5757 149.767 27.512 149.576 27.4482C150.084 27.8305 150.592 28.2128 151.036 28.5951C151.735 28.9136 152.37 29.2959 153.068 29.6782C152.878 29.4233 152.624 29.2322 152.433 29.041Z" fill="#402716" stroke="#402716" stroke-miterlimit="10"/>
<path d="M148.434 25.41C148.307 25.41 148.243 25.3462 148.116 25.3462C147.989 25.3462 147.862 25.3462 147.735 25.2825C147.608 25.2825 147.481 25.2825 147.354 25.2825C147.227 25.2825 147.1 25.3462 147.037 25.41C145.005 23.8809 143.037 22.3518 140.878 20.8864C140.624 20.759 140.434 20.5679 140.18 20.4404C140.243 20.5041 140.37 20.5679 140.434 20.6316C142.211 21.9058 143.926 23.18 145.703 24.518C146.338 25.0277 146.973 25.4737 147.608 25.9834C147.672 25.9197 147.672 25.7922 147.799 25.7285C147.989 25.5374 148.243 25.4737 148.434 25.41Z" fill="#402716" stroke="#402716" stroke-miterlimit="10"/>
<path d="M173.894 53.9524V54.0161C173.957 53.9524 173.957 53.9524 174.021 53.8887C174.021 53.9524 173.957 53.9524 173.894 53.9524Z" fill="#402716" stroke="#402716" stroke-miterlimit="10"/>
<path d="M137.195 31.5264C137.131 31.6538 137.004 31.7812 136.941 31.8449C136.941 31.9086 136.941 31.9086 137.004 31.9724C137.068 31.7812 137.131 31.6538 137.195 31.5264Z" fill="#402716" stroke="#402716" stroke-miterlimit="10"/>
<path d="M130.211 15.8525C130.147 15.8525 130.084 15.9163 130.147 15.98C130.528 16.1711 130.909 16.4259 131.29 16.5534C131.798 16.7445 132.433 16.7445 132.878 16.9356C133.766 17.3179 135.29 17.8276 136.116 18.2736C137.576 19.0381 138.846 19.6753 140.179 20.5035C140.433 20.6309 140.624 20.7584 140.878 20.9495C143.036 22.4149 145.068 23.944 147.036 25.473C147.1 25.4093 147.227 25.3456 147.354 25.3456C147.481 25.3456 147.608 25.3456 147.735 25.3456C147.862 25.3456 147.989 25.3456 148.116 25.4093C147.671 25.3456 147.227 25.2819 146.782 25.2182C146.465 25.1545 146.719 24.8359 146.973 24.5811C145.322 23.3705 143.671 22.2237 141.893 21.1406C140.56 20.3124 139.227 19.5478 137.83 18.7833C135.862 17.7639 133.83 16.8719 131.608 16.1711C131.227 16.0437 130.719 15.98 130.211 15.8525Z" fill="#402716" stroke="#402716" stroke-miterlimit="10"/>
<path d="M154.211 30.4433C154.275 30.3796 154.338 30.3796 154.402 30.3159C154.275 30.2522 154.148 30.1885 154.021 30.1248C153.703 29.9973 153.386 29.8062 153.068 29.6151C152.433 29.2328 151.735 28.8505 151.036 28.532C150.909 28.4682 150.783 28.4045 150.656 28.3408C150.592 28.3408 150.592 28.3408 150.656 28.4045C151.036 28.6594 151.481 28.9142 151.862 29.1691C152.687 29.8699 153.576 30.507 154.402 31.2079C154.656 31.399 154.846 31.5901 155.1 31.7813C156.433 32.8644 157.703 33.8838 159.036 34.9031C162.021 37.3242 164.941 40.0001 167.608 42.8034C169.068 44.3325 170.465 45.7979 171.989 47.327C173.132 48.4738 174.021 49.748 175.1 50.9585C175.481 50.9585 175.862 50.9585 176.243 50.9585C176.37 50.9585 176.56 51.0223 176.687 51.0223C176.687 51.0223 176.624 50.9585 176.687 50.9585C176.814 50.8948 177.005 50.8311 177.195 50.7674C175.544 49.8117 174.211 48.4101 172.941 47.1358C171.608 45.7979 170.275 44.3962 169.005 42.9946C166.338 40.1912 163.544 37.579 160.624 35.0306C159.29 33.8838 158.021 32.8007 156.624 31.7176C156.052 31.1441 155.417 30.6982 154.719 30.3796C154.592 30.4433 154.529 30.4433 154.402 30.507C154.338 30.6344 154.148 30.507 154.211 30.4433Z" fill="#402716" stroke="#402716" stroke-miterlimit="10"/>
<path d="M177.385 51.1494C177.322 51.1494 177.195 51.1494 177.131 51.1494" stroke="#402716" stroke-miterlimit="10"/>
<path d="M131.481 32.9914C131.544 33.0551 131.671 33.1188 131.735 33.1825C132.052 33.3736 132.306 33.6285 132.624 33.8196C133.195 34.2019 133.703 34.6479 134.274 35.0939V35.0302C134.338 34.839 134.592 34.7116 134.782 34.7116C134.655 34.5842 134.528 34.5205 134.401 34.393C133.703 33.8196 133.005 33.2462 132.306 32.7365C131.608 32.1631 130.909 31.5897 130.147 31.0163C129.195 30.2518 128.243 29.4872 127.354 28.659C126.528 27.9581 125.767 27.1936 125.068 26.3653C123.544 24.6451 122.211 22.67 121.449 20.3764C121.322 20.0579 121.195 19.7393 121.132 19.4207C121.005 18.9748 120.814 18.5288 120.687 18.1465C120.56 17.7642 120.433 17.4457 120.306 17.1271C120.243 16.936 120.243 16.8085 120.179 16.6174C120.179 16.5537 120.116 16.49 120.116 16.4263C120.243 16.4263 120.433 16.3626 120.624 16.2989C121.386 16.1077 122.147 16.1077 122.846 16.044C123.671 15.9166 124.433 15.8529 125.259 15.9166C125.386 15.9166 125.386 15.7892 125.259 15.7892C124.687 15.7892 124.116 15.7254 123.544 15.598C123.417 15.598 123.29 15.5343 123.163 15.5343C122.782 15.4706 122.465 15.4069 122.147 15.3432C121.64 15.2795 121.195 15.0883 120.751 15.0246C120.052 14.8335 119.29 15.2795 118.973 16.044C118.655 16.6811 118.909 17.1271 119.163 17.6368C119.608 18.7199 120.052 19.803 120.624 20.8224C120.687 20.9498 120.814 21.141 120.878 21.2684C121.322 22.1603 121.83 23.0523 122.338 23.9443C122.592 24.3266 122.846 24.7088 123.1 25.0911C125.322 28.213 128.37 30.634 131.481 32.9277C131.417 32.9277 131.417 32.9277 131.481 32.9914Z" fill="#402716" stroke="#402716" stroke-miterlimit="10"/>
<path d="M174.211 53.8253C174.338 53.7615 174.402 53.6341 174.529 53.5067C174.402 53.443 174.275 53.443 174.084 53.3793C174.021 53.443 173.957 53.443 173.894 53.443C173.83 53.443 173.83 53.443 173.767 53.3793C173.576 53.2518 173.386 53.1244 173.195 52.997C173.005 52.9333 172.878 52.8696 172.687 52.8059C172.56 52.7422 172.434 52.7421 172.37 52.6784C171.799 52.4873 171.227 52.4236 170.592 52.3599C170.211 52.2962 169.83 52.2962 169.386 52.2325C169.195 52.2325 169.005 52.1687 168.814 52.105C168.624 52.0413 168.434 52.0413 168.243 51.9776C166.529 51.5953 164.878 51.0219 163.164 50.5759C162.084 50.3211 160.941 50.1937 159.862 49.8751C159.1 49.684 158.338 49.3654 157.64 49.0469C156.624 48.6009 155.672 48.1549 154.656 47.7726C153.64 47.4541 152.624 47.0718 151.672 46.6258C150.148 45.925 148.56 45.1604 147.227 44.0773C147.164 44.0773 147.1 44.0773 147.037 44.0773C145.767 43.6313 144.687 42.7394 143.735 41.9111C142.656 41.0829 141.703 40.1909 140.687 39.2989C140.56 39.1715 140.37 39.0441 140.243 38.9167C138.719 37.7061 137.195 36.4956 135.672 35.2851C135.481 35.094 135.227 34.9665 135.037 34.7754C134.973 34.9665 134.846 35.2214 134.783 35.4125C137.957 37.961 140.878 40.828 144.18 43.3128C146.148 44.7782 148.243 46.1798 150.465 47.3266C152.624 48.4097 154.91 49.3654 157.322 50.13C161.576 51.5316 166.084 52.551 170.592 53.3793C170.91 53.443 171.164 53.5067 171.481 53.5704C171.735 53.6341 171.926 53.6341 172.18 53.6978C172.814 53.8253 173.386 53.889 174.021 53.889C174.084 53.889 174.148 53.889 174.148 53.889C174.084 53.889 174.148 53.889 174.211 53.8253Z" fill="#402716" stroke="#402716" stroke-miterlimit="10"/>
<path d="M175.862 57.2024C176.433 58.2218 176.941 59.3686 177.703 60.2606C177.894 60.5154 178.528 60.0694 178.592 59.6872C178.719 58.5404 178.782 57.4573 178.909 56.3742C178.973 55.9282 178.973 55.4185 179.036 54.9725C179.036 54.9088 179.036 54.7814 179.036 54.7176C179.036 54.6539 179.036 54.5902 179.036 54.4628C178.973 54.3991 179.036 54.3991 179.1 54.3991C179.227 54.3354 179.354 54.3354 179.417 54.2717C179.608 54.208 179.798 54.1442 179.989 54.0805C180.052 54.0805 180.052 54.0805 180.116 54.0168C182.021 53.4434 184.116 52.7426 185.767 51.2135C185.894 51.0861 186.275 50.6401 185.957 50.5764C185.259 50.4489 184.497 50.3852 183.735 50.3215C183.036 50.2578 182.275 50.2578 181.513 50.2578C180.878 50.3215 180.179 50.3215 179.481 50.3852C179.354 50.3852 179.227 50.3852 179.1 50.4489C178.655 50.5127 178.211 50.5764 177.767 50.6401C177.513 50.7038 177.259 50.7038 177.068 50.7675C176.878 50.8312 176.751 50.8312 176.56 50.9586C176.497 50.9586 176.56 51.0224 176.56 51.0224H176.624C176.751 51.0224 176.878 51.0861 176.941 51.0861C177.005 51.0861 177.132 51.0861 177.195 51.0861C177.703 51.0861 178.275 51.0861 178.782 51.0224C179.544 51.0224 180.306 51.0224 181.005 51.0861C181.703 51.0861 182.401 51.1498 183.1 51.2135C183.608 51.2772 184.052 51.3409 184.56 51.3409H184.624C184.56 51.3409 184.56 51.4046 184.497 51.4046C182.909 52.6152 181.005 53.0611 179.227 53.6345C178.719 53.8257 178.148 54.0168 178.021 54.5902C177.894 55.1636 177.894 55.8007 177.83 56.3104C177.767 57.075 177.703 57.7758 177.576 58.5404C177.322 58.2218 177.132 57.8395 176.941 57.4573C176.878 57.3298 176.814 57.2661 176.751 57.1387C176.624 56.9476 176.56 56.7564 176.433 56.5016C176.179 55.9919 175.862 55.4822 175.544 54.9725C175.227 54.4628 174.846 53.8894 174.275 53.6345C174.211 53.5708 174.084 53.6345 173.894 53.6983C173.83 53.6983 173.767 53.762 173.703 53.8257C173.64 53.8257 173.64 53.8894 173.576 53.9531C173.386 54.0805 173.322 54.2717 173.386 54.3991C173.767 54.8451 174.211 55.1636 174.592 55.6733C175.29 56.183 175.544 56.6927 175.862 57.2024Z" fill="#402716" stroke="#402716" stroke-miterlimit="10"/>
<path d="M146.782 25.1552C147.227 25.2189 147.671 25.2826 148.116 25.3463C148.243 25.3463 148.306 25.41 148.433 25.41C149.957 25.6649 151.354 26.0471 152.751 26.5568C153.703 26.8754 154.592 27.2577 155.417 27.7036C155.798 27.8948 156.116 28.0859 156.497 28.2771C156.56 28.2771 156.624 28.3408 156.687 28.3408C156.878 28.4682 157.068 28.5956 157.322 28.723C157.449 28.6593 157.64 28.5956 157.767 28.5319C158.275 28.3408 158.211 28.8505 157.83 29.0416C157.259 29.2964 156.624 29.4876 156.052 29.7424C155.798 29.8698 155.544 29.9973 155.29 30.1247C155.163 30.1884 155.036 30.2521 154.973 30.3795C154.909 30.4433 155.036 30.507 155.1 30.507C155.608 30.3795 156.052 30.1247 156.56 29.9336C157.132 29.6787 157.767 29.2964 158.338 29.1053C158.465 29.0416 158.719 28.9142 158.655 28.7867C158.402 28.4045 157.83 28.1496 157.449 27.8948C157.005 27.6399 156.56 27.3851 156.116 27.1302C155.29 26.6843 154.465 26.302 153.64 25.9834C151.735 25.2189 149.703 24.6455 147.544 24.3906C147.417 24.3906 147.29 24.4543 147.1 24.5818C146.719 24.7729 146.465 25.1552 146.782 25.1552Z" fill="#402716" stroke="#402716" stroke-miterlimit="10"/>
<path d="M131.989 22.7339C131.481 23.2436 130.973 23.7533 130.465 24.1993C130.338 24.263 130.275 24.3904 130.148 24.4541C129.957 24.6452 129.767 24.7727 129.513 24.9638C129.195 25.2186 128.814 25.2824 128.497 25.6009C128.37 25.7283 127.925 26.3017 128.37 26.238C128.878 26.1743 129.259 25.7283 129.64 25.4098C129.957 25.1549 130.211 24.9638 130.465 24.7089C130.529 24.7089 130.529 24.6452 130.592 24.6452C131.227 24.1355 131.798 23.5621 132.306 22.925C132.37 22.8613 132.497 22.7339 132.56 22.6702C133.132 22.033 133.576 21.3322 134.021 20.5677C134.275 20.1217 134.465 19.6757 134.656 19.166C134.656 19.166 134.592 19.1023 134.592 19.166C134.338 19.612 134.084 19.9943 133.767 20.4403C133.259 21.1411 132.751 21.8419 132.179 22.479C132.179 22.5427 132.116 22.6065 131.989 22.7339Z" fill="#402716" stroke="#402716" stroke-miterlimit="10"/>
<path d="M134.973 34.8393C135.036 34.7119 134.909 34.6482 134.782 34.7119C134.592 34.7119 134.338 34.903 134.274 35.0305V35.0942C133.893 35.9861 133.576 36.8781 133.385 37.7701C132.941 37.1967 132.56 36.5595 132.306 35.8587C132.116 35.4127 131.989 34.903 131.862 34.3933C131.798 34.2022 131.798 33.9474 131.798 33.6925C131.735 33.4377 131.735 33.1828 131.544 32.9917C131.544 32.9917 131.544 32.9917 131.544 32.928L131.481 32.8643C131.417 32.8643 131.29 32.8643 131.227 32.9917C130.973 33.5651 131.1 34.2022 131.163 34.7119C131.227 35.2853 131.417 35.8587 131.608 36.3684C131.989 37.3878 132.56 38.2161 133.322 38.9169C133.512 39.108 134.084 38.7258 134.084 38.4709C134.211 37.4515 134.465 36.4321 134.846 35.4764C134.782 35.2853 134.909 35.0305 134.973 34.8393Z" fill="#402716" stroke="#402716" stroke-miterlimit="10"/>
<path d="M142.084 26.4296C141.767 26.3659 141.449 26.2384 141.068 26.1747C140.306 25.9836 139.544 25.8562 138.846 25.665C138.782 25.665 138.782 25.7288 138.846 25.7288C139.29 25.8562 139.798 25.9836 140.243 26.111C140.814 26.3022 141.449 26.4296 142.084 26.557C142.148 26.557 142.148 26.4933 142.084 26.4296Z" fill="#402716" stroke="#402716" stroke-miterlimit="10"/>
<path d="M139.798 29.6154C139.481 29.7428 139.163 29.8702 138.782 29.9339C138.465 29.9977 138.147 30.1888 137.893 30.4436C137.639 30.6985 137.449 31.1445 137.259 31.463C137.259 31.463 137.259 31.5267 137.195 31.5267C137.132 31.6542 137.068 31.7816 137.005 31.909C137.005 31.8453 137.005 31.8453 136.941 31.7816C136.751 31.2719 136.624 30.7622 136.497 30.1888C136.306 29.4243 136.243 28.6597 136.243 27.8952C136.243 27.8952 136.243 27.8315 136.179 27.8315C136.116 27.7677 135.862 27.7677 135.798 27.8952C135.798 27.8952 135.798 27.8952 135.798 27.9589C135.417 29.7428 136.052 31.2719 136.624 32.6736C136.687 32.8647 137.068 32.6736 137.195 32.5461C137.386 32.1639 137.576 31.8453 137.83 31.463C137.893 31.2719 138.02 31.0808 138.147 30.8896C138.274 30.6985 138.338 30.5711 138.528 30.5074C138.846 30.3162 139.227 30.2525 139.544 30.1251C139.798 30.0614 139.989 29.9339 140.243 29.8065C140.37 29.7428 140.497 29.6791 140.56 29.6154C141.005 29.3605 141.513 29.1057 141.957 28.8508C142.592 28.4049 143.227 27.9589 143.798 27.3855C143.862 27.3218 143.925 27.258 144.052 27.1943C143.989 27.258 143.862 27.3218 143.798 27.3855C143.608 27.5129 143.481 27.6403 143.29 27.7677C142.147 28.5323 141.005 29.1057 139.798 29.6154Z" fill="#402716"/>
<path d="M143.798 27.3855C143.227 27.9589 142.592 28.4049 141.957 28.8508C141.513 29.1057 141.005 29.3605 140.56 29.6154C140.497 29.6791 140.37 29.7428 140.243 29.8065C139.989 29.9339 139.798 30.0614 139.544 30.1251C139.227 30.2525 138.846 30.3162 138.528 30.5074C138.338 30.5711 138.274 30.6985 138.147 30.8896C138.02 31.0808 137.893 31.2719 137.83 31.463C137.576 31.8453 137.386 32.1639 137.195 32.5461C137.068 32.6736 136.687 32.8647 136.624 32.6736C136.052 31.2719 135.417 29.7428 135.798 27.9589C135.798 27.8952 135.798 27.8952 135.798 27.8952C135.862 27.7677 136.116 27.7677 136.179 27.8315C136.243 27.8315 136.243 27.8952 136.243 27.8952C136.243 28.6597 136.306 29.4243 136.497 30.1888C136.624 30.7622 136.751 31.2719 136.941 31.7816C137.005 31.8453 137.005 31.8453 137.005 31.909C137.068 31.7816 137.132 31.6542 137.195 31.5267C137.259 31.5267 137.259 31.463 137.259 31.463C137.449 31.1445 137.639 30.6985 137.893 30.4436C138.147 30.1888 138.465 29.9977 138.782 29.9339C139.163 29.8702 139.481 29.7428 139.798 29.6154C141.005 29.1057 142.147 28.5323 143.29 27.7677C143.481 27.6403 143.608 27.5129 143.798 27.3855ZM143.798 27.3855C143.862 27.3218 143.925 27.258 144.052 27.1943C143.989 27.258 143.862 27.3218 143.798 27.3855Z" stroke="#402716" stroke-miterlimit="10"/>
<path d="M127.735 18.9754C127.481 19.9311 128.497 20.3134 129.195 19.74C129.449 19.5489 129.766 19.0392 129.83 18.6569C129.893 18.2746 129.83 17.9561 129.385 17.9561C129.195 17.9561 129.005 18.0198 128.814 18.0835C128.687 18.0835 128.497 18.1472 128.37 18.2109C128.116 18.2746 127.862 18.5932 127.735 18.9754ZM129.322 18.2746C129.703 18.5295 128.814 19.8037 128.37 19.4851C127.989 19.1666 128.878 17.8923 129.322 18.2746Z" fill="#402716" stroke="#402716" stroke-miterlimit="10"/>
<path d="M157.766 29.1056C158.147 28.9144 158.211 28.4047 157.703 28.5959C157.576 28.6596 157.385 28.7233 157.258 28.787C157.131 28.8507 157.004 28.9144 156.878 28.9781C156.179 29.2967 155.417 29.7427 154.719 30.125C154.592 30.1887 154.528 30.2524 154.401 30.3161C154.338 30.3798 154.274 30.3798 154.211 30.4435C154.084 30.5072 154.338 30.5709 154.401 30.5709C154.528 30.5072 154.592 30.5072 154.719 30.4435C154.909 30.3798 155.1 30.3161 155.227 30.1887C155.481 30.0613 155.735 29.9338 155.989 29.8064C156.624 29.5516 157.195 29.4241 157.766 29.1056Z" fill="#402716" stroke="#402716" stroke-miterlimit="10"/>
<path d="M128.37 19.4845C128.814 19.8031 129.703 18.5925 129.322 18.274C128.878 17.8917 127.989 19.1659 128.37 19.4845Z" fill="#402716" stroke="#402716" stroke-miterlimit="10"/>
<path d="M68.3036 86.2093C74.2181 81.0663 91.3399 76.3522 99.1614 74.638C99.4827 73.4593 100.575 70.6518 102.375 68.8518C104.625 66.6018 102.697 75.9234 103.34 75.602C103.854 75.3448 108.483 76.5663 107.518 78.4949L99.1614 78.4949C94.34 82.0307 83.6042 89.7451 79.2326 92.3166C73.7682 95.531 62.1963 97.1378 60.5892 96.8164C58.982 96.495 60.9105 92.6381 68.3036 86.2093Z" fill="#EDD6D6"/>
<path d="M74.8596 94.3332C74.9945 94.2694 75.1509 94.1703 75.2858 94.1065C75.2717 94.0497 75.2931 94.0143 75.3144 93.9788C74.7958 94.1982 74.2773 94.4176 73.7942 94.6583C72.8139 95.083 71.8123 95.5431 70.832 95.9678C71.592 95.7487 72.3378 95.4728 73.0836 95.1969C73.6376 94.9989 74.2129 94.7654 74.767 94.5673C74.7387 94.4537 74.7814 94.3828 74.8596 94.3332Z" fill="#402716" stroke="#402716" stroke-miterlimit="10"/>
<path d="M102.812 71.4879C102.79 71.5237 102.826 71.5453 102.804 71.5811C102.826 71.5453 102.826 71.5453 102.812 71.4879Z" fill="#402716" stroke="#402716" stroke-miterlimit="10"/>
<path d="M73.0846 89.0135L73.1059 88.978C71.7989 89.5443 70.5201 90.2241 69.2695 91.0176C69.8308 90.7272 70.3565 90.4156 70.9178 90.1252C71.6353 89.7357 72.3315 89.3817 73.0846 89.0135Z" fill="#402716" stroke="#402716" stroke-miterlimit="10"/>
<path d="M80.6337 81.5261C80.6123 81.5616 80.6123 81.5616 80.6337 81.5261C80.7118 81.4765 80.79 81.4269 80.8682 81.3774C80.8754 81.2851 80.8613 81.2283 80.8685 81.136C80.7972 81.3347 80.7332 81.4411 80.6337 81.5261Z" fill="#402716"/>
<path d="M80.6337 81.5261C80.6123 81.5616 80.6123 81.5616 80.6337 81.5261ZM80.6337 81.5261C80.7118 81.4765 80.79 81.4269 80.8682 81.3774C80.8754 81.2851 80.8613 81.2283 80.8685 81.136C80.7972 81.3347 80.7332 81.4411 80.6337 81.5261Z" stroke="#402716" stroke-miterlimit="10"/>
<path d="M63.5405 96.3623C63.5775 96.3846 63.5775 96.3846 63.5405 96.3623C63.5998 96.3476 63.5998 96.3476 63.5405 96.3623C63.5998 96.3476 63.5775 96.3846 63.5405 96.3623Z" fill="#402716"/>
<path d="M63.5405 96.3623C63.5775 96.3846 63.5775 96.3846 63.5405 96.3623ZM63.5405 96.3623C63.5998 96.3476 63.5998 96.3476 63.5405 96.3623ZM63.5405 96.3623C63.5775 96.3846 63.5998 96.3476 63.5405 96.3623Z" stroke="#402716" stroke-miterlimit="10"/>
<path d="M97.5737 80.9957C97.6732 80.9106 97.7372 80.8042 97.8367 80.7191C97.7231 80.7474 97.6449 80.797 97.5313 80.8252C97.5454 80.882 97.5596 80.9389 97.5737 80.9957Z" fill="#402716" stroke="#402716" stroke-miterlimit="10"/>
<path d="M99.3027 78.3637C99.3805 78.5555 99.3661 78.7401 99.3162 78.9033C99.3943 78.8537 99.437 78.7828 99.4938 78.7687C99.5933 78.6836 99.6715 78.634 99.771 78.549C99.906 78.4852 100.041 78.4215 100.176 78.3578C100.197 78.3223 100.233 78.3437 100.254 78.3082C100.219 78.2869 100.204 78.2301 100.169 78.2087C99.9063 78.2439 99.5867 78.2931 99.3027 78.3637Z" fill="#402716" stroke="#402716" stroke-miterlimit="10"/>
<path d="M103.45 77.8154C103.542 77.8227 103.599 77.8085 103.692 77.8158C103.656 77.7943 103.621 77.7729 103.585 77.7515C103.564 77.7871 103.507 77.8013 103.45 77.8154Z" fill="#402716" stroke="#402716" stroke-miterlimit="10"/>
<path d="M99.9795 76.1135C99.9512 75.9998 99.9371 75.943 99.9089 75.8294L99.8875 75.8649C99.8448 75.9358 99.7453 76.0209 99.7026 76.0918C99.7949 76.099 99.8872 76.1062 99.9795 76.1135Z" fill="#402716" stroke="#402716" stroke-miterlimit="10"/>
<path d="M74.6309 95.1143C74.78 95.1074 74.9432 95.1573 75.1064 95.2072C75 95.1431 74.9291 95.1005 74.844 95.001C74.7658 95.0505 74.6877 95.1001 74.6309 95.1143Z" fill="#402716" stroke="#402716" stroke-miterlimit="10"/>
<path d="M80.9348 79.5814C80.942 79.4891 80.9492 79.3968 80.9564 79.3045C80.8215 79.3683 80.6865 79.432 80.5302 79.5312C80.5088 79.5666 80.452 79.5807 80.4307 79.6162C80.4307 79.6162 80.4875 79.6021 80.5088 79.5666C80.6438 79.5029 80.7715 79.5315 80.9348 79.5814Z" fill="#402716" stroke="#402716" stroke-miterlimit="10"/>
<path d="M79.4762 82.086C78.9221 82.284 78.3964 82.5957 77.8847 82.9642C77.8066 83.0138 77.7284 83.0634 77.6289 83.1484C78.0125 82.9928 78.3961 82.8371 78.7583 82.7169C79.1704 82.4334 79.5967 82.2068 80.0443 81.9447C79.8384 81.9658 79.6466 82.0436 79.4762 82.086Z" fill="#402716" stroke="#402716" stroke-miterlimit="10"/>
<path d="M76.1098 83.1038C76.0671 83.1747 76.0103 83.1889 75.9676 83.2598C75.9249 83.3307 75.8822 83.4017 75.8041 83.4513C75.7614 83.5222 75.7187 83.5932 75.676 83.6641C75.6333 83.735 75.6261 83.8273 75.6402 83.8841C74.1059 84.5068 72.593 85.0941 71.0514 85.8091C70.8951 85.9082 70.7247 85.9506 70.5684 86.0498C70.6252 86.0357 70.7033 85.9861 70.7601 85.972C72.0672 85.4057 73.3529 84.875 74.6954 84.3301C75.1926 84.1462 75.6543 83.9409 76.1515 83.757C76.1374 83.7002 76.0665 83.6575 76.0737 83.5652C76.0313 83.3948 76.0812 83.2316 76.1098 83.1038Z" fill="#402716" stroke="#402716" stroke-miterlimit="10"/>
<path d="M100.559 78.4435L100.595 78.465C100.581 78.4076 100.581 78.4076 100.567 78.3502C100.602 78.3717 100.581 78.4076 100.559 78.4435Z" fill="#402716" stroke="#402716" stroke-miterlimit="10"/>
<path d="M75.7367 91.4304C75.7863 91.5086 75.8146 91.6222 75.8287 91.679C75.8642 91.7003 75.8642 91.7003 75.921 91.6862C75.8359 91.5867 75.7863 91.5086 75.7367 91.4304Z" fill="#402716" stroke="#402716" stroke-miterlimit="10"/>
<path d="M64.6635 90.0817C64.6421 90.1171 64.6563 90.174 64.7131 90.1598C64.9476 90.0111 65.2175 89.8836 65.4165 89.7135C65.6937 89.4938 65.9071 89.1391 66.163 88.9549C66.6746 88.5864 67.4706 87.9059 67.9964 87.5942C68.913 87.0346 69.6946 86.5387 70.6039 86.0713C70.7602 85.9721 70.8952 85.9084 71.087 85.8306C72.6285 85.1156 74.1628 84.4929 75.6758 83.9056C75.6616 83.8488 75.6689 83.7565 75.7116 83.6856C75.7542 83.6146 75.7969 83.5437 75.8396 83.4728C75.8823 83.4018 75.925 83.3309 76.0032 83.2813C75.8183 83.5082 75.6334 83.7352 75.4485 83.9621C75.3063 84.1181 75.2144 83.8695 75.1579 83.6423C73.929 84.1589 72.7356 84.6968 71.5349 85.3271C70.6256 85.7945 69.7517 86.2832 68.8565 86.8073C67.6273 87.5653 66.4477 88.4015 65.3104 89.4081C65.1114 89.5782 64.9052 89.8406 64.6635 90.0817Z" fill="#402716" stroke="#402716" stroke-miterlimit="10"/>
<path d="M80.8545 81.5626C80.8403 81.5058 80.8617 81.4704 80.8476 81.4135C80.7694 81.4631 80.6912 81.5127 80.6131 81.5623C80.4354 81.697 80.2223 81.8103 80.0092 81.9236C79.5829 82.1502 79.1353 82.4123 78.7231 82.6957C78.645 82.7453 78.5668 82.7949 78.4887 82.8445C78.4673 82.88 78.4673 82.88 78.5241 82.8658C78.7941 82.7384 79.0854 82.5755 79.3553 82.4481C80.023 82.2218 80.6765 81.9387 81.3441 81.7124C81.5359 81.6345 81.7064 81.5922 81.8981 81.5143C82.9494 81.1324 83.9438 80.7645 84.9595 80.3612C87.3106 79.5053 89.7821 78.7702 92.2393 78.2197C93.5814 77.9162 94.8668 77.6269 96.2304 77.2879C97.253 77.0337 98.2612 76.964 99.298 76.7666C99.4261 76.5538 99.5541 76.341 99.6822 76.1282C99.7249 76.0573 99.8244 75.9722 99.8671 75.9013C99.8671 75.9013 99.8103 75.9154 99.8316 75.8799C99.8388 75.7876 99.8674 75.6599 99.896 75.5321C98.809 76.1341 97.5804 76.4094 96.4441 76.6919C95.251 76.9884 94.0225 77.2637 92.8153 77.5035C90.3581 78.054 87.9647 78.7394 85.5641 79.5172C84.4774 79.8778 83.4475 80.2243 82.375 80.6417C81.8636 80.7688 81.4019 80.9741 80.9898 81.2575C80.9825 81.3498 80.9612 81.3853 80.954 81.4776C81.0036 81.5557 80.8686 81.6195 80.8545 81.5626Z" fill="#402716" stroke="#402716" stroke-miterlimit="10"/>
<path d="M100.173 75.553C100.152 75.5885 100.109 75.6597 100.087 75.6953" stroke="#402716" stroke-miterlimit="10"/>
<path d="M74.6312 95.1145C74.688 95.1003 74.7662 95.0508 74.823 95.0366C75.0361 94.9233 75.2634 94.8668 75.4765 94.7535C75.8814 94.5624 76.3005 94.428 76.7408 94.2582L76.7054 94.2369C76.6203 94.1374 76.6348 93.9528 76.6988 93.8464C76.5852 93.8747 76.507 93.9243 76.3934 93.9525C75.8394 94.1506 75.2853 94.3486 74.7668 94.568C74.2128 94.766 73.6588 94.9641 73.0834 95.1976C72.3376 95.4735 71.5918 95.7494 70.8319 95.9685C70.1642 96.1947 69.4825 96.3642 68.7866 96.4769C67.3166 96.7518 65.7688 96.835 64.2358 96.4921C64.0158 96.4564 63.7958 96.4206 63.5971 96.3493C63.3061 96.2708 62.9938 96.2278 62.7383 96.1707C62.4828 96.1136 62.2627 96.0778 62.0427 96.042C61.915 96.0134 61.844 95.9707 61.7163 95.9421C61.6808 95.9208 61.624 95.9349 61.5885 95.9136C61.6312 95.8426 61.6598 95.7149 61.6883 95.5871C61.8381 95.0975 62.0942 94.6719 62.2936 94.2604C62.5001 93.7566 62.7208 93.3096 63.0337 92.8699C63.0764 92.7989 63.0055 92.7562 62.9628 92.8272C62.7707 93.1464 62.5431 93.4443 62.2801 93.7208C62.2374 93.7917 62.1592 93.8413 62.1165 93.9123C61.953 94.1037 61.8108 94.2597 61.6686 94.4157C61.4624 94.6781 61.2065 94.8624 61.0217 95.0893C60.6805 95.4154 60.6726 95.9905 60.9915 96.4239C61.2395 96.8147 61.5731 96.8223 61.9422 96.8512C62.6946 96.9658 63.447 97.0804 64.2066 97.1027C64.2989 97.1099 64.448 97.103 64.5403 97.1102C65.1863 97.1608 65.8536 97.1758 66.5209 97.1909C66.8191 97.1771 67.1173 97.1633 67.4155 97.1495C69.9005 96.954 72.2729 96.0627 74.5957 95.0931C74.5744 95.1286 74.5744 95.1286 74.6312 95.1145Z" fill="#402716" stroke="#402716" stroke-miterlimit="10"/>
<path d="M100.595 78.2234C100.602 78.1311 100.553 78.053 100.524 77.9393C100.446 77.9889 100.403 78.0599 100.304 78.1449C100.318 78.2017 100.297 78.2372 100.275 78.2727C100.254 78.3081 100.254 78.3081 100.197 78.3223C100.062 78.386 99.9273 78.4497 99.7923 78.5134C99.6928 78.5985 99.6147 78.6481 99.5152 78.7331C99.437 78.7827 99.3943 78.8536 99.3375 78.8678C99.039 79.1229 98.8114 79.4208 98.5625 79.7542C98.399 79.9456 98.2709 80.1584 98.086 80.3854C98.022 80.4918 97.9225 80.5768 97.8229 80.6619C97.7234 80.747 97.6594 80.8534 97.5599 80.9384C96.7708 81.768 95.8966 82.4981 95.072 83.3063C94.5672 83.8239 94.1121 84.4197 93.5719 84.9159C93.2093 85.2775 92.7758 85.5964 92.3637 85.8798C91.7739 86.2979 91.2054 86.6805 90.6511 87.1199C90.1322 87.5807 89.5779 88.0201 89.0094 88.4028C88.107 89.0192 87.1477 89.6498 86.0965 90.0317C86.0751 90.0672 86.0538 90.1027 86.0324 90.1382C85.3573 90.6981 84.4978 91.0022 83.7166 91.2568C82.8926 91.5823 82.0759 91.8155 81.2378 92.0841C81.1241 92.1124 80.9892 92.1761 80.8755 92.2043C79.6893 92.65 78.5032 93.0957 77.317 93.5414C77.1465 93.5838 76.9902 93.6829 76.8198 93.7253C76.9048 93.8248 77.004 93.9811 77.0891 94.0806C79.5751 93.161 82.1531 92.49 84.6463 91.4781C86.1238 90.8695 87.6085 90.1686 88.994 89.3115C90.3227 88.4684 91.6232 87.5117 92.8599 86.42C95.0704 84.5132 97.1534 82.3365 99.13 80.0957C99.2722 79.9397 99.393 79.8192 99.5352 79.6632C99.6561 79.5426 99.7201 79.4362 99.841 79.3157C100.125 79.0037 100.353 78.7058 100.566 78.3511C100.588 78.3157 100.609 78.2802 100.609 78.2802C100.588 78.3157 100.609 78.2802 100.595 78.2234Z" fill="#402716" stroke="#402716" stroke-miterlimit="10"/>
<path d="M103.03 78.433C103.789 78.4553 104.599 78.5558 105.351 78.429C105.557 78.408 105.522 77.9038 105.331 77.7403C104.735 77.2852 104.154 76.8868 103.593 76.453C103.366 76.2681 103.083 76.0974 102.856 75.9125C102.82 75.8911 102.749 75.8484 102.714 75.8271C102.678 75.8057 102.643 75.7844 102.572 75.7417C102.515 75.7558 102.536 75.7204 102.558 75.6849C102.565 75.5926 102.608 75.5217 102.594 75.4649C102.622 75.3371 102.651 75.2094 102.679 75.0816C102.701 75.0461 102.701 75.0461 102.687 74.9893C103.008 73.7332 103.322 72.3279 103.026 70.8934C102.997 70.7798 102.877 70.4176 102.735 70.5736C102.429 70.921 102.138 71.3253 101.846 71.7296C101.576 72.0984 101.32 72.524 101.063 72.9496C100.885 73.3257 100.651 73.7158 100.451 74.1273C100.409 74.1983 100.366 74.2692 100.359 74.3615C100.245 74.6311 100.131 74.9007 100.017 75.1704C99.967 75.3336 99.8816 75.4755 99.853 75.6032C99.8245 75.731 99.7818 75.8019 99.7887 75.951C99.7673 75.9865 99.8241 75.9723 99.8241 75.9723L99.8455 75.9369C99.8882 75.8659 99.9663 75.8163 99.9877 75.7809C100.009 75.7454 100.052 75.6745 100.073 75.639C100.244 75.3552 100.436 75.036 100.571 74.7309C100.827 74.3053 101.084 73.8797 101.354 73.5109C101.589 73.1207 101.859 72.7519 102.129 72.3831C102.335 72.1207 102.52 71.8938 102.691 71.61L102.712 71.5745C102.691 71.61 102.726 71.6314 102.705 71.6668C102.845 72.9591 102.453 74.1726 102.175 75.3578C102.11 75.7056 102.025 76.0889 102.301 76.3519C102.578 76.6149 102.933 76.8284 103.195 77.0346C103.599 77.3262 103.968 77.5965 104.351 77.9236C104.088 77.9587 103.811 77.9371 103.535 77.9154C103.442 77.9082 103.385 77.9223 103.293 77.9151C103.144 77.922 103.016 77.8934 102.832 77.879C102.463 77.8501 102.072 77.8567 101.682 77.8632C101.291 77.8698 100.844 77.8905 100.51 78.1244C100.453 78.1385 100.446 78.2308 100.417 78.3585C100.396 78.394 100.41 78.4508 100.424 78.5076C100.403 78.5431 100.438 78.5644 100.452 78.6213C100.459 78.7703 100.544 78.8699 100.637 78.8771C101.013 78.8137 101.34 78.6721 101.752 78.6301C102.27 78.4107 102.639 78.4396 103.03 78.433Z" fill="#402716" stroke="#402716" stroke-miterlimit="10"/>
<path d="M75.412 83.9405C75.5968 83.7135 75.7817 83.4866 75.9666 83.2597C76.0093 83.1887 76.0661 83.1746 76.1088 83.1037C76.763 82.3378 77.4454 81.6856 78.1987 81.076C78.6962 80.6507 79.2079 80.2822 79.7337 79.9705C79.9681 79.8218 80.1813 79.7085 80.4158 79.5597C80.4371 79.5242 80.4939 79.5101 80.5153 79.4746C80.6502 79.4109 80.7852 79.3472 80.9415 79.248C80.9487 79.1557 80.9773 79.028 80.9845 78.9357C81.0489 78.5879 81.3113 78.7941 81.2896 79.071C81.2394 79.4756 81.1323 79.8943 81.0821 80.2989C81.0677 80.4835 81.0532 80.668 81.0388 80.8526C81.0316 80.9449 81.0243 81.0372 81.0739 81.1153C81.0881 81.1721 81.1662 81.1225 81.1876 81.0871C81.2874 80.7606 81.2949 80.427 81.3593 80.0792C81.4095 79.6746 81.4102 79.1918 81.4959 78.8086C81.5031 78.7163 81.5175 78.5317 81.4252 78.5245C81.1271 78.5383 80.7931 78.7721 80.5231 78.8996C80.2318 79.0625 79.9405 79.2254 79.6492 79.3883C79.1235 79.6999 78.6332 80.033 78.1783 80.3873C77.1124 81.1953 76.1101 82.1381 75.2425 83.2587C75.1998 83.3296 75.1926 83.4219 75.1995 83.571C75.1778 83.8479 75.3052 84.1178 75.412 83.9405Z" fill="#402716" stroke="#402716" stroke-miterlimit="10"/>
<path d="M69.0917 91.3936C69.2047 91.8481 69.3177 92.3026 69.3952 92.7358C69.388 92.8281 69.4376 92.9062 69.4304 92.9985C69.4727 93.1689 69.4796 93.318 69.5007 93.5239C69.5358 93.7867 69.4432 94.0208 69.5138 94.3049C69.5421 94.4185 69.7119 94.8589 69.8258 94.5893C69.9611 94.2842 69.8409 93.922 69.7916 93.6024C69.7565 93.3397 69.7355 93.1338 69.679 92.9065C69.7003 92.8711 69.6648 92.8497 69.6862 92.8143C69.6159 92.2888 69.4888 91.7775 69.3049 91.2803C69.2907 91.2235 69.2625 91.1098 69.2484 91.053C69.0858 90.5203 68.845 90.0373 68.5688 89.5328C68.4059 89.2416 68.2217 88.9857 68.002 88.7086C68.002 88.7086 67.9452 88.7227 67.9806 88.744C68.1435 89.0353 68.271 89.3053 68.4125 89.632C68.6319 90.1506 68.8513 90.6691 69.0139 91.2018C69.0494 91.2231 69.0635 91.28 69.0917 91.3936Z" fill="#402716" stroke="#402716" stroke-miterlimit="10"/>
<path d="M76.8338 93.782C76.7842 93.7039 76.7061 93.7535 76.6988 93.8457C76.6348 93.9522 76.6558 94.1581 76.7054 94.2362L76.7409 94.2576C77.1094 94.7692 77.4992 95.2454 77.9317 95.6506C77.4631 95.7068 76.9803 95.7062 76.5048 95.6132C76.1925 95.5702 75.866 95.4704 75.5396 95.3706C75.4119 95.342 75.27 95.2566 75.1281 95.1712C74.9649 95.1213 74.823 95.036 74.6526 95.0783C74.6526 95.0783 74.6526 95.0783 74.6171 95.057L74.5603 95.0711C74.5389 95.1066 74.4963 95.1775 74.5458 95.2557C74.7797 95.5896 75.1771 95.7322 75.4822 95.8675C75.8227 96.0241 76.206 96.1098 76.5538 96.1742C77.2493 96.3029 77.9025 96.2611 78.5488 96.0703C78.7193 96.0279 78.6986 95.5807 78.5567 95.4953C78.0319 95.0828 77.5498 94.5994 77.1458 94.0664C77.0181 94.0379 76.9189 93.8815 76.8338 93.782Z" fill="#402716" stroke="#402716" stroke-miterlimit="10"/>
<path d="M74.5425 86.9919C74.4003 87.1479 74.2226 87.2826 74.0591 87.474C73.6965 87.8356 73.3694 88.2186 73.0282 88.5447C73.0069 88.5802 73.0423 88.6015 73.0637 88.566C73.284 88.3604 73.5257 88.1194 73.7461 87.9138C74.0446 87.6586 74.329 87.3466 74.6134 87.0346C74.6347 86.9992 74.5993 86.9778 74.5425 86.9919Z" fill="#402716" stroke="#402716" stroke-miterlimit="10"/>
<path d="M75.5473 89.3362C75.5116 89.5563 75.4758 89.7763 75.3832 90.0105C75.3119 90.2092 75.3116 90.4505 75.3681 90.6778C75.4246 90.905 75.6088 91.1609 75.7221 91.374C75.7221 91.374 75.7576 91.3953 75.7362 91.4308C75.7858 91.509 75.8354 91.5871 75.885 91.6653C75.8496 91.6439 75.8496 91.6439 75.7927 91.6581C75.445 91.5937 75.1185 91.4939 74.7566 91.3727C74.2669 91.223 73.82 91.0023 73.3944 90.7462C73.3944 90.7462 73.3589 90.7248 73.3375 90.7603C73.2807 90.7744 73.1953 90.9163 73.2449 90.9944C73.2449 90.9944 73.2449 90.9944 73.2804 91.0158C74.1455 91.8263 75.2102 91.9839 76.1826 92.1342C76.3103 92.1628 76.332 91.886 76.3037 91.7723C76.155 91.5379 76.0417 91.3247 75.9142 91.0548C75.8292 90.9553 75.7655 90.8203 75.7017 90.6853C75.638 90.5504 75.5884 90.4722 75.617 90.3444C75.6173 90.1031 75.7099 89.8689 75.7457 89.6489C75.7956 89.4857 75.7887 89.3366 75.8032 89.152C75.8104 89.0597 75.8176 88.9674 75.8035 88.9106C75.811 88.577 75.8399 88.2078 75.8475 87.8742C75.8126 87.3701 75.7778 86.8659 75.6507 86.3546C75.6366 86.2978 75.6225 86.241 75.6297 86.1487C75.6438 86.2055 75.6366 86.2978 75.6507 86.3546C75.6576 86.5037 75.6858 86.6173 75.6927 86.7664C75.7342 87.661 75.6692 88.4916 75.5473 89.3362Z" fill="#402716"/>
<path d="M75.6507 86.3546C75.7778 86.8659 75.8126 87.3701 75.8475 87.8742C75.8399 88.2078 75.811 88.577 75.8035 88.9106C75.8176 88.9674 75.8104 89.0597 75.8032 89.152C75.7887 89.3366 75.7956 89.4857 75.7457 89.6489C75.7099 89.8689 75.6173 90.1031 75.617 90.3444C75.5884 90.4722 75.638 90.5504 75.7017 90.6853C75.7655 90.8203 75.8292 90.9553 75.9142 91.0548C76.0417 91.3247 76.155 91.5379 76.3037 91.7723C76.332 91.886 76.3103 92.1628 76.1826 92.1342C75.2102 91.9839 74.1455 91.8263 73.2804 91.0158C73.2449 90.9944 73.2449 90.9944 73.2449 90.9944C73.1953 90.9163 73.2807 90.7744 73.3375 90.7603C73.3589 90.7248 73.3944 90.7462 73.3944 90.7462C73.82 91.0023 74.2669 91.223 74.7566 91.3727C75.1185 91.4939 75.445 91.5937 75.7927 91.6581C75.8496 91.6439 75.8496 91.6439 75.885 91.6653C75.8354 91.5871 75.7858 91.509 75.7362 91.4308C75.7576 91.3953 75.7221 91.374 75.7221 91.374C75.6088 91.1609 75.4246 90.905 75.3681 90.6778C75.3116 90.4505 75.3119 90.2092 75.3832 90.0105C75.4758 89.7763 75.5116 89.5563 75.5473 89.3362C75.6692 88.4916 75.7342 87.661 75.6927 86.7664C75.6858 86.6173 75.6576 86.5037 75.6507 86.3546ZM75.6507 86.3546C75.6366 86.2978 75.6225 86.241 75.6297 86.1487C75.6438 86.2055 75.6366 86.2978 75.6507 86.3546Z" stroke="#402716" stroke-miterlimit="10"/>
<path d="M65.5687 92.5107C66.0153 92.9727 66.5697 92.5333 66.4853 91.951C66.4642 91.7451 66.2872 91.397 66.0957 91.2335C65.9043 91.0699 65.7056 90.9987 65.5562 91.247C65.4921 91.3534 65.4636 91.4811 65.435 91.6089C65.3923 91.6798 65.3637 91.8076 65.3565 91.8998C65.3066 92.0631 65.3986 92.3117 65.5687 92.5107ZM65.7122 91.3892C65.9821 91.2617 66.3927 92.1852 66.0659 92.3267C65.7605 92.4328 65.3499 91.5094 65.7122 91.3892Z" fill="#402716" stroke="#402716" stroke-miterlimit="10"/>
<path d="M81.3049 79.1283C81.3265 78.8514 81.0641 78.6452 80.9998 78.993C80.9926 79.0853 80.964 79.213 80.9568 79.3053C80.9495 79.3976 80.9423 79.4899 80.9351 79.5821C80.8777 80.079 80.8698 80.6541 80.8478 81.1723C80.8406 81.2646 80.8547 81.3214 80.8475 81.4137C80.8616 81.4705 80.8403 81.506 80.8544 81.5628C80.8472 81.6551 80.968 81.5345 80.9894 81.4991C80.9966 81.4068 81.0179 81.3713 81.0251 81.279C81.0537 81.1513 81.0823 81.0235 81.054 80.9099C81.0685 80.7253 81.0829 80.5408 81.0974 80.3562C81.1689 79.9161 81.2901 79.5542 81.3049 79.1283Z" fill="#402716" stroke="#402716" stroke-miterlimit="10"/>
<path d="M66.0658 92.3268C66.3925 92.1852 66.0175 91.2831 65.712 91.3892C65.3498 91.5094 65.7604 92.4329 66.0658 92.3268Z" fill="#402716" stroke="#402716" stroke-miterlimit="10"/>
<path d="M224.179 80.945C224.185 81.0941 224.216 81.2766 224.223 81.4257C224.281 81.4346 224.305 81.468 224.33 81.5014C224.328 80.9383 224.326 80.3753 224.29 79.8367C224.277 78.7685 224.239 77.6669 224.226 76.5986C224.135 77.3842 224.101 78.1787 224.068 78.9732C224.036 79.5607 224.03 80.1816 223.998 80.7691C224.114 80.787 224.163 80.8537 224.179 80.945Z" fill="#402716" stroke="#402716" stroke-miterlimit="10"/>
<path d="M234.457 115.552C234.432 115.518 234.399 115.543 234.374 115.509C234.399 115.543 234.399 115.543 234.457 115.552Z" fill="#402716" stroke="#402716" stroke-miterlimit="10"/>
<path d="M229.771 81.3623L229.795 81.3957C229.778 79.9714 229.645 78.5293 229.396 77.0693C229.447 77.6992 229.531 78.3045 229.582 78.9343C229.664 79.7466 229.722 80.5256 229.771 81.3623Z" fill="#402716" stroke="#402716" stroke-miterlimit="10"/>
<path d="M233.762 91.2174C233.738 91.184 233.738 91.184 233.762 91.2174C233.778 91.3087 233.793 91.3999 233.809 91.4912C233.891 91.5335 233.949 91.5424 234.031 91.5847C233.875 91.4422 233.802 91.3421 233.762 91.2174Z" fill="#402716"/>
<path d="M233.762 91.2174C233.738 91.184 233.738 91.184 233.762 91.2174ZM233.762 91.2174C233.778 91.3087 233.793 91.3999 233.809 91.4912C233.891 91.5335 233.949 91.5424 234.031 91.5847C233.875 91.4422 233.802 91.3421 233.762 91.2174Z" stroke="#402716" stroke-miterlimit="10"/>
<path d="M226.677 69.7207C226.642 69.7462 226.642 69.7462 226.677 69.7207C226.668 69.781 226.668 69.781 226.677 69.7207C226.668 69.781 226.642 69.7462 226.677 69.7207Z" fill="#402716"/>
<path d="M226.677 69.7207C226.642 69.7462 226.642 69.7462 226.677 69.7207ZM226.677 69.7207C226.668 69.781 226.668 69.781 226.677 69.7207ZM226.677 69.7207C226.642 69.7462 226.668 69.781 226.677 69.7207Z" stroke="#402716" stroke-miterlimit="10"/>
<path d="M227.711 107.048C227.751 107.173 227.824 107.273 227.864 107.397C227.882 107.282 227.867 107.19 227.884 107.075C227.827 107.066 227.769 107.057 227.711 107.048Z" fill="#402716" stroke="#402716" stroke-miterlimit="10"/>
<path d="M229.47 109.659C229.263 109.657 229.099 109.572 228.967 109.463C228.983 109.555 229.032 109.621 229.023 109.679C229.063 109.804 229.079 109.895 229.119 110.02C229.125 110.169 229.132 110.318 229.139 110.467C229.163 110.5 229.13 110.525 229.154 110.558C229.188 110.534 229.245 110.543 229.279 110.518C229.348 110.262 229.426 109.949 229.47 109.659Z" fill="#402716" stroke="#402716" stroke-miterlimit="10"/>
<path d="M228.375 113.696C228.333 113.779 228.324 113.837 228.282 113.92C228.315 113.895 228.349 113.87 228.382 113.846C228.358 113.812 228.367 113.754 228.375 113.696Z" fill="#402716" stroke="#402716" stroke-miterlimit="10"/>
<path d="M231.284 111.153C231.4 111.171 231.458 111.18 231.574 111.198L231.549 111.164C231.5 111.098 231.46 110.973 231.411 110.906C231.369 110.989 231.327 111.071 231.284 111.153Z" fill="#402716" stroke="#402716" stroke-miterlimit="10"/>
<path d="M223.547 80.4336C223.496 80.5738 223.387 80.7051 223.278 80.8364C223.378 80.7629 223.444 80.714 223.569 80.6739C223.554 80.5827 223.538 80.4915 223.547 80.4336Z" fill="#402716" stroke="#402716" stroke-miterlimit="10"/>
<path d="M235.44 92.246C235.522 92.2883 235.605 92.3306 235.687 92.3729C235.68 92.2238 235.674 92.0747 235.643 91.8922C235.618 91.8588 235.627 91.801 235.603 91.7676C235.603 91.7676 235.594 91.8254 235.618 91.8588C235.625 92.0079 235.549 92.1147 235.44 92.246Z" fill="#402716" stroke="#402716" stroke-miterlimit="10"/>
<path d="M233.693 89.9336C233.725 89.3461 233.64 88.7407 233.498 88.1265C233.482 88.0352 233.467 87.944 233.427 87.8193C233.422 88.2333 233.418 88.6472 233.389 89.0278C233.491 89.5174 233.535 89.9981 233.604 90.5122C233.664 90.3141 233.667 90.1072 233.693 89.9336Z" fill="#402716" stroke="#402716" stroke-miterlimit="10"/>
<path d="M234.054 86.4348C234.005 86.368 234.014 86.3101 233.965 86.2434C233.916 86.1766 233.867 86.1098 233.852 86.0186C233.803 85.9518 233.754 85.885 233.705 85.8183C233.656 85.7515 233.574 85.7092 233.516 85.7003C233.534 84.0445 233.576 82.4222 233.512 80.7241C233.481 80.5416 233.508 80.368 233.477 80.1855C233.468 80.2434 233.483 80.3347 233.474 80.3925C233.492 81.8168 233.485 83.2077 233.469 84.6565C233.447 85.1862 233.458 85.6914 233.436 86.221C233.493 86.2299 233.56 86.181 233.643 86.2233C233.816 86.25 233.947 86.3591 234.054 86.4348Z" fill="#402716" stroke="#402716" stroke-miterlimit="10"/>
<path d="M228.912 110.787L228.878 110.812C228.936 110.821 228.936 110.821 228.995 110.83C228.961 110.855 228.936 110.821 228.912 110.787Z" fill="#402716" stroke="#402716" stroke-miterlimit="10"/>
<path d="M226.517 82.8748C226.426 82.8903 226.31 82.8725 226.252 82.8636C226.219 82.8881 226.219 82.8881 226.21 82.9459C226.334 82.9059 226.426 82.8903 226.517 82.8748Z" fill="#402716" stroke="#402716" stroke-miterlimit="10"/>
<path d="M232.038 73.182C232.014 73.1486 231.956 73.1397 231.947 73.1975C231.993 73.4713 232.007 73.7695 232.087 74.0188C232.182 74.3593 232.427 74.6931 232.498 75.0003C232.641 75.6145 232.961 76.6116 233.046 77.2169C233.208 78.2785 233.363 79.191 233.443 80.2103C233.475 80.3928 233.481 80.5419 233.479 80.7488C233.543 82.4469 233.525 84.1026 233.483 85.725C233.54 85.7339 233.623 85.7762 233.672 85.843C233.721 85.9097 233.77 85.9765 233.819 86.0433C233.868 86.1101 233.916 86.1768 233.932 86.2681C233.794 86.0099 233.656 85.7517 233.518 85.4936C233.429 85.3021 233.694 85.3133 233.926 85.349C233.924 84.0159 233.888 82.7073 233.77 81.3564C233.69 80.3372 233.577 79.3423 233.439 78.3142C233.215 76.8876 232.899 75.4766 232.41 74.0388C232.329 73.7896 232.167 73.498 232.038 73.182Z" fill="#402716" stroke="#402716" stroke-miterlimit="10"/>
<path d="M233.644 91.4064C233.702 91.4153 233.726 91.4487 233.784 91.4576C233.769 91.3664 233.753 91.2751 233.738 91.1839C233.682 90.968 233.66 90.7277 233.638 90.4873C233.593 90.0066 233.524 89.4925 233.422 89.0029C233.406 88.9116 233.391 88.8204 233.375 88.7291C233.351 88.6958 233.351 88.6958 233.342 88.7536C233.355 89.0518 233.393 89.3834 233.406 89.6817C233.357 90.3849 233.366 91.097 233.317 91.8003C233.315 92.0073 233.288 92.1808 233.286 92.3878C233.232 93.505 233.187 94.5643 233.167 95.657C233.049 98.1562 232.772 100.72 232.331 103.199C232.093 104.554 231.864 105.852 231.65 107.24C231.489 108.282 231.164 109.239 230.946 110.271C231.093 110.472 231.24 110.672 231.387 110.872C231.436 110.939 231.476 111.064 231.525 111.13C231.525 111.13 231.533 111.073 231.558 111.106C231.64 111.148 231.747 111.224 231.854 111.3C231.718 110.065 231.939 108.825 232.117 107.668C232.304 106.453 232.525 105.213 232.77 104.007C233.211 101.528 233.503 99.0554 233.712 96.5406C233.799 95.399 233.877 94.3152 233.906 93.1646C233.987 92.6439 233.976 92.1387 233.873 91.649C233.791 91.6067 233.767 91.5734 233.684 91.5311C233.593 91.5466 233.586 91.3975 233.644 91.4064Z" fill="#402716" stroke="#402716" stroke-miterlimit="10"/>
<path d="M231.727 111.547C231.703 111.514 231.653 111.447 231.629 111.413" stroke="#402716" stroke-miterlimit="10"/>
<path d="M223.547 80.4332C223.538 80.4911 223.553 80.5823 223.544 80.6402C223.567 80.8805 223.531 81.112 223.553 81.3523C223.573 81.7997 223.535 82.2381 223.522 82.7099L223.555 82.6854C223.68 82.6454 223.844 82.73 223.918 82.8301C223.936 82.7144 223.92 82.6231 223.938 82.5074C223.969 81.9199 224 81.3324 223.998 80.7693C224.03 80.1818 224.061 79.5943 224.068 78.9734C224.101 78.1789 224.135 77.3844 224.226 76.5988C224.275 75.8956 224.382 75.2013 224.547 74.5158C224.861 73.0537 225.382 71.5939 226.29 70.3122C226.408 70.123 226.526 69.9339 226.668 69.7781C226.853 69.54 227.013 69.2686 227.165 69.0549C227.316 68.8413 227.434 68.6522 227.552 68.463C227.628 68.3562 227.695 68.3073 227.77 68.2004C227.804 68.176 227.813 68.1181 227.846 68.0936C227.895 68.1604 228.002 68.2361 228.109 68.3118C228.502 68.639 228.796 69.0396 229.099 69.3824C229.484 69.7675 229.811 70.1436 230.096 70.6021C230.144 70.6689 230.211 70.6199 230.162 70.5532C229.942 70.2527 229.755 69.9277 229.602 69.5783C229.553 69.5115 229.537 69.4203 229.488 69.3535C229.375 69.1287 229.286 68.9373 229.197 68.7459C229.034 68.4543 228.963 68.1472 228.825 67.889C228.656 67.4484 228.129 67.2191 227.606 67.3458C227.15 67.4237 227.014 67.7285 226.845 68.0579C226.448 68.7076 226.052 69.3574 225.738 70.0495C225.696 70.1318 225.645 70.272 225.602 70.3544C225.306 70.9307 225.035 71.5404 224.763 72.1502C224.661 72.4306 224.558 72.711 224.456 72.9914C223.677 75.3591 223.583 77.8917 223.58 80.4087C223.556 80.3754 223.556 80.3754 223.547 80.4332Z" fill="#402716" stroke="#402716" stroke-miterlimit="10"/>
<path d="M229.101 110.905C229.183 110.948 229.274 110.932 229.39 110.95C229.375 110.859 229.326 110.792 229.286 110.667C229.228 110.658 229.203 110.625 229.179 110.591C229.154 110.558 229.154 110.558 229.163 110.5C229.156 110.351 229.15 110.202 229.143 110.053C229.103 109.928 229.088 109.837 229.048 109.712C229.032 109.621 228.983 109.554 228.992 109.496C228.872 109.123 228.685 108.798 228.474 108.439C228.36 108.215 228.213 108.014 228.075 107.756C228.002 107.656 227.962 107.531 227.922 107.407C227.882 107.282 227.808 107.182 227.768 107.057C227.308 106.009 226.972 104.921 226.545 103.848C226.262 103.182 225.889 102.532 225.639 101.843C225.446 101.368 225.319 100.845 225.217 100.356C225.059 99.6503 224.925 98.9782 224.734 98.2972C224.51 97.6407 224.318 96.9596 224.185 96.2875C223.965 95.217 223.753 94.0887 223.807 92.9715C223.783 92.9381 223.758 92.9047 223.734 92.8713C223.478 92.0323 223.529 91.1221 223.596 90.3031C223.614 89.4174 223.714 88.5739 223.79 87.6971C223.808 87.5814 223.801 87.4323 223.819 87.3166C223.866 86.0503 223.913 84.784 223.96 83.5177C223.987 83.3441 223.955 83.1616 223.982 82.988C223.858 83.0281 223.675 83.0592 223.55 83.0992C223.439 85.7475 223.062 88.3847 223.033 91.0753C223.024 92.6732 223.097 94.3133 223.353 95.9224C223.617 97.4736 223.997 99.0426 224.527 100.605C225.432 103.38 226.636 106.142 227.939 108.831C228.028 109.022 228.093 109.18 228.182 109.372C228.246 109.53 228.32 109.63 228.384 109.788C228.562 110.171 228.749 110.496 228.994 110.83C229.018 110.863 229.043 110.896 229.043 110.896C229.018 110.863 229.043 110.896 229.101 110.905Z" fill="#402716" stroke="#402716" stroke-miterlimit="10"/>
<path d="M227.968 113.07C227.654 113.762 227.249 114.47 227.075 115.213C227.015 115.411 227.494 115.574 227.719 115.46C228.368 115.087 228.96 114.704 229.577 114.355C229.835 114.217 230.102 114.021 230.36 113.883C230.394 113.858 230.461 113.809 230.494 113.785C230.527 113.761 230.561 113.736 230.628 113.687C230.636 113.629 230.661 113.663 230.685 113.696C230.768 113.738 230.817 113.805 230.875 113.814C230.981 113.89 231.088 113.965 231.195 114.041C231.219 114.074 231.219 114.074 231.277 114.083C232.312 114.865 233.487 115.697 234.925 115.978C235.04 115.996 235.421 116.025 235.332 115.833C235.129 115.417 234.869 114.992 234.609 114.567C234.373 114.175 234.079 113.774 233.786 113.374C233.507 113.064 233.238 112.697 232.936 112.354C232.887 112.288 232.838 112.221 232.755 112.179C232.551 111.969 232.346 111.76 232.141 111.551C232.01 111.442 231.912 111.308 231.805 111.233C231.698 111.157 231.649 111.09 231.509 111.039C231.485 111.006 231.476 111.063 231.476 111.063L231.5 111.097C231.549 111.164 231.565 111.255 231.589 111.288C231.614 111.322 231.663 111.388 231.687 111.422C231.883 111.689 232.103 111.989 232.332 112.232C232.626 112.633 232.92 113.033 233.156 113.425C233.425 113.792 233.661 114.184 233.897 114.576C234.059 114.867 234.197 115.125 234.393 115.392L234.417 115.426C234.393 115.392 234.359 115.417 234.335 115.384C233.089 115.014 232.121 114.184 231.135 113.469C230.839 113.275 230.519 113.048 230.169 113.202C229.82 113.355 229.486 113.6 229.194 113.763C228.769 114.023 228.377 114.259 227.928 114.486C227.997 114.23 228.124 113.983 228.251 113.736C228.293 113.653 228.302 113.595 228.344 113.513C228.395 113.373 228.471 113.266 228.556 113.101C228.725 112.772 228.87 112.409 229.014 112.047C229.159 111.684 229.313 111.263 229.226 110.865C229.235 110.807 229.152 110.765 229.046 110.689C229.021 110.656 228.963 110.647 228.905 110.638C228.881 110.605 228.848 110.629 228.79 110.62C228.65 110.569 228.525 110.609 228.483 110.691C228.396 111.063 228.4 111.419 228.28 111.815C228.282 112.378 228.113 112.708 227.968 113.07Z" fill="#402716" stroke="#402716" stroke-miterlimit="10"/>
<path d="M233.552 85.4689C233.69 85.7271 233.828 85.9853 233.966 86.2435C234.015 86.3102 234.006 86.3681 234.055 86.4349C234.508 87.334 234.847 88.2154 235.118 89.1457C235.318 89.7688 235.46 90.3831 235.545 90.9884C235.592 91.2622 235.614 91.5025 235.661 91.7763C235.685 91.8096 235.676 91.8675 235.701 91.9009C235.707 92.05 235.714 92.1991 235.745 92.3816C235.827 92.4239 235.934 92.4996 236.016 92.5419C236.312 92.7355 236.021 92.898 235.774 92.7711C235.42 92.5685 235.075 92.3081 234.721 92.1055C234.557 92.0209 234.392 91.9363 234.227 91.8517C234.145 91.8094 234.063 91.7671 233.971 91.7827C233.914 91.7738 233.929 91.865 233.954 91.8984C234.216 92.1165 234.521 92.2523 234.817 92.446C235.171 92.6486 235.616 92.8356 235.936 93.0626C236.019 93.1049 236.183 93.1895 236.226 93.1072C236.328 92.8268 236.241 92.4284 236.228 92.1302C236.19 91.7986 236.152 91.467 236.115 91.1354C236.03 90.53 235.912 89.9492 235.761 89.3928C235.427 88.0975 234.945 86.8089 234.246 85.5759C234.197 85.5091 234.115 85.4668 233.975 85.4156C233.728 85.2887 233.429 85.302 233.552 85.4689Z" fill="#402716" stroke="#402716" stroke-miterlimit="10"/>
<path d="M229.118 76.7601C228.655 76.6888 228.192 76.6175 227.762 76.5217C227.68 76.4794 227.589 76.495 227.507 76.4527C227.333 76.4259 227.193 76.3747 226.995 76.3146C226.739 76.2456 226.559 76.0697 226.269 76.0252C226.154 76.0074 225.682 75.9939 225.886 76.2032C226.116 76.4458 226.496 76.4748 226.81 76.5527C227.066 76.6217 227.264 76.6819 227.495 76.7175C227.52 76.7509 227.553 76.7264 227.578 76.7598C228.09 76.8979 228.61 76.9781 229.14 77.0004C229.198 77.0093 229.314 77.0271 229.371 77.0361C229.926 77.0918 230.464 77.0563 231.036 76.9963C231.368 76.9585 231.675 76.8873 232.015 76.7917C232.015 76.7917 232.024 76.7338 231.991 76.7583C231.659 76.7961 231.361 76.8094 231.005 76.8138C230.442 76.8159 229.879 76.818 229.325 76.7623C229.291 76.7868 229.233 76.7779 229.118 76.7601Z" fill="#402716" stroke="#402716" stroke-miterlimit="10"/>
<path d="M223.925 82.9793C224.016 82.9637 224 82.8725 223.918 82.8302C223.845 82.73 223.647 82.6699 223.555 82.6855L223.522 82.7099C222.908 82.8523 222.318 83.028 221.777 83.2705C221.906 82.8165 222.093 82.3714 222.363 81.9687C222.523 81.6972 222.741 81.4346 222.959 81.172C223.035 81.0652 223.168 80.9673 223.302 80.8694C223.411 80.7382 223.544 80.6403 223.571 80.4667C223.571 80.4667 223.571 80.4667 223.605 80.4422L223.613 80.3843C223.589 80.3509 223.54 80.2842 223.449 80.2997C223.05 80.3865 222.766 80.698 222.523 80.9272C222.247 81.1808 222.02 81.5013 221.826 81.7972C221.439 82.3891 221.225 83.0078 221.152 83.6776C221.125 83.8512 221.545 84.0049 221.679 83.907C222.262 83.5821 222.894 83.3241 223.542 83.1573C223.618 83.0505 223.8 83.0193 223.925 82.9793Z" fill="#402716" stroke="#402716" stroke-miterlimit="10"/>
<path d="M231.072 83.4882C230.983 83.2968 230.928 83.0809 230.814 82.8561C230.621 82.3821 230.394 81.9325 230.225 81.4918C230.2 81.4585 230.167 81.4829 230.192 81.5163C230.296 81.799 230.425 82.115 230.53 82.3977C230.65 82.7716 230.828 83.1544 231.006 83.5372C231.03 83.5706 231.064 83.5461 231.072 83.4882Z" fill="#402716" stroke="#402716" stroke-miterlimit="10"/>
<path d="M228.522 83.5092C228.333 83.3912 228.144 83.2732 227.964 83.0974C227.808 82.9549 227.586 82.8614 227.354 82.8258C227.123 82.7901 226.816 82.8613 226.575 82.8835C226.575 82.8835 226.542 82.908 226.517 82.8746C226.426 82.8902 226.335 82.9057 226.244 82.9213C226.277 82.8968 226.277 82.8968 226.286 82.839C226.48 82.543 226.698 82.2804 226.949 81.9934C227.276 81.5995 227.653 81.2724 228.053 80.9788C228.053 80.9788 228.087 80.9543 228.062 80.9209C228.071 80.863 227.973 80.7295 227.882 80.745C227.882 80.745 227.882 80.745 227.849 80.7695C226.767 81.2545 226.21 82.1758 225.696 83.0147C225.62 83.1215 225.867 83.2484 225.983 83.2662C226.257 83.2195 226.497 83.1973 226.795 83.184C226.92 83.144 227.069 83.1373 227.218 83.1307C227.367 83.124 227.459 83.1084 227.565 83.1841C227.788 83.2776 227.968 83.4535 228.157 83.5714C228.289 83.6805 228.429 83.7317 228.594 83.8163C228.676 83.8586 228.758 83.9009 228.816 83.9098C229.121 84.0456 229.45 84.2148 229.755 84.3506C230.234 84.5132 230.712 84.6757 231.233 84.7559C231.291 84.7648 231.349 84.7737 231.431 84.816C231.373 84.8071 231.291 84.7648 231.233 84.7559C231.093 84.7047 230.977 84.6869 230.837 84.6357C229.996 84.3284 229.255 83.9477 228.522 83.5092Z" fill="#402716"/>
<path d="M231.233 84.7559C230.712 84.6757 230.234 84.5132 229.755 84.3506C229.45 84.2148 229.121 84.0456 228.816 83.9098C228.758 83.9009 228.676 83.8586 228.594 83.8163C228.429 83.7317 228.289 83.6805 228.157 83.5714C227.968 83.4535 227.788 83.2776 227.565 83.1841C227.459 83.1084 227.367 83.124 227.218 83.1307C227.069 83.1373 226.92 83.144 226.795 83.184C226.497 83.1973 226.257 83.2195 225.983 83.2662C225.867 83.2484 225.62 83.1215 225.696 83.0147C226.21 82.1758 226.767 81.2545 227.849 80.7695C227.882 80.745 227.882 80.745 227.882 80.745C227.973 80.7295 228.071 80.863 228.062 80.9209C228.087 80.9543 228.053 80.9788 228.053 80.9788C227.653 81.2724 227.276 81.5995 226.949 81.9934C226.698 82.2804 226.48 82.543 226.286 82.839C226.277 82.8968 226.277 82.8968 226.244 82.9213C226.335 82.9057 226.426 82.8902 226.517 82.8746C226.542 82.908 226.575 82.8835 226.575 82.8835C226.816 82.8613 227.123 82.7901 227.354 82.8258C227.586 82.8614 227.808 82.9549 227.964 83.0974C228.144 83.2732 228.333 83.3912 228.522 83.5092C229.255 83.9477 229.996 84.3284 230.837 84.6357C230.977 84.6869 231.093 84.7047 231.233 84.7559ZM231.233 84.7559C231.291 84.7648 231.349 84.7737 231.431 84.816C231.373 84.8071 231.291 84.7648 231.233 84.7559Z" stroke="#402716" stroke-miterlimit="10"/>
<path d="M229.447 73.0786C228.849 73.3121 229.04 73.9932 229.61 74.1401C229.808 74.2003 230.197 74.1714 230.422 74.0579C230.647 73.9445 230.789 73.7887 230.618 73.555C230.545 73.4549 230.438 73.3792 230.331 73.3035C230.282 73.2367 230.175 73.161 230.093 73.1187C229.962 73.0097 229.697 72.9985 229.447 73.0786ZM230.427 73.644C230.44 73.9422 229.43 73.9643 229.425 73.6082C229.445 73.2855 230.456 73.2634 230.427 73.644Z" fill="#402716" stroke="#402716" stroke-miterlimit="10"/>
<path d="M235.716 92.7622C235.963 92.8891 236.254 92.7266 235.958 92.533C235.876 92.4907 235.769 92.415 235.687 92.3727C235.604 92.3304 235.522 92.2881 235.44 92.2458C235.004 92.0009 234.476 91.7716 234.007 91.5512C233.924 91.5089 233.866 91.5 233.784 91.4577C233.726 91.4488 233.702 91.4154 233.644 91.4065C233.561 91.3642 233.626 91.5222 233.65 91.5556C233.733 91.5979 233.757 91.6313 233.84 91.6736C233.946 91.7493 234.053 91.825 234.169 91.8428C234.334 91.9274 234.498 92.012 234.663 92.0966C235.041 92.3325 235.328 92.5841 235.716 92.7622Z" fill="#402716" stroke="#402716" stroke-miterlimit="10"/>
<path d="M229.425 73.6083C229.43 73.9644 230.407 73.9668 230.427 73.6441C230.456 73.2635 229.445 73.2856 229.425 73.6083Z" fill="#402716" stroke="#402716" stroke-miterlimit="10"/>
<path d="M77.6372 35L84.9381 42.7398L95.5575 42.2846L90.2478 50.252L96 58.9024L84.9381 56.1707L81.177 63L77.6372 52.3008L71 50.252L77.6372 45.9268V35Z" fill="#EDD6D6"/>
<path d="M263.773 125.945L258.335 131.638L259.023 139.534L252.998 135.84L246.841 140.41L248.477 132.079L243.339 129.501L251.074 126.513L252.357 121.501L255.752 126.303L263.773 125.945Z" fill="#EDD6D6"/>
<path d="M204.773 11.9446L199.335 17.6378L200.023 25.5342L193.998 21.8402L187.841 26.4096L189.477 18.0789L184.339 15.5013L192.074 12.5128L193.357 7.50089L196.752 12.3034L204.773 11.9446Z" fill="#EDD6D6"/>
<path d="M54.2078 118.274L54.8434 131.251L65.0775 139.408L53.8089 142.413L52.2811 154.974L44.1686 143.543L35.2443 146.756L40.4572 134.107L35.9154 126.873L45.5232 128.274L54.2078 118.274Z" fill="#EDD6D6"/>
</g>
<defs>
<clipPath id="clip0_944_3114">
<rect width="270" height="264" fill="white"/>
</clipPath>
<clipPath id="clip1_944_3114">
<rect width="160" height="185" fill="white" transform="translate(60 61)"/>
</clipPath>
</defs>
</svg>
