<svg width="44" height="44" viewBox="0 0 44 44" fill="none" xmlns="http://www.w3.org/2000/svg">
<g clip-path="url(#clip0_234_2635)">
<path d="M21.7574 13.9141C17.2855 13.9141 13.6785 17.5211 13.6785 21.993C13.6785 26.4648 17.2855 30.0719 21.7574 30.0719C26.2293 30.0719 29.8363 26.4648 29.8363 21.993C29.8363 17.5211 26.2293 13.9141 21.7574 13.9141ZM21.7574 27.2453C18.8676 27.2453 16.5051 24.8899 16.5051 21.993C16.5051 19.0961 18.8605 16.7406 21.7574 16.7406C24.6543 16.7406 27.0098 19.0961 27.0098 21.993C27.0098 24.8899 24.6473 27.2453 21.7574 27.2453ZM32.0512 13.5836C32.0512 14.6313 31.2074 15.468 30.1668 15.468C29.1191 15.468 28.2824 14.6242 28.2824 13.5836C28.2824 12.543 29.1262 11.6992 30.1668 11.6992C31.2074 11.6992 32.0512 12.543 32.0512 13.5836ZM37.402 15.4961C37.2824 12.9719 36.7059 10.7359 34.8566 8.89376C33.0145 7.05157 30.7785 6.47501 28.2543 6.34844C25.6527 6.20079 17.8551 6.20079 15.2535 6.34844C12.7363 6.46797 10.5004 7.04454 8.65117 8.88672C6.80195 10.7289 6.23242 12.9648 6.10586 15.4891C5.9582 18.0906 5.9582 25.8883 6.10586 28.4898C6.22539 31.0141 6.80195 33.25 8.65117 35.0922C10.5004 36.9344 12.7293 37.5109 15.2535 37.6375C17.8551 37.7852 25.6527 37.7852 28.2543 37.6375C30.7785 37.518 33.0145 36.9414 34.8566 35.0922C36.6988 33.25 37.2754 31.0141 37.402 28.4898C37.5496 25.8883 37.5496 18.0977 37.402 15.4961ZM34.041 31.2813C33.4926 32.6594 32.4309 33.7211 31.0457 34.2766C28.9715 35.0992 24.0496 34.9094 21.7574 34.9094C19.4652 34.9094 14.5363 35.0922 12.4691 34.2766C11.091 33.7281 10.0293 32.6664 9.47383 31.2813C8.65117 29.207 8.84102 24.2852 8.84102 21.993C8.84102 19.7008 8.6582 14.7719 9.47383 12.7047C10.0223 11.3266 11.084 10.2648 12.4691 9.70938C14.5434 8.88672 19.4652 9.07657 21.7574 9.07657C24.0496 9.07657 28.9785 8.89376 31.0457 9.70938C32.4238 10.2578 33.4855 11.3195 34.041 12.7047C34.8637 14.7789 34.6738 19.7008 34.6738 21.993C34.6738 24.2852 34.8637 29.2141 34.041 31.2813Z" fill="#402716"/>
</g>
<defs>
<clipPath id="clip0_234_2635">
<rect width="31.5" height="36" fill="white" transform="translate(6 4)"/>
</clipPath>
</defs>
</svg>
