<svg width="48" height="48" viewBox="0 0 48 48" fill="none" xmlns="http://www.w3.org/2000/svg">
<rect width="48" height="48" fill="white"/>
<path d="M12.7464 37.2536L13.1 37.6071L13.4536 37.2536L24.45 26.2571L35.4464 37.2536L35.8 37.6071L36.1536 37.2536L37.2536 36.1536L37.6071 35.8L37.2536 35.4464L26.2571 24.45L37.2536 13.4536L37.6071 13.1L37.2536 12.7464L36.1536 11.6464L35.8 11.2929L35.4464 11.6464L24.45 22.6429L13.4536 11.6464L13.1 11.2929L12.7464 11.6464L11.6464 12.7464L11.2929 13.1L11.6464 13.4536L22.6429 24.45L11.6464 35.4464L11.2929 35.8L11.6464 36.1536L12.7464 37.2536Z" fill="#F7853A" stroke="#F7853A"/>
</svg>
