<svg width="24" height="24" viewBox="0 0 24 24" fill="none" xmlns="http://www.w3.org/2000/svg">
<path d="M10.9608 6.13939C11.4635 7.6476 10.9503 9.16986 9.81472 9.54252C8.67917 9.91517 7.35027 8.99408 6.84753 7.48588C6.3448 5.97767 6.85808 4.45541 7.99363 4.08275C9.12917 3.7101 10.4581 4.63119 10.9608 6.13939ZM6.52761 9.85541C7.19206 10.9945 7.03034 12.3199 6.16902 12.812C5.30769 13.3042 4.07019 12.7804 3.40925 11.6413C2.74831 10.5023 2.903 9.17689 3.76433 8.68471C4.62566 8.19252 5.86316 8.71635 6.52409 9.85541H6.52761ZM5.43074 16.9781C7.27292 12.0105 10.546 10.7484 11.9979 10.7484C13.4499 10.7484 16.7229 12.0105 18.5651 16.9781C18.6917 17.3191 18.7479 17.6847 18.7479 18.0503V18.1066C18.7479 19.0136 18.0132 19.7484 17.1061 19.7484C16.7018 19.7484 16.301 19.6992 15.9108 19.6007L12.8171 18.8273C12.2792 18.6937 11.7167 18.6937 11.1788 18.8273L8.08503 19.6007C7.6948 19.6992 7.29402 19.7484 6.88972 19.7484C5.98269 19.7484 5.24792 19.0136 5.24792 18.1066V18.0503C5.24792 17.6847 5.30417 17.3191 5.43074 16.9781ZM17.8268 12.812C16.9655 12.3199 16.8038 10.9945 17.4682 9.85541C18.1327 8.71635 19.3667 8.19252 20.228 8.68471C21.0893 9.17689 21.251 10.5023 20.5866 11.6413C19.9221 12.7804 18.6882 13.3042 17.8268 12.812ZM13.8999 9.54252C12.7643 9.16986 12.251 7.6476 12.7538 6.13939C13.2565 4.63119 14.5854 3.7101 15.721 4.08275C16.8565 4.45541 17.3698 5.97767 16.8671 7.48588C16.3643 8.99408 15.0354 9.91517 13.8999 9.54252Z" fill="#F7853A"/>
</svg>
