<svg width="32" height="32" viewBox="0 0 32 32" fill="none" xmlns="http://www.w3.org/2000/svg">
<circle cx="16" cy="16" r="16" fill="#F7853A"/>
<g clip-path="url(#clip0_278_1050)">
<path d="M11.95 17.875C12.3637 17.875 12.7733 17.7958 13.1555 17.6419C13.5376 17.488 13.8849 17.2624 14.1774 16.978C14.4699 16.6936 14.7019 16.356 14.8602 15.9845C15.0185 15.6129 15.1 15.2147 15.1 14.8125C15.1 14.4103 15.0185 14.0121 14.8602 13.6405C14.7019 13.269 14.4699 12.9314 14.1774 12.647C13.8849 12.3626 13.5376 12.137 13.1555 11.9831C12.7733 11.8292 12.3637 11.75 11.95 11.75C11.5363 11.75 11.1267 11.8292 10.7445 11.9831C10.3624 12.137 10.0151 12.3626 9.72261 12.647C9.43011 12.9314 9.19808 13.269 9.03978 13.6405C8.88148 14.0121 8.8 14.4103 8.8 14.8125C8.8 15.2147 8.88148 15.6129 9.03978 15.9845C9.19808 16.356 9.43011 16.6936 9.72261 16.978C10.0151 17.2624 10.3624 17.488 10.7445 17.6419C11.1267 17.7958 11.5363 17.875 11.95 17.875ZM16.9 14.8125C16.9 17.1723 15.1534 19.1355 12.85 19.5457V20.5H13.75C14.2478 20.5 14.65 20.891 14.65 21.375C14.65 21.859 14.2478 22.25 13.75 22.25H12.85V23.125C12.85 23.609 12.4478 24 11.95 24C11.4522 24 11.05 23.609 11.05 23.125V22.25H10.15C9.65219 22.25 9.25 21.859 9.25 21.375C9.25 20.891 9.65219 20.5 10.15 20.5H11.05V19.5457C8.74656 19.1355 7 17.1723 7 14.8125C7 12.1547 9.21625 10 11.95 10C14.6837 10 16.9 12.1547 16.9 14.8125ZM14.6472 19.8602C15.19 19.584 15.685 19.2285 16.1125 18.8102C16.675 19.316 17.4259 19.625 18.2528 19.625C19.9937 19.625 21.4028 18.2551 21.4028 16.5625C21.4028 14.8699 19.9937 13.5 18.2528 13.5C18.0503 13.5 17.8506 13.5191 17.6594 13.5547C17.5216 12.9668 17.2937 12.4145 16.9844 11.9086C17.3866 11.8047 17.8112 11.75 18.25 11.75C19.2906 11.75 20.2581 12.0617 21.0569 12.5977L21.6363 12.0344L20.6969 11.1211C20.5028 10.9324 20.4466 10.6508 20.5506 10.4047C20.6547 10.1586 20.9022 10 21.175 10H24.325C24.6991 10 25 10.2926 25 10.6562V13.7188C25 13.984 24.8369 14.2246 24.5837 14.3258C24.3306 14.427 24.0409 14.3723 23.8469 14.1836L22.9075 13.2703L22.3281 13.8336C22.8766 14.6102 23.2 15.548 23.2 16.5625C23.2 19.2203 20.9837 21.375 18.25 21.375C16.8297 21.375 15.55 20.7926 14.6472 19.8602Z" fill="white"/>
</g>
<defs>
<clipPath id="clip0_278_1050">
<rect width="18" height="14" fill="white" transform="translate(7 10)"/>
</clipPath>
</defs>
</svg>
