<svg width="306" height="104" viewBox="0 0 306 104" fill="none" xmlns="http://www.w3.org/2000/svg">
<path d="M86.0352 39.0736C85.3144 40.351 85.1788 41.6783 85.1574 43.1627C85.1289 45.432 85.8853 47.1946 87.3482 48.7931C87.6408 49.1143 87.8977 49.4782 88.1047 49.8636C88.3759 50.3774 87.9334 51.1624 87.2341 51.4193C86.7774 51.5834 86.2635 51.4835 86.1494 50.9982C85.6712 48.9644 83.7659 47.8226 83.0594 45.9458C82.7811 44.9039 81.4752 44.8825 81.0755 43.9691C81.6321 42.9771 80.9756 41.4928 82.4314 40.8077C82.6384 40.7078 82.567 39.7658 82.4528 39.252C81.5108 35.163 80.3262 31.1453 78.6207 27.2918C76.7795 23.1385 74.3104 19.3635 72.0411 15.6027C71.1205 15.5599 70.9564 16.145 70.728 16.616C69.6005 19.0067 68.4587 21.4044 67.3812 23.8236C66.061 26.7851 65.5543 29.9464 65.1547 33.1292C65.0762 33.7643 65.119 34.4922 64.2412 34.6563H64.2769C63.3778 34.5207 63.3421 33.8071 63.3778 33.1649C63.4991 30.7386 63.8345 28.3337 64.5267 25.993C65.7612 21.8469 67.688 18.0004 69.7218 14.2183C70.5211 12.7339 71.6843 12.6269 72.9545 13.783C73.1972 14.0042 73.4184 14.2539 73.5897 14.5323C76.8438 19.7774 80.2906 24.9297 82.1888 30.8813C82.8881 33.0864 83.4947 35.32 84.1655 37.5394C84.3867 38.2815 84.9077 38.1816 85.4429 37.889C85.6427 38.2815 85.8354 38.674 86.0352 39.0736Z" fill="#F7853A" stroke="#F7853A"/>
<path d="M48.192 72.6137C48.0136 72.3925 47.6711 72.1784 47.3999 72.1713C46.9717 72.1641 46.5293 72.3069 46.1083 72.4353C39.8498 74.4477 33.3844 75.247 26.8691 75.7679C24.4071 75.9606 24.4142 76.0177 24.1716 73.5557C24.143 73.2274 24.2001 72.8492 24.0574 72.5852C23.929 72.3425 23.5721 72.0714 23.3224 72.0785C23.0583 72.0856 22.7087 72.3497 22.5659 72.5923C22.1663 73.2917 22.2163 74.0838 22.309 74.8545C22.8014 78.9721 24.35 82.5259 27.7611 85.0949C28.2606 85.4731 28.9671 85.7515 29.1027 86.4009C29.3025 86.5436 29.4809 86.7149 29.6308 86.9004C29.8163 86.8861 30.0304 86.9432 30.2588 87.0859C31.6004 87.9137 32.5067 89.1982 33.6556 90.2259C33.8411 90.39 34.3335 90.4114 34.5476 90.2758C34.776 90.1402 34.9544 89.7335 34.9544 89.448C34.9472 88.6131 34.4263 87.9851 33.8411 87.4784C32.2569 86.1011 30.6655 84.7238 28.9957 83.4536C27.3615 82.2119 26.1554 80.6776 25.3348 78.8222C24.9922 78.0515 25.2634 77.4663 26.0484 77.3664C27.911 77.1309 29.7806 76.8455 31.6503 76.7527C37.2308 76.4744 42.5259 74.8688 47.8281 73.3131C48.1349 73.2346 48.4917 72.9919 48.192 72.6137Z" fill="#F7853A" stroke="#F7853A"/>
<path d="M38.0805 37.9532C38.0305 38.1102 38.0091 38.3457 37.8949 38.517C37.7879 38.6811 37.5952 38.831 37.4097 38.9024C37.0671 39.0379 36.746 38.8881 36.5676 38.6026C36.3963 38.3315 36.2465 38.0032 36.2322 37.6963C36.0966 35.4698 35.3544 33.3647 34.8478 31.2238C34.0699 27.9412 32.1931 25.1723 30.3234 22.432C29.6669 21.4686 28.8819 21.5828 28.2468 22.5747C26.9266 24.6442 26.1273 26.9421 25.2496 29.2114C24.6573 30.76 24.1007 32.3228 23.4513 33.8428C23.2943 34.2139 22.8518 34.4993 22.3451 34.2567C21.8742 34.0283 21.7314 33.5645 21.8742 33.1506C23.1944 29.3969 24.2719 25.5505 26.213 22.0467C28.1683 18.5142 30.1022 18.7283 32.2288 21.5899C35.6542 26.2142 37.5238 31.495 38.0947 37.2325C38.1304 37.4537 38.0947 37.6821 38.0805 37.9532Z" fill="#F7853A" stroke="#F7853A"/>
<path d="M93.0005 63.9289C92.8649 65.7273 92.4724 67.4542 91.9443 69.1455C91.7873 69.645 91.402 70.0875 91.0594 70.5085C90.9667 70.6298 90.6384 70.637 90.4528 70.587C90.2673 70.5299 90.0746 70.3515 89.9819 70.1803C89.8891 70.0019 89.8534 69.7521 89.8962 69.5523C89.9961 69.0099 90.1603 68.4818 90.2887 67.9466C91.4305 63.094 91.1022 63.3509 86.8919 63.9289C80.9831 64.7425 75.0815 65.6345 69.3725 67.4614C68.9515 67.597 68.4948 67.704 68.1094 67.4114C67.9952 67.3258 67.9239 67.0189 67.9881 66.8905C68.2521 66.3481 68.8159 66.2339 69.3368 66.0555C72.1699 65.0993 75.0672 64.3928 78.0073 63.8861C81.7039 63.251 85.429 62.7586 89.1398 62.2091C90.5385 62.0022 90.7026 61.681 90.6098 60.2181C90.5028 58.6053 89.6322 57.3137 89.0185 55.9079C88.8115 55.4297 89.0827 55.0087 89.518 54.8446C89.7749 54.7447 90.2174 54.7946 90.4243 54.9588C91.6232 55.8936 92.1441 57.278 92.4082 58.6767C92.7364 60.3965 92.8149 62.1734 93.0005 63.9289Z" fill="#F7853A" stroke="#F7853A"/>
<path d="M22.5793 52.9465C22.4294 52.554 22.1511 52.1686 22.144 51.7761C22.1225 50.4488 21.4303 49.571 20.417 48.8574C20.4384 48.4292 20.4669 48.0011 20.4884 47.5658C21.309 47.5872 21.7229 47.2375 21.5873 46.374C21.2448 44.1761 21.2591 41.9638 21.3732 39.7516C21.4232 38.8667 21.4446 37.9747 21.9227 37.1826C22.1511 36.8044 22.4365 36.4547 22.9432 36.5047C23.5141 36.5617 23.614 36.9899 23.6069 37.4466C23.5997 37.8891 23.5355 38.3244 23.4856 38.7668C23.1644 41.8639 23.2929 44.9468 23.6283 48.0439C23.7496 49.1571 24.192 49.8636 25.0841 50.4488C25.7263 50.8698 26.2901 51.405 26.8895 51.8903C26.5755 52.1187 26.2687 52.3399 25.9547 52.5682C25.8548 52.5326 25.7477 52.504 25.655 52.4612C24.399 51.8974 24.399 51.8974 23.3785 52.9821C23.1145 52.9821 22.8433 52.9679 22.5793 52.9465Z" fill="#F7853A" stroke="#F7853A"/>
<path d="M64.2703 34.6564H64.2347C64.0277 35.106 64.0562 35.5484 64.5058 35.7768C65.0839 36.0693 65.7404 36.1978 66.3184 36.4975C66.7323 36.7116 66.8822 37.2111 66.7252 37.6393C66.6324 37.8819 66.2827 38.0889 66.0044 38.1959C65.7047 38.303 65.355 38.2673 65.0268 38.2958C64.8484 39.0237 65.3693 39.5304 65.5763 40.1298C65.876 41.0005 65.826 41.8425 65.4264 41.8068C64.7342 41.7426 64.62 41.1503 64.3702 40.6865C64.2132 40.3939 64.0562 40.1084 63.9207 39.8087C63.2213 38.2673 62.0938 37.5037 60.3526 37.3681C58.4971 37.2254 56.6631 36.7901 54.8291 36.4618C54.508 36.4047 54.2654 36.1764 54.2368 35.791C54.2012 35.2415 54.558 34.9204 55.0004 34.9275C56.0922 34.9347 57.1841 35.0275 58.2759 35.1345C59.9172 35.2915 61.5514 35.5127 63.1928 35.6483C63.7993 35.6768 64.1704 35.2772 64.2703 34.6564Z" fill="#F7853A" stroke="#F7853A"/>
<path d="M57.064 69.1813C56.0221 69.0029 54.5378 69.2312 54.5235 67.7112C54.5093 66.391 55.908 66.1056 56.9356 65.8059C57.9846 65.499 59.105 65.3706 60.1968 65.2635C61.0103 65.185 61.7596 65.4776 62.1165 66.284C62.4019 66.9405 62.2235 67.5828 61.8025 68.1537C61.4671 68.6104 61.0532 68.9601 60.4965 69.1171C59.8686 69.1028 59.2263 69.0457 58.8195 69.688C58.5912 69.6808 58.3628 69.6737 58.1273 69.6737C57.8633 69.3097 57.5065 69.1456 57.064 69.1813Z" fill="#F7853A" stroke="#F7853A"/>
<path d="M58.8115 69.6878C59.2183 69.0527 59.8606 69.1027 60.4885 69.1169C60.7597 70.0589 61.0237 70.9938 61.2949 71.9357C61.4234 72.371 61.6375 72.735 62.0728 72.9348C62.5794 73.1703 63.1646 73.4629 62.9077 74.1123C62.6223 74.8259 61.8087 75.0328 61.2378 74.7189C60.0247 74.0481 59.2611 74.4762 58.5118 75.4182C58.3334 75.6466 57.9552 75.7821 57.6483 75.8321C57.213 75.9035 56.7206 75.8036 56.5494 75.3468C56.4494 75.0899 56.4851 74.5833 56.6564 74.4548C57.9766 73.4629 58.3762 71.95 58.9757 70.5513C59.1327 70.1945 59.0185 69.9447 58.8115 69.6878Z" fill="#F7853A" stroke="#F7853A"/>
<path d="M49.7696 77.809C49.6626 77.9874 49.5912 78.2514 49.4342 78.3299C45.7733 80.0925 42.1125 81.848 38.4302 83.5679C38.2232 83.6678 37.8522 83.4251 37.5596 83.3395C37.6595 83.0398 37.6809 82.6402 37.8878 82.4689C38.3017 82.1192 38.7941 81.848 39.2865 81.6197C42.1767 80.2709 45.0669 78.9436 47.9641 77.6091C48.4565 77.3808 48.9418 77.1167 49.5198 77.2952C49.7982 77.3879 49.8838 77.5521 49.7696 77.809Z" fill="#F7853A" stroke="#F7853A"/>
<path d="M75.3381 36.4975C75.231 36.7615 75.124 37.0755 74.9813 37.3681C73.5754 40.2226 72.0768 43.0342 71.0135 46.0528C70.8779 46.4382 70.514 46.7593 70.2 47.0448C70.1072 47.1304 69.7433 47.0876 69.6362 46.9734C69.3365 46.6523 69.3722 47.1732 69.415 46.7308C69.4222 46.6237 69.4079 46.5024 69.4364 46.4025C70.6781 42.8772 72.2053 39.4804 74.0179 36.2049C74.0678 36.1121 74.1249 35.9979 74.2034 35.9337C74.4817 35.7196 74.81 35.6625 75.0812 35.8837C75.2239 36.0051 75.2453 36.262 75.3381 36.4975Z" fill="#F7853A" stroke="#F7853A"/>
<path d="M25.9629 52.5753C26.2769 52.3469 26.5837 52.1257 26.8977 51.8973C27.7755 52.5467 28.6746 53.1747 29.531 53.8527C31.1794 55.1514 32.8136 56.4502 34.6619 57.4636C35.3399 57.8347 36.0107 58.2486 36.3104 59.0193C36.3603 59.1477 36.1891 59.3903 36.0749 59.5545C36.0249 59.6258 35.8893 59.6544 35.7823 59.6687C35.6824 59.6829 35.5468 59.6972 35.4683 59.6472C32.1286 57.5135 28.7389 55.4654 25.9629 52.5753Z" fill="#F7853A" stroke="#F7853A"/>
<path d="M75.5456 70.8868C73.7972 70.9653 72.0489 71.0581 70.2934 71.108C70.1578 71.1152 69.9437 70.8369 69.9009 70.6585C69.8652 70.5157 70.015 70.1946 70.1292 70.1732C73.6759 69.4096 77.2583 69.1028 80.8835 69.481C81.1547 69.5095 81.2332 69.6737 81.276 69.9306C81.3402 70.3445 81.0833 70.6014 80.7978 70.6228C79.0495 70.7227 77.294 70.7655 75.5456 70.8226C75.5456 70.8369 75.5456 70.8654 75.5456 70.8868Z" fill="#F7853A" stroke="#F7853A"/>
<path d="M46.6013 36.5403C46.5085 36.733 46.4729 37.0184 46.323 37.1112C44.2606 38.3886 42.7406 40.2868 40.9209 41.8354C40.5998 42.1065 40.193 42.342 39.7934 42.4419C39.5365 42.5062 39.1654 42.3706 38.9228 42.1993C38.6159 41.9924 38.6302 41.5571 38.8514 41.343C40.664 39.6232 42.1555 37.5608 44.3106 36.2192C44.753 35.9409 45.3025 35.8124 45.8163 35.6697C46.1232 35.5769 46.6941 36.2406 46.6013 36.5403Z" fill="#F7853A" stroke="#F7853A"/>
<path d="M29.5947 47.7656C29.7517 47.5515 29.8445 47.3088 29.9944 47.266C30.1799 47.2089 30.4582 47.2589 30.6081 47.3731C33.2913 49.4711 35.7961 51.7618 38.2224 54.1525C38.3009 54.231 38.3937 54.3309 38.3937 54.4236C38.4008 54.6163 38.4151 54.8732 38.308 55.0017C38.1867 55.1444 37.9084 55.2657 37.7443 55.2229C37.4445 55.1373 37.1377 54.966 36.9022 54.7519C34.6186 52.6967 32.3422 50.6272 30.08 48.5434C29.8588 48.3436 29.7517 48.0153 29.5947 47.7656Z" fill="#F7853A" stroke="#F7853A"/>
<path d="M20.4825 47.5729C20.4611 48.0011 20.4325 48.4292 20.4111 48.8645C17.7422 47.5872 15.323 45.9244 12.9395 44.1975C12.597 43.9477 12.3115 43.598 12.0689 43.2484C11.969 43.1128 11.9833 42.8059 12.076 42.6489C12.1617 42.5062 12.4114 42.392 12.5899 42.3849C12.7897 42.3777 13.0252 42.4777 13.1964 42.5918C15.637 44.2474 18.0562 45.9102 20.4825 47.5729Z" fill="#F7853A" stroke="#F7853A"/>
<path d="M81.0763 43.9691C81.4831 44.8897 82.7819 44.904 83.0602 45.9458C82.4322 45.4178 81.8399 45.0966 81.0835 45.8245C79.4992 47.3445 77.865 48.8146 76.2308 50.2846C76.0096 50.4845 75.6671 50.5915 75.3602 50.6415C75.2532 50.6557 75.0034 50.3917 74.982 50.2276C74.8821 49.5996 75.3674 49.2071 75.7456 48.8574C77.494 47.2018 79.2923 45.5962 81.0763 43.9691Z" fill="#F7853A" stroke="#F7853A"/>
<path d="M86.0357 39.0736C85.8359 38.6811 85.636 38.2815 85.4434 37.889C86.6066 35.7696 87.7626 33.643 88.933 31.5235C89.0329 31.338 89.1827 31.1453 89.354 31.0383C89.5253 30.9312 89.7893 30.8385 89.9606 30.8884C90.1104 30.9384 90.2674 31.2024 90.2746 31.3737C90.2888 31.6948 90.2746 32.0587 90.1318 32.3299C88.8901 34.6492 87.7626 37.047 86.0357 39.0736Z" fill="#F7853A" stroke="#F7853A"/>
<path d="M22.5798 52.9464C22.8509 52.9607 23.115 52.975 23.3862 52.9892C23.586 54.0811 23.6573 55.1087 23.0365 56.1648C22.4299 57.1996 21.9803 58.3342 21.9661 59.5902C21.9589 60.1326 21.4879 60.311 21.0383 60.2896C20.4175 60.261 19.9893 59.8543 19.9751 59.2548C19.9608 58.7267 20.0536 58.1416 20.2748 57.6634C20.9955 56.0792 21.8019 54.5235 22.5798 52.9464Z" fill="#F7853A" stroke="#F7853A"/>
<path d="M39.7802 70.0518C40.5009 70.1731 41.6998 70.3587 42.8844 70.6013C43.0343 70.6299 43.2198 70.9082 43.2484 71.0866C43.2983 71.4363 43.0842 71.7431 42.7203 71.7146C40.7507 71.5504 38.7526 71.5861 36.8401 70.9724C36.6474 70.9082 36.5118 70.7012 36.3477 70.5585C36.5617 70.3515 36.7758 69.9805 37.0042 69.9662C37.7606 69.9234 38.5313 70.0019 39.7802 70.0518Z" fill="#F7853A" stroke="#F7853A"/>
<path d="M86.5063 82.1762C86.4778 81.0202 86.4064 79.8998 85.179 79.2504C84.915 79.1077 84.9007 78.6295 85.1433 78.3798C85.3431 78.1799 85.6999 77.973 85.9497 78.0087C86.6919 78.1229 87.4126 78.3584 88.1405 78.551C89.3537 78.8793 89.6177 79.4502 88.6472 80.2423C87.7909 80.9417 88.269 81.5625 88.269 82.2404C87.6838 82.219 87.0986 82.1976 86.5063 82.1762Z" fill="#F7853A" stroke="#F7853A"/>
<path d="M71.7288 59.476C71.0081 59.4118 70.2088 58.5983 70.2516 57.9632C70.323 56.8356 71.4434 55.8865 72.4853 56.0792C73.2274 56.2148 73.8411 57.014 73.7627 57.7419C73.6556 58.7125 72.6637 59.5617 71.7288 59.476Z" fill="#F7853A" stroke="#F7853A"/>
<path d="M83.3038 57.749C83.2396 57.9488 83.2325 58.2271 83.0969 58.3413C81.5127 59.69 79.6858 60.6035 77.7376 61.2814C77.5949 61.3314 77.2666 61.1886 77.2024 61.0531C77.0739 60.7533 77.1453 60.4037 77.4522 60.2324C79.1506 59.2761 80.8561 58.3342 82.5617 57.3993C82.6544 57.3494 82.8043 57.3137 82.8757 57.3565C83.0398 57.4564 83.1683 57.6134 83.3038 57.749Z" fill="#F7853A" stroke="#F7853A"/>
<path d="M41.6764 64.8853C41.5693 65.6417 40.7629 66.2911 40.0779 66.1769C39.2215 66.0271 38.6007 65.0779 38.8076 64.2359C38.9575 63.6007 39.6283 63.0584 40.1992 63.0941C41.0484 63.1369 41.7906 64.0503 41.6764 64.8853Z" fill="#F7853A" stroke="#F7853A"/>
<path d="M88.0909 82.9256C88.2765 83.3181 88.4906 83.7034 88.6404 84.1102C88.8117 84.5812 88.6333 84.9451 88.1909 85.1877C87.677 85.4661 87.1276 85.4946 86.5995 85.3376C86.0785 85.1878 85.5362 84.9594 85.4577 84.3171C85.3649 83.6035 85.9073 83.4251 86.4496 83.2538C86.6423 83.1896 86.8064 83.0112 86.9777 82.8899C87.3417 82.897 87.7199 82.9113 88.0909 82.9256Z" fill="#F7853A" stroke="#F7853A"/>
<path d="M42.0769 52.9964C41.9841 53.3603 41.9127 53.6815 41.8128 53.9812C41.7914 54.0526 41.663 54.1025 41.5773 54.1525C41.3418 54.288 41.1063 54.2524 41.0064 54.0097C40.5497 52.8894 40.3927 51.7261 40.6496 50.5344C40.6853 50.3774 40.9565 50.1919 41.1349 50.1633C41.2776 50.1419 41.563 50.3275 41.5916 50.463C41.7914 51.3123 41.927 52.1757 42.0769 52.9964Z" fill="#F7853A" stroke="#F7853A"/>
<path d="M89.0612 74.562C89.0826 74.3407 89.047 74.0981 89.1397 73.9268C89.3039 73.6271 89.5965 73.4844 89.9461 73.6057C90.2673 73.7127 90.5813 73.9411 90.4956 74.2908C90.2744 75.1543 89.4109 75.7965 89.7463 76.8955C89.8748 77.3094 89.2611 77.5734 88.8115 77.5806C88.3619 77.5948 87.9765 77.4022 87.8053 76.9312C87.6126 76.396 87.9551 76.0748 88.3476 75.9036C88.9685 75.6181 89.5822 75.4112 89.0612 74.562Z" fill="#F7853A" stroke="#F7853A"/>
<path d="M23.108 66.398C23.0366 66.7263 22.9653 67.39 22.7369 67.9823C22.5942 68.3534 22.2231 68.6816 21.7236 68.6031C21.2098 68.5246 20.9885 68.1107 21.0242 67.6683C21.0742 67.026 21.2169 66.3909 21.3882 65.7701C21.5594 65.1492 22.2017 64.7781 22.587 65.0065C22.9795 65.2348 23.1294 65.5488 23.108 66.398Z" fill="#F7853A" stroke="#F7853A"/>
<path d="M50.833 35.7981C50.5262 36.7829 49.0847 37.1611 48.421 36.4832C48.2997 36.3547 48.2212 36.0693 48.2711 35.9051C48.5352 35.113 49.6127 34.6706 50.3763 35.0845C50.6047 35.2058 50.7046 35.584 50.833 35.7981Z" fill="#F7853A" stroke="#F7853A"/>
<path d="M71.7915 37.3466C71.5631 37.8248 71.3348 38.3029 70.6854 38.2815C70.1858 38.2672 69.8647 37.7249 70.0146 37.1111C70.1573 36.5117 70.5212 36.2191 71.1564 36.3904C71.6345 36.5188 71.7558 36.9185 71.7915 37.3466Z" fill="#F7853A" stroke="#F7853A"/>
<path d="M88.0901 82.9255C87.719 82.9112 87.3479 82.897 86.9697 82.8827C86.8127 82.6472 86.6629 82.4046 86.5059 82.1691C87.0982 82.1905 87.6833 82.2119 88.2756 82.2333C88.2114 82.4688 88.1543 82.6971 88.0901 82.9255Z" fill="#F7853A" stroke="#F7853A"/>
<path d="M57.0625 69.1813C57.5049 69.1456 57.8618 69.3097 58.1258 69.6737C57.6548 69.7593 57.3123 69.5666 57.0625 69.1813Z" fill="#F7853A" stroke="#F7853A"/>
<path d="M110.307 43.4378C110.067 43.179 109.967 42.985 110.017 42.8772C109.967 42.737 110.027 42.6184 110.187 42.4998C110.357 42.392 110.546 42.2842 110.766 42.1871C110.986 42.0901 111.106 42.0146 111.136 41.9607C111.186 41.9068 111.645 41.7235 112.504 41.4C113.362 41.0874 113.822 40.8825 113.872 40.7963C113.952 40.6345 114.022 40.1925 114.101 39.4917C114.181 38.7801 114.261 38.1224 114.351 37.497C114.441 36.8717 114.551 36.5482 114.681 36.5159C114.781 36.3218 114.99 36.2248 115.3 36.2248C115.609 36.2248 115.879 36.2787 116.109 36.3865C116.209 36.4728 116.258 36.5914 116.258 36.7639C116.258 36.9364 116.199 37.0658 116.069 37.1736C116.019 37.1412 115.939 37.3461 115.819 37.7774C115.699 38.2086 115.609 38.6076 115.549 38.9849C115.49 39.3623 115.509 39.5887 115.609 39.675C115.709 39.7828 115.919 39.7612 116.229 39.5887C116.688 39.3623 117.137 39.082 117.577 38.7154C118.016 38.3596 118.236 38.09 118.236 37.9283C118.236 37.648 118.386 37.4755 118.675 37.4108C118.975 37.3461 119.184 37.4216 119.314 37.6372C119.574 38.0577 119.324 38.6507 118.585 39.427C118.146 39.9229 117.607 40.3973 116.947 40.8394C116.288 41.2814 115.879 41.5833 115.699 41.7559C115.649 41.648 115.619 41.9068 115.619 42.5429C115.619 44.8718 115.679 46.5322 115.809 47.5241C115.859 47.578 115.949 47.6535 116.079 47.729C116.209 47.8152 116.298 47.8799 116.368 47.9338C116.428 47.9877 116.458 48.074 116.448 48.1818C116.438 48.2896 116.348 48.419 116.199 48.5592C116.019 48.7856 115.889 48.9904 115.809 49.2061C115.729 49.4109 115.689 49.6481 115.689 49.9177C115.689 50.1872 115.689 50.5107 115.689 50.8988C115.689 51.287 115.679 51.7614 115.649 52.3112C115.679 53.1738 115.669 53.9069 115.629 54.5107C115.589 55.1253 115.529 55.7722 115.46 56.4622C115.38 57.1523 115.33 57.7345 115.31 58.2089C115.23 59.287 115.01 59.9447 114.661 60.1604C114.431 60.3005 114.201 60.2682 113.992 60.0741C113.772 59.88 113.552 59.6105 113.323 59.2655C113.093 58.9205 112.913 58.7048 112.783 58.6186C111.984 57.6806 111.505 56.4406 111.325 54.9204C111.275 54.5862 111.196 54.2412 111.076 53.8854C110.956 53.5296 110.886 53.3031 110.846 53.1953C110.806 53.0983 110.826 52.9366 110.906 52.7209C110.986 52.4945 111.126 52.2789 111.345 52.0525C111.565 51.826 111.915 51.5134 112.404 51.0929C113.432 50.1764 114.022 49.5726 114.171 49.2815C114.321 48.9904 114.361 48.3435 114.291 47.3516C114.291 47.1575 114.281 46.392 114.251 45.0443C114.221 43.6966 114.171 42.8987 114.101 42.6507C114.022 42.5968 113.882 42.6076 113.682 42.6723C113.472 42.737 112.823 43.0281 111.715 43.5241C111.205 43.772 110.916 43.9014 110.866 43.9014C110.726 43.8583 110.546 43.7074 110.307 43.4378ZM114.191 51.5781C114.181 51.3948 114.121 51.3085 114.022 51.3085C113.922 51.3085 113.802 51.3624 113.672 51.4702C113.542 51.5781 113.482 51.6967 113.482 51.8045C113.482 51.8907 113.263 52.1495 112.823 52.5915C112.384 53.0336 112.124 53.3786 112.034 53.6266C111.944 53.8746 111.954 54.2196 112.054 54.6616C112.444 56.1819 112.903 57.1738 113.442 57.6159C113.652 57.7776 113.792 57.7021 113.862 57.3679C114.121 55.8153 114.231 54.4029 114.211 53.1306C114.211 52.2789 114.201 51.7613 114.191 51.5781ZM126.275 33.5509C126.364 33.6479 126.394 33.7665 126.374 33.9067C126.324 34.0469 126.085 34.3487 125.665 34.8231C125.246 35.2975 124.866 35.6857 124.527 35.9876C124.317 36.1493 124.187 36.311 124.128 36.4404C124.068 36.5806 123.998 36.8717 123.918 37.3137C123.788 37.9283 123.738 38.2949 123.768 38.4351C123.848 38.6291 124.137 38.6615 124.637 38.5213C125.136 38.3811 125.615 38.1332 126.075 37.7774C126.764 37.2275 127.253 37.0658 127.533 37.3245C127.742 37.4863 127.623 37.7774 127.183 38.1979C126.874 38.5321 126.614 38.8016 126.394 39.0065C126.175 39.2113 125.955 39.4054 125.725 39.5671C125.496 39.7289 125.326 39.8475 125.226 39.9229C125.126 39.9876 124.916 40.0955 124.607 40.2356C124.297 40.3758 124.068 40.4836 123.918 40.5698C123.868 40.6561 123.798 41.0011 123.728 41.6049C123.678 42.2195 123.718 42.586 123.848 42.7262C124.128 43.0281 124.617 42.8448 125.306 42.1655C125.995 41.4863 126.304 41.0227 126.225 40.7747C126.225 40.5267 126.304 40.3542 126.474 40.2572C126.644 40.1601 126.824 40.1709 127.033 40.2787C127.163 40.3111 127.223 40.4081 127.223 40.5698C127.223 40.7316 127.183 40.9364 127.093 41.1736C127.004 41.4108 126.904 41.6265 126.804 41.8421C126.704 42.0469 126.604 42.2518 126.514 42.4459C126.424 42.64 126.384 42.7585 126.384 42.8232C126.235 43.179 125.845 43.5887 125.226 44.0524C124.607 44.516 124.147 44.71 123.838 44.6561C123.608 44.71 123.448 44.7208 123.359 44.6777C123.269 44.6346 123.109 44.4944 122.879 44.2464L122.42 43.7505V40.6777C122.44 38.6507 122.42 37.6264 122.34 37.6049C122.24 37.6372 121.971 37.7989 121.531 38.1008C121.202 38.3811 120.912 38.5105 120.682 38.4997C120.453 38.489 120.293 38.3919 120.203 38.2302C120.113 38.0685 120.033 37.8313 119.953 37.5294C119.953 37.3353 120.123 37.1197 120.473 36.8825C120.822 36.6453 121.661 36.1601 122.989 35.4054C123.199 35.3191 123.658 34.9849 124.397 34.3919C125.126 33.7989 125.605 33.4862 125.845 33.4539C126.035 33.3999 126.185 33.4539 126.275 33.5509ZM141.653 61.0337C141.963 61.2817 142.063 61.5081 141.963 61.7022C141.963 62.1766 141.853 62.5216 141.633 62.7588C141.413 62.996 141.124 63.0607 140.764 62.9421C140.505 62.8558 140.335 62.7588 140.245 62.651C140.155 62.5431 140.095 62.3491 140.075 62.0688C140.025 61.7884 139.955 61.6051 139.886 61.5081C139.816 61.4111 139.646 61.2817 139.386 61.1092C138.947 60.8612 138.498 60.4623 138.018 59.9016C137.539 59.3517 137.099 58.9205 136.69 58.6186C136.38 58.3922 136.091 58.1334 135.801 57.8315C135.522 57.5296 135.202 57.1415 134.843 56.6886C134.483 56.2358 134.203 55.88 133.994 55.632C133.964 55.632 133.774 55.4811 133.415 55.1792C133.105 54.8989 132.865 54.7587 132.706 54.7587C132.536 54.7587 132.376 54.9096 132.226 55.2115C131.228 57.0444 130.249 58.1226 129.3 58.4568C128.611 58.7911 128.132 58.8989 127.872 58.7695C127.613 58.6401 127.473 58.2736 127.453 57.6698C127.483 57.3355 127.543 57.1415 127.643 57.0875C127.742 57.0336 127.922 57.0983 128.182 57.2924L128.491 57.5404L128.951 57.2493C129.34 57.0229 129.84 56.5053 130.469 55.6751C131.098 54.8449 131.407 54.2735 131.407 53.9716C131.407 53.7775 131.148 53.4002 130.638 52.8503C130.199 52.3543 129.87 52.0525 129.64 51.9554C129.41 51.8584 129.071 51.8799 128.641 52.0201C128.232 52.1603 127.942 52.1711 127.772 52.0632C127.603 51.9554 127.483 51.6751 127.403 51.233C127.303 50.7586 127.533 50.4675 128.092 50.3597C129.58 50.1117 131.248 49.012 133.095 47.082C133.684 46.4783 134.094 46.1009 134.323 45.9607C134.603 45.799 134.922 45.8314 135.282 46.0901C135.641 46.3381 135.612 47.1467 135.202 48.5052C134.942 49.3678 134.533 50.3597 133.974 51.4918C133.584 52.2358 133.425 52.7317 133.494 52.9689C133.554 53.2061 133.924 53.6158 134.593 54.198C134.982 54.5538 135.392 55.0174 135.841 55.5889C136.291 56.1603 136.75 56.6455 137.209 57.066C137.669 57.5081 138.328 58.101 139.177 58.8558C140.025 59.5997 140.674 60.2035 141.144 60.6455C141.174 60.6455 141.344 60.7857 141.653 61.0337ZM131.467 33.7342C131.527 33.8744 131.557 34.0145 131.547 34.1547C131.537 34.2948 131.507 34.4781 131.467 34.7153C131.427 34.9525 131.407 35.1358 131.407 35.276C131.357 35.9121 131.258 36.807 131.098 37.9607C130.948 39.1143 130.828 40.1386 130.748 41.055C130.698 41.3893 130.668 41.7127 130.648 42.0362C130.638 42.3488 130.628 42.5753 130.628 42.7046C130.628 42.834 130.599 42.9526 130.549 43.0604C130.499 43.1683 130.429 43.2437 130.339 43.2869C130.249 43.33 130.099 43.3731 129.899 43.427C129.64 43.5133 129.46 43.4594 129.34 43.2653C129.22 43.0712 129.18 42.834 129.2 42.5537C129.25 42.0577 129.37 40.9149 129.57 39.1251C129.76 37.3353 129.88 36.0199 129.939 35.1574C130.019 34.187 130.129 33.6372 130.289 33.497C130.419 33.3892 130.519 33.3245 130.599 33.3137C130.678 33.3029 130.838 33.346 131.098 33.4539C131.288 33.497 131.407 33.594 131.467 33.7342ZM133.724 48.322C133.574 48.3543 133.105 48.7532 132.336 49.5295C131.697 50.2196 131.337 50.6724 131.278 50.8772C131.218 51.0821 131.357 51.3409 131.717 51.6428C131.947 51.8045 132.126 51.8907 132.256 51.8907C132.386 51.8907 132.466 51.8476 132.506 51.7506C132.546 51.6535 132.596 51.5026 132.656 51.2977C132.716 51.0929 132.785 50.9311 132.865 50.8233C132.945 50.5969 133.035 50.3382 133.155 50.0363C133.275 49.7344 133.395 49.454 133.524 49.2061C133.784 48.6131 133.854 48.322 133.724 48.322ZM133.035 38.7262C132.885 38.6399 132.785 38.5752 132.746 38.5213C132.706 38.4674 132.646 38.338 132.576 38.1439C132.626 37.9499 132.995 37.7127 133.674 37.4323C134.353 37.152 134.773 36.9256 134.922 36.7207C135.592 36.1709 136.041 35.8043 136.271 35.6426C136.351 35.6749 136.42 35.5132 136.48 35.1682C136.54 34.8232 136.57 34.4781 136.56 34.1331C136.55 33.7881 136.49 33.6156 136.39 33.6156C136.181 33.3676 135.821 33.3245 135.312 33.4862C134.803 33.6479 134.283 33.9822 133.774 34.4781C133.514 34.7261 133.335 34.8771 133.215 34.9202C133.095 34.9633 132.975 34.8986 132.845 34.7369C132.696 34.5428 132.626 34.3595 132.656 34.1978C132.676 34.0361 132.805 33.7773 133.045 33.4539C133.375 33.0657 133.634 32.7854 133.814 32.6237C133.994 32.4619 134.273 32.311 134.643 32.1708C135.012 32.0307 135.462 31.9768 135.971 32.0091C136.64 32.0414 137.07 32.16 137.259 32.3865C137.449 32.6129 137.649 33.152 137.858 34.0037C137.988 34.1655 138.008 34.5752 137.918 35.2113C137.828 35.8474 137.798 36.2356 137.818 36.3757C137.818 37.2383 137.599 38.3164 137.159 39.621L137.07 39.7181C137.04 39.8582 137.01 40.0523 136.97 40.3219C136.93 40.5914 136.89 40.7747 136.85 40.9041C136.81 41.0335 136.74 41.1844 136.64 41.3785C136.54 41.5726 136.41 41.7558 136.251 41.9176C136.121 42.0038 135.991 42.144 135.861 42.3488C135.731 42.5537 135.602 42.7046 135.462 42.7909C135.322 42.8771 135.112 42.8987 134.823 42.8772C134.613 42.8448 134.363 42.8772 134.054 42.9634C133.744 43.0497 133.504 43.0712 133.325 43.0497C133.145 43.0281 133.005 42.8664 132.905 42.5968C132.805 42.3704 132.785 42.1871 132.865 42.0362C132.945 41.8852 133.145 41.7127 133.484 41.5186C133.534 41.4971 133.684 41.3893 133.924 41.2275C134.164 41.0658 134.343 40.9364 134.463 40.8502C134.583 40.7639 134.743 40.6238 134.962 40.4297C135.182 40.2356 135.342 40.0631 135.442 39.9122C135.542 39.7612 135.651 39.5671 135.771 39.3299C135.891 39.0927 135.971 38.8555 136.021 38.6076C136.201 37.8636 136.251 37.4539 136.171 37.4C136.121 37.3677 135.931 37.5402 135.592 37.896C134.972 38.5105 134.293 38.8124 133.554 38.8124C133.365 38.834 133.185 38.8016 133.035 38.7262Z" fill="#F7853A" stroke="#F7853A"/>
<path d="M155.993 35.923C156.092 36.0259 156.212 36.0145 156.354 35.9001C156.496 35.7858 156.595 35.6258 156.65 35.42C156.704 35.0999 156.912 34.8827 157.284 34.7799C157.656 34.677 157.94 34.7341 158.169 34.9285C158.333 35.0999 158.41 35.3286 158.399 35.5915C158.388 35.8544 158.279 36.1059 158.082 36.346C157.994 36.4946 157.634 36.8032 156.989 37.2719C156.343 37.7406 155.983 38.0378 155.895 38.1521C155.895 38.2093 155.829 38.5751 155.687 39.2496C155.545 39.924 155.392 40.4384 155.228 40.7928C154.922 41.5587 154.824 41.9245 154.933 41.8902C154.988 41.8559 155.064 41.7873 155.141 41.673C156.147 40.7585 157.109 40.0155 158.005 39.421C158.115 39.421 158.235 39.5125 158.344 39.7068C158.454 39.9011 158.497 40.0498 158.476 40.1641C158.443 40.3127 158.049 40.7814 157.295 41.5701C156.671 42.2217 156.289 42.6447 156.136 42.8505C155.983 43.0562 155.873 43.3192 155.819 43.6392C155.786 43.8793 155.797 44.6681 155.84 46.017C155.884 47.3659 155.928 48.1204 155.993 48.2575C156.103 48.5776 156.518 48.2918 157.218 47.3773C157.273 47.3202 157.317 47.263 157.349 47.2058C157.994 46.3256 158.585 45.5597 159.121 44.9196C159.263 44.7481 159.438 44.6566 159.667 44.6566C159.897 44.6566 160.05 44.7595 160.127 44.9653C160.236 45.2854 160.159 45.674 159.897 46.1313C159.635 46.5885 159.263 47.0801 158.782 47.606C158.301 48.1318 158.005 48.4862 157.896 48.6577C157.787 48.8063 157.568 49.0806 157.24 49.4693C156.912 49.8694 156.66 50.1895 156.486 50.441C156.3 50.6924 156.125 51.0011 155.939 51.3669C155.753 51.7327 155.655 52.0642 155.622 52.3614C155.622 52.6244 155.72 52.773 155.917 52.8073C156.026 52.8416 156.354 52.9787 156.89 53.2302C157.426 53.4817 157.787 53.6189 157.984 53.6532C158.29 53.6875 159.011 53.8704 160.138 54.2248C161.657 54.7277 162.959 55.025 164.052 55.1279C165.146 55.2307 166.042 55.3565 166.753 55.5051C167.114 55.6537 167.671 55.688 168.415 55.6194C169.158 55.5508 169.618 55.528 169.782 55.5508C170.46 55.608 172.318 55.688 175.369 55.768C178.42 55.8595 180.29 55.9395 180.989 56.0309C181.831 56.0652 182.334 56.1224 182.509 56.2024C182.684 56.2824 182.761 56.5111 182.761 56.8654C182.761 57.3913 182.531 57.6999 182.083 57.7914C181.635 57.8828 180.694 57.8028 179.262 57.5742C179.207 57.5399 178.693 57.517 177.72 57.4827C176.747 57.4484 175.61 57.4256 174.309 57.3913C173.007 57.357 171.695 57.3341 170.394 57.2998C169.093 57.2655 167.999 57.2312 167.125 57.1855C166.25 57.1398 165.856 57.1055 165.944 57.0712C165.747 57.0369 165.266 56.9683 164.489 56.854C163.713 56.7397 163.068 56.6368 162.554 56.5454C162.029 56.4539 161.493 56.3396 160.936 56.191C160.378 56.0424 160.006 55.9166 159.842 55.7909C159.755 55.7337 159.438 55.6194 158.869 55.4594C158.312 55.2993 157.984 55.1736 157.896 55.0821C157.557 54.9335 156.901 54.7849 155.917 54.6134C154.933 54.4534 154.255 54.2934 153.894 54.1562C153.664 54.0419 153.369 53.9504 153.008 53.8933C152.648 53.8361 152.32 53.7447 152.035 53.6303C151.554 53.4589 151.259 53.3903 151.128 53.436C150.997 53.4817 150.854 53.6646 150.69 53.9847C150.581 54.2476 150.089 54.9792 149.214 56.191C148.033 57.8371 147.202 58.7516 146.732 58.9231C146.448 59.0374 146.24 59.026 146.098 58.8774C145.956 58.7288 145.967 58.5344 146.142 58.3058C146.699 57.6542 147.957 55.8823 149.892 52.9787C149.98 52.7158 150.22 52.0871 150.625 51.0811C151.029 50.0866 151.292 49.435 151.401 49.1378C151.565 48.5548 151.817 48.0975 152.134 47.7774C152.451 47.4573 152.735 47.4002 152.954 47.606C153.183 47.7774 153.194 48.1318 152.997 48.6577C152.855 48.9777 152.669 49.515 152.451 50.2695C152.221 51.024 152.112 51.4469 152.112 51.5727C152.112 51.8699 152.56 52.0299 153.457 52.0528L154.091 52.0985L154.342 51.2183C154.485 50.8639 154.55 50.4638 154.55 50.0294C154.55 49.5836 154.517 49.0806 154.463 48.509C154.408 47.9375 154.397 47.4573 154.419 47.0801C154.386 45.6054 154.266 44.8281 154.036 44.7481C153.927 44.6909 153.402 44.9424 152.473 45.5026C151.882 45.8798 151.489 46.0741 151.292 46.0741C151.007 46.0741 150.822 45.9484 150.723 45.6969C150.625 45.4454 150.658 45.1939 150.832 44.931C150.92 44.7824 151.215 44.5309 151.74 44.1651C152.265 43.7993 152.571 43.6164 152.691 43.6164C152.801 43.6164 152.921 43.5249 153.052 43.3535C153.183 43.182 153.238 42.9991 153.238 42.8276C153.238 42.6218 153.391 42.0617 153.697 41.1586C153.927 40.427 154.058 39.9354 154.102 39.6839C154.146 39.4325 154.091 39.2839 153.949 39.2267C153.664 39.2267 153.413 39.2724 153.194 39.3639C152.965 39.4553 152.724 39.5696 152.462 39.7182C152.199 39.8668 151.948 39.9812 151.729 40.0726C151.193 40.2784 150.898 40.4041 150.843 40.4727C150.734 40.587 150.592 40.6328 150.417 40.6099C150.253 40.5756 150.133 40.4956 150.078 40.347C149.991 40.1412 150.078 39.844 150.33 39.4667C150.559 38.8494 151.456 38.3236 153.03 37.8778C153.457 37.8206 153.763 37.6834 153.96 37.4777C154.102 37.3062 154.189 37.1119 154.233 36.9061C154.277 36.7003 154.342 36.0945 154.419 35.0999C154.452 33.7167 154.845 33.3624 155.6 34.0482C155.829 34.3112 155.939 34.7113 155.939 35.2371C155.873 35.5801 155.895 35.8201 155.993 35.923ZM168.83 46.5657C168.798 46.5657 168.546 46.8057 168.076 47.2744C167.431 48.006 166.458 48.7262 165.167 49.435C164.435 49.8465 163.899 50.018 163.549 49.938C163.199 49.8694 163.068 49.5493 163.145 48.9892C163.177 48.6348 163.309 48.3833 163.549 48.2232C163.79 48.0632 164.129 47.926 164.555 47.8232C164.992 47.7203 165.32 47.606 165.55 47.4916C165.977 47.343 166.458 46.9658 167.004 46.3714C167.551 45.7769 167.934 45.3997 168.163 45.2511C168.59 44.9539 168.819 44.771 168.885 44.6795C168.994 44.508 169.104 44.0279 169.202 43.2506C169.301 42.4732 169.312 42.0388 169.224 41.9474C169.06 41.9474 168.743 42.096 168.273 42.3818C167.814 42.679 167.551 42.839 167.496 42.8619C167.3 42.919 167.179 43.0219 167.136 43.1705C167.092 43.3192 167.048 43.7878 166.993 44.5766C166.961 45.1939 166.928 45.594 166.884 45.7884C166.84 45.9827 166.753 46.0856 166.611 46.1199C166.447 46.2113 166.283 46.1656 166.151 45.9827C166.009 45.8112 165.911 45.5369 165.856 45.1939C165.802 44.1994 165.823 42.8505 165.922 41.1586C166.02 39.4668 166.184 38.2893 166.403 37.6149L165.692 37.7063C165.331 37.7406 165.091 37.7406 164.992 37.7292C164.894 37.7177 164.774 37.6377 164.632 37.4891C164.347 37.1919 164.271 36.9175 164.402 36.6546C164.533 36.3917 164.828 36.2088 165.31 36.1288C165.67 36.0716 166.075 35.9573 166.512 35.7973C166.95 35.6372 167.289 35.4886 167.54 35.3629C167.792 35.2257 168.152 35.0314 168.634 34.7456C169.115 34.4712 169.388 34.2997 169.476 34.2426C169.585 34.2426 169.869 34.0368 170.317 33.6253C170.93 32.9851 171.411 32.8365 171.75 33.1794C171.859 33.3852 171.936 33.5567 171.958 33.7053C171.99 33.8539 171.958 33.9911 171.87 34.1283C171.783 34.2654 171.706 34.3683 171.641 34.4369C171.575 34.5055 171.455 34.6198 171.28 34.7684C171.116 34.917 170.995 35.0199 170.941 35.0771C170.438 35.4886 170.153 35.8773 170.099 36.2431C170.044 36.6089 170.208 36.9061 170.602 37.1462C170.941 37.2605 171.028 37.6491 170.853 38.2893C170.82 38.4379 170.733 40.004 170.58 42.9991C170.427 45.9941 170.274 48.3833 170.121 50.1552C169.968 51.927 169.782 53.1045 169.552 53.6532C169.465 53.8247 169.322 53.9504 169.115 54.0076C168.907 54.0647 168.743 54.0533 168.634 53.9618C168.491 53.8704 168.404 53.3788 168.382 52.4643C168.295 51.6413 168.349 51.024 168.524 50.5896C168.71 50.1666 168.809 49.5836 168.841 48.852C168.907 47.3316 168.907 46.5657 168.83 46.5657ZM168.59 40.3927C168.994 40.0383 169.093 39.764 168.863 39.5582C168.754 39.5239 168.546 39.6154 168.251 39.8211C167.956 40.0269 167.737 40.2327 167.595 40.4384C167.507 40.587 167.453 40.6899 167.431 40.7699C167.398 40.8385 167.387 40.9071 167.387 40.9414C167.387 40.9871 167.398 41.01 167.431 41.0329C167.464 41.0443 167.518 41.0557 167.595 41.0557C167.857 40.9643 168.185 40.7471 168.59 40.3927ZM167.901 38.1293C167.956 38.175 168.087 38.1521 168.284 38.0607C168.623 37.8549 168.71 37.592 168.535 37.2719C168.371 36.9175 168.185 36.8604 167.988 37.1004C167.879 37.2491 167.824 37.4663 167.824 37.7635C167.814 37.9578 167.846 38.0835 167.901 38.1293ZM182.269 46.8286C179.798 45.6283 178.037 44.851 176.998 44.4966C176.889 44.5538 176.638 44.8967 176.244 45.514C174.976 47.4802 173.97 48.4633 173.215 48.4633C172.821 48.4633 172.625 48.2118 172.625 47.7088C172.657 47.4688 172.876 47.2058 173.303 46.8972C173.729 46.5885 173.98 46.3599 174.057 46.2113C174.309 45.9141 174.637 45.4683 175.052 44.851C175.457 44.2337 175.664 43.9022 175.664 43.8336C175.664 43.7764 175.533 43.6164 175.282 43.3535C174.888 43.0562 174.79 42.7476 174.986 42.4046C175.183 42.0731 175.511 41.9245 175.96 41.9817C176.299 42.016 176.517 42.016 176.638 41.9817C176.747 41.9817 177.031 41.4787 177.479 40.4842C177.928 39.4896 178.157 38.8723 178.157 38.6323C178.157 38.2779 177.709 38.4265 176.812 39.0667C176.189 39.4782 175.763 39.6611 175.511 39.6154C175.26 39.5696 175.129 39.2953 175.129 38.8037C175.096 38.5408 175.194 38.2893 175.402 38.0493C175.61 37.8092 175.796 37.6606 175.949 37.5806C176.102 37.512 176.353 37.3977 176.681 37.2491C176.791 37.2262 177.02 37.1347 177.37 36.9861C177.72 36.8375 178.048 36.7118 178.343 36.6089C178.639 36.506 178.945 36.4374 179.273 36.3917C179.59 36.346 179.808 36.4146 179.929 36.586C180.016 36.6432 180.071 36.7346 180.115 36.8489C180.158 36.9633 180.18 37.089 180.18 37.2033C180.18 37.3176 180.169 37.4662 180.137 37.6491C180.104 37.8206 180.071 37.9807 180.027 38.1064C179.983 38.2436 179.94 38.3922 179.885 38.5637C179.83 38.7351 179.776 38.8837 179.743 38.9866C179.699 39.0895 179.655 39.2153 179.601 39.3639C179.546 39.5125 179.502 39.6039 179.47 39.6268C179.437 39.7411 179.284 40.004 179.01 40.4156C178.726 40.8271 178.573 41.1358 178.551 41.3415C178.518 41.3987 178.485 41.513 178.442 41.673C178.398 41.8331 178.376 41.9588 178.354 42.0503C178.332 42.1417 178.321 42.256 178.289 42.4046C178.256 42.5532 178.256 42.6561 178.267 42.7361C178.278 42.8047 178.31 42.8962 178.354 42.9991C178.398 43.102 178.464 43.1706 178.562 43.1934C178.66 43.2163 178.781 43.2391 178.923 43.2391C179.601 43.4106 180.443 43.7764 181.449 44.3137C182.466 44.8624 183.133 45.2053 183.471 45.354C183.635 45.4454 183.964 45.6169 184.445 45.8798C184.926 46.1427 185.352 46.3599 185.735 46.52C186.118 46.68 186.402 46.76 186.599 46.76C187.298 46.76 187.736 47.0001 187.9 47.4688C188.042 47.8231 188.031 48.1661 187.878 48.509C187.725 48.852 187.495 49.012 187.189 49.012C186.369 48.772 184.74 48.0289 182.269 46.8286Z" fill="#F7853A" stroke="#F7853A"/>
<path d="M202.948 60.6672C202.747 60.4323 202.505 60.0177 202.224 59.4097C202.117 59.1609 201.742 58.4976 201.085 57.4059C200.429 56.3281 200.067 55.6648 200 55.4022C200 55.264 200.161 55.0429 200.469 54.7665C200.777 54.5178 201.434 53.813 202.425 52.6384L203.926 50.9387L204.127 49.6673C204.234 49.0593 204.301 47.9814 204.354 46.4199C204.408 44.8584 204.448 43.9049 204.488 43.5456C204.448 43.1172 204.461 42.7855 204.515 42.5644C204.569 42.3295 204.528 42.2051 204.408 42.1913C204.287 42.1775 204.194 42.1775 204.127 42.219C204.06 42.2604 203.899 42.3433 203.631 42.4815C203.376 42.6197 203.122 42.7302 202.881 42.7993C201.956 43.2968 201.313 43.5317 200.965 43.4903C200.656 43.4212 200.442 43.3245 200.322 43.2001C200.201 43.0757 200.147 42.8684 200.147 42.5921C200.147 42.2742 200.295 41.9564 200.59 41.6386C200.884 41.3207 201.233 41.1135 201.648 41.0029C202.09 40.8647 202.72 40.5745 203.537 40.1185C204.341 39.6763 204.796 39.3585 204.904 39.1926C205.038 39.013 205.105 38.7642 205.105 38.4464C205.145 38.2668 205.185 37.9904 205.239 37.5896C205.292 37.2027 205.346 36.8434 205.399 36.5256C205.453 36.2077 205.52 35.8484 205.6 35.4615C205.681 35.0746 205.801 34.7567 205.935 34.508C206.069 34.2593 206.23 34.052 206.431 33.8723C206.619 33.6927 206.846 33.6236 207.128 33.6651C207.409 33.7065 207.731 33.8447 208.106 34.0935C208.655 34.4113 209.486 34.4666 210.584 34.2593C210.866 34.1902 211.026 34.1764 211.08 34.204C211.134 34.2455 211.187 34.3422 211.254 34.5218C211.214 35.1575 210.812 36.0557 210.035 37.1889C209.258 38.322 208.548 39.1235 207.891 39.5796C207.543 39.7868 207.288 40.0218 207.114 40.2429C206.94 40.464 206.806 40.7818 206.699 41.1687C206.592 41.5557 206.538 41.8873 206.525 42.1499C206.511 42.4124 206.485 42.9099 206.444 43.6423C206.404 44.3747 206.377 44.9689 206.337 45.4249C206.297 46.9174 206.351 47.7189 206.498 47.8433C206.632 47.9676 207.101 47.6221 207.891 46.8068C208.481 46.1988 209.07 45.6875 209.673 45.2591C210.276 44.8307 210.665 44.6511 210.839 44.7202C211.214 44.8584 210.892 45.4249 209.861 46.4199C209.486 46.7792 208.923 47.4149 208.186 48.3407C207.449 49.2666 206.967 49.8332 206.766 50.0405C206.525 50.1786 206.243 50.8696 205.908 52.1133C205.573 53.357 205.453 54.4072 205.52 55.2502C205.52 56.2451 205.44 57.1987 205.265 58.1245C205.064 59.1609 204.837 59.8933 204.595 60.3355C204.354 60.7777 204.046 60.9989 203.671 60.9989C203.403 61.0127 203.162 60.9021 202.948 60.6672ZM203.202 54.7251C203.095 54.7251 203.001 54.8494 202.894 55.0982C202.787 55.3884 202.733 55.6786 202.733 56.0102C202.733 56.3281 202.773 56.6044 202.867 56.8393C202.948 57.0743 203.068 57.171 203.202 57.1296C203.483 57.019 203.591 56.4801 203.564 55.4851C203.537 54.9738 203.416 54.7251 203.202 54.7251ZM208.829 35.2404C208.454 35.1713 208.213 35.1575 208.106 35.2128C207.999 35.2681 207.865 35.4753 207.69 35.8208C207.342 36.6361 207.342 37.0922 207.69 37.2027C207.798 37.2718 208.092 37.0507 208.588 36.5394C209.084 36.0281 209.338 35.6964 209.338 35.5583C209.338 35.4201 209.178 35.3095 208.829 35.2404ZM232.115 35.9037C232.356 36.0281 232.476 36.1801 232.476 36.3598C232.476 36.4703 232.235 36.8019 231.753 37.3685C231.271 37.9351 231.029 38.2529 231.029 38.322C230.614 39.8421 230.199 41.0167 229.797 41.832C229.515 42.2604 229.368 42.6888 229.355 43.131C229.341 43.5732 229.381 43.9463 229.489 44.2503C229.596 44.5543 229.743 44.9413 229.958 45.4249C230.172 45.9086 230.306 46.2264 230.373 46.4061C230.654 47.2214 230.922 47.636 231.204 47.636C231.485 47.636 231.914 48.1196 232.49 49.0731C233.28 50.4965 233.803 51.1874 234.044 51.146C234.245 51.146 234.339 50.5656 234.298 49.391C234.258 48.1196 234.499 47.636 235.022 47.9538C235.129 47.9953 235.223 48.0643 235.33 48.1611C235.397 48.2993 235.491 48.852 235.611 49.8193C235.732 50.7728 235.826 51.6296 235.893 52.3759L236 53.8683L235.437 54.4487C235.062 54.8356 234.727 55.0291 234.432 55.0291C234.138 55.0291 233.803 54.8218 233.428 54.3934C232.838 53.8268 232.235 52.9839 231.619 51.8646C231.003 50.7452 230.493 49.9575 230.118 49.5015C229.77 49.1837 229.448 48.7553 229.167 48.2302C228.872 47.6912 228.578 47.2905 228.269 47.0003C228.135 46.9312 228.015 46.9588 227.934 47.0832C227.854 47.2076 227.72 47.5392 227.546 48.0644C227.439 48.3822 227.238 48.7968 226.93 49.2942C226.622 49.7917 226.233 50.3583 225.764 50.994C225.295 51.6296 224.987 52.0718 224.813 52.3206C224.397 53.1083 223.955 53.7577 223.5 54.269C223.031 54.7803 222.669 55.0429 222.388 55.0429C222.039 55.0014 221.798 54.9047 221.638 54.7251C221.477 54.5454 221.41 54.2967 221.41 53.9788C221.41 53.661 221.423 53.3708 221.463 53.0944C221.49 52.8319 221.571 52.4864 221.664 52.0856C221.771 51.6849 221.838 51.4085 221.865 51.2565C221.999 50.8696 222.227 50.9249 222.535 51.4223C222.669 51.6296 222.79 51.7264 222.897 51.7125C223.004 51.6987 223.125 51.5191 223.259 51.2012C223.5 50.7452 223.969 49.9575 224.652 48.852C225.335 47.7465 225.804 46.7792 226.045 45.9224C226.086 45.7151 226.206 45.3697 226.407 44.9137C226.608 44.4576 226.715 44.0983 226.715 43.8496C226.608 43.1448 226.273 41.9702 225.71 40.3396C225.148 38.7089 224.706 37.6034 224.397 37.0369C224.33 36.6499 224.237 36.3597 224.116 36.1801C223.996 36.0005 223.848 35.9175 223.674 35.9175C223.5 35.9175 223.366 35.9452 223.259 36.0004C223.151 36.0557 222.977 36.1663 222.736 36.3183C222.495 36.4841 222.334 36.5808 222.267 36.6085C221.651 37.1474 220.901 37.7278 220.043 38.3635C219.186 38.9992 218.529 39.5104 218.087 39.9112C217.739 40.2014 217.23 40.5192 216.56 40.8647C215.89 41.2102 215.434 41.4036 215.193 41.4036C214.818 41.2931 214.456 41.0444 214.135 40.6574C213.8 40.2705 213.813 39.925 214.162 39.6486C214.443 39.3999 215.006 39.0821 215.863 38.6951C216.72 38.3082 217.31 37.9627 217.618 37.6864C217.859 37.5067 218.462 37.106 219.427 36.4841C220.392 35.8623 221.222 35.3095 221.932 34.812C222.642 34.3145 222.991 33.9829 222.991 33.8032C222.991 33.6651 222.937 33.444 222.83 33.1399C222.723 32.8359 222.656 32.601 222.629 32.4214C222.589 32.2417 222.629 31.9653 222.736 31.5646C222.803 30.7493 223.084 30.3347 223.594 30.3071C224.103 30.2794 224.598 30.5696 225.121 31.1362C225.322 31.3435 225.442 31.4955 225.456 31.5646C225.469 31.6337 225.429 31.7581 225.322 31.9377C225.121 32.2555 225.081 32.4352 225.215 32.4766C225.349 32.5181 225.536 32.4352 225.777 32.2693C227.05 31.4126 227.774 30.8736 227.948 30.6249C228.082 30.3071 228.336 30.155 228.725 30.1689C229.1 30.1827 229.288 30.4038 229.288 30.8322C229.395 31.0809 229.087 31.5369 228.363 32.1864C227.64 32.8497 227.05 33.3334 226.608 33.6512L225.992 34.0244L226.099 34.7706C226.273 35.9452 226.822 37.5896 227.747 39.7177C227.948 40.2429 228.135 40.2705 228.31 39.773C228.35 39.6625 228.377 39.5381 228.417 39.3999C228.792 38.1977 229.341 37.1751 230.065 36.3598C230.346 36.0696 230.547 35.9037 230.681 35.8208C230.815 35.7517 231.029 35.7103 231.297 35.7103C231.605 35.7103 231.873 35.7794 232.115 35.9037ZM233.026 24.6966C232.624 24.1715 232.342 23.8675 232.168 23.7845C231.994 23.674 231.673 23.4391 231.19 23.066C230.708 22.6928 230.279 22.4026 229.904 22.1815C229.422 21.9328 229.073 21.6703 228.846 21.4077C228.618 21.1451 228.457 20.772 228.35 20.316C228.243 19.8876 228.269 19.556 228.403 19.3072C228.604 18.6301 229.623 19.0723 231.445 20.6338C232.034 21.1728 232.369 21.4353 232.476 21.4353C233.133 21.8914 233.669 22.4856 234.098 23.1903C234.526 23.8951 234.714 24.5031 234.633 25.0006C234.633 25.1803 234.593 25.2908 234.526 25.3461C234.459 25.4014 234.298 25.429 234.057 25.429C233.776 25.4705 233.414 25.2217 233.026 24.6966Z" fill="#F7853A" stroke="#F7853A"/>
<path d="M257.252 27.2607C257.397 27.4344 257.457 27.6206 257.457 27.8068C257.457 28.3157 256.985 28.9735 256.053 29.7679C255.363 30.2768 254.382 31.369 253.11 33.0198C251.839 34.683 251.051 35.8746 250.773 36.6069C250.773 36.731 250.991 37.0537 251.427 37.5626C251.863 38.0715 252.299 38.779 252.735 39.6726C253.171 40.5663 253.401 41.2241 253.437 41.6337C253.498 41.9812 253.401 42.2295 253.159 42.3784C252.916 42.5274 252.65 42.5274 252.359 42.4032C252.141 42.3412 251.984 42.2047 251.875 41.9936C251.766 41.7826 251.512 41.1869 251.1 40.1939C250.918 39.7843 250.749 39.4988 250.616 39.3375C250.47 39.1761 250.216 38.9527 249.841 38.6672C249.501 38.4438 249.283 38.3197 249.187 38.2825C249.09 38.2452 248.956 38.2949 248.763 38.4314C248.266 38.6921 248.012 38.6052 248.012 38.1956C247.951 38.0715 248.121 37.7115 248.521 37.1157C248.92 36.5324 249.38 35.8745 249.901 35.1795C250.422 34.4844 250.712 34.0376 250.809 33.839C251.282 33.1067 252.323 31.6917 253.934 29.5817C254.212 29.1969 254.503 28.8742 254.793 28.6011C255.084 28.3281 255.435 28.055 255.823 27.7695C256.21 27.4841 256.525 27.2234 256.779 27C256.961 27 257.106 27.0869 257.252 27.2607ZM256.804 60.1275C256.368 59.5069 256.186 58.6877 256.247 57.6575C256.21 57.1486 256.343 56.9128 256.646 56.9376C256.937 56.9749 257.118 57.1611 257.179 57.5086C257.179 57.6079 257.179 57.6824 257.179 57.7444C257.022 58.4147 257.252 58.936 257.881 59.2959C258.499 59.6559 259.032 59.5566 259.468 58.9856C259.722 58.7001 259.916 58.3402 260.049 57.9058C260.182 57.4714 260.364 56.6894 260.582 55.5351C260.763 54.4553 260.86 52.8914 260.86 50.8434C260.86 48.423 260.751 47.1943 260.533 47.157C260.376 47.1198 260.097 47.4177 259.698 48.0134C259.577 48.1748 259.407 48.423 259.189 48.783C258.693 49.5525 257.954 50.8061 256.973 52.5562C255.992 54.3063 255.229 55.622 254.66 56.4784C254.382 56.9625 253.861 57.8313 253.098 59.0849C252.335 60.3385 251.826 61.195 251.584 61.6418C251.548 61.679 251.512 61.7411 251.439 61.828C251.282 62.0886 251.16 62.2748 251.064 62.3989C250.967 62.523 250.846 62.6596 250.688 62.8085C250.531 62.9575 250.385 63.0195 250.24 62.9947C250.095 62.9823 249.962 62.8954 249.841 62.734C249.683 62.5727 249.659 62.25 249.744 61.7783C249.84 61.5549 249.913 61.1205 249.949 60.4627C249.998 59.8048 250.107 59.2959 250.276 58.936C250.446 58.576 250.773 58.4519 251.233 58.576C251.451 58.6381 251.645 58.576 251.814 58.3898C251.984 58.2037 252.299 57.6451 252.771 56.7142C253.086 56.1681 253.413 55.6096 253.776 55.0138C254.127 54.4304 254.454 53.8719 254.757 53.363C255.048 52.8541 255.387 52.1715 255.762 51.3026C256.041 50.6944 256.368 50.1855 256.743 49.776C257.118 49.3291 257.651 48.4727 258.329 47.1943C259.008 45.9158 259.371 45.109 259.407 44.7615C259.468 44.1285 259.298 43.8058 258.899 43.8058C258.559 43.8058 257.906 44.8112 256.937 46.8219C256.343 48.001 255.907 48.7954 255.605 49.1926C255.302 49.5898 255.023 49.7884 254.745 49.7884C253.909 49.6022 253.825 49.0685 254.515 48.212C255.266 47.0329 255.932 45.6676 256.525 44.1037C256.743 43.5576 256.828 43.2224 256.779 43.0983C256.731 42.9742 256.525 42.9121 256.15 42.9121C255.895 42.9121 255.677 43.0114 255.496 43.1976C255.314 43.3838 255.06 43.7437 254.745 44.2526C254.37 44.9849 253.764 45.8786 252.928 46.9336C252.093 47.9886 251.5 48.8575 251.16 49.5649C250.7 50.4214 250.192 50.8434 249.671 50.8061C249.453 50.7689 249.32 50.7317 249.271 50.682C249.223 50.6324 249.187 50.4834 249.15 50.2228C249.211 49.7139 249.356 49.2671 249.574 48.8823C249.792 48.4975 250.131 48.0507 250.579 47.5418C251.027 47.0329 251.354 46.6481 251.536 46.3875C251.851 46.0027 252.141 45.6428 252.42 45.2828C252.795 44.7987 253.195 44.1409 253.607 43.2969C254.03 42.4529 254.236 41.8819 254.236 41.5965C254.236 41.2489 254.273 41.0131 254.357 40.9014C254.43 40.7897 254.612 40.6656 254.89 40.5415C255.169 40.4422 255.484 40.1319 255.823 39.5857C256.198 39.0768 256.392 38.7541 256.428 38.63C256.464 38.5059 256.368 38.3694 256.15 38.2452C256.029 38.2452 255.653 37.8605 255.036 37.1033C254.418 36.3338 254.055 35.9366 253.958 35.9118C253.619 35.6511 253.582 35.2664 253.837 34.7451C254.103 34.2238 254.37 33.9259 254.648 33.8638C254.769 33.8638 254.963 33.9879 255.205 34.2238C255.459 34.4596 255.605 34.6582 255.665 34.8195C255.726 35.0057 255.956 35.4153 256.368 36.0359C256.779 36.6565 257.022 36.9668 257.118 36.9668C257.179 37.0289 257.324 36.793 257.542 36.2469C257.663 35.9863 257.857 35.5022 258.099 34.7699C258.935 32.4737 259.516 31.2573 259.831 31.1332C260.642 30.4009 261.139 30.314 261.32 30.8974C261.478 31.2821 261.357 31.8407 260.945 32.573C260.109 34.1369 259.383 35.6139 258.777 36.9916C258.172 38.3818 257.53 39.685 256.84 40.889C256.9 41.1745 257.118 41.311 257.494 41.2986C257.869 41.2862 258.22 41.2365 258.572 41.1496C258.911 41.0752 259.189 41.1744 259.407 41.4599C260.025 42.0929 260.521 42.6391 260.872 43.0859C261.224 43.5327 261.563 44.1657 261.877 44.9973C262.192 45.8289 262.362 46.735 262.386 47.728C262.507 48.6837 262.568 49.8752 262.544 51.315C262.531 52.7548 262.471 53.6733 262.386 54.0953C262.289 54.4801 262.192 55.0014 262.083 55.6468C261.974 56.2922 261.853 56.9004 261.732 57.4341C261.393 58.8367 260.8 59.8793 259.964 60.5371C259.625 60.8226 259.201 60.9715 258.705 60.9715C257.881 61.046 257.239 60.7481 256.804 60.1275ZM267.751 35.8001C266.709 36.1476 266.14 36.3214 266.043 36.3214C265.704 36.3214 265.426 36.0483 265.208 35.5022C264.99 34.9933 265.002 34.621 265.256 34.3975C265.51 34.1741 266.055 34.0376 266.891 33.9631C267.702 33.9259 268.308 33.8142 268.707 33.628C269.083 33.5659 269.264 33.3301 269.24 32.9329C269.216 32.5357 269.143 32.1261 268.986 31.7165C268.828 31.307 268.889 30.9222 269.168 30.5747C269.543 30.2271 269.882 30.2519 270.197 30.6491C270.512 31.0463 270.693 31.4559 270.754 31.8655C270.814 32.151 270.899 32.3247 271.008 32.3868C271.117 32.4488 271.347 32.3992 271.686 32.2378C272.34 31.9151 272.825 31.9027 273.127 32.1882C273.382 32.3744 273.418 32.6226 273.273 32.9081C273.115 33.1936 272.788 33.4666 272.292 33.7273C271.795 34.0128 271.493 34.2734 271.384 34.5216C271.275 34.7699 271.25 35.2415 271.311 35.9863C271.371 36.8427 271.323 37.3764 271.166 37.5626C270.851 37.9722 270.475 38.0218 270.052 37.6867C269.616 37.3516 269.494 36.9668 269.676 36.52C269.797 35.6884 269.712 35.2788 269.398 35.2788C269.337 35.2788 268.792 35.4525 267.751 35.8001ZM270.5 56.8508C270.391 56.7887 270.282 56.6398 270.173 56.4163C270.064 56.1929 270.039 55.9074 270.1 55.5599C270.475 50.5827 270.657 47.0577 270.657 44.9849C270.693 43.7437 270.718 42.9866 270.754 42.7135C270.79 42.4405 270.863 42.2543 270.984 42.1674C271.541 41.8819 271.953 41.8695 272.219 42.1426C272.486 42.4156 272.679 43.0114 272.8 43.9299C272.861 44.2526 272.921 44.414 272.958 44.4388C273.006 44.4512 273.091 44.3892 273.212 44.2278C273.273 44.1285 273.333 44.0664 273.394 44.0416C273.648 43.632 274.399 43.1604 275.658 42.6515C276.918 42.1426 278.213 41.8199 279.558 41.6958C280.902 41.5716 281.955 41.8695 282.73 42.6018C283.287 43.2348 283.626 43.9051 283.735 44.5877C283.844 45.2704 283.881 46.6854 283.857 48.8202C283.796 50.9923 283.711 52.4569 283.626 53.2141C283.566 53.9215 283.59 54.4552 283.723 54.84L283.953 55.411L283.021 56.3667C282.403 56.9749 281.955 57.2976 281.689 57.3224C281.422 57.3596 280.962 57.1486 280.308 56.7018L279.376 56.0316L278.395 56.1309C277.269 56.1929 276.215 56.3915 275.222 56.7018C274.69 56.8632 274.314 56.9377 274.084 56.9128C273.854 56.9004 273.612 56.7887 273.357 56.6025C272.958 56.1929 272.897 55.7461 273.188 55.2868C273.479 54.8276 273.89 54.5918 274.423 54.5918C274.641 54.5545 274.823 54.5049 274.98 54.418C275.138 54.3435 275.271 54.2194 275.38 54.0581C275.489 53.8967 275.586 53.7602 275.658 53.6485C275.731 53.5368 275.804 53.3506 275.864 53.0775C275.925 52.8045 275.973 52.5935 276.009 52.4569C276.046 52.308 276.082 52.0721 276.155 51.737C276.215 51.4019 276.264 51.1661 276.3 51.042C276.336 50.5703 276.336 50.2724 276.324 50.1855C276.312 50.0986 276.24 50.0366 276.118 50.0366C275.84 50.1359 275.307 50.3717 274.508 50.7565C273.721 51.1413 273.2 51.3647 272.946 51.4267C272.885 51.7743 272.788 52.4445 272.667 53.4375C272.546 54.4304 272.413 55.2372 272.292 55.8702C272.255 56.0936 272.098 56.3543 271.807 56.6398C271.505 56.9252 271.275 57.0742 271.081 57.0742C270.802 56.9873 270.609 56.9128 270.5 56.8508ZM276.082 45.7793C276.082 45.5062 276.082 45.2952 276.082 45.1587C276.082 45.0098 276.058 44.8856 276.009 44.7739C275.961 44.6622 275.864 44.625 275.707 44.6498C275.549 44.687 275.343 44.7739 275.101 44.9353C274.702 45.1959 274.326 45.5931 273.999 46.1516C273.672 46.7102 273.466 47.2563 273.37 47.8024C273.248 48.572 273.248 48.994 273.37 49.0685C273.491 49.1429 273.914 49.0188 274.629 48.6589C275.38 48.3113 275.816 48.0259 275.961 47.8273C276.106 47.6163 276.155 47.1694 276.118 46.4619C276.094 46.2758 276.082 46.04 276.082 45.7793ZM274.726 33.268C274.665 32.8833 274.956 32.5854 275.61 32.362C275.864 32.2627 276.118 32.2006 276.409 32.1758C276.809 32.1385 277.148 32.1385 277.414 32.1758C277.681 32.213 277.983 32.213 278.322 32.1758C278.758 32.1137 279.013 32.0144 279.097 31.8903C279.17 31.7662 279.291 31.1828 279.449 30.1651C279.509 29.9789 279.57 29.7306 279.606 29.4452C279.654 29.1597 279.691 28.9735 279.727 28.8742C279.763 28.7749 279.8 28.6508 279.848 28.4894C279.897 28.3281 279.945 28.2164 280.006 28.1295C280.066 28.055 280.163 27.9681 280.284 27.8688C280.405 27.7695 280.563 27.6827 280.756 27.5834C281.071 27.3972 281.289 27.2855 281.41 27.2731C281.531 27.2607 281.689 27.3227 281.883 27.4841C282.137 27.7447 282.04 28.3157 281.604 29.2093C281.289 29.7555 281.059 30.314 280.902 30.8849C280.744 31.4559 280.72 31.7786 280.805 31.8407C280.769 31.9648 281.507 31.9151 282.997 31.6917C285.891 31.2449 287.332 31.0339 287.332 31.0711C287.707 31.1332 287.925 31.3566 287.986 31.7414C288.046 32.1261 287.913 32.4737 287.562 32.7964C287.344 33.057 287.09 33.1812 286.787 33.206C286.496 33.2184 286.206 33.1811 285.951 33.0819C285.685 32.9826 285.334 33.0074 284.898 33.1315C284.741 33.1687 284.292 33.2308 283.566 33.3177C282.839 33.4046 282.137 33.5287 281.471 33.6528C280.805 33.7769 280.417 33.8762 280.333 33.9383C280.212 34.0624 280.03 34.4596 279.824 35.1298C279.57 36.0856 279.279 36.8179 278.94 37.3019C278.601 37.7984 278.286 37.997 278.008 37.8977C277.632 37.7736 277.608 37.3516 277.911 36.6565C278.092 36.2097 278.274 35.7008 278.419 35.1298C278.577 34.5217 278.577 34.1617 278.443 34.05C278.298 33.9383 277.753 33.8886 276.784 33.8886C275.477 34.0128 274.786 33.8018 274.726 33.268ZM280.793 46.2758C280.853 46.4371 280.902 46.5737 280.938 46.7102C280.962 46.8343 280.962 46.9584 280.938 47.0701C280.902 47.1818 280.878 47.2687 280.841 47.3308C280.805 47.3929 280.744 47.4673 280.635 47.5418C280.526 47.6163 280.442 47.6783 280.381 47.7031C280.32 47.7404 280.199 47.8024 280.006 47.8893C279.812 47.9762 279.679 48.0631 279.582 48.1252C278.807 48.572 278.371 48.8699 278.298 49.0064C278.226 49.1553 278.104 49.7511 277.947 50.8061C277.947 51.2157 277.85 51.8115 277.668 52.581C277.487 53.3506 277.378 53.8471 277.342 54.0705C277.438 54.1325 278.177 54.1822 279.582 54.2194C280.635 54.2567 281.265 54.2567 281.447 54.2442C281.628 54.2318 281.774 54.145 281.871 53.9836C282.125 53.5988 282.222 51.6129 282.197 48.001C282.197 46.3378 282.149 45.32 282.052 44.9104C281.955 44.5133 281.653 44.1409 281.12 43.781C280.902 43.5576 280.635 43.421 280.308 43.3714C279.981 43.3217 279.751 43.3093 279.606 43.3217C279.461 43.3341 279.134 43.4086 278.601 43.5327C278.262 43.632 278.056 43.7189 277.995 43.7934C277.935 43.8679 277.886 44.0416 277.85 44.2899C277.79 44.7367 277.777 45.2828 277.826 45.9158C277.874 46.5488 277.947 46.884 278.032 46.9212C278.153 46.9584 278.419 46.8219 278.831 46.5364C279.388 46.0896 280.042 45.9903 280.793 46.2758Z" fill="#F7853A" stroke="#F7853A"/>
<path d="M121.243 84.224C119.643 84.224 118.075 83.616 116.923 82.512L118.283 80.88C119.115 81.664 120.251 82.176 121.291 82.176C122.523 82.176 123.163 81.648 123.163 80.832C123.163 79.952 122.443 79.664 121.387 79.216L119.803 78.544C118.619 78.064 117.403 77.088 117.403 75.376C117.403 73.44 119.115 71.952 121.499 71.952C122.875 71.952 124.251 72.496 125.211 73.472L124.027 74.96C123.259 74.336 122.475 73.984 121.499 73.984C120.459 73.984 119.803 74.448 119.803 75.216C119.803 76.064 120.651 76.384 121.659 76.784L123.211 77.424C124.635 78.016 125.579 78.944 125.579 80.64C125.579 82.576 123.963 84.224 121.243 84.224ZM132.683 84.224C130.171 84.224 128.219 82.496 128.219 79.536C128.219 76.624 130.267 74.832 132.379 74.832C134.859 74.832 136.123 76.624 136.123 79.104C136.123 79.552 136.075 79.968 136.027 80.192H130.491C130.699 81.664 131.659 82.416 132.987 82.416C133.707 82.416 134.347 82.192 135.003 81.792L135.787 83.248C134.907 83.856 133.787 84.224 132.683 84.224ZM130.459 78.624H134.123C134.123 77.408 133.579 76.64 132.427 76.64C131.483 76.64 130.651 77.312 130.459 78.624ZM141.236 84.224C139.636 84.224 138.596 83.104 138.596 81.568C138.596 79.664 140.148 78.656 143.748 78.256C143.7 77.376 143.332 76.72 142.228 76.72C141.396 76.72 140.58 77.072 139.764 77.568L138.916 76C139.972 75.36 141.236 74.832 142.66 74.832C144.932 74.832 146.1 76.176 146.1 78.784V84H144.18L144.004 83.056H143.94C143.156 83.728 142.26 84.224 141.236 84.224ZM142.004 82.384C142.676 82.384 143.172 82.08 143.748 81.52V79.712C141.556 79.984 140.836 80.576 140.836 81.392C140.836 82.08 141.316 82.384 142.004 82.384ZM149.777 84V75.056H151.681L151.873 76.64H151.921C152.561 75.456 153.537 74.832 154.465 74.832C154.945 74.832 155.233 74.896 155.505 75.024L155.105 77.04C154.785 76.96 154.545 76.896 154.161 76.896C153.473 76.896 152.625 77.376 152.129 78.672V84H149.777ZM161.568 84.224C159.104 84.224 157.216 82.496 157.216 79.536C157.216 76.56 159.344 74.832 161.776 74.832C162.896 74.832 163.728 75.248 164.384 75.824L163.28 77.328C162.832 76.944 162.4 76.752 161.92 76.752C160.528 76.752 159.616 77.84 159.616 79.536C159.616 81.216 160.544 82.32 161.824 82.32C162.48 82.32 163.088 82 163.584 81.6L164.512 83.152C163.664 83.888 162.56 84.224 161.568 84.224ZM167.493 84V71.248H169.845V74.464L169.733 76.144C170.437 75.472 171.333 74.832 172.549 74.832C174.469 74.832 175.317 76.176 175.317 78.416V84H172.965V78.72C172.965 77.312 172.565 76.848 171.701 76.848C170.965 76.848 170.501 77.2 169.845 77.84V84H167.493ZM184.104 84V72.16H191.4V74.128H186.472V77.232H190.68V79.2H186.472V84H184.104ZM197.905 84.224C195.649 84.224 193.601 82.496 193.601 79.536C193.601 76.56 195.649 74.832 197.905 74.832C200.145 74.832 202.193 76.56 202.193 79.536C202.193 82.496 200.145 84.224 197.905 84.224ZM197.905 82.32C199.121 82.32 199.793 81.216 199.793 79.536C199.793 77.84 199.121 76.752 197.905 76.752C196.673 76.752 196.001 77.84 196.001 79.536C196.001 81.216 196.673 82.32 197.905 82.32ZM205.457 84V75.056H207.361L207.553 76.64H207.601C208.241 75.456 209.217 74.832 210.145 74.832C210.625 74.832 210.913 74.896 211.185 75.024L210.785 77.04C210.465 76.96 210.225 76.896 209.841 76.896C209.153 76.896 208.305 77.376 207.809 78.672V84H205.457ZM218.818 84V72.16H221.426L223.442 77.712C223.714 78.448 223.922 79.216 224.178 79.984H224.242C224.514 79.216 224.722 78.448 224.962 77.712L226.93 72.16H229.554V84H227.394V79.056C227.394 77.936 227.586 76.288 227.714 75.168H227.634L226.658 77.952L224.834 82.944H223.474L221.65 77.952L220.69 75.168H220.626C220.754 76.288 220.93 77.936 220.93 79.056V84H218.818ZM237.451 84.224C234.939 84.224 232.987 82.496 232.987 79.536C232.987 76.624 235.035 74.832 237.147 74.832C239.627 74.832 240.891 76.624 240.891 79.104C240.891 79.552 240.843 79.968 240.795 80.192H235.259C235.467 81.664 236.427 82.416 237.755 82.416C238.475 82.416 239.115 82.192 239.771 81.792L240.555 83.248C239.675 83.856 238.555 84.224 237.451 84.224ZM235.227 78.624H238.891C238.891 77.408 238.347 76.64 237.195 76.64C236.251 76.64 235.419 77.312 235.227 78.624ZM247.868 84.224C245.612 84.224 243.564 82.496 243.564 79.536C243.564 76.56 245.612 74.832 247.868 74.832C250.108 74.832 252.156 76.56 252.156 79.536C252.156 82.496 250.108 84.224 247.868 84.224ZM247.868 82.32C249.084 82.32 249.756 81.216 249.756 79.536C249.756 77.84 249.084 76.752 247.868 76.752C246.636 76.752 245.964 77.84 245.964 79.536C245.964 81.216 246.636 82.32 247.868 82.32ZM256.673 84L254.369 75.056H256.705L257.697 79.472C257.857 80.352 257.969 81.2 258.129 82.08H258.209C258.369 81.2 258.529 80.336 258.753 79.472L259.841 75.056H261.921L263.041 79.472C263.249 80.352 263.425 81.2 263.617 82.08H263.697C263.857 81.2 263.969 80.352 264.145 79.472L265.105 75.056H267.297L265.073 84H262.305L261.361 80.096C261.169 79.264 261.025 78.448 260.849 77.488H260.769C260.609 78.448 260.465 79.264 260.273 80.112L259.361 84H256.673Z" fill="#FAAD7B"/>
</svg>
