<?xml version="1.0" encoding="UTF-8"?>
<svg id="bg" xmlns="http://www.w3.org/2000/svg" viewBox="0 0 332.15 80">
  <defs>
    <style>
      .cls-1 {
        fill: none;
        stroke: #f0cb9c;
        stroke-dasharray: 0 6;
        stroke-linecap: round;
        stroke-miterlimit: 10;
        stroke-width: 2px;
      }

      .cls-2 {
        fill: #f8eae1;
      }

      .cls-3 {
        fill: #eaddd5;
      }

      .cls-4 {
        fill: #eea77d;
      }

      .cls-5 {
        fill: #655142;
      }

      .cls-6 {
        fill: #7d727a;
      }

      .cls-7 {
        fill: #241914;
      }

      .cls-8 {
        fill: #5c4c43;
      }
    </style>
  </defs>
  <g>
    <path class="cls-2" d="m230.89,58.04c.18.13.36.28.52.45.11.12.23.25.34.41.41.25.81.5,1.21.76,1.23.81,2.29,1.8,3.27,2.85.77.83,1.55,1.65,2.41,2.39.38.33.75.66,1.27.75.29.05.45.27.65.46.39.38.71.82,1.01,1.28.66.98,1.3,1.97,2.05,2.87.79.95,1.47,1.95,1.92,3.1.16.42.41.82.71,1.15.34.37.63.76.92,1.17.45.63,1.12.75,1.79.35.27-.16.61-.31.67-.64.14-.69.61-1.34.24-2.09-.28.06-.49.22-.67.43-.47.58-1.05.59-1.73.42-.54-.13-.87-.43-1.14-.88-.86-1.49-1.79-2.93-2.59-4.47-1.21-2.33-2.78-4.46-4.29-6.61-.1-.15-.23-.28-.37-.4-1.43-1.26-2.98-2.37-4.65-3.3-1.54-.85-3.14-1.6-4.78-2.22-.51-.19-1.04-.45-1.61-.4,1.14.38,2.16,1.16,2.81,2.15Z"/>
    <path class="cls-2" d="m196.89,40.13c1.09.31,1.9,1.06,2.59,1.9,1.29,1.58,2.5,3.22,3.56,4.97.3.5.54,1.05.71,1.61.36,1.21-.21,2.16-1.44,2.48-.49.13-.98.18-1.48.06-.4-.09-.79-.19-1.19-.28-.03.23-.01.46.19.62.25.19.51.38.79.53.83.46,1.75.75,2.58,1.17.83.42,1.68.42,2.5.36,2.23-.16,2.22-.21,4.17-1.4.12-.07.23-.15.35-.21,1.06-.51,2.09-1.09,3.32-1.09.55,0,1.08-.11,1.58-.34.37-.17.78-.28,1.19-.2.67.14,1.36.24,1.98.49,1.39.55,2.7,1.29,3.9,2.18,1.38,1.03,2.84,1.91,4.38,2.65.16,0,.31,0,.47.02-.12-.58-.25-1.15-.38-1.73-.23-.97.15-1.43,1.09-1.23,1.19.25,2.39.5,3.56.84,1.33.38,2.67.42,4.02.26.77-.09,1.49-.15,2.2.31.32.21.77.23,1.17.31.45.09.86.26,1.21.56.6-.35,1.18-.05,1.68.19,1.62.8,3.21,1.67,4.8,2.52,1.12.6,2.2,1.26,3.34,1.8.5.23.96.49,1.38.84.8.67,1.6,1.34,2.41,2.01.75.62,1.58,1.06,2.55,1.19.89.12,1.77-.6,1.77-1.45,0-.68-.48-1.06-.98-1.37-.26-.16-.61-.19-.88-.35-.36-.21-.68-.48-.55-.98.22-.81-.23-1.36-.85-1.68-1.5-.8-2.64-2.06-4.06-2.96-.76-.49-1.45-1.08-2.17-1.63-.39-.31-.74-.65-1.07-1.03-1.06-1.23-1.83-2.7-3.01-3.84-.27-.26-.4-.61-.31-1-.78-.06-1.25-.47-1.42-1.23-.08-.33-.27-.58-.68-.51-.43.08-.71-.2-.92-.48-.66-.86-1.29-1.75-1.92-2.63-.38-.53-.5-1.14-.57-1.79-.06-.53.12-.89.47-1.19.24-.21.51-.38.8-.52,2.91-1.36,5.81-2.73,8.73-4.05.48-.22.97-.48,1.54-.5.21,0,.44-.1.64-.2.7-.38,1.44-.52,2.22-.56,1.62-.08,3.25-.03,4.87.04.95.04,1.88.19,2.83.23.94.04,1.89.18,2.82.3,1.3.18,2.59.3,3.91.17.64-.06,1.26-.17,1.87-.34,2.4-.67,4.74-1.5,7.03-2.5,1.68-.73,3.17-1.76,4.71-2.72.78-.48,1.31-1.25,1.94-1.89,1.04-1.07,2-2.21,2.78-3.5.16-.27.42-.48.59-.74.55-.83,1.31-1.06,2.25-.87-.04-.31-.1-.61-.12-.92,0-.22.06-.48.26-.58.53-.27.84-.73,1.16-1.2.08-.12.3-.15.46-.22.05-.32.15-.63.46-.78.85-.41,1.74-.7,2.67-.84.17-.02.35.06.52.1,1.3-.76,2.69-1.27,4.19-1.49.56-.42,1.17-.61,1.86-.43.35-.31.76-.32,1.19-.19.56-.15,1.12-.33,1.71-.15.47-.29.96-.37,1.48-.17.19-.11.38-.22.57-.33.46-.27.88-.3,1.34.05.24.18.56.25.84.36.11-.07.22-.15.33-.22.96-.52,2.01-.41,3.04-.43.5,0,1,.05,1.49.02.55-.03.94-.31,1.09-.87.12-.44.24-.88.3-1.33.1-.8-.16-1.17-.91-1.61-.52-.31-1.06-.49-1.64-.64-1.58-.4-3.18-.7-4.81-.84-.33-.03-.64,0-.94.09-.7.19-1.39.4-2.09.61-1.75.53-3.56.68-5.38.77-1.3.06-2.62.32-3.91-.14-.12-.04-.28-.07-.4-.04-.65.13-1.26-.09-1.88-.23-.89-.2-1.77-.44-2.66-.61-1.13-.21-2.16-.63-3.16-1.19-.71-.39-1.4-.85-2.25-.92.1.43.51.63.75.95.49.67.34,1.53-.43,1.81-.62.23-.82.59-.93,1.18-.16.84-.27,1.71-.8,2.44-.22.29-.39.64-.67.85-1.74,1.36-3.61,2.41-5.93,2.43-1.41,0-2.8-.07-4.21-.17-1.54-.12-3.09.04-4.6.31-1.16.21-2.31.5-3.45.81-1.14.32-2.24.74-3.25,1.37-1.08.67-2.19,1.3-3.25,2-2.09,1.37-4.29,2.56-6.47,3.78-3.36,1.87-6.97,3.08-10.77,3.68-.63.1-1.25.23-1.88.34-2.83.49-5.69.52-8.54.43-1.58-.05-3.18-.23-4.69-.76-2.16-.76-4.17-1.76-5.6-3.67-1.03-1.37-2.19-2.66-3.29-3.99-.74-.13-1.44-.16-1.83.67.79.2,1.28.82,1.83,1.33,1.21,1.12,2.07,2.47,2.78,3.98.61,1.31,1.26,2.6,1.77,3.96.75,2.01,1.24,4.07,1.52,6.19.14,1.03.28,2.06.28,3.11,0,.6-.15,1.17-.34,1.73-.11.31-.43.47-.77.43-.4-.04-.76-.31-.74-.67.1-2-.68-3.83-1.02-5.74-.17-.95-.59-1.81-.96-2.68-.32-.76-.97-1.3-1.49-1.93-1.28-1.55-2.88-2.75-4.44-4-.52-.42-1.07-.73-1.84-.67-.92.06-1.21-.31-1.28-1.37-.02-.35.12-.71.18-1.07-.78.13-1.56.25-2.34.38-.2.03-.27.21-.35.37.46.43.99.77,1.1,1.49.16.94.39,1.87-.03,2.8-.68,1.53-.65,3.1-.17,4.66.26.85.29,1.68.06,2.54-.38,1.4-1.25,2.29-2.66,2.63-1.33.32-2.64.19-3.86-.36-.66-.3-1.39-.42-2-.85-.3-.21-.68-.24-1.05-.15-.97.22-1.96.42-2.7,1.18-.1.1-.23.13-.36.04.7.52,1.52.75,2.34.98Z"/>
    <path class="cls-2" d="m205.41,42.93c.47-.23.93-.28,1.42,0,.75.41,1.53.78,2.29,1.18.59.32.85.92,1.13,1.47.18.35-.02.7-.31.96-.53.47-1.15.74-1.85.71-.72-.02-1.44-.12-1.9-.16-.3-.07-.34-.08-.38-.09-.82-.21-1.58-.51-1.77-1.45-.17-.87.56-2.22,1.38-2.62Z"/>
    <path class="cls-3" d="m283.28,7.38c.1.43.51.63.75.95.49.67.34,1.53-.43,1.81-.62.23-.82.59-.93,1.18-.16.84-.27,1.71-.8,2.44-.22.29-.39.64-.67.85-1.74,1.36-3.61,2.41-5.93,2.43-1.41,0-2.8-.07-4.21-.17-1.54-.12-3.09.04-4.6.31-1.16.21-2.31.5-3.45.81-1.14.32-2.24.74-3.25,1.37-1.08.67-2.19,1.3-3.25,2-2.09,1.37-4.29,2.56-6.47,3.78-3.36,1.87-6.97,3.08-10.77,3.68-.63.1-1.25.23-1.88.34-2.83.49-5.69.52-8.54.43-1.58-.05-3.18-.23-4.69-.76-2.16-.76-4.17-1.76-5.6-3.67-1.03-1.37-2.19-2.66-3.29-3.99.06-.21.1-.43.17-.64.15-.42.5-.75.89-.68.69.12,1.04-.35,1.52-.62.51.17.98.2,1.36-.28.08-.1.21-.18.33-.24.19-.09.41-.01.42.18.03.64.36,1.14.74,1.58.88,1.04,1.75,2.08,2.45,3.26.26.44.64.76,1.13.95.58.22.99-.05.99-.69,0-.18,0-.38-.09-.53-.63-1.07-.87-2.28-1.28-3.44-.16-.46-.47-.88-.74-1.3-.14-.21-.37-.24-.6-.1-.11.07-.2.18-.32.25-.27.16-.57.06-.63-.23-.09-.49-.16-.98-.23-1.48-.03-.2.05-.37.22-.47.75-.44,1.35-1.06,1.98-1.66.35-.33.75-.49,1.25-.37.44.11.87.24,1.34.15.19-.04.34.1.45.25.15.23.3.46.45.69.19.29.44.48.8.38.39-.11.57.11.79.36.66.75,1.23,1.57,1.78,2.41.13.2.36.29.6.18.23-.11.3-.35.26-.58-.03-.22-.11-.45-.23-.63-.51-.7-1.02-1.39-1.57-2.05-.26-.31-.59-.57-1.07-.44-.26.07-.41-.06-.47-.34-.19-.87-.2-.87-.65-1.45,1.07-.61,2.17-1.13,3.3-1.57.25-.1.42.02.55.25.18.33.47.71.81.65.76-.14.9.42,1.21.84.27.35.59.65.93.94.49.43,1.08.82,1.39,1.44.08.16.2.31.33.43.22.21.47.24.74.08.24-.15.29-.42.11-.71-.12-.19-.25-.4-.42-.53-.48-.34-.97-.66-1.03-1.32-.82-.59-.98-1.71-1.84-2.28-.17-.11-.1-.48.09-.59.76-.43,1.64-.52,2.44-.84.09-.03.28.06.35.15.27.37.53.74.75,1.14.39.71.74,1.45,1.13,2.17.34.64.8,1.21,1.02,1.92.08.26.24.5.49.63.11.05.28.07.38.02.1-.05.21-.19.22-.31.05-.37-.06-.74-.25-1.04-.79-1.28-1.36-2.67-2.03-4-.39-.77-.92-1.46-1.72-1.88.99-.51,2.03-.77,3.16-.66.09.09.24.17.27.29.13.49.42.79.92.87.37.06.48.35.62.64.27.55.32,1.25,1,1.54.06.02.09.16.09.24.02.38.26.52.58.65.86.34,1.55.84,1.86,1.81.27.83,1.04,1.34,1.58,2.01.05.07.26.06.38.02.2-.06.24-.26.23-.44,0-.13-.06-.27-.13-.38-.49-.77-.92-1.56-1.28-2.39-.18-.4-.4-.82-.83-1.05-.16-.09-.32-.2-.32-.4.02-.65-.44-1.07-.73-1.58-.17-.3-.24-.58.02-.87.24-.28.22-.59.04-.88-.22-.35-.08-.7-.06-1.06,1.41-.23,2.81-.46,4.22-.67.61-.09,1.22-.25,1.85-.12.14.13.24.28.21.47-.11.64.09,1.07.77,1.2.54.1.72.5.8.97.04.22.04.45.02.67-.11,1.15.52,2.07.95,3.05.02.04.07.05.1.08.12.11.4.02.45-.14.04-.13.1-.26.1-.39-.02-.61-.39-1.24.13-1.82.06-.07.01-.27-.02-.39-.14-.48-.28-.96-.44-1.43-.09-.26-.26-.48-.33-.74-.09-.34.34-.35.45-.61.15-.34-.05-.61-.11-.93.39-.09.78-.14,1.19-.08,1.28.16,1.4.27,1.99,1.48.19.38.31.74.21,1.16-.05.21-.06.47.01.67.31.9.61,1.8,1.17,2.58.05.07.12.15.2.18.12.04.27.09.39.05.19-.05.31-.25.26-.42-.14-.47-.28-.96-.53-1.39-.38-.66-.51-1.38-.46-2.1.07-.87-.05-1.71-.08-2.57.52-.25,1.08-.1,1.61-.14.58-.05,1.18,0,1.77,0-.18.64.28,1.08.45,1.61.15.47.27.84.77,1,.24.08.37.27.33.52-.11.75.46.75.93.86-.42,1-.02,1.96.2,2.91.11.46.49.72.76.58.23-.12.35-.5.25-.85-.04-.13-.08-.26-.16-.37-.23-.36-.26-.74-.22-1.16.07-.76.04-.77-.84-1.1.28-.66.58-1.32.21-2.04-.02-.03,0-.09,0-.13.1-.46-.06-.8-.49-1-.24-.12-.28-.33-.26-.57,1.44.04,2.89.08,4.33.11.27.15.34.41.39.68.17.75.32,1.5.48,2.25.04.17.07.35.15.51.08.17.25.25.45.24.22,0,.34-.15.38-.32.05-.21.04-.44.03-.67-.03-1-.39-1.94-.56-2.92,1.09-.38,2.18-.76,3.28-1.12.38-.12.77-.25,1.18-.11,0,.44-.27.76-.46,1.12-.13.25-.18.55.07.75.71.6,1.23,1.32,1.57,2.19.04.09.21.17.33.18.2.02.33-.13.4-.3.13-.35.21-.73-.04-1.04-.52-.64-.29-1.16.2-1.67.29-.31.39-.71.46-1.12,1.22.27,2.44.5,3.65.81.64.16,1.25.45,1.87.68-.09.48-.14.96-.62,1.28-.37.24-.43.67-.39,1.08,0,.1.15.23.26.26.1.03.27-.01.36-.08.09-.08.17-.22.19-.34.1-.57.3-1.03,1-1,.04,0,.08-.04.12-.06.24-.13.3-.5.08-.68-.24-.19-.53-.33-.79-.49.43-.26.85-.25,1.28.02.38.25.78.47,1.17.7Zm-23.68,10.27c.02-.12.06-.21.05-.3-.12-.99-.52-1.9-.99-2.76-.1-.19-.4-.17-.61-.04-.17.1-.3.26-.24.44.33.97.73,1.92.87,2.95,0,.04.05.07.08.1.17.21.57.18.69-.05.06-.12.11-.25.15-.34Zm-5.74-3.82c-.01.06-.07.16-.05.23.28.75.54,1.51.71,2.3.05.23.28.34.54.3.2-.03.33-.18.34-.37.03-.97-.15-1.87-.83-2.61-.17-.18-.6-.1-.71.15Zm18.75-3.72c.03.32.05.73.12,1.12.04.23.21.41.49.36.24-.04.45-.2.46-.43.02-.4-.01-.81-.07-1.21-.04-.23-.22-.4-.49-.36-.24.04-.4.2-.5.52Zm-46.88,9.22c.08-.03.19-.03.24-.08.35-.36.37-.97.05-1.34-.19-.22-.57-.19-.68.05-.21.45-.13.87.15,1.27.04.06.16.07.24.1Zm2.61,3.96c.17.03.48-.21.47-.38-.02-.43-.22-.76-.62-.93-.17-.07-.36-.03-.45.16-.19.41.16,1.08.59,1.15Zm22.98-5c.22.07.58-.21.54-.44-.06-.36-.21-.66-.55-.84-.19-.1-.5.02-.54.21-.1.41.18.95.55,1.07Zm-4.28.34c-.05.45.17.77.51,1.01.08.06.26.02.37-.02.18-.06.29-.24.25-.42-.08-.35-.25-.66-.61-.82-.19-.08-.5.06-.53.26Zm22.26-6.54c.1-.43-.01-.7-.31-.75-.31-.04-.62.17-.7.48-.09.36.17.78.51.79.34.01.43-.26.5-.52Zm-33.36,8.87c-.08.35.16.57.37.79.14.14.33.18.49.1.22-.1.3-.32.27-.56-.04-.39-.72-.68-1.06-.45-.03.02-.05.07-.08.12Zm-10.21,4.84c-.05.28.19.61.48.62.23,0,.51-.26.54-.5.02-.24-.2-.46-.52-.49-.24-.02-.43.05-.5.37Zm32.37-7.18c-.19-.02-.36,0-.43.21-.06.19-.03.35.16.45.21.11.49-.01.52-.24.03-.2-.06-.35-.25-.42Z"/>
    <path class="cls-3" d="m243.95,47.23c-.78-.06-1.25-.47-1.42-1.23-.08-.33-.27-.58-.68-.51-.43.08-.71-.2-.92-.48-.67-.86-1.29-1.75-1.92-2.63-.38-.53-.5-1.14-.57-1.79-.06-.53.12-.89.47-1.19.24-.21.51-.38.8-.52,2.91-1.36,5.81-2.73,8.73-4.05.48-.22.97-.48,1.54-.5.22,0,.44-.1.64-.2.7-.38,1.44-.52,2.22-.56,1.62-.08,3.25-.03,4.87.04.95.04,1.88.19,2.83.23.94.04,1.89.18,2.82.3,1.3.18,2.59.3,3.91.17.64-.06,1.26-.17,1.87-.34,2.4-.67,4.74-1.5,7.03-2.5,1.68-.73,3.17-1.76,4.71-2.72.78-.48,1.31-1.25,1.94-1.89,1.04-1.07,2-2.21,2.78-3.5.16-.27.42-.48.59-.74.55-.83,1.31-1.06,2.25-.87.81.07,1.61.18,2.43.07.06.07.1.18.17.2,1.02.39,2.09.62,3.16.77,1.11.16,2.24.2,3.36.3.26.49.65.64,1.22.64.76,0,1.56.07,1.89,1.02.08.22.42.33.6.53.39.43.43,1,.14,1.52-.12.21-.33.4-.54.35-.99-.22-1.98.1-2.98-.02-.89-.11-1.79-.22-2.69-.3-.81-.07-1.63-.01-2.43-.12-1.22-.15-2.44-.04-3.66-.02-.66.01-1.23.24-1.78.59-1.15.73-2.32,1.44-3.47,2.17-.27.17-.54.35-.77.56-1.35,1.28-2.86,2.36-4.44,3.35-.65.41-1.35.74-1.89,1.33-.17.19-.45.33-.7.4-.4.12-.75.33-1.1.54-.81.5-1.63.97-2.51,1.35-2.19.94-4.42,1.64-6.83,1.57-1.53-.04-3.08.11-4.6-.16-.73.2-1.44-.23-2.16-.06-.8.19-1.6.31-2.42.38-.76.06-1.31.6-1.91.99-.56.36-1.29.53-1.53,1.27-.26.33-.62.52-.99.69-2.22,1.03-4.26,2.33-6.08,3.97-.63.57-1.32,1.08-1.98,1.62Z"/>
    <path class="cls-3" d="m207.19,25.75c.5.44,1.08.79,1.22,1.52.19.95.45,1.88.02,2.81-.7,1.52-.64,3.1-.1,4.68.3.86.35,1.69.11,2.56-.38,1.4-1.3,2.28-2.82,2.59-1.43.3-2.84.15-4.18-.43-.72-.31-1.51-.45-2.17-.9-.32-.22-.74-.25-1.14-.17-1.05.21-2.11.39-2.9,1.13-.11.1-.24.12-.39.04-1.05.93-1.14,2.09-.77,3.35.18.61.31,1.25.63,1.81.28.5.28.93.12,1.41-.27-.11-.59-.17-.81-.33-.48-.36-1-.59-1.6-.71-.83-.17-1.59-.56-2.26-1.03-1.07-.76-2.13-1.54-3.05-2.47-.14-.14-.28-.27-.4-.42-.53-.69-.36-1.47.44-1.83.78-.36,1.62-.65,2.5-.68,1.06-.03,1.96-.49,2.96-.7.32-.06.49-.29.54-.57.23-1.21,1.06-2.22,1.15-3.48.02-.3.24-.58.36-.88.15-.38.28-.77.44-1.14.36-.81.15-1.46-.56-2.09-.83-.74-1.48-1.63-2.04-2.56-.25-.41-.61-.72-.96-1.06-.89-.87-.59-2.16.63-2.32,1.73-.23,3.41-.7,5.19-.65,2.09.05,4.08.59,6.04,1.26.42.14.82.34,1.25.43.87.2,1.69.51,2.51.84Z"/>
    <path class="cls-6" d="m227.03,55.65c.36.04.69.58,1.04.7.57-.05,1.26.94,1.77,1.13,1.65.62,1.59,1.32,3.13,2.17,1.67.93,2.99,3.37,4.43,4.63.13.12,1.15.46,1.26.61,1.52,2.15,3.87,2.38,5.08,4.71.8,1.53,2.61,4.59,3.47,6.08.26.46,1.17.87,1.71,1,.67.16.39-1.07.86-1.64.18-.22-.15-1.68.13-1.74.22-.83.05-1.69-.28-2.38-.59-1.22-1.39-2.34-2.18-3.45-.29-.41-.57-.79-.75-1.27-.3-.81-.55-1.65-.99-2.38-1.63-2.73-3.33-5.42-5.01-8.13-.19-.31-.39-.62-.78-.72-.35-.31-.51-1.49-.97-1.57-.4-.08-1.44.15-1.77-.06-.71-.46-1.09.36-1.85.46-1.35.16-2.69.12-4.02-.26-1.17-.34-2.37-.59-3.56-.84-.94-.2-5.78-.69-5.55.28.14.57,3.4,2.67,4.84,2.68Z"/>
    <path class="cls-4" d="m320.61,18.05c-.41.03-.82.03-1.23.01.74.16,1.48.31,2.15.72.35.21.76.3,1.17.28-.49-.42-1.08-.63-1.67-.86-.14-.06-.29-.11-.43-.16Z"/>
    <path class="cls-3" d="m288.33,20.81c.01.31.08.61.12.92.81.07,1.61.18,2.43.07.93-.49,1.95-.72,2.95-.98,1.31-.35,2.64-.59,3.97-.88.02-.52-.52-.69-.68-1.11-.09-.23-.1-.44.1-.6.19-.14.41-.18.6,0,.16.16.29.34.47.48.43.33.44.74.28,1.19,1.1.32,2.23.33,3.37.33-.04-.39-.48-.53-.56-.89-.06-.23-.02-.45.16-.61.18-.16.4-.23.61-.09.3.2.56.46.88.62.56.28.63.71.47,1.24.18.32.51.34.82.39.8.13,1.6.24,2.39.36-.11-.14-.22-.28-.33-.42-.14-.18-.32-.36-.2-.6.15-.31.43-.46.76-.49.11-.01.26.08.35.17.45.45.4.97.19,1.51.28.24.6.38.95.47.83.2,1.65.39,2.48.59-.23-.27-.44-.58-.71-.8-.57-.48-.69-1.13-.8-1.8-.01-.08,0-.19.03-.26.08-.17.21-.31.4-.31.12,0,.25.07.35.14.07.05.11.14.14.23.23.91.77,1.61,1.49,2.2.31.25.23.55.13.86,1.58.66,3.16,1.32,4.82,1.77.16.04.31.1.43.2.29-.09.59-.1.99,0-.57-.5-.93-1.11-1.03-1.85-.15-1.17-.35-2.31-.71-3.43-.26-.81,0-1.18.8-1.41.18-.05.36-.1.54-.13,0,0,0,0,0,0-.66-.12-1.73-.5-2.17-1.15-.32-.07-.63-.14-.95-.21-.31-.07-.61-.16-.93-.02.11.29.42.33.61.52.3.31.33.66-.05.91-.37.24-.49.49-.4.9.07.31.05.65.17.93.26.61.02,1.17-.15,1.72-.06.19-.27.36-.44.49-.23.17-.49.22-.75.02-.34-.25-.62-.55-.8-.92-.35-.73-.77-1.45-1-2.23-.3-1.04-.44-2.12-.65-3.18-.91-.47-1.89-.71-2.87-.93-.11.07-.22.15-.33.22-.06.86.48,1.18,1.19,1.38.1.03.22.17.24.28.05.21-.13.32-.29.4-.08.04-.18.03-.26.06-.61.18-.64.22-.64.8,0,.31.01.63-.02.94-.02.22-.11.45-.4.47-.2.02-.33-.1-.43-.26-.12-.19-.2-.51-.35-.55-.92-.23-.93-1-1.09-1.69-.08-.37-.3-.65-.56-.9-.3-.3-.26-.65-.14-1.01-.52-.2-1.01-.12-1.48.17-.22.64.14,1.24.13,1.86,0,.22.05.44.07.67.01.19-.07.37-.25.44-.17.07-.36.04-.49-.11-.67-.78-1.41-1.53-1.16-2.7-.43-.12-.83-.12-1.19.19-.1.52-.27,1.03-.21,1.59.05.41-.37.61-.75.41-.04-.02-.07-.06-.11-.07-.68-.28-.94-.77-.8-1.49-1.49.22-2.89.73-4.19,1.49-.22.82-.7,1.3-1.61,1.27-.25,0-.53.1-.76.22-.44.23-.86.15-1.29.02-.16.07-.38.1-.46.22-.32.47-.63.93-1.16,1.2-.2.1-.27.36-.26.58Z"/>
    <path class="cls-2" d="m253,40.94c.25-.74.98-.91,1.53-1.27.6-.39,1.15-.93,1.91-.99.82-.06,1.62-.18,2.42-.38.72-.18,1.43.25,2.16.06,1.53.28,3.07.12,4.6.16,2.41.06,4.65-.63,6.83-1.57.88-.38,1.7-.85,2.51-1.35.35-.21.69-.43,1.1-.54.25-.07.53-.21.7-.4.53-.59,1.23-.93,1.89-1.33,1.58-.99,3.08-2.07,4.44-3.35.23-.22.5-.39.77-.56,1.16-.73,2.32-1.43,3.47-2.17.55-.35,1.12-.58,1.78-.59,1.22-.02,2.43-.13,3.66.02.8.1,1.62.04,2.43.12.9.08,1.8.2,2.69.3,1,.12,1.99-.2,2.98.02.21.05.43-.14.54-.35.29-.52.25-1.09-.14-1.52-.18-.2-.52-.31-.6-.53-.33-.94-1.13-1.02-1.89-1.02-.58,0-.96-.15-1.22-.64.08-.05.16-.13.23-.13,1.63.05,3,.62,3.98,1.98.24.33.44.69.65,1.04.47.78.36,1.58.04,2.36-.26.64-1.39,1.11-2.24.96-.63-.11-1.25-.25-1.86-.43-1.93-.59-3.92-.68-5.91-.76-1.58-.06-3.16-.05-4.74.16-.42.06-.8.12-1.13.4-.51.45-1.02.9-1.52,1.35-1.59,1.42-3.17,2.84-4.76,4.25-.27.24-.58.44-.89.63-1.62,1-3.2,2.08-4.95,2.84-2.58,1.12-5.17,2.23-7.95,2.75-1.52.28-3.06.27-4.6.31-2.08.05-4.15-.24-6.23-.14-.59.03-1.17.06-1.75.2-.31.07-.61.18-.94.09Z"/>
    <path class="cls-3" d="m213.44,21.84c.79.2,1.28.82,1.83,1.33,1.21,1.12,2.07,2.47,2.78,3.98.61,1.31,1.26,2.6,1.77,3.96.75,2.01,1.24,4.07,1.52,6.19.14,1.03.28,2.06.28,3.11,0,.6-.15,1.17-.34,1.73-.11.31-.43.47-.77.43-.4-.04-.76-.31-.74-.67.1-2-.68-3.83-1.02-5.74-.17-.95-.59-1.81-.96-2.68-.32-.76-.97-1.3-1.49-1.93-1.28-1.55-2.88-2.75-4.44-4-.52-.42-1.07-.73-1.84-.67-.92.06-1.21-.31-1.28-1.37-.02-.35.12-.71.18-1.07,0-.4-.02-.8.02-1.2.04-.44.29-.73.74-.85.82-.22,1.67-.33,2.46-.67.44-.19.88.07,1.31.13Z"/>
    <path class="cls-3" d="m194.41,45.69c.16-.48.17-.91-.08-1.41-.28-.55-.39-1.18-.55-1.79-.32-1.24-.22-2.4.77-3.35.7.52,1.52.75,2.34.98,1.09.31,1.9,1.06,2.59,1.9,1.29,1.58,2.5,3.22,3.56,4.97.3.5.54,1.05.71,1.61.36,1.21-.21,2.16-1.44,2.48-.49.13-.98.18-1.48.06-.4-.09-.79-.19-1.19-.28-2.29-1.18-3.8-3.13-5.23-5.18Z"/>
    <path class="cls-6" d="m236.26,9.22c.8.42,1.33,1.11,1.72,1.88.67,1.34,1.24,2.72,2.03,4,.19.31.3.67.25,1.04-.02.11-.12.26-.22.31-.1.05-.28.03-.38-.02-.25-.13-.41-.37-.49-.63-.21-.71-.67-1.29-1.02-1.92-.39-.72-.74-1.46-1.13-2.17-.22-.4-.48-.77-.75-1.14-.07-.09-.26-.19-.35-.15-.8.31-1.68.41-2.44.84-.19.11-.26.48-.09.59.86.57,1.01,1.69,1.84,2.28.06.66.55.98,1.03,1.32.18.13.3.34.42.53.19.29.14.56-.11.71-.27.17-.52.13-.74-.08-.13-.12-.25-.27-.33-.43-.31-.63-.9-1.02-1.39-1.44-.34-.3-.66-.59-.93-.94-.31-.41-.46-.98-1.21-.84-.34.06-.63-.31-.81-.65-.13-.23-.3-.35-.55-.25-1.14.44-2.24.96-3.3,1.57.45.58.46.58.65,1.45.06.28.2.41.47.34.48-.13.81.13,1.07.44.55.66,1.07,1.35,1.57,2.05.13.17.2.41.23.63.04.23-.04.47-.26.58-.23.11-.47.02-.6-.18-.55-.83-1.12-1.65-1.78-2.41-.22-.25-.41-.47-.79-.36-.36.1-.61-.09-.8-.38-.15-.23-.29-.46-.45-.69-.11-.16-.26-.29-.45-.25-.47.1-.91-.04-1.34-.15-.5-.12-.9.04-1.25.37-.63.59-1.23,1.21-1.98,1.66-.17.1-.24.27-.22.47.07.49.14.99.23,1.48.05.29.36.39.63.23.12-.07.21-.18.32-.25.22-.15.46-.11.6.1.27.42.58.83.74,1.3.4,1.15.64,2.37,1.28,3.44.09.14.09.35.09.53,0,.64-.41.91-.99.69-.49-.18-.87-.51-1.13-.95-.7-1.18-1.57-2.22-2.45-3.26-.37-.44-.71-.94-.74-1.58,0-.19-.23-.27-.42-.18-.12.05-.25.13-.33.24-.38.48-.85.45-1.36.28.06-.63.38-1.14.86-1.5.96-.72,1.65-1.67,2.42-2.55.15-.17.31-.46.47-.46,1.22-.01,1.83-1.03,2.72-1.57.21-.12.44-.22.64-.12.52.26.95.05,1.41-.18,1.18-.59,2.35-1.19,3.57-1.68.48-.2.73-.71,1.24-.78.45-.06.9-.04,1.34-.18.82-.26,1.65-.5,2.48-.73.22-.06.45-.07.67-.1.15.04.27,0,.37-.13.07-.03.14-.04.21-.04Z"/>
    <path class="cls-6" d="m319.38,18.06c-.54-.03-1.08-.09-1.61-.19-.18.03-.36.08-.54.13-.8.23-1.06.6-.8,1.41.36,1.12.55,2.27.71,3.43.1.74.46,1.36,1.03,1.85.2.05.43.13.7.25,1.76.76,3.3.96,5.06.48.3-.22.6-.42.92-.6,1.31-.71,1.44-1.98,1.56-3.25.02-.2-.12-.43-.22-.62-.25-.44-.63-.75-1.08-.99-.76-.41-1.57-.68-2.4-.9-.42.01-.83-.07-1.17-.28-.67-.4-1.41-.55-2.15-.72Z"/>
    <path class="cls-6" d="m257.16,6.35c.03.86.15,1.7.08,2.57-.05.71.08,1.43.46,2.1.24.43.38.92.53,1.39.05.17-.07.37-.26.42-.12.03-.27,0-.39-.05-.08-.03-.15-.11-.2-.18-.56-.78-.86-1.69-1.17-2.58-.07-.2-.06-.46-.01-.67.1-.43-.02-.78-.21-1.16-.59-1.21-.71-1.32-1.99-1.48-.4-.05-.79,0-1.19.08.06.32.26.59.11.93-.11.25-.54.27-.45.61.07.26.24.49.33.74.16.47.31.95.44,1.43.04.13.08.32.02.39-.52.58-.15,1.21-.13,1.82,0,.13-.06.26-.1.39-.05.16-.33.24-.45.14-.03-.03-.09-.05-.1-.08-.43-.98-1.05-1.9-.95-3.05.02-.22.01-.45-.02-.67-.08-.47-.26-.87-.8-.97-.67-.13-.88-.56-.77-1.2.03-.19-.07-.35-.21-.47.12-.62.53-.92,1.13-.99.4-.05.81-.08,1.21-.11.18-.01.38.04.53-.03.82-.42,1.68-.28,2.53-.25.47.02.89.11,1.16.57.18.31.56.24.84.38Z"/>
    <path class="cls-6" d="m243.68,7.57c-.02.35-.16.71.06,1.06.19.29.21.6-.04.88-.26.29-.19.57-.02.87.29.5.75.93.73,1.58,0,.21.15.31.32.4.42.24.65.65.83,1.05.36.83.79,1.62,1.28,2.39.07.11.12.25.13.38.01.18-.02.38-.23.44-.12.04-.32.05-.38-.02-.53-.67-1.31-1.18-1.58-2.01-.31-.97-1-1.46-1.86-1.81-.32-.13-.56-.27-.58-.65,0-.09-.04-.22-.09-.24-.68-.29-.73-.99-1-1.54-.14-.29-.25-.58-.62-.64-.51-.08-.79-.38-.92-.87-.03-.11-.18-.19-.27-.29.28-.73.68-1.22,1.59-1.03.62.13,1.23-.08,1.84-.22.34-.08.61-.02.83.26Z"/>
    <path class="cls-6" d="m313.71,16.49c.11.29.42.33.61.52.3.31.33.66-.05.91-.37.24-.49.49-.4.9.07.31.05.65.17.93.26.61.02,1.17-.15,1.72-.06.19-.27.36-.44.49-.23.17-.49.22-.75.02-.34-.25-.62-.55-.8-.92-.35-.73-.77-1.45-1-2.23-.3-1.04-.44-2.12-.65-3.18.99-.27,1.89.07,2.77.47.24.11.46.24.69.37Z"/>
    <path class="cls-6" d="m275.11,5.2c-.07.41-.17.81-.46,1.12-.49.52-.71,1.03-.2,1.67.25.31.17.69.04,1.04-.07.18-.2.33-.4.3-.12-.01-.3-.09-.33-.18-.34-.87-.85-1.59-1.57-2.19-.24-.2-.2-.5-.07-.75.19-.36.47-.68.46-1.12,0,0,0,0,0,.01.15.05.26,0,.36-.12.31-.05.63-.08.93-.16.5-.15.88.07,1.23.37Z"/>
    <path class="cls-6" d="m263.02,10.19c-.47-.11-1.04-.11-.93-.86.04-.25-.1-.44-.33-.52-.5-.16-.62-.53-.77-1-.17-.53-.63-.98-.45-1.61.13-.32.36-.49.71-.41.47.1.91.28,1.23.66-.02.24.01.45.26.57.43.2.59.54.49,1,0,.04-.03.1,0,.13.37.73.07,1.38-.21,2.04h0Z"/>
    <path class="cls-6" d="m268.12,6.34c.17.98.53,1.91.56,2.92,0,.22.01.45-.03.67-.04.17-.16.32-.38.32-.2,0-.36-.08-.45-.24-.08-.16-.11-.34-.15-.51-.16-.75-.31-1.5-.48-2.25-.06-.26-.13-.53-.39-.68.03-.08.05-.17.1-.25.31-.54.43-.58.92-.25.11.07.2.18.29.27Z"/>
    <path class="cls-6" d="m310.9,22.49c-.23-.27-.44-.58-.71-.8-.57-.48-.69-1.13-.8-1.8-.01-.08,0-.19.03-.26.08-.17.21-.31.4-.31.12,0,.25.07.35.14.07.05.11.14.14.23.23.91.77,1.61,1.49,2.2.31.25.23.55.13.86-.37.04-.71-.07-1.03-.25Z"/>
    <path class="cls-6" d="m301.94,20.24c-.04-.39-.48-.53-.56-.89-.06-.23-.02-.45.16-.61.18-.16.4-.23.61-.09.3.2.56.46.88.62.56.28.63.71.47,1.24-.53-.04-1.06-.03-1.56-.27Z"/>
    <path class="cls-6" d="m280.83,6.67c.27.16.55.3.79.49.22.18.16.55-.08.68-.04.02-.08.06-.12.06-.7-.03-.9.42-1,1-.02.12-.09.26-.19.34-.09.07-.25.11-.36.08-.11-.03-.25-.16-.26-.26-.04-.41.02-.84.39-1.08.48-.31.53-.79.62-1.28.06-.03.13-.04.2-.03Z"/>
    <path class="cls-6" d="m297.8,19.93c.02-.52-.52-.69-.68-1.11-.09-.23-.1-.44.1-.6.19-.14.41-.18.6,0,.16.16.29.34.47.48.43.33.44.74.28,1.19-.26.06-.51.12-.77.03Z"/>
    <path class="cls-6" d="m306.7,21.26c-.11-.14-.22-.28-.33-.42-.14-.18-.32-.36-.2-.6.15-.31.43-.46.76-.49.11-.01.26.08.35.17.45.45.4.97.19,1.51-.26-.05-.51-.11-.77-.16Z"/>
    <path class="cls-4" d="m236.05,9.26c-.1.12-.22.17-.37.13.09-.14.21-.18.37-.13Z"/>
    <path class="cls-4" d="m272.94,5c-.09.12-.21.17-.36.12.08-.15.21-.17.36-.12Z"/>
    <path class="cls-6" d="m307.04,14.94c-.06.86.48,1.18,1.19,1.38.1.03.22.17.24.28.05.21-.13.32-.29.4-.08.04-.18.03-.26.06-.61.18-.64.22-.64.8,0,.31.01.63-.02.94-.02.22-.11.45-.4.47-.2.02-.33-.1-.43-.26-.12-.19-.2-.51-.35-.55-.92-.23-.93-1-1.09-1.69-.08-.37-.3-.65-.56-.9-.3-.3-.26-.65-.14-1.01.19-.11.38-.22.57-.33.46-.27.88-.3,1.34.05.24.18.56.25.84.36Z"/>
    <path class="cls-6" d="m302.81,15.03c-.22.64.14,1.24.13,1.86,0,.22.05.44.07.67.01.19-.07.37-.25.44-.17.07-.36.04-.49-.11-.67-.78-1.41-1.53-1.16-2.7.56-.15,1.12-.33,1.71-.15Z"/>
    <path class="cls-6" d="m293.87,17.29c-.22.82-.7,1.3-1.61,1.27-.25,0-.53.1-.76.22-.44.23-.86.15-1.29.02.05-.32.15-.63.46-.78.85-.41,1.74-.7,2.67-.84.17-.02.35.06.52.1Z"/>
    <path class="cls-6" d="m299.92,15.37c-.1.52-.27,1.03-.21,1.59.05.41-.37.61-.75.41-.04-.02-.07-.06-.11-.07-.68-.28-.94-.77-.8-1.49.56-.42,1.17-.62,1.86-.43Z"/>
    <path class="cls-6" d="m259.59,17.66c-.04.09-.09.22-.15.34-.12.24-.52.26-.69.05-.03-.03-.08-.07-.08-.1-.14-1.03-.54-1.98-.87-2.95-.06-.18.07-.34.24-.44.22-.13.51-.15.61.04.47.87.87,1.77.99,2.76.01.09-.03.18-.05.3Z"/>
    <path class="cls-6" d="m263.01,10.2c.88.33.91.34.84,1.1-.04.43-.01.8.22,1.16.07.11.12.24.16.37.1.35-.02.72-.25.85-.27.14-.65-.12-.76-.58-.23-.96-.62-1.91-.2-2.91h0Z"/>
    <path class="cls-6" d="m253.86,13.83c.11-.25.54-.33.71-.15.68.74.86,1.65.83,2.61,0,.18-.13.33-.34.37-.25.04-.49-.08-.54-.3-.17-.79-.43-1.55-.71-2.3-.03-.07.03-.17.05-.23Z"/>
    <path class="cls-6" d="m272.61,10.12c.11-.32.26-.48.5-.52.27-.04.45.13.49.36.06.4.09.81.07,1.21,0,.24-.21.4-.46.43-.27.04-.44-.14-.49-.36-.07-.39-.09-.8-.12-1.12Z"/>
    <path class="cls-6" d="m225.73,19.34c-.08-.03-.19-.04-.24-.1-.28-.39-.36-.81-.15-1.27.11-.24.5-.27.68-.05.32.37.3.98-.05,1.34-.05.05-.16.05-.24.08Z"/>
    <path class="cls-6" d="m228.34,23.3c-.43-.08-.78-.74-.59-1.15.08-.19.27-.24.45-.16.4.17.6.5.62.93,0,.17-.3.41-.47.38Z"/>
    <path class="cls-6" d="m251.31,18.3c-.37-.12-.65-.66-.55-1.07.05-.2.35-.31.54-.21.34.18.49.49.55.84.04.23-.32.51-.54.44Z"/>
    <path class="cls-6" d="m247.03,18.64c.03-.2.34-.34.53-.26.36.16.53.47.61.82.04.18-.07.35-.25.42-.12.04-.29.08-.37.02-.34-.24-.56-.56-.51-1.01Z"/>
    <path class="cls-6" d="m269.29,12.1c-.07.27-.15.53-.5.52-.34-.01-.6-.42-.51-.79.08-.31.38-.52.7-.48.29.04.41.31.31.75Z"/>
    <path class="cls-6" d="m235.94,20.97s.04-.1.08-.12c.34-.22,1.02.07,1.06.45.03.24-.05.46-.27.56-.16.08-.35.04-.49-.1-.22-.22-.45-.44-.37-.79Z"/>
    <path class="cls-6" d="m225.73,25.81c.07-.31.26-.39.5-.37.31.03.54.25.52.49-.02.24-.3.5-.54.5-.29,0-.53-.34-.48-.62Z"/>
    <path class="cls-6" d="m258.11,18.63c.19.08.28.22.25.42-.03.23-.31.35-.52.24-.19-.1-.23-.26-.16-.45.07-.21.24-.23.43-.21Z"/>
    <path class="cls-7" d="m288.65,19.27c-.15-.15-.17-.38.01-.44.61-.22,1.07-.59,1.44-1.11.14-.2.36-.25.6-.26.27-.01.54-.04.82-.06.64-.05,1.22-.2,1.79-.54,1.1-.66,2.3-1.08,3.55-1.35,2.17-.48,4.35-.95,6.52-1.4,1.83-.38,3.68-.52,5.55-.38.86.06,1.69.29,2.56.3.84,0,1.47-.37,1.71-1.18.02-.05-.07-.15-.12-.21-.02-.02-.1-.03-.11-.01-.08.11-.14.23-.22.34-.6.82-1.6.9-2.56.36-.08-.05-.15-.25-.12-.35.02-.08.21-.12.32-.15.08-.02.17.03.26.05,1.13.18,1.68-.15,2.03-1.25.1-.32-.31-1.07-.62-1.08-.12,0-.26.08-.35.16-.32.33-.67.62-1.09.8-.47.2-.96.29-1.43-.01-.06-.04-.12-.15-.12-.23,0-.07.08-.17.14-.2.12-.05.26-.08.39-.07.33.03.64-.04.91-.22.26-.17.66-.32.61-.66-.06-.43-.5-.25-.78-.26-1.5-.04-3-.04-4.38-.75-.48-.25-.95-.22-1.45-.05-.43.15-.87.27-1.31.36-.09.02-.24-.11-.31-.21-.07-.12-.03-.29.1-.35,1.08-.45,2.12-.98,3.37-.38,1.25.6,2.63.67,4,.65.75-.01,1.45,0,2.01.58.73.76,1.45,1.53,1.56,2.64.06.61-.09,1.17-.56,1.62-.43.42-.87.79-1.48.91-.59-.11-1.16-.39-2.06-.27.89.35,1.55.47,2.22.56,1.12.37,2.24.74,3.23,1.38.67.43,1.38.7,2.15.8,2.41.32,4.68,1.14,6.98,1.84.35.11.66.3,1.01.42,1.05.35,1.57,1.49,1.23,2.71-1.12,3.95-4.75,4.89-7.75,3.31-.36-.19-.69-.44-1.04-.65-.19-.11-.37-.31-.61-.21-.54.23-.98-.09-1.43-.26-1.7-.66-3.42-1.24-5.13-1.85-2.72-.97-5.51-1.59-8.34-2.05-1.43-.23-2.86-.56-4.33-.55-1.94.02-3.78.46-5.58,1.13-.06.02-.11.12-.14.19-.04.11.02.16.14.19,1.18.34,2.38.67,3.61.66,1.34-.02,2.59.48,3.91.54.34.02.61.28.72.57.31.84.9,1.46,1.48,2.1.46.52.74,1.14.78,1.85.09,1.76-1.51,2.87-3.14,2.18-.89-.81-1.99-.7-3.07-.77-1.45-.09-2.9-.27-4.34-.44-.55-.06-1.07-.08-1.62.07-.93.25-1.87.36-2.84.05-.17.19-.32.35-.46.52-1.64,2-3.59,3.61-5.89,4.78-1.02.52-1.98,1.11-2.91,1.78-.89.64-1.85,1.16-2.84,1.63-.1.04-.29.02-.36-.05-.14-.15-.1-.37.04-.49.2-.18.43-.33.67-.45.86-.43,1.65-.97,2.44-1.49.76-.5,1.53-.99,2.34-1.41,2-1.03,3.78-2.35,5.31-4.01.68-.74,1.33-1.49,1.79-2.39.08-.16.13-.34.32-.41.04-.02.1-.04.13-.02.07.05.16.1.19.18.1.28-.07.53-.13.79-.09.39,0,.55.36.53.54-.03,1.1-.04,1.62-.19.58-.17,1.16-.21,1.75-.15,1.17.13,2.35.28,3.52.4.68.07,1.36.17,2.04.13.68-.05,1.25.1,1.77.53.5.42,1.07.46,1.67.25.63-.22.9-.63.91-1.36,0-.24-.24-.39-.46-.24-.75.5-1.53.52-2.35.22-.17-.06-.34-.14-.41-.33-.03-.08-.06-.18-.04-.26.04-.14.19-.25.31-.19.5.24,1.01.4,1.57.22.65-.21.84-.9.36-1.39-.16-.17-.33-.28-.6-.21-.49.13-.98.19-1.48.07-.22-.05-.45-.09-.61-.28-.09-.11-.15-.23-.05-.36.05-.06.15-.14.21-.13.45.06.89.18,1.34.08.16-.03.25-.14.26-.26.03-.39-.28-.9-.63-.94-.99-.13-1.93-.5-2.95-.5-1.46,0-2.9-.21-4.31-.61-.92-.26-1.86-.43-2.82-.49-.32-.02-.68,0-.93-.15-.79-.47-1.22-.11-1.67.53-.86,1.23-1.78,2.41-2.66,3.62-.13.18-.25.39-.29.61-.08.46-.29.74-.76.84-.43.09-.68.44-.97.72-.71.67-1.52,1.16-2.42,1.5-.16.06-.35.08-.53.08-.06,0-.15-.1-.17-.17-.02-.07,0-.18.04-.25.04-.07.12-.14.2-.17,2.05-.79,3.38-2.41,4.68-4.06.93-1.18,1.78-2.41,2.68-3.61.27-.36.5-.76.92-.98.19-.12.39-.13.6-.08.04.17.02.43.12.49.64.36,1.33.54,2.06.29,1.16-.39,2.32-.79,3.49-1.15,1.67-.51,3.37-.72,5.11-.55,2.31.23,4.58.68,6.85,1.14,2.86.59,5.58,1.63,8.32,2.6.64.23,1.28.46,1.93.67.06.02.17-.03.21-.09.04-.06.06-.18.03-.24-.15-.28-.32-.55-.48-.82-.26-.43-.53-.84-.78-1.28-.09-.16-.1-.35.13-.44.13-.05.28-.06.37.06.4.55.84,1.08,1.16,1.67.61,1.13,1.55,1.89,2.68,2.43,1.69.81,3.34.71,4.89-.39.33-.23.59-.53.76-.93.22-.52.21-1.16.75-1.53.09-.06.1-.25.12-.38.09-.78-.21-1.28-.93-1.64-1.07-.53-2.23-.77-3.36-1.11-1.48-.44-2.94-.95-4.49-1.07-.78-.06-1.48-.38-2.16-.79-1.57-.94-3.26-1.57-5.08-1.82-1.44-.2-2.84-.63-4.31-.64-.66-.32-1.34-.17-2-.03-2.31.49-4.62.97-6.93,1.49-1.25.28-2.45.72-3.53,1.41-.32.2-.62.32-1.01.31-.75-.02-1.21.71-1.93.79-.02,0-.05.08-.06.12-.08.32-.3.42-.61.4-.27-.02-.54,0-.81,0l-.09-.02h-.09Z"/>
    <path class="cls-7" d="m240.45,54.75c.48.72.84,1.14,1.06,1.62.24.5.59.89.93,1.31,1.25,1.57,2.33,3.25,3.09,5.12.19.46.39.92.58,1.38.36.89.86,1.7,1.5,2.42,1.14,1.26,1.99,2.7,2.67,4.25.36.83.55,1.62.1,2.48-.26.49-.22,1.06-.23,1.61,0,.57-.19,1.07-.49,1.54-.32.51-.52.6-1.13.5-.85-.13-1.54-.54-2.03-1.25-.36-.52-.67-1.09-.85-1.7-.41-1.37-1.17-2.55-2.04-3.67-1.06-1.36-2.09-2.75-3.46-3.84-.11-.08-.19-.2-.31-.27-2.06-1.3-3.66-3.11-5.33-4.84-1.42-1.47-3.01-2.76-4.68-3.93-.51-.36-1.15-.53-1.74-.78-.84-.36-1.66-.74-2.51-1.05-1.5-.55-2.61-1.61-3.75-2.66-.12-.11-.19-.3-.25-.46-.02-.06.05-.17.11-.22.06-.05.18-.09.24-.07.16.08.33.17.44.3,1.37,1.47,3.13,2.31,4.93,3.08.46.2.91.42,1.38.58,1.5.51,2.72,1.46,3.91,2.44.77.63,1.49,1.34,2.19,2.04,1.86,1.87,3.74,3.71,5.92,5.21,1.69,1.17,2.9,2.74,3.94,4.46.45.74.87,1.49,1.23,2.28.18.39.5.64.68,1,.15.3.3.39.62.2.29-.17.5.09.72.24.25.18.51.16.77.04.93-.44,1.46-1.69,1.06-2.64-.42-1-.87-1.99-1.6-2.83-.71-.82-1.32-1.74-1.96-2.62-.43-.59-.76-1.24-.98-1.94-.69-2.15-1.89-4.03-3.17-5.85-.84-1.18-1.74-2.32-2.55-3.52-.5-.74-1.23-.98-1.99-.88-.75.1-1.51.03-2.26.36-.56.25-1.25.2-1.82-.19-.12-.08-.15-.23-.07-.36.04-.07.14-.15.2-.15.45.04.88.17,1.35.09.63-.11.68-.19.34-.83-.06-.12-.12-.24,0-.37.1-.12.23-.12.36-.1.13.02.27.05.39.11.69.36,1.45.52,2.2.72,2.89.76,5.48,2.18,8.01,3.71.35.21.65.49.96.76.18.16.27.38.08.59-.17.19-.34.05-.48-.06-1.6-1.3-3.5-2.1-5.31-3.04-.2-.1-.42-.14-.98-.32Zm8.8,20.07q-1.08.1-2.19-.29c-.19.75.25,1.16.79,1.5.76.49,1.15.32,1.41-.58.06-.21.15-.42,0-.63Z"/>
    <path class="cls-7" d="m214.64,21.21c.04-.08.07-.23.17-.3.32-.25.65-.51,1.01-.7.7-.36,1.26-.87,1.81-1.42,1.41-1.42,2.84-2.81,4.28-4.2.49-.47,1.07-.84,1.71-1.11,1.3-.55,2.58-1.13,3.89-1.66,3.33-1.36,6.72-2.55,10.14-3.64,2.78-.89,5.66-1.34,8.53-1.78,2.61-.4,5.21-.81,7.84-.94,1.83-.09,3.63.03,5.44.23.56.06,1.14.32,1.64-.26.21-.24.61-.04.92.02,1.61.29,3.22.58,4.83.89.39.08.69.04.94-.32.32-.47,1.01-.36,1.37-.82.08-.11.27,0,.34.12.12.19.21.4.31.6.08.16.18.33.06.51-.17.25-.37.15-.6.07-.45-.15-.87-.15-1.17.34-.15.25-.46.3-.73.31-.45.02-.92.05-1.36-.03-2.87-.5-5.79-.6-8.68-.9-2.46-.26-4.9,0-7.34.34-3.06.43-6.12.85-9.14,1.52-1.65.36-3.26.82-4.85,1.38-3.82,1.33-7.63,2.7-11.35,4.31-.85.37-1.58.83-2.19,1.55-.93,1.11-1.96,2.14-3.18,2.97-.62.43-1.28.87-1.59,1.63-.07.18-.32.36-.51.41-.73.18-1.3.64-1.9,1.03-.11.07-.25.12-.38.13-.15.01-.23-.11-.27-.3Z"/>
    <path class="cls-7" d="m239.65,42.56c-.05-.16-.16-.35.04-.48.19-.13.34.01.46.14.03.03.05.08.06.12.42,1.52,1.6,2.5,2.58,3.62.28.32.57.4.96.23.5-.22,1.01-.42,1.52-.6.1-.03.27.04.35.12.12.11.06.27-.04.36-.16.15-.36.27-.54.41-.72.57-.8,1.28-.11,1.94.88.85,1.79,1.68,2.76,2.43,1.04.82,2.04,1.67,2.97,2.6,1.62,1.59,3.24,3.18,4.84,4.79.84.85,1.47,1.84,1.92,2.95.23.56.28,1.14.32,1.73.03.5-.22.87-.58,1.17-.34.28-.73.37-1.14.16-1.4-.74-2.83-1.45-4.2-2.26-.89-.53-1.69-1.21-2.53-1.84-.1-.08-.18-.21-.23-.33-.03-.07,0-.18.03-.25.04-.07.16-.15.21-.13.21.07.42.16.6.28,1.26.81,2.52,1.63,3.76,2.46.81.54,1.72.8,2.65,1.02.18.04.37.02.51-.12.09-.09.2-.25.16-.33-.06-.14-.2-.05-.31,0-.12.06-.25.11-.38.16-.06-.14-.12-.28-.19-.42.52-.31.51-.81.46-1.32-.03-.3-.24-.45-.57-.43-.22.01-.45.07-.67.06-.12,0-.3-.1-.32-.19-.05-.2.08-.33.3-.34.09,0,.19,0,.27-.02.21-.07.29-.22.16-.41-.71-1-1.48-1.95-2.39-2.78-1.3-1.19-2.61-2.39-3.96-3.53-2.01-1.7-3.93-3.5-5.78-5.37-1.21-1.22-2.39-2.49-3.24-4-.15-.59-.47-1.09-.75-1.62Z"/>
    <path class="cls-7" d="m284.3,8.92c-.14-.08-.26-.14-.28-.3-.03-.23.14-.35.3-.37.27-.03.54,0,.81.02,2.39.29,4.77.71,7.13,1.2,2.61.54,5.22.64,7.86.34.64-.07,1.26-.19,1.81-.53.13-.08.27-.05.36.06.14.17.06.36-.06.49-.12.13-.29.22-.45.3-.46.22-.95.31-1.45.38-2.82.4-5.62.29-8.4-.32-2.36-.52-4.74-.85-7.13-1.22-.18-.03-.36-.03-.52-.05Z"/>
    <path class="cls-7" d="m271.23,38.78c.06.06.15.11.18.18.03.07,0,.18-.03.25-.16.25-.44.31-.69.42-2.33.99-4.76,1.54-7.29,1.47-2.41-.06-4.81-.18-7.22-.26-.68-.02-1.36,0-2.04,0-.15,0-.22-.13-.27-.26-.05-.17.06-.28.17-.33.47-.22.97-.18,1.47-.16,1.91.07,3.81.13,5.72.22,2.09.1,4.17.11,6.23-.39,1.06-.26,2.1-.57,3.11-.99.2-.08.41-.2.65-.14Z"/>
    <path class="cls-7" d="m191.2,24.6c-.02.26.1.39.23.52,1.36,1.29,2.36,2.88,3.59,4.27.39.45.69.96.83,1.55.03.13.08.28.04.4-.03.11-.16.2-.27.26-.05.03-.19-.03-.22-.09-1.05-2.26-2.82-3.98-4.44-5.8-.98-1.11-.93-1.51.44-2.02,1.06-.39,2.14-.75,3.22-1.09,1.19-.38,2.41-.43,3.64-.27.23.03.45.1.59.3.05.07.08.17.06.25-.02.08-.1.18-.16.19-.17.02-.36.02-.53,0-1.43-.22-2.8-.02-4.14.49-.76.29-1.55.52-2.32.78-.21.07-.4.19-.57.27Z"/>
    <path class="cls-7" d="m194.62,46.45c-.14.17-.25.29-.36.42-.11.13-.31.12-.35.04-.18-.42-.66-.59-.8-1.05-.14-.45-.52-.71-.98-.85-.43-.13-.85-.31-1.26-.51-.2-.1-.36-.27-.51-.44-.09-.1-.11-.26.02-.36.06-.05.19-.11.23-.08.87.57,2,.6,2.81,1.29.17.15.33.06.45-.11.21-.31.44-.28.63,0,.23.34.43.7.66,1.03.26.37.52.73.96.94,1.2.56,1.69,1.72,2.29,2.77.07.12.01.26-.13.34-.13.07-.26.04-.38-.04-.31-.22-.45-.56-.64-.87-.33-.55-.7-1.05-1.3-1.35-.53-.26-.89-.76-1.35-1.17Z"/>
    <path class="cls-7" d="m190.54,37.69c.19.05.3.14.31.29.02.21-.09.35-.3.39-1.28.2-2.39.86-3.57,1.32-.37.14-.43.45-.18.76.14.18.29.35.46.49.49.4,1.02.77,1.5,1.18.29.25.8.31.79.83,0,.31-.47.23-1.15-.24-.52-.36-1.02-.76-1.53-1.14-.14-.11-.29-.22-.41-.36-.87-1.04-.98-1.68.43-2.27.75-.32,1.5-.66,2.26-.97.46-.19.94-.35,1.4-.28Z"/>
    <path class="cls-7" d="m211.99,28.31c2.27.68,3.87,1.94,4.97,3.82.04.08.07.17.07.26,0,.08-.04.2-.1.23-.11.05-.29.11-.36.06-.18-.13-.35-.3-.46-.49-.9-1.44-2.16-2.43-3.74-3.02-.21-.08-.4-.21-.6-.31-.14-.07-.18-.21-.15-.34.05-.23.24-.22.43-.2.04,0,.09.02-.05-.01Z"/>
    <path class="cls-7" d="m269.34,34.3s.11-.19.21-.23c.3-.1.6-.18.91-.24,1.39-.27,2.71-.7,3.9-1.49.29-.19.65-.3.99-.42.04-.02.15.09.2.16.04.07.07.18.04.25-.03.08-.11.15-.18.2-1.66,1.16-3.49,1.89-5.5,2.18-.13.02-.27.01-.4-.03-.12-.04-.24-.13-.18-.37Z"/>
    <path class="cls-7" d="m205.38,24.76c.97.24,1.93.61,2.73,1.32.13.12.25.26.35.4.04.06.04.18,0,.24-.06.14-.2.18-.34.15-.08-.02-.18-.05-.24-.11-1.17-1.06-2.65-1.28-4.12-1.53-.26-.04-.55-.01-.77-.2-.09-.08-.17-.21-.18-.33-.02-.16.12-.25.25-.23.76.06,1.53.04,2.32.29Z"/>
    <path class="cls-7" d="m192.26,38.85c.28-1.43.76-2.8,1.54-4.04.1-.17.28-.23.46-.1.12.08.16.22.11.36-.08.21-.14.43-.25.63-.83,1.58-1.34,3.27-1.62,5.02-.01.09-.03.18-.05.27-.05.18-.11.35-.36.27-.22-.06-.25-.24-.25-.42,0-.18.03-.36.07-.54.11-.49.22-.97.34-1.46Z"/>
    <path class="cls-7" d="m239.65,42.56c.28.53.6,1.04.75,1.62-.11.06-.24.1-.34.17-.27.21-.52.14-.69-.1-.23-.33-.4-.69-.6-1.04-.29-.5-.57-1-.88-1.48-.1-.15-.22-.03-.32.05h0c.13-.03.27-.1.2-.25-.15-.33-.34-.63-.48-.97-.04-.1,0-.28.08-.36.15-.17.35-.09.46.06.31.44.6.9.89,1.36.19.3.37.62.57.92.09.14.22.1.34.02Z"/>
    <path class="cls-7" d="m254.43,32.62c-.09-.03-.28-.05-.43-.14-.1-.06-.2-.2-.21-.31,0-.21.16-.31.36-.3.23,0,.45.04.67.07,1.35.21,2.7.3,4.03-.15.12-.04.27-.04.34.13.08.2.03.37-.15.46-.24.12-.5.22-.76.28-1.26.3-2.52.23-3.86-.04Z"/>
    <path class="cls-7" d="m214.31,50.16c1.21.11,2.41.24,3.63.16.31-.02.63.05.94.1.14.02.23.14.24.29.02.24-.21.36-.33.33-1.02-.23-2.05.1-3.07-.04-.27-.04-.57-.03-.79-.15-.34-.19-.46.06-.68.2-.11.07-.22-.08-.26-.21.25-.15.26-.43.33-.67Z"/>
    <path class="cls-7" d="m228.26,53.27c.04-.08.1-.15.12-.24.21-.58.25-.62.7-.42.37.16.73.36,1.11.5.6.22,1.17.68,1.88.36.05-.02.15.08.22.13.03.02.07.07.08.11,0,.07-.02.21-.03.21-.36.02-.68.11-.99.32-.19.13-.44,0-.64-.11-.56-.31-1.15-.51-1.77-.65-.25.01-.49-.03-.68-.21Z"/>
    <path class="cls-7" d="m247.92,44.15c-.14-.74-.15-.77.31-.98.37-.17.75-.31,1.13-.44.13-.04.29.03.3.18.01.12-.02.3-.1.35-.31.19-.63.35-.96.5-.29.13-.24.31-.14.53.09.18.04.38-.14.46-.64.28-1.31.3-1.98.2-.07,0-.17-.13-.16-.18.01-.12.07-.32.14-.34.53-.11,1.06-.19,1.6-.28Z"/>
    <path class="cls-7" d="m219.12,45.52c-.42.86-.92,1.71-1.82,2.23-.19.11-.4.22-.63.09-.12-.07-.23-.15-.14-.32.02-.04.03-.1.07-.11.91-.5,1.45-1.31,1.92-2.2.04-.08.11-.14.17-.2.12-.1.25-.09.37,0,.06.05.11.14.13.21.01.08-.02.17-.05.31Z"/>
    <path class="cls-7" d="m281.11,6c.07.04.18.06.23.12.08.1.14.23.15.35,0,.05-.11.17-.18.17-1.08.04-2.16.09-3.23-.14-.2-.04-.26-.22-.23-.42.03-.16.15-.24.28-.23.99.04,1.98.09,2.97.14Z"/>
    <path class="cls-7" d="m211.75,50.14c.21.06.27.24.31.41.05.22.14.49-.08.62-.58.34-1.18.64-1.78.92-.08.04-.27-.04-.34-.12-.07-.08-.12-.28-.07-.36.46-.69,1.17-1.07,1.85-1.5.03-.02.08,0,.12.01Z"/>
    <path class="cls-7" d="m192.36,41.83s.11-.11.18-.14c.1-.04.19.02.2.13.06.55.3.88.89.98.21.03.22.48.03.71-.12.14-.3.23-.46.09-.18-.16-.39-.2-.6-.28-.13-.04-.21-.15-.21-.3,0-.39-.02-.79-.03-1.19Z"/>
    <path class="cls-7" d="m228.26,53.27c.19.19.43.23.68.21.16.12.22.26.11.45-.08.14-.22.16-.34.13-.3-.08-.65-.11-.88-.29-.38-.29-1.13-.13-1.13-.89.57-.29.99.12,1.46.31.04.02.07.06.1.08Z"/>
    <path class="cls-7" d="m194.15,33.32c-.01-.52.35-.84.76-1.13.11-.08.26-.13.35,0,.07.09.15.26.12.34-.23.47-.48.93-.75,1.38-.09.14-.26.25-.46.16-.22-.1-.14-.29-.12-.45.01-.09.06-.17.1-.28Z"/>
    <path class="cls-7" d="m271.91,5.44c-.19-.09-.34,0-.47.13-.17.15-.34.33-.57.1-.23-.23-.42-.48-.3-.83.07-.22.19-.4.44-.46.2-.04.34.04.48.17.21.2,0,.67.46.72,0,.06-.02.11-.04.16Z"/>
    <path class="cls-7" d="m204.33,53.81c-.47-.07-.65-.09-.82-.12-.19-.04-.34-.15-.29-.36.02-.1.15-.23.25-.25.63-.13,1.23-.03,1.77.34.06.04.1.15.09.23-.01.13-.09.26-.24.25-.35-.03-.7-.08-.75-.08Z"/>
    <path class="cls-7" d="m288.32,20.31c-.21-.06-.41-.05-.6.08-.09-.09-.17-.19-.28-.26-.23-.13-.73.02-.6-.46.09-.36.49-.29.79-.3.34-.02.7.13,1.02-.09h.09s.09.03.09.03c-.17.34-.22.73-.5,1.01Z"/>
    <path class="cls-7" d="m208.99,23.79c.22-.42.5-.87,1.05-1.05.1-.03.25.04.35.11.15.1.07.25-.01.34-.29.33-.59.66-.9.98-.1.1-.24.12-.36.03-.12-.08-.16-.2-.12-.41Z"/>
    <path class="cls-7" d="m208.38,53.08c-.02.33-.39.62-.93.71-.18.03-.36-.06-.39-.28-.03-.24-.25-.55.12-.7.27-.11.63-.02.77-.41.04-.1.23-.14.36-.06.13.08.15.2.13.34,0,.04-.01.09-.06.39Z"/>
    <path class="cls-7" d="m198.72,50.38c.06-.06.12-.15.19-.16.26-.04.41.15.55.33.18.23.33.19.54.02.14-.11.36-.11.44.1.08.2.12.42.16.64,0,.01-.06.07-.09.06-.09-.01-.2-.01-.25-.07-.36-.44-.85-.56-1.37-.63-.1-.01-.27-.1-.17-.29Z"/>
    <path class="cls-7" d="m273.35,5.1c.12-.19.22-.4.36-.56.2-.22.53-.18.69.06.19.29.17.56-.06.71-.15.1-.32.18-.49.22-.12.03-.29.02-.37-.05-.08-.07-.09-.24-.13-.38Z"/>
    <path class="cls-7" d="m267.8,34c-.11-.11-.2-.16-.22-.24-.02-.07,0-.19.05-.24.31-.28.68-.4,1.09-.4.07,0,.16.08.2.15.04.07.05.2.01.24-.31.37-.73.46-1.14.49Z"/>
    <path class="cls-7" d="m275.75,5.19c.06-.06.17-.19.31-.29.2-.15.36-.44.67-.24.24.15.07.58-.33.84-.15.1-.32.16-.49.1-.13-.05-.2-.16-.16-.41Z"/>
    <path class="cls-7" d="m217.89,44.19c.1-.35.38-.68.74-.94.05-.04.18-.02.24.02.06.03.15.14.14.19-.11.49-.33.91-.86,1.05-.11.03-.25-.07-.27-.32Z"/>
    <path class="cls-7" d="m271.91,5.44c.02-.05.04-.11.04-.16.12-.3.31-.54.61-.68.17-.08.36-.05.49.1.13.16.1.34-.04.48-.22.23-.46.44-.79.47-.15.01-.24-.09-.31-.21Z"/>
    <path class="cls-7" d="m214.31,50.16c-.08.24-.08.52-.33.67-.29-.03-.54.43-.84.08-.17-.2.07-.49.58-.68.19-.07.37-.27.6-.06Z"/>
    <path class="cls-7" d="m265.42,34.22c.04-.26.28-.42.69-.42.19,0,.35.09.35.3,0,.1-.11.25-.2.29-.2.08-.42.11-.63.12-.16,0-.2-.14-.21-.29Z"/>
    <path class="cls-7" d="m211.91,21.98c.19,0,.26.11.27.25,0,.27-.24.52-.48.47-.09-.02-.22-.16-.23-.26-.03-.25.2-.46.45-.46Z"/>
    <path class="cls-7" d="m237.58,41.78c-.23.17-.02.41-.1.6-.05.11-.13.27-.22.29-.09.02-.26-.08-.31-.18-.09-.16-.07-.34.09-.47.16-.13.45.04.56-.23h0Z"/>
    <path class="cls-7" d="m212.76,22.22c-.18-.09-.24-.23-.18-.42.05-.14.17-.19.3-.16.23.05.34.3.21.49-.07.1-.22.14-.34.09Z"/>
    <path class="cls-7" d="m312.07,15.18c-.67-.08-1.33-.21-2.22-.56.9-.12,1.47.15,2.06.27.05.1.11.19.16.29Z"/>
    <path class="cls-7" d="m256.33,62.94c-.26.12-.52.09-.76-.05-.1-.06-.23-.2-.22-.28.03-.21.22-.23.4-.19.13.03.26.06.39.1.06.14.12.28.19.42Z"/>
    <path class="cls-8" d="m201.03,42.84s-.3-.82.24-1.61.67-.49.71-.23.4.91.25,1.21-.22.8-.66.98-.33.24-.54-.35Z"/>
    <path class="cls-8" d="m202,42.34s.2.29.51.27l.32-.02s-.32.83.56,1.9.55,1.73.87,2.11c0,0,.54.76.25-.32s.14-.95-.46-1.65-1.2-1.74-.85-1.96.36-.58,1.94-.8c1.58-.21,1.8-.73,1.88-1.07s.46-1.24.3-1.17-.21-.24-.7.21c0,0,.14.65-.5.93s-1.5.66-2.24.71c-.74.05-.8.75-.8.75,0,0-.92.24-.92-.26l-.15.37Z"/>
    <path class="cls-6" d="m198.05,30.03s-1.78-3.02-2.36-3.39c-.82-.52-1.53-1.42.23-1.42,1.76,0,3.29.43,3.9.83.61.4,1.16.54.9,1.02s-1.4,1.18-1.53,1.64-.63,2.24-1.14,1.32Z"/>
    <path class="cls-7" d="m201.18,45.35c-.06.05-.13.09-.17.15-1.83,2.8-3.58,5.64-4.79,8.71-.06.14-.13.28-.22.42-.06.1-.15.17-.26.13-.1-.04-.11-.16-.08-.26.08-.26.17-.51.28-.76.22-.5.44-1,.67-1.5.06-.14.13-.29.21-.42l.87-1.65c.16-.43.44-.84.69-1.24.81-1.32,1.58-2.66,2.55-3.88,0,0,.39-.31.25.31Z"/>
    <path class="cls-7" d="m199.99,51.94c-.33,1.23-.67,2.51-1.01,3.79-.1.36-.21.73-.34,1.09-.04.11-.15.17-.26.17-.13,0-.13-.13-.1-.23.31-1.21.62-2.42.93-3.63.1-.4.21-.8.32-1.2l.3-1.02c.2-.66.38-1.32.57-1.98.09-.29.19-.58.3-.87.06-.15.2-.31.32-.3.13.01.13.18.08.35-.25.84-.5,1.68-.74,2.52-.05.18-.08.36-.15.65l-.22.67Z"/>
    <path class="cls-7" d="m205.22,37.2c-.03-.07-.07-.15-.08-.22-.23-3.34-.38-6.67.07-9.94.02-.15.02-.31.01-.47,0-.12-.05-.22-.16-.24-.11-.01-.17.08-.2.19-.05.26-.1.53-.13.8-.06.54-.1,1.09-.15,1.64-.01.16-.03.31-.02.47l-.05,1.86c-.07.45-.03.94,0,1.42.06,1.54.08,3.09.33,4.63,0,0,.19.46.37-.15Z"/>
    <path class="cls-7" d="m207.39,30.87c.32-1.24.65-2.52.97-3.8.09-.37.17-.74.24-1.12.02-.12-.05-.22-.15-.27-.12-.06-.18.05-.2.15-.32,1.21-.64,2.41-.96,3.62-.1.4-.21.8-.31,1.2l-.23,1.04c-.15.67-.32,1.33-.47,2-.07.3-.12.6-.17.9-.02.16.02.37.13.42.12.05.2-.09.24-.26.19-.86.38-1.71.58-2.56.04-.18.1-.36.19-.64l.13-.7Z"/>
    <path class="cls-7" d="m209.69,33.38c.38-.87.78-1.77,1.17-2.68.11-.26.21-.52.31-.79.03-.08,0-.17-.07-.22-.08-.06-.13.01-.17.09-.38.85-.76,1.7-1.14,2.54-.13.28-.25.56-.37.85l-.3.74c-.19.47-.39.94-.58,1.41-.08.21-.16.43-.23.64-.04.12-.03.27.04.32.08.05.16-.04.21-.16.24-.61.49-1.21.74-1.81.05-.13.12-.25.21-.45l.18-.49Z"/>
    <path class="cls-6" d="m211.32,40.12c.04.08-.02-.05,0,.01.03.07.06.14.08.21.09.25.17.51.23.76.19.76.26,1.56.18,2.34-.18,1.74-1.19,3.42-2.81,4.15-.29.13-.24.36.04.46.35.12.82.06,1.15-.09,3.05-1.38,4.05-5.22,2.69-8.15-.18-.4-1.78-.18-1.56.3h0Z"/>
    <path class="cls-7" d="m201.91,35.55s-.37,3.02.3,3.35.27-1.24.34-2.07.08-2.58-.65-1.28Z"/>
    <path class="cls-7" d="m203.36,35.83s-2.66,1.48-2.52,2.22,1.16-.51,1.87-.95,2.13-1.46.65-1.27Z"/>
    <path class="cls-7" d="m198.62,42.77s-.37,3.02.3,3.35.27-1.24.34-2.07.08-2.58-.65-1.28Z"/>
    <path class="cls-7" d="m200.07,43.05s-2.66,1.48-2.52,2.22,1.16-.51,1.87-.95c.71-.44,2.13-1.46.65-1.27Z"/>
  </g>
  <path class="cls-1" d="m17.67,53.29s25.19,7.1,42.48,4.26c2.47-.41,4.78-1.01,6.83-1.87,16.4-6.89,17.62-10.07,9.86-10.27-7.76-.2-37.45,12.64-15.23,18.3,22.21,5.66,25.75-7.69,52.14-7.73,26.39-.04,27.05,10.86,49.14,4.66"/>
  <path class="cls-5" d="m177.74,33.08c-.68.36-1.26-.94-1.31-1.39-.1-.76.14-1.52.47-2.19.6-1.22,1.55-2.28,2.73-2.96.46-.26.89-.44,1.33-.07.24.2.45.46.62.73.37.57.6,1.21.69,1.88.17,1.27-.15,2.55-.94,3.56l.99-.05c-1.33-.96-.36-2.72.83-3.24.39-.17.84-.3,1.22-.04.31.21.51.6.6.95.21.83-.08,1.68-.35,2.46h1.05c-.21-.28-.3-.59-.25-.94s.31-.86.72-.87.73.48.82.81c.11.38.05.78-.13,1.13-.15.28.91.39,1.05.11.69-1.33-.38-2.49-1.74-2.49-.58,0-1.21.18-1.56.67s-.34,1.21.03,1.7c.14.19.95.28,1.05,0,.36-1.03.75-2.22.12-3.23-.56-.9-1.7-1.02-2.65-.81s-1.89.73-2.32,1.6-.21,1.86.56,2.41c.22.16.81.18.99-.05.88-1.12,1.21-2.6.92-3.99-.25-1.26-1.07-2.8-2.48-2.97s-2.8.82-3.75,1.81c-1,1.05-2.03,2.74-1.72,4.26s2.03,2.1,3.31,1.43c.23-.12-.1-.27-.2-.3-.24-.07-.53-.03-.74.08h0Z"/>
  <path class="cls-5" d="m206.92,11.1c.41,2.25-.19,4.81-1.79,6.49-.05.06-.11.11-.17.16.37.09.48.07.33-.05-.05-.12-.16-.22-.21-.36-.1-.28-.16-.62-.11-.91.02-.16.08-.32.17-.45l.12-.13c-.2-.08-.2-.06,0,.05.22.19.29.49.3.76.02,1.07-.71,2.81-1.88,3.03-.14.03-.43.1-.36.3.07.18.56.12.68.1,1.44-.27,2.19-1.43,2.53-2.77.15-.59.21-1.27-.32-1.69-.46-.37-1.22-.32-1.72-.04-.99.57-.79,2.56.47,2.6.72.02,1.14-.42,1.55-.96s.75-1.12,1-1.74c.59-1.41.76-2.97.49-4.48-.06-.32-1.14-.2-1.08.09h0Z"/>
  <path class="cls-5" d="m106.8,39.1c4.16-2.41,7.28-5.74,8.93-9.51.18-.4-1.25-.59-1.55-.54-4.17.6-5.45,3.93-5.31,6.75.09,1.95.43,3.88.44,5.85.01,2.02-.18,4.03-.53,6.04-.08.47,1.84.78,1.91.39.61-3.46.62-6.89.23-10.34-.31-2.73-.25-7.31,4.45-7.99l-1.55-.54c-1.63,3.73-4.69,6.99-8.81,9.37-.41.24,1.3.82,1.78.54h0Z"/>
  <path class="cls-5" d="m119.99,30.33c-.82.84-1.42,1.78-1.75,2.8-.04.11.12.22.21.27.18.11.43.18.65.22s.48.08.71.04c.12-.02.32-.04.36-.16.26-.81.7-1.58,1.28-2.28l-.06.07c.13-.15.26-.3.41-.45.24-.24-.32-.44-.54-.5-.24-.07-.5-.12-.75-.11-.14,0-.41,0-.5.1h0Z"/>
  <path class="cls-5" d="m121.17,38.44c-.07,1.97.42,4.2-.86,5.89l1.96.04c.2-.91.66-1.74,1.28-2.43.3-.33.65-.61,1.02-.85.17-.11.35-.21.54-.29.1-.05.21-.09.31-.13.24-.09.34.03-.22-.03l-.6-.16c.16.11.01.61-.03.74-.1.29-.25.58-.38.86-.29.62-.58,1.25-.87,1.87-.25.54,1.66.64,1.93.15,1-1.85,2.54-3.37,4.44-4.29-.57-.07-1.14-.15-1.71-.22.06.98-.54,1.8-.83,2.7-.11.36-.34.98,0,1.27.5.44,1.5.31,2.1.24.22-.03.86-.17.68-.51s-.96-.27-1.24-.24c-.01,0-.04.01-.05.01l.36.13c-.14-.07.08-.76.12-.87.11-.32.25-.62.39-.93.27-.59.51-1.21.47-1.88-.02-.25-.46-.32-.63-.34-.34-.05-.77-.03-1.09.12-2.09,1.01-3.83,2.62-4.94,4.66l1.93.15c.27-.58.53-1.15.8-1.73.23-.49.53-1.01.59-1.55.17-1.54-2.18-.88-2.97-.53-1.72.78-3,2.31-3.41,4.16-.07.31.75.36.88.36.34,0,.86-.02,1.08-.32,1.33-1.76.86-4.06.93-6.11.02-.54-1.97-.53-1.99.07h0Z"/>
  <path class="cls-5" d="m146.76,38.29c-.24-.47-.75-.73-1.24-.85-.69-.17-1.46-.17-2.12.11-.71.3-2.05,1.37-1.5,2.28.26.42.81.66,1.21.91s.81.51,1.06.93c.21.36.32.86.06,1.23-.1.14-.24.25-.36.3-.04.01-.08.03-.12.04-.13.04.1-.02-.04,0-.03,0-.2.03-.09.02s-.11,0-.13,0c.05,0,.23,0,0,0-.09,0-.18,0-.27-.01-.02,0-.24-.02-.13-.01.07,0-.19-.03-.18-.03-.2-.03-.44-.08-.6-.16-.39-.19-.75-.67-.55-1.13.15-.35-.42-.49-.67-.53s-.52-.05-.77,0c-.13.03-.41.08-.47.21-.51,1.16.75,1.91,1.7,2.17.65.18,1.33.27,2.01.28.59,0,1.21-.03,1.76-.26.48-.2.88-.51,1.01-1.03.11-.44-.06-.95-.31-1.32-.31-.45-.76-.76-1.22-1.04-.21-.13-.43-.25-.63-.39-.18-.12-.38-.23-.41-.46-.06-.49.48-1,.84-1.25.02-.01.32-.21.34-.18,0,0-.34-.01-.35-.01-.05,0-.1-.07-.05-.01.04.05,0-.02.08.05s.14.16.2.26c.26.51,2.19.39,1.93-.11h0Z"/>
  <path class="cls-5" d="m148.94,34.64l.19.16c.06.05.12.09.2.11.09.04.19.06.29.06.13.01.25,0,.37,0,.13,0,.26-.03.39-.07l.23-.08c.12-.05.23-.11.33-.2l.09-.11c.04-.08.03-.15-.03-.21l-.19-.16c-.06-.05-.12-.09-.2-.11-.09-.04-.19-.06-.29-.06-.13-.01-.25,0-.37,0-.13,0-.26.03-.39.07l-.23.08c-.12.05-.23.11-.33.2l-.09.11c-.04.08-.03.15.03.21h0Z"/>
  <path class="cls-5" d="m149.33,36.46c-.29,2.02-.45,4.05-.49,6.09,0,.29.41.46.63.53.34.11.8.21,1.14.06.29-.13.55-.31.76-.56.37-.45-1.46-1.06-1.83-.62-.15.18-.31.32-.52.41.59.2,1.18.4,1.77.59.03-2.04.2-4.07.49-6.09.05-.36-.64-.55-.89-.6-.2-.04-1.01-.18-1.06.18h0Z"/>
  <path class="cls-5" d="m158.79,36.94c-1.11-.74-2.74-.76-3.9-.13-.9.48-1.44,1.46-1.62,2.44-.11.6-.09,1.22-.01,1.82.06.48.12,1.08.42,1.48.48.64,1.46.71,2.18.57.54-.1,1.07-.31,1.52-.61.93-.6,1.59-1.55,1.78-2.64.02-.14-.2-.26-.28-.29-.21-.1-.48-.14-.7-.15-.27,0-.95-.01-1.01.35-.13.69-.46,1.31-.95,1.81-.24.24-.52.44-.81.6-.1.05-.24.11-.39.16-.2.07-.09.02.26.07.39.04.41.14.32-.02-.18-.3-.24-.63-.3-.97-.07-.47-.12-.94-.1-1.41.03-.79.24-1.55.75-2.17.24-.29.54-.52.88-.64.09-.03.02,0,0,0,.02,0,.24-.04.13-.03-.1,0,.04,0,.05,0-.05.03-.16,0-.02,0-.04,0-.09-.02-.14-.02-.12,0,.13.04,0,0,.09.03.15.06.21.11.38.25.92.29,1.36.2.21-.04.77-.27.38-.53h0Z"/>
  <path class="cls-5" d="m162.16,29.91c.16,2.07.15,4.16-.05,6.23-.1,1-.24,1.99-.42,2.97-.1.53-.21,1.06-.33,1.58-.09.38-.14,1.19-.43,1.43l1.48-.07-.07-.02.43.29-.02.1c.34-.44-1.53-.89-1.89-.42l-.04.05c-.06.07-.06.14-.02.21.2.45.99.52,1.41.5.64-.04.76-.36.9-.93.33-1.27.59-2.55.78-3.84.38-2.59.45-5.22.25-7.83-.05-.62-2.02-.71-1.98-.22h0Z"/>
  <path class="cls-5" d="m165.7,36.37c-.06.43-.12.91-.35,1.28-.04.06-.13.16-.16.19.02-.02-.11.05-.03.02.05-.02.1-.05.15-.06.07-.02.13-.03.2-.04s.1.03.06,0c-.02-.02-.16-.06-.24-.09-.25-.13-.63-.06-.88,0-.27.06-.61.17-.8.38-.37.43.02.83.32,1.15.39.42.78.84,1.18,1.26.73.76,1.46,1.75,2.62,1.72.42-.01,1-.1,1.3-.44s-.22-.46-.47-.45c-.22,0,.05.03-.06-.02-.08-.03-.14-.07-.21-.12-.14-.1-.27-.22-.39-.34-.33-.32-.65-.65-.96-.99s-.64-.68-.96-1.02c-.15-.16-.3-.31-.44-.48-.04-.04-.18-.25-.16-.27-.56.13-1.12.25-1.68.38.88.45,2.15.19,2.93-.35.67-.46.85-1.19.96-1.95.05-.38-.54-.36-.79-.33s-.51.09-.74.21c-.12.06-.37.18-.39.33h0Z"/>
</svg>