<?xml version="1.0" encoding="UTF-8"?>
<svg id="bg" xmlns="http://www.w3.org/2000/svg" viewBox="0 0 87.4 62.2">
  <defs>
    <style>
      .cls-1 {
        fill: #ffe0c5;
      }

      .cls-2 {
        fill: #ffaf5f;
      }

      .cls-3 {
        fill: #fff;
      }

      .cls-4 {
        fill: #ffc9a2;
      }

      .cls-5 {
        fill: #ff8335;
      }

      .cls-6 {
        fill: #14333d;
      }

      .cls-7 {
        fill: #604c3f;
      }
    </style>
  </defs>
  <g>
    <path class="cls-2" d="m27,22.92s-.84-.32-2.19-.62c-1.51-.34-3.66-.66-5.95-.49-4.34.33-7.1,1.12-7.1,1.12-2.62-6.21-2.24-16.41,4-20.64,1.37-.93,3.03-1.57,5.01-1.81,10.95-1.35,15.48,17.24,6.23,22.44Z"/>
    <path class="cls-7" d="m27.2,22.67c-4.87-1.8-10.59-1.38-15.52,0l.43.16C8.92,15.11,10.36,2.36,20.34.8c7.17-1.12,11.36,6.47,11.26,12.7-.06,3.64-1.51,7.31-4.77,9.2-.42.25-.04.65.32.44,6.3-3.64,6.4-12.71,2.79-18.3C28.13,2.04,25.21.09,21.8.14c-4.87.07-8.9,3.22-10.67,7.65-1.9,4.76-1.69,10.53.26,15.24.07.17.27.2.43.16,4.75-1.34,10.27-1.75,14.97-.02.32.12.85-.34.42-.5Z"/>
  </g>
  <g>
    <path class="cls-5" d="m86.47,29.5c0,6.69-4.99,12.46-10.73,15.9-5.74,3.44-16.94,4.87-23.02,7.68-1.79.82-4.53,3.15-4.53,4.64,0,1.84,1.89,2.41,3.78,3.55-1.95.46-3.59.22-4.86-.49-1.53-.85-2.72-2.52-2.52-4.26.15-1.33,1.07-2.46,2.06-3.36,3.98-3.64,10.28-5.29,15.52-6.56,5.67-1.38,8.91-2.33,13.87-5.88,2.37-1.69,6.04-6.49,7.07-9.22,1.03-2.73.2-6.35-2.46-7.54-1.43-.64-3.07-.49-4.64-.49-1.57,0-3.3-.26-4.31-1.46-.3-.35-.51-.67-.65-.96,2.53-.26,5.1-.15,7.59.35,2.79.56,5.72,1.79,7.04,4.32.6,1.15.8,2.49.8,3.79Z"/>
    <path class="cls-7" d="m86.1,29.6c-.11,8.44-7.47,15.07-14.92,17.74-3.7,1.32-7.55,2.2-11.33,3.24-2.94.81-6.23,1.56-8.78,3.31-1.17.8-3.01,2.18-3.22,3.73-.29,2.06,2.41,2.97,3.79,3.78l.41-.24c-2.91.61-6.93-.62-7.1-4.17-.14-2.98,3.41-5.17,5.69-6.39,4.89-2.62,10.42-3.42,15.68-4.97,4.11-1.21,8.41-3.15,11.51-6.2,1.57-1.54,2.94-3.3,4.13-5.15,1.07-1.66,1.99-3.42,1.94-5.45-.06-2.38-1.34-4.66-3.75-5.28-3.07-.79-6.86.8-8.74-2.6l-.52.23c3.52-.33,7.41-.13,10.68,1.36,3,1.36,4.49,3.79,4.55,7.06,0,.09.73,0,.72-.19-.06-3.62-1.91-6.1-5.25-7.38s-6.93-1.43-10.37-1.1c-.05,0-.58.12-.52.23,1.31,2.37,3.73,2.46,6.17,2.45,1.58-.01,3.27.06,4.52,1.16.95.84,1.51,2.05,1.71,3.29.39,2.37-.6,4.43-1.84,6.37-1.32,2.05-2.88,4.07-4.71,5.69-8.25,7.26-20.43,5.65-29.05,12.14-2.26,1.71-4.45,4.37-2.41,7.14,1.62,2.2,4.35,2.52,6.84,1.99.03,0,.54-.16.41-.24-1.41-.83-4.21-1.8-3.7-3.93.39-1.62,2.39-3.03,3.74-3.81,3.21-1.85,7.22-2.57,10.76-3.51s6.85-1.77,10.11-3.13,6.25-3.49,8.66-6.08c2.89-3.11,4.89-6.99,4.95-11.29,0-.09-.72,0-.72.19Z"/>
  </g>
  <g>
    <path class="cls-1" d="m76.43,31.43c-1.5,3.5-4.6,6.11-8.03,7.77-3.42,1.66-7.19,2.46-10.91,3.24-10.47,2.17-21,4.19-31.62,5.49-4.74.58-9.5,1.02-14.28,1.25-5.17.26-13.09.58-10.61-6.66,1.94-5.67,4.62-11.34,8.05-16.27,4.17-5.98,9.5-11.13,15.52-15.23C33.49,4.94,44.42,1.04,55.1,2.69c.16.03.32.05.48.08,10.5,1.81,20.24,9.92,21.74,20.46.39,2.76.22,5.64-.88,8.19Z"/>
    <path class="cls-7" d="m76.07,31.48c-2.96,6.64-10.27,8.99-16.83,10.41-7.37,1.6-14.79,3.03-22.24,4.25-7.39,1.21-14.82,2.17-22.3,2.67-2.44.16-4.9.35-7.35.25-1.83-.07-4.11-.27-5.49-1.64-1.73-1.71-.78-4.29-.07-6.24,1.21-3.34,2.65-6.61,4.36-9.73,3.24-5.92,7.53-11.21,12.6-15.67C28.7,7.04,42.52.4,56.05,3.09c6.11,1.21,11.87,4.54,15.88,9.32,4.3,5.12,6.78,12.62,4.14,19.08-.08.2.63.12.72-.1,2.4-5.88.56-12.73-3.01-17.73-3.38-4.74-8.44-8.24-13.95-10.05-12.91-4.25-27.03,1.03-37.49,8.74-5.67,4.18-10.67,9.32-14.53,15.22-2.05,3.13-3.78,6.48-5.25,9.92-.73,1.72-1.43,3.47-2,5.25-.32,1.01-.55,2.11-.34,3.17.77,3.92,6.63,3.64,9.6,3.54,7.53-.26,15.05-1.11,22.5-2.21,7.97-1.18,15.89-2.71,23.78-4.33,6.49-1.34,13.64-2.68,18.3-7.84.99-1.1,1.78-2.33,2.38-3.68.09-.19-.62-.12-.72.1Z"/>
  </g>
  <circle class="cls-3" cx="15.81" cy="33.74" r="5.29"/>
  <path class="cls-6" d="m19.51,33.74c0,2.04-1.66,3.7-3.7,3.7s-3.7-1.66-3.7-3.7,1.66-3.7,3.7-3.7,3.7,1.66,3.7,3.7Z"/>
  <g>
    <path class="cls-4" d="m76.43,31.43c-1.5,3.5-4.6,6.11-8.03,7.77-3.42,1.66-7.19,2.46-10.91,3.24-10.47,2.17-21,4.19-31.62,5.49.95-.31,1.9-.62,2.84-.95,12-4.17,22.83-11.6,28.62-23.24.89-1.79,1.59-3.67,2-5.63,1-4.76-.07-9.69-2.65-13.78-.34-.54-.73-1.05-1.12-1.55,10.5,1.81,20.24,9.92,21.74,20.46.39,2.76.22,5.64-.88,8.19Z"/>
    <path class="cls-7" d="m76.07,31.48c-3.83,8.58-14.43,9.96-22.57,11.61-9.14,1.85-18.31,3.52-27.57,4.66v.34c7.58-2.46,14.85-5.78,21.02-10.93,2.97-2.48,5.63-5.33,7.83-8.51,2.48-3.59,4.64-7.68,5.18-12.06.61-5-.99-9.98-4.04-13.94l-.56.32c6.33,1.13,12.29,4.41,16.47,9.32s6.92,12.7,4.25,19.21c-.08.2.63.12.72-.1,2.69-6.57.11-14.2-4.3-19.38S62.2,3.74,55.8,2.59c-.12-.02-.73.1-.56.32,11.54,14.95-3.83,32.41-16.94,39.64-3.96,2.19-8.16,3.82-12.46,5.21-.3.1-.46.39-.01.34,10.16-1.25,20.22-3.14,30.24-5.2,7.74-1.59,17.15-3.49,20.73-11.52.08-.19-.62-.12-.72.1Z"/>
  </g>
  <g>
    <rect class="cls-5" x="21.85" y="36.45" width="15.77" height="1.2" transform="translate(-2.17 1.85) rotate(-3.43)"/>
    <rect class="cls-5" x="23.91" y="39.52" width="11.78" height="1.2"/>
    <polygon class="cls-5" points="29.76 43.88 23.03 43.08 23.17 41.89 29.9 42.69 29.76 43.88"/>
  </g>
  <g>
    <path class="cls-5" d="m38.88,30.82s-.69-.75-1.89-1.73c-1.35-1.11-3.34-2.51-5.74-3.49-4.53-1.86-7.72-2.46-7.72-2.46.55-7.58,6.17-17.66,14.63-18.75,1.86-.24,3.86-.05,5.97.7,11.71,4.17,6.73,25.17-5.25,25.74Z"/>
    <path class="cls-7" d="m39.23,30.7c-2.09-2.24-4.82-4.05-7.63-5.22-1.59-.66-3.22-1.24-4.87-1.73-.56-.17-1.13-.33-1.7-.47-.22-.06-.86-.09-1.03-.24-.42-.38.29-2.75.45-3.4.35-1.42.83-2.81,1.42-4.15,1.22-2.77,2.93-5.37,5.15-7.43,2.84-2.63,6.48-4.11,10.38-3.47,2.64.43,5.12,1.61,6.77,3.76,2.62,3.41,2.73,8.23,1.56,12.21-1.44,4.93-5.21,9.8-10.69,10.12-.18.01-.79.3-.32.27,8.08-.48,12.96-9.09,12.39-16.56-.29-3.84-2.22-7.47-5.83-9.11-4.83-2.19-10.34-1.06-14.32,2.29-4.51,3.79-7.33,9.82-7.8,15.65.01.02.03.04.06.04,5.55,1.07,11.4,3.48,15.31,7.67.12.13.78-.14.68-.24Z"/>
  </g>
  <path class="cls-2" d="m39.71,30.46s-.86-1.03-2.06-2.01h0c11.17-9.47,9.76-18.52.5-23.66,1.86-.24,3.95-.14,6.07.61,11.71,4.17,6.39,23.72-4.5,25.06Z"/>
  <path class="cls-5" d="m3.81,37.63s2.47,4.61,2.52,6.82c.06,2.38-.69,4.02-1.58,4.09,0,0-3.74-1.19-3.41-4.17s2.46-6.73,2.46-6.73Z"/>
</svg>