<?xml version="1.0" encoding="UTF-8"?>
<svg xmlns="http://www.w3.org/2000/svg" viewBox="0 0 332.15 80">
  <defs>
    <style>
      .cls-1 {
        stroke-dasharray: 0 0 6.03 6.03;
      }

      .cls-1, .cls-2 {
        fill: none;
        stroke: #f0cb9c;
        stroke-linecap: round;
        stroke-miterlimit: 10;
        stroke-width: 2px;
      }

      .cls-3 {
        fill: #e7dad2;
      }

      .cls-4 {
        fill: #e9dcd4;
      }

      .cls-5 {
        fill: #655142;
      }

      .cls-6 {
        fill: #9c8b83;
      }

      .cls-7 {
        fill: #a19088;
      }

      .cls-8 {
        fill: #241914;
      }

      .cls-9 {
        fill: #5c4c43;
      }

      .cls-10 {
        fill: #7b685d;
      }
    </style>
  </defs>
  <g id="bg">
    <g>
      <path class="cls-2" d="m1.66,62.41c1.01-.04,2.01-.08,3-.12"/>
      <path class="cls-1" d="m10.68,61.96c66.33-4.18,69.74-25.11,71.48-30.59.27-.86.51-1.72.64-2.6,1.66-11.65-8.51-24.42-19.29-16.22-9.22,7.01-2.49,18.65-2.49,18.65,18.15,32.29,127.91,6.52,127.91,6.52,0,0,16.28-3.91,12.96,10.46-3.32,14.37-12.24,10.25-23.31,9.75,0,0-12.97-6.34-23.75-2.91"/>
      <path class="cls-2" d="m152.04,56.16c-.87.45-1.72.98-2.54,1.6"/>
    </g>
    <g>
      <g>
        <path class="cls-4" d="m193.37,41.1c.86-.15,1.72-.3,2.57-.46-.14-.15-.21-.29.03-.4.16-.08.33-.15.49-.23.45-.1.54-.43.36-.76-.4-.74-.12-1.4.14-2.07.24-.64.65-1.16,1.06-1.7.56-.76.5-.95-.34-1.61-1.02.06-1.94.45-2.86.84-.48.21-.94.47-1.48.48h.03c-.2.22-.48.2-.75.2-.46-.05-.83.2-1.22.39-.86.42-1.74.82-2.58,1.27-.69.38-1.38.66-2.19.53-.22-.03-.46.11-.69.17-.04.29-.08.58-.11.87.06.04.18.07.18.11.02.15-.07.22-.22.18-.03.19-.05.39-.08.58.26.15.41.39.51.67.12.33.3.59.63.75-.05.12-.01.18.11.21v.02c1.43.55,2.87.81,4.38.44.62-.4,1.3-.55,2.03-.47Z"/>
        <path class="cls-7" d="m185.79,38.9c.16.04.24-.03.22-.18,0-.05-.12-.08-.18-.11-.01.1-.03.19-.04.29Z"/>
        <path class="cls-6" d="m197.15,33.34c1.86-.72,3.71-1.46,5.57-2.15,1.69-.63,3.43-1.06,5.22-1.33,1.82-.28,3.65-.57,5.46-.92,1.33-.26,2.67-.54,3.94-1.04,1.56-.61,3.18-.85,4.86-.77.63.03,1.27.06,1.89,0,1.74-.17,3.48-.33,5.21-.6,1.72-.27,3.5-.03,5.19-.58.18-.06.39-.03.58-.03.92-.02,1.85-.07,2.77-.06,2.33.04,4.67,0,6.97.49,1.68.35,3.37.5,5.08.36,2.18-.18,4.3-.44,6.17-1.85,1.76-1.32,3.89-1.69,6.08-1.62-.02.11-.04.22-.06.33-.76.44-1.18,1.14-1.43,1.95-.19.62.06,1.06.71,1.18.91.17,1.82.31,2.74.39,1.6.15,2.93-.56,4.16-1.48.39-.3.62-.75.79-1.21.23-.64.48-1.27.56-1.96.03-.3.12-.57.4-.74.29.03.59.06.88.1.15.16.32.28.55.25.84.55,1.75.77,2.76.76,2.02-.03,3.96.41,5.87,1.05.42.14.81.31,1.19.52,1.23.67,2.77.63,3.64-.32.49-.54,1.04-1.03,1.59-1.51,2.26-1.97,4.81-3.49,7.52-4.72,2.7-1.23,5.47-2.31,8.21-3.45.27-.11.54-.23.82-.3.82-.22,1.34.05,1.56.85.23.8.26,1.63.17,2.46-.17,1.61-.56,3.16-1.05,4.7-.25.79-.54,1.56-.83,2.34-.12.31-.1.56.12.81.16.18.31.37.49.54,1.11,1.04,2.05,2.21,2.81,3.53.14.25.32.49.53.69.29.27.62.47,1.06.32.18-.06.38-.09.57-.12,2.17-.44,4.34-.53,6.53-.16.59.1,1.18.22,1.42.85.29.75-.26,1.17-.71,1.61-.87.86-1.84,1.59-2.9,2.21-1.46.85-2.65,1.94-3.48,3.45-.53.98-1.19,1.91-2.05,2.64-1.64,1.39-3.36,2.67-5.18,3.79-1.44.88-2.98,1.13-4.61.46-.49-.2-1-.38-1.52-.49-.77-.17-.89-.1-1.26.61-.57,1.09-1.19,2.14-2.1,2.97-1.86,1.72-4.03,2.89-6.52,3.42-2.71.58-5.43,1.14-8.14,1.7-1.81.38-3.64.68-5.5.49-.87-.09-1.75-.17-2.61-.28-.68-.09-1.35-.08-2.03.03-1.78.29-3.57.46-5.37.45-1.67,0-3.28.29-4.86.87-1.15.42-2.23.97-3.28,1.58-2.12,1.23-4.31,2.24-6.77,2.6-2.51.36-5.03.51-7.56.58-1.12.03-2.25.02-3.31-.42-.45-.19-.91-.36-1.33-.6-.77-.44-1.72-.09-2.23.53-.24.29-.43.65-.55,1.02-.47,1.41-.54,2.86-.39,4.33.06.62.33,1.11.75,1.54,1.1,1.11,2.41,1.75,4,1.89,1.85.16,3.6-.16,5.28-.87,3.4-1.44,6.9-2.68,10.08-4.62.09.12.19.24.28.36-.55.54-1.1,1.06-1.54,1.71-.56.84-.83,1.74-.72,2.73.1.88.19,1.71-.46,2.45-.07.08,0,.28,0,.42h0c-.11.09-.21.17-.32.24-.58.25-1.16.49-1.74.74-1.78.78-3.57,1.54-5.34,2.35-1.57.72-3.23,1.03-4.94,1.11-1.07.05-2.17.07-3.16-.37-3.5-1.57-6.42-3.82-8.13-7.37-.51-1.06-1.15-2.02-1.81-2.99-.55-.8-1.22-1.18-2.22-1.03-1.97.29-3.9,0-5.72-.73-1.8-.73-3.57-.82-5.4-.19-.18.06-.37.11-.56.16q-.56-.71-1.27-.48c-.27.09-.55.2-.82.3-.59.22-1.14.5-1.68-.18-.24-.3-.72-.22-1.1-.19-.67.04-1.35.08-2.02-.07-.07-.02-.16-.11-.17-.19-.02-.07.02-.2.08-.24.54-.41,1.08-.8,1.62-1.21.39-.29.74-.62.94-1.08.15-.33.03-.68-.29-.87-.27-.16-.71.02-.86-.4,1.42-.76,2.69-1.74,4-2.67,3.58-2.55,7.33-4.78,11.47-6.32.77-.29,1.53-.62,2.3-.93.44-.18.67-.48.78-.96.39-1.78,1.04-3.44,2.23-4.85.13-.16.18-.34.08-.61-1.77-.21-3.38-1.01-5.01-1.75-.62-.28-1.21-.63-1.85-.86-1.68-.63-3.37-1.24-5.23-1.14-2.62.14-5.24.3-7.84.65-2.32.32-4.57.95-6.66,2.05-.67.35-1.35.52-2.09.55-.24-.12-.58-.09-.6-.48.45-.1.54-.43.36-.76-.4-.74-.12-1.4.14-2.07.24-.64.65-1.16,1.06-1.7.56-.76.5-.95-.34-1.61-.13-.22-.47-.23-.53-.52Zm88.1,9.78c.31.14.58.48.92.4.7-.16,1.16.18,1.71.53,2.1,1.34,4.29,1.38,6.52.3.28-.14.49-.32.63-.58.27-.52.54-1.03.66-1.61.11-.52.28-1.03.42-1.55.16-.61.49-1.05,1.11-1.24.09-.03.18-.08.27-.12.81-.38,1.12-1.06,1.04-1.91-.06-.63-.09-1.27-.34-1.86-.13-.31-.06-.56.15-.8.38-.44.76-.89,1.12-1.35.15-.19.28-.4.36-.62.1-.3.02-.57-.23-.79-.2-.17-.44-.22-.68-.13-.22.08-.43.21-.64.34-.46.28-.92.54-1.36.85-.64.44-1.26.63-2.04.3-.65-.28-1.35-.2-1.96.19-.39.25-.71.15-1.09-.02-.59-.25-1.13-.58-1.58-1.03-1.45-1.44-3.3-2.11-5.21-2.45-1.42-.25-2.82-.68-4.28-.72-.43-.01-.87-.12-1.29-.24-1.24-.34-2.48-.39-3.74-.14-.62.12-1.25.14-1.89.1-.87-.05-1.75,0-2.62.04-1.31.07-2.62.09-3.93-.02-1.5-.12-3-.12-4.5.15-1.91.35-3.85.52-5.8.56-1.6.03-3.2.22-4.79.46-.96.15-1.92.3-2.89.42-1.55.19-3.03.51-4.46,1.24-1.6.81-3.32,1.38-4.98,2.06-.59.24-1.17.48-1.74.75-1.18.56-2.07,1.44-2.74,2.55-.39.64-.62,1.33-.29,2.08.16.37.22.73.06,1.12-.37.91.04,1.6.92,2,.22.1.42.23.62.33.18.4-.16.65-.22.97-.11.64.05,1.18.56,1.55.39.28.82.54,1.26.71,2.02.78,4.11,1.19,6.28,1.12,1.97-.06,3.9.21,5.68,1.07,1.76.85,3.59,1.16,5.52,1.11,1.8-.05,3.6-.09,5.39-.13.15,0,.29,0,.44-.03.69-.13,1.11-.62,1.03-1.35-.2-1.91.76-3.24,2.13-4.36.26-.21.59-.36.82-.6.62-.63,1.37-.78,2.15-.51,1.36.48,2.78.43,4.17.45,1.52.02,2.98.36,4.55.43-.3.38-.57.13-.81.12-.34-.01-.68-.09-1.01-.11-.46-.02-.76.2-.72.51.06.38.38.39.66.43.24.04.48.05.73.08.41.05.71.2.91.61.16.34.43.64.69.93.49.55.95,1.11,1.14,1.84.13.51.49.69.97.72.49.03.97.09,1.46.11,2.07.09,3.79-1.24,4.19-3.27.13-.66.14-1.35.2-2.03.14,0,.28,0,.42.01Zm18.26-26.27c-.08-.55-.49-.88-1.02-.76-1.87.42-3.58,1.2-5.03,2.47-.44.39-.49.85-.08,1.28.86.91,1.77,1.79,2.68,2.66.17.16.41.24.63.34.48.21.71.16.99-.25.55-.81.93-1.7,1.22-2.62.25-.78.42-1.59.64-2.45,0-.18.01-.43-.02-.66Zm4.39,15.78c.28.87.56,1.75.85,2.62.08.23.4.28.63.14,1.44-.89,2.87-1.78,4.31-2.68.45-.28.91-.56,1.22-1.01.11-.16.15-.36.06-.55-.1-.19-.27-.29-.47-.27-1.88.13-3.77.22-5.6.74-.23.06-.46.16-.66.28-.15.1-.25.27-.34.36,0,.18-.03.28,0,.37Z"/>
        <path class="cls-3" d="m252.53,62.72c-.55.54-1.1,1.06-1.54,1.71-.56.84-.83,1.74-.72,2.73.1.88.19,1.71-.46,2.45-.07.08,0,.28,0,.42.5-.05,1-.1,1.5-.17.12-.02.22-.15.33-.23.27-.1.52-.24.8-.3,1.54-.34,3.09-.66,4.59-1.18.21-.07.47-.02.71-.03h-.03c.1-.07.2-.16.3-.24,1.38-.47,2.36-1.38,2.98-2.7.12-.26.3-.49.45-.73-.38-.25-.31-.68-.39-1.04-.26-1.22-.74-2.28-1.92-2.89-.2-.11-.35-.31-.53-.47-.56-.24-1.08-.06-1.59.15-.09.11-.15.29-.27.33-1.51.53-2.85,1.37-4.2,2.2Z"/>
        <path class="cls-3" d="m210.46,61.95q-.56-.71-1.27-.48c-.27.09-.55.2-.82.3-.59.22-1.14.5-1.68-.18-.24-.3-.72-.22-1.1-.19-.67.04-1.35.08-2.02-.07-.07-.02-.16-.11-.17-.19-.02-.07.02-.2.08-.24.54-.41,1.08-.8,1.62-1.21.39-.29.74-.62.94-1.08.15-.33.03-.68-.29-.87-.27-.16-.71.02-.86-.4-.71.17-1.34.5-1.92.95-.11.08-.22.16-.33.23l.03-.02c-.14.12-.27.28-.44.36-1.64.79-3.33,1.38-5.15,1.58h.03c-.19.06-.38.14-.57.21-.63-.05-1.17.25-1.71.49-.1.04-.14.22-.2.34-.21.43-.41.87-.64,1.29-.25.48-.36,1-.34,1.53.02.74.47,1.21,1.19,1.11.92-.13,1.82.02,2.73.01,1.1-.22,2.21-.28,3.32-.35.35.08.66-.09.98-.19,1.42-.48,2.82-.99,4.24-1.46,1.28-.42,2.56-.8,3.84-1.21.18-.06.34-.17.51-.25Z"/>
        <path class="cls-3" d="m262.08,23.57c-.76.44-1.18,1.14-1.43,1.95-.19.62.06,1.06.71,1.18.91.17,1.82.31,2.74.39,1.6.15,2.93-.56,4.16-1.48.39-.3.62-.75.79-1.21.23-.64.48-1.27.56-1.96.03-.3.12-.57.4-.74.17-.88-.37-1.57-.64-2.33-.14-.39-.55-.52-.96-.58-.09.3-.26.57-.59.48-.46-.12-.9-.31-1.33-.51-.21-.09-.16-.32-.15-.51-.67-.05-1.32-.05-1.86.44-.07.18-.12.38-.34.45v-.02c-.12,1.34-.4,2.66-.79,3.95-.16.52-.16.52-.84.52-.14,0-.29-.02-.43-.04Z"/>
        <path class="cls-10" d="m197.57,65.42c-.91.01-1.81-.14-2.73-.01-.72.1-1.17-.37-1.19-1.11-.02-.54.09-1.05.34-1.53.22-.42.43-.86.64-1.29-.96.53-1.53,1.31-1.53,2.44,0,.3-.13.55-.24.82-.22.54-.05.96.45,1.2.72.35,1.48.43,2.26.32.86-.12,1.72-.28,2.57-.41-.11-.25-.36-.29-.57-.41Z"/>
        <path class="cls-6" d="m258.58,60.05c.17.16.33.37.53.47,1.18.62,1.66,1.67,1.92,2.89.08.36,0,.79.39,1.04.31-.65.6-1.31.33-2.06-.23-.66-.64-1.17-1.19-1.58-.59-.44-1.25-.7-1.98-.77Z"/>
        <path class="cls-6" d="m257.73,68.12c-.24,0-.49-.05-.71.03-1.5.52-3.05.84-4.59,1.18-.28.06-.53.2-.8.3,1.98.34,3.85,0,5.57-1.03.2-.12.35-.32.52-.48Z"/>
        <path class="cls-7" d="m197.09,60.44c1.82-.2,3.52-.79,5.15-1.58.16-.08.29-.24.44-.36-.24,0-.49-.06-.71.01-1.43.45-2.85.92-4.27,1.39-.27.09-.56.17-.61.53Z"/>
        <path class="cls-7" d="m262.08,23.57c.14.01.29.03.43.04.68,0,.68,0,.84-.52.38-1.29.67-2.61.8-3.95-.63.19-.62.77-.73,1.26-.14.65-.23,1.3-.47,1.92-.17.43-.46.69-.82.92-.02.11-.04.22-.06.33Z"/>
        <path class="cls-10" d="m191.34,41.57c-1.51.37-2.95.11-4.37-.44.6,1.11,1.62,1.31,2.74,1.21.52-.05,1.03-.25,1.55-.38.02-.13.05-.26.07-.39Z"/>
        <path class="cls-7" d="m252.53,62.72c1.35-.83,2.69-1.67,4.2-2.2.11-.04.18-.21.27-.33-1.77.3-3.3,1.13-4.75,2.16.09.12.19.24.28.36Z"/>
        <path class="cls-7" d="m197.67,33.86c-.13-.22-.47-.23-.53-.52-1.34.28-2.49.99-3.69,1.6-.07.03-.08.16-.12.25.54-.01,1-.27,1.48-.48.92-.39,1.84-.78,2.86-.84Z"/>
        <path class="cls-7" d="m197.57,65.42c.2.12.46.16.57.41.98-.05,1.91-.25,2.76-.77-1.11.07-2.23.13-3.32.35Z"/>
        <path class="cls-6" d="m266.34,18.26c-.02.19-.06.42.15.51.43.19.87.39,1.33.51.34.09.51-.18.59-.48-.63-.41-1.34-.5-2.07-.54Z"/>
        <path class="cls-7" d="m191.34,41.57c-.02.13-.05.26-.07.39.8-.06,1.47-.42,2.11-.86-.73-.07-1.41.07-2.03.47Z"/>
        <path class="cls-3" d="m197.07,40.49c-.24-.12-.58-.09-.6-.48-.16.07-.33.15-.49.23-.24.12-.17.26-.03.4.37-.06.78.13,1.12-.15Z"/>
        <path class="cls-7" d="m196.54,60.65c.19-.07.38-.15.57-.22-.24-.05-.45-.03-.57.22Z"/>
        <path class="cls-7" d="m264.14,19.15c.23-.06.27-.27.34-.45-.22.07-.33.22-.34.45Z"/>
        <path class="cls-3" d="m270.88,21.8c.15.16.32.28.55.25-.13-.21-.33-.26-.55-.25Z"/>
        <path class="cls-7" d="m192.62,35.39c.27,0,.54.02.75-.22-.29-.06-.53.04-.75.22Z"/>
        <path class="cls-3" d="m249.8,70.05c-.11.08-.21.16-.32.23.16,0,.28-.07.32-.23Z"/>
        <path class="cls-7" d="m202.65,58.53c.11-.08.22-.16.33-.23-.15.02-.29.07-.33.23Z"/>
        <path class="cls-6" d="m257.99,67.88c-.1.09-.2.17-.3.26.14-.04.26-.1.3-.26Z"/>
        <path class="cls-10" d="m186.96,41.11c-.12-.03-.16-.1-.11-.21.06.06.09.13.11.21Z"/>
        <path class="cls-4" d="m285.06,42.76c-.07-.09-.17-.27-.31-.12-.06.07-.02.24-.02.36,0,.04.05.07.08.11-.06.68-.07,1.37-.2,2.03-.4,2.03-2.12,3.36-4.19,3.27-.49-.02-.97-.08-1.46-.11-.48-.03-.84-.21-.97-.72-.19-.73-.65-1.29-1.14-1.84-.26-.29-.53-.59-.69-.93-.2-.42-.5-.56-.91-.61-.24-.03-.49-.04-.73-.08-.28-.04-.6-.05-.66-.43-.05-.31.26-.54.72-.51.34.02.68.1,1.01.11.24,0,.51.25.81-.12-1.57-.07-3.03-.41-4.55-.43-1.39-.02-2.81.03-4.17-.45-.78-.27-1.53-.12-2.15.51-.23.24-.56.38-.82.6-1.38,1.13-2.33,2.45-2.13,4.36.08.73-.34,1.22-1.03,1.35-.14.03-.29.03-.44.03-1.8.04-3.6.08-5.39.13-1.92.05-3.76-.26-5.52-1.11-1.78-.86-3.71-1.12-5.68-1.07-2.17.06-4.26-.34-6.28-1.12-.45-.17-.88-.43-1.26-.71-.51-.38-.68-.92-.56-1.55.06-.32.4-.57.22-.97-.2-.11-.4-.23-.62-.33-.88-.4-1.29-1.09-.92-2,.16-.4.11-.75-.06-1.12-.33-.75-.1-1.43.29-2.08.67-1.11,1.56-1.99,2.74-2.55.57-.27,1.16-.51,1.74-.75,1.67-.68,3.39-1.25,4.98-2.06,1.43-.73,2.91-1.05,4.46-1.24.97-.12,1.93-.27,2.89-.42,1.59-.25,3.18-.43,4.79-.46,1.95-.04,3.89-.21,5.8-.56,1.5-.28,3-.28,4.5-.15,1.31.11,2.62.09,3.93.02.87-.05,1.75-.1,2.62-.04.64.04,1.27.02,1.89-.1,1.26-.25,2.5-.2,3.74.14.42.12.86.23,1.29.24,1.46.03,2.86.46,4.28.72,1.91.34,3.76,1.02,5.21,2.45.45.45.99.77,1.58,1.03.38.16.7.27,1.09.02.61-.4,1.31-.47,1.96-.19.78.34,1.4.15,2.04-.3.44-.3.9-.57,1.36-.85.21-.12.42-.25.64-.34.24-.09.48-.04.68.13.25.21.33.49.23.79-.08.22-.21.43-.36.62-.36.46-.74.9-1.12,1.35-.21.24-.28.49-.15.8.25.59.29,1.23.34,1.86.08.85-.23,1.52-1.04,1.91-.09.04-.17.09-.27.12-.62.19-.96.63-1.11,1.24-.13.52-.3,1.03-.42,1.55-.13.58-.39,1.1-.66,1.61-.14.26-.35.45-.63.58-2.23,1.09-4.42,1.04-6.52-.3-.55-.35-1.01-.69-1.71-.53-.34.08-.61-.26-.92-.4-.06-.12-.1-.25-.18-.36Zm-5.56-1.64c.72-1.36,1.85-1.69,3.13-.92.72.43,1.3,1.01,1.82,1.65.03.05.07.11.1.16,0-.03,0-.07-.02-.08-.03-.03-.07-.04-.11-.06.04-1.36-.58-2.29-1.84-2.79-.09-.04-.17-.08-.26-.12-1.27-.58-1.82-.44-2.74.66-.5.61-.91,1.25-.76,2.09-.18.27-.35.55-.55.82-.19.27-.63.24-.79.66.65.22,1.27.11,1.91-.07,0-.51-.51-.88-.27-1.38.12-.21.25-.41.36-.62Zm-36.26,1.37c.06.24.2.42.48.35.06-.01.13-.14.12-.21-.02-.25-.18-.39-.34-.47-.23.07-.3.19-.26.33Z"/>
        <path class="cls-3" d="m303.53,17.51c0-.18.01-.43-.02-.66-.08-.55-.49-.88-1.02-.76-1.87.42-3.58,1.2-5.03,2.47-.44.39-.49.85-.08,1.28.86.91,1.77,1.79,2.68,2.66.17.16.41.24.63.34.48.21.71.16.99-.25.55-.81.93-1.7,1.22-2.62.25-.78.42-1.59.64-2.45Z"/>
        <path class="cls-3" d="m307.9,32.25c0,.18-.03.28,0,.37.28.87.56,1.75.85,2.62.08.23.4.28.63.14,1.44-.89,2.87-1.78,4.31-2.68.45-.28.91-.56,1.22-1.01.11-.16.15-.36.06-.55-.1-.19-.27-.29-.47-.27-1.88.13-3.77.22-5.6.74-.23.06-.46.16-.66.28-.15.1-.25.27-.34.36Z"/>
        <path class="cls-10" d="m285.24,43.12c-.06-.12-.1-.25-.18-.36-.07-.09-.17-.27-.31-.12-.06.07-.02.24-.02.36,0,.04.05.07.08.11.14,0,.28,0,.42.01Z"/>
        <path class="cls-10" d="m284.44,41.87c.04-1.36-.58-2.29-1.84-2.79-.09-.04-.17-.08-.26-.12-1.27-.58-1.82-.44-2.74.66-.5.61-.91,1.25-.76,2.09.1,0,.2.02.3.03.12-.21.25-.41.36-.62.72-1.36,1.85-1.69,3.13-.92.72.43,1.3,1.01,1.82,1.65l-.02.02Z"/>
        <path class="cls-6" d="m279.14,41.74c-.1,0-.2-.02-.3-.03-.18.27-.35.55-.55.82-.19.27-.63.24-.79.66.65.22,1.27.11,1.91-.07,0-.51-.51-.88-.27-1.38Z"/>
        <path class="cls-4" d="m243.5,42.16c-.23.07-.3.19-.26.33.06.24.2.42.48.35.06-.01.13-.14.12-.21-.02-.25-.18-.39-.34-.47Z"/>
        <path class="cls-10" d="m284.46,41.86c.03.05.07.11.1.16,0-.03,0-.07-.02-.08-.03-.03-.07-.04-.11-.06l.02-.02Z"/>
      </g>
      <g>
        <path class="cls-8" d="m185.28,37.68c.45-.33.81-.91,1.49-.68,1.03.34,1.88-.03,2.77-.5,1.5-.8,3.01-1.61,4.62-2.17,3.12-1.08,6.26-2.14,9.39-3.22.32-.11.67-.18.95-.36,1.17-.74,2.48-1.11,3.78-1.51.49-.15.99-.44,1.51.02.1.09.37,0,.56,0,1.32-.1,2.6-.39,3.85-.8,1.29-.43,2.58-.88,3.87-1.31,1.35-.45,2.72-.72,4.16-.6.73.06,1.46.07,2.19.05.83-.02,1.65-.09,2.47-.15.31-.02.55-.1.62-.47.06-.3.38-.39.56-.2.43.46.93.43,1.45.32,2.44-.5,4.95-.28,7.4-.68.14-.02.29,0,.44.02,3.26.18,6.51.36,9.77.55,1.75.1,3.5.23,5.24.37,1.25.1,2.28-.31,3.12-1.24.14-.15.29-.24.5-.14.17.08.19.24.17.37-.08.49.12.71.61.77,1.01.13,2.02.35,3.03.44,2.22.2,4.39.9,6.66.75.23-.02.37.15.37.35,0,.21-.16.35-.36.39-.77.18-1.54.13-2.32.02-2.17-.33-4.33-.64-6.5-.96-.38-.06-.76-.14-1.13.08-.16.09-.37.12-.55.12-2.14-.07-4.28-.11-6.42-.23-2.09-.12-4.17-.34-6.26-.5-.34-.03-.72-.15-.99.07-.42.33-.8.22-1.23.1-.37-.11-.76-.23-1.14-.24-1.75-.06-3.5-.17-5.25-.06-1.99.12-3.97.36-5.94.67-1.88.29-3.77.48-5.67.33-2.03-.16-3.96.21-5.86.93-2.19.83-4.41,1.53-6.75,1.82-.34.04-.66.16-.99.24-4.02.98-7.95,2.27-11.85,3.64-2.76.97-5.48,2.01-8.04,3.43-.89.49-1.86.86-2.92.45-.08-.03-.2-.02-.28.02-.06.03-.15.18-.13.21.12.15-.12.15.07.12.19-.02.37-.08.55-.14.39-.11.71.03.85.38.2.52.51.9.99,1.18.22.13.24.42.08.65-.14.21-.35.15-.51.04-.2-.15-.4-.29-.66-.21-.28.09-.58.18-.68.49-.09.27.13.45.29.61.63.64,1.39.85,2.27.69,1.67-.32,3.32-.68,4.84-1.54.99-.56,2.06-.89,3.22-.55.52.15.96-.03,1.35-.35.81-.66,1.76-1.01,2.77-1.24,1.09-.24,2.17-.54,3.26-.81,3.05-.75,6.14-.98,9.27-.66,1.36.14,2.72.14,4.08.06.63-.04,1.26-.08,1.88.11-.01.09-.03.18-.04.26-.56.31-1.27.24-1.95.67,1.43.81,2.76,1.51,4.17,2.02.6.21,1.22.3,1.86.32.63.01,1.26.1,1.89.16.16.02.29.18.26.29-.23.69.09,1.53-.63,2.09-.26.2-.45.51-.65.78-.47.63-.83,1.32-1.02,2.08-.05.2-.21.44.14.69.47-.38.98-.73,1.4-1.21.13-.15.25-.31.4-.42.1-.07.31-.09.4-.03.09.06.16.26.14.38-.06.47-.39.77-.72,1.06-1.35,1.23-2.83,2.21-4.59,2.77-1.25.4-2.49.84-3.73,1.27-3.5,1.21-6.61,3.09-9.35,5.57-1.39,1.25-2.93,2.25-4.63,3.03-1.11.51-2.24.96-3.31,1.53-.81.44-1.65.62-2.52.5-1.14-.16-1.99.23-2.71,1.06-.19.22-.4.42-.61.63-.54.54-.78,1.22-.86,1.96-.07.59.08.82.66.92.67.12,1.35.16,2.04.13,3-.11,5.86-.9,8.67-1.88.96-.34,1.9-.76,2.85-1.13,1.73-.68,3.5-1.18,5.38-1.25.69-.02,1.34.09,2,.28,1.44.42,2.9.84,4.4.96,1.61.14,3.21-.09,4.77-.49,2.74-.7,5.41-1.62,7.9-2.99.46-.26,1.03-.34,1.38-.78.4-.51,1.03-.06,1.47-.39.15-.11.36-.14.54-.21,1.38-.49,2.71-1.09,4.01-1.77.21-.11.43-.24.66-.3.1-.03.3.07.35.17.05.1.03.32-.05.39-.26.22-.54.42-.84.57-.87.44-1.75.85-2.62,1.29-.12.06-.3.13-.21.31.06.11.2.21.31.23.48.08.96.16,1.45.17,4.2.02,8.37-.2,12.31-1.92.09-.04.18-.06.28-.09,2.48-.7,4.79-1.9,7.32-2.48,1.52-.35,3.02-.7,4.58-.7,1.46,0,2.92,0,4.38-.03.34,0,.78.02.99-.17.57-.51,1.18-.34,1.8-.3,1.12.07,2.23.23,3.35.24,2.55.01,5.04-.45,7.49-1.11,2.87-.77,5.78-1.37,8.58-2.36.22-.08.47-.09.71-.1.08,0,.22.08.23.15.02.13.03.32-.05.4-.31.33-.76.41-1.17.55-2.16.76-4.42,1.18-6.61,1.82-2.16.63-4.34,1.1-6.57,1.33-1.35.14-2.71.27-4.07.09-.63-.08-1.25-.04-1.89.05-1.78.26-3.58.38-5.39.32-1.61-.06-3.21-.11-4.75.49-.13.05-.29.06-.43.08-2.05.27-3.95.99-5.86,1.73-2.86,1.1-5.71,2.21-8.81,2.54-3.16.34-6.3.61-9.44-.09-.55-.12-1.17-.39-1.43.45-.02.06-.17.12-.25.11-.68-.09-.94.41-1.23.86-.72,1.14-.8,2.38-.56,3.66.15.81.36,1.61.67,2.39.09.23.11.49-.21.59-.28.08-.45-.1-.59-.31-.05-.08-.09-.17-.12-.26-.62-1.77-1.01-3.56-.42-5.43.04-.14.1-.28.11-.42,0-.15-.08-.29-.26-.24-.28.08-.56.17-.82.29-1.32.63-2.69,1.13-4.11,1.49-.38.1-.74.24-1.11.36-.27.09-.38.29-.32.56.52,2.25,1.23,4.41,2.81,6.18,1.83,2.03,4.04,3.45,6.64,4.34,2.44.83,4.78.73,7.08-.41,1.31-.65,2.65-1.23,3.93-1.93,1.9-1.04,3.93-1.69,6.02-2.19,1.09-.26,2.19-.45,3.3-.59,1.74-.23,3.25-.94,4.63-2.01,1.22-.95,1.7-2.23,1.63-3.72-.07-1.5-1-2.33-2.49-2.22-1.22.09-2.41.34-3.54.84-.98.44-1.94.9-2.89,1.4-2.11,1.12-4.22,2.23-6.29,3.41-2.82,1.6-5.87,2.31-9.07,2.45-.43.02-.87-.03-1.31-.08-.44-.05-.85-.23-1.21-.48-.19-.13-.36-.32-.49-.52-.06-.09-.04-.3.03-.39.08-.09.32-.16.38-.11.71.61,1.56.82,2.45.75,2.78-.2,5.51-.64,8.02-1.98,2.06-1.11,4.12-2.22,6.18-3.31,1.12-.59,2.23-1.2,3.37-1.74,1.33-.63,2.75-.99,4.22-1.11,2.02-.17,3.43,1,3.52,3.02.08,1.74-.47,3.26-1.88,4.39-1.51,1.21-3.2,2.02-5.14,2.27-3.46.44-6.76,1.37-9.83,3.09-1.15.64-2.36,1.17-3.55,1.71-1.96.9-3.99,1.17-6.12.64-2.91-.72-5.41-2.13-7.56-4.22-1.32-1.28-2.29-2.78-2.88-4.52-.34-1.01-.65-2.03-.97-3.05-.55-.18-1.08.01-1.58.11-2.53.46-4.93-.13-7.3-.89-.66-.21-1.32-.34-2.01-.28-1.02.09-2.02.26-3.01.55-1.4.41-2.75.99-4.1,1.54-2.17.89-4.44,1.43-6.73,1.91-1.24.26-2.51.31-3.78.31-.58,0-1.17-.08-1.74-.21-.7-.16-1.07-.65-1.05-1.39.02-.94.21-1.84.87-2.57.36-.4.75-.76,1.1-1.17.76-.89,1.72-1.21,2.87-1.12,1.09.09,2.11-.16,3.09-.68.99-.52,2.02-.96,3.03-1.45,1.45-.71,2.78-1.59,3.99-2.68,2.82-2.54,6-4.47,9.59-5.73.87-.31,1.74-.61,2.62-.92.69-.24,1.38-.49,2.07-.71.66-.21,1.06-.63,1.17-1.33.27-1.63.99-3.04,2.09-4.27.22-.25.49-.49.41-.9-.4-.19-.84-.18-1.28-.19-1.29-.03-2.5-.34-3.64-.94-.69-.36-1.39-.71-2.1-1.03-1.83-.81-3.67-1.54-5.72-1.57-1.8-.02-3.6.03-5.39.31-1.83.29-3.61.79-5.41,1.22-.95.23-1.86.54-2.64,1.19-.54.45-1.2.67-1.91.46-.96-.28-1.86-.03-2.66.44-1.59.93-3.35,1.29-5.12,1.64-1.2.24-2.21-.1-3.06-.95-.52-.52-.9-1.15-1.19-1.82-.09-.21-.04-.5-.33-.6.08-.58.15-1.16.23-1.74Zm1.03,2.07c.14-.02.28-.05.4-.11.2-.11.46-.18.48-.46,0-.04-.14-.13-.22-.14-.36-.03-.64.1-.76.45.04.1.08.25.1.25Z"/>
        <path class="cls-8" d="m302.59,24.2c.53-.13.97-.35,1.14-.94.18-.65.45-1.27.62-1.92.37-1.45.73-2.9.77-4.41.04-1.6-.08-2.14-.81-3.38-.19-.03-.39-.05-.58-.08-.02.05-.02.12-.05.13-1.31.48-2.62.96-3.93,1.44-.64.24-1.27.49-1.8.93-.15.12-.23.33-.08.5.08.09.25.17.37.16.18-.02.36-.11.54-.19,1.21-.5,2.4-1.03,3.63-1.49,1.55-.58,1.75-.5,1.8,1.21.08,2.36-.5,4.62-1.29,6.82-.15.41-.25.81-.32,1.23l-.02-.03Z"/>
        <path class="cls-8" d="m302.62,24.23c-.25.15-.42-.05-.6-.16-.2-.12-.39-.24-.61-.04h0c-.21.12-.23.33-.09.48.29.32.62.61.94.9,1.46,1.29,2.75,2.73,3.85,4.34.47.68.88,1.39,1.18,2.17.07.19.24.31.46.24.21-.07.27-.25.26-.46-.02-.19-.04-.37-.08-.67,2.3-.36,4.53-1.06,6.88-.69.38.06.77.09,1.12.28.28.15.39.46.25.73-.19.35-.49.6-.78.85-1.02.9-2.11,1.7-3.25,2.45-.45.29-.89.59-1.32.9-.72.51-.72.52-.83,1.46l-.06-.02c.44-.35,1-.47,1.45-.82.49-.39,1.05-.7,1.57-1.05.48-.32.97-.65,1.44-.99.47-.35.93-.71,1.37-1.09.37-.32.74-.64,1.03-1.02.76-.97.5-1.83-.66-2.29-.83-.33-1.7-.38-2.58-.39-.92,0-1.84.08-2.75.25-.48.09-.95.18-1.43.26-.62.1-1.28.37-1.84.23-.59-.15-.76-.94-1.14-1.44-1.02-1.37-2.13-2.64-3.4-3.78-.19-.17-.54-.27-.4-.66l.02.03Z"/>
        <path class="cls-8" d="m279.96,40.95c.03-.14.03-.24.08-.31.64-1.15,1.57-1.29,2.42-.26.27.33.48.69,1.05.63.33-.04.27.44.37.7.06.16.14.38.4.31.21-.06.34-.21.35-.42.06-.95-.56-1.89-1.45-2.08-.35-.07-.62-.22-.92-.38-1.01-.53-1.68-.41-2.49.4-.6.6-1,1.34-1.21,2.14-.18.71-.59.93-1.23.98-1.95.16-3.89-.04-5.81-.31-.86-.12-1.7-.38-2.59-.28-.31.04-.64-.17-.97-.25-1.25-.28-2.29.19-3.22.97-.13.1-.1.25-.04.39.07.16.23.22.36.17.27-.1.53-.23.78-.37.67-.37,1.35-.43,2.11-.31,1.92.31,3.85.55,5.78.79,1.26.16,2.52.16,3.78-.03.56-.09,1.04-.08,1.38.5.22.38.62.63,1.07.7.13.02.29-.03.4-.11.12-.09.13-.31.03-.39-.64-.46-.5-1.33-1.01-1.86-.04-.04,0-.23.04-.26.11-.07.28-.14.39-.1.47.16.86.42,1.06.92.07.18.2.36.44.25.26-.11.33-.34.28-.6-.07-.35-.29-.62-.57-.82-.35-.25-.72-.49-1.06-.72Z"/>
        <path class="cls-8" d="m262.47,23.73c.12.47.16.81.29,1.12.31.75.84,1.3,1.68,1.45.11.02.28-.07.36-.16.11-.12.03-.29-.08-.39-.26-.22-.55-.4-.81-.62-.43-.35-.41-.85-.4-1.34,0-.18.14-.24.27-.29.42-.19.85-.17,1.28-.03.27.09.54.21.82.29.07.02.21-.04.24-.1.05-.12.1-.31.05-.39-.1-.15-.26-.27-.43-.36-.52-.28-1.11-.32-1.68-.45-.2-.05-.31-.26-.25-.46.09-.27.21-.54.36-.79.19-.33.51-.44.88-.28.49.21.95.48,1.42.73.13.07.25.18.38.2.12.01.31-.04.37-.13.06-.1.06-.3,0-.4-.31-.47-.82-.68-1.29-.92-.34-.17-.73-.26-1.09-.41-.3-.13-.44-.39-.37-.71.05-.23.2-.44.27-.67.06-.2.02-.39-.2-.48-.22-.09-.36.05-.49.2-.34.39-.47.84-.39,1.35.06.35.03.68-.14.99-.33.6-.6,1.2-.6,1.92,0,.33-.33.48-.72.46-1.61-.08-3.18.2-4.73.59-.18.04-.34.18-.48.31-.06.05-.05.18-.05.27,0,.18.13.27.27.29.19.02.38,0,.57-.06,1.51-.4,3.05-.54,4.7-.74Z"/>
        <path class="cls-8" d="m270.42,49.15c-.05.17.12.44.29.42.58-.05,1.15-.15,1.73-.17,2.34-.07,4.67-.13,7.01-.16,1.14-.01,2.2-.36,3.28-.64.48-.12.91-.39,1.17-.82.45-.75.88-1.51,1.3-2.28.06-.12.07-.29.03-.42-.03-.13-.14-.29-.25-.32-.1-.03-.31.05-.36.15-.3.5-.6,1-.84,1.53-.42.93-1.13,1.33-2.11,1.59-1.63.42-3.27.43-4.93.44-1.51.01-3.02.02-4.53.06-.48.01-.97.11-1.44.21-.18.04-.34.19-.36.42Z"/>
        <path class="cls-8" d="m295.2,45.09c.91.31,1.75.62,2.61.87.87.26,1.73.15,2.57-.18.16-.06.29-.24.4-.39.05-.06.06-.22.01-.27-.08-.1-.22-.16-.34-.22-.04-.02-.1,0-.14.02-1.27.62-2.45.28-3.61-.35-1.36-.75-2.82-1.31-4.12-2.17-.08-.05-.17-.08-.26-.12-.23-.1-.46-.16-.68.03-.17.15-.06.5.28.71.62.38,1.26.73,1.89,1.1.3.17.63.34.49.77-.12.38,0,.94-.66.96-.1,0-.22-.01-.28.04-.27.26-.65.46-.65.9,0,.21.21.31.4.36.43.12.85.2,1.19-.23.43-.54.61-1.2.88-1.82Z"/>
        <path class="cls-8" d="m295.59,39.23s.06-.08.11-.1c.34-.11.69.5.99.04.23-.35-.18-.6-.31-.89-.28-.62-.54-1.24-.32-1.95.14-.44.37-.54.81-.32.57.29.89.31,1.02.04.18-.36.02-.67-.23-.92-.44-.44-.91-.86-1.39-1.27-.19-.17-.43-.21-.66-.03-.17.13-.22.32-.2.51.01.14.1.27.13.41.19.87-.37,1.42-1.22,1.17-.41-.12-.79-.35-1.2-.5-.19-.07-.4.02-.46.23-.03.11.03.32.12.38.52.35,1.04.77,1.69.75.53-.01.64.26.76.66.15.51.35,1,.54,1.49.07.19-.03.24-.15.32l-.03-.03Z"/>
        <path class="cls-8" d="m276.25,23.66c.53.07,1.06.16,1.59.21,1.03.09,2,.32,2.89.88.36.23.79.38,1.19.52.24.09.48.01.69-.13.07-.05.11-.16.12-.25,0-.08-.04-.22-.1-.24-1.88-.72-3.62-1.79-5.76-1.79-1.39,0-2.81-.16-4.17-.59-.09-.03-.19-.04-.29-.04-.21,0-.37.09-.44.3-.05.16.05.28.17.36.36.27.78.39,1.22.45.96.13,1.92.25,2.88.38,0-.02,0-.04,0-.06Z"/>
        <path class="cls-8" d="m286.76,22.36c0,.14.33.32.45.24.15-.11.31-.23.44-.37,1.2-1.32,2.6-2.33,4.22-3.06.84-.38,1.63-.87,2.43-1.33.18-.1.25-.32.11-.5-.08-.1-.26-.19-.37-.16-.33.08-.66.18-.95.33-1.08.55-2.16,1.12-3.23,1.71-1.18.64-2.06,1.61-2.92,2.61-.12.14-.25.31-.18.53Z"/>
        <path class="cls-8" d="m270.07,22.17c.08-1.66-.05-2.67-1.89-3.51-.52-.24-1.1-.37-1.66-.51-.2-.05-.37.13-.39.33,0,.12.08.32.17.36.39.18.81.33,1.22.48,1.48.55,2.12,1.4,1.56,3.36-.11.37-.32.71-.5,1.05-.13.23-.19.45.01.65.17.16.52.02.72-.3.15-.25.3-.51.4-.78.15-.41.27-.83.36-1.14Z"/>
        <path class="cls-8" d="m263.73,46.47c.08-.33.17-.65.24-.98.04-.21-.06-.39-.26-.45-.2-.05-.39.05-.47.24-.92,2.29-.68,4.34,1.12,5.61.47.33.96.64,1.46.94.21.12.48.16.63-.09.12-.19-.02-.37-.17-.5-.22-.18-.45-.38-.7-.52-1.72-.94-2.39-2.33-1.85-4.26Z"/>
        <path class="cls-8" d="m273.32,30.36c.87-.14,1.84-.2,2.73-.64.12-.06.23-.21.15-.36-.06-.11-.2-.26-.3-.27-.29,0-.57.06-.86.1-.19.03-.42.07-.49-.15-.17-.58-.55-.57-1.03-.47-.52.11-1.06.16-1.58.27-.12.02-.26.18-.29.3-.03.11.05.31.15.36.3.15.57.32.77.61.14.22.41.23.75.25Z"/>
        <path class="cls-8" d="m283.3,29.59c.04,1.34.16,2.74.55,4.1.05.18.16.36.3.48.08.07.27.05.4.02.07-.02.15-.14.16-.22.01-.14-.01-.29-.04-.42-.29-1.23-.43-2.49-.46-3.75,0-.19-.03-.39-.07-.57-.05-.2-.18-.35-.4-.35-.24,0-.33.17-.38.36-.02.09-.03.19-.05.36Z"/>
        <path class="cls-8" d="m303.95,43.1c-.02.29.24.46.4.4.53-.19.81-.67,1.2-1.03.28-.26.53-.58,1-.3.08.05.33-.03.38-.13.3-.49.58-1,.83-1.52.08-.18-.02-.39-.21-.48-.21-.1-.38.02-.49.18-.2.27-.36.57-.54.86-.1.16-.23.38-.43.34-.73-.17-1.02.41-1.44.78-.22.19-.41.41-.59.63-.08.1-.1.26-.1.27Z"/>
        <path class="cls-8" d="m226.81,43.89c.09.08.15.18.22.19.13.02.3.02.41-.04.86-.53,1.71-1.08,2.56-1.63.13-.08.21-.21.17-.37-.05-.22-.23-.29-.43-.28-.09,0-.2,0-.28.05-.92.44-1.75,1.01-2.5,1.7-.09.08-.1.26-.14.38Z"/>
        <path class="cls-8" d="m284.59,24.95s.1-.01.14-.04c.39-.25.21-.89.8-1.06.19-.05.06-.53-.04-.8-.06-.18-.1-.37-.31-.44-.25-.07-.35.1-.44.27-.09.17-.16.3-.36.39-.68.32-.69.38-.43,1,.13.31.25.63.65.69Z"/>
        <path class="cls-8" d="m269.36,27.98c-.35-.03-.66.07-.92.31-.17.16-.13.38.02.5.14.12.36.13.52.22.2.11.28.4.57.38.31-.02.53-.21.75-.39.16-.12.28-.27.24-.49-.04-.24-.23-.34-.41-.27-.36.14-.52-.16-.78-.27Z"/>
        <path class="cls-8" d="m295.61,39.27c-.75-.26-1.53,0-2.29-.1-.05,0-.16.11-.18.19-.02.08,0,.21.04.28.08.11.2.22.32.27.62.21,1.25.17,1.86-.06.29-.11.27-.36.22-.61,0,0,.03.03.03.03Z"/>
        <path class="cls-8" d="m309.93,36.99l.06.02s-.1,0-.14.02c-.65.33-.76,1.07-1.17,1.59-.11.15.04.37.2.49.18.14.4.12.52-.03.42-.53.76-1.11.81-1.8,0-.09-.18-.19-.28-.28Z"/>
        <path class="cls-8" d="m291.22,48.57c.08.06.18.19.29.21.46.08.81-.14,1.08-.5.04-.06.04-.19.01-.26-.03-.08-.12-.16-.2-.18-.43-.07-1.02.21-1.18.54-.02.04,0,.09,0,.18Z"/>
        <path class="cls-8" d="m301.41,24.02h0c-.07-.22-.12-.45-.21-.66-.11-.23-.33-.31-.59-.27-.16.02-.25.13-.26.27-.01.08,0,.19.05.26.25.34.67.29,1.02.39Z"/>
        <path class="cls-8" d="m307.41,35.03c.04.23.22.3.42.29.26-.02.45-.15.44-.44-.01-.24-.21-.3-.41-.29-.27.01-.43.16-.45.44Z"/>
        <path class="cls-8" d="m220.16,36.97c-.01.09-.03.18-.04.26.17-.02.34-.04.51-.08.03,0,.08-.09.08-.1-.05-.06-.11-.15-.16-.15-.13,0-.26.04-.39.06Z"/>
      </g>
    </g>
    <g>
      <path class="cls-5" d="m131.09,16.43c.02,2.27-.17,4.54-.59,6.76-.2,1.07-.45,2.13-.75,3.17-.03.12-.07.23-.11.34-.03-.07-.08-.14-.11-.21-.36-.78-.65-1.6-.88-2.44-.47-1.75-.65-3.6-.49-5.42.11-1.3-2.35-.26-2.68.26-2.5,3.91-4.04,8.49-5.53,13.03-.22.67.92.62,1.18.57.53-.09,1.39-.38,1.61-1.05.87-2.65,1.75-5.31,2.84-7.84.14.82.33,1.63.6,2.41.35,1,.8,1.95,1.32,2.83.25.43.53.97.94,1.2.57.32,1.4.12,1.95-.14,1.06-.51,1.38-1.63,1.77-2.82.39-1.2.72-2.43.98-3.68.54-2.57.77-5.22.74-7.87,0-.86-2.81-.28-2.8.89Z"/>
      <g>
        <path class="cls-5" d="m139.66,20.3s0,0,0,0c-.01.02-.05.05-.08.08.02,0,.08-.05.09-.08Z"/>
        <path class="cls-5" d="m144.21,19.07c-.75-.59-1.66-1.03-2.56-1.05-1.19-.03-2.4.48-3.42,1.18-.64.44-1.46,1.07-1.82,1.87-1.13,1.51-1.31,3.89-.18,5.47.41.58,1.05.85,1.66.98,1.14.25,2.39.29,3.49-.2.95-.42,1.83-1.32,2.47-2.24.6-.87,1.21-1.94,1.35-3.08.14-1.17-.14-2.27-.99-2.93Zm-4,7.05s.06-.05.11-.08c-.05.02-.1.04-.11.08Zm1.44-1.7c-.11.19-.22.37-.34.55-.05.08-.11.16-.17.24-.02.03-.04.06-.05.07-.01.01-.03.03-.06.06-.13.15-.26.29-.41.42-.04.04-.09.08-.13.12-.01,0-.03,0-.04,0-.14,0-.3,0-.44-.03-.1-.01-.2-.03-.3-.05-.11-.02-.22-.05-.32-.08-.03-.02-.07-.03-.11-.05-.08-.04-.34-.26-.15-.07-.08-.08-.17-.15-.24-.25-.08-.1-.14-.2-.21-.31-.02-.04-.04-.08-.07-.12.09.17-.05-.11-.06-.14-.17-.4-.28-.84-.3-1.29-.06-.93.25-1.76.74-2.42.05-.1.1-.19.16-.28,0,0,.02-.04.04-.06,0,0,.01,0,.02-.02.09-.09.17-.18.26-.27,0,0,.05-.04.09-.07-.01,0,0-.02.08-.08,0,0,0,0,0-.01,0,0,0,0,0,0,0,0,0,0,0,0,.11-.09.23-.17.35-.25.01,0,.02-.01.03-.02.06-.03.13-.07.18-.1.05-.02.1-.05.14-.07.04-.01.07-.02.1-.03,0,0,0,0,.02,0,.01,0,.02,0,.03,0,.02,0,.04,0,.05.01.33.17.67.31.99.51.24.15.39.27.59.57.19.29.28.8.28,1.2,0,.88-.37,1.61-.77,2.31Z"/>
      </g>
    </g>
    <g>
      <path class="cls-5" d="m148.95,34.54c.02,1.64-.13,3.28-.42,4.89-.14.78-.32,1.54-.54,2.29-.02.08-.05.17-.08.25-.02-.05-.06-.1-.08-.15-.26-.56-.47-1.15-.64-1.76-.34-1.26-.47-2.6-.35-3.92.08-.94-1.7-.19-1.94.19-1.81,2.82-2.92,6.14-3.99,9.42-.16.48.66.44.85.41.38-.06,1-.27,1.16-.76.63-1.92,1.27-3.84,2.06-5.67.1.59.24,1.18.43,1.75.25.72.57,1.41.95,2.05.18.31.38.7.68.87.41.23,1.01.09,1.41-.1.77-.37,1-1.18,1.28-2.04.28-.87.52-1.76.71-2.66.39-1.86.55-3.77.53-5.69,0-.62-2.03-.2-2.02.65Z"/>
      <g>
        <path class="cls-5" d="m155.15,37.34s0,0,0,0c0,.01-.03.03-.06.06.01,0,.06-.03.06-.06Z"/>
        <path class="cls-5" d="m158.44,36.45c-.54-.42-1.2-.74-1.85-.76-.86-.02-1.73.35-2.47.85-.46.32-1.05.77-1.32,1.35-.82,1.09-.95,2.82-.13,3.96.3.42.76.61,1.2.71.82.18,1.73.21,2.52-.14.69-.31,1.32-.95,1.79-1.62.44-.63.88-1.4.98-2.23.1-.84-.1-1.64-.71-2.12Zm-2.89,5.09s.04-.04.08-.06c-.04.02-.07.03-.08.06Zm1.04-1.23c-.08.14-.16.27-.25.4-.04.06-.08.11-.12.17-.02.02-.03.04-.04.05,0,.01-.02.02-.04.04-.09.11-.19.21-.29.3-.03.03-.06.06-.1.09,0,0-.02,0-.03,0-.1,0-.21,0-.32-.02-.07-.01-.14-.02-.22-.03-.08-.01-.16-.04-.23-.06-.02-.01-.05-.02-.08-.04-.06-.03-.25-.19-.11-.05-.06-.06-.12-.11-.17-.18-.06-.07-.1-.15-.15-.22-.02-.03-.03-.06-.05-.09.07.12-.03-.08-.04-.1-.12-.29-.2-.61-.22-.93-.04-.67.18-1.28.53-1.75.03-.07.07-.14.11-.2,0,0,.02-.03.03-.04,0,0,0,0,.02-.01.06-.07.12-.13.19-.19,0,0,.03-.03.06-.05,0,0,0-.01.06-.06,0,0,0,0,0,0,0,0,0,0,0,0,0,0,0,0,0,0,.08-.06.17-.12.25-.18,0,0,.02-.01.02-.02.04-.02.09-.05.13-.07.03-.02.07-.03.1-.05.03,0,.05-.02.08-.02,0,0,0,0,.01,0,0,0,.01,0,.02,0,.01,0,.03,0,.04,0,.24.12.48.22.71.37.17.11.28.19.43.41.14.21.2.58.2.86,0,.64-.27,1.17-.56,1.67Z"/>
      </g>
    </g>
    <g>
      <path class="cls-5" d="m177.42,17.24c.02,1.64-.13,3.28-.42,4.89-.14.78-.32,1.54-.54,2.29-.02.08-.05.17-.08.25-.02-.05-.06-.1-.08-.15-.26-.56-.47-1.15-.64-1.76-.34-1.26-.47-2.6-.35-3.92.08-.94-1.7-.19-1.94.19-1.81,2.82-2.92,6.14-3.99,9.42-.16.48.66.44.85.41.38-.06,1-.27,1.16-.76.63-1.92,1.27-3.84,2.06-5.67.1.59.24,1.18.43,1.75.25.72.57,1.41.95,2.05.18.31.38.7.68.87.41.23,1.01.09,1.41-.1.77-.37,1-1.18,1.28-2.04.28-.87.52-1.76.71-2.66.39-1.86.55-3.77.53-5.69,0-.62-2.03-.2-2.02.65Z"/>
      <g>
        <path class="cls-5" d="m183.62,20.04s0,0,0,0c0,.01-.03.03-.06.06.01,0,.06-.03.06-.06Z"/>
        <path class="cls-5" d="m186.91,19.15c-.54-.42-1.2-.74-1.85-.76-.86-.02-1.73.35-2.47.85-.46.32-1.05.77-1.32,1.35-.82,1.09-.95,2.82-.13,3.96.3.42.76.61,1.2.71.82.18,1.73.21,2.52-.14.69-.31,1.32-.95,1.79-1.62.44-.63.88-1.4.98-2.23.1-.84-.1-1.64-.71-2.12Zm-2.89,5.09s.04-.04.08-.06c-.04.02-.07.03-.08.06Zm1.04-1.23c-.08.14-.16.27-.25.4-.04.06-.08.11-.12.17-.02.02-.03.04-.04.05,0,.01-.02.02-.04.04-.09.11-.19.21-.29.3-.03.03-.06.06-.1.09,0,0-.02,0-.03,0-.1,0-.21,0-.32-.02-.07-.01-.14-.02-.22-.03-.08-.01-.16-.04-.23-.06-.02-.01-.05-.02-.08-.04-.06-.03-.25-.19-.11-.05-.06-.06-.12-.11-.17-.18-.06-.07-.1-.15-.15-.22-.02-.03-.03-.06-.05-.09.07.12-.03-.08-.04-.1-.12-.29-.2-.61-.22-.93-.04-.67.18-1.28.53-1.75.03-.07.07-.14.11-.2,0,0,.02-.03.03-.04,0,0,0,0,.02-.01.06-.07.12-.13.19-.19,0,0,.03-.03.06-.05,0,0,0-.01.06-.06,0,0,0,0,0,0,0,0,0,0,0,0,0,0,0,0,0,0,.08-.06.17-.12.25-.18,0,0,.02-.01.02-.02.04-.02.09-.05.13-.07.03-.02.07-.03.1-.05.03,0,.05-.02.08-.02,0,0,0,0,.01,0,0,0,.01,0,.02,0,.01,0,.03,0,.04,0,.24.12.48.22.71.37.17.11.28.19.43.41.14.21.2.58.2.86,0,.64-.27,1.17-.56,1.67Z"/>
      </g>
    </g>
    <path class="cls-8" d="m301,37.86c-.09-.27-.21-.58-.3-.9-.07-.24.18-.45.41-.34.92.43,1.7,1.03,2.29,1.87.09.12.1.28.02.42-.1.17-.26.26-.46.25-.11,0-.22-.03-.32-.07-.6-.3-1.08-.77-1.63-1.22Z"/>
    <path class="cls-8" d="m295.22,30.08c-.22-.31-.47-.6-.54-.98-.02-.1.02-.22.07-.3.08-.15.25-.18.39-.13.74.22,1.32,1.03,1.28,1.77-.01.24-.26.39-.47.3-.33-.13-.52-.41-.73-.65Z"/>
    <path class="cls-9" d="m257.67,54.94c-.07-.11-.11-.25-.2-.32-.43-.33-.6-.82-.7-1.3-.18-.83-.62-1.51-1.05-2.21-.17-.27-.33-.54-.51-.79-.04-.06-.18-.09-.24-.06-.07.03-.14.16-.12.23.08.34.09.68.04,1.03-.02.16.1.35.17.53.14.38.36.73.42,1.15.07.52.08,1.01-.3,1.42-.08.09-.16.21-.19.32-.08.35-.37.42-.65.45-.3.04-.61,0-.96-.02.08-.87-.16-1.67-.09-2.49.04-.46-.17-.93-.47-1.31-.16-.21-.39-.27-.58-.17-.2.11-.31.32-.28.55,0,.03,0,.07.01.09.4.8.17,1.68.28,2.51.05.38-.24.76-.12,1.19.04.14-.18.23-.3.32-.44.34-.54.67-.16,1.19.39-.09.67-.13,1.21-.41.68-.25,1.13-.34,1.6-.58.34-.09.49-.16.86-.28.15,0,.66-.24.81-.29.55-.2.67-.25,1.28-.49.08,0,.31-.12.25-.26Z"/>
    <path class="cls-9" d="m249.77,57.72c.09-.22-.48-.44-.39-.65.18-.42-.38-.56-.78-.9-.37-.31-.43-.54-.13-.84.57-.56.82-1.3,1.22-1.95.13-.21.19-.41.19-.66,0-.54-.12-.68-.68-.67-.23,0-.47.01-.7.01-.36,0-.57.16-.67.52-.16.6-.56,1.09-.85,1.63-.07.13-.18.29-.3.33-.46.16-.68.46-.75.94-.02.18-.15.35-.25.52-.26.43-.34.84,0,1.29.2.26-.04.63-.06.94.27.02.6-.02,1.2-.06.97-.1,2.35-.25,2.94-.44Z"/>
    <path class="cls-9" d="m224.61,28.73s-.2.18-.26,1.16.38,1.16.6,1.96-.07,2.49.65,1.21.57-1.88.36-2.93.12-1.53.12-1.53l-1.47.14Z"/>
    <path class="cls-9" d="m227.31,28.62s-.52.25-.25,2.09.49.9.27,1.84-1.23,1.15.12,1.31c1.36.16,1.49-.41,1.38-1.2s-.04-1.67.54-1.13.89.07.69-.68-.42-1.95-.19-2.22.13-.11-2.56,0Z"/>
    <path class="cls-9" d="m234.73,28.01s-1.27,1.49-1.58,2.63,1.05,1.38.86,2.05-.18,1.39.28,1.06-.17-3.45,1.73-4.75,2.3-1.33,2.3-1.33l-3.6.35Z"/>
    <path class="cls-9" d="m230.86,28.49l1.83-.18s-.81,1.49-.87,2.3.38,1.15.04,1.73.06,2.03-.52,1.25-.67-.72-.42-2.09-.06-3.01-.06-3.01Z"/>
    <path class="cls-9" d="m275.89,25.06s-.52.46-1.56,1.16-3.05-.07-2,.73,4.05.32,5.45-1.82c0,0-1.75-.38-1.89-.06Z"/>
    <path class="cls-9" d="m279.29,25.26s1-.03,1.87.41c.87.43-.7,1.23-1.4,1.63s-1.31,1.5-2.06,1.17-2,.15-1-.79,2.43-1.27,2.5-1.64-.24-.78.08-.77Z"/>
    <path class="cls-9" d="m286.47,51.04s1.57-1.59,1.43-3.28-.02-2.5.55-2.09.54.51.74,1.86.1,2.06.37,2.3l.16.27-3.25.93Z"/>
    <path class="cls-9" d="m290.49,47.13s-.17.28-.21,1.54.26,1.16.26,1.16c0,0,.48.34,1.45-1.13,0,0-.64.52-.38-.67s-.7-1.73-1.11-.9Z"/>
  </g>
  <g id="cat">
    <path class="cls-8" d="m308.36,43.98c-.05.06-.08.16-.14.19-.21.11-.41,0-.61-.05-1.59-.47-3.19-.93-4.78-1.43-1.26-.4-2.48-.92-3.78-1.18-.16-.03-.29-.16-.44-.25-.02-.01-.04-.08-.02-.11.04-.07.08-.17.14-.19.12-.02.25-.01.37.01.7.17,1.42.31,2.1.55,2.1.73,4.22,1.38,6.35,1.97.25.07.49.16.72.26.05.02.07.14.1.21Z"/>
    <path class="cls-8" d="m284.99,20.73c.08,0,.17-.01.25.03.28.14.43.38.6.61,1.38,1.76,2.78,3.51,4.14,5.28,1.08,1.4,2.05,2.84,3.25,4.2.14.16.22.36.31.54.02.03,0,.08-.04.08-.08,0-.18.02-.25-.03-.13-.1-.27-.23-.37-.35-.63-.76-1.3-1.51-1.87-2.28-1.76-2.37-3.59-4.72-5.46-7.06-.21-.27-.41-.54-.6-.82-.04-.06,0-.14.01-.21Z"/>
    <path class="cls-8" d="m284.32,26.58c.07-.03.13-.08.2-.08.24,0,.41.17.6.29,1.44,1.01,2.89,2,4.32,3.02,1.13.81,2.18,1.7,3.4,2.43.15.09.24.24.36.36.02.02,0,.07-.01.09-.06.04-.14.09-.2.08-.13-.03-.25-.09-.36-.16-.65-.42-1.32-.81-1.93-1.27-1.86-1.4-3.77-2.75-5.71-4.07-.22-.15-.43-.32-.63-.49-.05-.04-.02-.13-.03-.19Z"/>
    <path class="cls-8" d="m298.67,43.37c.15-.22.18-.63.62-.38.33.18.68.35,1.01.54,1.06.62,2.15,1.19,3.27,1.68.19.09.39.17.56.29.07.05.07.22.06.33,0,.04-.14.12-.2.1-.28-.08-.57-.17-.83-.29-1.08-.49-2.12-1.06-3.14-1.66-.43-.25-.82-.59-1.35-.65l.02.02Z"/>
  </g>
</svg>