<?xml version="1.0" encoding="UTF-8"?>
<svg id="bg" xmlns="http://www.w3.org/2000/svg" viewBox="0 0 332.15 80">
  <defs>
    <style>
      .cls-1 {
        stroke: #604c3f;
        stroke-width: .25px;
      }

      .cls-1, .cls-2, .cls-3, .cls-4, .cls-5, .cls-6, .cls-7, .cls-8, .cls-9, .cls-10, .cls-11, .cls-12, .cls-13, .cls-14, .cls-15, .cls-16, .cls-17, .cls-18, .cls-19, .cls-20, .cls-21, .cls-22 {
        fill-rule: evenodd;
      }

      .cls-1, .cls-22 {
        fill: none;
        stroke-miterlimit: 10;
      }

      .cls-23 {
        fill: #f8eae1;
      }

      .cls-24 {
        fill: #ebd6cd;
      }

      .cls-25 {
        fill: #a19088;
      }

      .cls-26 {
        fill: #666;
      }

      .cls-27 {
        fill: #8e470c;
      }

      .cls-28 {
        fill: #241914;
      }

      .cls-29 {
        fill: #604c3f;
      }

      .cls-2 {
        fill: #5c3e22;
      }

      .cls-3 {
        fill: #523417;
      }

      .cls-4 {
        fill: #9b7d60;
      }

      .cls-5 {
        fill: #714f31;
      }

      .cls-6 {
        fill: #cfe6f7;
      }

      .cls-7 {
        fill: #cbe5f7;
      }

      .cls-8 {
        fill: #c5a487;
      }

      .cls-9 {
        fill: #ab896f;
      }

      .cls-10 {
        fill: #b1cdb9;
      }

      .cls-11 {
        fill: #a4846b;
      }

      .cls-12 {
        fill: #b3937a;
      }

      .cls-13 {
        fill: #aecde3;
      }

      .cls-14 {
        fill: #bad6ea;
      }

      .cls-15 {
        fill: #85a8c1;
      }

      .cls-16 {
        fill: #9cbfd8;
      }

      .cls-17 {
        fill: #8c6f53;
      }

      .cls-18 {
        fill: #f0efde;
      }

      .cls-19 {
        fill: #f0f1f0;
      }

      .cls-20 {
        fill: #fff;
      }

      .cls-21 {
        fill: #66879e;
      }

      .cls-22 {
        stroke: #f0cb9c;
        stroke-dasharray: 0 6;
        stroke-linecap: round;
        stroke-width: 2px;
      }
    </style>
  </defs>
  <g>
    <ellipse class="cls-27" cx="210.43" cy="42.2" rx="16.62" ry="3.37"/>
    <path class="cls-29" d="m193.45,42.3c.09,1.25,2.21,1.76,3.14,2.03,2.65.77,5.45,1.06,8.19,1.26,6.28.45,13.21.5,19.32-1.27.95-.28,3.01-.79,3.28-1.97s-1.54-1.76-2.32-2.03c-2.33-.82-4.85-1.13-7.3-1.37-3.66-.36-7.36-.42-11.03-.24-3.24.15-6.57.44-9.71,1.3-1.02.28-3.47.85-3.57,2.23-.02.3.71.16.72-.09.09-1.25,2.6-1.7,3.5-1.92,2.49-.61,5.07-.88,7.63-1.04,5.73-.37,11.8-.32,17.42.99.98.23,3.49.64,3.9,1.82s-2.15,1.81-2.89,2.01c-5.4,1.48-11.36,1.52-16.91,1.25-2.91-.14-5.85-.4-8.69-1.06-.98-.23-3.86-.72-3.96-2.11-.02-.24-.74-.09-.72.19Z"/>
  </g>
  <g>
    <g>
      <g>
        <path class="cls-23" d="m266.71,52.74c.09-.63-.2-1.15-.51-1.64-.94-1.5-1.31-3.15-1.25-4.89.06-1.61-.21-3.15-.75-4.66-.55.03-.71-.45-1-.76-.69.02-1.3-.29-1.95-.45-.18.03-.35.06-.53.09h-.01c-.26.32-.65.17-.97.27-.28.34-.68.49-1.06.67-.64.66-1.42,1.12-2.24,1.53-.28.36-.59.66-1.09.67-.09.21-.26.26-.47.27-.35.38-.83.5-1.26.34-1.46-.53-2.96-1.02-3.58-2.69-.38-1.01-1.15-1.75-1.88-2.49-.57-.57-1.14-.6-1.82-.18-.25.15-.46.36-.71.51-.67.41-1.76.21-2.09-.48-.3-.63-.8-.94-1.38-1.19-.89.4-1.63.15-2.25-.56-.28,0-.48-.17-.64-.35-.94-.99-2.13-1.62-3.26-2.34-1.14-.72-2.35-1.04-3.7-.93-.96.08-1.92.14-2.89.04-.77.32-1.5.05-2.25-.12-1.13-.25-2.34-.29-3.08-1.4-.04-.07-.13-.1-.2-.15-.3-.2-.61-.28-.94-.09-.36.21-.54.55-.48.95.05.37.18.73.32,1.08.33.82.47,1.68.62,2.55.12.75-.08,1.31-.52,1.86-.18.23-.39.44-.58.66-.52.63-.88,1.36-.9,2.17-.03,1.03-.42,1.95-.73,2.91-.31.94-.86,1.71-1.55,2.4-.57.57-1.13,1.13-2.06.92-.29-.06-.58.08-.66.44.02.12,0,.26.06.37.23.46,1.8,1.52,2.29,1.57.48.05.94-.02,1.31-.31.48-.38.94-.43,1.51-.2.67.27,1.21.05,1.62-.57.34-.52.76-1,1.13-1.5.15-.2.34-.42.37-.65.13-1.12.96-1.83,1.49-2.72.06-.1.17-.19.26-.27.19-.16.16-.66.39-.61.95.18,1.38-.71,1.77-.27,1.18,1.33,1.97,1.48,3.46,2.43,1.28.81,2.49,5.05,3.39,6.27.63.85,1.35,1.59,2.05,2.37.2.22.41.42.6.64.9,1.06,1.64,2.21,2.04,3.56.19.64.47,1.25.72,1.87.44,1.09.92,2.16.86,3.37-.02.32.09.6.38.74.55.28.6.74.57,1.28-.03.5-.06,1.01-.03,1.51.06,1.09-.14,2.07-.88,2.92-.19.22-.31.5-.46.74-.63,1.03-.29,2.06.86,2.36,1.13.3,3.2-.05,3.74-1.7.44-1.35.98-2.66,1.02-4.1,0-.11.06-.28.13-.3.21-.08.28.13.35.27.32.64.4,1.36.59,2.04.13.47.11.9-.07,1.35-.16.39-.3.79-.36,1.2-.15,1.01.46,1.7,1.46,1.77,1.04.08,1.76-.4,2.3-1.23.79-1.22,1.01-2.59.78-3.98-.22-1.35-.39-2.72-.78-4.05-.14-.48-.2-.98-.26-1.48-.16-1.2-.24-2.41-.47-3.59-.22-1.11-.19-2.24-.31-3.36-.13-1.28.04-2.6.06-3.9,0-.44.17-.82.31-1.21.1-.29.34-.33.58-.09.24.23.51.46.68.73.48.74.94,1.48,1.36,2.26.59,1.1,1.12,2.23,1.6,3.39.61,1.47,1.39,2.86,2.25,4.2.27.43.52.87.69,1.34.96.52,1.56,1.14,1.13,2.64-.48,1.67-1.16,3.34-2.14,4.79-.22.62-.45,1.24-.44,1.92.01.51.27.77.77.81.13-.09.26-.21.41-.28.66-.33.93-.21,1.3.56.59.02,1.17.03,1.76.06.34.02.66-.05.97-.2.33-.16.54-.37.58-.75.07-.67.27-1.3.5-1.93.94-2.46,1.66-4.98,2.27-7.53.63-2.68,1.36-5.33,2.39-7.88.08-.19.08-.41.12-.61-.47-.18-.79-.46-.71-1.03Z"/>
        <path class="cls-25" d="m257.12,72.32c.13-.09.26-.21.41-.28.66-.33.93-.21,1.3.56-.4,0-.8,0-1.21,0-.21,0-.39-.07-.5-.28Z"/>
        <path class="cls-26" d="m287.57,29.35c-.09-.36-.17-.73-.27-1.09-.2-.72-.72-1.11-1.43-1.25-.86-.17-1.67-.06-2.39.46-.16-.04-.28-.14-.34-.3.19-.37.04-.69-.12-1.02.16-.5.33-1,.49-1.51.16-.21.32-.42.35-.69.53-.75,1.07-1.49,1.58-2.25.21-.31.42-.63.44-1.02.16-.23.31-.45.31-.75.43-.56.58-1.26.87-1.89.5-1.07.65-2.2.49-3.37.17-.44.21-.86-.09-1.27-.08-2.39-.64-4.62-2.11-6.55-.86-1.13-1.82-2.18-2.9-3.1-1.27-1.09-2.77-1.68-4.46-1.69-.46,0-.92,0-1.38,0-.49-.44-.56-.43-1.02.17.14.3.22.61.28.95.02.14.06.25.11.33-.05-.08-.08-.19-.11-.33-.06-.33-.13-.65-.28-.95-.96.23-1.89.51-2.64,1.19.06.03.11.07.16.11-.05-.04-.1-.08-.16-.11-.59.19-1.02.7-1.64.86-.11.03-.22.14-.27.24-.27.55-.75,1-.77,1.66h0c-.03.15-.06.29-.09.44.02.25.03.49.06.73,0,.03.03.06.06.09.03.03.07.05.1.06.02,0,.04,0,.06,0-.02,0-.04,0-.06,0-.03,0-.07-.03-.1-.06-.03-.03-.06-.06-.06-.09-.03-.24-.04-.49-.06-.73-.19.19-.21.43-.23.68-.06.82.04,1.63.28,2.42-.05.25.04.48.12.72,0,.08-.03.16-.03.25.08,1.54.56,3,.81,4.5.09.56.7.84.79,1.38.08.53.11,1.07.51,1.49-.02.35-.06.71.2,1.01-.06.53.15,1.01.27,1.51-.08.33,0,.66.05.98.12,1.02.23,2.05.35,3.08-.1.17-.21.34-.31.51-.17.02-.33-.03-.45-.16-.22-.25-.44-.49-.64-.75-1-1.31-1.99-2.64-2.99-3.95-.13-.17-.24-.42-.53-.36.02-.02.04-.04.04-.05,0-.06-.03-.12-.05-.18-.03-.15-.11-.24-.27-.26,0,0,0,0,0,0,0-.17-.11-.27-.24-.35-.19-.3-.42-.55-.72-.72-.19-.3-.41-.58-.73-.75-.37-.55-.86-.92-1.53-1.03-.38-.26-.66-.69-1.19-.69-.67-.25-1.3-.63-2.04-.66-.13-.05-.27-.1-.4-.14-.72-.42-1.53-.46-2.33-.48-.14-.13-.3-.15-.47-.12-.98-.3-1.94-.67-3-.46-2.09-.19-4.13.04-6.12.68-.16,0-.33,0-.49,0-.14-.04-.24.01-.32.13-.07-.02-.13-.01-.18.04-1.07.02-2.08.26-3.05.71-.23-.03-.47-.08-.7-.1-.31-.02-.53.11-.65.41-.44.11-.87.22-1.31.35-.43.12-.87.24-1.18.61-.16.03-.34.12-.47.07-.5-.17-.94-.05-1.38.18-.21.11-.43.2-.65.31-.39.38-.87.58-1.38.72-1.04.28-2.09.56-3.12.88-.87.27-1.74.55-2.43,1.19-.08,0-.15.03-.19.1-1.15.59-2.2,1.32-3.23,2.1-.59.45-1.24.83-1.68,1.45-.15.08-.31.13-.43.23-.51.43-1.01.7-1.68.28-.26-.16-.57-.04-.78.22-.49.59-1.04,1.08-1.88,1.06-.04,0-.08.03-.12.05-.46.15-.78.64-1.36.54-.54-.09-.78.6-1.33.53-.56.44-1.36.41-1.86.98-.12.14-.3.14-.46.1-.24-.06-.48-.13-.73-.19-.63-.15-1.24-.25-1.66.44-.07.12-.28.17-.43.24-.6.28-1.03.75-1.22,1.36-.3.95-.91,1.68-1.55,2.39-.19.21-.45.38-.53.68-.08.02-.12.08-.14.16-.75.44-1.15,1.16-1.56,1.88-.23.41-.27.86-.28,1.32-.01.32.3.68-.01.93-.25.19-.6.25-.92.34-.56.16-1.12.29-1.67.46-.27.08-.54.21-.78.37-.24.15-.25.41-.15.66-.1.06-.23.11-.31.19-.23.27-.18.48.11.54.38.08.87-.03.9.59-.37.45-.72.92-.82,1.52-.07.43.12.85.48.9,1,.13,2,.22,2.79-.62.16,0,.32.02.47.02,0,0,0,0,0-.01,0,0,0,0,0,.01.2.59.41,1.17.6,1.77.28.88.84,1.5,1.67,1.91,1.12.55,2.21,1.13,3.33,1.68.57.28,1.17.43,1.81.26.08-.36.38-.5.66-.44.94.2,1.5-.35,2.06-.92.69-.69,1.24-1.46,1.55-2.4.31-.95.7-1.87.73-2.91.02-.81.38-1.54.9-2.17.19-.23.39-.43.58-.66.44-.54.64-1.11.51-1.86-.15-.87-.29-1.73-.62-2.55-.14-.35-.27-.71-.32-1.08-.06-.4.12-.74.48-.95.33-.19.65-.12.94.09.07.05.15.09.2.15.74,1.1,1.96,1.15,3.08,1.4.05-.18.08-.37.1-.55-.02.18-.05.36-.1.55.74.17,1.48.44,2.25.12.96.1,1.93.04,2.89-.04,1.35-.11,2.57.21,3.7.93,1.13.72,2.32,1.35,3.26,2.34.17.18.37.35.64.35.01-.15,0-.28-.02-.41.02.13.03.27.02.41.62.7,1.36.95,2.25.56.58.26,1.08.56,1.38,1.19.32.68,1.42.88,2.09.48.25-.15.46-.36.71-.51.69-.42,1.26-.39,1.82.18.74.74,1.51,1.48,1.88,2.49.62,1.67,2.12,2.16,3.58,2.69.43.16.91.04,1.27-.34-.2-.12-.33-.27-.44-.44.11.17.24.32.44.44.21,0,.38-.05.47-.27.5,0,.81-.3,1.09-.67.81-.41,1.6-.87,2.24-1.53h0c.38-.18.78-.33,1.06-.67.32-.1.71.05.97-.26h.01c.18-.04.35-.07.53-.1.65.16,1.26.48,1.95.45.29.31.46.79,1,.76.54,1.51.8,3.05.75,4.66-.06,1.74.31,3.39,1.25,4.89.31.49.6,1.01.51,1.64-.08.56.23.85.71,1.03.29-.06.55-.15.69-.44.25-.51.49-1.03.73-1.54.2-.22.4-.43.46-.73.6-.57.98-1.29,1.33-2.02.49-.28.6-.79.76-1.26-.16-.02-.3-.05-.44-.11.14.05.28.09.44.11.91-1.21,1.61-2.53,2.02-4,.31-.26.55-.55.35-.98.41-.78.6-1.63.84-2.46.19-.67.48-1.33.46-2.05.19-.65.44-1.3.31-2,.2-.82.67-1.49,1.1-2.19-.01.09.02.16.1.2,0,.17.12.2.25.2.1,0,.14-.08.12-.18.04-.37.09-.74.13-1.11.07-.71.2-1.39.84-1.85.23-.17.41-.41.47-.71.27-.15.36-.45.55-.67.12-.14.33-.11.38.05.06.2.09.41.16.6.24.62.48,1.25,1.18,1.52.22.36.66.03.9.3.23.26.55.37.84.53.18.1.37.19.56.29,1.31.66,2.44.18,3.19-.64.25-.28.46-.6.73-.85.74-.66.92-1.46.69-2.39Zm-3.75-14.67s0,0,0,0c-.03.02-.06.04-.1.05.03-.02.07-.03.1-.05Zm-13.23-7.23s-.03.02-.05.03c.02,0,.04-.02.05-.03.12-.21.25-.43.3-.66-.06.23-.19.45-.3.66Zm1.14-.36c.07-.05.15-.08.23-.1-.08.02-.15.05-.23.1-.06.04-.1.08-.14.12.04-.05.09-.09.14-.12Zm1.06.81c-.16.1-.35.14-.54.18-.13.02-.26.04-.39.05.13-.02.26-.03.39-.05.19-.03.38-.08.54-.18.11-.06.21-.15.29-.27-.08.12-.18.2-.29.27Zm-.11-.92c-.15-.22-.23-.45-.25-.68.03.24.11.47.25.68.29.01.49.14.5.45-.02-.32-.21-.44-.5-.45Zm-64.64,33.79h0c-.21-.06-.42-.12-.63-.18.21.06.42.12.63.18Zm8.05,4.7c-.04.1-.07.21-.08.32h0c0-.11.03-.22.08-.32Zm.96,1.35c-.15-.01-.3-.05-.43-.11.13.06.27.09.43.11.11,0,.22,0,.32-.05-.1.04-.21.06-.32.05Zm.76-.52c.04-.11.07-.24.07-.38h0c0,.14-.03.27-.07.38Zm8.36-18.29c-.23.1-.41.23-.52.39.1-.16.29-.29.52-.39.06,0,.13.01.18.04-.05-.03-.12-.04-.18-.04Zm12.43-.26c-.1,0-.2-.01-.28-.05-.08-.04-.15-.1-.2-.2-.08-.04-.14-.1-.18-.15.05.06.11.11.18.15.05.1.12.17.2.2.08.04.18.05.28.05.08.17.19.3.32.39-.13-.09-.24-.23-.32-.39Zm3.74,1.93c-.27.26-.38.35-.56.32.18.03.28-.07.56-.33.19-.06.35-.15.44-.31-.09.16-.24.26-.44.32Zm6.27,1.1c-.25.1-.42.28-.49.53.07-.25.24-.44.49-.53.02-.07.05-.12.09-.16-.04.04-.07.09-.09.16Zm5.88,3.37c-.29.04-.58.07-.87.14.28-.06.58-.09.86-.14.03-.08.06-.15.08-.23-.02.08-.05.16-.08.23Zm.34-.17c-.08.08-.17.16-.25.25.08-.08.17-.16.25-.25h0c.16,0,.32,0,.48,0-.16,0-.32,0-.48,0Zm1.31,2.77s.06-.08.08-.11h0s-.05.07-.08.11Zm3.34-15.98h0c-.21-.14-.41-.29-.5-.54.08.26.29.4.5.54Zm-1.25,19.93c0,.09.01.16.05.23-.04-.07-.06-.14-.05-.23Zm.97-.55c-.13,0-.24,0-.35,0,.1-.01.22-.01.35,0,.09,0,.17.02.23.05-.06-.03-.14-.04-.23-.05Zm1.02-19.12h0c.17.05.34.08.51.12-.17-.03-.34-.07-.51-.12Zm4.08,13.95c-.49,0-.9-.32-1.04-.75.14.43.55.75,1.04.75.08,0,.17,0,.25-.02-.08.01-.16.01-.25.02Zm5.4,11.47c.02.08.05.15.08.23-.04-.07-.07-.15-.08-.23-.02-.09-.03-.16-.05-.23.01.07.03.14.05.23Zm-.67-.76c.2.02.32.03.41.08.08.05.13.13.17.28-.04-.15-.09-.23-.17-.28-.08-.05-.21-.06-.41-.08-.09,0-.17-.02-.25-.04.08.02.17.03.25.04Zm-1.56,3.85c.07,0,.13,0,.15.03.25.28.57.48.88.69-.31-.21-.63-.41-.88-.69-.03-.03-.09-.04-.15-.03Zm.28-2.86c-.09-.18-.19-.33-.34-.46.15.13.25.28.34.46Zm.39-1.39c.13.12.26.22.41.28-.15-.06-.28-.16-.41-.28-.12-.12-.25-.22-.38-.33.13.11.26.21.38.33Zm-1.44-.5c.05-.15.16-.25.28-.28-.12.03-.23.12-.28.28-.05.15-.08.27-.09.39.01-.12.04-.25.09-.39Zm7.04-29.68c0,.06,0,.12,0,.18-.02.26-.03.52-.05.78.02-.26.03-.52.05-.78.01-.06.02-.12,0-.18.01-.03.03-.06.04-.09-.01.03-.03.06-.04.09Zm.07-1.53h0c-.06-.24-.05-.46,0-.67-.05.21-.07.44,0,.67Zm.87-4.25c-.07-.1-.15-.2-.22-.3-.22-.59-.43-1.19-1.01-1.49.58.3.79.9,1.01,1.49.07.1.15.2.22.3h0Zm3.95-.18c-.04-.06-.07-.12-.11-.15.04.04.08.1.11.15Zm1.4-2.68c-.08.05-.17.07-.23.04-.08-.05-.17-.11-.24-.18-.23-.21-.43-.52-.56-.85.13.34.33.64.56.85.08.07.16.13.24.18.06.03.15.01.23-.04Zm-.89.76c-.14.05-.21.03-.29-.08.08.11.15.13.29.08Zm2.42.48s.08-.02.12-.03c-.04,0-.08.03-.12.03-.12,0-.23.01-.33.04.1-.03.21-.04.33-.04Zm-2.29-3.67c.09.18.19.36.29.53-.1-.18-.2-.35-.29-.53-.01-.02-.05-.03-.09-.03.04,0,.08.01.09.03Zm-.4.1s.04-.05.07-.08c.03-.02.08-.04.11-.07h0s-.07.04-.11.07c-.03.02-.06.05-.07.08-.03.1-.05.2-.05.31,0-.11.03-.21.05-.31Zm-.97,1.87c-.14-.23-.2-.51-.17-.84-.03.33.04.61.17.84Zm-.26-1.14c-.06-.09-.15-.15-.25-.18-.12-.03-.24-.06-.36-.09.12.03.24.06.36.09.1.03.19.09.25.18Zm-2.35-.04s-.02.04-.02.06c0-.02.01-.04.02-.06Zm1.01,26.69h0,0s0,0,0,0Zm1.34-23.39c-.08-.25-.17-.49-.29-.72.11.23.21.47.29.72.03.11.07.22.12.31-.05-.09-.09-.19-.12-.31Zm3.27,9.03c-.1.18-.21.35-.37.6-.96-.98-1.35-2.22-1.93-3.34-.1.04-.21.09-.31.13.1-.04.21-.09.31-.13,0-.68-.02-1.36-.35-1.99.04-.71.08-1.42.11-2.13.02-.39.15-.73.32-1.07.41-.12.82-.13,1.23-.03.3.43.6.86.91,1.29.26.88.59,1.74.53,2.69-.02.27.17.55.26.83-.02,1.1-.18,2.16-.71,3.15Zm1.09-9.61c.11-.1.19-.23.21-.37-.02.14-.1.27-.21.37Z"/>
      </g>
      <g>
        <path class="cls-28" d="m280.79,18.04c-.23.16-.11.37-.07.56.31,1.4.42,2.82.41,4.25-.02,1.56-.38,3.07-.7,4.59-.11.53-.2,1.07-.24,1.61-.18,2.24,1.87,4.37,4.3,4.24.76-.04,1.38-.32,1.8-.98.29-.46.59-.92.77-1.44.3-.83.28-1.65-.02-2.46-.32-.85-.87-1.18-1.76-1.04-.5.08-1,.14-1.46.37-.1.42.35.52.46.82.06.16.06.33-.08.46-.15.14-.31.11-.45,0-.57-.46-.97-.99-1.01-1.79-.06-1.22.19-2.34.78-3.38.66-1.17,1.36-2.31,2.05-3.46.56-.94,1.01-1.92,1.32-2.98,1.23-4.22,0-11.21-6.28-14.41-2.24-1.14-5.81-1.14-8.09,1.08-.12.12-.24.23-.37.35-1.33,1.18-1.79,2.62-1.55,4.41.38,2.75,1,5.44,1.75,8.1.51,1.82,1,3.63,1.34,5.49.15.84.21,1.66.11,2.5-.04.37-.09.75-.02,1.12.02.09-.06.25-.14.31-.15.1-.33.05-.45-.08-.57-.67-1.15-1.33-1.7-2.02-1.24-1.53-2.27-3.22-3.61-4.68-.42-.46-.84-.94-1.29-1.38-.78-.77-1.67-1.37-2.75-1.71-1.48-.46-2.9-1.09-4.44-1.37-1.25-.23-2.49-.36-3.75-.14-.16.03-.33.05-.5.04-.18,0-.32-.09-.39-.27-.06-.16.11-.36.36-.41,1.76-.4,3.51-.21,5.23.21.69.17,1.36.4,2.04.62.68.22,1.35.46,2.02.69.68.23,1.35.47,1.86,1,.11.12.26.21.42.27.41.16.74.36.84.84.03.15.19.27.3.39,1.59,1.68,2.86,3.61,4.27,5.44.2.26.42.52.64.77.04.04.16.05.22.03.06-.03.13-.11.13-.18.02-.29.05-.59,0-.87-.11-.7-.22-1.41-.39-2.1-.58-2.27-1.19-4.54-1.78-6.81-.52-1.99-.87-4.01-1.13-6.05-.21-1.7.25-3.14,1.43-4.37,1.19-1.23,2.51-2.23,4.24-2.56,1.91-.36,3.75-.24,5.5.68,3.69,1.94,5.92,4.99,6.77,9.04.71,3.38.25,6.58-1.62,9.54-.63.99-1.21,2.01-1.81,3.02-.41.69-.71,1.42-.8,2.23-.07.65.05.81.65.61.31-.11.65-.15.98-.2,1.24-.18,2.15.33,2.59,1.49.44,1.15.41,2.31-.12,3.42-.22.45-.49.88-.76,1.3-.52.79-1.29,1.18-2.22,1.23-2.06.12-3.89-.98-4.78-2.85-.12-.26-.22-.53-.33-.78-.31-.1-.39.15-.52.28-.42.41-.82.84-1.26,1.23-.28.25-.29.45-.08.74.05.07-.02.33-.05.33-.49.04-.64.47-.91.77-.04.04-.16.05-.23.03-.14-.03-.21-.16-.2-.28.04-.43.29-.83.17-1.31-.03-.12.22-.33.37-.47.45-.44.92-.86,1.37-1.29.52-.51.87-1.12,1.09-1.81.88-2.83,1.37-5.71.92-8.68-.16-1.04-.45-2.04-.87-3.01-.48-1.12-.91-2.25-1.34-3.39-.21-.55-.38-1.1-.22-1.72.06-.23-.04-.49-.05-.74-.02-.54-.05-1.09-.02-1.63.03-.74.36-1.38.87-1.9.65-.66,1.43-1.16,2.26-1.57.14-.07.32-.09.48-.09.12,0,.24.07.27.21.03.13.03.26-.09.34-.21.13-.43.25-.65.38-.61.37-1.22.74-1.73,1.25-.19.18-.15.41.1.48.87.25,1.59.74,2.23,1.35.76.73,1.16,1.63,1.24,2.68.15,1.85-.23,3.58-1.26,5.15-.16.25-.39.29-.64.31-.15-.49.02-.92.29-1.3.85-1.21.91-2.59.86-3.98-.06-1.56-1.31-3.06-2.82-3.49-.43-.12-.76.09-.76.56,0,.92.04,1.84.1,2.75.01.24.13.48.21.72.54,1.59,1.28,3.09,1.94,4.63.02.05.13.07.2.1Z"/>
        <path class="cls-28" d="m254,47.58c.35.47.73.91,1.04,1.4.46.75.83,1.54,1.04,2.41.4,1.71.89,3.41,1.32,5.11.31,1.22.69,2.42,1.23,3.56.79,1.66.79,3.41.66,5.18-.03.41-.21.81-.34,1.21-.32.95-.77,1.85-.92,2.86-.06.39-.39.64-.6.94-.36.52-.76,1.01-.82,1.65.55.56,1.21.66,1.95.63.84-.04,1.66-.13,2.48-.31.67-.15.91-.56,1.05-1.09.19-.73.35-1.47.46-2.21.09-.63.27-1.22.5-1.81.56-1.49,1.08-3,1.59-4.51.14-.43.18-.9.27-1.35.16-.87.3-1.74.48-2.6.46-2.16,1.33-4.14,2.51-6,1.17-1.84,2.28-3.72,3.4-5.59.61-1.01,1.14-2.05,1.56-3.15.63-1.69,1.4-3.33,1.69-5.13.08-.54.15-1.08.22-1.62.03-.25.06-.51.23-.71.08-.09.2-.17.33-.09.06.04.15.1.16.16.03.25.05.5.04.75-.09,1.43-.41,2.82-.89,4.17-1,2.82-2.22,5.52-3.88,8.01-.91,1.36-1.68,2.81-2.56,4.19-1.19,1.87-1.8,3.96-2.29,6.09-.16.69-.09,1.41-.27,2.11-.48,1.92-1.2,3.75-1.9,5.59-.19.51-.34,1.02-.42,1.57-.12.78-.29,1.56-.49,2.33-.09.36-.3.69-.47,1.02-.12.23-.32.39-.57.46-1.47.42-2.96.59-4.47.41-.25-.03-.5-.1-.73-.19-.75-.29-.97-.7-.67-1.46.33-.85.72-1.69,1.15-2.5.57-1.08.92-2.25,1.35-3.38.29-.77.16-1.58.18-2.37,0-.18-.1-.33-.27-.38-.52-.14-.69-.58-.89-1-.43-.91-.82-1.84-1.28-2.73-.88-1.71-1.82-3.4-2.71-5.11-.46-.89-.86-1.82-1.3-2.72-.17-.35-.11-.64.25-.91.69.86.97,1.94,1.49,2.88.53.95,1.02,1.93,1.53,2.89.49.93.99,1.85,1.49,2.77.51.95.83,1.99,1.52,3.05-.03-.64-.22-1.06-.4-1.48-.69-1.58-1.22-3.21-1.58-4.9-.14-.66-.35-1.3-.49-1.95-.37-1.78-.97-3.46-1.98-4.98-.14-.21-.26-.43-.34-.67-.08-.22.05-.4.23-.54l.09.02h.09Z"/>
        <path class="cls-28" d="m229.91,43.6c.03-.07.07-.19.11-.31.05-.12.43-.15.43-.04.01.61.57.74.89,1.07.12.12.2.27.3.4.1.14.24.28.41.23.35-.12.55.03.72.31.1.18.26.15.44.12.25-.05.4.09.46.32.61,2.39,3.51,7.12,5.34,8.54.46.35.98.59,1.25,1.17.15.32.5.56.76.83,1.29,1.38,2.46,2.86,3.37,4.52.98,1.8,1.99,3.59,2.97,5.39.49.88.88,1.8,1.17,2.77.21.7.16,1.32-.29,1.9-.13.17-.26.33-.36.51-.27.51-.24.71.23,1.19.19.19.2.33.06.52-.15.2-.34.21-.55.09-.6-.36-.8-.81-.66-1.48.09-.46.28-.87.6-1.23.34-.38.4-.81.23-1.29-.1-.27-.17-.56-.28-.83-.13-.32-.13-.87-.57-.8-.34.05-.2.58-.27.89-.11.49-.25.99-.26,1.48-.04,1.1-.63,1.95-1.19,2.82-.08.12-.26.22-.41.24-.83.12-1.66.23-2.49.3-.37.03-.76,0-1.12-.09-.63-.15-.97-.67-.88-1.32.13-1.02.47-1.98,1.2-2.71.75-.76.92-1.63.81-2.65-.21-2.1-.71-4.12-1.56-6.06-.45-1.04-.91-2.07-1.38-3.1-.31-.69-.7-1.33-1.1-1.97-.54-.84-1.1-1.65-1.82-2.36-.59-.59-1.02-1.89-1.54-2.54-.08-.1-1.32-2.93-1.41-2.94-.78-.11-.88-.78-1.2-1.31-.18-.3-.58-.44-.98-.23-.38.19-.66.01-.83-.32-.34-.63-.64-1.27-.6-2.07Zm9.84,12.35l-.05.03.07-.02c-.12.26.01.48.12.71.48,1.03.95,2.05,1.41,3.08.96,2.16,1.58,4.41,1.78,6.77.1,1.14-.06,2.15-.92,3-.61.6-.93,1.39-1.07,2.23-.07.44.06.64.48.7.8.11,1.58-.04,2.37-.18.96-.17.98-.15,1.36-.99.14-.3.22-.63.28-.96.11-.53.19-1.07.26-1.61.14-.99.27-1.99.4-2.98-.46-.85-.91-1.7-1.38-2.54-.43-.77-.88-1.53-1.3-2.3-.82-1.48-1.86-2.78-2.98-4.04-.28-.31-.56-.62-.84-.93Z"/>
        <path class="cls-28" d="m210.08,33.52c-.14.41-.11.85-.39,1.24-.18.25-.21.63-.27.96-.11.57-.09.57.61.76.04.01.09.01.12.04.09.08.21.15.24.25.05.19-.09.32-.24.39-.19.08-.4.13-.6.17-.41.07-.83.16-1.24.18-.76.03-1.38.33-1.9.86-.26.27-.62.44-.79.78.04.26.24.34.43.42.46.21.92.42,1.38.6.43.17.97.19,1.28.48.37.36.56.91.8,1.4.41.82.79,1.66,1.2,2.49.26.54.63.98,1.11,1.34.51.39,1.04.68,1.72.63.63-.04,1.25.13,1.86.29,1.14.3,2.09.88,2.64,1.96.21.42.41.4.77.21.37-.19.72.02,1.05.23.47.3.61.28.96-.05.45-.41.71-.92.81-1.52,0-.05.13-.08.2-.1.1-.03.17.02.18.12.02.12.06.26.03.37-.13.44.06.57.47.65.28.06.31.41.07.58-.76.53-1.52,1.05-2.39,1.38-.27.1-.57.18-.85.2-.67.05-1.25-.12-1.54-.81-.1-.23-.24-.44-.34-.67-.4-.92-1.12-1.44-2.04-1.72-.6-.18-1.22-.35-1.85-.33-1.52.05-2.5-.81-3.28-1.97-.37-.55-.62-1.18-.92-1.78-.13-.26-.23-.54-.36-.8-.06-.12-.2-.2-.29-.11-.71.64-1.62.62-2.47.73-1.05.14-1.47-.34-1.32-1.41.04-.29.07-.59.18-.86.22-.58.38-1.09-.35-1.46-.24-.12-.23-.61-.01-.79,1.01-.85,1.85-1.97,3.34-2.09.51-.04.52-.11.6-.63.02-.17.04-.33.06-.5.01-.12.03-.25.05-.37.18-.96.43-1.27,1.35-1.68l-.03-.03Zm-1.47,8.68c0-.81-.49-1.06-1.14-1.27-1.57-.49-1.59-.5-1.82,1.11-.06.44.12.64.56.57.78-.12,1.55-.27,2.4-.42Z"/>
        <path class="cls-28" d="m251.06,48.41c.19,1.01-.05,1.99-.25,2.96-.11.53-.29,1.05-.41,1.57-.08.35-.27.71.09,1.05.09.09.04.32.06.48.08.79.14,1.58.23,2.37.19,1.74.37,3.49.59,5.22.19,1.53.32,3.08,1.01,4.5.13.27.17.57.04.85-.48,1-.35,2.04-.24,3.08.03.29.09.58.11.87.01.18-.09.31-.25.4-.12-.02-.25-.04-.37-.07-.14-.95-.37-1.89-.28-2.87.03-.29,0-.62.12-.86.34-.62.23-1.17-.05-1.79-.5-1.12-.64-2.34-.79-3.54-.13-1.09-.39-2.14-.59-3.21-.18-.98-.56-1.93-.32-2.96.06-.24-.14-.25-.31-.22-.34.07-.48-.11-.44-.41.08-.58.17-1.15.03-1.74-.08-.33.03-.68.29-.93.32-.32.4-.73.51-1.13.4-1.46.63-2.95.52-4.47-.04-.63-.01-1.26,0-1.88,0-.19.15-.33.31-.34.16-.01.34.09.37.28.03.2,0,.41.01.62,0,.72.01,1.44.02,2.17Z"/>
        <path class="cls-28" d="m250.15,14.27c.25,0,.55-.07.74.04.64.36,1.28.25,1.95.18.2-.02.41.03.61.09.12.03.19.16.17.3-.01.07-.06.19-.11.2-.74.12-1.48.23-2.22.33-.07.01-.18-.02-.23-.07-.49-.49-1.1-.31-1.67-.28-1.38.08-2.73.36-4.07.7-1.62.41-3.19,1-4.74,1.62-.74.29-1.4.74-2.06,1.18-.16.11-.32,0-.42-.14-.09-.13-.02-.25.06-.34.54-.61,1.25-.99,1.97-1.3,1.88-.81,3.8-1.51,5.81-1.95,1.39-.31,2.79-.51,4.22-.54Z"/>
        <path class="cls-28" d="m233.39,19.56c-.58.41-1.15.84-1.75,1.22-1.06.69-2.05,1.46-2.98,2.3-.78.7-1.62,1.33-2.56,1.81-.11.06-.27.1-.31.19-.28.65-.74.62-1.22.31-.39-.25-.61-.09-.81.23-.04.06-.13.12-.2.14-.07.03-.19.05-.23,0-.08-.08-.2-.22-.18-.3.16-.57.48-1.06.83-1.53.1-.13.31-.13.44.03.52.64,1.14.46,1.68.11.73-.48,1.46-1,2.1-1.6,1.45-1.35,3.13-2.39,4.75-3.5.24-.16.49-.38.75-.03-.1.2-.2.4-.31.61Z"/>
        <path class="cls-28" d="m227.86,42.46c-.25.03-.34.22-.47.39-.6.81-1.2,1.61-1.81,2.41-.16.21-.27.41-.28.67-.01.26-.16.47-.37.63-.13.11-.29.23-.45.17-.2-.08-.08-.26-.06-.42.15-.84.57-1.52,1.12-2.17.51-.6.91-1.3,1.37-1.95.17-.24.35-.47.54-.69.27-.3.51-.3.71,0,.35.52.71,1.04.99,1.6.4.77.93,1.38,1.67,1.83.14.08.26.21.36.33.04.05.03.16,0,.24-.03.13-.13.21-.27.21-.22,0-.41-.06-.59-.18-.71-.47-1.29-1.06-1.69-1.82-.23-.44-.45-.89-.8-1.25Z"/>
        <path class="cls-28" d="m251.06,48.41c0-.72-.01-1.44-.02-2.17.03.12.04.25.09.36.07.15.18.31.35.12.21-.25.37-.54.57-.8.13-.17.31-.29.53-.21.26.1.19.3.16.51-.05.47.03.52.43.33.11-.05.2-.15.32-.19.11-.03.25-.04.35,0,.16.09.21.29.11.42-.21.29-.09.53.04.78h-.09s-.09-.02-.09-.02c-.1-.06-.15-.23-.3-.13-.17.11-.34.23-.47.38-.23.27-.47.34-.85.3-.37-.04-.76.19-1.15.29Zm1.44-1.23c-.03-.05-.06-.11-.09-.16-.03.03-.08.06-.08.08.01.06.05.11.07.17.03-.03.06-.05.09-.09Z"/>
        <path class="cls-28" d="m233.39,19.56c.1-.2.2-.4.31-.61.16.16.34.27.52.05.47-.6,1.21-.65,1.85-.88.09-.03.26.02.32.1.12.14.09.33-.05.44-.43.37-.79.87-1.42.93-.28.03-.43.21-.62.36-.6.48-.62.47-.91-.39Z"/>
        <path class="cls-28" d="m221.34,26.28c.09.23.02.5-.18.5-.59.01-.95.38-1.3.76-.19.21-.35.2-.52.05-.3-.27-.59-.56-.87-.83.05-.13.06-.21.11-.27.48-.59.48-.58,1.15-.18.1.06.23.09.34.13.01-.04.02-.08.04-.12.2-.28.38-.57.61-.82.12-.13.29-.06.4.08-.01.26-.06.54.22.71Z"/>
        <path class="cls-28" d="m217.31,45.18s.06,0,.08,0c.33.11.59.7.43,1.02-.03.07-.1.14-.17.16-.13.05-.27.06-.4.08-.42.07-.52,0-.67-.41-.08-.23-.09-.28.23-.39.19-.07.24-.2.31-.34.04-.08.1-.13.19-.13Z"/>
        <path class="cls-28" d="m211.3,32.32c-.16.01-.38-.24-.35-.35.03-.12.06-.28.14-.33.71-.39.94-1.13,1.29-1.78.12-.22.21-.45.37-.64.14-.17.36-.19.55-.04.13.11.24.28.14.43-.62.86-.91,1.96-1.86,2.58-.1.06-.22.1-.27.13Z"/>
        <path class="cls-28" d="m227.34,38.3c.61.31.62.32.43.8-.06.15-.15.29-.24.47.2.04.37.04.51.11.23.1.29.33.17.52-.19.28-.41.54-.73.65-.1.03-.26,0-.34-.07-.07-.07-.1-.24-.07-.33.07-.19.19-.35.31-.56-.15-.05-.27-.07-.38-.12-.34-.16-.4-.3-.25-.55.19-.31.53-.53.6-.92h-.01Z"/>
        <path class="cls-28" d="m251.66,71.69c.12.02.25.04.37.07-.25.68-.73,1.08-1.45,1.19-.37.06-.72.19-1.08.27-.21.04-.44.04-.49-.23-.04-.24.15-.36.35-.43.15-.06.31-.14.47-.17.66-.11,1.24-.43,1.84-.69Z"/>
        <path class="cls-28" d="m215.12,27.98c-.15.2-.3.4-.46.58-.08.09-.21.13-.34.06-.17-.08-.24-.23-.2-.4.14-.69.71-1.12,1.35-.95.43.11.84.33,1.24.53.07.04.13.22.1.32-.03.1-.15.2-.25.24-.11.04-.25.02-.36-.02-.35-.11-.7-.23-1.08-.36Z"/>
        <path class="cls-28" d="m221.63,25.56c.24-.76.69-1.41,1.06-2.11.08-.15.27-.22.43-.1.08.06.14.2.15.32,0,.12-.04.25-.09.36-.3.63-.69,1.23-.88,1.92-.06.22-.36.22-.69.02,0-.14.02-.28.03-.41Z"/>
        <path class="cls-28" d="m227.35,38.29c-.14-.3-.33-.1-.5-.05-.17.06-.35.04-.45-.1-.06-.08-.05-.25,0-.35.2-.49.43-.98.65-1.47.07-.15.17-.3.37-.26.26.05.29.26.28.48-.02.51-.3.94-.51,1.38-.08.17-.04.31.15.38,0,0,.01-.01.01-.01Z"/>
        <path class="cls-28" d="m275.72,35.99c-.06-.05-.16-.08-.18-.14-.12-.5.19-1.29.59-1.55.12-.08.42.04.4.17-.06.54-.18,1.06-.58,1.47-.05.05-.15.03-.23.05Z"/>
        <path class="cls-28" d="m210.1,33.54c-.01-.12-.06-.25-.04-.37.05-.33.25-.43.51-.3.26.14.41.43.29.59-.15.2-.35.16-.56.1-.08-.02-.16-.03-.24-.05,0,0,.03.03.03.03Z"/>
        <path class="cls-28" d="m226.32,34.78c-.03.14-.15.24-.34.2-.13-.02-.21-.13-.21-.27,0-.19.12-.33.29-.33.16,0,.29.14.26.39Z"/>
        <path class="cls-28" d="m221.63,25.56c0,.14-.02.28-.03.41-.16.04-.22.17-.26.31-.28-.17-.24-.44-.22-.71.18.09.35.13.52-.02Z"/>
        <path class="cls-28" d="m220.11,26.33s-.03.08-.04.12c0,0-.02-.07-.02-.07l.06-.05Z"/>
      </g>
    </g>
    <path class="cls-28" d="m218.51,45.79c.06-.05.11-.13.18-.16,3.07-1.56,6.16-3.03,9.44-3.92.15-.04.3-.11.45-.17.11-.05.19-.13.16-.25-.03-.11-.15-.13-.26-.11-.27.05-.54.12-.81.2-.54.16-1.07.34-1.61.52-.15.05-.31.1-.46.17l-1.78.7c-.45.11-.9.35-1.35.56-1.44.68-2.89,1.32-4.25,2.17,0,0-.36.37.29.29Z"/>
    <path class="cls-28" d="m219.83,43.92c.03-.05.04-.12.08-.16,1.74-1.95,3.51-3.85,5.58-5.39.1-.07.19-.16.27-.25.06-.07.1-.15.05-.22-.05-.07-.14-.05-.21,0-.18.11-.35.23-.52.37-.33.27-.66.54-.99.81-.09.08-.19.16-.27.25l-1.06.99c-.29.21-.54.5-.8.77-.83.88-1.68,1.73-2.4,2.71,0,0-.15.36.28.12Z"/>
    <path class="cls-28" d="m213.69,51.66s0-.08.03-.1c1.03-1.04,2.11-2.04,3.51-2.72.06-.03.12-.08.17-.12.04-.03.05-.09,0-.15-.06-.06-.13-.07-.18-.05-.12.04-.24.09-.35.16-.22.12-.44.25-.66.38-.06.04-.13.07-.18.12l-.68.49c-.2.09-.34.25-.5.39-.5.46-1.03.9-1.42,1.45,0,0-.05.23.26.15Z"/>
    <path class="cls-28" d="m213.88,49.81s.02-.06.04-.07c.91-.69,1.85-1.33,3-1.7.05-.02.1-.04.15-.07.03-.02.05-.06.01-.12-.04-.05-.09-.07-.13-.06-.1.02-.2.05-.29.08-.18.07-.36.14-.55.22-.05.02-.11.04-.15.07l-.57.3c-.16.04-.29.15-.43.24-.44.3-.89.58-1.26.96,0,0-.06.17.18.14Z"/>
    <path class="cls-28" d="m225.38,45.3c1.3-.2,2.64-.4,3.99-.61.38-.06.77-.14,1.15-.22.12-.03.19-.14.2-.25,0-.13-.11-.15-.22-.13-1.27.18-2.54.36-3.81.55-.42.06-.84.13-1.26.19l-1.08.2c-.69.13-1.39.24-2.08.36-.31.06-.62.13-.92.21-.16.04-.34.17-.34.29,0,.13.17.16.34.13.89-.16,1.77-.32,2.66-.48.19-.03.38-.05.68-.08l.71-.15Z"/>
  </g>
  <g>
    <g>
      <path class="cls-18" d="m199.69,46.45c-.1-.12-.07-.31-.63-.77-.56-.47-1.08-.7-1.13-1.02s.1-.28.32-.67c.22-.39.63-.59.76-1.13.13-.54,1.01-.09,1.54.23.53.32.21,3.91-.86,3.36Z"/>
      <path class="cls-10" d="m199.27,45.86c-.06-.06-.13-.12-.21-.18-.56-.47-1.08-.7-1.13-1.02s.1-.28.32-.67c.07-.13.17-.24.26-.35-.05.13-.1.25-.17.41-.11.28-.03.51.09.66.12.15.4.13.53.01.13-.12.23-.05.1-.26-.13-.21-.26-.28-.15-.36.1-.08.17-.06.25-.12.08-.06.13.03.19-.2.06-.23-.03-.36.06-.55.07-.13.24-.35.3-.57.28.1.59.27.82.41.03.02.06.05.08.08.09.24.13.52-.01.89-.3.73-.09.95-.79,1.38-.52.32-.34.44-.55.42Z"/>
      <path class="cls-18" d="m199.72,43.56c-.21.49-.29,1.04-.59,1.31-.31.27-.55.77-.69,1.34-.14.56-.26.96-.01,1.28s1.83,1.5,1.86,1.89c.03.39.28.75.57.78.3.04.98.08,1.07-.03s-.21-7.21-2.2-6.56Z"/>
      <path class="cls-19" d="m199.59,44.37c.15-.13.1-.27.06-.5-.04-.23-.29-.31,0-.71.29-.4.61-.94,1.07-.94s.96.43,1.35.21c.4-.22,1.31-.82,1.97-.8.66.02,1.28.37,1.54.33.26-.04,2-.13,2.29.25.29.38.65.71.78,1.16.13.45.02.69.25,1.09.23.4.21.55.59.7.38.15.48-.06.42.2-.07.26-1.52,1.45-1.77,2.5-.25,1.05-.12,1.63-.4,1.96-.28.33-1.02.13-2.06.02-1.03-.11-2.49.11-3.15.18-.66.07-.84.26-1.18-.1-.34-.36-1.24-1.68-1.66-1.85-.42-.17-.76-.64-.73-.78.03-.15.05-.54.15-.5.1.04.14.25.41.45s.43.39.68.5c.25.11.57.16.5.12-.08-.04-.36-.26-.58-.47-.22-.21-.22-.36-.52-.71-.3-.36-.4-.42-.34-.65.06-.23.15-.55.19-.78.03-.23-.24-.38.13-.88Z"/>
      <path class="cls-18" d="m203.62,41.67c.14-.04.28-.06.41-.05.66.02,1.28.37,1.54.33.26-.04,2-.13,2.29.25.29.38.65.71.78,1.16.13.45.02.69.25,1.09.23.4.21.55.59.7.38.14.48-.05.42.18-.24.28-.67.5-.88.64-.32.21-.91,1.02-1.34,1.77-.43.75-.34.71-.48.93-.14.22-1.03.22-1.49.22s-1.19.26-1.62.26-.24-.36.11-.43c.35-.07.4-.34,1.05-.49.65-.15.96-.21,1.27-.23.31-.02.1-.29.12-1.15.02-.86.29-.6.92-1.02.64-.42.55-.26.64-.83.09-.58.02-1.46-.13-1.73-.15-.27-.76-.4-1.45-.29-.69.11-.81-.13-1.35-.34-.54-.21-.67.34-.92.58-.25.23-.04.56-.14,1.04-.1.48.26.47.7.93s.32.85.4,1.18c.08.33-.24.43-.86.32-.62-.11-1.34-.16-1.58-.38-.24-.22.08-.43.08-1.04s-.15-.85-.21-1.03c-.06-.18-.29-.48-.4-.75-.11-.27-.03-.58.22-.88.19-.23.71-.64,1.07-.92Z"/>
      <path class="cls-10" d="m205.55,41.95s.02,0,.02,0c.26-.04,2-.13,2.29.25.19.25.4.47.57.73-.18-.16-.44-.28-.69-.43-.42-.25-.94-.21-1.12-.15-.19.06-.34.07-.56.02s-.04-.15-.1-.26c-.03-.05-.22-.11-.41-.16h0Zm3.09,1.41c.13.45.02.69.25,1.09.13.23.18.37.27.48-.02.21-.06.39-.08.54-.03.26-.18.26-.38.48-.21.22-.54.43-.7.56-.17.13-.37.71-.52.82s-.01-.2.18-.82c.19-.63.29-.44.7-.63.42-.18.29-.4.41-.83.12-.43-.11-1.25-.12-1.7Z"/>
      <path class="cls-10" d="m203.49,42.11c-.28.36-.75.75-.74,1.09.01.34.28.82.43.98.15.16.35.26.31.54s-.17.53-.22.87c-.05.34-.21.32.05.54.26.22.89.31,1.13.38.24.07.61.15.62.01.01-.13,0-.15-.3-.22-.3-.07-.76.09-.74-.47s.17-.42.04-.83c-.12-.42.02-.7-.29-.87-.31-.17-.51-.21-.62-.58-.11-.37-.18-.88.31-1.45Z"/>
      <path class="cls-19" d="m204.63,44.24c-.1-.28-.2-.48.02-.88.22-.4.53-.42.66-.26.13.16.45.13.54.45.09.32-.05.4-.08.8-.02.39.09.66.41.7.32.04.35-.15.45-.49.1-.34.18-.88.42-1.01.24-.12.3-.38.5.02.2.4.48.83.22,1.2-.26.37-.25.59-.68.76s-.56-.02-.67.48c-.11.5.05.98-.19,1.2-.24.22-.35.74-.43-.02-.08-.76.03-1.13-.3-1.52-.33-.39-.46-1.09-.87-1.43Z"/>
      <path class="cls-20" d="m206.9,44.94c.13-.27.13-.7.26-.93.13-.23.33-.17.37.1.04.27.02.63-.13.77-.15.15-.23.39-.44.4-.21.01-.41-.06-.5.13-.09.2-.29-.36.43-.48Z"/>
      <path class="cls-19" d="m199.71,45.12c.34-.45.42-.63.42-.98s-.15-.41.02-.8c.17-.38.15-.7.48-.77.33-.07.91.06.95.43.03.37.41,1.32.36,1.75-.04.43-.35.67-.07,1.25.29.58.23.74.92.85.69.11,1.64-.16,2,.33.36.49-.18,1.03-.53,1.04-.35.01-.86,0-1.16.34s-.37.65-.14.75c.23.1,1.02.11,1.39.02.36-.09,1.02-.33,1.51-.18.48.15,1.07.26,1.25.09.19-.17.33-.94.59-1.16s.09.49,0,.98c-.09.49.07.54-.48.66-.55.12-.98-.02-1.75-.04-.77-.01-1.74.04-2.34.09-.61.05-.84.28-1.2-.06-.36-.34-.69-.43-1.08-.82-.39-.39-1.27-1.14-.99-1.03.28.11,1.07.56,1.13.32s.18-.44-.16-.76c-.34-.32-.81-.54-.84-.72-.03-.19-.18-.55-.18-.83s1.02-.17,1.24-.39c.23-.22.48-.58.09-.63-.4-.05-.68-.02-.84.14-.15.16-.69.33-.62.15Z"/>
      <path class="cls-20" d="m201.62,45.86c.05.29.2.82.41.96.21.15.47.29.67.29s1.05-.06,1.33.03c.28.09.31.59.25.64-.06.05-.45.25-.86.26-.42,0-.55.05-.74.53-.19.48-.2.58.01.74.21.16.07.25-.21.27-.28.02-.43-.18-.46-.53-.03-.34.1-.64.23-.91.13-.27.4-.25.02-.43-.37-.18-.55-.07-.64-.43-.09-.36-.04-.25-.15-.63-.11-.38,0-1.39.14-.8Z"/>
      <path class="cls-20" d="m200.27,44.67c.09-.32.07-.29.1-.65.03-.36.11-.71.31-.99.2-.28.41-.47.49.11.09.58.54,1.08.4,1.23-.14.15-.13.23-.45.05-.32-.18-.37-.89-.85.26Z"/>
      <path class="cls-19" d="m199.24,45.05c-.02.4-.12.37-.18.63-.05.26.05.35.1.53.05.17.17.24.28.41.11.17.03.2.18.36.14.15.49.38.35.39-.14,0-.32-.19-.52-.37-.2-.18-.12-.3-.33-.29-.21.01-.43.15-.31.53.12.38.18.48.35.59.17.12,1.03.8,1.17,1.08s.42.5.5.68c.08.18.1.37-.11.15-.21-.22-.49-.72-.6-.84s-.78-.69-.97-.86c-.19-.18-.5-.28-.62-.72-.12-.44-.09-.85.12-1.09s.21-.14.22-.42c.01-.28.36-.95.37-.76Z"/>
    </g>
    <path class="cls-1" d="m209.92,45.28s0-.04,0-.05c0-.01-.02-.01-.04-.01-.02,0-.04,0-.07,0-.03,0-.05,0-.09,0-.06,0-.14-.02-.24-.06-.18-.07-.27-.14-.34-.24-.03-.04-.06-.09-.08-.14-.04-.09-.09-.19-.17-.32-.23-.4-.12-.64-.25-1.09-.05-.16-.13-.31-.22-.45,0,0,0,0,.01,0-.02-.03-.04-.05-.06-.08-.06-.08-.12-.17-.19-.25-.11-.13-.22-.26-.32-.39-.29-.38-2.02-.28-2.29-.25s-.88-.31-1.54-.33c-.12,0-.24.02-.37.05-.01,0-.03,0-.04,0,0,0,0,0,0,0-.58.15-1.23.56-1.55.74-.4.22-.89-.21-1.35-.21-.32,0-.57.26-.79.55-.05-.02-.1-.04-.16-.06-.01,0-.03-.01-.04-.02,0,0,0,0,0,0-.34-.12-.64-.13-.72.17-.09.36-.3.57-.5.78h0s0,0,0,0c-.1.1-.19.21-.26.34-.22.39-.37.36-.32.67.04.25.38.46.8.76-.12.23-.22.5-.29.79-.14.56-.26.96-.01,1.28.25.32,1.83,1.5,1.86,1.89.03.39.28.75.57.78.3.04.98.08,1.07-.03,0,0,0,0,0,0,.15-.02.34-.07.61-.1.66-.07,2.11-.29,3.15-.18,1.03.11,1.78.31,2.06-.02.27-.33.14-.91.4-1.96.25-1.05,1.71-2.24,1.77-2.5,0,0,0,0,0-.02,0,0,0,0,0,0,0-.03,0-.04,0-.05Z"/>
  </g>
  <g>
    <path class="cls-13" d="m184.86,68.15s-1.95.55-2.59,1.02c-.64.47-4.31,2.17-4.56,2.35-.25.18-1.05.84-1.27.96-.22.12-.42.37-.97-.19-.55-.56-.86-1.22-.77-1.36.09-.14.88-.64,1.14-.76.25-.12,2.91-1.77,3.93-2.16,1.02-.39,1.49-.58,2.12-.93.63-.35,1.52-.69,1.77-1.34.25-.65-.23-1.21.01-1.68.24-.46.24-1.59.1-1.95s-.8-1.95-1.42-2.29c-.63-.33-1.56-.53-2.26-.36-.7.17-3.43.39-5.01.78-1.58.39-2.42.6-2.75.66-.33.06-1.37.4-1.55.18-.18-.21-.43-1.74-.21-2.04s1.32-.56,2.3-.91c.98-.36,7.44-2.4,8.92-3.13,1.48-.74,1.87-1.14,2.45-1.35s1.87-.58,2.4-.77,6.85-2.54,7.56-2.88c.71-.34,1.8-.92,2.05-.86.26.07,1.09,1.79,1.52,2.55.43.76,2.19,4.43,2.07,5.07-.12.64-.39,1.36-.21,1.85s1.17,1.35,1.29,1.89c.12.54.23,3.07.08,3.28-.15.21-.9.09-1.78.41s-1.99.86-3.12,1.03c-1.13.17-5.19.29-7.3,1.29-2.12,1.01-2.91,1.26-3.93,1.63Z"/>
    <path class="cls-16" d="m201.04,61.77c.05.88.05,1.89-.04,2.02-.15.21-.9.09-1.78.41s-1.99.86-3.12,1.03c-.73.11-2.69.2-4.56.52h0s2.08-.45,3.18-.78,1.03-.16,2.08-.29c1.06-.13,1.69-.63,2.32-.93.63-.3,1.03-.64.94-1.39-.09-.75-.46-1.15-.86-1.94-.4-.8-.96-1.02-1.68-1.47-.73-.45-.91-.27-2.18-1.04-1.27-.77-.63-1.44-.75-2.39-.12-.95-.52-.93-.53-1.41-.01-.47,1.32.14,1.71.41.39.27.45,1.24.69,2.08.24.84.88.93,1.53,1.72.65.79.96,1.16,1.61,1.57.68.51,1.15,1.2,1.46,1.88Z"/>
    <path class="cls-16" d="m174.74,71.26c-.06-.16-.08-.27-.05-.32.09-.14.88-.64,1.14-.76.25-.12,2.91-1.77,3.93-2.16,1.02-.39,1.49-.58,2.12-.93.63-.35,1.52-.69,1.77-1.34.25-.65-.23-1.21.01-1.68.24-.46.24-1.59.1-1.95s-.8-1.95-1.42-2.29c-.63-.33-1.56-.53-2.26-.36-.7.17-3.43.39-5.01.78-1.58.39-2.42.6-2.75.66-.33.06-1.37.4-1.55.18-.18-.21-.43-1.74-.21-2.04s1.32-.56,2.3-.91c.98-.36,7.44-2.4,8.92-3.13,1.48-.74,1.87-1.14,2.45-1.35s1.87-.58,2.4-.77,6.85-2.54,7.56-2.88c.71-.34,1.8-.92,2.05-.86.26.07,1.09,1.79,1.52,2.55.43.76,2.19,4.43,2.07,5.07-.12.64-.39,1.36-.21,1.85.04.1.1.21.19.33-.63-.32-1.46-.93-2.37-2.23-1.66-2.35-.56-2.51-1.66-3.31s-2.1-.63-4.21.13-1.12.69-1.8,1.73c-.68,1.05-.35,1.56-1.13,2.48-.78.92-2.1.36-3.43.73-1.34.37-.33.92-.79,1.72-.47.81.27.74.46,1.83.19,1.09.26.71.66,1.4.4.69,2.1.2,3.8.02,1.71-.18,2.13.42,2.31,1.08.19.65-1.39.22-3.29.71-1.9.49-2.79.81-4.3,1.12-1.51.31-3.97,1.96-3.97,1.96,0,0-3.67,2.15-5.36,2.94Z"/>
    <path class="cls-15" d="m193.57,50.26c.3-.12.52-.21.62-.26.71-.34,1.8-.92,2.05-.86.26.07,1.09,1.79,1.52,2.55.43.76,2.19,4.43,2.07,5.07-.12.62-.37,1.31-.23,1.8-.21-.15-.42-.31-.61-.5-.87-.84-1.42-1.87-1.52-2.38-.1-.52,1.29.38,1.45-.15.17-.54-.26-1.03-.69-2.04-.44-1.01-1.2-2.39-1.8-3.1-.6-.71-2.87-.14-2.87-.14h0Z"/>
    <path class="cls-15" d="m181.61,67.23c.09-.05.18-.09.27-.15.63-.35,1.52-.69,1.77-1.34.25-.65-.23-1.21.01-1.68.24-.46.24-1.59.1-1.95s-.8-1.95-1.42-2.29c-.63-.33-1.56-.53-2.26-.36-.7.17-3.43.39-5.01.78-1.58.39-2.42.6-2.75.66-.03,0-.08.02-.13.03h0s2.28-.76,3.12-1.01c.83-.25.52-.26,1.28-.5.77-.24,1-.11,1.7-.23s1.53,0,2.23-.38c.7-.38,1.25-1.29,1.86-1.53.61-.24-.44.6-.15,1.32.28.72.58.93.98,1.33.4.41.81.92.89,1.76.08.84.29.86.12,1.5-.17.65-.56.88-.21,1.48.35.6.53.89.14,1.19-.38.3-2.47,1.32-2.53,1.35Z"/>
    <path class="cls-21" d="m170.5,59.21c.01-.07.03-.12.06-.16.22-.3,1.32-.56,2.3-.91.89-.32,6.3-2.04,8.39-2.9h0s0,.29-.88.7c-.89.4-1.33.6-2.21,1.04-.88.44-1.29.63-2.51,1.05-1.21.42-2.14.67-2.76.84-.42.11-1.65.35-2.4.34Z"/>
    <path class="cls-15" d="m188.6,55.41c-.57.74-.11.7-1.08,1.05s-1.1.33-2.11.64c-1.01.31-1.96.94-1.73.5.22-.44.49-.83,1.09-1.41s-.04-.86-.58-.66-1.26.7-2.62,1.3c-1.36.6-.59.75-2.26,1.1-1.67.36-4.12,1.46-2.32.56,1.79-.9,5.69-3.34,7.1-4.07,1.41-.72,1.61-.41,3.9-1.2,2.28-.79,3.68-1.8,4.64-1.75.96.04-1.06.81-2.2,1.76-1.14.95-5.13,2.89-1.81,2.17Z"/>
    <path class="cls-14" d="m190.53,62.01c-1.1.08-2.08.61-3.17-.02-1.09-.64-2.75-.34-1.25-1,1.5-.66,3.97-.2,4.26-1.02.29-.82-.32-.13.5-2.6.82-2.46,1.19-3.56,2.03-2.87.84.69.97.82,1.33,2.04.35,1.22.49,2.1,2.03,2.74,1.54.65,1.5-.22,2.43,1.36.93,1.58,1.55,2.42.25,2.79s-1.99.97-2.78.79-2.23-.05-2.88.26c-.65.31-1.48-2.58-2.75-2.48Z"/>
    <path class="cls-7" d="m196.76,60.74c-.55-.15-1.26-.29-1.48-.9s-1.2-2.39-1.61-2.58c-.41-.19-.92-.54-1.09.59-.18,1.13-.18,1.63-.54,2.19-.36.56-.18.19,1.13.75s1.65,1.64,3.17,1.6c1.52-.04,1.66-.53.42-1.64Z"/>
    <path class="cls-6" d="m175.43,71.56c.43.43.73.71,1.15.44s.23-.3,1.13-.8c.9-.5,1.36-.53,2.76-1.53,1.4-1,.98-1.21,2.15-1.54,1.16-.33,1.65-.44,1.83-.75s-.16-.76-1.55-.04c-1.39.72-1.72.91-3.12,1.59-1.4.68-4.36,2.21-4.34,2.64Z"/>
    <path class="cls-13" d="m170.96,60.71c-.11-.3-.36-.99-.14-1.12.22-.13.59-.12,1.33-.18.74-.07,1.23-.1,2.11-.37.88-.27,1.37-.36.74.02-.63.38-1.85.63-1.53.78.31.14,1.71-.55,1.45-.21-.26.34-3.04,1.3-3.96,1.07Z"/>
    <path class="cls-15" d="m185.32,63.85c.55.39.68.62,1.42.5.74-.13,1.73-.34,2.39-.37.67-.03,1.31-.24,1.7.08.39.32-.55.11-1.14.27-.6.16-.59.05-1.59.42s-1.53.5-2.14.51c-.61,0-.72.51-1.06-.06-.34-.57-.4-1.61-.38-2.3.02-.68.09-.32.8.95Z"/>
    <path class="cls-7" d="m185.24,61.03c.63-.57.59-.99,1.59-1.09,1-.1,1.61.2,2.18-.2.58-.4.8-.65,1.08-1.99.28-1.34.08-1.52.65-2.24.57-.72-.01-1.1-.35-.46-.33.64-.29,1.13-.89,2.14-.61,1-.73,1.29-1.53,1.44-.8.15-1.04-.07-1.78.32-.74.39-.73.3-1.05.84-.32.54-.56.7-.38,1.19s.05,1.31.93,1.81c.88.5,1.38.33,2.09.34.7.01,1.63-.29.9-.33-.73-.04-.81.19-1.97-.4-1.16-.59-1.74-.54-1.47-1.37Z"/>
  </g>
  <path class="cls-1" d="m201.02,63.51s0-.06.01-.1c0-.02,0-.04,0-.06,0-.04,0-.09,0-.13,0-.02,0-.05,0-.07,0-.06,0-.13,0-.19,0-.02,0-.03,0-.05,0-.09,0-.18,0-.27,0-.03,0-.06,0-.09,0-.07,0-.14,0-.21,0-.03,0-.07,0-.1,0-.07,0-.14,0-.21,0-.04,0-.07,0-.11,0-.07,0-.15-.01-.22,0-.02,0-.04,0-.06,0,0,0,0,0,0-.03-.55-.07-1.06-.12-1.26-.1-.44-.78-1.09-1.12-1.59-.07-.11-.14-.21-.17-.3-.03-.08-.03-.18-.04-.27,0-.06-.02-.11-.02-.17,0-.09.02-.19.03-.3,0-.05.01-.11.02-.16.02-.12.05-.25.08-.38.05-.2.09-.39.13-.58.12-.64-1.64-4.31-2.07-5.07s-1.26-2.49-1.52-2.55c-.26-.07-1.34.52-2.05.86-.05.02-.13.06-.22.1-.03.01-.07.03-.1.04-.08.03-.16.06-.25.1-1.75.7-6.52,2.47-6.98,2.64-.54.19-1.82.56-2.4.77-.58.21-.97.61-2.45,1.35-.16.08-.39.18-.66.29-.07.03-.13.05-.21.08-.09.03-.18.07-.28.11-.08.03-.15.06-.23.09-.1.04-.21.08-.32.12-.08.03-.17.06-.25.09-.12.04-.25.09-.37.13-.08.03-.16.06-.24.09-.15.05-.3.11-.46.16-.12.04-.24.08-.36.12-.17.06-.34.12-.51.17-.09.03-.17.06-.26.09-.14.05-.29.1-.43.15-.1.03-.19.06-.29.1-.14.05-.28.09-.42.14-.08.03-.17.06-.25.08-.14.05-.28.09-.42.14-.1.03-.21.07-.31.1-.13.04-.26.09-.38.13-.05.02-.09.03-.14.05-.2.06-.38.13-.56.19-.1.03-.2.07-.3.1-.09.03-.19.06-.27.09-.08.03-.16.05-.24.08-.06.02-.13.04-.18.06-.09.03-.16.05-.24.08-.03.01-.08.03-.11.04-.1.03-.18.06-.24.08-.98.36-2.08.62-2.3.91-.03.04-.05.09-.06.16,0,0,0,0,0,0-.1.49.11,1.69.27,1.88.18.21,1.22-.12,1.55-.18s1.17-.26,2.75-.66c1.58-.39,4.31-.61,5.01-.78.7-.17,1.63.03,2.26.36.63.33,1.28,1.93,1.42,2.29.14.36.13,1.49-.1,1.95-.24.46.24,1.03-.01,1.68-.25.65-1.13.99-1.77,1.34-.09.05-.17.09-.25.13-.52.27-.99.46-1.87.79-1.02.39-3.68,2.04-3.93,2.16-.25.12-1.04.62-1.14.76-.02.03-.02.1,0,.17,0,.02.01.04.02.07,0,.03.01.05.02.08,0,0,0,0,0,0,.11.28.35.67.71,1.04.55.56.75.31.97.19.22-.12,1.02-.78,1.27-.96s3.93-1.88,4.56-2.35c.64-.47,2.59-1.02,2.59-1.02,1.02-.38,1.82-.62,3.93-1.63.77-.36,1.79-.61,2.83-.79.18-.03.36-.06.54-.08.03,0,.06,0,.09-.01.21-.03.42-.06.63-.08.06,0,.12-.01.18-.02.15-.02.3-.03.45-.05.06,0,.13-.01.19-.02.15-.02.29-.03.43-.04.05,0,.1,0,.15-.01.18-.02.35-.03.51-.05.16-.01.3-.03.44-.04.05,0,.1,0,.15-.01.1,0,.2-.02.29-.03.04,0,.08,0,.12-.01.11-.01.22-.02.3-.04,1.13-.17,2.25-.72,3.12-1.03.87-.32,1.63-.19,1.78-.41.01-.02.02-.04.03-.08,0-.01,0-.03,0-.04Z"/>
  <g>
    <g>
      <path class="cls-18" d="m179.25,68.51c-.1-.12-.07-.31-.63-.77-.56-.47-1.08-.7-1.13-1.02s.1-.28.32-.67c.22-.39.63-.59.76-1.13.13-.54,1.01-.09,1.54.23.53.32.21,3.91-.86,3.36Z"/>
      <path class="cls-10" d="m178.83,67.92c-.06-.06-.13-.12-.21-.18-.56-.47-1.08-.7-1.13-1.02s.1-.28.32-.67c.07-.13.17-.24.26-.35-.05.13-.1.25-.17.41-.11.28-.03.51.09.66.12.15.4.13.53.01.13-.12.23-.05.1-.26-.13-.21-.26-.28-.15-.36.1-.08.17-.06.25-.12.08-.06.13.03.19-.2.06-.23-.03-.36.06-.55.07-.13.24-.35.3-.57.28.1.59.27.82.41.03.02.06.05.08.08.09.24.13.52-.01.89-.3.73-.09.95-.79,1.38-.52.32-.34.44-.55.42Z"/>
      <path class="cls-18" d="m179.29,65.62c-.21.49-.29,1.04-.59,1.31-.31.27-.55.77-.69,1.34-.14.56-.26.96-.01,1.28s1.83,1.5,1.86,1.89c.03.39.28.75.57.78.3.04.98.08,1.07-.03s-.21-7.21-2.2-6.56Z"/>
      <path class="cls-19" d="m179.15,66.43c.15-.13.1-.27.06-.5-.04-.23-.29-.31,0-.71.29-.4.61-.94,1.07-.94s.96.43,1.35.21c.4-.22,1.31-.82,1.97-.8.66.02,1.28.37,1.54.33.26-.04,2-.13,2.29.25.29.38.65.71.78,1.16.13.45.02.69.25,1.09.23.4.21.55.59.7.38.15.48-.06.42.2-.07.26-1.52,1.45-1.77,2.5-.25,1.05-.12,1.63-.4,1.96-.28.33-1.02.13-2.06.02-1.03-.11-2.49.11-3.15.18-.66.07-.84.26-1.18-.1-.34-.36-1.24-1.68-1.66-1.85-.42-.17-.76-.64-.73-.78.03-.15.05-.54.15-.5.1.04.14.25.41.45s.43.39.68.5c.25.11.57.16.5.12-.08-.04-.36-.26-.58-.47-.22-.21-.22-.36-.52-.71-.3-.36-.4-.42-.34-.65.06-.23.15-.55.19-.78.03-.23-.24-.38.13-.88Z"/>
      <path class="cls-18" d="m183.18,63.73c.14-.04.28-.06.41-.05.66.02,1.28.37,1.54.33.26-.04,2-.13,2.29.25.29.38.65.71.78,1.16.13.45.02.69.25,1.09.23.4.21.55.59.7.38.14.48-.05.42.18-.24.28-.67.5-.88.64-.32.21-.91,1.02-1.34,1.77-.43.75-.34.71-.48.93-.14.22-1.03.22-1.49.22s-1.19.26-1.62.26-.24-.36.11-.43c.35-.07.4-.34,1.05-.49.65-.15.96-.21,1.27-.23.31-.02.1-.29.12-1.15.02-.86.29-.6.92-1.02.64-.42.55-.26.64-.83.09-.58.02-1.46-.13-1.73-.15-.27-.76-.4-1.45-.29-.69.11-.81-.13-1.35-.34-.54-.21-.67.34-.92.58-.25.23-.04.56-.14,1.04-.1.48.26.47.7.93s.32.85.4,1.18c.08.33-.24.43-.86.32-.62-.11-1.34-.16-1.58-.38-.24-.22.08-.43.08-1.04s-.15-.85-.21-1.03c-.06-.18-.29-.48-.4-.75-.11-.27-.03-.58.22-.88.19-.23.71-.64,1.07-.92Z"/>
      <path class="cls-10" d="m185.11,64.01s.02,0,.02,0c.26-.04,2-.13,2.29.25.19.25.4.47.57.73-.18-.16-.44-.28-.69-.43-.42-.25-.94-.21-1.12-.15-.19.06-.34.07-.56.02s-.04-.15-.1-.26c-.03-.05-.22-.11-.41-.16h0Zm3.09,1.41c.13.45.02.69.25,1.09.13.23.18.37.27.48-.02.21-.06.39-.08.54-.03.26-.18.26-.38.48-.21.22-.54.43-.7.56-.17.13-.37.71-.52.82s-.01-.2.18-.82c.19-.63.29-.44.7-.63.42-.18.29-.4.41-.83.12-.43-.11-1.25-.12-1.7Z"/>
      <path class="cls-10" d="m183.06,64.17c-.28.36-.75.75-.74,1.09.01.34.28.82.43.98.15.16.35.26.31.54s-.17.53-.22.87c-.05.34-.21.32.05.54.26.22.89.31,1.13.38.24.07.61.15.62.01.01-.13,0-.15-.3-.22-.3-.07-.76.09-.74-.47s.17-.42.04-.83c-.12-.42.02-.7-.29-.87-.31-.17-.51-.21-.62-.58-.11-.37-.18-.88.31-1.45Z"/>
      <path class="cls-19" d="m184.19,66.3c-.1-.28-.2-.48.02-.88.22-.4.53-.42.66-.26.13.16.45.13.54.45.09.32-.05.4-.08.8-.02.39.09.66.41.7.32.04.35-.15.45-.49.1-.34.18-.88.42-1.01.24-.12.3-.38.5.02.2.4.48.83.22,1.2-.26.37-.25.59-.68.76s-.56-.02-.67.48c-.11.5.05.98-.19,1.2-.24.22-.35.74-.43-.02-.08-.76.03-1.13-.3-1.52-.33-.39-.46-1.09-.87-1.43Z"/>
      <path class="cls-20" d="m186.46,66.99c.13-.27.13-.7.26-.93.13-.23.33-.17.37.1.04.27.02.63-.13.77-.15.15-.23.39-.44.4-.21.01-.41-.06-.5.13-.09.2-.29-.36.43-.48Z"/>
      <path class="cls-19" d="m179.27,67.18c.34-.45.42-.63.42-.98s-.15-.41.02-.8c.17-.38.15-.7.48-.77.33-.07.91.06.95.43.03.37.41,1.32.36,1.75-.04.43-.35.67-.07,1.25.29.58.23.74.92.85.69.11,1.64-.16,2,.33.36.49-.18,1.03-.53,1.04-.35.01-.86,0-1.16.34s-.37.65-.14.75c.23.1,1.02.11,1.39.02.36-.09,1.02-.33,1.51-.18.48.15,1.07.26,1.25.09.19-.17.33-.94.59-1.16s.09.49,0,.98c-.09.49.07.54-.48.66-.55.12-.98-.02-1.75-.04-.77-.01-1.74.04-2.34.09-.61.05-.84.28-1.2-.06-.36-.34-.69-.43-1.08-.82-.39-.39-1.27-1.14-.99-1.03.28.11,1.07.56,1.13.32s.18-.44-.16-.76c-.34-.32-.81-.54-.84-.72-.03-.19-.18-.55-.18-.83s1.02-.17,1.24-.39c.23-.22.48-.58.09-.63-.4-.05-.68-.02-.84.14-.15.16-.69.33-.62.15Z"/>
      <path class="cls-20" d="m181.19,67.92c.05.29.2.82.41.96.21.15.47.29.67.29s1.05-.06,1.33.03c.28.09.31.59.25.64-.06.05-.45.25-.86.26-.42,0-.55.05-.74.53-.19.48-.2.58.01.74.21.16.07.25-.21.27-.28.02-.43-.18-.46-.53-.03-.34.1-.64.23-.91.13-.27.4-.25.02-.43-.37-.18-.55-.07-.64-.43-.09-.36-.04-.25-.15-.63-.11-.38,0-1.39.14-.8Z"/>
      <path class="cls-20" d="m179.84,66.73c.09-.32.07-.29.1-.65.03-.36.11-.71.31-.99.2-.28.41-.47.49.11.09.58.54,1.08.4,1.23-.14.15-.13.23-.45.05-.32-.18-.37-.89-.85.26Z"/>
      <path class="cls-19" d="m178.8,67.11c-.02.4-.12.37-.18.63-.05.26.05.35.1.53.05.17.17.24.28.41.11.17.03.2.18.36.14.15.49.38.35.39-.14,0-.32-.19-.52-.37-.2-.18-.12-.3-.33-.29-.21.01-.43.15-.31.53.12.38.18.48.35.59.17.12,1.03.8,1.17,1.08s.42.5.5.68c.08.18.1.37-.11.15-.21-.22-.49-.72-.6-.84s-.78-.69-.97-.86c-.19-.18-.5-.28-.62-.72-.12-.44-.09-.85.12-1.09s.21-.14.22-.42c.01-.28.36-.95.37-.76Z"/>
    </g>
    <path class="cls-1" d="m189.48,67.34s0-.04,0-.05c0-.01-.02-.01-.04-.01-.02,0-.04,0-.07,0-.03,0-.05,0-.09,0-.06,0-.14-.02-.24-.06-.18-.07-.27-.14-.34-.24-.03-.04-.06-.09-.08-.14-.04-.09-.09-.19-.17-.32-.23-.4-.12-.64-.25-1.09-.05-.16-.13-.31-.22-.45,0,0,0,0,.01,0-.02-.03-.04-.05-.06-.08-.06-.08-.12-.17-.19-.25-.11-.13-.22-.26-.32-.39-.29-.38-2.02-.28-2.29-.25s-.88-.31-1.54-.33c-.12,0-.24.02-.37.05-.01,0-.03,0-.04,0,0,0,0,0,0,0-.58.15-1.23.56-1.55.74-.4.22-.89-.21-1.35-.21-.32,0-.57.26-.79.55-.05-.02-.1-.04-.16-.06-.01,0-.03-.01-.04-.02,0,0,0,0,0,0-.34-.12-.64-.13-.72.17-.09.36-.3.57-.5.78h0s0,0,0,0c-.1.1-.19.21-.26.34-.22.39-.37.36-.32.67.04.25.38.46.8.76-.12.23-.22.5-.29.79-.14.56-.26.96-.01,1.28.25.32,1.83,1.5,1.86,1.89.03.39.28.75.57.78.3.04.98.08,1.07-.03,0,0,0,0,0,0,.15-.02.34-.07.61-.1.66-.07,2.11-.29,3.15-.18,1.03.11,1.78.31,2.06-.02.27-.33.14-.91.4-1.96.25-1.05,1.71-2.24,1.77-2.5,0,0,0,0,0-.02,0,0,0,0,0,0,0-.03,0-.04,0-.05Z"/>
  </g>
  <g>
    <path class="cls-18" d="m166.13,65.19c-.06-.06-.04-.15-.41-.37-.37-.22-.7-.33-.74-.49s.06-.13.21-.32c.14-.19.41-.28.5-.54.09-.26.66-.04,1.01.11.35.15.14,1.87-.56,1.6Z"/>
    <path class="cls-10" d="m165.85,64.91s-.08-.06-.13-.09c-.37-.22-.7-.33-.74-.49s.06-.13.21-.32c.05-.06.11-.11.17-.16-.03.06-.07.12-.11.2-.07.13-.02.24.06.32.08.07.26.06.35,0,.09-.06.15-.02.07-.12-.08-.1-.17-.13-.1-.17.07-.04.11-.03.16-.06.05-.03.09.01.13-.09.04-.11-.02-.17.04-.26.04-.06.15-.17.2-.27.18.05.38.13.54.19.02,0,.04.02.05.04.06.11.09.25,0,.42-.19.35-.06.45-.52.66-.34.15-.22.21-.36.2Z"/>
    <path class="cls-18" d="m166.15,63.81c-.14.23-.19.5-.39.63-.2.13-.36.37-.45.64-.09.27-.17.46,0,.61s1.19.71,1.22.9c.02.19.18.36.37.37.19.02.64.04.7-.02s-.14-3.44-1.44-3.13Z"/>
    <path class="cls-19" d="m166.06,64.2c.1-.06.06-.13.04-.24-.03-.11-.19-.15,0-.34.19-.19.4-.45.7-.45s.63.2.88.1c.26-.11.86-.39,1.29-.38.43.01.83.18,1.01.16.17-.02,1.31-.06,1.5.12.19.18.42.34.51.56.09.22.01.33.17.52.15.19.14.26.39.33.25.07.32-.03.27.09-.04.12-.99.69-1.16,1.19-.17.5-.08.78-.26.94-.18.16-.67.06-1.35.01-.68-.05-1.63.05-2.06.09-.43.04-.55.12-.77-.05-.22-.17-.81-.8-1.09-.88-.27-.08-.5-.3-.47-.37.02-.07.04-.26.1-.24.06.02.09.12.27.22s.28.19.45.24c.17.05.37.08.32.06-.05-.02-.24-.12-.38-.22-.14-.1-.14-.17-.34-.34-.19-.17-.26-.2-.22-.31.04-.11.1-.26.12-.37.02-.11-.16-.18.09-.42Z"/>
    <path class="cls-18" d="m168.7,62.91c.09-.02.19-.03.27-.02.43.01.83.18,1.01.16.17-.02,1.31-.06,1.5.12.19.18.42.34.51.56.09.22.01.33.17.52.15.19.14.26.39.33.25.07.31-.02.28.09-.16.13-.44.24-.58.31-.21.1-.6.49-.88.84-.28.36-.22.34-.32.45-.09.11-.68.11-.97.11s-.78.12-1.06.12-.16-.17.07-.2c.23-.04.26-.16.68-.23.42-.07.63-.1.83-.11.2-.01.06-.14.08-.55.01-.41.19-.29.6-.49.42-.2.36-.12.42-.4.06-.28.01-.7-.09-.83-.1-.13-.5-.19-.95-.14-.45.05-.53-.06-.88-.16-.35-.1-.44.16-.6.28-.17.11-.03.27-.09.5-.06.23.17.22.46.44s.21.4.26.56c.05.16-.16.2-.56.15-.4-.05-.88-.08-1.04-.18-.16-.11.05-.2.05-.5s-.1-.4-.14-.49c-.04-.09-.19-.23-.26-.36-.07-.13-.02-.28.14-.42.13-.11.46-.31.7-.44Z"/>
    <path class="cls-10" d="m169.96,63.05s.01,0,.02,0c.17-.02,1.31-.06,1.5.12.12.12.26.23.37.35-.12-.08-.29-.13-.45-.2-.27-.12-.61-.1-.73-.07-.12.03-.22.04-.37.01s-.03-.07-.06-.12c-.02-.02-.14-.05-.27-.08h0Zm2.02.67c.09.22.01.33.17.52.08.11.12.18.17.23-.01.1-.04.19-.05.26-.02.12-.12.12-.25.23-.14.11-.35.2-.46.27-.11.06-.24.34-.34.39s0-.09.12-.39c.12-.3.19-.21.46-.3.27-.09.19-.19.27-.4.08-.2-.07-.6-.08-.81Z"/>
    <path class="cls-10" d="m168.62,63.12c-.18.17-.49.36-.48.52,0,.16.18.39.28.47.1.08.23.12.2.26s-.11.25-.14.42c-.04.16-.14.15.04.26.17.11.58.15.74.18.16.04.4.07.4,0,0-.06,0-.07-.19-.11-.19-.04-.5.04-.48-.22s.11-.2.03-.4c-.08-.2.01-.33-.19-.42-.2-.08-.33-.1-.4-.28-.07-.18-.12-.42.2-.69Z"/>
    <path class="cls-19" d="m169.36,64.14c-.06-.13-.13-.23.01-.42.14-.19.35-.2.43-.12.09.08.29.06.35.22.06.15-.04.19-.05.38-.01.19.06.32.27.33.21.02.23-.07.29-.23.06-.16.12-.42.27-.48.16-.06.19-.18.32.01.13.19.32.4.14.57-.17.18-.17.28-.45.36s-.37-.01-.44.23c-.07.24.04.47-.12.57-.16.11-.23.35-.28-.01-.05-.36.02-.54-.19-.73-.22-.19-.3-.52-.57-.69Z"/>
    <path class="cls-20" d="m170.84,64.47c.09-.13.09-.33.17-.45.09-.11.22-.08.24.05.03.13.01.3-.09.37-.1.07-.15.19-.29.19-.14,0-.27-.03-.32.06-.06.09-.19-.17.28-.23Z"/>
    <path class="cls-19" d="m166.14,64.56c.22-.22.27-.3.27-.47s-.1-.2.01-.38c.11-.18.1-.33.32-.37.22-.04.6.03.62.2.02.18.27.63.24.84-.03.2-.23.32-.04.6.19.28.15.35.6.4.45.05,1.07-.08,1.31.16.24.23-.12.49-.35.5-.23,0-.56,0-.76.16s-.24.31-.09.36c.15.05.67.05.91.01.24-.04.67-.16.99-.09.32.07.7.12.82.04.12-.08.22-.45.39-.56s.06.23,0,.47c-.06.23.04.26-.32.32-.36.06-.64-.01-1.14-.02-.5,0-1.14.02-1.53.04-.4.02-.55.14-.78-.03-.24-.16-.45-.21-.7-.39-.25-.19-.83-.54-.65-.49.18.05.7.27.74.15s.12-.21-.11-.36c-.22-.15-.53-.26-.55-.35-.02-.09-.12-.26-.12-.4s.66-.08.81-.19c.15-.11.32-.28.06-.3-.26-.03-.45,0-.55.07-.1.08-.45.16-.4.07Z"/>
    <path class="cls-20" d="m167.4,64.91c.04.14.13.39.27.46.14.07.31.14.44.14s.68-.03.87.01c.18.04.2.28.17.3-.04.02-.29.12-.56.12-.27,0-.36.02-.48.25-.12.23-.13.28,0,.35.14.08.04.12-.14.13-.18.01-.28-.09-.3-.25-.02-.16.06-.3.15-.43.09-.13.26-.12.01-.2-.24-.09-.36-.04-.42-.2-.06-.17-.03-.12-.1-.3-.07-.18,0-.66.09-.38Z"/>
    <path class="cls-20" d="m166.51,64.34c.06-.15.05-.14.06-.31.02-.17.07-.34.2-.47.13-.13.27-.22.32.05.06.28.35.52.26.59-.09.07-.08.11-.29.02-.21-.09-.24-.43-.55.12Z"/>
    <path class="cls-19" d="m165.83,64.52c-.01.19-.08.18-.12.3-.04.13.03.17.07.25.04.08.11.11.18.2.07.08.02.1.12.17.09.07.32.18.23.18-.09,0-.21-.09-.34-.18-.13-.09-.08-.14-.22-.14-.14,0-.28.07-.2.25.08.18.12.23.23.28.11.06.67.38.76.52s.28.24.33.32c.05.08.06.18-.07.07-.14-.11-.32-.35-.39-.4s-.51-.33-.63-.41c-.13-.08-.33-.13-.4-.34-.08-.21-.06-.41.08-.52s.14-.07.14-.2c0-.13.23-.45.24-.36Z"/>
  </g>
  <path class="cls-1" d="m171.84,63.5c.06.07.15.37.18.45.09.22-.02.09.13.28.05.06.08.11.11.15.02.03.04.05.05.07.05.05.1.08.22.11.06.02.11.02.15.03.03,0,.04,0,.06,0,.02,0,.03,0,.04,0,0,0,.02,0,.02,0,0,0,0,.02,0,.02,0,0,0,.01,0,.03,0,0,0,0,0,0,0,0,0,0,0,0-.04.12-.99.69-1.16,1.19-.17.5-.08.78-.26.94-.18.16-.67.06-1.35.01-.68-.05-1.63.05-2.06.09-.18.01-.3.04-.4.05,0,0,0,0,0,0-.06.05-.51.03-.7.02-.19-.02-.35-.19-.37-.37-.02-.19-1.05-.75-1.22-.9-.17-.15-.09-.34,0-.61.05-.14.11-.26.19-.38-.27-.14-.49-.24-.52-.36-.04-.15.06-.13.21-.32.05-.06.11-.11.17-.16,0,0,0,0,0,0h0c.13-.1.27-.2.32-.37.05-.14.24-.14.47-.08,0,0,0,0,0,0,0,0,.02,0,.03,0,.03,0,.07.02.1.03.14-.14.31-.26.52-.26.3,0,.63.2.88.1.21-.08.63-.28,1.01-.35,0,0,0,0,0,0,0,0,.02,0,.03,0,.08-.01.17-.02.24-.02.43.01.83.18,1.01.16s1.31-.06,1.5.12c.07.06.14.13.21.19.04.04.09.08.12.12l.03.03Z"/>
  <g>
    <path class="cls-24" d="m227,42.93l-2.15,27.97c-.15,1.99-1.95,3.54-4.11,3.54h-19.93c-1.97,0-3.62-1.38-3.82-3.19l-3.18-28.92s4.34,3.71,16.62,3.11c9.16.01,14.42-2.06,16.06-2.83.25-.12.53.06.51.32Z"/>
    <path class="cls-29" d="m226.64,42.98c-.43,5.61-.86,11.21-1.29,16.82l-.72,9.36c-.05.59-.07,1.18-.14,1.77-.26,2.19-1.99,3.28-4.08,3.31-6.23.08-12.47,0-18.7,0-1.69,0-3.4-.45-4.12-2.18-.26-.61-.28-1.31-.35-1.96l-.95-8.66c-.7-6.4-1.41-12.81-2.11-19.21l-.7.23c1.93,1.62,4.91,2.26,7.3,2.68,3.47.61,6.95.53,10.45.48,3.24-.05,6.49-.35,9.66-1.04,1.18-.26,2.34-.57,3.49-.95.45-.15.9-.31,1.34-.49.32-.13.79-.51.92-.11.07.23.79.03.72-.19-.33-1.06-2.91.42-3.56.62-2.73.87-5.59,1.35-8.44,1.59-6.11.53-13.02.79-18.83-1.58-.81-.33-1.7-.71-2.38-1.28-.15-.13-.73-.02-.7.23.64,5.85,1.29,11.69,1.93,17.54l1.08,9.78c.06.53.09,1.07.18,1.6.32,2.06,2.08,3.22,4.08,3.29,6.26.19,12.54,0,18.8,0,2.65,0,5.39-.84,5.71-3.92.25-2.41.37-4.84.56-7.26.53-6.86,1.05-13.71,1.58-20.57.02-.27-.7-.12-.72.1Z"/>
  </g>
  <g>
    <path class="cls-27" d="m210.41,48.55c8.22,0,16.45-1.2,16.45-3.6l-.02-.85c0,.55-1.34,1.77-4.73,2.46-3.12.63-7.26.98-11.68.98-4.42,0-8.56-.35-11.68-.98-3.39-.69-4.76-1.91-4.76-2.46l.15,1.48c.18,1.75,8.05,2.97,16.26,2.97Z"/>
    <path class="cls-29" d="m210.38,48.83c4.33-.01,8.86-.16,13.07-1.3,1.09-.3,2.41-.67,3.23-1.5.59-.59.55-1.17.53-1.95,0-.4-.7-.3-.74.05-.08.71-1.35,1.2-1.89,1.43-1.47.62-3.09.88-4.67,1.11-3.21.46-6.46.61-9.7.6-3.3,0-6.63-.19-9.89-.71-1.46-.23-2.94-.52-4.29-1.15-.51-.24-1.6-.72-1.67-1.4-.04-.35-.76-.17-.72.19.07.7-.02,1.55.5,2.09.74.77,2.07,1.05,3.06,1.3,4.27,1.06,8.81,1.23,13.19,1.24.42,0,.55-.56.06-.56-4.02-.01-8.12-.2-12.07-1.02-1.06-.22-2.59-.46-3.45-1.2-.59-.5-.48-1.32-.55-2.04l-.72.19c.07.66.9,1.14,1.41,1.42,1.21.68,2.59,1.02,3.94,1.29,3.83.74,7.78.92,11.67.91s7.63-.22,11.36-.96c1.26-.25,5.01-.97,5.21-2.78l-.74.05c.02.84.04,1.37-.71,1.9-1.07.74-2.51,1.03-3.77,1.29-3.78.79-7.71.94-11.56.96-.42,0-.55.56-.06.56Z"/>
  </g>
  <g>
    <path class="cls-12" d="m191.01,57.99c0-.33.22-.6.52-.86.3-.26,2.68-1.07,3.12-1.24.45-.17,1.9.45,5.35.86,3.46.4,7.69.6,8.7.79,1,.19,1.75.31,1.86.57.11.26,2.19,7.79,2.86,11.03.67,3.24.15,5.62.15,6.1s.45,1.24-.3,1.33c-.74.1-8.1-.19-12.64-.19s-8.25.19-8.84.19-.22.05-2.9-.52c-2.68-.57-3.08-.87-2.71-1.49.37-.62,2.64-11.04,2.86-11.99.22-.95,1.97-4.57,1.97-4.57Z"/>
    <path class="cls-9" d="m211.49,61.42c.68,2.51,1.54,5.83,1.93,7.71.67,3.24.15,5.62.15,6.1s.45,1.24-.3,1.33c-.09.01-.3.02-.59.02-.45-.5-.93-1.16-1.08-1.85-.3-1.43-2.9-4.14-3.34-6.19-.45-2.05-.45-4.05-.74-5.05-.3-1-2.16-3.48-3.72-3.48s-1.41,1.33-2.08,2.76c-.67,1.43-.67,2.29-.67,4.52s-1.04,7.57-1.11,7.19c-.07-.38-.3-1.29-.45-3.1-.15-1.81-.89-7.62-1-8.55-.11-.93-.97-1.64-2.12-2.74-1.19-1.33,5.05-1.21,7.95-1.26,2.9-.05,4.91,1.71,4.91,1.71,0,0,1.24.36,2.26.86Z"/>
    <path class="cls-11" d="m191.01,57.99c0-.33.22-.6.52-.86.04-.03.11-.08.21-.13.67.81-.4,2.7-.4,2.7,0,0-.26,11.91-.19,14.53.06,1.97,1.13,2.27,1.66,2.3-.52.02-.88.03-1.03.03-.59,0-.22.05-2.9-.52-2.68-.57-3.08-.87-2.71-1.49.37-.62,2.64-11.04,2.86-11.99.22-.95,1.97-4.57,1.97-4.57h0Zm2.1,18.53h0,0s0,0,0,0Z"/>
    <path class="cls-5" d="m191.94,57.44s1.67-.86,2.27-.98c.59-.12,1.38-.29,1.86-.05.48.24,4.72.83,7.06.95,2.34.12,6.76.57,6.84.93.07.36,1.08,3.29.3,3.31s-2.19.14-2.9-.1c-.71-.24-3.64-1.02-4.24-1.14-.59-.12-2.01-.14-2.56.1-.56.24-1.86.95-2.79.83-.93-.12-6.43-1.19-6.43-1.6s.59-2.26.59-2.26Z"/>
    <path class="cls-2" d="m191.94,57.44s1.67-.86,2.27-.98c.59-.12,1.38-.29,1.86-.05.13.07.55.16,1.12.26.35,1.25,1.22,3.31,1.66,4.49-.37.11-.75.17-1.08.13-.82-.1-5.17-.95-6.21-1.42-.12-.21-.18-.4-.16-.57h0c.15-.68.53-1.87.53-1.87Z"/>
    <path class="cls-3" d="m209.9,58.23s.06.05.06.07c.07.36,1.08,3.29.3,3.31s-2.19.14-2.9-.1c-.07-.02-.17-.06-.29-.09.64-.84,1.98-2.24,2.83-3.19Z"/>
    <path class="cls-3" d="m194.19,60.6c-1.48-.33-2.84-.7-2.84-.9,0-.38.54-2.08.59-2.25.54.69,1.65,2.16,2.25,3.15Z"/>
    <path class="cls-17" d="m192.31,76.55l-3.4-2.13s-.67-1.33-1.6-1c-.57.2-1.12,1.13-1.12,1.13,0,0,.39-.84,1.2-.2.81.64,4.93,2.2,4.93,2.2Z"/>
    <path class="cls-4" d="m187.3,73.42s3.88-16.11,4.09-15.48c.21.63-.89,17.48-.89,17.48,0,0-1.07-.53-1.6-1-.42-.37-1-1.29-1.6-1Z"/>
    <path class="cls-8" d="m193.03,61.15c1.26.5,3.27,1.02,3.64,1.76.37.74.78,9.74,1.08,10.55s.78,1.52.93,1.67c.15.14,1.3.55,2.01.12.71-.43,2.27-3.36,2.3-4.29.04-.93.97-5.38,1.23-6.12.26-.74,1.23,3.95,1.93,5.72.71,1.76,3.01,4.05,2.71,4.76-.3.71-1.93.93-3.16.81-1.23-.12-5.61-.12-7.14-.12s-5.87-.05-5.95-.67c-.07-.62.33-2.64.33-3.91s-.89-11,.07-10.29Z"/>
  </g>
  <path class="cls-22" d="m78.98,43.78s27.25,8.04,41.43-6.74c14.19-14.77,3.27-22.03.22-21.41s-12.69,1.9-5.86,16.33c6.82,14.43,13.88,17.29,26.81,13.43,12.93-3.86,3.57-18.66-3.5-10.94-7.06,7.71,1.64,22.64,19.46,19.52,17.82-3.12,27.05-11.81,27.05-11.81"/>
  <path class="cls-1" d="m213.42,69.18c-.05-.22-.1-.47-.16-.72-.02-.08-.04-.17-.06-.25-.04-.18-.09-.37-.13-.57-.02-.1-.05-.21-.08-.32-.05-.19-.09-.38-.14-.58-.03-.11-.06-.23-.09-.35-.05-.21-.1-.42-.16-.63-.03-.11-.05-.22-.08-.33-.06-.24-.12-.48-.18-.72-.02-.09-.05-.18-.07-.27-.08-.32-.17-.65-.25-.97,0,0,0-.01,0-.02-.09-.33-.17-.66-.26-.98-.02-.08-.04-.16-.06-.23-.06-.24-.13-.47-.19-.69,0-.03-.02-.06-.02-.09,0,0,0,0,0,0-.49-1.81-.88-3.2-.93-3.31-.11-.26-.85-.38-1.86-.57-1-.19-5.24-.38-8.7-.79s-4.91-1.02-5.35-.86c-.39.15-2.24.78-2.91,1.11,0,0,0,0,0,0,0,0,0,0,0,0-.1.05-.17.09-.21.13-.3.26-.52.52-.52.86,0,0-1.75,3.62-1.97,4.57-.22.95-2.49,11.37-2.86,11.99-.37.62.04.92,2.71,1.49,2.68.57,2.3.52,2.9.52.04,0,.09,0,.15,0,.03,0,.06,0,.09,0,.08,0,.17,0,.27,0h0s0,0,0,0c.05,0,.09,0,.14,0,.03,0,.07,0,.11,0,1.42-.05,4.49-.17,8.08-.17,4.21,0,10.85.25,12.37.21.01,0,.03,0,.04,0,.1,0,.17,0,.22-.01.74-.1.3-.86.3-1.33s.52-2.86-.15-6.1Z"/>
</svg>