<?xml version="1.0" encoding="UTF-8"?>
<svg id="_圖層_2" data-name="圖層 2" xmlns="http://www.w3.org/2000/svg" viewBox="0 0 54.02 96.74">
  <defs>
    <style>
      .cls-1 {
        fill: #ff8600;
      }
    </style>
  </defs>
  <path class="cls-1" d="m23.08,38.5c-5.43,2.73-11.1,3.21-16.65.32-8.15-4.24-8.63-15.05-1.02-20.2,2.95-2,6.19-2.54,9.63-2.23,4.88.44,9.37,2.04,13.6,4.48,1.2.69,2.43,1.31,3.79,2.04,2.72-4.69,3.09-9.4,2.56-14.26-.39-3.51-1.37-6.62-5.7-7.44,3.22-1.67,4.77-1.73,6.4.69,1.56,2.32,2.75,5.08,3.34,7.81,1.25,5.82-.03,11.44-2.63,16.22,1.63,2.66,3.11,4.77,4.27,7.04,5.43,10.64,5.51,21.59,1.48,32.64-2.77,7.6-6.86,14.46-12.16,20.6-.65.75-1.12,1.66-1.9,2.82,2.09.27,3.67.47,5.24.69,5.4.73,10.81,1.41,16.2,2.24,1.81.28,3.93.4,4.49,2.85-1.3,2.34-3.53,2.01-5.55,1.85-8.63-.7-17.25-1.45-25.87-2.29-5.29-.51-6.42-2.35-5.62-7.72.61-4.09.83-8.25,1.21-12.38.12-1.27-.03-2.62.35-3.81.25-.78,1.23-1.34,2.48-2.6,1.88,6.55,2.1,12.26,1.83,18.1,5.21-7.28,9.92-14.68,12.92-23.03,2.56-7.14,3.07-14.41.96-21.74-.92-3.21-2.06-6.38-4.4-8.27-3.28,2.01-6.15,4.04-9.26,5.61Zm-8.27-15.86c-1.39-.2-2.91-.13-4.28.2-2.78.67-4.25,2.74-4.74,5.45-.45,2.5.93,5.08,3.58,6.14,1.73.69,3.71,1.08,5.57,1.07,5.05-.04,10.31-3.08,12.84-7.17-3.73-3.24-8.13-5-12.97-5.68Z"/>
</svg>