<?xml version="1.0" encoding="UTF-8"?>
<svg id="_圖層_2" data-name="圖層 2" xmlns="http://www.w3.org/2000/svg" viewBox="0 0 65.63 99.85">
  <defs>
    <style>
      .cls-1 {
        fill: #ff8600;
      }
    </style>
  </defs>
  <path class="cls-1" d="m25.65,65.94q4.02,2.57,3.64,17.3c7.42-10.03,10.99-20.25,8.45-32.82-1.77.8-3.26,1.29-4.56,2.1-6.07,3.75-12.45,4.09-18.64.91-4.01-2.06-8-4.67-11.11-7.9-5.84-6.06-3.94-14.39,3.7-17.89,7.66-3.5,15.11-2.24,22.23,1.7,2.7,1.5,5.19,3.37,8.38,5.46,3.1-11.99-1.65-22.6-3.86-33.83,3.95-.19,4.69,2.51,5.57,4.39,4.63,9.85,6.63,20.21,4.44,30.99-.71,3.49-.47,6.38.75,9.73,3.43,9.47,2.6,19-.95,28.34-.83,2.19-1.84,4.3-3.11,7.26,8.61-1.72,15.29-7.46,25.05-7.19-1.84,2.18-2.6,3.74-3.84,4.44-10.5,5.94-21.09,11.74-31.66,17.56-.84.46-1.72.92-2.64,1.19-4.91,1.41-7.61-.66-7.05-5.77.44-4.07,1.42-8.08,2.24-12.1.94-4.61,1.96-9.2,2.97-13.85Zm7.93-22.44c-3.39-5.26-7.96-8.36-13.52-9.45-3.15-.61-6.65-.15-9.87.5-2.38.47-3.42,2.58-2.41,5.09,3.76,9.33,18.01,11.75,25.8,3.86Z"/>
</svg>