<?xml version="1.0" encoding="UTF-8"?>
<svg id="_圖層_2" data-name="圖層 2" xmlns="http://www.w3.org/2000/svg" viewBox="0 0 85.65 83.26">
  <defs>
    <style>
      .cls-1 {
        fill: #ff8600;
      }
    </style>
  </defs>
  <path class="cls-1" d="m54.93,26.96c-3,.07-5.83,1.89-8.52,3.88-6.14,4.53-10.15,10.61-12.47,17.83-2.71,8.45-3.48,17.19-3.78,26.13,3.34-4.8,7-9.2,12.48-13.25.23,1.77.66,2.8.38,3.57-.42,1.17-1.35,2.15-2.04,3.23-2.21,3.51-4.57,6.94-6.57,10.56-2.64,4.75-4.65,5.51-9.16,2.7-7.34-4.58-14.65-9.23-21.91-13.93-1.7-1.1-3.67-2.2-3.28-4.84,1.94-1.6,3.68-.41,5.29.47,4.78,2.62,9.49,5.38,14.22,8.08,1.38.79,2.75,1.59,4.58,2.65.09-1.39.27-2.4.21-3.39-.47-8.09.47-16.03,2.9-23.74,3.53-11.22,10.26-19.86,21.05-24.99,2.3-1.09,4.76-1.86,7.68-2.98.84-5.37,3.25-10.61,7.79-14.47,2.13-1.81,4.76-3.27,7.4-4.16,2.76-.93,3.95.07,5.49,3.35-3.93-1.98-6.61-.12-9.05,2.43-3.39,3.53-5.96,7.49-6.66,12.87,1.52.25,2.88.51,4.25.69,4.83.64,9.38,2.1,13.52,4.73,2.92,1.85,5.16,4.25,6.28,7.63,2.89,8.72-4.07,17-13.12,15.4-6.16-1.09-10.36-4.92-13.01-10.39-1.52-3.13-2.55-6.5-3.93-10.09Zm6.4-.84c-.48,4.78,1.83,10.41,5.81,13.51,1.47,1.15,3.27,2.04,5.07,2.55,2.75.77,5.41-.44,6.58-2.69,1.27-2.45,1.36-4.98-.44-7.21-.88-1.09-2.05-2.07-3.28-2.76-4.25-2.4-8.81-3.68-13.74-3.39Z"/>
</svg>