<?xml version="1.0" encoding="UTF-8"?>
<svg xmlns="http://www.w3.org/2000/svg" viewBox="0 0 332.15 80">
  <defs>
    <style>
      .cls-1 {
        fill: #f7dad0;
      }

      .cls-2 {
        fill: #00b2d8;
      }

      .cls-3 {
        fill: #eaddd5;
      }

      .cls-4 {
        fill: #e7dad2;
      }

      .cls-5 {
        fill: #eea77d;
      }

      .cls-6 {
        fill: #fff;
      }

      .cls-7 {
        fill: #ffbe3f;
      }

      .cls-8 {
        fill: #ff6040;
      }

      .cls-9 {
        fill: #bb8057;
      }

      .cls-10 {
        fill: #aa7a5f;
      }

      .cls-11 {
        fill: #241914;
      }

      .cls-12 {
        fill: #24b284;
      }

      .cls-13 {
        fill: #604c3f;
      }

      .cls-14 {
        fill: #7a6a56;
      }

      .cls-15 {
        fill: none;
        fill-rule: evenodd;
        stroke: #f0cb9c;
        stroke-dasharray: 0 6;
        stroke-linecap: round;
        stroke-miterlimit: 10;
        stroke-width: 2px;
      }
    </style>
  </defs>
  <g id="bg">
    <path class="cls-15" d="m49.97,52.53s21.08-4.72,20.54,3.9-9.12,6.96-11.06,2.11c-1.93-4.85,10.96-17.34,20.54-12.16,9.58,5.18,12.67,22.22,26.36,16.99"/>
    <path class="cls-15" d="m215.52,27.03s8.01-8.14,20.21-2.3c12.2,5.84,20.18,9.87,30.48,3.73,10.3-6.15,24.17-4.22,24,3.07-.17,7.29-4.46,7.13-5.12,8.45s-12.22-1.57-6.11-7.39c6.11-5.82,9.25-5.84,21.14,3.42,11.89,9.26,20.15.59,20.15.59"/>
  </g>
  <g id="cat">
    <g>
      <path class="cls-6" d="m162.08,46.12l6.03,1.35,10.93-1.69,4.8,6.74,4.51,6.96-.33,1.34-1.16,1.83-2.01,1.43,10.54,6.02,7.54,2.26,2.05,1.74-.03,2.33-1.52-.3-.96.52-1.28-.11-1.18-.74-15.37-3.03-1.41,2.02-25.05-4.19-17.57-5.25.07,1.52-2.93,2.8-1.38,4.16,2.33,2.05.21.86-1.55.73-3.05.18-2.48-3.38v-5.54s-1.34-2.98-1.34-2.98l-.67-6.79-2.41,3.93-3.67,5.43,1.83,4.97,1.79,2.69.36,1.63-1.07.78-1.26.13-.59.73-1.19.44-1.46-.36-1.76-5.26-1.95-2.5.2-3.03s-2.35-6.8-2.16-12.74l-.44-12.08-1.09-5.59,2.8-8.12-1.15-1.71-5.59-7.19-.47-2.61,1.1-6.52s3.9-10.32,10.37-11.12l5.35,1.35.81,1.35-1.55,2.44-2.36,1.77-4.02,1.57s-3.46,3.51-3.24,7.66c0,0-.52,3.95,3.22,6.76l41.88,22.36Z"/>
      <path class="cls-3" d="m172.22,66.68c.59.2,1.19.18,1.8.08,2.45-.39,4.85-.93,7.14-1.93.45-.2.87-.43,1.27-.7.34-.23.68-.44,1.07-.57.2-.06.34-.23.3-.47-.04-.23-.3-.43-.53-.41-.12,0-.24.02-.36.06-1.68.55-3.43.55-5.16.7-1,.09-2.01-.05-3.01-.22-1.55-.27-2.94-.8-4.24-1.71-.95-.67-2.02-1.17-3.15-1.54-1.35-.44-2.62-1.07-3.58-2.18-.51-.59-.99-1.19-1.04-2.01-.02-.3-.12-.55-.31-.77-.11-.13-.24-.22-.42-.17-.16.05-.34.15-.33.31.05.42-.06.68-.49.83-.27.09-.31.36-.15.61.38.58.71,1.2,1.17,1.71.84.93,1.7,1.84,2.64,2.68.84.75,1.57,1.63,2.4,2.4.89.83,1.82,1.6,2.76,2.37.64.52,1.38.84,2.22.91Z"/>
      <path class="cls-5" d="m177.59,47.45s-.68,4.01-5.29,5.81-2.17-.77-4.9-.58c-2.73.19-4.19-2.69-3.97-5.16.22-2.47,4.44-12.32,6.49-12.41s2.55,5.97,3.59,7.01c1.04,1.04,2.33-.42,3.13.35s2.27,4.18.95,4.99Z"/>
      <path class="cls-1" d="m171.01,43.11c.18-.03.29-.22.25-.39-.26-1.14-1.1-4.47-1.85-3.87-.89.72-2.11,3.38-1.89,3.95,0,0-.28.05-.44-.23,0,0-.12.22.09.56.07.16-.14.16-.39.07,0,0-.28.58-.06.94,0,0-.32.74.13.7.4-.04,3.04-1.5,4.16-1.71Z"/>
      <path class="cls-5" d="m192.13,75.61s-2.97.83-5.06-.06c-2.35-1-2.48.05-3.86-.77-2.4-2.06-7-3.37-11.14-5-3.37-1.33-6.08-3.94-7.54-7.26-1.27-2.9-1.96-3.92,2.7-.09h0c.08,0,.17.01.24.05l16.22,7.1c.06.02.12.04.18.04l9.88.8s5.11.59,5.68,5.23c.01.12-.01.24-.07.35-.22.37-.85,1.09-2.24.31-.15-.08-.33-.09-.49-.01-.51.24-1.67.67-2.41-.03-.08-.08-.18-.13-.29-.15-.46-.05-1.7-.2-1.81-.51Z"/>
      <g>
        <path class="cls-6" d="m185.2,70.58c.01.13,0,.33.05.51.02.09.11.2.18.21.08.01.19-.06.24-.14.2-.33.2-.72.11-1.08-.04-.14-.18-.3-.29-.32-.14-.02-.21.19-.24.38-.02.13-.03.25-.04.44Z"/>
        <path class="cls-6" d="m184.77,70.27c-.01-.12-.01-.25-.04-.36-.05-.16-.07-.36-.26-.34-.17.01-.25.16-.26.34-.02.24-.02.49.01.73.03.17.11.34.28.33.25-.01.25-.28.29-.51,0-.06,0-.12,0-.18Z"/>
      </g>
      <path class="cls-5" d="m186.72,65.21s-2.41-.77-2.76,1.36c0,0,.05.89-1.14.8,0,0-2.77.27-2.79.43s2.34-3.7,1.82-4.78l1.05-.28,3.81,2.47Z"/>
      <path class="cls-5" d="m163.4,46.8s-3.01-1.18-4.94.88c0,0-.6,3.19-5.09,1.85,0,0,1.27,0-3.33.15s-14.02-7.54-17.74-14.95c0,0-.97-4.29-7.98-1.8-7.01,2.48-7.07-2.13-7.07-2.13,0,0,1.24-1.64-.12-2.64-1.36-1-4.54-2.04-5.58-5.47,0,0-.44-3.7,3.55-3.78,0,0,.93-.12,2.12-4.02,0,0-.63,6.96,4.84,10.37,0,0,11.45-7.15,23.64,4.1,0,0,12.6,14.48,15.27,15.55,0,0,2.41,1.18,2.45,1.89Z"/>
      <path class="cls-5" d="m123.34,1.41c-.05.26.1,1.66,3.93,1.94,0,0,2.03.45-2.49,2.01,0,0-3.55,2.06-3.65,3.41,0,0,6.53-2.55,12.28.25,0,0,3.71-3.14-2.64-7.41,0,0-7.2-1.34-7.42-.21Z"/>
      <path class="cls-10" d="m115.11,5.01s3.28,1.92,1.62,4.84c-.46.81-1.2,1.41-2.03,1.83-.6.3-1.41.94-1.75,2.32-.57,2.3-2.22,1.19-2.22,1.19,0,0,1.55-7.01,4.38-10.18Z"/>
      <path class="cls-9" d="m156.11,41.45c-.25.09-.53.09-.7.34-.15.21-.35.31-.61.23-.27-.09-.44.03-.59.24-.26.34-.41.77-.86.94-.14.05-.17.19-.18.33-.04.35-.25.63-.48.86-.46.48-.87,1-1.25,1.55-.06.08-.13.15-.22.2-.12.06-.27.09-.37-.03-.06-.07-.12-.21-.09-.26.3-.55.42-1.22.91-1.64.57-.49.7-1.1.69-1.78,0-.26.02-.46.27-.58.06-.03.14-.09.14-.13,0-.54.46-.78.76-1.12.16-.18.32-.34.26-.6-.09-.37.03-.65.33-.87.07-.05.08-.18.12-.27.57-.02,1.02.12,1.15.78.09.46.41.81.67,1.18.15.21.19.41.06.64Z"/>
      <path class="cls-9" d="m152.53,37.23c-.08.92-.52,1.7-1.1,2.38-1,1.17-2.09,2.26-2.99,3.52-.22.3-.51.55-.89.65-.12.03-.29-.01-.38-.09-.09-.08-.14-.25-.13-.37.02-.29.19-.54.4-.72.59-.49.95-1.15,1.42-1.73.53-.65,1.09-1.28,1.61-1.94.29-.37.54-.77.78-1.17.06-.1.07-.32,0-.39-.62-.64-1.06-1.43-1.77-1.98-.18-.14-.56-.06-.6.15-.2,1.04-1.2,1.64-1.43,2.66-.6.32-.71.91-.84,1.5-.05.22-.2.42-.33.61-.2.29-.48.35-.72.18-.26-.19-.33-.45-.22-.74.07-.17.16-.35.27-.49.47-.55.61-1.26.82-1.9.14-.44.29-.87.52-1.26.27-.46.74-.82.31-1.49-.2-.3.05-.73.29-1.03.17-.21.21-.42.02-.62-.87-.9-1.8-1.74-2.81-2.51-.37.66-.37.67-1.12,1.2-.24.17-.31.36-.13.58.31.4.2.82,0,1.19-.41.79-.86,1.55-1.31,2.31-.11.19-.31.35-.5.47-.2.13-.46.15-.66-.02-.2-.18-.21-.43-.07-.64.57-.86,1.12-1.72,1.58-2.65.15-.31.29-.57.02-.9-.24-.3-.15-.62.04-.91.16-.23.32-.46.47-.7.11-.16.17-.37.06-.53-.28-.41-.32-.88-.39-1.33-.08-.52-.4-.84-.85-1.03-.81-.36-1.64-.68-2.37-1.21-.16-.12-.35-.12-.53-.02-.44.27-.88.53-1.31.81-.25.17-.23.5.04.69.11.08.25.12.37.2.23.15.29.39.15.61-.29.42-.56.88-.93,1.22-.93.84-1.99,1.56-2.75,2.58-.1.14-.29.23-.46.3-.6.25-1.03-.02-1.05-.67-.02-.54.14-1.03.45-1.45.84-1.13,1.48-2.38,2.11-3.63.27-.53.61-1.05,1.21-1.33.18-.09.17-.32,0-.47-.1-.09-.23-.18-.35-.22-.6-.17-.77-.63-.81-1.18.62-.19,1.23-.1,1.76.21,1.06.62,2.24.9,3.39,1.28.22.07.56.11.63.26.5,1.15,1.71,1.32,2.58,1.96.2.15.39.33.37.56-.04.6.33.92.73,1.26,1.03.88,2.07,1.76,3.02,2.72.38.38.96.41,1.23.87.24.4.4.84.71,1.2.57.68,1.13,1.37,1.68,2.07.14.18.24.4.36.6.02.16.12.26.27.3.05.05.09.11.12.18Z"/>
      <path class="cls-9" d="m147.79,45.64c.23-.06.53.22.52.46-.01.47-.27.79-.62,1.04-.18.13-.42.09-.57-.09-.1-.11-.22-.28-.2-.4.1-.49.35-.87.86-1.02Z"/>
      <path class="cls-9" d="m144.91,41.06c.15-.04.36.15.35.31,0,.32-.18.54-.42.71-.12.09-.28.06-.39-.06-.07-.07-.15-.19-.13-.27.07-.33.24-.59.59-.69Z"/>
      <path class="cls-9" d="m140.02,35.49c.19-.06.45.22.45.45,0,.45-.21.76-.5.99-.15.12-.35.08-.49-.09-.08-.11-.19-.27-.17-.38.07-.46.28-.83.71-.96Z"/>
      <path class="cls-9" d="m116.24,20.87c.19-.06.45.22.45.45,0,.45-.21.76-.5.99-.15.12-.35.08-.49-.09-.08-.11-.19-.27-.17-.38.07-.46.28-.83.71-.96Z"/>
      <path class="cls-9" d="m156.47,43.75c.2-.06.49.27.49.56.01.54-.21.91-.51,1.19-.15.14-.37.08-.52-.13-.09-.13-.21-.34-.2-.47.07-.56.28-1,.74-1.15Z"/>
      <path class="cls-9" d="m127.13,26.92c-.48.11-.97.19-1.45.01-.8-.3-1.47-.31-1.94.56-.23.42-.68.51-1.13.53-.23,0-.45-.06-.52-.3-.04-.14-.04-.37.04-.45.8-.77,1.36-1.68,1.69-2.75.11-.37.46-.46.8-.42.48.05.96.2,1.45-.01h0c.01.2.13.3.3.35.2.32.38.66.61.95.39.49.33,1,.17,1.54Z"/>
      <path class="cls-5" d="m120.08,56.13c.52.73.98,1.51,1,2.42.04,1.54.48,2.67,2.26,2.88.86.1,1.32.8,1.65,1.55.17.38.2.8-.15,1.08-.21.16-.59.32-.79.23-1.84-.82-3.75-1.14-5.76-.97-.69.06-1.08-.46-1.25-1.05-.25-.84-.32-1.75-.99-2.42h.02c-.48-.71,1.75-.44,1.71-.77.4-.56-.5-1.04-.17-1.63.55-.99,1.45-1.23,2.46-1.32Z"/>
      <path class="cls-9" d="m131.3,23.44c-.49.78-.81,1.66-1.41,2.37-.13.16-.27.32-.43.44-.13.1-.31.12-.46,0-.14-.12-.2-.28-.16-.44.04-.16.13-.3.21-.45.35-.62.71-1.23,1.06-1.85.12-.22.24-.45.15-.71.07-.04.14-.09.22-.11.55-.19.65-.14.8.4.03.12.02.25.04.37Z"/>
      <path class="cls-9" d="m113.89,25.96c.24-.89.31-1.82.68-2.67.08-.19.17-.39.29-.55.1-.13.26-.21.45-.12.17.07.27.21.28.38,0,.16-.04.33-.08.49-.16.69-.33,1.38-.49,2.08-.06.24-.11.5.06.73-.06.06-.11.12-.18.17-.47.34-.59.32-.87-.15-.06-.11-.09-.23-.14-.35Z"/>
      <path class="cls-9" d="m180.28,68.44c-.36.85-.55,1.76-1.03,2.56-.11.18-.22.36-.36.5-.12.12-.29.17-.46.06-.16-.1-.24-.24-.22-.42.02-.16.08-.32.14-.47.25-.67.51-1.33.76-1.99.09-.23.17-.48.03-.73.07-.05.13-.11.2-.15.51-.27.63-.24.85.27.05.11.06.24.09.36Z"/>
      <path class="cls-9" d="m178.72,67.96c-.59.51-1.08,1.14-1.74,1.57-.15.1-.3.19-.46.25-.13.05-.28.02-.37-.12-.08-.13-.1-.28-.02-.4.07-.12.18-.21.28-.31.44-.41.88-.82,1.32-1.24.15-.15.31-.3.3-.54.07-.01.14-.03.21-.04.49-.01.57.05.55.52,0,.1-.04.21-.06.31Z"/>
      <path class="cls-9" d="m159.08,47.62c-.17.25-.32.52-.52.75-.19.21-.55.13-.66-.11-.02-.04-.06-.08-.05-.12.07-.68-.37-.91-.92-1.04-.12-.03-.25-.11-.32-.2-.06-.09-.1-.25-.06-.35.04-.1.17-.23.27-.24.41-.01.82.07,1.04.44.28.49.75.56,1.21.68.03.06.03.13.02.2Z"/>
      <path class="cls-9" d="m134.95,23.37c.28-.12.7.14.69.43-.02,1.14-.57,2.02-1.34,2.79-.15.14-.37.17-.56.04-.24-.16-.34-.44-.2-.66.47-.78.85-1.6,1.2-2.44.03-.08.16-.11.22-.15Z"/>
      <path class="cls-9" d="m132.54,27.06c.3,0,.58.41.46.67-.47,1.03-1.34,1.62-2.35,2.01-.19.07-.41,0-.53-.19-.15-.25-.13-.54.08-.69.75-.52,1.42-1.13,2.08-1.75.06-.06.19-.04.26-.05Z"/>
      <path class="cls-9" d="m121.43,25.32c.4-.03.65.07.8.31.17.28.06.56-.17.7-.41.25-.85.48-1.3.64-.27.1-.54-.05-.69-.3-.17-.28-.05-.55.18-.71.4-.27.84-.47,1.18-.66Z"/>
      <path class="cls-9" d="m128.55,28.16c-.21.14-.43.28-.67.06-.23-.22-.15-.66.13-.86.24-.17.59-.13.78.1.18.21.09.47-.25.71Z"/>
      <path class="cls-9" d="m190.39,73.12c0-.06-.03-.14,0-.19.19-.3.45-.47.81-.46.19,0,.32.26.23.45-.16.32-.58.48-.92.35-.05-.02-.08-.09-.12-.14Z"/>
      <path class="cls-9" d="m188.06,73.27c0-.07-.03-.14.03-.19.34-.32.79-.53,1.39-.56.31-.01.5.23.32.43-.3.34-1,.55-1.55.45-.08-.02-.13-.09-.19-.13Z"/>
      <path class="cls-9" d="m197.22,75.89c-.03-.26-.1-.59-.07-.77.2-1.14.58-1.74,1.22-1.54.33.1.66,1.19.58,1.91-.15,1.24-.8,1.72-1.45,1.03-.1-.11-.18-.42-.27-.63Z"/>
      <path class="cls-9" d="m144.31,38.21c-.01-.1-.04-.23-.03-.3.08-.44.22-.67.47-.6.13.04.26.46.22.74-.06.48-.31.67-.56.4-.04-.04-.07-.16-.11-.24Z"/>
      <path class="cls-1" d="m155.67,69.88s.63-4.4-5.32-6.26c-5.95-1.86-5.32-.01-7.81-3.18-2.13-2.71-5.24-10.06-9.5-8.89-1.32.36-2.3,1.47-2.65,2.79l-1.22,4.64s10.93,8.06,26.51,10.9Z"/>
      <path class="cls-10" d="m115.45,40.18s8.72,1.34,7.48,10.75c0,0,.07.55-1.7,2.9-1.76,2.35-.16,3.42-.23,4.92s-2.4,4.37-4.67,1.09c0,0,.34-10.98.38-11.73s-1.28-7.92-1.28-7.92Z"/>
      <path class="cls-5" d="m130.82,66.75s1.8-1.39,3.12.96c0,0,1,1.21.11,2.4,0,0-.5.94.07,1.57s-1.48,1.73-2.08.51l-.22-3.48-1.01-1.97Z"/>
      <path class="cls-13" d="m123.35,79.12c.08.17.16.33.24.5.58-.15,1.17-.22,1.72-.49.05-.24.24-.34.43-.41.28-.11.46-.31.55-.59-.18-.23-.17-.28.07-.41h0c-.27-.04-.17-.26-.2-.42-.11-.57-.4-1.02-.9-1.32-.17-.1-.36-.12-.52-.03-.08.04-.15.15-.19.25-.02.05.03.15.08.19.19.15.46.19.63.41.31.4.34.75.02,1.17-.09.11-.26.22-.23.35.18.65-.33.58-.67.71-.22-.33-.15-.75-.45-1.01-.11-.1-.23-.19-.38-.14-.18.06-.17.22-.13.36.06.21.15.41.19.62.03.17-.1.25-.27.26Z"/>
      <path class="cls-10" d="m180.5,43.17c-2.98-1.24-3.9-.73-3.83-.03.16,1.66.93,4.79,1.61,6.26.35.74,1.56,2.32,1.7,3.12.15.84,2.57,1.03,2.23,1.87-.19.47,0,.92.44,1.14.44.21.65.52.86.94,1.01,1.98,3.09,4.24,4.98,3.06.1-.06,1.09,1,.82-.36,1.02-.86.89-3.41.71-4.57-.21-1.32-.42-2.64-.6-3.96-.15-1.12-1.08-1.3-1.18-2.43-.05-.52.42-1.91.46-2.44.13-1.7.55-3.49.4-5.19-.1-1.13-.27-2.25-.42-3.37-.02-.16-.09-.31-.16-.45-.41-.8-1.25-.97-1.92-.36-.48.44-.88.96-1.18,1.54-.77,1.49-1.9,2.71-2.9,4.04-.43.58-.96.98-1.68,1.08-.12.02-.23.08-.34.12Z"/>
      <path class="cls-13" d="m162.24,45.67c.25.02,1.2-.46,1.41-.62.47-.35.63-.84.74-1.35.75-3.41,2.66-6.16,4.92-8.72.11-.12.23-.24.35-.34.29-.23.61-.18.86.11.1.12.2.26.28.4.63,1.14,1.29,2.26,1.78,3.47.4.98.81,1.95,1.23,2.92.02.05.12.11.18.1.06,0,.16-.08.17-.13.09-.36.14-.72.23-1.07.09-.35.19-.71.31-1.05.03-.1.16-.2.29-.11.05.04.12.12.11.18-.05.32-.11.64-.17.96-.08.47-.16.95-.23,1.31.14.26.27.21.38.21,1.35-.05,1.4.18,1.71-1.3.13-.6.3-1.18.48-1.77.05-.17.11-.44.39-.33.19.07.14.27.1.42-.09.4-.18.79-.28,1.19-.14.54-.35,1.07-.34,1.66.14.05.24.12.36.13,1.22.13,2.39.47,3.52.95.46.19.77.04.92-.43.08-.25.02-.48-.01-.72-.15-1.21-.29-2.42-.42-3.63-.03-.24.1-.35.25-.32.16.03.2.14.21.25.06.36.07.73.14,1.09.13.69.05,1.43.37,2.14.34-.14.44-.42.61-.63.77-1,1.52-2.01,2.29-3.01.58-.75,1.28-1.36,2.09-1.86.37-.23.74-.14.93.24.18.36.34.74.43,1.13.76,3.07.63,6.13-.17,9.17-.07.27-.23.52-.39.75-.09.13-.25.21-.43.12-.18-.09-.21-.27-.13-.41.4-.69.5-1.46.63-2.21.27-1.53.33-3.08.22-4.62-.06-.97-.23-1.94-.51-2.88-.18-.6-.31-.63-.83-.24-.49.37-.93.79-1.3,1.28-.77,1-1.53,2-2.28,3.02-.24.33-.43.69-.65,1.03-.26.39-.34.78-.22,1.26.17.67.22,1.36.32,2.04-.14-.02-.29-.03-.43-.05-.06-.24-.14-.47-.17-.71-.04-.27-.19-.43-.42-.55-1.49-.76-3.04-1.33-4.72-1.46-.46-.04-.54.01-.7.48-.33.91-.64,1.83-.96,2.75-.14-.03-.27-.07-.41-.1.26-.85.51-1.71.77-2.56.05-.18.19-.37-.05-.59-.28.01-.61,0-.93.04-.44.05-.73.23-.82.73-.11.6-.3,1.18-.48,1.76-.07.22-.15.48-.47.46,0-.13-.01-.25-.02-.38.12-.47.24-.95.36-1.42.04-.16.07-.34-.08-.44-.08-.05-.24-.01-.35.03-.3.13-.58.29-.88.42-.15.07-.31.13-.46.13-.1,0-.24-.08-.29-.17-.09-.14-.08-.34.08-.43.28-.16.58-.28.87-.43.83-.44.83-.44.56-1.3-.08-.23-.15-.47-.25-.69-.5-1.11-.98-2.23-1.51-3.33-.37-.76-.81-1.49-1.2-2.2-.31.03-.44.19-.56.35-.44.54-.87,1.07-1.3,1.61-1.46,1.84-2.52,3.88-3.09,6.17-.13.51-.2,1.08-.47,1.51-.28.45-.4.86-.28,1.35.09.39.1.72-.37.89-.17.06-.11.27-.12.43,0,.19-.13.3-.31.3-.17,0-.3-.13-.34-.3-.1-.47-.25-.94-.07-1.44-.11.03-.09-.05-.42-.07m.7-.2s.08-.05.12-.08c-.03-.03-.05-.06-.08-.08-.03.03-.05.05-.08.08.01.03.02.06.04.08Z"/>
      <path class="cls-13" d="m189.25,53.04c-.65.25-1.3.28-1.94.4-.24.05-.48.07-.72.13-.11.02-.24.07-.22.22.02.13.11.22.25.21.28-.01.57-.03.85-.06.32-.04.65-.08.96-.15,1.25-.28,1.15-.12,1.31,1.03.22,1.51,0,1.68-1.44,1.29-.47-.13-.93-.29-1.39-.45-1.03-.34-2.07-.34-3.13-.15-.11.02-.23.07-.19.24.04.14.15.18.26.2.04,0,.08.02.12.01,1.33-.22,2.57.1,3.81.55.38.14.78.2,1.18.28.24.05.46.08.58.36.09.22.33.3.49.11.29-.34.64-.28,1.01-.25.44.04,2.77.23,3.22.25.15,0,.31-.07.45-.13.04-.02.06-.12.07-.19,0-.03-.03-.08-.06-.1-.3-.18-2.52-.25-2.84-.29-1.43-.18-1.28.06-1.36-1.39-.03-.52-.1-1.04-.15-1.56.4-.42,2.07-.77,2.54-.97.11-.05.23-.1.32-.17.1-.08.13-.21.07-.32-.03-.06-.13-.11-.19-.11-.24.04-.47.1-.71.15-1.34.3-2.48,1.45-2.65-.52-.15-.76-.32-1.51-.62-2.22-.08-.18-.25-.23-.4-.17-.08.03-.17.2-.16.3.03.28.1.56.17.83.23.86.39,1.73.5,2.61Z"/>
      <path class="cls-13" d="m163.26,57.46c.58-.84-.26-1.06-.5-1.5-.02-.04-.2-.02-.3,0-.05.02-.09.12-.09.19,0,.1,0,.25.07.31.39.37-.18.55-.16.85.01.37.5.41.46.82-.09.96.53,1.58,1.23,2.04.54.35,1.22.5,1.84.71.14.05.31,0,.36-.17.04-.15-.04-.29-.19-.35-.33-.15-.66-.32-1.01-.42-.73-.21-1.17-.71-1.52-1.34-.12-.22-.15-.4.03-.59.13-.13.04-.27-.04-.4-.05-.09-.19-.12-.18-.16Z"/>
      <path class="cls-13" d="m158.41,49.56c0,.07-.04.15-.02.2.07.19.26.24.42.32,1.29.63,2.57,1.28,3.86,1.89,1.03.48,2.11.87,3.09,1.46.12.07.28.07.42.1.02,0,.07-.03.08-.05.02-.07.05-.16.02-.2-.06-.08-.15-.16-.24-.21-.55-.3-1.08-.63-1.65-.88-1.75-.76-3.48-1.59-5.18-2.46-.2-.1-.4-.18-.61-.25-.05-.02-.12.05-.18.08Z"/>
      <path class="cls-13" d="m185.14,47.74c-.05.25-.06.29-.06.33-.01.19-.13.39.08.55.14.1.36-.12.42-.46.5-2.55,1.29-5.03,1.89-7.56.02-.07,0-.15,0-.23,0-.03-.03-.09-.06-.09-.07-.02-.16-.05-.22-.02-.28.15-.34.44-.41.71-.31,1.26-.57,2.54-.93,3.78-.31,1.06-.51,2.13-.71,2.99Z"/>
      <path class="cls-13" d="m164.91,54.83c.03-.23.25-.5-.17-.6-.32-.08-.63-.18-.95-.24-1.04-.22-2.06-.5-3.06-.84-.17-.06-.35-.12-.53-.14-.07,0-.17.1-.23.18-.02.03.02.16.07.18.23.11.46.23.69.3.97.32,1.96.57,2.96.78.42.09.87.11,1.23.38h-.02Z"/>
      <path class="cls-13" d="m180.52,66.31c.13.18.31.18.42.02.57-.84,1.01-1.75,1.13-2.78.01-.09-.03-.22-.09-.28-.06-.05-.18-.06-.27-.05-.05,0-.11.09-.12.15-.14.96-.66,1.76-1.03,2.62-.01.1-.02.21-.03.31Z"/>
      <path class="cls-13" d="m187.97,59.89c0,.09,0,.21.03.33.05.3.25.51.45.47.26-.05.26-.27.27-.47.02-.25.11-.32.38-.25.28.08.46-.11.47-.39,0-.41-.09-.8-.32-1.14-.05-.08-.21-.12-.31-.12-.19,0-.29.18-.27.33.02.24.13.46.17.7.02.11-.04.22-.07.34-.09-.05-.17-.11-.26-.16-.34-.17-.53-.05-.53.36Z"/>
      <path class="cls-13" d="m183.12,45.43c-.14-.02-.29-.03-.43-.05.06.59.11,1.18.19,1.77.01.09.12.24.19.25.19.01.26-.16.26-.32,0-.56-.05-1.11-.21-1.65Z"/>
      <path class="cls-13" d="m187.68,61.38c-.02-.11-.04-.27-.09-.41-.02-.06-.11-.11-.18-.12-.07-.01-.17,0-.22.05-.23.25-.2.59-.31.88-.06.18-.13.39.09.52.16.1.49-.07.57-.3.06-.19.09-.38.14-.62Z"/>
      <path class="cls-13" d="m175.71,45.89c-.14-.03-.27-.07-.41-.1-.13.29-.27.58-.37.87-.03.09.05.22.08.33.11-.04.27-.04.31-.12.19-.3.38-.61.39-.98Z"/>
      <path class="cls-13" d="m181.66,36.45c-.16.34-.17.71-.13,1.07,0,.09,0,.23.19.25.17.02.25-.11.26-.19.04-.36.04-.72.06-1.09-.12-.01-.25-.03-.37-.04Z"/>
      <path class="cls-13" d="m181.66,36.45c.12.01.25.03.37.04.05-.15-.04-.22-.16-.24-.13-.02-.21.06-.22.2Z"/>
      <path class="cls-13" d="m173.32,45.63c0-.13-.01-.25-.02-.38-.14.13-.32.27.02.38Z"/>
      <g>
        <path class="cls-4" d="m170.38,51.45c-.3-.28-.44-.63-.4-1.04.03-.37.25-.67.6-.73.91-.15,1.74,0,2.43.65.33.31.6.66.42,1.15-.21.56-.79.9-1.39.82-.47-.06-1.3-.49-1.65-.85Z"/>
        <path class="cls-11" d="m171.15,50.03c.22-.14.45-.16.68-.03.47.26.88.59,1.2,1.02.16.21.16.46.03.68-.14.23-.38.3-.63.27-.54-.08-1.01-.33-1.43-.66-.51-.4-.44-.95.14-1.28Z"/>
      </g>
      <g>
        <path class="cls-4" d="m179.33,52.85c0,.48.41.91.9,1.03.57.13,1.45-.2,1.74-.66.28-.45-.03-1.08-.66-1.3-.62-.22-1.57.09-1.88.61-.07.12-.08.25-.1.33Z"/>
        <path class="cls-11" d="m180.91,53.78c.13-.02.28-.04.43-.07.8-.19.97-.61.46-1.17-.25-.28-.64-.35-.94-.13-.2.14-.38.3-.53.47-.18.21-.38.45-.14.72.17.2.44.2.72.18Z"/>
      </g>
      <path class="cls-13" d="m173.83,55.46c.1-.08.12-.21.05-.32-.15-.22-.28-.41-.39-.6-.16-.28,0-.61.29-.63.61-.03,1.56.2,2.08.52.14.09.14.32.07.49-.04.11-.5.27-.56.37-.78.79.24,1.26.96,1.69.23.14.56.11.72.38.04.06.06.15.06.22,0,.14-.11.21-.23.22-.42.03-.88,0-1.2-.26-.29-.22-.98-.94-1.16-1.25-.13-.21-.3-.24-.5-.12-.51.29-1.06.35-1.63.31-.19-.01-.86-.25-1.04-.32-.09-.04-.19-.16-.2-.26-.03-.2.13-.27.3-.28.28-.01,1.03.18,1.31.17.38-.01.75-.08,1.08-.33Z"/>
      <path class="cls-13" d="m158.63,54.68c1.72,1.74,3.57,3.37,5.48,4.89,1.59,1.27,3.25,2.47,5.02,3.49.78.44,1.59.85,2.43,1.16.97.35,1.96.64,2.92,1.02,3.9,1.56,7.52,3.86,11.77,4.38,2.49.31,4.98-.04,7.46.48,1.71.36,3.41,1.03,4.73,2.19.9.8,1.63,1.89,1.76,3.11.05.44.17,1.1-.27,1.42-.78.55-2.32.12-2.96-.5-.25-.24.19-.33.36-.34.33-.01.76.09,1,.33,0,0,.04.06.11.07,0,0,.2-.11.26-.22.09-.17.03-.38.02-.57-.02-.42-.04-.79-.17-1.19-.35-1.04-1.11-1.91-2.01-2.52-1.44-.99-3.22-1.36-4.94-1.45-1.23-.07-2.45.03-3.68-.04-1.14-.06-2.28-.22-3.4-.47-4-.88-7.45-3.05-11.24-4.48-.9-.34-1.83-.59-2.72-.94-.85-.34-1.66-.75-2.45-1.2-1.66-.94-3.22-2.05-4.72-3.22-2.13-1.67-4.2-3.46-6.1-5.39-.24-.24.19-.33.36-.34.32-.01.77.09,1,.33h0Z"/>
      <path class="cls-13" d="m183.49,62.29c1.34.88,2.69,1.75,4.04,2.62,1.13.73,2.26,1.47,3.39,2.2,1.19.77,2.36,1.55,3.68,2.11s2.55.92,3.88,1.22c.74.17,1.5.26,2.23.45s1.41.55,2.06.91c.84.47,1.68,1.02,2.35,1.73.59.63,1.16,1.51.83,2.41-.15.39-.39.77-.81.87-.72.17-1.47-.06-2.08-.45h.93c-.47.92-1.71.89-2.53.51l.6.04c-.99.27-1.83-.38-2.2-1.25-.11-.27.36-.34.51-.33.28.01.57.14.68.4.08.2.19.34.33.49.05.05-.01.02-.03,0,0,0,.1,0-.04,0,.26-.03.43-.02.68.07.39.15.69-.03.87-.4.14-.28.75-.13.93-.01.23.15.4.21.66.22.03,0,.08-.02.11-.03-.15.06-.05,0,.02-.12.18-.31.3-.61.24-.98-.13-.76-.8-1.35-1.37-1.81-.64-.5-1.36-.93-2.1-1.27-.27-.12-.54-.24-.82-.33-.12-.04.1.02,0,0-.04,0-.08-.02-.12-.03-.14-.03-.28-.05-.42-.08-2.23-.41-4.46-.98-6.52-1.96-2.26-1.08-4.33-2.62-6.43-3.98-1.42-.92-2.85-1.85-4.27-2.78-.2-.13-.33-.35-.11-.52s.65-.08.85.06h0Z"/>
      <path class="cls-13" d="m163.16,47c-1.29-.89-2.49-1.91-3.67-2.94-3.2-2.77-6.17-5.81-8.94-9-2.6-2.99-5.22-5.99-8.48-8.3-2.81-2-6.03-3.34-9.5-3.51-1.91-.09-3.82.15-5.68.61-1.39.34-2.87.77-4.07,1.58-.26.17-.52.37-.67.65-.17.32-.89.05-.7-.31.34-.63,1.13-1.01,1.74-1.31.46-.23.94-.43,1.43-.59,1.97-.65,4-1.09,6.07-1.2,3.61-.19,7.11.77,10.21,2.61,3.31,1.96,6.09,4.74,8.62,7.6,1.64,1.85,3.23,3.73,4.94,5.52,1.44,1.5,2.93,2.95,4.47,4.35s3.04,2.61,4.65,3.81c.02.02.04.03.06.05.42.29-.16.62-.49.39h0Z"/>
      <path class="cls-13" d="m196.87,75.92c.05.28-.07.57-.31.72-.76.48-1.97-.11-2.66-.43l.5-.06c-.15.19-.41.25-.63.26-.61.02-1.14-.39-1.55-.79l.53.12c-1.4.4-2.96.5-4.4.3-.82-.12-1.63-.32-2.44-.49-.89-.18-1.78-.36-2.67-.53-1.31-.24-2.6-.4-3.92-.46-.3-.01-.59-.05-.88-.09-1.25-.16-2.5-.36-3.75-.56-1.9-.31-3.79-.65-5.68-1.01-2.35-.44-4.69-.92-7.02-1.42-2.57-.56-5.14-1.15-7.69-1.79-2.58-.65-5.15-1.34-7.69-2.11-2.38-.72-4.74-1.5-7.06-2.39-1.96-.76-3.9-1.6-5.74-2.63-1.36-.76-2.73-1.64-3.76-2.82-.21-.23-.4-.48-.57-.74-.21-.33.55-.33.7-.09.74,1.14,1.92,2.01,3.07,2.73,1.65,1.04,3.44,1.87,5.24,2.61,2.19.91,4.44,1.69,6.7,2.41,2.47.78,4.96,1.48,7.47,2.14,2.54.66,5.09,1.27,7.65,1.84,2.39.53,4.78,1.03,7.18,1.5,2,.39,4,.76,6,1.1,1.4.24,2.81.47,4.21.67.06,0,.12.02.18.03-.08-.01.07,0,.12.02.11.01.22.03.32.04.18.02.35.04.53.06.53.05,1.07.04,1.6.1,1.73.17,3.44.51,5.14.86.77.16,1.53.32,2.3.48,1.02.2,2.06.2,3.08.07.44-.06.89-.13,1.32-.25.18-.05.4-.01.53.12.19.18.52.51.76.51.04,0,.05-.01.09-.04.07-.04-.01.02.02-.02.11-.13.36-.12.5-.06.39.19,1.43.75,1.81.42.09-.08.13-.26.11-.36-.06-.34.71-.26.76.04h0Z"/>
      <path class="cls-13" d="m141.04,65.36c.16.64-.06,1.38-.38,1.93-.37.64-.94,1.05-1.5,1.51-.59.48-1.1,1.06-1.46,1.73-.24.45-.4.95-.43,1.46-.01.24,0,.48-.04.72-.06.34-.2.67-.25,1.01-.06.43.16.52.49.71.29.17.57.36.83.57.43.34.9.79,1.03,1.35.27,1.12-1.08,1.5-1.93,1.42l.36-.13c-.15.27-.56.35-.83.38-.63.05-1.22-.33-1.82-.22-.4.08-.74.2-1.14.08-.6-.18-1-.74-1.32-1.24-.41-.63-.83-1.29-1.13-1.97-.11-.24-.17-.44-.11-.69.2-.76.2-1.49.19-2.29-.01-1.01-.05-2.02-.09-3.03l.72.29-.38.16c-.2.09-.48,0-.64-.14-.28-.23-.19-.68-.12-.98.09-.38.99-.18.9.2-.03.13-.01.37-.05.49-.02.04.05.08,0,.04l-.64-.14.38-.16c.19-.08.71.01.72.29.03.7.06,1.4.07,2.1.02.93.11,1.91-.02,2.83-.03.2-.12.37-.17.57-.04.18.05.35.15.56.35.68.74,1.35,1.17,1.98.2.28.4.64.72.59.47-.07.84-.19,1.33-.08.29.07,1.08.39,1.26.06.06-.11.25-.13.36-.13.26.02.57,0,.8-.12.63-.31.33-1-.04-1.39-.42-.46-.95-.72-1.47-1.05-.49-.31-.58-.75-.46-1.29s.21-1,.25-1.54c.03-.46.16-.9.35-1.31.24-.53.57-1.01.97-1.44.53-.57,1.22-.96,1.73-1.54s.91-1.41.72-2.18c-.1-.4.81-.32.9.04h0Z"/>
      <path class="cls-13" d="m130.33,61.12c0,1.03.03,2.07.13,3.1.05.5.09,1.07.32,1.52.17.33.26.62.23,1,0,.06-.02.13-.02.19,0,.02.02.12.01.13.04.12-.06.1-.3-.07.05-.03.09-.06.13-.1.12-.09.62,0,.54.21-.06.15-.11.31-.14.46-.02.07,0,.24-.03.3.03.08-.01.08-.13-.02-.16-.04-.19-.06-.1-.06,0,.01.16-.13.17-.15.1-.23.69-.07.6.13-.15.36-.79.57-1.06.21-.2-.26,0-.74.11-1l.54.21c-.24.19-.66.27-.86-.03-.12-.19-.04-.44-.03-.65.02-.36-.18-.59-.29-.9s-.16-.62-.21-.93c-.17-1.21-.2-2.45-.19-3.68,0-.22.6-.12.6.13h0Z"/>
      <path class="cls-13" d="m131.07,53.65c-.19,1.62-.61,3.25-1.13,4.8-.45,1.32-1.01,2.62-1.76,3.79-.47.74-1.08,1.35-1.55,2.09-.57.88-1.12,1.77-1.62,2.69-.25.46-.49.92-.68,1.41-.06.17-.12.34-.16.51-.02.12-.03.18,0,.25.19.49.49.95.71,1.43.24.52.45,1.05.6,1.61.27.95.63,1.91,1.17,2.74.16.25.35.49.57.69.13.12.3.2.42.33.22.24.4.57.47.88.11.49-.09.92-.49,1.21-.19.13-.38.17-.53.32-.17.17-.4.28-.64.31-.36.05-.7-.06-1.01-.23-.1-.06-.15-.15-.06-.23s.31-.02.4.03c.29.16.55.14.79-.09.18-.17.39-.22.59-.37.42-.3.5-.76.31-1.22-.06-.15-.15-.3-.25-.43-.03-.04-.06-.08-.09-.12,0,0-.02-.02-.02-.03.1.1-.1-.05-.12-.07-.45-.33-.78-.8-1.05-1.28-.44-.78-.77-1.64-1.01-2.5-.16-.56-.37-1.09-.61-1.62-.2-.45-.48-.88-.67-1.34-.1-.24,0-.53.09-.76.16-.45.37-.88.59-1.3.48-.92,1.03-1.81,1.58-2.69.17-.26.33-.53.51-.79.24-.34.55-.63.8-.97.83-1.12,1.44-2.38,1.93-3.68.66-1.75,1.15-3.62,1.37-5.48.02-.21.59-.1.57.12h0Z"/>
      <path class="cls-13" d="m119.19,29.61c.06-.02-.03.01-.06.03-.08.04-.16.08-.24.13-.26.15-.51.33-.73.53-.71.64-1.09,1.49-1.22,2.43s-.53,1.76-.81,2.63c-.42,1.35-.57,2.74-.48,4.15.07,1.11.25,2.22.51,3.31.16.68.35,1.35.55,2.03.04.14.06.28.09.43.29,2.03.39,4.11.32,6.16-.04,1.25-.21,2.48-.27,3.73-.06,1.09-.06,2.18-.01,3.27.09,2.29.34,4.59.9,6.82.23.93.52,1.85.94,2.71.12.25.3.49.39.75.15.44-.11.87-.28,1.25-.21.48-.21,1.02-.04,1.51s.47.73.85,1.04c.6.48.99,1.28,1.34,1.94.44.81.83,1.65,1.18,2.5.14.34.24.68.31,1.04.07.39.09.79.22,1.17.06.16.15.26.24.39,0,0,.07.05.07.05.08-.21-.24.03-.08-.03.12-.05.29-.04.42-.08.16-.04.38.01.53.07.06.03.27.14.1.18-.75.2-1.75.11-2.03-.74-.12-.38-.15-.79-.22-1.18s-.2-.75-.35-1.12c-.37-.89-.79-1.77-1.26-2.61-.22-.4-.46-.79-.73-1.16-.23-.31-.51-.49-.79-.75-.35-.32-.57-.76-.65-1.22-.04-.25-.05-.5,0-.75.06-.31.22-.57.33-.86s.18-.61.04-.89c-.19-.38-.4-.74-.56-1.13-.83-2-1.19-4.2-1.43-6.33-.25-2.29-.32-4.62-.13-6.91.12-1.4.24-2.79.23-4.2,0-1.19-.07-2.39-.19-3.58-.05-.5-.08-1.01-.19-1.5-.15-.66-.38-1.3-.54-1.96-.14-.58-.26-1.17-.36-1.76-.27-1.67-.34-3.39.04-5.05.23-1.01.68-1.94.93-2.94.06-.23.09-.46.13-.7.07-.52.24-1.01.51-1.46.37-.61.9-1.12,1.52-1.46.11-.06.21-.11.33-.16.15-.06.39.02.53.07.08.03.25.12.1.18h0Z"/>
      <path class="cls-13" d="m160.3,46.3c-.21.07-.43.13-1.26.72-.3.18-.39.35-.58.66-.08.13-.06.28.08.37.09.06.22.1.29,0,.34-.43.57-.68,1.05-.92.98-.48,1.27-.46,2.35-.37.39.03.77.12,1.17.03.15-.03.3-.12.3-.26,0-.14-.14-.23-.3-.21-.92.09-1.2-.29-2.12-.17,0,0-.65-.03-.98.14Z"/>
      <path class="cls-13" d="m121.83,24.46c-1.5-.74-2.59-2.03-3.5-3.59-.54-.93-.78-2-.79-3.14-.01-.98.1-1.95.29-2.89.68-3.41,2.38-5.48,5.21-6.14,2.49-.58,4.98-.89,7.52-.31.62.14,1.21.34,1.75.83.78.71,1.76.35,2.22-.72.64-1.51.35-3.65-.67-4.88-.62-.75-1.36-1.25-2.16-1.61-2.31-1.04-4.67-1.68-7.12-1.56-1.42.07-2.84.07-4.23.47-.88.26-1.69.66-2.41,1.34-.95.91-1.9,1.81-2.82,2.75-1.13,1.16-2.09,2.52-2.79,4.14-.22.51-.46,1.02-.7,1.51-.53,1.05-.89,2.18-1.04,3.42-.56,4.44-.43,4.68-.14,6.29-.03.19.59,1.84.62,2.03.01.11.03-.1.08-.11.14-.02.64.13.68.01-.14-.47-.79-.66-.98-4.61.18-1.15.34-2.3.49-3.45.13-1.04.41-2.01.85-2.9.69-1.37,1.23-2.85,2.13-4.05,1.36-1.81,2.96-3.25,4.57-4.67.56-.49,1.22-.73,1.9-.86,3.42-.68,6.8-.58,10.13.87.9.39,1.78.84,2.48,1.7.72.88.94,2.7.46,3.81-.19.44-.57.64-.92.41-2.41-1.59-4.97-1.57-7.55-1.24-1.04.13-2.08.32-3.1.64-2.49.77-4.12,2.66-4.94,5.64-.39,1.42-.57,2.88-.51,4.41.06,1.5.48,2.79,1.23,3.96.88,1.37,1.8,2.3,3.55,3.49-.19.2-.31.33-.42.46-.11.13-.25.28-.13.47.09.13.25.25.39.26.14.01.3-.09.43-.17,0,0,.82-.66.66-1.7l-.69-.31Z"/>
      <path class="cls-13" d="m114.99,27.72c-.48-.5-.93-.96-1.37-1.42-.91-.93-1.65-2.04-2.26-3.28-.11-.22-.21-.45-.29-.69-.06-.19-.01-.43.13-.48.12-.04.32.04.42.16.15.17.25.42.37.64.18.32.34.67.54.97,1.18,1.7,2.44,3.29,4.19,4.08.54.24.98.59.97,1.36,0,0-.06.53-.67.21-.81-.42-2.03-1.55-2.03-1.55Z"/>
      <path class="cls-13" d="m173.37,57.78c.03.06.04.14.08.17.48.3,1.25.17,1.61-.26.03-.03,0-.12-.02-.18,0-.02-.06-.06-.07-.05-.48.24-1.01.22-1.53.26-.03,0-.05.04-.08.06Z"/>
      <g>
        <path class="cls-13" d="m164.69,71.32c.03.13.05.33.12.5.04.09.18.19.27.19.1,0,.25-.08.31-.17.24-.35.19-.74.02-1.09-.07-.14-.28-.28-.44-.28-.2,0-.26.22-.28.41,0,.13,0,.25,0,.44Z"/>
        <path class="cls-13" d="m164.07,71.06c-.03-.12-.05-.25-.1-.35-.08-.15-.14-.34-.4-.31-.22.03-.32.19-.32.37,0,.24.03.49.11.72.06.16.19.33.41.3.34-.04.3-.31.33-.54,0-.06-.02-.12-.03-.18Z"/>
      </g>
      <g>
        <path class="cls-13" d="m184.55,64.39c-.07.12-.19.27-.26.44-.04.09-.03.23.02.28.06.05.19.06.28.02.36-.15.58-.47.72-.82.05-.14.03-.35-.06-.43-.11-.1-.29.03-.42.17-.09.09-.17.19-.29.33Z"/>
        <path class="cls-13" d="m184.38,63.89c.06-.11.14-.21.17-.32.05-.16.15-.33-.02-.43-.14-.09-.29-.01-.41.12-.16.18-.31.39-.41.6-.08.15-.11.34.03.43.21.14.37-.08.53-.25.04-.04.07-.1.1-.15Z"/>
      </g>
    </g>
    <g>
      <rect class="cls-8" x="193.24" y="53.08" width="8.73" height="9.92" rx="1.11" ry="1.11"/>
      <path class="cls-14" d="m200.9,62.76h-2.91c-1.15,0-2.33.07-3.48,0s-.9-1.31-.9-2.08v-5.92c0-.3-.04-.65.06-.94.2-.55.69-.49,1.16-.49h5.65c.58,0,1.08.21,1.14.9.02.25,0,.52,0,.77v6.43c0,.54.03,1.28-.71,1.32-.4.02-.57.53-.07.5.81-.05,1.48-.6,1.51-1.43.02-.4,0-.81,0-1.22v-4.62c0-.93.29-2.47-.71-2.99-.4-.21-.87-.16-1.3-.16-.68,0-1.37,0-2.05,0-1.27,0-2.55-.03-3.82,0-.74.02-1.48.48-1.58,1.26-.04.32,0,.65,0,.97v6.37c0,.42-.04.84.21,1.21.38.58,1.02.61,1.64.61h6.11c.4,0,.57-.5.07-.5Z"/>
    </g>
    <g>
      <rect class="cls-12" x="210.11" y="53.08" width="8.73" height="9.92" rx="1.11" ry="1.11"/>
      <path class="cls-14" d="m217.96,62.87c-2.13,0-4.28.08-6.42,0-1.22-.04-1.08-1.25-1.08-2.11v-6c0-.29-.03-.61.03-.89.15-.63.48-.64.99-.64h5.69c.59,0,1.16.21,1.28.88.05.27.02.57.02.85v6.5c0,.16,0,.32,0,.48-.01.27-.14.92-.51.94-.14,0-.41.03-.51.14-.07.07-.14.14.04.13.82-.05,1.66-.43,1.71-1.35.02-.34,0-.69,0-1.03v-6.31c0-.51-.05-1-.54-1.31-.38-.24-.84-.19-1.27-.19h-2.05c-1.27,0-2.55-.03-3.82,0-.66.01-1.46.26-1.71.94-.12.32-.07.72-.07,1.06v6.39c0,.37-.05.8.11,1.14.3.62.93.66,1.53.66h6.11c.14,0,.41-.03.51-.14.07-.08.14-.13-.04-.13Z"/>
    </g>
    <g>
      <rect class="cls-8" x="223.77" y="43.27" width="8.73" height="9.92" rx="1.11" ry="1.11"/>
      <path class="cls-14" d="m231.42,52.91c-2.12,0-4.27.1-6.39,0-1.1-.05-.89-1.27-.89-2.04v-5.92c0-.3-.05-.68.07-.96.22-.51.71-.45,1.16-.45h5.65c.57,0,1.07.18,1.13.86.02.25,0,.52,0,.77v6.43c0,.54.03,1.26-.71,1.3-.42.02-.55.58-.06.56.82-.05,1.47-.62,1.51-1.45.02-.4,0-.81,0-1.22v-4.62c0-.95.29-2.47-.71-3.01-.4-.22-.86-.17-1.3-.17h-2.05c-1.27,0-2.55-.03-3.82,0-.75.02-1.47.49-1.57,1.28-.04.32,0,.65,0,.97v6.37c0,.42-.03.85.21,1.23.38.59,1.02.63,1.64.63h6.11c.42,0,.55-.56.06-.56Z"/>
    </g>
    <g>
      <rect class="cls-12" x="234.25" y="43.27" width="8.73" height="9.92" rx="1.11" ry="1.11"/>
      <path class="cls-14" d="m242.11,53.04c-2.13,0-4.26.06-6.39,0-1.23-.03-1.11-1.22-1.11-2.1v-5.94c0-.3-.04-.64.02-.94.15-.67.54-.65,1.06-.65h5.63c.62,0,1.19.22,1.28.93.03.27,0,.55,0,.81v6.47c0,.47.06,1.38-.59,1.41-.19.01-.79.32-.31.29.81-.05,1.59-.49,1.63-1.37.02-.36,0-.73,0-1.1v-6.28c0-.54-.1-1.06-.64-1.33-.37-.19-.82-.14-1.22-.14h-2.09c-1.25,0-2.5-.02-3.75,0-.66.01-1.44.27-1.69.95-.12.32-.07.72-.07,1.06v6.39c0,.37-.05.8.11,1.14.31.62.93.67,1.53.67h6.11c.14,0,.41-.02.51-.14.07-.08.14-.16-.04-.16Z"/>
    </g>
    <g>
      <path class="cls-2" d="m217.81,43.06h-23.54c-.57,0-1.03.46-1.03,1.03v7.96c0,.57.46,1.03,1.03,1.03h7.7c.74,0,.72-.3.72-.46,0-1.85,1.5-3.34,3.34-3.34s3.34,1.5,3.34,3.34c0,.16-.01.46.58.46h7.84c.57,0,1.03-.46,1.03-1.03v-7.96c0-.57-.46-1.03-1.03-1.03Z"/>
      <path class="cls-14" d="m218.05,42.93h-22.39c-.41,0-.82-.03-1.23,0-1.16.11-1.55.78-1.55,1.85v4.38c0,.99-.19,2.18.03,3.16.26,1.17,1.67.91,2.57.91h4.62c.68,0,2.06.22,2.66-.22.51-.37.29-1.02.5-1.59.69-1.89,3.02-2.52,4.57-1.25.49.41.86.96,1.05,1.56.1.32,0,.95.18,1.22.2.31.59.26.91.27,1.31.04,2.62,0,3.93,0,1.21,0,2.47.09,3.68,0,1.3-.1,1.63-.85,1.63-2v-5.16c0-1.12.39-2.89-1.09-3.13-.16-.03-.77.24-.6.26,1.34.22.97,2.07.97,3.06v4.46c0,.77.23,2.02-.72,2.23-1.09.25-2.52,0-3.63,0-1.19,0-2.5.16-3.68,0-.8-.11-.62-.39-.76-1.09-.19-.91-.77-1.72-1.56-2.2-1.19-.72-2.75-.63-3.94.04-.69.38-1.26.98-1.57,1.71-.24.57-.07,1.37-.63,1.56-.38.13-1,0-1.4,0h-2.33c-1.15,0-2.38.12-3.53,0-1.3-.13-1.11-1.27-1.11-2.23v-4.43c0-.56-.33-2.75.44-3.08.3-.13.95,0,1.26,0h22.27c.14,0,.81-.27.48-.27Z"/>
    </g>
    <g>
      <path class="cls-12" d="m209.29,43.06h-6.51c-.61,0-1.11-.5-1.11-1.11v-7.7c0-.61.5-1.11,1.11-1.11h6.51c.61,0,1.11.5,1.11,1.11v7.7c0,.61-.5,1.11-1.11,1.11Zm-3.25-7.11c-1.32,0-2.39,1.07-2.39,2.39s1.07,2.39,2.39,2.39,2.39-1.07,2.39-2.39-1.07-2.39-2.39-2.39Z"/>
      <g>
        <path class="cls-14" d="m209.53,42.91c-2.13,0-4.26.06-6.39,0-1.23-.03-1.1-1.22-1.1-2.1v-5.94c0-.3-.04-.64.02-.93.15-.67.54-.64,1.06-.64h5.63c.61,0,1.19.21,1.28.93.03.27,0,.55,0,.81v6.47c0,.47.06,1.37-.59,1.41-.2.01-.79.33-.31.3.81-.05,1.59-.49,1.63-1.37.02-.36,0-.73,0-1.1v-6.28c0-.54-.11-1.06-.64-1.33-.37-.19-.82-.14-1.22-.14h-2.09c-1.25,0-2.5-.02-3.75,0-.66.01-1.44.27-1.69.95-.12.32-.07.73-.07,1.06v6.39c0,.37-.05.8.11,1.14.31.62.93.68,1.53.68h6.11c.14,0,.41-.02.51-.14.07-.08.14-.16-.04-.16Z"/>
        <path class="cls-14" d="m206.27,35.8c-1.11.02-2.25.53-2.74,1.57s-.21,2.19.62,2.9c.87.75,2.16.75,3.16.25s1.6-1.49,1.46-2.58c-.16-1.25-1.26-2.13-2.5-2.14-.17,0-.37.04-.51.14-.1.07-.11.16.04.16.91.01,1.73.58,2.08,1.42s.18,1.85-.46,2.51c-.27.27-.61.49-.99.54-.44.05-.89-.08-1.27-.3-.77-.46-1.21-1.33-1.13-2.22s.79-1.93,1.78-1.94c.17,0,.37-.04.51-.14.1-.07.11-.17-.04-.16Z"/>
      </g>
    </g>
    <g>
      <path class="cls-8" d="m206.04,33.59h-5.17c-.61,0-.99-.46-.68-.83l2.58-3.14,2.58-3.14c.3-.37,1.06-.37,1.37,0l2.58,3.14,2.58,3.14c.3.37-.08.83-.68.83h-5.17Z"/>
      <path class="cls-14" d="m206.07,33.31c-.9,0-1.8,0-2.7,0-.6,0-1.21,0-1.81,0-.28,0-1.22.11-1.07-.43.07-.25.47-.57.63-.76l1.23-1.5,1.29-1.57,1.19-1.45c.25-.3.5-.73.8-.97.48-.39.8.07,1.07.4l1.13,1.37c1.18,1.44,2.37,2.88,3.55,4.31.1.13.31.33.17.52-.08.11-.43.08-.57.08h-1.7c-1.07,0-2.14,0-3.22,0-.43,0-.55.56-.06.56,1.07,0,2.14,0,3.22,0,.77,0,2.76.32,3.1-.67.15-.44-.24-.78-.49-1.09l-1.33-1.62-1.62-1.97-1.32-1.61c-.27-.33-.54-.77-.96-.92-1.28-.47-2.06.98-2.73,1.79-1.31,1.6-2.74,3.15-3.96,4.81-.53.73.25,1.24.94,1.26.47.01.94,0,1.41,0,1.25,0,2.51,0,3.76,0,.43,0,.55-.56.06-.56Z"/>
    </g>
    <g>
      <path class="cls-7" d="m233.87,43.34h-5.17c-.61,0-.99-.46-.68-.83l2.58-3.14,2.58-3.14c.3-.37,1.06-.37,1.37,0l2.58,3.14,2.58,3.14c.3.37-.08.83-.68.83h-5.17Z"/>
      <path class="cls-14" d="m234.02,43.14c-.9,0-1.8,0-2.7,0h-1.81c-.31,0-.96.09-1.15-.22-.22-.35.3-.78.5-1.02l1.22-1.48,1.31-1.59,1.17-1.42c.28-.34.56-.82.9-1.1.44-.36.76.06,1.02.38l1.1,1.34c1.19,1.45,2.39,2.9,3.58,4.35.07.08.17.17.22.27.22.4-.18.49-.46.49h-1.7c-1.07,0-2.14,0-3.22,0-.26,0-.77.4-.29.4,1.07,0,2.14,0,3.22,0,.79,0,2.65.3,3.15-.52.26-.42-.12-.75-.37-1.06l-1.32-1.6-1.62-1.97-1.33-1.61c-.27-.33-.53-.78-.94-.94-1.27-.49-2.04.84-2.7,1.65-1.35,1.64-2.78,3.25-4.07,4.94-.49.64.17,1.09.82,1.11.47.02.94,0,1.41,0,1.25,0,2.51,0,3.76,0,.26,0,.77-.4.29-.4Z"/>
    </g>
    <g>
      <rect class="cls-7" x="222.92" y="53.19" width="22.29" height="9.82" rx="1.89" ry="1.89"/>
      <path class="cls-14" d="m243.45,62.76c-3.49,0-6.98,0-10.48,0h-6.39c-.51,0-1.02.03-1.53,0-1.21-.07-1.76-.91-1.78-2.03-.03-1.87-.15-3.82,0-5.68.17-2.11,2.6-1.62,4.08-1.62h13.61c.67,0,1.35-.03,2.03,0,1.26.06,1.83.91,1.85,2.09s0,2.46,0,3.69.36,3.4-1.48,3.55c-.39.03-.57.53-.08.49,2.96-.24,2.29-3.65,2.29-5.73,0-1.84.38-4.46-2.21-4.57-4.44-.19-8.92,0-13.36,0-1.67,0-3.34-.05-5.01,0-1.02.03-2.02.53-2.34,1.57-.27.86-.1,1.97-.1,2.85,0,1.96-.74,5.69,2.12,5.88,1.35.09,2.74,0,4.09,0h14.42c.32,0,.75-.49.26-.49Z"/>
    </g>
  </g>
</svg>