<?xml version="1.0" encoding="UTF-8"?>
<svg xmlns="http://www.w3.org/2000/svg" viewBox="0 0 332.15 80">
  <defs>
    <style>
      .cls-1 {
        stroke-dasharray: 0 0 6.03 6.03;
      }

      .cls-1, .cls-2 {
        fill: none;
        stroke: #f0cb9c;
        stroke-linecap: round;
        stroke-miterlimit: 10;
        stroke-width: 2px;
      }

      .cls-3 {
        fill: #e7dad2;
      }

      .cls-4 {
        fill: #e9dcd4;
      }

      .cls-5 {
        fill: #655142;
      }

      .cls-6 {
        fill: #9c8b83;
      }

      .cls-7 {
        fill: #a19088;
      }

      .cls-8 {
        fill: #241914;
      }

      .cls-9 {
        fill: #5c4c43;
      }

      .cls-10 {
        fill: #7b685d;
      }
    </style>
  </defs>
  <g id="bg">
    <g>
      <path class="cls-2" d="m1.66,62.41c1.01-.04,2.01-.08,3-.12"/>
      <path class="cls-1" d="m10.68,61.96c66.33-4.18,69.74-25.11,71.48-30.59.27-.86.51-1.72.64-2.6,1.66-11.65-8.51-24.42-19.29-16.22-9.22,7.01-2.49,18.65-2.49,18.65,18.15,32.29,127.91,6.52,127.91,6.52,0,0,16.28-3.91,12.96,10.46-3.32,14.37-12.24,10.25-23.31,9.75,0,0-12.97-6.34-23.75-2.91"/>
      <path class="cls-2" d="m152.04,56.16c-.87.45-1.72.98-2.54,1.6"/>
    </g>
    <g>
      <g>
        <path class="cls-4" d="m186.76,38c1.01-.18,2.02-.36,3.02-.54-.17-.17-.25-.34.03-.48.19-.09.38-.18.57-.26.53-.12.63-.5.42-.89-.46-.86-.14-1.64.16-2.43.28-.75.77-1.37,1.24-2,.66-.89.59-1.11-.4-1.89-1.19.08-2.28.53-3.35.99-.56.24-1.1.55-1.74.56h.03c-.24.26-.56.24-.88.24-.54-.05-.97.23-1.43.45-1.01.49-2.04.96-3.03,1.5-.81.44-1.62.77-2.57.62-.25-.04-.54.13-.81.2-.04.34-.09.68-.13,1.02.08.04.21.08.22.13.02.18-.08.26-.26.21-.03.23-.06.45-.09.68.31.18.49.46.6.78.14.38.36.7.73.88-.06.14-.01.22.13.25l.02.02c1.66.64,3.36.95,5.13.52.73-.47,1.53-.64,2.38-.55Z"/>
        <path class="cls-7" d="m177.85,35.43c.18.05.28-.03.26-.21,0-.05-.14-.09-.22-.13-.01.11-.03.23-.04.34Z"/>
        <path class="cls-6" d="m191.19,28.89c2.18-.85,4.35-1.72,6.55-2.53,1.98-.73,4.03-1.24,6.13-1.56,2.14-.32,4.28-.67,6.41-1.09,1.57-.3,3.13-.63,4.63-1.22,1.84-.72,3.74-1,5.7-.91.74.03,1.49.07,2.22,0,2.04-.2,4.09-.39,6.12-.7,2.02-.31,4.11-.03,6.1-.68.21-.07.45-.03.68-.04,1.08-.03,2.17-.09,3.25-.07,2.74.05,5.49,0,8.19.58,1.97.42,3.96.58,5.96.42,2.56-.21,5.05-.52,7.25-2.17,2.07-1.55,4.57-1.99,7.14-1.9-.02.13-.04.26-.07.39-.89.52-1.39,1.34-1.68,2.29-.23.73.07,1.25.83,1.39,1.07.2,2.14.36,3.22.46,1.88.17,3.44-.65,4.88-1.74.46-.35.73-.88.92-1.42.27-.75.57-1.5.66-2.3.04-.35.14-.67.47-.87.34.04.69.08,1.03.11.18.18.37.33.65.3.99.64,2.05.9,3.24.89,2.37-.03,4.65.48,6.89,1.23.49.16.95.37,1.4.62,1.44.78,3.25.74,4.27-.37.58-.63,1.22-1.21,1.86-1.77,2.65-2.32,5.65-4.1,8.83-5.55,3.17-1.44,6.43-2.71,9.65-4.05.32-.13.64-.27.96-.36.96-.26,1.57.06,1.84,1,.27.94.31,1.91.2,2.89-.2,1.89-.66,3.71-1.23,5.51-.3.92-.63,1.84-.98,2.74-.14.36-.12.66.14.95.19.21.37.44.58.63,1.3,1.22,2.41,2.59,3.3,4.15.17.29.38.58.63.81.34.32.73.55,1.24.37.21-.08.45-.1.67-.15,2.54-.51,5.1-.62,7.66-.19.7.12,1.39.26,1.67,1,.34.88-.31,1.37-.84,1.89-1.02,1.01-2.16,1.87-3.4,2.59-1.71,1-3.12,2.28-4.08,4.05-.63,1.15-1.39,2.24-2.41,3.1-1.92,1.63-3.94,3.13-6.09,4.45-1.69,1.04-3.5,1.33-5.41.54-.58-.24-1.18-.44-1.79-.57-.91-.2-1.05-.12-1.48.71-.66,1.27-1.4,2.51-2.46,3.49-2.19,2.01-4.73,3.39-7.65,4.02-3.18.68-6.37,1.33-9.56,2-2.13.44-4.27.8-6.46.58-1.02-.11-2.05-.2-3.07-.33-.8-.11-1.59-.09-2.39.04-2.09.34-4.19.54-6.31.53-1.96,0-3.85.34-5.7,1.02-1.35.5-2.62,1.14-3.85,1.86-2.48,1.44-5.06,2.64-7.95,3.05-2.95.42-5.91.6-8.88.69-1.31.04-2.64.02-3.88-.49-.53-.22-1.07-.42-1.56-.7-.9-.52-2.03-.1-2.62.62-.28.35-.51.77-.65,1.19-.56,1.65-.63,3.36-.45,5.08.07.73.39,1.3.88,1.8,1.3,1.31,2.83,2.05,4.69,2.22,2.17.19,4.22-.19,6.19-1.03,3.99-1.7,8.1-3.15,11.83-5.42.11.14.22.28.33.43-.65.63-1.29,1.25-1.8,2.01-.66.98-.98,2.05-.84,3.21.12,1.03.22,2.01-.53,2.87-.08.1-.01.33-.01.5h0c-.13.1-.25.19-.38.29-.68.29-1.36.57-2.04.87-2.09.91-4.19,1.81-6.27,2.75-1.85.84-3.8,1.2-5.8,1.3-1.26.06-2.55.08-3.71-.44-4.11-1.85-7.54-4.48-9.55-8.66-.6-1.24-1.35-2.38-2.13-3.51-.64-.94-1.43-1.38-2.6-1.21-2.31.34-4.58,0-6.72-.86-2.12-.86-4.2-.96-6.34-.22-.22.07-.44.13-.66.19q-.66-.83-1.49-.56c-.32.11-.64.23-.96.35-.69.25-1.34.58-1.98-.21-.28-.36-.84-.26-1.3-.23-.79.05-1.58.09-2.37-.08-.08-.02-.19-.13-.2-.22-.02-.09.03-.23.1-.29.63-.48,1.27-.94,1.9-1.42.45-.34.86-.73,1.1-1.27.17-.39.03-.8-.33-1.02-.32-.19-.83.02-1.01-.47,1.67-.89,3.16-2.04,4.7-3.13,4.2-3,8.61-5.61,13.46-7.42.91-.34,1.8-.73,2.7-1.1.51-.21.79-.56.91-1.13.45-2.09,1.22-4.04,2.62-5.7.16-.19.21-.4.09-.72-2.08-.25-3.97-1.19-5.89-2.06-.73-.33-1.42-.74-2.17-1.02-1.98-.74-3.95-1.46-6.14-1.34-3.08.17-6.16.35-9.21.76-2.73.37-5.37,1.12-7.82,2.41-.78.41-1.59.61-2.45.65-.28-.14-.68-.11-.71-.57.53-.12.63-.5.42-.89-.46-.86-.14-1.64.16-2.43.28-.75.77-1.37,1.24-2,.66-.89.59-1.11-.4-1.89-.15-.26-.55-.27-.62-.61Zm103.44,11.48c.36.16.68.56,1.08.47.82-.19,1.36.21,2,.62,2.47,1.57,5.04,1.62,7.66.35.33-.16.58-.38.74-.68.32-.61.63-1.21.78-1.9.14-.61.33-1.21.49-1.82.18-.71.58-1.23,1.31-1.45.11-.03.21-.09.31-.14.95-.45,1.31-1.24,1.22-2.24-.07-.74-.11-1.49-.4-2.18-.16-.37-.07-.65.18-.94.44-.52.89-1.04,1.31-1.58.17-.22.33-.47.42-.73.12-.35.02-.68-.27-.92-.24-.2-.52-.26-.8-.15-.26.1-.51.25-.75.4-.54.32-1.08.64-1.6,1-.75.52-1.48.75-2.4.35-.76-.33-1.59-.24-2.3.23-.46.3-.83.17-1.28-.02-.69-.3-1.33-.68-1.86-1.21-1.7-1.69-3.87-2.48-6.12-2.88-1.67-.3-3.31-.8-5.03-.84-.51-.01-1.02-.14-1.51-.28-1.45-.4-2.91-.46-4.39-.17-.72.14-1.46.17-2.22.12-1.02-.06-2.05,0-3.08.05-1.54.08-3.07.1-4.62-.03-1.76-.15-3.52-.15-5.29.18-2.25.42-4.52.62-6.81.66-1.88.04-3.76.26-5.62.55-1.13.18-2.26.35-3.39.49-1.82.23-3.56.6-5.24,1.46-1.87.96-3.9,1.62-5.85,2.42-.69.28-1.38.56-2.05.88-1.39.65-2.43,1.69-3.22,2.99-.46.76-.73,1.56-.34,2.44.19.44.26.85.07,1.32-.44,1.07.05,1.88,1.08,2.35.26.12.5.27.73.39.21.47-.19.76-.26,1.14-.13.75.06,1.38.66,1.83.46.33.96.64,1.48.84,2.37.92,4.82,1.39,7.37,1.32,2.32-.07,4.58.24,6.67,1.25,2.07,1,4.22,1.36,6.48,1.3,2.11-.06,4.22-.1,6.33-.15.17,0,.34,0,.51-.04.81-.15,1.3-.72,1.21-1.58-.24-2.25.89-3.8,2.5-5.12.31-.25.69-.42.96-.7.73-.74,1.61-.92,2.53-.59,1.6.56,3.26.51,4.9.53,1.78.02,3.5.42,5.35.5-.36.44-.67.16-.95.15-.4-.02-.79-.11-1.19-.13-.54-.03-.89.24-.84.6.07.45.44.46.77.51.28.04.57.06.85.09.48.06.84.23,1.07.72.19.4.51.76.81,1.1.57.65,1.11,1.31,1.34,2.16.16.59.57.81,1.14.84.57.04,1.14.1,1.71.12,2.43.1,4.45-1.45,4.92-3.84.15-.78.16-1.59.24-2.38.16,0,.33.01.49.02Zm21.45-30.85c-.09-.65-.58-1.03-1.2-.89-2.2.5-4.2,1.41-5.91,2.9-.52.45-.57,1-.1,1.5,1.02,1.07,2.08,2.1,3.14,3.12.2.19.49.28.74.4.57.25.83.19,1.16-.3.65-.95,1.09-2,1.43-3.08.29-.92.49-1.87.75-2.87,0-.21.02-.5-.02-.78Zm5.15,18.53c.33,1.03.65,2.05,1,3.07.09.26.47.33.73.16,1.69-1.05,3.37-2.09,5.06-3.14.53-.33,1.07-.66,1.44-1.18.13-.18.18-.42.07-.65-.11-.23-.31-.34-.55-.32-2.21.16-4.42.26-6.57.86-.27.08-.54.18-.78.33-.18.11-.3.32-.4.43,0,.21-.04.33,0,.43Z"/>
        <path class="cls-3" d="m256.21,63.4c-.65.63-1.29,1.25-1.8,2.01-.66.98-.98,2.05-.84,3.21.12,1.03.22,2.01-.53,2.87-.08.1-.01.33-.01.5.59-.06,1.17-.11,1.76-.2.14-.02.26-.18.39-.27.31-.12.61-.29.94-.36,1.81-.4,3.63-.78,5.39-1.39.25-.09.55-.03.83-.03l-.03.02c.12-.1.23-.2.35-.3,1.62-.55,2.77-1.62,3.5-3.16.14-.3.35-.57.52-.86-.45-.29-.37-.8-.46-1.22-.3-1.44-.87-2.68-2.25-3.4-.24-.12-.42-.37-.62-.56-.66-.29-1.26-.07-1.87.18-.1.13-.18.33-.31.38-1.77.62-3.35,1.6-4.93,2.58Z"/>
        <path class="cls-3" d="m206.82,62.49q-.66-.83-1.49-.56c-.32.11-.64.23-.96.35-.69.25-1.34.58-1.98-.21-.28-.36-.84-.26-1.3-.23-.79.05-1.58.09-2.37-.08-.08-.02-.19-.13-.2-.22-.02-.09.03-.23.1-.29.63-.48,1.27-.94,1.9-1.42.45-.34.86-.73,1.1-1.27.17-.39.03-.8-.33-1.02-.32-.19-.83.02-1.01-.47-.83.2-1.57.59-2.25,1.11-.13.09-.26.18-.39.28l.03-.02c-.17.14-.32.33-.51.42-1.92.93-3.92,1.62-6.05,1.85h.03c-.22.07-.45.16-.67.24-.74-.06-1.37.3-2.01.57-.12.05-.16.26-.24.4-.25.51-.49,1.02-.75,1.52-.3.57-.42,1.17-.4,1.8.03.87.55,1.43,1.39,1.31,1.08-.15,2.14.03,3.21.01,1.29-.26,2.6-.33,3.9-.42.42.09.78-.1,1.15-.23,1.66-.57,3.32-1.16,4.98-1.71,1.5-.5,3.01-.94,4.51-1.42.21-.07.4-.2.6-.29Z"/>
        <path class="cls-3" d="m267.43,17.42c-.89.52-1.39,1.34-1.68,2.29-.23.73.07,1.25.83,1.39,1.07.2,2.14.36,3.22.46,1.88.17,3.44-.65,4.88-1.74.46-.35.73-.88.92-1.42.27-.75.57-1.5.66-2.3.04-.35.14-.67.47-.87.2-1.03-.43-1.85-.75-2.74-.16-.46-.65-.61-1.12-.68-.1.35-.3.67-.7.57-.54-.14-1.05-.37-1.56-.6-.24-.11-.19-.37-.17-.6-.78-.06-1.55-.06-2.18.52-.08.21-.14.45-.4.53l.02-.02c-.16,1.58-.49,3.12-.94,4.64-.18.61-.19.61-.99.61-.17,0-.34-.03-.51-.04Z"/>
        <path class="cls-10" d="m191.68,66.57c-1.07.01-2.13-.17-3.21-.01-.84.12-1.37-.43-1.39-1.31-.02-.63.1-1.23.4-1.8.26-.5.5-1.01.75-1.52-1.12.63-1.8,1.54-1.8,2.87,0,.36-.16.64-.28.96-.25.63-.06,1.12.52,1.41.84.41,1.74.51,2.66.38,1.01-.14,2.01-.32,3.02-.49-.13-.29-.43-.34-.66-.48Z"/>
        <path class="cls-6" d="m263.32,60.25c.21.19.38.43.62.56,1.38.72,1.95,1.96,2.25,3.4.09.42,0,.92.46,1.22.37-.77.71-1.53.39-2.42-.27-.77-.76-1.37-1.4-1.85-.69-.52-1.46-.83-2.32-.9Z"/>
        <path class="cls-6" d="m262.32,69.73c-.28,0-.58-.05-.83.03-1.76.61-3.58.99-5.39,1.39-.32.07-.63.24-.94.36,2.33.4,4.52,0,6.54-1.21.23-.14.41-.37.61-.56Z"/>
        <path class="cls-7" d="m191.12,60.72c2.13-.24,4.13-.93,6.05-1.85.19-.09.34-.28.51-.42-.28,0-.58-.07-.84.01-1.68.53-3.34,1.08-5.01,1.64-.31.1-.66.2-.71.62Z"/>
        <path class="cls-7" d="m267.43,17.42c.17.01.34.04.51.04.8,0,.8,0,.99-.61.45-1.52.78-3.06.94-4.64-.74.23-.73.9-.85,1.47-.16.76-.27,1.52-.56,2.26-.2.51-.54.81-.96,1.08-.02.13-.04.26-.07.39Z"/>
        <path class="cls-10" d="m184.37,38.55c-1.77.43-3.47.12-5.13-.52.71,1.3,1.91,1.54,3.22,1.42.62-.06,1.21-.29,1.82-.44.03-.15.06-.31.09-.46Z"/>
        <path class="cls-7" d="m256.21,63.4c1.58-.98,3.16-1.96,4.93-2.58.13-.05.21-.25.31-.38-2.08.35-3.88,1.33-5.57,2.54.11.14.22.28.33.43Z"/>
        <path class="cls-7" d="m191.81,29.51c-.15-.26-.55-.27-.62-.61-1.57.32-2.92,1.16-4.33,1.88-.08.04-.1.19-.14.29.64-.02,1.18-.32,1.74-.56,1.08-.46,2.16-.91,3.35-.99Z"/>
        <path class="cls-7" d="m191.68,66.57c.24.14.54.19.66.48,1.15-.06,2.24-.3,3.24-.9-1.31.08-2.61.16-3.9.42Z"/>
        <path class="cls-6" d="m272.43,11.18c-.02.22-.07.49.17.6.51.23,1.03.46,1.56.6.4.1.59-.21.7-.57-.74-.48-1.58-.59-2.43-.63Z"/>
        <path class="cls-7" d="m184.37,38.55c-.03.15-.06.31-.09.46.93-.07,1.72-.49,2.47-1.01-.86-.09-1.66.08-2.39.55Z"/>
        <path class="cls-3" d="m191.09,37.29c-.28-.14-.68-.11-.71-.57-.19.09-.39.17-.57.26-.28.14-.2.3-.03.48.44-.07.91.16,1.31-.18Z"/>
        <path class="cls-7" d="m190.48,60.96c.22-.09.45-.17.67-.26-.28-.05-.52-.03-.67.26Z"/>
        <path class="cls-7" d="m269.85,12.23c.26-.08.32-.31.4-.53-.26.08-.39.26-.4.53Z"/>
        <path class="cls-3" d="m277.77,15.34c.18.18.37.33.65.3-.15-.25-.38-.31-.65-.3Z"/>
        <path class="cls-7" d="m185.87,31.3c.32,0,.64.02.88-.25-.34-.07-.62.05-.88.25Z"/>
        <path class="cls-3" d="m253.01,71.99c-.13.09-.25.18-.38.28.19,0,.32-.09.38-.28Z"/>
        <path class="cls-7" d="m197.65,58.47c.13-.09.26-.18.39-.28-.18.02-.33.08-.39.28Z"/>
        <path class="cls-6" d="m262.63,69.45c-.12.1-.23.2-.35.3.17-.04.31-.12.35-.3Z"/>
        <path class="cls-10" d="m179.23,38.02c-.14-.03-.19-.11-.13-.25.07.07.11.16.13.25Z"/>
        <path class="cls-4" d="m294.42,39.96c-.08-.11-.2-.32-.36-.14-.07.08-.03.28-.02.43,0,.04.06.08.1.12-.08.8-.08,1.6-.24,2.38-.47,2.39-2.49,3.94-4.92,3.84-.57-.02-1.14-.09-1.71-.12-.57-.03-.98-.25-1.14-.84-.22-.86-.77-1.52-1.34-2.16-.3-.34-.62-.69-.81-1.1-.23-.49-.59-.66-1.07-.72-.28-.03-.57-.05-.85-.09-.33-.05-.71-.06-.77-.51-.05-.36.3-.63.84-.6.4.02.79.11,1.19.13.28.01.6.3.95-.15-1.85-.09-3.56-.48-5.35-.5-1.64-.02-3.3.03-4.9-.53-.92-.32-1.8-.14-2.53.59-.28.28-.66.45-.96.7-1.62,1.32-2.74,2.88-2.5,5.12.09.86-.4,1.43-1.21,1.58-.17.03-.34.03-.51.04-2.11.05-4.22.09-6.33.15-2.26.06-4.41-.3-6.48-1.3-2.09-1.01-4.36-1.32-6.67-1.25-2.55.07-5-.4-7.37-1.32-.53-.2-1.03-.5-1.48-.84-.6-.44-.8-1.08-.66-1.83.07-.38.47-.67.26-1.14-.23-.12-.47-.27-.73-.39-1.03-.47-1.52-1.29-1.08-2.35.19-.47.13-.88-.07-1.32-.39-.88-.11-1.68.34-2.44.78-1.3,1.83-2.34,3.22-2.99.67-.32,1.36-.6,2.05-.88,1.96-.8,3.98-1.46,5.85-2.42,1.68-.86,3.42-1.23,5.24-1.46,1.13-.14,2.26-.31,3.39-.49,1.86-.29,3.74-.51,5.62-.55,2.29-.04,4.56-.24,6.81-.66,1.76-.33,3.53-.32,5.29-.18,1.54.13,3.08.11,4.62.03,1.02-.05,2.06-.11,3.08-.05.75.05,1.49.02,2.22-.12,1.49-.29,2.94-.24,4.39.17.49.14,1.01.27,1.51.28,1.72.04,3.36.54,5.03.84,2.24.4,4.42,1.19,6.12,2.88.53.53,1.16.91,1.86,1.21.45.19.82.32,1.28.02.72-.46,1.54-.56,2.3-.23.92.4,1.65.17,2.4-.35.51-.36,1.06-.67,1.6-1,.24-.15.49-.3.75-.4.28-.11.56-.05.8.15.29.25.39.58.27.92-.09.26-.25.51-.42.73-.42.54-.87,1.06-1.31,1.58-.24.28-.33.57-.18.94.3.69.34,1.45.4,2.18.09,1-.27,1.79-1.22,2.24-.1.05-.2.11-.31.14-.73.22-1.12.74-1.31,1.45-.16.61-.36,1.2-.49,1.82-.15.68-.46,1.29-.78,1.9-.16.3-.41.52-.74.68-2.62,1.28-5.19,1.23-7.66-.35-.64-.41-1.18-.81-2-.62-.4.09-.72-.31-1.08-.47-.07-.14-.12-.3-.21-.42Zm-6.52-1.93c.84-1.6,2.17-1.98,3.68-1.07.85.51,1.52,1.19,2.14,1.94.04.06.08.12.12.19,0-.03,0-.08-.02-.1-.03-.03-.08-.05-.13-.07.04-1.6-.68-2.69-2.16-3.27-.1-.04-.2-.1-.31-.15-1.49-.68-2.14-.52-3.21.78-.59.72-1.07,1.47-.89,2.46-.21.32-.42.65-.64.96-.23.32-.74.28-.93.78.77.26,1.49.13,2.24-.08,0-.6-.59-1.04-.32-1.62.14-.24.29-.48.43-.73Zm-42.58,1.61c.07.28.24.49.57.41.07-.02.15-.17.14-.25-.02-.3-.22-.46-.4-.55-.28.09-.35.23-.31.39Z"/>
        <path class="cls-3" d="m316.1,10.3c0-.21.02-.5-.02-.78-.09-.65-.58-1.03-1.2-.89-2.2.5-4.2,1.41-5.91,2.9-.52.45-.57,1-.1,1.5,1.02,1.07,2.08,2.1,3.14,3.12.2.19.49.28.74.4.57.25.83.19,1.16-.3.65-.95,1.09-2,1.43-3.08.29-.92.49-1.87.75-2.87Z"/>
        <path class="cls-3" d="m321.24,27.62c0,.21-.04.33,0,.43.33,1.03.65,2.05,1,3.07.09.26.47.33.73.16,1.69-1.05,3.37-2.09,5.06-3.14.53-.33,1.07-.66,1.44-1.18.13-.18.18-.42.07-.65-.11-.23-.31-.34-.55-.32-2.21.16-4.42.26-6.57.86-.27.08-.54.18-.78.33-.18.11-.3.32-.4.43Z"/>
        <path class="cls-10" d="m294.63,40.38c-.07-.14-.12-.3-.21-.42-.08-.11-.2-.32-.36-.14-.07.08-.03.28-.02.43,0,.04.06.08.1.12.16,0,.33.01.49.02Z"/>
        <path class="cls-10" d="m293.68,38.91c.04-1.6-.68-2.69-2.16-3.27-.1-.04-.2-.1-.31-.15-1.49-.68-2.14-.52-3.21.78-.59.72-1.07,1.47-.89,2.46.12.01.24.02.36.03.14-.24.29-.48.43-.73.84-1.6,2.17-1.98,3.68-1.07.85.51,1.52,1.19,2.14,1.94l-.02.02Z"/>
        <path class="cls-6" d="m287.47,38.76c-.12-.01-.24-.02-.36-.03-.21.32-.42.65-.64.96-.23.32-.74.28-.93.78.77.26,1.49.13,2.24-.08,0-.6-.59-1.04-.32-1.62Z"/>
        <path class="cls-4" d="m245.62,39.25c-.28.09-.35.23-.31.39.07.28.24.49.57.41.07-.02.15-.17.14-.25-.02-.3-.22-.46-.4-.55Z"/>
        <path class="cls-10" d="m293.71,38.89c.04.06.08.12.12.19,0-.03,0-.08-.02-.1-.03-.03-.08-.05-.13-.07l.02-.02Z"/>
      </g>
      <g>
        <path class="cls-8" d="m177.25,33.99c.53-.38.95-1.07,1.75-.8,1.21.41,2.21-.04,3.25-.59,1.77-.94,3.53-1.89,5.43-2.55,3.67-1.27,7.35-2.52,11.02-3.78.38-.13.79-.22,1.12-.43,1.37-.87,2.92-1.3,4.44-1.77.58-.18,1.17-.52,1.77.02.12.11.43,0,.66-.01,1.55-.12,3.05-.45,4.52-.94,1.52-.5,3.03-1.04,4.54-1.54,1.58-.53,3.2-.84,4.88-.7.85.07,1.71.08,2.57.06.97-.02,1.94-.11,2.91-.17.36-.02.64-.12.73-.56.07-.36.45-.45.65-.24.51.54,1.09.5,1.71.38,2.87-.58,5.81-.33,8.69-.8.16-.03.34,0,.51.02,3.82.21,7.65.42,11.47.65,2.05.12,4.11.27,6.16.43,1.47.11,2.68-.36,3.66-1.46.16-.18.34-.28.59-.17.2.09.22.28.2.43-.09.58.14.83.72.9,1.19.15,2.37.41,3.56.52,2.61.24,5.16,1.06,7.82.88.28-.02.43.18.44.42,0,.24-.19.41-.42.46-.91.21-1.81.16-2.73.02-2.54-.38-5.09-.75-7.63-1.13-.45-.07-.89-.16-1.33.1-.18.11-.43.15-.65.14-2.51-.08-5.03-.13-7.54-.27-2.45-.14-4.9-.39-7.35-.59-.39-.03-.85-.17-1.17.08-.49.39-.94.26-1.45.12-.44-.12-.89-.27-1.34-.28-2.05-.07-4.11-.2-6.16-.08-2.34.14-4.66.43-6.98.79-2.21.34-4.42.57-6.66.39-2.38-.19-4.65.24-6.88,1.09-2.57.98-5.18,1.8-7.92,2.13-.39.05-.78.18-1.17.28-4.72,1.15-9.33,2.67-13.92,4.27-3.24,1.13-6.43,2.36-9.44,4.03-1.05.58-2.19,1.01-3.43.53-.1-.04-.24-.03-.33.02-.08.04-.17.21-.15.24.14.18-.14.17.08.14.22-.03.43-.1.65-.16.46-.13.84.04.99.44.24.61.6,1.05,1.17,1.38.25.15.28.49.1.76-.17.25-.41.17-.6.04-.24-.17-.46-.35-.77-.25-.33.1-.68.21-.8.58-.11.32.15.52.34.72.74.76,1.64,1,2.66.81,1.97-.37,3.9-.8,5.68-1.81,1.16-.65,2.42-1.05,3.79-.64.61.18,1.13-.03,1.59-.41.95-.78,2.07-1.19,3.25-1.46,1.28-.29,2.55-.63,3.82-.95,3.58-.88,7.21-1.15,10.89-.77,1.6.17,3.19.16,4.79.07.74-.04,1.48-.09,2.21.13-.02.1-.03.21-.04.31-.66.37-1.49.28-2.29.79,1.68.96,3.24,1.77,4.9,2.37.7.25,1.43.36,2.19.37.74.01,1.48.12,2.22.19.19.02.34.21.3.34-.27.81.11,1.8-.74,2.45-.31.24-.53.6-.77.92-.55.74-.97,1.55-1.2,2.45-.06.24-.25.52.16.81.55-.44,1.15-.86,1.64-1.42.15-.17.29-.37.47-.49.12-.08.36-.11.47-.03.11.07.19.3.17.45-.07.55-.46.9-.84,1.25-1.58,1.44-3.33,2.6-5.39,3.26-1.47.47-2.92.99-4.38,1.49-4.11,1.43-7.76,3.62-10.98,6.53-1.63,1.47-3.45,2.64-5.43,3.55-1.3.6-2.63,1.13-3.89,1.8-.95.51-1.94.73-2.96.59-1.34-.19-2.34.27-3.18,1.25-.22.26-.47.5-.71.74-.64.64-.92,1.43-1.01,2.31-.08.7.1.96.77,1.08.79.14,1.58.19,2.39.16,3.53-.13,6.88-1.06,10.18-2.21,1.13-.39,2.23-.89,3.35-1.33,2.03-.79,4.11-1.39,6.31-1.47.81-.03,1.57.1,2.35.33,1.69.5,3.41.98,5.17,1.13,1.89.16,3.77-.1,5.6-.57,3.22-.83,6.35-1.9,9.27-3.51.54-.3,1.21-.4,1.62-.92.47-.6,1.21-.07,1.73-.45.18-.13.42-.17.64-.25,1.62-.58,3.18-1.28,4.7-2.08.25-.13.5-.28.78-.35.12-.03.35.09.41.2.06.12.03.38-.06.45-.3.25-.63.49-.98.67-1.02.52-2.05,1-3.08,1.51-.14.07-.36.15-.25.36.06.12.23.25.37.27.56.09,1.13.19,1.7.2,4.94.03,9.83-.23,14.45-2.25.1-.05.22-.08.33-.11,2.92-.82,5.62-2.23,8.6-2.91,1.78-.41,3.54-.83,5.38-.82,1.71,0,3.43-.01,5.14-.04.39,0,.91.03,1.16-.2.66-.6,1.39-.4,2.11-.35,1.31.08,2.62.28,3.93.28,2.99.02,5.92-.53,8.79-1.3,3.36-.9,6.78-1.61,10.08-2.77.26-.09.55-.1.83-.12.09,0,.26.1.27.17.03.15.03.38-.06.47-.37.39-.9.48-1.38.65-2.54.89-5.19,1.38-7.76,2.14-2.53.74-5.1,1.29-7.72,1.56-1.58.17-3.18.32-4.78.11-.74-.1-1.47-.05-2.22.06-2.09.31-4.21.44-6.32.37-1.89-.07-3.77-.13-5.58.58-.16.06-.33.07-.5.1-2.4.31-4.64,1.17-6.88,2.03-3.36,1.29-6.71,2.6-10.34,2.99-3.71.4-7.4.71-11.09-.1-.64-.14-1.37-.46-1.68.52-.02.07-.2.14-.3.13-.79-.1-1.11.48-1.44,1.01-.84,1.33-.94,2.79-.66,4.3.17.96.43,1.89.78,2.8.11.27.13.58-.25.69-.33.09-.53-.12-.7-.37-.06-.09-.1-.2-.14-.31-.72-2.08-1.19-4.19-.49-6.38.05-.16.12-.33.13-.5,0-.17-.1-.34-.3-.29-.33.09-.65.2-.96.35-1.55.74-3.16,1.33-4.83,1.75-.44.11-.87.28-1.3.43-.32.11-.45.34-.38.66.61,2.64,1.44,5.18,3.3,7.25,2.15,2.39,4.74,4.06,7.8,5.1,2.87.98,5.61.86,8.31-.48,1.54-.76,3.12-1.44,4.62-2.27,2.23-1.22,4.62-1.99,7.07-2.57,1.28-.3,2.58-.52,3.88-.7,2.05-.27,3.82-1.11,5.44-2.36,1.43-1.12,1.99-2.62,1.91-4.37-.08-1.76-1.17-2.74-2.93-2.61-1.43.1-2.83.4-4.15.99-1.15.51-2.28,1.06-3.39,1.65-2.48,1.31-4.95,2.62-7.39,4-3.31,1.88-6.89,2.71-10.65,2.88-.51.02-1.03-.03-1.54-.09-.52-.06-1-.27-1.42-.56-.23-.16-.43-.38-.58-.61-.07-.11-.05-.36.04-.45.09-.1.38-.19.45-.13.84.72,1.84.96,2.88.88,3.27-.23,6.47-.75,9.41-2.33,2.42-1.3,4.83-2.6,7.26-3.89,1.31-.7,2.62-1.4,3.96-2.04,1.56-.74,3.23-1.16,4.95-1.3,2.37-.2,4.02,1.18,4.13,3.55.1,2.04-.55,3.83-2.2,5.15-1.78,1.42-3.76,2.38-6.04,2.66-4.06.51-7.94,1.61-11.54,3.62-1.35.75-2.77,1.37-4.17,2.01-2.31,1.05-4.69,1.37-7.19.75-3.42-.85-6.36-2.51-8.87-4.95-1.54-1.5-2.68-3.27-3.38-5.31-.4-1.19-.76-2.39-1.14-3.58-.64-.22-1.26.01-1.86.12-2.98.55-5.79-.16-8.58-1.04-.78-.25-1.55-.4-2.35-.33-1.2.1-2.38.3-3.54.64-1.65.49-3.23,1.16-4.81,1.81-2.55,1.04-5.22,1.68-7.9,2.24-1.46.3-2.95.36-4.44.36-.68,0-1.37-.1-2.04-.25-.83-.19-1.25-.77-1.23-1.63.03-1.1.25-2.16,1.02-3.02.42-.47.88-.9,1.29-1.37.89-1.04,2.02-1.42,3.37-1.31,1.28.1,2.48-.19,3.62-.8,1.16-.62,2.37-1.13,3.56-1.71,1.71-.83,3.27-1.87,4.68-3.14,3.31-2.98,7.05-5.25,11.26-6.73,1.03-.36,2.05-.72,3.07-1.08.81-.28,1.62-.57,2.43-.83.78-.25,1.24-.74,1.38-1.57.32-1.91,1.17-3.57,2.45-5.01.26-.29.58-.57.48-1.05-.48-.22-.99-.21-1.5-.22-1.51-.03-2.94-.39-4.28-1.1-.81-.42-1.63-.83-2.46-1.21-2.14-.95-4.31-1.81-6.72-1.84-2.12-.03-4.23.03-6.32.37-2.15.34-4.24.93-6.35,1.44-1.12.27-2.18.64-3.1,1.39-.64.53-1.4.79-2.25.54-1.13-.33-2.18-.04-3.13.51-1.87,1.09-3.93,1.51-6.01,1.93-1.41.28-2.6-.11-3.59-1.11-.61-.62-1.05-1.35-1.4-2.14-.11-.24-.05-.59-.39-.7.09-.68.18-1.36.27-2.04Zm1.21,2.43c.16-.02.33-.06.47-.13.24-.13.54-.21.57-.53,0-.05-.17-.15-.26-.16-.43-.04-.75.12-.9.53.05.11.09.3.12.3Z"/>
        <path class="cls-8" d="m315.01,18.16c.62-.15,1.14-.41,1.33-1.1.22-.76.53-1.49.73-2.26.43-1.7.86-3.4.91-5.18.05-1.88-.09-2.51-.95-3.97-.23-.03-.45-.06-.68-.09-.02.05-.02.14-.06.16-1.54.57-3.07,1.13-4.61,1.69-.75.28-1.49.58-2.11,1.09-.18.15-.27.39-.09.59.1.11.3.2.44.19.22-.02.43-.13.64-.22,1.42-.59,2.82-1.21,4.26-1.75,1.82-.68,2.05-.58,2.12,1.42.09,2.77-.59,5.42-1.51,8.01-.17.48-.3.95-.38,1.45l-.03-.03Z"/>
        <path class="cls-8" d="m315.03,18.19c-.3.17-.49-.06-.71-.19-.23-.14-.46-.29-.71-.05h0c-.25.15-.26.39-.11.56.34.38.73.72,1.11,1.06,1.72,1.51,3.23,3.21,4.52,5.1.55.8,1.03,1.64,1.38,2.55.08.22.28.37.54.28.25-.09.32-.3.3-.54-.02-.22-.05-.44-.09-.78,2.71-.43,5.32-1.24,8.07-.81.45.07.9.1,1.32.33.33.18.45.54.29.85-.22.41-.57.7-.91,1-1.2,1.05-2.48,2-3.82,2.88-.52.34-1.04.69-1.55,1.06-.85.6-.85.61-.98,1.72l-.07-.02c.52-.41,1.18-.55,1.7-.96.58-.46,1.23-.82,1.85-1.23.57-.38,1.14-.76,1.69-1.16.55-.41,1.09-.83,1.6-1.28.43-.37.87-.75,1.21-1.2.89-1.14.59-2.15-.77-2.69-.97-.38-2-.45-3.02-.46-1.08,0-2.16.09-3.23.3-.56.11-1.12.21-1.68.31-.72.12-1.5.43-2.16.27-.7-.18-.9-1.11-1.33-1.69-1.2-1.61-2.5-3.1-3.99-4.44-.22-.2-.64-.32-.47-.77l.03.03Z"/>
        <path class="cls-8" d="m288.43,37.83c.04-.16.04-.28.09-.37.75-1.35,1.84-1.52,2.85-.31.32.39.56.82,1.24.74.39-.04.32.51.43.82.07.19.17.45.48.36.24-.07.4-.25.41-.49.07-1.11-.65-2.22-1.7-2.44-.41-.09-.73-.26-1.08-.44-1.19-.62-1.97-.49-2.92.47-.7.71-1.18,1.58-1.42,2.51-.22.84-.7,1.09-1.45,1.15-2.29.19-4.56-.05-6.83-.36-1.01-.14-1.99-.45-3.04-.33-.36.04-.76-.2-1.14-.29-1.47-.32-2.69.22-3.78,1.14-.15.12-.12.3-.04.46.09.19.27.25.42.2.32-.12.62-.27.92-.44.78-.44,1.58-.5,2.47-.36,2.25.36,4.52.64,6.79.93,1.48.18,2.96.19,4.44-.04.66-.1,1.22-.1,1.62.58.26.45.72.74,1.25.82.15.02.35-.04.47-.13.14-.11.16-.36.03-.45-.75-.54-.59-1.57-1.19-2.18-.05-.05-.01-.27.05-.31.13-.08.33-.16.46-.12.55.19,1.02.5,1.24,1.08.08.21.24.42.51.3.3-.13.38-.4.33-.71-.08-.42-.34-.72-.67-.96-.41-.3-.84-.57-1.24-.85Z"/>
        <path class="cls-8" d="m267.89,17.61c.14.55.19.96.34,1.32.37.88.98,1.53,1.97,1.7.13.02.33-.08.42-.19.12-.14.04-.34-.09-.45-.3-.26-.64-.47-.95-.72-.51-.41-.48-.99-.47-1.57,0-.21.16-.28.32-.34.5-.22,1-.2,1.5-.03.32.11.63.24.96.34.08.02.25-.05.28-.12.06-.14.12-.36.05-.46-.11-.18-.31-.32-.5-.43-.61-.33-1.31-.37-1.97-.53-.24-.06-.37-.3-.29-.53.1-.32.25-.64.42-.93.22-.38.59-.52,1.03-.33.57.25,1.11.57,1.67.86.15.08.29.21.44.23.14.02.36-.05.43-.15.07-.11.07-.35,0-.47-.36-.55-.96-.79-1.51-1.08-.4-.21-.86-.3-1.28-.48-.35-.15-.52-.46-.43-.83.06-.27.23-.52.32-.78.07-.23.02-.46-.23-.56-.26-.1-.42.06-.57.24-.4.46-.56.99-.46,1.59.07.41.03.8-.17,1.16-.39.7-.71,1.41-.7,2.25,0,.39-.38.56-.84.54-1.89-.09-3.73.23-5.56.7-.21.05-.4.22-.57.36-.07.06-.06.21-.06.32,0,.21.16.32.32.33.22.02.45-.01.67-.07,1.77-.48,3.58-.63,5.52-.86Z"/>
        <path class="cls-8" d="m277.22,47.46c-.06.2.14.51.33.5.68-.06,1.35-.18,2.03-.2,2.74-.08,5.48-.16,8.23-.19,1.34-.01,2.58-.42,3.85-.75.56-.14,1.07-.46,1.38-.96.53-.88,1.03-1.77,1.53-2.67.07-.14.08-.34.04-.5-.04-.15-.16-.34-.29-.38-.12-.04-.36.06-.43.17-.35.58-.71,1.17-.99,1.8-.49,1.09-1.33,1.56-2.48,1.86-1.92.5-3.84.5-5.78.52-1.77.02-3.54.02-5.31.07-.57.02-1.13.13-1.69.24-.21.04-.4.23-.42.49Z"/>
        <path class="cls-8" d="m306.33,42.69c1.07.36,2.06.72,3.06,1.03,1.02.31,2.04.18,3.01-.21.19-.08.34-.28.47-.46.06-.07.07-.26.02-.32-.1-.12-.25-.19-.39-.26-.04-.02-.12,0-.17.02-1.5.73-2.88.33-4.23-.41-1.6-.88-3.31-1.54-4.84-2.55-.09-.06-.21-.1-.31-.14-.27-.12-.54-.19-.79.03-.2.18-.07.58.33.83.73.45,1.48.86,2.21,1.29.35.2.74.4.57.91-.15.44,0,1.11-.77,1.12-.11,0-.26-.02-.33.04-.32.3-.76.54-.76,1.06,0,.25.24.36.47.43.51.14,1,.24,1.4-.27.5-.64.71-1.41,1.04-2.14Z"/>
        <path class="cls-8" d="m306.78,35.81s.08-.1.12-.11c.4-.12.81.58,1.16.04.27-.41-.22-.7-.37-1.04-.32-.73-.64-1.46-.38-2.29.16-.52.43-.64.95-.37.67.34,1.04.36,1.2.04.21-.43.03-.79-.26-1.08-.52-.52-1.07-1.01-1.63-1.5-.23-.2-.5-.24-.77-.03-.2.16-.26.38-.24.6.01.16.12.32.16.48.23,1.02-.43,1.67-1.44,1.38-.49-.14-.93-.41-1.41-.58-.23-.08-.48.03-.54.27-.03.13.04.37.14.44.61.41,1.22.9,1.99.88.62-.02.75.3.89.78.17.6.41,1.17.64,1.75.09.22-.04.29-.18.37l-.03-.04Z"/>
        <path class="cls-8" d="m284.08,17.52c.62.08,1.24.18,1.86.24,1.21.11,2.35.38,3.39,1.04.43.27.92.44,1.4.62.28.1.57.02.81-.15.08-.05.13-.19.14-.29,0-.1-.05-.26-.12-.28-2.21-.84-4.25-2.1-6.76-2.1-1.63,0-3.3-.18-4.89-.7-.11-.03-.22-.05-.34-.05-.25,0-.44.1-.51.35-.06.19.06.33.2.43.42.31.91.46,1.43.53,1.13.15,2.26.3,3.39.45,0-.02,0-.05,0-.07Z"/>
        <path class="cls-8" d="m296.41,16.01c0,.17.39.38.52.28.18-.13.37-.27.52-.43,1.4-1.54,3.05-2.74,4.96-3.59.99-.44,1.91-1.02,2.86-1.56.21-.12.3-.37.13-.58-.09-.11-.31-.22-.43-.19-.38.09-.77.21-1.12.39-1.27.65-2.53,1.32-3.79,2-1.38.75-2.42,1.89-3.43,3.06-.14.17-.29.36-.21.62Z"/>
        <path class="cls-8" d="m276.82,15.77c.09-1.95-.06-3.14-2.22-4.12-.61-.28-1.29-.44-1.95-.6-.23-.06-.44.15-.46.39-.01.14.09.37.2.42.46.22.95.39,1.43.56,1.74.64,2.49,1.64,1.83,3.94-.12.43-.37.83-.59,1.23-.15.27-.23.53.02.77.2.19.62.02.84-.35.18-.29.35-.59.47-.91.18-.48.31-.98.42-1.33Z"/>
        <path class="cls-8" d="m269.37,44.31c.09-.38.2-.77.28-1.16.05-.25-.07-.46-.31-.53-.24-.06-.46.06-.55.28-1.08,2.69-.8,5.1,1.31,6.58.56.39,1.13.76,1.72,1.1.25.15.56.19.74-.1.14-.22-.02-.44-.2-.59-.26-.21-.52-.44-.82-.61-2.02-1.11-2.8-2.74-2.17-5Z"/>
        <path class="cls-8" d="m280.63,25.39c1.02-.16,2.16-.23,3.2-.76.15-.07.27-.25.17-.42-.07-.13-.23-.31-.35-.31-.34,0-.67.07-1.01.12-.23.03-.5.09-.57-.18-.2-.68-.65-.67-1.21-.55-.61.13-1.24.19-1.85.31-.14.03-.3.21-.34.35-.03.13.06.37.17.42.36.18.67.38.9.72.17.25.48.27.88.3Z"/>
        <path class="cls-8" d="m292.35,24.49c.05,1.57.19,3.21.65,4.81.06.21.19.42.35.56.09.08.32.06.47.02.08-.02.17-.16.18-.26.02-.16-.01-.34-.05-.5-.35-1.45-.5-2.92-.54-4.4,0-.23-.03-.46-.08-.67-.06-.23-.21-.41-.47-.41-.28,0-.38.2-.44.43-.03.11-.03.22-.06.42Z"/>
        <path class="cls-8" d="m316.6,40.35c-.03.34.28.54.47.47.62-.23.95-.79,1.41-1.2.33-.31.63-.68,1.17-.35.09.06.38-.04.45-.15.35-.58.68-1.17.97-1.78.1-.21-.02-.45-.25-.57-.25-.12-.44.03-.57.21-.23.32-.42.67-.64,1-.12.19-.27.45-.51.39-.85-.2-1.2.49-1.69.91-.25.22-.49.48-.7.74-.1.12-.12.3-.12.32Z"/>
        <path class="cls-8" d="m226.01,41.28c.1.09.17.21.26.23.15.02.35.03.48-.05,1.01-.63,2.01-1.27,3.01-1.92.15-.1.24-.25.2-.43-.06-.26-.27-.34-.51-.33-.11,0-.23,0-.33.06-1.08.52-2.06,1.19-2.94,2-.11.1-.12.3-.17.45Z"/>
        <path class="cls-8" d="m293.87,19.04c.06-.01.12-.02.16-.04.45-.29.25-1.05.94-1.25.23-.06.07-.62-.05-.94-.07-.21-.11-.44-.37-.52-.29-.09-.41.12-.52.31-.1.2-.19.35-.43.46-.8.37-.81.45-.5,1.17.16.37.3.74.76.81Z"/>
        <path class="cls-8" d="m275.98,22.6c-.41-.04-.78.08-1.08.36-.2.18-.15.44.02.59.16.14.42.15.61.26.23.13.33.47.67.44.36-.03.62-.25.89-.45.18-.14.33-.32.29-.57-.05-.28-.27-.4-.49-.32-.42.16-.62-.19-.92-.31Z"/>
        <path class="cls-8" d="m306.81,35.85c-.88-.3-1.8,0-2.69-.12-.06,0-.18.13-.21.23-.03.1,0,.25.05.32.1.13.23.26.38.31.73.25,1.46.19,2.18-.07.34-.13.32-.43.26-.72,0,0,.03.04.03.04Z"/>
        <path class="cls-8" d="m323.62,33.18l.07.02c-.06,0-.12,0-.17.02-.76.39-.9,1.26-1.37,1.86-.13.17.05.43.24.57.21.16.47.14.61-.04.49-.62.89-1.3.95-2.11,0-.1-.21-.22-.33-.33Z"/>
        <path class="cls-8" d="m301.65,46.78c.09.07.21.22.34.25.54.09.96-.16,1.26-.59.05-.07.05-.22.01-.3-.04-.09-.14-.19-.23-.21-.51-.08-1.2.24-1.39.64-.02.04,0,.11,0,.22Z"/>
        <path class="cls-8" d="m313.62,17.95h0c-.08-.26-.14-.53-.25-.77-.13-.28-.39-.36-.69-.32-.19.03-.29.15-.31.32-.01.1,0,.23.06.3.3.4.78.34,1.19.46Z"/>
        <path class="cls-8" d="m320.67,30.88c.05.27.26.36.49.34.31-.02.53-.18.52-.52-.01-.29-.25-.35-.48-.34-.32.01-.51.19-.53.52Z"/>
        <path class="cls-8" d="m218.21,33.15c-.02.1-.03.21-.04.31.2-.03.4-.05.6-.09.04,0,.1-.1.09-.11-.05-.07-.12-.18-.19-.18-.15,0-.3.05-.46.07Z"/>
      </g>
    </g>
    <g>
      <path class="cls-5" d="m131.09,16.43c.02,2.27-.17,4.54-.59,6.76-.2,1.07-.45,2.13-.75,3.17-.03.12-.07.23-.11.34-.03-.07-.08-.14-.11-.21-.36-.78-.65-1.6-.88-2.44-.47-1.75-.65-3.6-.49-5.42.11-1.3-2.35-.26-2.68.26-2.5,3.91-4.04,8.49-5.53,13.03-.22.67.92.62,1.18.57.53-.09,1.39-.38,1.61-1.05.87-2.65,1.75-5.31,2.84-7.84.14.82.33,1.63.6,2.41.35,1,.8,1.95,1.32,2.83.25.43.53.97.94,1.2.57.32,1.4.12,1.95-.14,1.06-.51,1.38-1.63,1.77-2.82.39-1.2.72-2.43.98-3.68.54-2.57.77-5.22.74-7.87,0-.86-2.81-.28-2.8.89Z"/>
      <g>
        <path class="cls-5" d="m139.66,20.3s0,0,0,0c-.01.02-.05.05-.08.08.02,0,.08-.05.09-.08Z"/>
        <path class="cls-5" d="m144.21,19.07c-.75-.59-1.66-1.03-2.56-1.05-1.19-.03-2.4.48-3.42,1.18-.64.44-1.46,1.07-1.82,1.87-1.13,1.51-1.31,3.89-.18,5.47.41.58,1.05.85,1.66.98,1.14.25,2.39.29,3.49-.2.95-.42,1.83-1.32,2.47-2.24.6-.87,1.21-1.94,1.35-3.08.14-1.17-.14-2.27-.99-2.93Zm-4,7.05s.06-.05.11-.08c-.05.02-.1.04-.11.08Zm1.44-1.7c-.11.19-.22.37-.34.55-.05.08-.11.16-.17.24-.02.03-.04.06-.05.07-.01.01-.03.03-.06.06-.13.15-.26.29-.41.42-.04.04-.09.08-.13.12-.01,0-.03,0-.04,0-.14,0-.3,0-.44-.03-.1-.01-.2-.03-.3-.05-.11-.02-.22-.05-.32-.08-.03-.02-.07-.03-.11-.05-.08-.04-.34-.26-.15-.07-.08-.08-.17-.15-.24-.25-.08-.1-.14-.2-.21-.31-.02-.04-.04-.08-.07-.12.09.17-.05-.11-.06-.14-.17-.4-.28-.84-.3-1.29-.06-.93.25-1.76.74-2.42.05-.1.1-.19.16-.28,0,0,.02-.04.04-.06,0,0,.01,0,.02-.02.09-.09.17-.18.26-.27,0,0,.05-.04.09-.07-.01,0,0-.02.08-.08,0,0,0,0,0-.01,0,0,0,0,0,0,0,0,0,0,0,0,.11-.09.23-.17.35-.25.01,0,.02-.01.03-.02.06-.03.13-.07.18-.1.05-.02.1-.05.14-.07.04-.01.07-.02.1-.03,0,0,0,0,.02,0,.01,0,.02,0,.03,0,.02,0,.04,0,.05.01.33.17.67.31.99.51.24.15.39.27.59.57.19.29.28.8.28,1.2,0,.88-.37,1.61-.77,2.31Z"/>
      </g>
    </g>
    <g>
      <path class="cls-5" d="m148.95,34.54c.02,1.64-.13,3.28-.42,4.89-.14.78-.32,1.54-.54,2.29-.02.08-.05.17-.08.25-.02-.05-.06-.1-.08-.15-.26-.56-.47-1.15-.64-1.76-.34-1.26-.47-2.6-.35-3.92.08-.94-1.7-.19-1.94.19-1.81,2.82-2.92,6.14-3.99,9.42-.16.48.66.44.85.41.38-.06,1-.27,1.16-.76.63-1.92,1.27-3.84,2.06-5.67.1.59.24,1.18.43,1.75.25.72.57,1.41.95,2.05.18.31.38.7.68.87.41.23,1.01.09,1.41-.1.77-.37,1-1.18,1.28-2.04.28-.87.52-1.76.71-2.66.39-1.86.55-3.77.53-5.69,0-.62-2.03-.2-2.02.65Z"/>
      <g>
        <path class="cls-5" d="m155.15,37.34s0,0,0,0c0,.01-.03.03-.06.06.01,0,.06-.03.06-.06Z"/>
        <path class="cls-5" d="m158.44,36.45c-.54-.42-1.2-.74-1.85-.76-.86-.02-1.73.35-2.47.85-.46.32-1.05.77-1.32,1.35-.82,1.09-.95,2.82-.13,3.96.3.42.76.61,1.2.71.82.18,1.73.21,2.52-.14.69-.31,1.32-.95,1.79-1.62.44-.63.88-1.4.98-2.23.1-.84-.1-1.64-.71-2.12Zm-2.89,5.09s.04-.04.08-.06c-.04.02-.07.03-.08.06Zm1.04-1.23c-.08.14-.16.27-.25.4-.04.06-.08.11-.12.17-.02.02-.03.04-.04.05,0,.01-.02.02-.04.04-.09.11-.19.21-.29.3-.03.03-.06.06-.1.09,0,0-.02,0-.03,0-.1,0-.21,0-.32-.02-.07-.01-.14-.02-.22-.03-.08-.01-.16-.04-.23-.06-.02-.01-.05-.02-.08-.04-.06-.03-.25-.19-.11-.05-.06-.06-.12-.11-.17-.18-.06-.07-.1-.15-.15-.22-.02-.03-.03-.06-.05-.09.07.12-.03-.08-.04-.1-.12-.29-.2-.61-.22-.93-.04-.67.18-1.28.53-1.75.03-.07.07-.14.11-.2,0,0,.02-.03.03-.04,0,0,0,0,.02-.01.06-.07.12-.13.19-.19,0,0,.03-.03.06-.05,0,0,0-.01.06-.06,0,0,0,0,0,0,0,0,0,0,0,0,0,0,0,0,0,0,.08-.06.17-.12.25-.18,0,0,.02-.01.02-.02.04-.02.09-.05.13-.07.03-.02.07-.03.1-.05.03,0,.05-.02.08-.02,0,0,0,0,.01,0,0,0,.01,0,.02,0,.01,0,.03,0,.04,0,.24.12.48.22.71.37.17.11.28.19.43.41.14.21.2.58.2.86,0,.64-.27,1.17-.56,1.67Z"/>
      </g>
    </g>
    <g>
      <path class="cls-5" d="m177.42,17.24c.02,1.64-.13,3.28-.42,4.89-.14.78-.32,1.54-.54,2.29-.02.08-.05.17-.08.25-.02-.05-.06-.1-.08-.15-.26-.56-.47-1.15-.64-1.76-.34-1.26-.47-2.6-.35-3.92.08-.94-1.7-.19-1.94.19-1.81,2.82-2.92,6.14-3.99,9.42-.16.48.66.44.85.41.38-.06,1-.27,1.16-.76.63-1.92,1.27-3.84,2.06-5.67.1.59.24,1.18.43,1.75.25.72.57,1.41.95,2.05.18.31.38.7.68.87.41.23,1.01.09,1.41-.1.77-.37,1-1.18,1.28-2.04.28-.87.52-1.76.71-2.66.39-1.86.55-3.77.53-5.69,0-.62-2.03-.2-2.02.65Z"/>
      <g>
        <path class="cls-5" d="m183.62,20.04s0,0,0,0c0,.01-.03.03-.06.06.01,0,.06-.03.06-.06Z"/>
        <path class="cls-5" d="m186.91,19.15c-.54-.42-1.2-.74-1.85-.76-.86-.02-1.73.35-2.47.85-.46.32-1.05.77-1.32,1.35-.82,1.09-.95,2.82-.13,3.96.3.42.76.61,1.2.71.82.18,1.73.21,2.52-.14.69-.31,1.32-.95,1.79-1.62.44-.63.88-1.4.98-2.23.1-.84-.1-1.64-.71-2.12Zm-2.89,5.09s.04-.04.08-.06c-.04.02-.07.03-.08.06Zm1.04-1.23c-.08.14-.16.27-.25.4-.04.06-.08.11-.12.17-.02.02-.03.04-.04.05,0,.01-.02.02-.04.04-.09.11-.19.21-.29.3-.03.03-.06.06-.1.09,0,0-.02,0-.03,0-.1,0-.21,0-.32-.02-.07-.01-.14-.02-.22-.03-.08-.01-.16-.04-.23-.06-.02-.01-.05-.02-.08-.04-.06-.03-.25-.19-.11-.05-.06-.06-.12-.11-.17-.18-.06-.07-.1-.15-.15-.22-.02-.03-.03-.06-.05-.09.07.12-.03-.08-.04-.1-.12-.29-.2-.61-.22-.93-.04-.67.18-1.28.53-1.75.03-.07.07-.14.11-.2,0,0,.02-.03.03-.04,0,0,0,0,.02-.01.06-.07.12-.13.19-.19,0,0,.03-.03.06-.05,0,0,0-.01.06-.06,0,0,0,0,0,0,0,0,0,0,0,0,0,0,0,0,0,0,.08-.06.17-.12.25-.18,0,0,.02-.01.02-.02.04-.02.09-.05.13-.07.03-.02.07-.03.1-.05.03,0,.05-.02.08-.02,0,0,0,0,.01,0,0,0,.01,0,.02,0,.01,0,.03,0,.04,0,.24.12.48.22.71.37.17.11.28.19.43.41.14.21.2.58.2.86,0,.64-.27,1.17-.56,1.67Z"/>
      </g>
    </g>
    <path class="cls-8" d="m313.14,34.2c-.11-.32-.25-.68-.35-1.05-.08-.28.21-.52.48-.4,1.08.5,2,1.21,2.69,2.2.1.15.12.32.02.49-.12.2-.31.31-.54.29-.13,0-.26-.03-.38-.09-.71-.35-1.27-.9-1.92-1.44Z"/>
    <path class="cls-8" d="m306.35,25.07c-.26-.37-.55-.71-.63-1.15-.02-.11.02-.26.08-.36.1-.17.29-.21.46-.16.87.26,1.55,1.21,1.51,2.07-.01.28-.3.46-.56.36-.39-.15-.61-.48-.86-.76Z"/>
    <path class="cls-9" d="m262.26,54.25c-.08-.13-.13-.29-.23-.37-.5-.39-.71-.96-.83-1.53-.21-.97-.73-1.77-1.23-2.59-.19-.31-.39-.63-.6-.93-.05-.07-.21-.11-.29-.08-.08.04-.16.19-.15.27.1.4.1.79.04,1.21-.03.19.12.41.2.62.17.45.42.86.49,1.35.08.61.1,1.18-.36,1.67-.1.11-.19.24-.22.38-.1.41-.44.5-.76.53-.35.04-.72-.01-1.13-.02.1-1.02-.18-1.96-.1-2.93.04-.54-.2-1.09-.55-1.54-.19-.24-.46-.32-.68-.2-.24.12-.37.38-.33.65,0,.04,0,.08.02.11.47.94.2,1.97.33,2.95.06.45-.29.9-.14,1.4.05.17-.21.27-.35.38-.52.4-.63.79-.19,1.39.46-.11.78-.16,1.42-.48.8-.29,1.33-.4,1.88-.68.4-.11.58-.18,1.01-.33.17,0,.78-.28.95-.34.65-.23.79-.3,1.51-.58.1,0,.37-.14.29-.3Z"/>
    <path class="cls-9" d="m252.97,57.52c.1-.25-.56-.51-.46-.77.21-.5-.45-.66-.92-1.06-.43-.36-.51-.63-.15-.98.66-.66.96-1.52,1.43-2.29.15-.24.23-.48.23-.77,0-.63-.15-.8-.8-.79-.27,0-.55.01-.82.01-.42,0-.67.19-.78.61-.19.71-.65,1.28-1,1.92-.08.15-.21.34-.35.39-.54.19-.8.54-.88,1.1-.03.21-.17.41-.29.61-.31.51-.4.99,0,1.52.23.31-.05.74-.07,1.1.31.02.7-.03,1.41-.07,1.14-.11,2.75-.3,3.45-.52Z"/>
    <path class="cls-9" d="m223.44,23.48s-.23.21-.3,1.37.45,1.37.71,2.3-.08,2.92.76,1.42.67-2.21.42-3.45.14-1.79.14-1.79l-1.73.16Z"/>
    <path class="cls-9" d="m226.61,23.35s-.62.29-.29,2.45.57,1.05.32,2.16-1.45,1.35.15,1.54c1.6.19,1.75-.48,1.62-1.41s-.04-1.96.63-1.33,1.05.08.81-.8-.49-2.3-.22-2.61.16-.13-3.01,0Z"/>
    <path class="cls-9" d="m235.32,22.64s-1.5,1.75-1.85,3.08,1.24,1.63,1.01,2.4-.21,1.63.33,1.25-.2-4.06,2.03-5.58,2.7-1.56,2.7-1.56l-4.22.41Z"/>
    <path class="cls-9" d="m230.77,23.2l2.15-.22s-.95,1.75-1.02,2.7.45,1.35.04,2.04.07,2.38-.61,1.46-.79-.85-.49-2.46-.08-3.53-.08-3.53Z"/>
    <path class="cls-9" d="m283.64,19.17s-.61.54-1.84,1.36c-1.22.81-3.58-.08-2.35.86,1.23.94,4.76.37,6.4-2.14,0,0-2.05-.45-2.22-.08Z"/>
    <path class="cls-9" d="m287.64,19.4s1.18-.03,2.2.48c1.02.51-.83,1.44-1.64,1.91s-1.54,1.77-2.41,1.37-2.34.17-1.17-.92,2.86-1.49,2.93-1.93-.29-.92.09-.91Z"/>
    <path class="cls-9" d="m296.07,49.68s1.84-1.87,1.68-3.85-.02-2.93.65-2.45.63.6.87,2.19.12,2.42.43,2.7l.19.32-3.82,1.09Z"/>
    <path class="cls-9" d="m300.79,45.09s-.2.33-.25,1.81.3,1.36.3,1.36c0,0,.56.4,1.7-1.33,0,0-.75.62-.45-.79s-.83-2.03-1.3-1.06Z"/>
  </g>
  <g id="cat">
    <path class="cls-8" d="m321.78,41.39c-.05.08-.09.18-.17.22-.25.13-.48,0-.72-.06-1.87-.56-3.75-1.09-5.61-1.68-1.48-.47-2.91-1.08-4.44-1.38-.18-.04-.35-.18-.51-.29-.03-.02-.04-.09-.03-.13.04-.08.09-.21.16-.22.14-.03.29-.02.43.02.83.2,1.67.36,2.47.64,2.46.85,4.95,1.62,7.46,2.32.29.08.57.19.84.31.06.03.08.16.12.25Z"/>
    <path class="cls-8" d="m294.33,14.09c.1,0,.2-.01.29.03.32.16.5.45.71.71,1.62,2.07,3.27,4.12,4.86,6.2,1.27,1.65,2.41,3.33,3.82,4.94.17.19.25.43.37.64.02.03,0,.09-.04.09-.09,0-.21.02-.29-.03-.16-.11-.31-.27-.44-.42-.74-.89-1.52-1.77-2.19-2.67-2.07-2.78-4.21-5.54-6.41-8.29-.25-.31-.48-.64-.7-.96-.05-.07,0-.16.02-.24Z"/>
    <path class="cls-8" d="m293.54,20.96c.08-.03.15-.09.24-.09.29.01.49.2.7.35,1.69,1.18,3.4,2.35,5.07,3.55,1.33.95,2.56,1.99,4,2.85.17.1.29.28.42.42.02.02.01.09-.01.1-.07.04-.16.11-.23.09-.15-.04-.3-.11-.43-.19-.76-.49-1.55-.96-2.26-1.49-2.18-1.64-4.43-3.23-6.71-4.78-.26-.18-.51-.37-.74-.57-.05-.05-.03-.15-.04-.23Z"/>
    <path class="cls-8" d="m310.4,40.67c.17-.26.21-.74.72-.45.39.22.8.41,1.18.63,1.24.73,2.52,1.39,3.84,1.98.23.1.46.2.66.35.08.06.08.26.07.39,0,.05-.17.14-.24.12-.33-.09-.66-.19-.98-.34-1.27-.57-2.49-1.24-3.69-1.95-.5-.3-.97-.69-1.58-.76l.02.02Z"/>
  </g>
</svg>