<?xml version="1.0" encoding="UTF-8"?>
<svg xmlns="http://www.w3.org/2000/svg" xmlns:xlink="http://www.w3.org/1999/xlink" viewBox="0 0 416 361.11">
  <defs>
    <style>
      .cls-1, .cls-2, .cls-3, .cls-4, .cls-5 {
        fill: none;
      }

      .cls-2 {
        clip-path: url(#clippath-2);
      }

      .cls-3 {
        clip-path: url(#clippath-1);
      }

      .cls-6 {
        fill: #f8eae1;
      }

      .cls-7 {
        fill: #eaddd5;
      }

      .cls-8 {
        fill: #e7dad2;
      }

      .cls-9 {
        fill: #9c8b83;
      }

      .cls-10 {
        fill: #a19088;
      }

      .cls-11 {
        fill: #d9013b;
      }

      .cls-12 {
        fill: #241914;
      }

      .cls-13 {
        fill: #79655a;
      }

      .cls-4 {
        filter: url(#drop-shadow-3);
      }

      .cls-5 {
        clip-path: url(#clippath);
      }
    </style>
    <clipPath id="clippath">
      <rect class="cls-1" x="893.82" y="85.34" width="398.63" height="275.77"/>
    </clipPath>
    <clipPath id="clippath-1">
      <rect class="cls-1" x="394.22" y="-131.77" width="909.25" height="606.17"/>
    </clipPath>
    <clipPath id="clippath-2">
      <rect class="cls-1" x="8.47" y="86.1" width="398.84" height="275" transform="translate(415.79 447.19) rotate(-180)"/>
    </clipPath>
    <filter id="drop-shadow-3" filterUnits="userSpaceOnUse">
      <feOffset dx="0" dy="0"/>
      <feGaussianBlur result="blur" stdDeviation="5"/>
      <feFlood flood-color="#959cab" flood-opacity=".4"/>
      <feComposite in2="blur" operator="in"/>
      <feComposite in="SourceGraphic"/>
    </filter>
    <image id="image" width="6720" height="4480" xlink:href="../../../../../../../../../../../../Users/pinyiwu/Downloads/still-life-pet-food-assortment.jpg"/>
  </defs>
  <g id="_圖層_3" data-name="圖層 3">
    <g class="cls-5">
      <g class="cls-3">
        <image width="6720" height="4480" transform="translate(394.22 -131.77) scale(.14)" xlink:href="../../../../../../../../../../../../Users/pinyiwu/Downloads/pink-pet-bag-arrangement.jpg"/>
      </g>
    </g>
    <g class="cls-2">
      <use transform="translate(487.34 102.91) rotate(-180) scale(.07 -.07)" xlink:href="#image"/>
      <use transform="translate(487.34 103.57) rotate(-180) scale(.07)" xlink:href="#image"/>
    </g>
  </g>
  <g id="bg">
    <g class="cls-4">
      <g>
        <g>
          <path class="cls-12" d="m116.39,186.72c.1-.67-.43-1.17-1.03-1.34-.37-.1-1.08,0-1.22.23-1.32,2.4-3.96,3.85-4.72,6.63-2.59-1.54-4.53-3.76-6.37-6.08.83-.38,1.63-.86,2.5-1.12,4.19-1.28,5.22-4.81,5.58-8.44.17-1.68.58-2.82,1.75-3.95,1.72-1.65,1.78-2.9.6-4.8-.63-1.01-1.79-1.02-2.56,0-.73.97-1.48,1.94-2.13,2.97-.69,1.09-1.6,1.75-2.84,2.14-1.85.59-1.79.67-1.74,3.24.01.57-.17,1.2-.43,1.72-.98,1.95-2.3,3.6-4.46,4.37-4.23-3.56-7.8-7.67-10.48-12.53,1.71-.29,2.94-1.08,4.1-2.54,1.96-2.46,3.98-4.95,6.48-6.95.35-.28.8-.6.91-.98.57-1.87,1.95-3.06,3.37-4.21,1.22-.99,1.59-2.16,1.02-3.63-.16-.42-.26-.88-.35-1.33-.46-2.22-2.03-2.15-3.9-1.21-.6.3-.69,1-.28,1.57.85,1.17.38,2.11-.65,2.66-1.72.92-2.62,2.52-3.62,4.01-.56.83-.42,2.13-1,2.93-.68.93-2.1-.15-2.99.55-1.24.98-3.12,1.32-3.12,3.55,0,1.08-1.23,1.66-2.02,2.36-2.1-2.42-3.49-5.29-5.01-8.06-1.23-2.24-2.78-4.33-3.34-6.9,1.46-.33,2.01,1.24,3.17,1.51.27.06.65.05.86-.1.42-.3.37-.78.1-1.17-.64-.89-2.29-1.3-1.4-2.92.68-1.26,1.87-.63,2.86-.78.86-.13,1.49-.66,1.3-1.53-.36-1.62.35-2.98.83-4.41.77-2.3,1.41-4.67,2.46-6.84,1.71-3.55,3.97-6.77,6.79-9.57.64-.64,1.48-1.13,1.66-2.11.05-.25-.04-.64-.22-.8-.18-.16-.59-.23-.81-.14-.41.17-.79.45-1.1.77-.74.76-1.52,1.5-2.13,2.36-1.73,2.43-4.38,4.14-5.51,7.06-.41,1.05-1.37,1.61-2.48,1.82-1.74.33-3.08,1.13-3.97,2.75-.34.62-.98,1.28-1.62,1.5-2.39.84-3.3,2.49-3.16,4.91.02.26-.23.54-.35.82-1.38-2.73-3.62-4.75-5.72-6.88-.34-1.12-1.17-2.2,1-2.63,1.22-.24,2.26-2.06,3.38-2.06,2.04,0,2.5-1.13,3.14-2.54.68-1.52,1.56-2.93,2.07-4.56.54-1.73,1.53-3.23,3.26-4.24.98-.57,1.64-1.76,2.35-2.73.32-.44-.03-.99-.49-1.01-2.07-.07-3.85.43-5.06,2.38-1.29,2.06-2.79,3.97-4.16,5.98-.84,1.22-1.81,2.06-3.42,1.7-1.25-.28-2.41.21-3.59.49l-.03-.02c-.09-2.01,1.06-3.36,2.46-4.56.88-.75.76-1.56.17-2.38-1.58-2.23-2.61-2.04-3.89.71-.48-.77-.84-1.63-1.45-2.27-.97-1.01-3.06-.92-3.6.23-1,2.14-2.68,4.15-1.77,6.8-1.08-.32-1.65-1.29-2.49-1.93-.54-.41-1.28-.13-1.32.49-.05.76.02,1.53-.09,2.27-.35,2.41-.68,4.84-2.96,6.36-.66.2-1.28.06-1.44-.62-.14-.56.09-1.2.04-1.8-.05-.63-.35-1.33-1-1.34-1.46-.02-2.58-.55-3.7-1.46-.92-.75-2.04-.22-3.03.17-.63.25-1.11.89-.79,1.42,1.23,2.06-.14,3.01-1.52,3.99-.24.17-.55.23-.83.35-.74-.52-.7-1.26-.55-2.03.51-2.52,1.32-5.02.52-7.63-.08-.26-.02-.66.13-.88,1.51-2.25-.16-3.27-1.64-4.37.54-.29.89-.71.98-1.33,1.78.84,3.4,2.05,5.49,2.1,1.04.02,1.74-.52,1.75-1.6.01-1.37.06-2.75-.09-4.1-.21-1.84-1.59-2.57-3.24-1.61-1.37.79-2.84,1.07-4.3,1.5-.99-1.65-1.99-3.3-2.98-4.95.43-.14,1.05-.14,1.27-.44,1.12-1.48,2.45-2.53,4.28-3.08,1.14-.34,1.49-1.69.67-2.57-.85-.9-1.17-1.57-.54-2.72.23-.42-.03-1.18-.23-1.72-.25-.68-1.03-.98-1.42-.45-1.26,1.71-2.46,1.88-4.06.44-.62-.56-1.85.13-1.59.79,1.01,2.58-.08,5.06-.18,7.58-2.49-2.23-5.01-4.43-7.46-6.7-.99-.92-1.99-1.89-2.4-3.27.95-.23,1.75.25,2.61.52,1.71.53,2.02.4,2.59-1.33.24-.74.38-1.52,1.05-1.91,2.13-1.22.85-3.53,1.71-5.19.34-.66-.45-1.41-1.19-1.69-.35-.13-1.18.02-1.19.11-.22,2.21-1.65,1.6-3.08,1.58-1.02-.02-1.85,1.03-2.41,1.9-.72,1.13-1.21,2.4-1.8,3.6-2.01-1.64-3.1-4-4.65-5.99-2.65-3.39-4.13-7.26-4.49-11.56,1.76-.73,1.82,2.38,3.29,1.61.98-.51,1.52-1.83,2.35-2.68.67-.68,1.61-.8,2.55-.75.45.02.91.09,1.36.04.68-.08,1.04-.58,1.22-1.19.21-.72-.17-1.22-.79-1.39-3.08-.87-6.17-1.77-9.38-.54-.42.16-.89.22-1.33.33-1.69-8.54-1.52-16.94,2.13-24.99,2.13-4.71,4.69-9.24,7.75-13.39,3.61-4.91,8.44-8.23,14.46-9.66,1.63-.38,3.25-.77,4.88-1.15-.3.69-.52,1.43-.92,2.05-1.4,2.18-.24,3.11,1.63,3.48,2.07.41,2.98-.16,2.86-2.18-.07-1.23-.06-2.4.21-3.59,3.59.03,7.13.26,10.37,2.04-.95.83-1.19,1.84-.19,2.66,1.56,1.26,2.5,2.92,3.43,4.61.89,1.62,1.2,3.35.51,5.15-1.04.28-1.62.88-1.41,2.03-2.6,1.51-2.89,4.14-3.22,6.74-.18.41-.36.83-.54,1.24-3.2.68-6.46.99-9.63,1.8-.54.14-.71.62-.59,1.04.11.38.43.75.75,1.01.2.16.59.16.87.1,1.79-.44,3.45-.69,5.2.46,1.32.87,2.93.49,4.39-.11.77,2.16,2.07,3.99,3.59,5.68,1.12,1.25,2.06,2.6,2.02,4.38-2.37.12-4.69-1.08-7.09-.26-.23.08-.66-.02-.83-.2-2.78-3-5.59-1.41-8.39-.07-.13.06-.29.08-.43.12-.71-2.49-1.44-4.98-2.13-7.47-.38-1.36-1.14-2.48-2.03-3.54.2-.4.3-1.01.62-1.16,1.55-.75,2.09-1.87,2.2-3.62.25-3.84,1.82-7.26,4.06-10.37.53-.74,1.16-1.42,1.58-2.21.31-.56.1-1.28-.5-1.56-.67-.31-1.55-.74-2.14-.53-1.7.58-3.33,1.39-4.92,2.24-.69.37-1.06,1.24-.82,1.99.73,2.31.03,4.12-1.65,5.72-.28.27-.24.85-.37,1.28-.51,1.66-.53,1.73-2.36,1.24-2.69-.71-5.43-.24-8.14-.36-1.04-.05-1.91,1.12-1.91,2.19,0,1.06.85,1.99,1.99,2.13.3.04.62.05.91-.02,1.72-.41,2.99.1,3.7,1.78.63,1.48,2.43,1.14,3.35,2.16-.72,1.78-1.44,3.56-2.16,5.35-.9-.08-2.07-.57-2.65-.18-2.58,1.75-5.21.99-7.86.52-.75-.13-1.48-.36-2.23-.44-.59-.06-1.21-.02-1.79.08-.63.1-1.16.49-1.23,1.14-.04.4.12,1.09.39,1.21,1.58.72,2.09,2.08,2.48,3.59.19.75.54,1.47,1.44,1.55,1.95.18,2.89,1.48,3.55,3.1.4.98,1.09,1.47,2.11,1.27,1.22-.24,2,.44,2.84,1.1.96.76,2.01.48,3.04.2.98,3.88,2.43,7.53,5.11,10.59.49.56,1.05,1.06,1.82,1.84,2.61-4.28,2.97-9,4.12-13.46,1.64.29,3.29.79,4.44-1.1.37-.62.99-.42,1.51.07.7.66,1.58,1.1,2.45.45,1.7-1.28,3.54-1.44,5.59-1.27.99.08,2.04-.45,3.06-.71.27.33.53.66.8.99.02.22.08.43.17.63.28.91.55,1.83.83,2.74.15.75.46,1.36,1.25,1.62.72,1.16,1.42,2.33,2.16,3.48.67,1.03,1.64,1.28,2.79.94.37,1.24.81,2.48.1,3.74-1.79.59-3.38-1.22-5.31-.39-.52.23-.67-1.15-.98-1.8-.6-1.25-.9-1.31-2.04-.86-2.63,1.02-4.39,2.42-3.71,5.71.3,1.43-.18,3.01-.17,4.52,0,.79.55,1.39,1.33,1.68.68.26,1.06-.15,1.53-.59,1.58-1.46,3.67-1.67,5.65-1.87,1.38-.14,2.67-.53,3.99-.82.57,1.11.51,2.33.64,3.53.41,3.74.86,7.48,1.3,11.21-.44-.07-.96,0-1.32-.22-2.99-1.72-3.05-1.8-5.16.69-1.17,1.38-2.63,2.56-3.34,4.33-.63,1.58-1.23,3.16-.72,4.87.21.71.56,1.43,1.01,2.01.82,1.04,2.69.79,2.88-.51.26-1.77,1.25-2.39,2.7-2.56,2.2-.25,3.39-1.85,4.79-3.23,1.18-1.15,1.08-2.43.68-3.8.63-.08,1.15-.38,1.45-.94.58-1.06,1.16-2.11,1.65-3.21,2.47-5.49,4.9-11,7.38-16.49.34-.75.48-1.81,1.71-1.73.03.75.24,1.54.06,2.23-.82,2.99,0,5.76,1.08,8.45,1.36,3.37,2.94,6.66,4.4,10,1.3,2.99,3.83,4.16,6.81,4.69.48,1.75.85,3.48.68,5.36-.16,1.73-.76,3.61.72,5.21.41.45,0,1.12-.33,1.66-.43.71-.48,1.47.25,2,.73.52,1.43.13,2.08-.32.75-.51,1.54-.97,2.24-1.55.63-.52,1.01-1.39.5-2.02-2.38-2.97-2.96-6.46-3.23-10.08-.03-.44-.26-.87-.39-1.3.24-.27.48-.53.72-.79,1.3-.91,2.64-1.78,2.99-3.5,2.35-4.19,2.9-8.36.67-12.91-2.15-4.39-1.54-5.5,3.32-7.13,2.43-.82,4.87-1.58,7.14-2.8.39,1.3-.44,2.33-.75,3.49-.51,1.87-1.52,3.64-.77,5.74.22.61-.1,1.5-.38,2.18-.62,1.52-.22,2.67,1.08,3.55,1.09.73,1.09,1.71.77,2.81-.68,2.36-.75,4.77-.67,7.2.04,1.09.54,1.71,1.53,1.93,1.1.24,2.26-.43,2.46-1.49.19-1.04.65-2.36.22-3.11-1.59-2.75-.22-4.49,1.57-6.31.73-.74.47-1.57-.48-2.29-.23-.18-.56-.24-.82-.38-.26-.14-.5-.32-.75-.48.08-.28.07-.68.26-.83,1.94-1.63,2.34-3.42.81-5.58-.32-.45-.47-1.13-.44-1.69.13-2.2-.71-4.17-1.24-6.22.64-.66,1.23-1.36,1.32-2.33,2.06-2.71,2.11-5.93,2.14-9.09.01-1.83.04-3.62.49-5.39.58-2.25,1.44-4.29,3.69-5.42,2.29-1.15,2.21-2.97,1.28-4.97,7.26-2.41,14.7-3.26,22.31-2.61.18,1.42.07,3.11-.87,3.9-2.03,1.7-1.87,4.1-2.47,6.2-.58,2.04-.97,4.07-2.07,5.97-1.02,1.76-1.25,3.78-.21,5.71.18.33.66.59,1.05.7.46.13,1.01-.09,1.12-.55.34-1.37.78-2.58,2.34-3.04.63-.18.8-.86.99-1.45.64-2.04,1.23-4.09,1.97-6.09.39-1.05.59-2.05.26-3.12-.36-1.14-.03-2.06.8-2.9,1.61-1.64,1.54-3.55.77-5.54,3.81-.8,7.62-.81,11.42,0,.06.62.08,1.29-.48,1.66-3.11,2.04-4.02,5.58-5.86,8.48-.08.12-.08.29-.11.44-.1.63.02,1.21.56,1.61.57.43,1.2.27,1.67-.11.46-.37.83-.88,1.15-1.38.65-1.02,1.24-2.09,1.87-3.12.86-1.41,1.7-2.76,3.2-3.73,1.34-.87,2.46-2.22,3.04-3.85,1.64.05,3.29.07,4.93.15,1.64.08,3.29.14,4.69,1.19-.69,1.82-2.08,3.27-2.59,5.23-.29,1.13-1.1,2.11-2.06,2.95-1.74,1.51-1.86,1.86-.32,3.08,1.57,1.24,1.51,2.61.89,4.02-1.62,3.7-1.06,7.73-1.89,11.54-.15.67.21,1.17.94,1.25.68.08,1.22-.29,1.51-.82.28-.51.39-1.13.5-1.72.27-1.49.46-3,.73-4.49.3-1.65.57-3.31,1.65-4.69.87-1.12,2.48-1.82,1.52-3.83-.77-1.61.18-3.27.63-4.84.29-1.01.89-1.94,1.92-2.45.73-.36,1.11-.97,1.36-1.73.5-1.56,1.6-2.08,3.19-1.84,1.35.2,1.46-.7,1.34-1.72,1.69,1.05,3.55,1.34,5.51,1.41,3.94.14,7.88.27,11.8.58,3.3.26,6.64.52,9.62,2.24-3.92.74-5.45,4.05-7.36,6.92-.32.49-.23,1.19.19,1.72.43.55,1.03.55,1.65.46,1.29-.2,2.2-.74,2.68-2.11.6-1.73,1.51-3.31,3.23-4.29,1.03-.59.52-1.61.37-2.49,4.56,1.16,8.91,2.89,13.2,4.8,2.47,1.1,5.1,1.91,7.18,3.77-1.65.77-3.26,1.69-4.98,2.25-1.66.54-2.76,1.19-2.35,3.17.16.79-.3,1.44-.69,2.12-1.21,2.11-2.38,4.25-3.54,6.38-.47.86-.71,1.72.29,2.41.92.64,1.8.42,2.57-.96.99-1.76,2.33-3.2,3.63-4.7.4-.46.8-.98,1.31-1.26,3.83-2.13,3.89-5.72,3.74-9.41.58.15,1.21.2,1.73.47,2.15,1.12,4.15,1.66,6.2-.37.78-.78,1.99-.6,2.95.14,2.23,1.7,4.58,2.98,7.54,2.22.13-.03.3.05.45.07,1.77.17,3.3,1.64,5.27.81,1.83-.77,3.28,1.49,5.15.8,2.34,1.1,5.18.33,7.39,1.94.55.4,1.17.26,1.73-.01.82-.4,1.6-.87,2.42-1.27,2.11-1.04,4.19-1.92,6.26.2.36.37,1.13.39,1.72.51,2.36.52,4.26,1.82,5.45,3.84,1.85,3.13,4.6,5.21,7.48,7.22.86.6,1.9,1,2.44,1.99-1.34.37-2.68.44-4.07.28-.9-.1-1.88.06-2.38.99-.38.72-.06,1.48.12,2.22-.67-.34-1.35-.66-2-1.04-2.76-1.64-7-.95-9.02,1.51-.52.63-.66,1.35-.29,2.12.46.95.91,1.91,1.37,2.87.78,1.64,2.42,1.74,3.54.23.09-.12.13-.27.18-.42.64-1.86,1.98-2.44,3.9-2.45,2.06,0,2.06-.16,2.32-2.82,1.62.59,3.21.06,4.82-.13,2.32-.27,2.32-.24,2.14-2.91,3.02.93,5.05,3.16,7.07,5.41,1.15,1.28,1.65,2.84,2.08,4.46.3,1.11-.52,2.68.81,3.29,1.03.48,2.34.38,3.53.45,2.11.12,4.22.1,6.33.26,1.04.08,2.09.31,3.07.66.98.35,1.22,1.24,1.08,2.23-4.66-.55-8.52,1.28-12.06,4.06-.47.37-.88.83-1.26,1.29-.61.73-.95,1.6-.5,2.5.46.92,1.33,1.08,2.31.99,1.14-.11,2.28-1.02,3.43-.05l.05-.06c-2.61,1.03-2.5,3.19-2.26,5.41-.23,2.26-.5,4.51-.68,6.77-.28,3.35-1.73,6.03-4.35,8.16-3.51,2.86-6.93,5.85-10.44,8.72-1.79,1.46-3.79,2.51-6.21,2.4-.58-1.21-1.75-1.46-2.72-1-3.15,1.5-5.61-.03-8.09-1.59-3.01-1.89-5.61-4.17-7.48-7.27-1.89-3.13-4.02-6.08-4.97-9.73-.75-2.87-2.61-5.15-4.97-6.96-.85-.65-1.76-1.22-2.6-1.88-1.99-1.57-3.18-3.42-3.36-6.17-.2-3.21-.39-6.37.11-9.56.21-1.35.37-2.75.26-4.1-.12-1.46-1.04-2.53-2.5-2.97-1.32-.39-2.39.12-3.28,1.09-.21.22-.48.43-.58.7-1.73,4.52-6,5.69-9.8,7.49-1.29-2.44-1.77-5.04-1.51-7.77.08-.77.11-1.5-.38-2.16-.38-.51-.9-.84-1.53-.82-.66.01-1.3.49-1.29,1.07.06,4.04-1.6,7.55-3.25,11.08-.11.24.04.59.07.89-3.34,1.14-6.82,1.72-10.29,2.22-4.89.71-8.95,2.84-12.39,6.35-3.42,3.48-7.14,6.69-9.65,10.98-.45.77-1.02,1.54-2,1.78-.66-2.02-.12-3.85.72-5.71.74-1.65,1.33-3.37,1.88-5.1.18-.57-.05-1.26-.7-1.5-.38-.14-.95-.16-1.28.03-.64.38-1.45.83-1.7,1.44-.9,2.25-2.56,4.15-3.01,6.59-.39,2.14-1.11,4.08-2.86,5.53-.76.63-.76,1.61-.59,2.54-1.85,1.39-3.38,2.88-3.93,5.38-.59,2.68-4.32,4.3-7.02,3.4-1.01-.34-1.95-.9-2.96-1.23-2.78-.93-4.79-.36-6.33,2.13-2.01,3.24-4.14,6.48-4.65,10.38-.83,6.44-5.75,9.43-10.5,12.5-1.41.91-3.21.9-4.77-.16,1.72-1.67,1.82-3.77,1.47-5.93-.44-2.73-.46-5.44-.05-8.18.64-4.36,2.54-8.1,5.33-11.44,1.66-1.99,3.32-3.97,4.98-5.96.29-.35.59-.69.88-1.05,4.49-5.56,4.38-11.4,1.07-17.43-.46-.84-1.2-1.35-2.18-1.49-.24-.43-.61-.66-1.11-.67-.83-1.1-1.92-1.39-3.24-1.12-1.25.26-2.24.82-2.99,1.91-1.78,2.61-2.63,5.47-2.57,8.61.01.76.23,1.51.27,2.27.17,3.21-2.22,5.53-5.3,5.56-1.06.01-2.12.15-3.18.23-.18-.25-.34-.51-.49-.77.07-.6-.06-1.33.24-1.76,1.05-1.47,2.13-2.69,2.09-4.84-.03-1.7,1.01-3.43.33-5.29-.14-.39-.09-.94.07-1.34.34-.83,1.12-1.6.52-2.53-.62-.96-1.84-1.01-2.81-1.41-.64-.27-1.21.08-1.4.76-.25.86-.34,1.78-.6,2.63-.53,1.72-.56,1.72.92,3.5-.58.26-1.13.49-1.67.77-.89.46-1.37,1.22-1.36,2.21.01,1.98.08,3.96.12,5.94-5.04-.71-6.48-.05-8.88,4.22-1.56,2.77-3.1,5.55-4.55,8.37-2.83,5.49-3.69,11.16-1.41,17.08-2.16,1.11-4.08,2.72-6.55,3.21-1.3-3.73-1.58-7.78-3.6-11.29-.27-.47-.11-1.18-.13-1.78-.06-1.54-.45-3.01-1.02-4.43-.28-.69-1.33-1.08-1.91-.65-.85.62-1.73,1.27-2.41,2.06-1.07,1.25-1.3,2.54-.33,4.15,2.91,4.82,4.72,10.14,6.46,15.47-.68,5.79-.35,11.49,1.17,17.16,1.64,6.14,1.68,12.3-.43,18.41-.69,1.99-1.29,4.09-.45,6.24.76,1.93-.12,3.2-1.66,4.23-1.07.04-2.09-.07-2.82-.98-1.29-1.62-2.58-3.25-3.86-4.88,2.92-1.76,4.25-4.5,4.72-7.74Zm84.81-105.83c3.02-2.11,3.5-4.08,1.06-6.09-1.78-1.46-2.62-3.16-3.24-5.27-1.06-3.61-4.93-4.75-8.02-2.55-2.91,2.07-3.91,5.57-2.12,8.87.8,1.47.78,2.47-.09,3.72-1.95,2.78-3.47,5.74-3.9,9.18-.18,1.41-.1,2.74.47,4.03.42.94,1.21,1.31,2.19,1.36q1.9,1.1,3.73-.33c1.69-.48,2.58-1.79,2.62-3.36.05-2.15.66-3.45,2.97-3.77,1.29-.18,2.09-1.15,2.37-2.47.73-.18,1.33-.49,1.5-1.31.62-.59.88-1.26.45-2.08v.05Zm84.29,22.49c-1.18,1.81-1.08,4.93.52,6.34,1.49,1.31,3.05,2.47,3.93,4.31.08.17.55.25.82.23.46-.04.96-.22,1.03-.74.34-2.56.97-5.21-1.58-7.14-1.11-.84-.95-1.78-.19-2.76.19-.24.42-.46.55-.73.36-.76,0-1.5-.8-1.81-.93-.37-1.8-.05-2.69.15.16-2.3.15-2.53-1.36-2.43-1.46.1-2.44-.44-3.06-1.53-1.62-2.86-4.21-4.28-7.18-5.27-1.15-.38-2.24-.95-3.37-1.41-1.92-.78-3.87-.85-5.8-.06-.56.23-1.13.49-1.61.85-2.27,1.7-3.52,5.97-2.58,8.65.21.59.5,1.31,1.12,1.32,4.13.06,6.43,3.11,8.99,5.57,2.17,2.09,3.95,4.57,5.91,6.87.3.35.68.72,1.16.4.35-.23.7-.59.86-.97.39-.91.2-1.85-.32-2.62-.77-1.16-1.47-2.33-1.7-3.72-.37-2.21-1.23-4.06-3.39-5.12-.49-.24-.85-.86-1.15-1.37-1.05-1.79-2.44-3.08-4.55-3.54-.57-.12-1.18-.65-1-1.33.23-.89,1.07-1.06,1.84-.85,4.54,1.28,9.35,2.22,12.77,5.68,1.6,1.62,2.84,1.26,4.44.85-.54.73-1.12,1.43-1.62,2.18Zm-125.87-7.26c.42,0,1.03-.12,1.23-.4.96-1.35,1.97-2.7,2.64-4.2.74-1.65,1.5-3.44,1.59-5.2.23-4.49,1.93-8.57,3.08-12.81.4-1.47.77-2.95,1.05-4.44.11-.57.05-1.22-.1-1.79-.11-.4-.43-.91-.78-1.04-.63-.22-1.23.16-1.43.78-.73,2.32-1.5,4.63-2.04,6.99-.68,2.95-2.56,5.52-2.57,8.69,0,.61-.88,1.18-1.29,1.82-.91,1.41-1.84,2.8-1.37,4.66.32,1.27-.67,2.31-.86,3.5-.14.89-.54,1.76-.15,2.76.13.42.53.7.98.69Zm23.28,30.78c.31.29.62.68,1,.8.68.21,1.37-.23,1.39-.82.05-1.79,1.26-3.12,1.67-4.69.77-2.92,1.14-5.94,1.58-8.94.09-.65-.61-1.21-1.2-1.12-1.35.21-2.67.59-3.97,1.03-.34.11-.73.65-.75,1.02-.24,4.1-.24,8.2.11,12.29.06.14.08.32.18.42Zm-132.47-13.64c.24.48,1.3.47,1.57,0,.15-.26.42-.54.41-.79-.2-3.24,1.78-5.61,3.2-8.2.66-1.21.2-2.41-1.1-2.91-2.31-.88-3.78-.59-5.37,1.06-1.53,1.59-1.62,3.49-1.19,5.67,1.38,1.36,1.62,3.41,2.49,5.16Zm203.94-42.55c-.81,1.15-.57,2.68-.37,3.99.2,1.25,1.51,1.33,2.55,1.53,1.45.29,2.04-.15,1.76-1.67-.28-1.5-.06-2.46,1.19-3.54,1.35-1.16,2.24-2.84,3.34-4.29.28-.37.55-.75.22-1.21-.3-.42-.74-.45-1.2-.35-.15.03-.3.06-.68.13-2.88.78-5.02,2.92-6.8,5.41Zm37.1,63.56c2.16-.68,3.4-2.64,2.85-4.52-.46-1.56-2.13-2.74-3.43-2.4-2.07.53-3.59,2.68-3.12,4.41.53,1.94,2.1,3.01,3.69,2.51Zm-147.68-61.23c-.43,1.76-.76,3.54-1.11,5.31-.59,2.95-.21,6.01-1.07,8.94-.12.42.21.95.69.98.4.03,1.09-.14,1.19-.39.37-.97.62-2,.78-3.03.59-3.87,1.13-7.75,1.65-11.64.08-.61-.73-1.25-1.43-.92-.13.13-.61.39-.7.75Zm103.69,1.12c.39,0,1-.33,1.11-.65.71-2.15,1.34-4.34,1.94-6.53.06-.23-.12-.7-.32-.8-.36-.18-.91-.36-1.22-.21-1.98.95-3.58,2.32-4.34,4.46-.15.42-.17.88-.22,1.13.17,1.24,1.82,2.62,3.06,2.6Zm-130.66,51.67c-.12-.34-.64-.72-1.01-.75-1.06-.08-2.11.13-2.89.96-.5.54-.85,1.25-1.41,1.71-.78.64-1.29,1.29-.74,2.27.49.87,1.32,1.18,2.28,1.13.3-.01.59-.09.89-.14,2.33-.56,3.69-2.97,2.87-5.2ZM35.32,33.48c-.72,2.85-1.92,5.63-1.36,8.67.1.51,1.15.83,1.51.5,2.1-1.87,2.82-6.6,1.36-9.17-.11-.2-.5-.25-.75-.36-.26.12-.72.18-.76.36Zm172.59,48.62c.63-2.05.85-4.15.38-6.27-.07-.34-.54-.7-.9-.85-.49-.2-.9.21-1.08.61-.99,2.12-1.04,4.39-.79,6.66.08.72.8.79,1.55.74.25-.26.73-.52.84-.9Zm-85.35,51.31c.76-.33,1.24-.9,1.37-1.69.24-1.5.39-3.01.6-4.51.1-.71-.18-1.21-.85-1.34-.64-.12-1.23.19-1.57.72-1.2,1.91-.95,4.07-1.04,5.97.1.72.97,1.08,1.49.85Zm-65.99-49.16c-.38-.96-1.06-1.81-1.72-2.63-.31-.38-.94-.24-1.18.15-1.01,1.6-1.57,3.31-.63,5.15.2.38.55.76.89.65,1.59-.18,3.12-2.12,2.65-3.33Zm186.17-8.45c-.02.75.1,1.51.1,2.27,0,.99-.66,2.37.84,2.63,1.27.22,1.53-1.24,2.12-2.07,1.45-2.06-.07-3.32-2.16-3.7-.45.13-.87.37-.89.87Zm-143.52,68.09c-.29.28-.45.8-.48,1.22-.03.5.42.82.87.86,1.05.1,2.12.19,3.18.15.85-.03,1.74-1.22,1.58-1.93-.16-.71-.74-.9-1.34-1.04-.44-.1-.9-.19-1.35-.22-.3-.02-.6.07-1.2.15-.28.17-.86.41-1.27.82Zm14.78-24.69c-.44,1.14-.53,2.37-.27,3.54.13.57.79.98,1.43.9.37-.05.86-.41.99-.75.44-1.15.63-2.34.04-3.53-.32-.64-.85-.78-1.5-.7-.24.17-.6.3-.69.53Zm96.34-52.7c.04-.21-.22-.56-.43-.7-.22-.15-.61-.23-.84-.14-1.64.66-2.55,2.36-2.1,3.96.12.43.51.75,1.25.51,1.14-.81,1.83-2.11,2.12-3.63Zm-182.77,9.13c.09.5.49.65.9.39.15-.09.21-.53.12-.72-.08-.16-.42-.19-.65-.28-.13.2-.4.43-.36.61Z"/>
          <path class="cls-6" d="m120.01,196.09c-.85-2.15-.24-4.25.45-6.24,2.11-6.11,2.07-12.28.43-18.41-1.52-5.67-1.85-11.37-1.17-17.16,1.97-.35,2.17-2.18,2.94-3.53,2.47-.48,4.39-2.1,6.55-3.21.65-.04,1.3-.08,1.95-.12l.06.02c1.19.9,2.45.03,3.67.13,1.27.99,2.83,1.17,4.33,1.5,2.82,1.83,5.98,2.81,9.21,3.6,1.28,1.07,2.64,1.87,4.41,1.47.48.69,1.15.72,1.89.56,1.56,1.07,3.36,1.07,4.77.16,4.75-3.07,9.67-6.06,10.5-12.5.5-3.9,2.64-7.15,4.65-10.38,1.55-2.49,3.55-3.06,6.33-2.13,1.01.34,1.95.9,2.96,1.23,2.7.9,6.43-.72,7.02-3.4.55-2.5,2.08-3.99,3.93-5.38,3.5.68,5.91-.82,7.54-3.83.98-.25,1.55-1.01,2-1.78,2.51-4.29,6.23-7.5,9.65-10.98,3.44-3.51,7.5-5.64,12.39-6.35,3.47-.5,6.94-1.09,10.29-2.22,2.99.5,5.38-1.07,7.88-2.29,3.8-1.8,8.07-2.97,9.81-7.49.1-.27.37-.48.58-.7.89-.97,1.96-1.48,3.28-1.09,1.46.44,2.38,1.51,2.5,2.97.11,1.35-.05,2.75-.26,4.1-.49,3.19-.31,6.35-.11,9.56.17,2.75,1.36,4.6,3.36,6.17.84.66,1.75,1.23,2.6,1.88,2.36,1.81,4.23,4.1,4.97,6.96.95,3.65,3.08,6.6,4.97,9.73,1.87,3.1,4.48,5.38,7.48,7.27,2.48,1.56,4.93,3.08,8.09,1.59.97-.46,2.13-.21,2.72,1,.03.46.18.94.08,1.37-.42,1.83-5.13,6.86-6.83,7.46-1.66.58-3.37.69-4.93-.04-2.04-.96-3.7-.76-5.54.54-2.14,1.51-4.25,1.16-6.21-.7-1.65-1.57-3.52-2.91-5.24-4.4-.69-.59-1.56-1.22-1.83-2.01-1.37-3.87-4.91-5.73-7.54-8.43-.31-.32-.74-.53-1.15-.73-.82-.41-2.23.26-2.05,1.08.53,2.4-.85,4.09-1.86,5.95-3.09,5.7-7.35,10.46-11.84,15.04-3.87,3.94-7.62,8.03-9.83,13.1-1.54,3.53-3.49,6.77-5.33,10.11-.52.94-1.12,1.83-1.61,2.78-2.32,4.51-4.03,9.19-4.32,14.33-.14,2.43-.62,4.84-1.01,7.24-.67,4.22-1.51,8.42-.29,12.68.32,1.11.16,2.21-.72,2.95-1.73,1.44-1.53,3.14-.99,5,.52,1.76,1.06,3.53,1.36,5.33.67,3.91,2.22,7.25,5.53,9.64.85.62,1.51,1.5,2.26,2.26,3.1,3.14,2.72,7.07-1.11,9.1-3.76,1.99-11.41,2.47-14.67-2.97-2.66-4.44-5.68-8.63-7.01-13.73-.1-.38-.43-.94-.71-.97-.81-.1-.9.69-1.04,1.24-.62,2.55-.32,5.15-.43,7.74-.08,1.77.36,3.28,1.37,4.72.87,1.24,1.72,2.55,2.27,3.95,1.36,3.46-.23,6.4-3.73,7.49-3.63,1.13-6.57.04-9.19-2.49-3.82-3.69-5.72-8.38-6.05-13.5-.32-4.99-.85-10-.55-15.03.11-1.81-.1-3.65-.28-5.46-.42-4.38-1.14-8.75-1.28-13.14-.13-4.14-1.15-8.12-1.66-12.17-.59-4.67-2.28-9.19-3.41-13.79-.38-1.55-1.26-2.77-2.09-4.04-.61-.95-1.47-.88-2.15.16-.67,1.02-1.42,2.04-1.83,3.17-1.09,3.01-2.14,6.04-2.96,9.13-1.18,4.4-2.16,8.84-2.89,13.35-.94,5.73-2.61,11.3-4.54,16.77-.62,1.74-1.12,3.52-1.36,5.32-2.98,2.65-4.62,5.33-1.84,10.31,3.09,5.53,6.87,10.91,11.53,15.28,1.28,2.04,2.63,4.05,3.14,6.47.38,1.81-.32,2.96-2.05,3.51-.56-.22-1.1-.52-1.67-.66-2.63-.63-3.47,0-4.14,3.06-2.06.55-4.14,1.07-6.19,1.65-1.2.34-2.38.37-3.61.1-1.28-.29-2.23-.87-2.69-2.18-.81-2.3-2.01-4.42-3.37-6.43-5.35-7.95-10-16.31-14.24-24.9-4.44-9-9.22-17.8-14.98-26.04-.43-.61-.62-1.38-.92-2.07,1.54-1.02,2.42-2.3,1.66-4.23Z"/>
          <path class="cls-12" d="m99.63,106.28c-2.98-.53-5.51-1.7-6.81-4.69-1.45-3.34-3.03-6.62-4.4-10-1.09-2.69-1.9-5.46-1.08-8.45.19-.69-.03-1.48-.06-2.23v.11c.48-.21.68-.6.7-1.1-.08-.32-.16-.65-.24-.97v.05c.53-.35.64-.87.59-1.46.41-1.2,1.03-2.28,1.97-3.15.35,1.02.49,2.06.36,3.14-.18,1.56.42,3,.78,4.46.2.79.75,1.37,1.64,1.16.62-.15.98-.65.99-1.34,0-1.21.17-2.44.01-3.63-.27-1.94-.7-3.85-.6-5.84.04-.66-.66-.95-1.22-1.21.88-2.25,2.3-3.99,4.6-4.92.55,1.63.61,3.3.29,4.96-.6,3.17-.2,6.33,0,9.49.04.68.33,1.15,1.08,1.17,1.07.02,1.98-.63,1.98-1.46,0-1.36-.17-2.73-.28-4.06-.31-3.69-.09-7.29.83-10.85.24-.94.11-1.8-.24-2.67,2.18-1.43,4.11-3.3,6.72-4.01.31,1.99-1.16,3.7-.89,5.71.1.78.03,1.54.99,1.67,1.16.16,2.13-.63,2.2-1.7.07-1.19.08-2.37.15-3.56.02-.45.18-.89.19-1.33.02-.89-.67-1.26-1.32-1.63,2.23-2.07,5.04-2.88,7.89-3.61.03,1.21-1.28,1.65-1.56,2.69-.19.69.09,1.18.63,1.55.67.47,1.69.33,2.01-.29.77-1.52,1.31-3.08.51-4.78,3.22-1.88,6.36-3.96,10.27-4.1.93,2.01,1.01,3.82-1.28,4.97-2.25,1.13-3.11,3.17-3.69,5.42-.45,1.77-.47,3.56-.49,5.39-.03,3.16-.07,6.38-2.14,9.09-1.66-.64-1.6-2.21-1.6-3.49,0-1.97.35-3.95.6-5.91.08-.63.05-1.21-.29-1.74-.08-.12-.25-.27-.36-.26-.27.04-.72.11-.77.26-1.28,4.56-2.59,9.13-.67,13.85-.21.38-.42.77-.64,1.15-2.27,1.22-4.71,1.98-7.14,2.8-4.86,1.64-5.47,2.75-3.32,7.13,2.23,4.54,1.68,8.72-.67,12.91-3.36-.45-3.92-1.16-3.47-4.51.11-.79.05-1.5-.45-2.13-.29-.36-.67-.6-1.18-.47-.44.12-.99.28-.95.79.19,2.09.02,4.11-.46,6.18-.41,1.76.51,2.57,2.74,3.2.28.08.52.28.77.43-.24.26-.48.53-.73.79-.84.35-1.68.69-2.52,1.04Zm-5.95-12.19c.26,0,.69-.2.73-.38.41-1.72.81-3.45,1.09-5.19.08-.52-.52-.66-.99-.63-.86.06-1.39.63-1.63,1.36-.49,1.48.51,2.97-.17,4.34.48.27.72.51.96.5Zm14.37-26.53c-1.16.92-1.21,2.48-.09,3.51.17.16.6.23.81.13.76-.34,1.05-1.03,1.02-1.82-.03-.75-.13-1.51-.9-1.93-.11-.06-.28-.02-.42-.03-.14.04-.31.05-.41.13Zm-2.36,27.25c.73-.47.96-1.43.46-1.89-.17-.16-.61-.23-.8-.12-.68.4-1.13.96-.84,1.79.36.43.79.47,1.18.22Z"/>
          <path class="cls-12" d="m62.56,62.84c.03-1.79-.9-3.13-2.02-4.38-1.51-1.69-2.81-3.52-3.59-5.68.12-.27.21-.56.28-.85.71.27,1.4.61,2.12.81,3.26.92,4.57.36,6.25-2.71.32-.58.18-1.37-.44-1.55-2.01-.61-4.05-1.11-6.1-1.55-.84-.18-1.59,1.01-2.55.3.33-2.6.62-5.22,3.22-6.74,1.37,1.92,3.39,1.56,5.27,1.37.78-.08,1.1-.97,1.08-1.74-.02-.97-.56-1.71-1.47-2.04-1.2-.44-2.34.07-3.48.39.69-1.8.38-3.52-.51-5.15-.93-1.69-1.87-3.35-3.43-4.61-1-.82-.76-1.83.19-2.66,2.26.19,4.19,1.66,6.51,1.69.4,0,.89.32,1.16.64,1.43,1.71,3.48,2.95,4.1,5.28-.71.17-1.6.14-1.88.96-.17.52-.17,1.24.07,1.71.4.77,1.03,1.44,1.62,2.09.14.15.58.15.8.05.22-.11.47-.45.45-.66-.08-.89-.25-1.77-.39-2.66.83.51,1.1,1.36,1.37,2.22.89,2.88,1.21,5.82,1,8.82-1.29,0-2.65-.84-3.79.63-1.63,2.12-1.28,5.77,1.67,6.79.7.24,1.07-.23,1.37-.84.63-1.25-.13-2.8.9-3.94.1.28.25.56.3.85.98,5.52.49,11.12.82,16.67.12,2.05-1.8,3.55-1.66,5.56.14,1.97.49,3.9-.59,5.72-1.15.33-2.12.09-2.79-.94-.74-1.15-1.45-2.32-2.16-3.48.42-1.19,1.52-1.3,2.51-1.57,1.22-.34,1.51-1.29,1.68-2.36.1-.65-.11-1.15-.61-1.55-2.15-1.7-2.91-1.64-5.82.49-.27-.33-.54-.66-.81-.99.19-1.53-.14-2.98-.69-4.39Zm1.76-4.27c-.39.12-1,.27-.69.86.17.32.69.68,1.03.67,1.77-.09,3.16.7,4.61,1.57,1.69,1.02,2.52.56,2.71-1.33.06-.59.06-1.2-.02-1.79-.14-.95-1-1.61-1.95-1.43-1.03.2-2.04.51-3.06.78,0,0,0-.02,0-.02-.88.23-1.76.43-2.62.69Z"/>
          <path class="cls-12" d="m53.48,134.34c-.66.2-1.28.06-1.44-.62-.14-.56.09-1.2.04-1.8-.05-.63-.35-1.33-1-1.34-1.46-.02-2.58-.55-3.7-1.46-.92-.75-2.04-.22-3.03.17-.63.25-1.11.89-.79,1.42,1.23,2.06-.14,3.01-1.52,3.99-.24.17-.55.23-.83.35-.74-.52-.7-1.26-.55-2.03.51-2.52,1.32-5.02.52-7.63-.08-.26-.02-.66.13-.88,1.51-2.25-.16-3.27-1.64-4.37-3.01-1.23-5.98-.98-8.88.34-2.4,1.09-3.91,2.89-4.04,5.62-.06,1.37-.05,2.74-.07,4.11-.07,3.5,1.24,6.19,4.4,7.93,1.19.65,2.18,1.65,3.31,2.42,3.32,2.27,7.73,3.04,11.84-.36.59-.49,1.18-.97,1.75-1.48.9-.81,1.95-1.47,2.56-2.58.63-1.14,2.49-.33,2.96-1.79Z"/>
          <path class="cls-12" d="m69.97,137.86c-.34-1.12-1.17-2.2,1-2.63,1.22-.24,2.26-2.06,3.38-2.06,2.04,0,2.5-1.13,3.14-2.54.68-1.52,1.56-2.93,2.07-4.56.54-1.73,1.53-3.23,3.26-4.24.98-.57,1.64-1.76,2.35-2.73.32-.44-.03-.99-.49-1.01-2.07-.07-3.85.43-5.06,2.38-1.29,2.06-2.79,3.97-4.16,5.98-.84,1.22-1.81,2.06-3.42,1.7-1.25-.28-2.41.21-3.59.49-.02.11-.02.24-.07.33-.03.06-.14.08-.21.12.09-.16.17-.31.26-.47-.09-2.01,1.06-3.36,2.46-4.56.88-.75.76-1.56.17-2.38-1.58-2.23-2.61-2.04-3.89.71-.48-.77-.84-1.63-1.45-2.27-.97-1.01-3.06-.92-3.6.23-1,2.14-2.68,4.15-1.77,6.8.47,1.01,1.3,1.75,2.26,2.15,2.66,1.13,3.66,3.42,4.51,5.89.44,1.28.92,2.55,1.38,3.82.43-.12.87-.24,1.3-.36.24-.22.31-.48.19-.79Z"/>
          <path class="cls-12" d="m78.45,151.59c1.46-.33,2.01,1.24,3.17,1.51.27.06.65.05.86-.1.42-.3.37-.78.1-1.17-.64-.89-2.29-1.3-1.4-2.92.68-1.26,1.87-.63,2.86-.78.86-.13,1.49-.66,1.3-1.53-.36-1.62.35-2.98.83-4.41.77-2.3,1.41-4.67,2.46-6.84,1.71-3.55,3.97-6.77,6.79-9.57.64-.64,1.48-1.13,1.66-2.11.05-.25-.04-.64-.22-.8-.18-.16-.59-.23-.81-.14-.41.17-.79.45-1.1.77-.74.76-1.52,1.5-2.13,2.36-1.73,2.43-4.38,4.14-5.51,7.06-.41,1.05-1.37,1.61-2.48,1.82-1.74.33-3.08,1.13-3.97,2.75-.34.62-.98,1.28-1.62,1.5-2.39.84-3.3,2.49-3.16,4.91.02.26-.23.54-.35.82.13,2.6,1.54,4.69,2.75,6.86Z"/>
          <path class="cls-12" d="m180.4,47.9c-.69,1.82-2.08,3.27-2.59,5.23-.29,1.13-1.1,2.11-2.06,2.95-1.74,1.51-1.86,1.86-.32,3.08,1.57,1.24,1.51,2.61.89,4.02-1.62,3.7-1.06,7.73-1.89,11.54-.15.67.21,1.17.94,1.25.68.08,1.22-.29,1.51-.82.28-.51.39-1.13.5-1.72.27-1.49.46-3,.73-4.49.3-1.65.57-3.31,1.65-4.69.87-1.12,2.48-1.82,1.52-3.83-.77-1.61.18-3.27.63-4.84.29-1.01.89-1.94,1.92-2.45.73-.36,1.11-.97,1.36-1.73.5-1.56,1.6-2.08,3.19-1.84,1.35.2,1.46-.7,1.34-1.72-.85-.18-1.72-.33-2.56-.55-1.75-.47-3.41-.54-5.05.48-.43.27-1.14.1-1.72.14Z"/>
          <path class="cls-12" d="m103.05,186.16c.83-.38,1.63-.86,2.5-1.12,4.19-1.28,5.22-4.81,5.58-8.44.17-1.68.58-2.82,1.75-3.95,1.72-1.65,1.78-2.9.6-4.8-.63-1.01-1.79-1.02-2.56,0-.73.97-1.48,1.94-2.13,2.97-.69,1.09-1.6,1.75-2.84,2.14-1.85.59-1.79.67-1.74,3.24.01.57-.17,1.2-.43,1.72-.98,1.95-2.3,3.6-4.46,4.37.96,1.56,1.78,3.27,3.73,3.87Z"/>
          <path class="cls-12" d="m88.84,169.76c1.71-.29,2.94-1.08,4.1-2.54,1.96-2.46,3.98-4.95,6.48-6.95.35-.28.8-.6.91-.98.57-1.87,1.95-3.06,3.37-4.21,1.22-.99,1.59-2.16,1.02-3.63-.16-.42-.26-.88-.35-1.33-.46-2.22-2.03-2.15-3.9-1.21-.6.3-.69,1-.28,1.57.85,1.17.38,2.11-.65,2.66-1.72.92-2.62,2.52-3.62,4.01-.56.83-.42,2.13-1,2.93-.68.93-2.1-.15-2.99.55-1.24.98-3.12,1.32-3.12,3.55,0,1.08-1.23,1.66-2.02,2.36-.34,1.72.74,2.54,2.05,3.21Z"/>
          <path class="cls-12" d="m150.62,46.78c.18,1.42.07,3.11-.87,3.9-2.03,1.7-1.87,4.1-2.47,6.2-.58,2.04-.97,4.07-2.07,5.97-1.02,1.76-1.25,3.78-.21,5.71.18.33.66.59,1.05.7.46.13,1.01-.09,1.12-.55.34-1.37.78-2.58,2.34-3.04.63-.18.8-.86.99-1.45.64-2.04,1.23-4.09,1.97-6.09.39-1.05.59-2.05.26-3.12-.36-1.14-.03-2.06.8-2.9,1.61-1.64,1.54-3.55.77-5.54-.23-.13-.46-.12-.68.02-.46.23-.88.17-1.25-.18-.59.12-1.17.25-1.76.37Z"/>
          <path class="cls-12" d="m73.58,101.7c-.44-.07-.96,0-1.32-.22-2.99-1.72-3.05-1.8-5.16.69-1.17,1.38-2.63,2.56-3.34,4.33-.63,1.58-1.23,3.16-.72,4.87.21.71.56,1.43,1.01,2.01.82,1.04,2.69.79,2.88-.51.26-1.77,1.25-2.39,2.7-2.56,2.2-.25,3.39-1.85,4.79-3.23,1.18-1.15,1.08-2.43.68-3.8-.51-.52-1.01-1.05-1.52-1.57Z"/>
          <path class="cls-12" d="m71.35,81.38c-1.79.59-3.38-1.22-5.31-.39-.52.23-.67-1.15-.98-1.8-.6-1.25-.9-1.31-2.04-.86-2.63,1.02-4.39,2.42-3.71,5.71.3,1.43-.18,3.01-.17,4.52,0,.79.55,1.39,1.33,1.68.68.26,1.06-.15,1.53-.59,1.58-1.46,3.67-1.67,5.65-1.87,1.38-.14,2.67-.53,3.99-.82.02-1.87.37-3.75-.29-5.58Z"/>
          <path class="cls-12" d="m317.93,110.26c3.49,2.34,6.99,1.2,10.43-.09,1.24-.46,1.57-2.11.95-3.59-.85-2.05-2.48-3.42-4.18-4.73-.87.21-1.67.54-2.44,1.05-1.35.91-2.81,1.65-4.22,2.47l.05-.06c-.16,1.65-1.51,3.16-.6,4.94Z"/>
          <path class="cls-7" d="m318.48,105.38c1.41-.81,2.87-1.56,4.22-2.47.77-.52,1.56-.84,2.44-1.05-.41-2.2,1.42-2.23,2.7-2.82,1-.46.99-1.25-.05-2.01-.34-.25-.82-.3-1.24-.43-4.66-.55-8.52,1.28-12.06,4.06-.47.37-.88.83-1.26,1.29-.61.73-.95,1.6-.5,2.5.46.92,1.33,1.08,2.31.99,1.14-.11,2.28-1.02,3.43-.05Z"/>
          <path class="cls-12" d="m37.26,110.12c.43-.14,1.05-.14,1.27-.44,1.12-1.48,2.45-2.53,4.28-3.08,1.14-.34,1.49-1.69.67-2.57-.85-.9-1.17-1.57-.54-2.72.23-.42-.03-1.18-.23-1.72-.25-.68-1.03-.98-1.42-.45-1.26,1.71-2.46,1.88-4.06.44-.62-.56-1.85.13-1.59.79,1.01,2.58-.08,5.06-.18,7.58.33.95,1.07,1.56,1.8,2.18Z"/>
          <path class="cls-12" d="m25.61,97.97c.95-.23,1.75.25,2.61.52,1.71.53,2.02.4,2.59-1.33.24-.74.38-1.52,1.05-1.91,2.13-1.22.85-3.53,1.71-5.19.34-.66-.45-1.41-1.19-1.69-.35-.13-1.18.02-1.19.11-.22,2.21-1.65,1.6-3.08,1.58-1.02-.02-1.85,1.03-2.41,1.9-.72,1.13-1.21,2.4-1.8,3.6.24,1.04.96,1.73,1.72,2.4Z"/>
          <path class="cls-12" d="m96.87,66.2c.55,1.63.61,3.3.29,4.96-.6,3.17-.2,6.33,0,9.49.04.68.33,1.15,1.08,1.17,1.07.02,1.98-.63,1.98-1.46,0-1.36-.17-2.73-.28-4.06-.31-3.69-.09-7.29.83-10.85.24-.94.11-1.8-.24-2.67-1.9.42-2.52,2.2-3.66,3.43Z"/>
          <path class="cls-12" d="m165.73,46.57c.06.62.08,1.29-.48,1.66-3.11,2.04-4.02,5.58-5.86,8.48-.08.12-.08.29-.11.44-.1.63.02,1.21.56,1.61.57.43,1.2.27,1.67-.11.46-.37.83-.88,1.15-1.38.65-1.02,1.24-2.09,1.87-3.12.86-1.41,1.7-2.76,3.2-3.73,1.34-.87,2.46-2.22,3.04-3.85-.66-.95-1.57-1.23-2.64-.91-.82.25-1.61.61-2.41.92Z"/>
          <path class="cls-12" d="m14.74,78.02c1.76-.73,1.82,2.38,3.29,1.61.98-.51,1.52-1.83,2.35-2.68.67-.68,1.61-.8,2.55-.75.45.02.91.09,1.36.04.68-.08,1.04-.58,1.22-1.19.21-.72-.17-1.22-.79-1.39-3.08-.87-6.17-1.77-9.38-.54-.42.16-.89.22-1.33.33-.71,1.68-.25,3.17.73,4.58Z"/>
          <path class="cls-12" d="m40.64,118.79c1.78.84,3.4,2.05,5.49,2.1,1.04.02,1.74-.52,1.75-1.6.01-1.37.06-2.75-.09-4.1-.21-1.84-1.59-2.57-3.24-1.61-1.37.79-2.84,1.07-4.3,1.5-.32,1.29-.58,2.57.4,3.72Z"/>
          <path class="cls-12" d="m216.66,52.06c-3.92.74-5.45,4.05-7.36,6.92-.32.49-.23,1.19.19,1.72.43.55,1.03.55,1.65.46,1.29-.2,2.2-.74,2.68-2.11.6-1.73,1.51-3.31,3.23-4.29,1.03-.59.52-1.61.37-2.49-.21-.22-.46-.29-.75-.21Z"/>
          <path class="cls-12" d="m111.66,194.46c2.92-1.76,4.25-4.5,4.72-7.74.1-.67-.43-1.17-1.03-1.34-.37-.1-1.08,0-1.22.23-1.32,2.4-3.96,3.85-4.72,6.63.45,1.03,1.36,1.61,2.24,2.21Z"/>
          <path class="cls-12" d="m90.3,74.38c.35,1.02.49,2.06.36,3.14-.18,1.56.42,3,.78,4.46.2.79.75,1.37,1.64,1.16.62-.15.98-.65.99-1.34,0-1.21.17-2.44.01-3.63-.27-1.94-.7-3.85-.6-5.84.04-.66-.66-.95-1.22-1.21-.99.89-1.54,2.04-1.98,3.27Z"/>
          <path class="cls-12" d="m72.22,46.2c-1.29,0-2.65-.84-3.79.63-1.63,2.12-1.28,5.77,1.67,6.79.7.24,1.07-.23,1.37-.84.63-1.25-.13-2.8.9-3.94.08-.89.25-1.78-.16-2.64Z"/>
          <path class="cls-12" d="m43.24,24.25c-.3.69-.52,1.43-.92,2.05-1.4,2.18-.24,3.11,1.63,3.48,2.07.41,2.98-.16,2.86-2.18-.07-1.23-.06-2.4.21-3.59-2.14-1.76-2.41-1.74-3.78.23Z"/>
          <path class="cls-12" d="m295.61,82.87c1.62.59,3.21.06,4.82-.13,2.32-.27,2.32-.24,2.14-2.91-.11-.28-.31-.43-.61-.44-1.34.37-2.68.44-4.07.28-.9-.1-1.88.06-2.38.99-.38.72-.06,1.48.12,2.22h0Z"/>
          <path class="cls-12" d="m107.25,58.76c.31,1.99-1.16,3.7-.89,5.71.1.78.03,1.54.99,1.67,1.16.16,2.13-.63,2.2-1.7.07-1.19.08-2.37.15-3.56.02-.45.18-.89.19-1.33.02-.89-.67-1.26-1.32-1.63-.44.28-.87.56-1.31.84Z"/>
          <path class="cls-12" d="m116.45,54.31c.03,1.21-1.28,1.65-1.56,2.69-.19.69.09,1.18.63,1.55.67.47,1.69.33,2.01-.29.77-1.52,1.31-3.08.51-4.78-.65.04-1.21.26-1.59.83Z"/>
          <path class="cls-10" d="m170.17,257.79c-.56-.22-1.1-.52-1.67-.66-2.63-.63-3.47,0-4.14,3.06,1.43-.34,2.86-.65,4.28-1.01.74-.19,1.34-.57,1.53-1.39Z"/>
          <path class="cls-12" d="m69.17,33.68c-.71.17-1.6.14-1.88.96-.17.52-.17,1.24.07,1.71.4.77,1.03,1.44,1.62,2.09.14.15.58.15.8.05.22-.11.47-.45.45-.66-.08-.89-.25-1.77-.39-2.66-.23-.5-.45-.99-.68-1.48Z"/>
          <path class="cls-7" d="m317.93,110.26c-.91-1.78.44-3.29.6-4.94-2.61,1.03-2.5,3.19-2.26,5.41.55-.16,1.11-.32,1.66-.47Z"/>
          <path class="cls-13" d="m69.78,138.64c-.43.12-.87.24-1.3.36.01.38.21.61.58.54.46-.09.86-.3.72-.9Z"/>
          <path class="cls-9" d="m87.74,79c.53-.35.64-.87.59-1.46-.41.4-.72.84-.59,1.46Z"/>
          <path class="cls-9" d="m87.98,79.92c-.08-.32-.16-.65-.24-.97-.55.18-.75.58-.74,1.13.33-.05.65-.1.98-.15Z"/>
          <path class="cls-13" d="m87.98,79.92c-.33.05-.65.1-.98.15-.01.23-.06.47-.02.7.02.1.2.16.32.24.47-.21.67-.6.69-1.1Z"/>
          <path class="cls-13" d="m152.38,46.41c.37.36.79.41,1.25.18-.38-.35-.79-.44-1.25-.18Z"/>
          <path class="cls-12" d="m152.99,147.3c-.1-3.79-.35-7.58-.52-11.36-.03-.68-.3-1.17-1.03-1.23-.96-.08-2.11.69-2.08,1.41.02.6.15,1.21.29,1.8.66,2.86.37,5.76.37,8.65,0,1.13-.38,2.1-.94,3.02-.59.96-.66,2.01-.66,3.09-3.23-.79-6.38-1.76-9.21-3.6.38-1.03,1.73-1.84.78-3.18-.74-1.04-1.81-1.19-3.63-.69-1.28.35-1.52,1.25-1.47,2.38-1.22-.11-2.48.76-3.67-.13.52-.3,1.37-.52,1.28-1.15-.26-1.9.12-3.58,1.1-5.2.17-.28.03-.99-.23-1.21-.27-.24-.86-.25-1.28-.18-1.29.22-1.6,1.25-1.78,2.35-.32,1.89.58,3.58.85,5.37-.65.04-1.3.08-1.95.12-2.28-5.92-1.43-11.59,1.41-17.08,1.46-2.82,3-5.6,4.55-8.37,2.4-4.26,3.84-4.93,8.88-4.22.34.74.68,1.47,1.01,2.21-1.33,1.05-2.5,2.12-1.91,4.13.24.82,0,1.78.02,2.68.02.8.27,1.53,1.19,1.61.94.09,1.88-.13,2.17-1.16.4-1.44.54-2.95.99-4.37.29-.89.5-1.71.3-2.62,0,0,.25-.35.25-.35,1.06-.08,2.12-.22,3.18-.23,3.08-.03,5.47-2.35,5.3-5.56-.04-.76-.25-1.51-.27-2.27-.06-3.14.8-6,2.57-8.61.74-1.09,1.74-1.65,2.99-1.91,1.32-.27,2.41.02,3.24,1.12-.98.28-1.49.95-1.68,1.94-.55,2.82-1.22,5.62-1.66,8.46-.28,1.81-.58,3.57-1.53,5.18-.16.28-.04.96.2,1.2.49.5,1.17.26,1.67-.09.91-.64,1.35-1.61,1.69-2.64.98-3.04,1.95-6.07,1.99-9.32.02-1.36.28-2.71.43-4.07.97.14,1.71.65,2.18,1.49,3.31,6.03,3.42,11.87-1.07,17.43-.29.36-.59.7-.88,1.05-1.66,1.99-3.32,3.97-4.98,5.96-2.79,3.34-4.69,7.08-5.33,11.44-.4,2.74-.38,5.45.05,8.18.35,2.17.25,4.26-1.47,5.93-.73.17-1.41.14-1.89-.56.06-2.28.23-4.56.17-6.84Zm-9.77-16.67c-1.63,2.25-2.17,4.9-2.62,7.56-.09.54.51.74.97.65.41-.09,1.05-.31,1.13-.6.7-2.43,1.31-4.89,1.89-7.35.04-.15-.37-.4-.57-.6-.27.11-.65.14-.8.35Zm-7.65,11.08c.04,1.06.72,1.6,1.69,1.75.46.07.91-.22.98-.69.15-1.04-.8-1.98-1.9-1.99-.56.08-.79.46-.77.93Z"/>
          <path class="cls-12" d="m201.2,80.89c3.02-2.11,3.5-4.08,1.06-6.09-1.78-1.46-2.62-3.16-3.24-5.27-1.06-3.61-4.93-4.75-8.02-2.55-2.91,2.07-3.91,5.57-2.12,8.87.8,1.47.78,2.47-.09,3.72-1.95,2.78-3.47,5.74-3.9,9.18-.18,1.41-.1,2.74.47,4.03.42.94,1.21,1.31,2.19,1.36.66-3.26,1.34-6.51,1.95-9.77.29-1.53.97-2.85,1.91-4.06.51-.65,1.18-.91,1.98-.51.85.43.97,1.11.53,1.87-1.23,2.12-1.5,4.56-2.28,6.83-.58,1.68-1.11,3.49-.36,5.31,1.69-.48,2.58-1.79,2.62-3.36.05-2.15.66-3.45,2.97-3.77,1.29-.18,2.09-1.15,2.37-2.47-.63-.15-1.16-.49-1.23-1.16-.14-1.24.17-2.42.71-3.52.2-.41.54-.85,1.04-.71.37.11.74.45.96.78.24.37.31.85.46,1.29Z"/>
          <path class="cls-12" d="m287.11,101.2c-1.61.41-2.84.77-4.44-.85-3.42-3.46-8.23-4.41-12.77-5.68-.77-.22-1.61-.05-1.84.85-.17.68.43,1.21,1,1.33,2.11.46,3.5,1.75,4.55,3.54.3.51.66,1.13,1.15,1.37,2.16,1.06,3.02,2.9,3.39,5.12.23,1.39.92,2.56,1.7,3.72.52.77.72,1.72.32,2.62-.17.38-.51.74-.86.97-.48.32-.86-.05-1.16-.4-1.96-2.3-3.75-4.78-5.91-6.87-2.56-2.46-4.86-5.51-8.99-5.57-.62,0-.91-.73-1.12-1.32-.95-2.68.3-6.95,2.58-8.65.48-.36,1.05-.62,1.61-.85,1.94-.79,3.88-.72,5.8.06,1.13.46,2.22,1.03,3.37,1.41,2.97.99,5.56,2.41,7.18,5.27.62,1.1,1.6,1.63,3.06,1.53,1.51-.1,1.53.12,1.36,2.43l.02-.03Zm-21.85-6.26c.17.07.33.14.5.21.03-.1.11-.25.07-.3-.05-.07-.2-.08-.31-.12-.09.07-.17.14-.26.21Z"/>
          <path class="cls-12" d="m37.25,52.33c1.38-.7,2.85-1.01,4.4-.9.2-.4.3-1.01.62-1.16,1.55-.75,2.09-1.87,2.2-3.62.25-3.84,1.82-7.26,4.06-10.37.53-.74,1.16-1.42,1.58-2.21.31-.56.1-1.28-.5-1.56-.67-.31-1.55-.74-2.14-.53-1.7.58-3.33,1.39-4.92,2.24-.69.37-1.06,1.24-.82,1.99.73,2.31.03,4.12-1.65,5.72-.28.27-.24.85-.37,1.28-.51,1.66-.53,1.73-2.36,1.24-2.69-.71-5.43-.24-8.14-.36-1.04-.05-1.91,1.12-1.91,2.19,0,1.06.85,1.99,1.99,2.13.3.04.62.05.91-.02,1.72-.41,2.99.1,3.7,1.78.63,1.48,2.43,1.14,3.35,2.16Z"/>
          <path class="cls-12" d="m35.17,70.82c.1-1.06.54-2.21.25-3.15-1.01-3.33-.54-6.65-.33-9.99-.9-.08-2.07-.57-2.65-.18-2.58,1.75-5.21.99-7.86.52-.75-.13-1.48-.36-2.23-.44-.59-.06-1.21-.02-1.79.08-.63.1-1.16.49-1.23,1.14-.04.4.12,1.09.39,1.21,1.58.72,2.09,2.08,2.48,3.59.19.75.54,1.47,1.44,1.55,1.95.18,2.89,1.48,3.55,3.1.4.98,1.09,1.47,2.11,1.27,1.22-.24,2,.44,2.84,1.1.96.76,2.01.48,3.04.2Z"/>
          <path class="cls-12" d="m117.63,76.95c-.21.38-.42.77-.64,1.15.39,1.3-.44,2.33-.75,3.49-.51,1.87-1.52,3.64-.77,5.74.22.61-.1,1.5-.38,2.18-.62,1.52-.22,2.67,1.08,3.55,1.09.73,1.09,1.71.77,2.81-.68,2.36-.75,4.77-.67,7.2.04,1.09.54,1.71,1.53,1.93,1.1.24,2.26-.43,2.46-1.49.19-1.04.65-2.36.22-3.11-1.59-2.75-.22-4.49,1.57-6.31.73-.74.47-1.57-.48-2.29-.23-.18-.56-.24-.82-.38-.26-.14-.5-.32-.75-.48.08-.28.07-.68.26-.83,1.94-1.63,2.34-3.42.81-5.58-.32-.45-.47-1.13-.44-1.69.13-2.2-.71-4.17-1.24-6.23-.59.12-1.18.24-1.76.36Z"/>
          <path class="cls-12" d="m45.82,62.44c-.67,2.49-.2,4.92.39,7.35,1.64.29,3.29.79,4.44-1.1.37-.62.99-.42,1.51.07.7.66,1.58,1.1,2.45.45,1.7-1.28,3.54-1.44,5.59-1.27.99.08,2.04-.45,3.06-.71.19-1.53-.15-2.98-.69-4.39-2.37.12-4.69-1.08-7.09-.26-.23.08-.66-.02-.83-.2-2.78-3-5.59-1.41-8.39-.07-.13.06-.29.08-.43.12Z"/>
          <path class="cls-12" d="m158.64,95.43c.13.42.53.7.98.69.42,0,1.03-.12,1.23-.4.96-1.35,1.97-2.7,2.64-4.2.74-1.65,1.5-3.44,1.59-5.2.23-4.49,1.93-8.57,3.08-12.81.4-1.47.77-2.95,1.05-4.44.11-.57.05-1.22-.1-1.79-.11-.4-.43-.91-.78-1.04-.63-.22-1.23.16-1.43.78-.73,2.32-1.5,4.63-2.04,6.99-.68,2.95-2.56,5.52-2.57,8.69,0,.61-.88,1.18-1.29,1.82-.91,1.41-1.84,2.8-1.37,4.66.32,1.27-.67,2.31-.86,3.5-.14.89-.54,1.76-.15,2.76Z"/>
          <path class="cls-12" d="m119.71,154.27c1.97-.35,2.17-2.18,2.94-3.53-1.3-3.73-1.58-7.78-3.6-11.29-.27-.47-.11-1.18-.13-1.78-.06-1.54-.45-3.01-1.02-4.43-.28-.69-1.33-1.08-1.91-.65-.85.62-1.73,1.27-2.41,2.06-1.07,1.25-1.3,2.54-.33,4.15,2.91,4.82,4.72,10.14,6.46,15.47Z"/>
          <path class="cls-12" d="m144.05,117.87c.34.74.68,1.47,1.01,2.21.56-.13,1.12-.27,1.69-.4.28-.15.56-.3.85-.45.07-.6-.06-1.33.24-1.76,1.05-1.47,2.13-2.69,2.09-4.84-.03-1.7,1.01-3.43.33-5.29-.14-.39-.09-.94.07-1.34.34-.83,1.12-1.6.52-2.53-.62-.96-1.84-1.01-2.81-1.41-.64-.27-1.21.08-1.4.76-.25.86-.34,1.78-.6,2.63-.53,1.72-.56,1.72.92,3.5-.58.26-1.13.49-1.67.77-.89.46-1.37,1.22-1.36,2.21.01,1.98.08,3.96.12,5.94Z"/>
          <path class="cls-12" d="m237.79,60.84c-1.65.77-3.26,1.69-4.98,2.25-1.66.54-2.76,1.19-2.35,3.17.16.79-.3,1.44-.69,2.12-1.21,2.11-2.38,4.25-3.54,6.38-.47.86-.71,1.72.29,2.41.92.64,1.8.42,2.57-.96.99-1.76,2.33-3.2,3.63-4.7.4-.46.8-.98,1.31-1.26,3.83-2.13,3.89-5.72,3.74-9.41h.02Z"/>
          <path class="cls-12" d="m194.87,122.29c3.5.68,5.91-.82,7.54-3.83-.66-2.02-.12-3.85.72-5.71.74-1.65,1.33-3.37,1.88-5.1.18-.57-.05-1.26-.7-1.5-.38-.14-.95-.16-1.28.03-.64.38-1.45.83-1.7,1.44-.9,2.25-2.56,4.15-3.01,6.59-.39,2.14-1.11,4.08-2.86,5.53-.76.63-.76,1.61-.59,2.54Z"/>
          <path class="cls-12" d="m182.73,126.48c.06.14.08.32.18.42.31.29.62.68,1,.8.68.21,1.37-.23,1.39-.82.05-1.79,1.26-3.12,1.67-4.69.77-2.92,1.14-5.94,1.58-8.94.09-.65-.61-1.21-1.2-1.12-1.35.21-2.67.59-3.97,1.03-.34.11-.73.65-.75,1.02-.24,4.1-.24,8.2.11,12.29Z"/>
          <path class="cls-12" d="m47.95,108.09c1.38,1.36,1.62,3.41,2.49,5.16.24.48,1.3.47,1.57,0,.15-.26.42-.54.41-.79-.2-3.24,1.78-5.61,3.2-8.2.66-1.21.2-2.41-1.1-2.91-2.31-.88-3.78-.59-5.37,1.06-1.53,1.59-1.62,3.49-1.19,5.67Z"/>
          <path class="cls-12" d="m295.62,82.88c-.67-.34-1.35-.66-2-1.04-2.76-1.64-7-.95-9.02,1.51-.52.63-.66,1.35-.29,2.12.46.95.91,1.91,1.37,2.87.78,1.64,2.42,1.74,3.54.23.09-.12.13-.27.18-.42.64-1.86,1.98-2.44,3.9-2.45,2.06,0,2.06-.16,2.32-2.82h0Z"/>
          <path class="cls-12" d="m287.11,101.2c-.54.73-1.12,1.43-1.62,2.18-1.18,1.81-1.08,4.93.52,6.34,1.49,1.31,3.05,2.47,3.93,4.31.08.17.55.25.82.23.46-.04.96-.22,1.03-.74.34-2.56.97-5.21-1.58-7.14-1.11-.84-.95-1.78-.19-2.76.19-.24.42-.46.55-.73.36-.76,0-1.5-.8-1.81-.93-.37-1.8-.05-2.69.15l.02-.03Z"/>
          <path class="cls-12" d="m236.72,97.13c2.99.5,5.38-1.07,7.88-2.29-1.29-2.44-1.77-5.04-1.51-7.77.08-.77.11-1.5-.38-2.16-.38-.51-.9-.84-1.53-.82-.66.01-1.3.49-1.29,1.07.06,4.04-1.6,7.55-3.25,11.08-.11.24.04.59.07.89Z"/>
          <path class="cls-12" d="m102.15,105.24c-.84.35-1.68.69-2.52,1.04.48,1.75.85,3.48.68,5.36-.16,1.73-.76,3.61.72,5.21.41.45,0,1.12-.33,1.66-.43.71-.48,1.47.25,2,.73.52,1.43.13,2.08-.32.75-.51,1.54-.97,2.24-1.55.63-.52,1.01-1.39.5-2.02-2.38-2.97-2.96-6.46-3.23-10.08-.03-.44-.26-.87-.39-1.3Z"/>
          <path class="cls-12" d="m261.18,65.29c-2.88.78-5.02,2.92-6.8,5.41-.81,1.15-.57,2.68-.37,3.99.2,1.25,1.51,1.33,2.55,1.53,1.45.29,2.04-.15,1.76-1.67-.28-1.5-.06-2.46,1.19-3.54,1.35-1.16,2.24-2.84,3.34-4.29.28-.37.55-.75.22-1.21-.3-.42-.74-.45-1.2-.35-.15.03-.3.06-.68.13Z"/>
          <path class="cls-12" d="m165.1,102.54c-.98.28-1.49.95-1.68,1.94-.55,2.82-1.22,5.62-1.66,8.46-.28,1.81-.58,3.57-1.53,5.18-.16.28-.04.96.2,1.2.49.5,1.17.26,1.67-.09.91-.64,1.35-1.61,1.69-2.64.98-3.04,1.95-6.07,1.99-9.32.02-1.36.28-2.71.43-4.07-.24-.43-.61-.66-1.11-.67Z"/>
          <path class="cls-12" d="m191.29,93.81c-.75-1.83-.22-3.63.36-5.31.78-2.27,1.05-4.71,2.28-6.83.44-.76.32-1.44-.53-1.87-.8-.4-1.47-.15-1.98.51-.94,1.2-1.62,2.52-1.91,4.06-.61,3.26-1.3,6.51-1.95,9.77q1.9,1.1,3.73-.32Z"/>
          <path class="cls-12" d="m57.22,51.93c.71.27,1.4.61,2.12.81,3.26.92,4.57.36,6.25-2.71.32-.58.18-1.37-.44-1.55-2.01-.61-4.05-1.11-6.1-1.55-.84-.18-1.59,1.01-2.55.3-.18.41-.36.83-.54,1.24.42,1.15.83,2.3,1.25,3.46Z"/>
          <path class="cls-8" d="m287.78,131.76c.53,1.94,2.1,3.01,3.69,2.51,2.16-.68,3.4-2.64,2.85-4.52-.46-1.56-2.13-2.74-3.43-2.4-2.07.53-3.59,2.68-3.12,4.41Z"/>
          <path class="cls-12" d="m144.49,72.28c-.13.13-.61.39-.7.75-.43,1.76-.76,3.54-1.11,5.31-.59,2.95-.21,6.01-1.07,8.94-.12.42.21.95.69.98.4.03,1.09-.14,1.19-.39.37-.97.62-2,.78-3.03.59-3.87,1.13-7.75,1.65-11.64.08-.61-.73-1.25-1.43-.92Z"/>
          <path class="cls-12" d="m57.22,51.93c-.42-1.15-.83-2.3-1.25-3.46-3.2.68-6.46.99-9.64,1.81-.54.14-.71.62-.59,1.04.11.38.43.75.75,1.01.2.16.59.16.87.1,1.79-.44,3.45-.69,5.2.46,1.32.87,2.93.49,4.39-.11.12-.27.21-.56.27-.85Z"/>
          <path class="cls-12" d="m105.86,100.95c-3.36-.45-3.92-1.16-3.47-4.51.11-.79.05-1.5-.45-2.13-.29-.36-.67-.6-1.18-.47-.44.12-.99.28-.95.79.19,2.09.02,4.11-.46,6.18-.41,1.76.51,2.57,2.74,3.2.28.08.52.28.77.43,1.3-.91,2.64-1.78,2.99-3.5Z"/>
          <path class="cls-12" d="m244.42,71.55c.17,1.24,1.82,2.62,3.06,2.6.39,0,1-.33,1.11-.65.71-2.15,1.34-4.34,1.94-6.53.06-.23-.12-.7-.32-.8-.36-.18-.91-.36-1.22-.21-1.98.95-3.58,2.32-4.34,4.46-.15.42-.17.88-.22,1.13Z"/>
          <path class="cls-12" d="m117.63,76.95c.59-.12,1.18-.24,1.76-.36.64-.66,1.23-1.36,1.32-2.33-1.66-.64-1.6-2.21-1.6-3.49,0-1.97.35-3.95.6-5.91.08-.63.05-1.21-.29-1.74-.08-.12-.25-.27-.36-.26-.27.04-.72.11-.77.26-1.28,4.56-2.59,9.13-.67,13.85Z"/>
          <path class="cls-12" d="m113.96,131.03c2.33-.56,3.69-2.97,2.87-5.2-.12-.34-.64-.72-1.01-.75-1.06-.08-2.11.13-2.89.96-.5.54-.85,1.25-1.41,1.71-.78.64-1.29,1.29-.74,2.27.49.87,1.32,1.18,2.28,1.13.3-.01.59-.09.89-.14Z"/>
          <path class="cls-12" d="m36.09,33.12c-.26.12-.72.18-.76.36-.72,2.85-1.92,5.63-1.36,8.67.1.51,1.15.83,1.51.5,2.1-1.87,2.82-6.6,1.36-9.17-.11-.2-.5-.25-.75-.36Z"/>
          <path class="cls-12" d="m66.3,73.21c.42-1.19,1.52-1.3,2.51-1.57,1.22-.34,1.51-1.29,1.68-2.36.1-.65-.11-1.15-.61-1.55-2.15-1.7-2.91-1.64-5.82.49.02.22.07.43.17.63,1.61,1.05,1.61,1.06.82,2.74.15.75.46,1.36,1.25,1.62Z"/>
          <path class="cls-12" d="m59.73,40.5c1.37,1.92,3.39,1.56,5.27,1.37.78-.08,1.1-.97,1.08-1.74-.02-.97-.56-1.71-1.47-2.04-1.2-.44-2.34.07-3.48.39-1.04.28-1.62.88-1.41,2.02Z"/>
          <path class="cls-12" d="m207.07,83c.25-.26.73-.52.84-.9.63-2.05.85-4.15.38-6.27-.07-.34-.54-.7-.9-.85-.49-.2-.9.21-1.08.61-.99,2.12-1.04,4.39-.79,6.66.08.72.8.79,1.55.74Z"/>
          <path class="cls-12" d="m121.07,132.56c.1.72.97,1.08,1.49.85.76-.33,1.24-.9,1.37-1.69.24-1.5.39-3.01.6-4.51.1-.71-.18-1.21-.85-1.34-.64-.12-1.23.19-1.57.72-1.2,1.91-.95,4.07-1.04,5.97Z"/>
          <path class="cls-12" d="m53.92,87.57c1.59-.18,3.12-2.12,2.65-3.33-.38-.96-1.06-1.81-1.72-2.63-.31-.38-.94-.24-1.18.15-1.01,1.6-1.57,3.31-.63,5.15.2.38.55.76.89.65Z"/>
          <path class="cls-12" d="m243.63,74.93c-.46.13-.88.37-.89.87-.02.75.1,1.51.1,2.27,0,.99-.66,2.37.84,2.63,1.27.22,1.53-1.24,2.12-2.07,1.45-2.06-.07-3.32-2.16-3.7Z"/>
          <path class="cls-12" d="m100.49,143.07c-.28.17-.86.41-1.27.82-.29.28-.45.8-.48,1.22-.03.5.42.82.87.86,1.05.1,2.12.19,3.18.15.85-.03,1.74-1.22,1.58-1.93-.16-.71-.74-.9-1.34-1.04-.44-.1-.9-.19-1.35-.22-.3-.02-.6.07-1.2.15Z"/>
          <path class="cls-12" d="m114.69,118.67c-.24.17-.6.3-.69.53-.44,1.14-.53,2.37-.27,3.54.13.57.79.98,1.43.9.37-.05.86-.41.99-.75.44-1.15.63-2.34.04-3.53-.32-.64-.85-.78-1.5-.7Z"/>
          <path class="cls-12" d="m201.2,80.89c-.14-.43-.21-.92-.46-1.29-.22-.34-.59-.68-.96-.78-.5-.14-.84.3-1.04.71-.54,1.11-.85,2.29-.71,3.52.08.68.6,1.01,1.23,1.16.73-.18,1.33-.49,1.5-1.31-.15-.76-.24-1.5.45-2.08v.05Z"/>
          <path class="cls-12" d="m208.22,70.12c1.14-.81,1.83-2.11,2.12-3.63.04-.21-.22-.56-.43-.7-.22-.15-.61-.23-.84-.14-1.64.66-2.55,2.36-2.1,3.96.12.43.51.75,1.25.51Z"/>
          <path class="cls-12" d="m27.94,75.01c-.13.2-.4.43-.36.61.09.5.49.65.9.39.15-.09.21-.53.12-.72-.08-.16-.42-.19-.65-.28Z"/>
          <path class="cls-12" d="m65.05,71.59c.79-1.68.78-1.69-.82-2.74.27.91.55,1.83.82,2.74Z"/>
          <path class="cls-12" d="m201.21,80.84c-.68.58-.6,1.32-.45,2.08.62-.59.88-1.26.45-2.08Z"/>
          <path class="cls-12" d="m147.59,119.23c-.28.15-.56.3-.85.45.36.22.72.45,1.09.67,0,0,.25-.35.25-.35-.18-.25-.34-.51-.49-.77Z"/>
          <path class="cls-12" d="m152.82,154.13c.06-2.28.23-4.56.17-6.84-.1-3.79-.35-7.58-.52-11.36-.03-.68-.3-1.17-1.03-1.23-.96-.08-2.11.69-2.08,1.41.02.6.15,1.21.29,1.8.66,2.86.37,5.76.37,8.65,0,1.13-.38,2.1-.94,3.02-.59.96-.66,2.01-.66,3.09,1.28,1.07,2.64,1.87,4.41,1.47Z"/>
          <path class="cls-12" d="m139.21,149.07c.38-1.03,1.73-1.84.78-3.18-.74-1.04-1.81-1.19-3.63-.69-1.28.35-1.52,1.25-1.47,2.38,1.27.99,2.83,1.17,4.33,1.5Z"/>
          <path class="cls-12" d="m92.72,93.59c.48.27.72.51.96.5.26,0,.69-.2.73-.38.41-1.72.81-3.45,1.09-5.19.08-.52-.52-.66-.99-.63-.86.06-1.39.63-1.63,1.36-.49,1.48.51,2.97-.17,4.34Z"/>
          <path class="cls-12" d="m108.46,67.43c-.14.04-.31.05-.41.13-1.16.92-1.21,2.48-.09,3.51.17.16.6.23.81.13.76-.34,1.05-1.03,1.02-1.82-.03-.75-.13-1.51-.9-1.93-.11-.06-.28-.02-.42-.03Z"/>
          <path class="cls-12" d="m104.51,94.59c.36.43.79.47,1.18.22.73-.47.96-1.43.46-1.89-.17-.16-.61-.23-.8-.12-.68.4-1.13.96-.84,1.79Z"/>
          <path class="cls-12" d="m66.94,57.87c-.88.23-1.76.43-2.62.69-.39.12-1,.27-.69.86.17.32.69.68,1.03.67,1.77-.09,3.16.7,4.61,1.57,1.69,1.02,2.52.56,2.71-1.33.06-.59.06-1.2-.02-1.79-.14-.95-1-1.61-1.95-1.43-1.03.2-2.04.51-3.06.78,0,0,0-.02,0-.02Z"/>
          <path class="cls-13" d="m68.42,128.61c-.09.16-.17.31-.26.47.07-.04.18-.06.21-.12.05-.1.05-.22.07-.33l-.03-.02Z"/>
          <path class="cls-12" d="m147.83,120.35c-.36-.22-.72-.45-1.09-.67-.56.13-1.12.27-1.69.4-1.33,1.05-2.5,2.12-1.91,4.13.24.82,0,1.78.02,2.68.02.8.27,1.53,1.19,1.61.94.09,1.88-.13,2.17-1.16.4-1.44.54-2.95.99-4.37.29-.89.5-1.71.3-2.62Z"/>
          <path class="cls-12" d="m144.02,130.28c-.27.11-.65.14-.8.35-1.63,2.25-2.17,4.9-2.62,7.56-.09.54.51.74.97.65.41-.09,1.05-.31,1.13-.6.7-2.43,1.31-4.89,1.89-7.35.04-.15-.37-.4-.57-.6Z"/>
          <path class="cls-12" d="m131.21,147.44c.52-.3,1.37-.52,1.28-1.15-.26-1.9.12-3.58,1.1-5.2.17-.28.03-.99-.23-1.21-.27-.24-.86-.25-1.28-.18-1.29.22-1.6,1.25-1.78,2.35-.32,1.89.58,3.58.85,5.38l.06.02Z"/>
          <path class="cls-12" d="m136.35,140.78c-.56.08-.79.46-.77.93.04,1.06.72,1.6,1.69,1.75.46.07.91-.22.98-.69.15-1.04-.8-1.98-1.9-1.99Z"/>
          <path class="cls-13" d="m265.52,94.73c-.09.07-.17.14-.26.21.17.07.33.14.5.21.03-.1.11-.25.07-.3-.05-.07-.2-.08-.31-.12Z"/>
        </g>
        <g>
          <path class="cls-12" d="m41.48,84.44c.94.39.7,1.21.71,1.93.04,5.23.81,10.35,2.05,15.42,1.36,5.54,3.86,10.61,6.27,15.73.84,1.79,1.59,3.65,2.19,5.53,2.47,7.83-3.06,17.08-11.78,18.6-2.73.48-5.18,0-7.18-2.01-1.4-1.41-2.84-2.77-3.93-4.46-1.73-2.69-2.36-5.62-1.95-8.76.43-3.28,2.11-4.91,5.39-5.15,1.82-.14,3.66-.32,5.5.12.71,1.39-.8,2.15-.97,3.29-.09.63.07,1.22.67,1.56.63.36,1.21.14,1.61-.36,1.66-2.1,2.64-4.3,2.12-7.18-.78-4.37-2.59-8.15-5.55-11.37-3.31-3.6-6.74-7.08-10.14-10.61-2.77-2.87-5.17-6-7.13-9.5-7.83-13.97-9.2-39.81,10.47-56.35,7.01-5.9,19.71-8.82,29.61-2.82.52.32,1.05.63,1.59.93,5.71,3.11,8.52,7.85,9.11,14.39.91,10.08.91,20.14.43,30.22-.32,6.87-.56,13.73-.25,20.62.14,3.1.62,6.07,1.65,8.98.46,1.29.94,2.57,1,3.98.02.35.42.85.75.98.62.24,1.22-.08,1.53-.67,1.48-2.84,2.99-5.68,4.39-8.56,3.13-6.46,5.43-13.31,8.97-19.59,1.13-2,2.21-4.02,3.44-5.96,2.15-3.39,4.81-6.24,8.35-8.32,4.87-2.85,9.4-6.25,14.64-8.51,4.25-1.83,8.54-3.32,13.2-3.58.61-.03,1.22-.1,1.81-.26.62-.17,1.06-.59,1.15-1.27.09-.63-.69-1.17-1.63-1.17-6.59.05-12.63,2.13-18.41,5.05-2.31,1.16-4.52,2.55-6.74,3.89-2.23,1.34-4.41,2.75-6.63,4.1-2.23,1.36-4.39,2.77-5.78,5.1-.3.51-.77.97-1.25,1.31-1.32.9-2.34,1.89-2.27,3.69.02.54-.43,1.12-.74,1.65-4.26,7.28-7.2,15.19-10.7,22.83-.51,1.11-1.06,2.2-1.64,3.26-.1.19-.52.32-.76.27-.24-.04-.56-.29-.62-.52-.29-1.02-.65-2.06-.73-3.1-.2-2.59-.4-5.19-.34-7.78.18-8.55.48-17.1.74-25.66.22-7.5-.19-14.96-.96-22.43-.64-6.21-3.47-10.96-8.69-14.35-5.23-3.4-10.74-5.86-17.15-5.59-7.06.29-13.51,2.23-18.98,6.95-11.53,9.94-16.91,22.59-16.59,37.69.27,12.6,4.54,23.59,13.62,32.56,3.04,3.01,5.96,6.14,8.91,9.25,2.01,2.12,3.71,4.47,4.69,7.27.79,2.27.47,2.92-1.79,2.7-1.21-.12-2.44,0-3.66.1-4.56.39-7.36,2.94-7.98,7.41-.61,4.45.43,8.53,3.25,12.05,1.14,1.43,2.45,2.73,3.78,3.99,2.51,2.38,5.55,3.11,8.91,2.53,7.42-1.28,13.03-6.68,14.63-14.04.22-1.02.36-2.06.52-3.03,1-.61,1.49.21,2.08.56,1.84,1.09,3.61,2.31,5.49,3.32,1.21.65,1.4,1.37.89,2.55-.12.28.34,1.16.44,1.14,1.79-.26,2.67,1.13,3.85,1.98.18.13.6.04.84-.08.46-.23.6-.74.46-1.17-.49-1.51-1.71-2.72-1.68-4.5,0-.45-1.05-.99-1.69-1.37-1.96-1.18-3.97-2.29-5.93-3.47-2.28-1.36-4.01-3.25-5.35-5.55-5.45-9.34-9.57-19.14-10.41-30.07-.29-3.82-.07-7.61.61-11.41.79-4.36,1.38-8.75,1.99-13.14.29-2.12.44-4.23-.62-6.28-.39-.76-.25-1.77-.43-2.66-.39-1.95-.72-3.91-1.26-5.82-.73-2.61-2.41-4.61-4.66-6.04-2.86-1.82-6.03-2.96-9.33-3.71-.57-.13-1.21-.05-1.8.07-.45.09-.8.44-.8.97,0,.47.12.94.61,1.12.86.31,1.75.53,2.61.82,2.47.82,4.94,1.64,7.16,3.02.81.5.87,1.32.03,1.78-2.9,1.59-5.04,3.92-6.82,6.65-2.11,3.23-2.78,6.76-2.22,10.53,1.01,6.7,3.75,12.54,8.73,17.26.79.75,1.62.71,2.54.57.14-1.86-.84-3.25-2.1-4.39-4-3.6-5.36-8.45-6.31-13.43-1.07-5.58,2.13-11.95,7.16-14.71,1.44-.79,2.78-.3,3.15,1.37.73,3.27,1.35,6.56,1.91,9.86.15.87-.07,1.82-.16,2.72-.61,6.08-2.01,12.03-3.09,18.03-.04.2-.4.34-.61.51Z"/>
          <path class="cls-12" d="m160.91,167.33c-.85,1.94-1.85,3.84-2.52,5.84-1.02,3.04-1.69,6.14-1.7,9.42-.02,6.42-.35,12.83-.48,19.25-.1,4.6-.47,9.17-1.45,13.66-1.42,6.55,0,12.77,1.92,18.93.44,1.43,1.4,2.7,2.2,4,1.91,3.1,4.25,5.95,5.63,9.39.53,1.33,1.91,1.94,2.92,2.86,1.7,1.54,3.52,2.95,4.28,5.2-1.49,2.46-3.76,3.36-6.4,3.83-3.02.54-6,.89-9.08.93-2.5.03-3.7-1.22-4.64-3-1.28-2.42-2.46-4.92-3.44-7.48-.83-2.17-1.97-4.09-3.25-6.02-3.22-4.83-6.3-9.76-9.34-14.7-.87-1.42-1.4-3.05-2.07-4.59-1.29-2.94-2.5-5.92-3.86-8.82-3.4-7.28-8.11-13.61-13.85-19.25-5.67-5.57-11.14-11.34-16.69-17.04-2.99-3.07-5.75-6.35-8.12-9.93-3.63-5.47-7.72-10.66-10.2-16.82-.74-1.84-1.42-3.71-2.11-5.57-.32-.87-.63-1.75-1.4-2.31-.35-.26-.83-.45-1.24-.05-.2.19-.45.48-.43.7.1.9.22,1.82.47,2.68,1.49,5.02,3.79,9.67,6.6,14.08,5.85,9.18,12.41,17.78,20.38,25.27,4.34,4.08,8.27,8.6,12.52,12.77,5.78,5.67,9.66,12.59,13.15,19.74,1.13,2.31,1.47,4.94,2.68,7.28,3.3,6.41,7.36,12.33,11.34,18.31,1.11,1.66,2.06,3.36,2.8,5.23,1.06,2.69,2.31,5.32,3.65,7.88.62,1.19,1.62,2.2,2.51,3.25.61.72,1.44,1.12,2.41,1.17,5.55.28,10.98-.35,16.23-2.21.86-.3,1.69-.75,2.44-1.26,2.41-1.64,2.85-3.28,1.18-5.73-1.88-2.76-3.94-5.42-6.13-7.95-2.92-3.38-5.11-7.23-7.56-10.92-1.65-2.49-1.88-5.47-2.59-8.27-.16-.65.07-1.27.64-1.57,1.73-.92,1.97-2.64,2.33-4.26.8-3.58,1.39-7.21,2.29-10.76,1.73-6.82,3.67-13.58,5.42-20.39.91-3.55,1.57-7.16,2.37-10.74.31-1.4-.15-2.38-1.63-3.04-1.75,3.63-1.84,7.67-2.93,11.44-1.1,3.82-2.03,7.69-3.05,11.52-.99,3.69-2.02,7.37-3.01,11.06-1.02,3.79-1.31,7.76-2.89,12.08-.42-2.31-.09-3.95.22-5.57,1.16-6.18,1.7-12.4,1.6-18.69-.04-2.44.19-4.89.14-7.33-.14-6.62.59-13.09,2.95-19.32.32-.85.56-1.76.67-2.66.11-.87-.52-1.37-1.25-1.72l-.3.13-.32.07Z"/>
          <path class="cls-12" d="m241.34,153.65c-.36,1.31-1.22,2.16-2.71,1.81-1.61-.39-2.9.41-3.29,1.64-.69,2.14-.5,4.61-3.17,5.64-.28.11-.31.82-.51,1.23-1.31,2.76-2.39,5.66-4,8.23-1.97,3.12-3.31,6.43-4.52,9.87-.92,2.6-1.76,5.21-2.3,7.91-.8,4.04-1.6,8.09-2.35,12.14-1.4,7.57-1.53,15.16-.55,22.8.48,3.7,1.78,6.65,5.07,8.73,3.2,2.02,5.17,5.15,6.48,8.66.84,2.24.08,4.35-2.04,5.42-1.21.61-2.56,1.04-3.9,1.24-3.02.44-6.06.71-9.1.97-.55.05-1.29-.16-1.67-.53-2.7-2.62-5.49-5.16-6.53-9.04-.47-1.75-1.35-3.4-2.16-5.05-.51-1.05-.42-3.03-1.68-2.94-1.64.12-1.17,2.07-1.37,3.3-.18,1.05-.18,2.13-.31,3.19-.24,1.84.33,3.31,1.86,4.38,1.42.99,2.42,2.31,3.13,3.87,1.03,2.27.7,4.03-1.14,5.79-.62.6-1.32.72-2.02.12-.66-.56-.74-1.07-.21-1.91,1.3-2.08,1.22-2.81-.16-4.41-.49-.57-1.11-1.04-1.69-1.52-2.06-1.69-2.76-3.84-2.58-6.5.24-3.68.88-7.27,1.88-10.81,2.03-7.2,4.12-14.39,6.13-21.59,1.86-6.67,4.79-12.87,8.25-18.84.69-1.19,1.74-2.3,2-3.58.47-2.29,2.13-3.56,3.46-5.19,5.34-6.54,10.3-13.31,10.52-22.29.02-.84.46-1.46,1.38-1.5.63-.03,1.23-.05,1.45-.77.34-1.14.93-1.84,2.29-1.7.65.07,1.01-.57,1.27-1.14.25-.56.43-1.16.74-1.67.89-1.45,2.74-2.38,2.3-4.55-.08-.4,1.26-.62,1.55-.22.27.36.5.75.66.99.79,2.78.25,5.32-.45,7.83Zm-25.16,35.67c-2.94,5.37-5.58,10.87-7.28,16.79-.88,3.08-1.86,6.14-2.74,9.23-.96,3.37-1.87,6.77-2.8,10.15,1.29,3.43,2.56,6.86,3.87,10.27.71,1.85,1.44,3.7,2.25,5.51.5,1.1,1.06,2.21,1.79,3.16,2.05,2.66,2.09,2.57,5.64,2.39,2.91-.15,5.81-.25,8.57-1.3,1.46-.56,1.76-1.38,1.14-2.88-1.19-2.9-2.96-5.41-5.62-7.06-3.74-2.32-5.14-5.77-5.73-9.91-1.24-8.56-.89-17.06.74-25.52.78-4.05,1.63-8.08,2.48-12.12.19-.91.47-1.78-.16-2.63h.26s-.19-.07-.19-.07c-.74,1.32-1.5,2.65-2.23,3.99Z"/>
          <path class="cls-12" d="m305.31,81.38c3.62.69,4.77,1.59,6.18,4.85.18.42.32.86.48,1.29.21.58.39,1.16.61,1.73.7,1.78.8,2.02,2.64,1.74,5.37-.81,9.29,2.46,13.57,4.66.93.48,1.35,2.19.6,2.83-2.29,1.92-1.3,3.61-.05,5.48.58.88.96,1.91,1.34,2.91,1.38,3.67.29,5.71-3.55,6.09-3.11.3-6.32,1.15-9.36-.55-.38-.22-.84.18-.94.65-.23,1.04-.38,2.1-.62,3.14-.57,2.38-.95,4.83-1.81,7.09-1.8,4.74-4.6,8.6-10.04,9.68-2.27.45-4.32,1.55-6.31,2.68-3.05,1.74-5.19,4.22-5.84,7.8-.16.9-.5,1.76-.66,2.66-.48,2.71-2.4,3.77-4.82,4.15-1.04.16-2.15.14-3.2,0-3.36-.44-6.5-1.69-9.62-2.93-1.02-.41-1.21-1.67-.24-2.11,1.37-.62,1.95-1.25,1.13-2.7-.21-.36-.15-.88-.19-1.33-.03-.35.18-.58.56-.57.28,0,.74.04.81.2.85,2.05,2.19,3.65,4.13,4.74,1.54.87,2.03.84,3.47-.61,1-1.01,2.05-2.07,3.53-1.69,1.47.38,2.16.27,2.57-1.39,1.06-4.28,3.96-7.13,7.77-9.14,2.03-1.07,4.08-2.18,6.36-2.55,2.46-.4,4.08-1.85,5.59-3.66,1.41-1.69,2.37-3.56,2.85-5.67.75-3.27,1.43-6.57,2.2-9.83.46-1.92.67-4.05,1.7-5.62.83-1.28,2.75-1.81,4.14-2.76,1.51-1.04,2.96-2.15,4.42-3.26.6-.45,1.25-.91,1.17-1.85-.9-1.08-2.3-1.39-3.45-2.12-2.28-1.45-4.73-2-7.44-1.5-1.49.27-3.04.3-4.56.38-.75.04-1.53.02-2.27-.1-.6-.1-1.22-.45-1.18-1.17.02-.38.4-.74.64-1.09.08-.11.25-.16.38-.23,2.33-1.22,2.37-1.24,1.53-3.18-.48-1.11-.89-2.42-1.75-3.17-1.32-1.15-1.57-2.75-2.4-4.09l-.07.12Zm21.27,29.03c1.63-.12,2.11-.98,1.53-2.48-2.13-5.55-2.22-5.51-7.38-2.46-2.15,1.27-3.69,2.58-3.01,5.43,3.12-.17,5.99-.28,8.85-.49Z"/>
          <path class="cls-12" d="m172.03,167.86c.15,3.75,1.82,7.02,3.32,10.33.82,1.8,1.88,3.48,2.76,5.25.58,1.17,1.56,2.29.55,3.79-.25.38.11,1.17.19,1.77.38,2.87.79,5.73,1.14,8.6.76,6.34,1.54,12.69,2.2,19.04.58,5.59,1.4,11.19.11,16.81-.25,1.08-.15,2.17.56,3.05,2.53,3.14,2.92,6.94,3.39,10.72.13,1.06.16,2.13.33,3.17.1.64.58,1.04,1.22,1.2.42-.18.84-.36,1.25-.54-.3-3.49-.24-7.03-1.38-10.41-.34-1.01-.49-2.21-1.15-2.95-1.72-1.94-1.78-3.96-1.31-6.38.86-4.38.35-8.86-.11-13.24-.41-3.97-.36-7.92-.53-11.88-.16-3.62.41-7.33-1.29-10.78-.39-.79.28-.99.91-1.02,1.26-.04,1.62-.78,1.22-1.81-.77-2-1.55-3.95-1.53-6.17,0-1.24-.68-2.37-1.78-3.06-1.38-.86-2.03-2.27-2.75-3.59-2.64-4.86-4.65-9.95-5.53-15.46-.36-2.26-.99-4.47-1.54-6.7-.17-.68-.8-1.03-1.38-.95-.57.09-1.15.59-1.09,1.28.06.74.31,1.46.47,2.2.57,2.57,1.15,5.14,1.72,7.71Z"/>
          <path class="cls-12" d="m147.19,45.84c-.88.23-2.01.19-2.61.74-1.97,1.79-4.36,1.93-6.77,2.23-.72.09-1.44.46-2.09.82-.41.22-.54.74-.35,1.19.1.25.38.62.55.61,2.73-.18,5.45-.4,8.17-.64.27-.02.63-.22.77-.44,1.34-2.14,3.65-2.01,5.69-2.36,4.97-.86,10-.98,15.04-.87,6.1.14,12.15.94,18.18,1.84,2.89.43,5.58,1.47,8.3,2.49.67.25,1.13-.23,1.38-.84.22-.53-.14-.9-.49-1.15-2.41-1.74-5.24-2.48-8.08-3-7.35-1.34-14.75-2.25-22.25-2.16-5.2.06-10.35.47-15.43,1.55Z"/>
          <path class="cls-12" d="m211.08,50.85c2.41.98,4.79,2.02,7.23,2.91,4.32,1.57,8.47,3.5,12.49,5.72,3.34,1.85,6.84,3.4,10.57,4.34.44.11,1.05.12,1.26.41,1.52,2.08,3.12,1.59,4.59.1,1.2-1.22,2.08-.81,3.07.15.2.2.54.31.83.34.28.03.72,0,.84-.16.23-.35.53-.95.38-1.22-1.04-1.89-2.58-3.38-4.22-4.75-.47-.39-1.2-.22-1.53.45-1.34,2.69-3.67,2.59-5.89,1.78-3-1.1-5.99-2.36-8.76-3.96-6.27-3.61-13.07-5.93-19.77-8.53-.97-.37-2.05-.94-2.7.52.53.64,1.06,1.27,1.59,1.9Z"/>
          <path class="cls-12" d="m254.57,132.14c.9-.1,1.4.51,1.98,1,2.79,2.37,5.58,4.75,8.42,7.06.74.61,1.29,1.23,1.55,2.16.26.93.95,1.53,1.82,1.94.56.27,1.21.59,1.72.22.64-.46.08-.99-.14-1.52-1.21-2.88-3.26-4.95-5.76-6.8-2.32-1.71-4.31-3.87-6.47-5.81-.79-.71-1.61-1.39-2.48-1.99-1.21-.84-2.05-.65-2.53.61-.8,2.14-1.66,4.29-2.22,6.5-.77,3.05-2.16,5.68-4.43,7.86-.42.41-.75.95-1.01,1.48-.1.21.03.6.17.85.23.44.63.62,1.14.53.78-.15,1.4-.56,1.94-1.13,2.15-2.25,3.73-4.82,4.49-7.86.44-1.77.87-3.54,1.81-5.1Z"/>
          <path class="cls-12" d="m167.72,167.76c-1.33.46-2.21.41-3.26-.37-.58-.43-1.3-.7-1.98-.97-.62-.24-.66.43-.96.7l-.3.13-.32.07c.27-1.01.51-1.96-.48-2.81-.46-.39-.47-1.15.05-1.59.29-.25.82-.33,1.23-.3.43.03.84.31,1.28.41,1.59.34,1.82.12,1.26-1.52-.25-.72-.69-1.4.16-1.95.74-.48,1.47-.18,2.06.3.93.76,1.74,1.67,2.7,2.38.73.54,1.01-.15,1.13-.73.09-.43.02-.9.02-1.35.57,2.57,1.15,5.14,1.72,7.71-1.45-.07-3.04-.54-4.32-.1Zm-1.41-2.83c.05-.22.13-.45.12-.67,0-.08-.23-.15-.35-.22-.06.22-.11.44-.17.65.15.09.27.16.4.23Z"/>
          <path class="cls-12" d="m211.08,50.85c-.53-.63-1.06-1.27-1.59-1.9-.44.68-.99,1.25-1.79.6-2.18-1.76-4.82-1.32-7.31-1.6-.34-.04-.9.29-1.07.61-.32.59-.05,1.23.52,1.52,1.84.96,3.54,2.43,5.8,2.12,1.02-.14,1.7.39,2.51.77,2.54,1.2,2.58,1.15,2.93-2.13Z"/>
          <path class="cls-12" d="m259.42,64.83c-.13.88.34,1.78,1.06,1.63,2.12-.44,3.69.57,5.23,1.64.83.58,1.41.41,1.89-.27.86-1.21,1.63-2.48,2.39-3.66-.28-.41-.39-.71-.61-.87-2.19-1.69-2.19-1.68-4.24.3-.32.3-.73.5-1.1.75-.07-.12-.15-.25-.23-.39-.94-.82-1.82-1.72-2.83-2.43-.52-.37-1.07.03-1.37.6.26.92.64,1.86-.21,2.69Z"/>
          <path class="cls-12" d="m289.27,128.64c-.09.02-.2.03-.28.08-1.08.65-1.51,2.99-.7,3.97.17.21.48.4.75.43.49.06,1,0,1.5-.03,1.54-.09,1.85-.4,2.04-1.99.1-.9.07-1.08-1.12-1.2-.74-.08-1.01-.52-1.39-.95-.21-.24-.46-.37-.79-.31Z"/>
          <path class="cls-12" d="m300.06,78.02c.59-.09,1.17-1.17.96-1.55-.21-.39-.44-.96-.77-1.05-2.86-.8-4.27-3.22-6.04-5.25-.59-.68-1.13-1.44-1.84-1.98-.65-.49-1.45-.38-1.99.31-.38.49-.63,1.21-.13,1.65,2.91,2.54,4.83,6.22,8.73,7.62.41.15.85.19,1.08.24Z"/>
          <path class="cls-12" d="m248,112.44c-1.91,1.62-1.93,1.65-.88,3.19.33.49.76.9,1.24,1.46-.68.31-1.27.46-1.71.8-.72.55-.74,1.41-.17,1.97.89.86,1.89,1.57,3.14,1.7.37.04.94-.22,1.13-.52.19-.29.18-.92-.02-1.22-.4-.61-.98-1.1-1.56-1.72.49-.28.89-.47,1.24-.73,1.09-.84,1.18-1.4.43-2.17-.94-.96-2.33-1.44-2.89-2.79l.06.03Z"/>
          <path class="cls-12" d="m189.06,251.06c-.42.18-.84.36-1.25.54,1.46,2.21,3.46,3.22,6.14,3.02,1.35-.1,2.71.09,4.07.07.77-.01,1.61-.23,1.56-1.21-.04-.9-.82-1.15-1.6-1.25-.6-.08-1.2-.24-1.79-.21-2.44.15-4.76-.5-7.12-.95Z"/>
          <path class="cls-12" d="m282.89,65.74c.71.57,1.37,1.17,2.11,1.67.36.25.84.28,1.25-.06.54-.44.65-1.02.39-1.59-1.05-2.33-3.46-3.38-5.58-2.26-1.44.76-2.71,1.86-3.98,2.9-.23.19-.27.9-.1,1.21.18.33.7.59,1.1.64.41.04.9-.14,1.28-.35,1.17-.66,2.29-1.39,3.53-2.15Z"/>
          <path class="cls-12" d="m257.78,62.49c-1.47-2.51-3.62-4.45-5.5-6.61-.41-.47-1.14-.56-1.59,0-.24.3-.32.84-.26,1.24.07.42.34.85.62,1.19,1.6,2,3.47,3.8,4.7,6.11.4.75,1.44.49,2.48-.49-.15-.48-.29-.96-.44-1.44Z"/>
          <path class="cls-12" d="m247.94,112.4c.25-1.19,1.08-.64,1.74-.57.65.06,1.27-.13,1.51-.7.14-.33-.03-.92-.27-1.25-1.13-1.59-2.32-3.14-3.51-4.69-.37-.48-.86-.92-1.52-.62-.87.39-.8,1.18-.6,1.92.51,1.81,1.85,3.08,2.95,4.5.43.55.41,1.06-.23,1.46,0,0-.06-.03-.06-.03Z"/>
          <path class="cls-12" d="m74.22,144.03c.18-.22.51-.43.51-.65.01-1.89-1.73-4.44-3.36-5.01-.5-.17-1.45.49-1.29.94.66,1.87,1.52,3.63,3.26,4.75.2.13.58-.01.87-.03Z"/>
          <path class="cls-12" d="m305.31,81.38c-.05-.44,0-.93-.17-1.33-.45-1.12-1.26-1.33-2.06-.63-.82.72-1.12,1.86-.56,2.33.69.59,1.38.27,2.06-.12.26-.15.54-.25.8-.38,0,0-.07.12-.07.12Z"/>
          <path class="cls-12" d="m248.7,99.09c.23.46.73.73,1.37.45.42-.19.66-.63.54-1.13-.16-.68-.71-1.08-1.3-.92-.58.16-.91.74-.6,1.6Z"/>
          <path class="cls-12" d="m257.78,62.49c.15.48.29.96.44,1.44.61,0,.93.42,1.2.89.85-.84.47-1.77.21-2.69-.55.48-1.13.76-1.85.35Z"/>
          <path class="cls-12" d="m263.82,63.96c.09.14.16.27.23.39,0,0,.02-.28.02-.28l-.25-.11Z"/>
        </g>
      </g>
      <path class="cls-12" d="m285.5,131.79c-.25-.14-.49-.36-.76-.43-12.18-3-24.38-5.71-36.75-6.17-.57-.02-1.17-.12-1.74-.25-.43-.09-.8-.31-.78-.74.02-.42.41-.59.83-.6,1.01-.03,2.03-.03,3.05.04,2.05.14,4.1.33,6.14.52.59.05,1.18.09,1.76.23l6.91,1.04c1.71.02,3.5.52,5.25.89,5.66,1.22,11.36,2.3,16.88,4.21,0,0,1.58,1.01-.79,1.26Z"/>
      <path class="cls-12" d="m279.28,126.22c-.14-.17-.25-.39-.42-.51-7.78-5.5-15.65-10.8-24.26-14.56-.4-.17-.79-.41-1.16-.66-.28-.19-.48-.44-.35-.74.13-.29.45-.3.75-.2.72.26,1.44.54,2.14.88,1.41.67,2.8,1.37,4.2,2.07.4.2.81.39,1.18.65l4.6,2.65c1.2.49,2.33,1.34,3.46,2.09,3.67,2.43,7.39,4.78,10.76,7.66,0,0,.83,1.15-.9.67Z"/>
      <path class="cls-12" d="m307.45,148.67c-.06-.11-.1-.27-.2-.33-4.53-2.86-9.18-5.53-14.69-6.77-.26-.06-.49-.17-.71-.29-.16-.09-.26-.26-.09-.54.16-.27.4-.35.59-.32.47.06.94.14,1.38.26.89.25,1.76.53,2.64.8.25.08.51.15.73.28l2.81,1.19c.78.15,1.43.6,2.1.97,2.17,1.21,4.4,2.35,6.26,4,0,0,.37.77-.81.75Z"/>
      <path class="cls-12" d="m305.26,142.25c-.06-.08-.1-.2-.19-.23-3.8-1.69-7.66-3.22-12.04-3.56-.2-.02-.4-.08-.58-.15-.14-.05-.23-.17-.13-.4.09-.22.27-.31.42-.32.37,0,.74,0,1.09.05.71.09,1.41.21,2.12.32.2.03.41.06.59.14l2.29.6c.61.03,1.16.3,1.72.51,1.8.69,3.64,1.31,5.25,2.37,0,0,.37.55-.54.66Z"/>
      <path class="cls-12" d="m260.72,135.7c-4.77.37-9.72.76-14.67,1.12-1.41.1-2.84.15-4.28.16-.44,0-.79-.33-.9-.71-.14-.47.28-.62.69-.65,4.66-.41,9.33-.8,13.99-1.18,1.55-.13,3.1-.24,4.65-.36l3.99-.19c2.57-.12,5.13-.3,7.7-.42,1.14-.05,2.29-.06,3.45-.03.61.01,1.35.31,1.46.75.12.47-.47.7-1.12.73-3.28.15-6.56.32-9.83.5-.7.04-1.38.15-2.47.27l-2.65.04Z"/>
    </g>
    <path class="cls-11" d="m334.15,58.78c.03.11.06.22.08.33.03.32.06.64.12,1.2-1.56-.7-3.09-1.2-4.41-2.02-2.77-1.72-5.44-3.62-8.15-5.45,0,0-.04-.03-.04-.03-1.74-1.67-3.49-3.34-5.23-5.01,0,0,0,0,0,0-.05-.06-.11-.12-.16-.19-.1-.12-.2-.23-.3-.35-.75-.98-1.51-1.95-2.26-2.93-.03-.05-.06-.1-.09-.15-.03-.04-.07-.08-.1-.12-.05-.07-.09-.15-.14-.22-.88-1.68-1.76-3.36-2.64-5.04,0,0-.04-.04-.04-.04-.08-.13-.16-.27-.24-.4-.02-.11-.04-.22-.05-.34-.11-.63-.23-1.25-.34-1.88v-.18c.01-.57.01-1.14.01-1.72.07-.39.14-.77.22-1.16.56-1.17,1.45-1.97,2.72-2.3.06,0,.12,0,.18,0,.51,0,1.03,0,1.54,0,.06,0,.12,0,.18,0,.34.08.68.16,1.01.24,0,0-.01,0-.01,0,1.13.89,2.43,1.64,3.35,2.72,1.7,1.99,3.17,4.16,4.74,6.26.06.09.11.18.17.26,0,0,0-.01,0-.01.17.12.35.25.65.46-.24-1.65-.48-3.02-.63-4.39-.11-.98-.19-1.99-.13-2.97.11-1.77.35-3.53.53-5.3h.01c.08-.11.15-.22.23-.33v.02c.05-.08.11-.16.18-.23,0-.04,0-.07-.01-.11,0,0,.02-.02.02-.02.06-.05.13-.09.19-.14,0,0,0,0,0,0,1.38-.49,2.62-.14,3.76.69,0,0,0,0,0,0,.06.05.13.1.19.15,0,0,0,0,0,0,1.34,1.34,2.35,2.88,2.74,4.77.28,1.38.55,2.76.83,4.15.01.52.02,1.03.03,1.55,0,0,0-.01,0-.01.06.86.12,1.72.19,2.58,0,0,.07.01.07.01h.07c-.01.11-.02.23-.03.35,0,.1.01.21.02.31.03.06.05.12.08.18-.01.97-.02,1.95-.04,2.92.01.17.02.33.03.5-.04.29-.07.57-.11.86-.38-.42-.28,0-.28.17,0,1.64-.04,3.28.01,4.92.02.77.22,1.53.34,2.29h0c.06.45.12.91.19,1.37.05.12.13.23.16.36.22,1.14.44,2.29.66,3.43Z"/>
    <path class="cls-11" d="m350.46,73.74s.02.05.02.05c.02.14,0,.28.05.41.52,1.42,1.07,2.83,1.57,4.25.18.52.28,1.06.41,1.6,0,0,0-.02,0-.02,0,.47-.04.94,0,1.41.03.28.2.55.3.82.03.49.06.98.1,1.47.07.02.14.04.21.05.39-.56.75-1.15,1.18-1.68.96-1.22,1.96-2.41,2.94-3.61.15-.14.3-.28.46-.43,0,0,.01,0,.01,0,.06-.05.12-.11.18-.17l.06.02s-.06,0-.06,0c.07-.06.13-.11.2-.17,0,0-.02.02-.02.02.19-.16.39-.31.58-.47,0,0-.01,0-.01,0,.11-.08.22-.15.32-.23,0,0-.02.02-.02.02.18-.12.35-.24.53-.36,0,0-.02.02-.02.02.29-.09.6-.15.86-.28,1.65-.84,3.36-1.29,5.22-.88.41.09.83.11,1.25.17,0,0,.05,0,.05,0,.43.27.85.55,1.28.82,0,0-.02-.02-.02-.02.06.07.12.13.18.2,0,0-.03-.02-.03-.02.07.06.13.13.2.19,0,0-.02-.02-.02-.02.39,1.04.78,2.09,1.17,3.13,0,0,0-.01,0-.01-.06,1.04-.11,2.07-.17,3.11-.42,1.21-.69,2.51-1.3,3.61-1.62,2.92-4.14,5-6.87,6.82-3.38,2.26-7.07,3.9-10.96,5.22-.48-1.39-.84-2.83-1.45-4.17-1.57-3.46-3.29-6.85-4.84-10.32-.48-1.08-.75-2.3-.86-3.48-.11-1.16.1-2.35.17-3.53.43-1.15.86-2.3,1.29-3.46,0,0-.02.02-.02.02.13-.09.3-.16.39-.28.8-1.06,1.86-1.57,3.18-1.38.46.07.9.28,1.35.43,0,0-.01-.01-.01-.01.06.05.12.1.18.15,0,0,.02,0,.02.01.11.12.22.24.32.36,0,0-.02,0-.02,0,.06.07.11.14.17.21,0,0-.02-.02-.02-.02.1.14.21.27.31.41Z"/>
  </g>
</svg>