<?xml version="1.0" encoding="UTF-8"?>
<svg id="bg" xmlns="http://www.w3.org/2000/svg" viewBox="0 0 332.15 80">
  <defs>
    <style>
      .cls-1 {
        fill: none;
        stroke: #f0cb9c;
        stroke-dasharray: 0 6;
        stroke-linecap: round;
        stroke-miterlimit: 10;
        stroke-width: 2px;
      }

      .cls-2 {
        fill: #f8eae1;
      }

      .cls-3 {
        fill: #eaddd5;
      }

      .cls-4 {
        fill: #eea77d;
      }

      .cls-5 {
        fill: #655142;
      }

      .cls-6 {
        fill: #7d727a;
      }

      .cls-7 {
        fill: #241914;
      }

      .cls-8 {
        fill: #5c4c43;
      }
    </style>
  </defs>
  <g>
    <path class="cls-2" d="m78.09,58.95c.2.14.4.31.57.5.12.13.25.28.38.45.45.28.9.55,1.34.84,1.36.89,2.53,1.98,3.62,3.15.86.92,1.71,1.82,2.66,2.64.42.36.83.73,1.41.83.32.05.5.3.72.51.43.42.78.91,1.12,1.41.73,1.08,1.44,2.18,2.27,3.18.87,1.05,1.62,2.15,2.13,3.43.18.46.46.91.79,1.28.37.41.7.84,1.02,1.29.5.7,1.23.82,1.98.38.3-.18.67-.34.75-.71.16-.76.68-1.49.26-2.31-.31.06-.55.24-.74.48-.52.64-1.16.65-1.91.47-.59-.14-.96-.47-1.25-.97-.95-1.65-1.98-3.24-2.86-4.94-1.34-2.58-3.07-4.93-4.74-7.3-.11-.16-.25-.31-.4-.44-1.58-1.4-3.29-2.62-5.13-3.65-1.7-.94-3.47-1.77-5.29-2.45-.56-.21-1.15-.5-1.77-.44,1.26.42,2.39,1.28,3.11,2.38Z"/>
    <path class="cls-2" d="m40.51,39.16c1.21.34,2.1,1.17,2.86,2.1,1.43,1.74,2.76,3.56,3.94,5.49.33.55.6,1.16.78,1.78.4,1.34-.24,2.39-1.59,2.74-.54.14-1.08.19-1.64.07-.44-.1-.87-.21-1.31-.31-.03.26-.02.51.21.68.28.21.56.42.87.59.92.51,1.93.82,2.85,1.29.92.47,1.85.46,2.76.4,2.46-.17,2.46-.23,4.6-1.54.13-.08.25-.17.39-.24,1.17-.56,2.31-1.21,3.67-1.2.61,0,1.19-.12,1.75-.38.41-.19.86-.31,1.32-.22.74.16,1.5.27,2.19.54,1.54.61,2.99,1.43,4.31,2.41,1.52,1.14,3.13,2.11,4.83,2.93.17,0,.34,0,.52.03-.14-.64-.27-1.27-.42-1.91-.26-1.07.16-1.58,1.21-1.36,1.32.28,2.64.56,3.94.93,1.47.42,2.95.46,4.44.28.85-.1,1.65-.16,2.43.34.36.23.86.25,1.3.34.5.1.95.28,1.34.62.67-.38,1.3-.06,1.85.21,1.79.89,3.54,1.84,5.3,2.79,1.23.66,2.43,1.4,3.69,1.99.55.26,1.06.54,1.52.93.88.74,1.77,1.48,2.66,2.22.82.69,1.74,1.17,2.82,1.32.98.13,1.96-.66,1.96-1.6,0-.75-.53-1.17-1.09-1.51-.29-.18-.67-.21-.97-.39-.4-.23-.75-.53-.6-1.08.24-.9-.25-1.5-.93-1.86-1.66-.88-2.92-2.27-4.49-3.27-.84-.54-1.61-1.19-2.4-1.81-.43-.34-.82-.72-1.19-1.14-1.18-1.36-2.02-2.98-3.33-4.24-.29-.29-.44-.67-.35-1.1-.86-.07-1.38-.52-1.57-1.36-.09-.37-.3-.65-.75-.57-.48.09-.78-.23-1.02-.53-.73-.95-1.42-1.93-2.12-2.91-.42-.59-.55-1.26-.63-1.97-.07-.59.13-.98.52-1.32.26-.23.57-.42.88-.57,3.21-1.51,6.42-3.01,9.65-4.48.53-.24,1.08-.53,1.7-.56.24,0,.49-.11.7-.22.77-.42,1.6-.58,2.46-.62,1.8-.09,3.59-.04,5.38.04,1.05.04,2.08.21,3.13.26,1.03.04,2.08.2,3.12.34,1.44.19,2.87.33,4.32.19.7-.07,1.39-.19,2.07-.38,2.65-.74,5.24-1.66,7.77-2.76,1.85-.81,3.5-1.95,5.2-3,.86-.53,1.44-1.38,2.14-2.09,1.15-1.18,2.21-2.45,3.07-3.87.18-.3.46-.53.66-.82.6-.92,1.45-1.17,2.48-.96-.05-.34-.11-.67-.13-1.01-.01-.25.07-.53.28-.64.59-.3.93-.81,1.28-1.33.09-.13.34-.16.51-.24.05-.36.17-.7.51-.86.94-.45,1.92-.77,2.95-.93.18-.03.39.07.58.11,1.44-.84,2.98-1.4,4.63-1.65.62-.46,1.29-.68,2.06-.47.39-.35.84-.35,1.31-.21.62-.16,1.23-.37,1.89-.16.52-.32,1.06-.41,1.64-.18.21-.12.42-.24.63-.37.51-.3.98-.34,1.48.05.26.2.62.27.93.4.12-.08.25-.17.37-.25,1.06-.58,2.22-.46,3.36-.47.55,0,1.1.05,1.65.02.61-.03,1.04-.35,1.21-.96.13-.48.27-.97.34-1.47.12-.88-.18-1.29-1.01-1.78-.57-.34-1.17-.54-1.81-.7-1.75-.44-3.51-.78-5.32-.93-.36-.03-.71,0-1.04.1-.77.21-1.54.45-2.31.68-1.94.59-3.94.76-5.94.86-1.44.07-2.9.36-4.32-.16-.14-.05-.3-.08-.45-.05-.72.14-1.39-.09-2.08-.25-.98-.22-1.95-.49-2.94-.68-1.25-.24-2.39-.7-3.5-1.31-.78-.43-1.55-.93-2.48-1.01.11.48.56.69.82,1.05.54.74.38,1.69-.47,2-.69.25-.9.66-1.03,1.3-.18.93-.3,1.89-.89,2.69-.24.32-.43.7-.74.94-1.93,1.51-3.99,2.66-6.55,2.68-1.56.01-3.1-.08-4.65-.19-1.71-.13-3.41.04-5.09.35-1.28.23-2.55.55-3.81.9-1.26.35-2.48.82-3.6,1.51-1.2.74-2.42,1.43-3.6,2.2-2.31,1.52-4.74,2.83-7.15,4.17-3.71,2.07-7.7,3.4-11.9,4.06-.69.11-1.38.26-2.07.38-3.13.54-6.29.58-9.44.47-1.75-.06-3.52-.25-5.18-.83-2.38-.84-4.6-1.94-6.19-4.05-1.14-1.52-2.42-2.94-3.63-4.4-.82-.14-1.6-.18-2.02.74.87.22,1.41.91,2.02,1.47,1.34,1.23,2.29,2.73,3.07,4.4.67,1.45,1.39,2.87,1.95,4.38.83,2.22,1.38,4.49,1.68,6.84.15,1.14.31,2.28.31,3.43,0,.67-.17,1.29-.38,1.91-.12.34-.48.52-.85.48-.44-.05-.84-.35-.82-.74.11-2.21-.76-4.23-1.13-6.34-.19-1.05-.66-1.99-1.06-2.96-.35-.84-1.08-1.44-1.65-2.13-1.42-1.71-3.19-3.04-4.91-4.42-.57-.46-1.18-.8-2.04-.75-1.02.07-1.34-.34-1.42-1.51-.02-.39.13-.79.2-1.18-.86.14-1.72.27-2.59.42-.22.04-.3.23-.39.41.51.47,1.09.85,1.22,1.64.17,1.04.43,2.06-.03,3.09-.75,1.69-.72,3.42-.19,5.15.29.94.32,1.86.07,2.81-.42,1.55-1.38,2.53-2.94,2.91-1.46.36-2.91.21-4.27-.39-.73-.33-1.53-.47-2.21-.94-.33-.23-.75-.26-1.16-.17-1.08.25-2.17.46-2.99,1.3-.11.11-.25.14-.4.05.77.57,1.68.83,2.58,1.08Z"/>
    <path class="cls-2" d="m49.94,42.25c.52-.25,1.03-.3,1.57,0,.83.45,1.69.86,2.53,1.3.65.35.94,1.02,1.25,1.63.2.39-.02.78-.34,1.07-.58.52-1.27.81-2.05.79-.79-.03-1.59-.13-2.1-.17-.33-.08-.38-.09-.42-.1-.9-.23-1.75-.56-1.96-1.6-.19-.96.62-2.46,1.52-2.9Z"/>
    <path class="cls-3" d="m135.97,2.98c.11.48.56.69.82,1.05.54.74.38,1.69-.47,2-.69.25-.9.66-1.03,1.3-.18.93-.3,1.89-.89,2.69-.24.32-.43.7-.74.94-1.93,1.51-3.99,2.66-6.55,2.68-1.56.01-3.1-.08-4.65-.19-1.71-.13-3.41.04-5.09.35-1.28.23-2.55.55-3.81.9-1.26.35-2.48.82-3.6,1.51-1.2.74-2.42,1.43-3.6,2.2-2.31,1.52-4.74,2.83-7.15,4.17-3.71,2.07-7.7,3.4-11.9,4.06-.69.11-1.38.26-2.07.38-3.13.54-6.29.58-9.44.47-1.75-.06-3.52-.25-5.18-.84-2.38-.84-4.6-1.94-6.19-4.05-1.14-1.52-2.42-2.94-3.63-4.4.06-.24.11-.48.19-.71.16-.46.56-.82.99-.75.76.14,1.15-.39,1.68-.69.56.19,1.08.22,1.5-.31.09-.11.23-.2.36-.26.21-.1.45-.01.47.2.04.7.4,1.26.82,1.75.97,1.15,1.94,2.3,2.71,3.6.29.48.71.84,1.25,1.05.65.24,1.09-.06,1.1-.76,0-.19,0-.42-.1-.58-.7-1.18-.96-2.52-1.41-3.8-.18-.51-.52-.97-.82-1.43-.15-.23-.41-.27-.66-.11-.13.08-.23.2-.35.28-.3.18-.63.06-.69-.25-.1-.54-.18-1.09-.26-1.63-.03-.22.06-.41.24-.52.83-.49,1.49-1.18,2.19-1.83.38-.36.82-.54,1.38-.41.48.12.97.27,1.48.17.21-.04.38.11.5.28.17.25.33.51.49.76.21.32.49.54.88.42.43-.12.63.12.88.4.73.83,1.35,1.74,1.96,2.66.15.22.4.32.66.19.25-.12.33-.39.29-.64-.04-.24-.12-.5-.26-.69-.56-.77-1.13-1.53-1.74-2.26-.29-.34-.65-.63-1.18-.49-.29.08-.45-.07-.52-.37-.21-.96-.22-.96-.72-1.6,1.18-.68,2.4-1.24,3.65-1.73.28-.11.47.02.61.28.2.37.52.78.9.71.84-.15.99.47,1.34.92.3.39.65.72,1.03,1.04.55.47,1.19.9,1.54,1.6.09.18.22.34.37.47.24.23.52.27.82.09.27-.17.33-.47.12-.78-.14-.21-.27-.44-.47-.58-.53-.38-1.07-.73-1.14-1.46-.91-.65-1.08-1.89-2.03-2.52-.19-.13-.11-.54.1-.65.84-.47,1.81-.58,2.7-.92.1-.04.31.07.38.17.3.4.59.82.83,1.26.43.79.82,1.6,1.25,2.4.38.71.89,1.34,1.12,2.13.09.28.26.56.54.7.12.06.31.08.42.02.11-.05.23-.21.25-.34.06-.41-.07-.81-.28-1.15-.87-1.41-1.5-2.95-2.24-4.42-.43-.85-1.02-1.61-1.9-2.08,1.1-.56,2.25-.85,3.49-.73.1.1.27.19.3.32.15.54.46.88,1.02.96.41.06.53.38.69.71.3.61.35,1.38,1.1,1.7.06.03.1.18.1.27.02.42.29.58.65.72.95.38,1.71.93,2.06,2,.3.92,1.15,1.48,1.74,2.22.06.07.29.06.42.02.23-.07.27-.29.25-.49-.01-.14-.07-.3-.15-.42-.54-.85-1.01-1.72-1.41-2.64-.19-.45-.45-.9-.91-1.16-.18-.1-.36-.22-.35-.45.02-.72-.49-1.19-.8-1.74-.19-.33-.27-.64.02-.96.27-.3.25-.65.04-.97-.24-.38-.09-.78-.06-1.17,1.55-.25,3.11-.51,4.66-.74.68-.1,1.35-.28,2.05-.13.15.14.27.31.23.52-.13.71.1,1.18.85,1.32.6.11.8.56.89,1.08.04.24.05.5.02.74-.12,1.27.57,2.28,1.04,3.37.02.04.08.06.11.09.13.12.44.03.49-.15.05-.14.11-.29.11-.43-.02-.67-.43-1.36.15-2.01.07-.08.02-.29-.02-.43-.15-.53-.31-1.06-.49-1.58-.1-.28-.29-.54-.36-.82-.09-.37.38-.39.5-.67.16-.38-.06-.67-.12-1.03.43-.09.87-.15,1.31-.09,1.41.18,1.54.3,2.2,1.63.21.43.34.81.23,1.29-.05.23-.06.51.01.74.34.99.67,1.99,1.29,2.85.06.08.13.17.22.2.14.05.3.09.43.06.21-.06.34-.28.28-.47-.16-.52-.31-1.07-.58-1.54-.42-.73-.57-1.53-.51-2.32.07-.96-.06-1.89-.09-2.84.57-.28,1.19-.11,1.78-.16.65-.05,1.3,0,1.95,0-.2.7.31,1.19.5,1.78.16.52.3.92.85,1.1.26.08.41.3.37.58-.12.83.51.83,1.03.95-.47,1.11-.03,2.16.22,3.22.12.51.54.79.84.64.26-.14.39-.55.27-.94-.04-.14-.09-.29-.17-.41-.26-.4-.28-.82-.24-1.29.08-.84.04-.85-.93-1.22.31-.73.64-1.45.23-2.26-.02-.04,0-.1.01-.15.11-.51-.07-.88-.54-1.1-.27-.13-.31-.37-.28-.63,1.59.04,3.19.08,4.78.13.3.16.37.46.44.75.18.83.35,1.66.53,2.48.04.19.08.39.17.56.09.18.27.27.49.27.24,0,.38-.17.42-.36.05-.24.04-.49.03-.74-.03-1.11-.43-2.14-.62-3.22,1.21-.42,2.41-.84,3.62-1.24.42-.14.85-.28,1.3-.12,0,.48-.3.84-.51,1.23-.15.28-.2.6.07.83.79.66,1.36,1.46,1.73,2.42.04.1.24.18.37.2.23.03.37-.14.44-.33.15-.39.23-.81-.04-1.15-.57-.71-.32-1.28.22-1.85.32-.34.43-.79.51-1.24,1.35.29,2.7.56,4.04.9.71.18,1.38.5,2.07.75-.1.53-.15,1.06-.68,1.41-.41.27-.47.74-.43,1.19,0,.11.17.26.28.29.12.03.3-.01.39-.09.1-.08.18-.24.21-.37.11-.63.34-1.14,1.11-1.1.04,0,.09-.04.13-.07.27-.14.33-.56.09-.75-.27-.21-.58-.36-.87-.54.48-.29.94-.28,1.41.03.42.27.86.51,1.29.77Zm-26.17,11.35c.02-.14.07-.24.06-.33-.14-1.1-.57-2.1-1.09-3.05-.11-.21-.44-.19-.68-.04-.18.11-.33.28-.26.48.36,1.07.81,2.12.96,3.26,0,.04.06.07.09.11.19.23.63.2.76-.06.07-.13.12-.27.16-.37Zm-6.34-4.22c-.02.07-.08.18-.05.25.31.83.6,1.67.79,2.54.05.25.31.38.59.34.22-.03.37-.2.37-.4.03-1.07-.17-2.07-.92-2.89-.19-.2-.66-.11-.78.16Zm20.72-4.11c.04.35.05.8.13,1.24.05.25.24.45.54.4.27-.04.49-.22.5-.48.02-.44-.01-.89-.08-1.33-.04-.25-.24-.45-.54-.4-.27.04-.44.22-.55.57Zm-51.8,10.19c.09-.03.21-.03.27-.09.39-.4.41-1.07.06-1.48-.2-.24-.63-.21-.75.05-.23.5-.14.97.17,1.4.05.07.17.08.26.12Zm2.88,4.38c.19.03.53-.23.52-.42-.02-.48-.24-.84-.68-1.03-.19-.08-.4-.03-.49.18-.21.46.18,1.19.65,1.27Zm25.39-5.52c.24.08.64-.23.6-.48-.07-.39-.23-.73-.61-.93-.21-.11-.55.02-.6.24-.11.46.2,1.05.61,1.18Zm-4.73.38c-.06.49.18.85.56,1.11.09.06.28.02.41-.03.2-.07.32-.26.28-.46-.09-.39-.28-.73-.67-.91-.21-.09-.55.07-.58.28Zm24.6-7.22c.11-.48-.01-.78-.34-.82-.35-.05-.69.18-.77.53-.1.4.19.86.56.87.38.01.47-.28.55-.58Zm-36.86,9.8c-.09.39.17.63.41.87.15.16.36.2.54.11.24-.11.33-.36.3-.62-.05-.43-.8-.75-1.17-.5-.04.02-.05.08-.09.13Zm-11.28,5.34c-.05.31.21.68.53.68.26,0,.57-.28.59-.55.02-.27-.22-.51-.57-.54-.27-.02-.48.06-.55.41Zm35.77-7.93c-.21-.02-.4,0-.48.24-.07.21-.03.39.18.5.23.12.54-.02.58-.27.03-.22-.07-.38-.28-.47Z"/>
    <path class="cls-3" d="m92.52,47.01c-.86-.07-1.38-.52-1.57-1.36-.09-.37-.3-.65-.75-.57-.48.09-.78-.23-1.02-.53-.73-.95-1.42-1.93-2.12-2.91-.42-.59-.55-1.26-.63-1.97-.07-.59.13-.98.52-1.32.26-.23.57-.42.88-.57,3.21-1.51,6.42-3.01,9.65-4.48.53-.24,1.08-.53,1.7-.56.24,0,.49-.11.7-.22.77-.42,1.6-.58,2.46-.62,1.8-.09,3.59-.04,5.38.04,1.05.04,2.08.21,3.13.26,1.03.04,2.08.2,3.12.34,1.44.19,2.87.33,4.32.19.7-.07,1.39-.19,2.07-.38,2.65-.74,5.24-1.66,7.77-2.76,1.85-.81,3.5-1.95,5.2-3,.86-.53,1.44-1.38,2.14-2.09,1.15-1.18,2.21-2.45,3.07-3.87.18-.3.46-.53.66-.82.6-.92,1.45-1.17,2.48-.96.89.07,1.78.2,2.68.08.06.08.11.19.19.22,1.13.43,2.31.69,3.5.85,1.23.17,2.48.22,3.72.33.29.54.71.7,1.35.7.84,0,1.73.08,2.09,1.12.08.24.46.36.66.58.43.47.47,1.11.15,1.68-.13.23-.36.44-.6.39-1.1-.24-2.19.11-3.29-.02-.99-.12-1.98-.25-2.97-.34-.89-.08-1.8-.02-2.69-.13-1.35-.17-2.69-.05-4.04-.02-.73.01-1.36.26-1.97.65-1.27.81-2.56,1.59-3.84,2.39-.3.19-.59.38-.85.62-1.5,1.42-3.16,2.61-4.91,3.7-.72.45-1.49.82-2.08,1.47-.19.21-.49.36-.77.44-.45.13-.83.36-1.21.6-.9.55-1.8,1.07-2.78,1.49-2.42,1.04-4.89,1.81-7.55,1.74-1.7-.05-3.4.12-5.09-.18-.8.22-1.59-.26-2.38-.06-.88.21-1.77.35-2.67.42-.84.06-1.45.67-2.11,1.09-.61.39-1.42.58-1.7,1.4-.29.37-.69.58-1.09.77-2.45,1.14-4.7,2.58-6.72,4.39-.7.63-1.46,1.2-2.19,1.79Z"/>
    <path class="cls-3" d="m51.9,23.28c.55.48,1.19.88,1.35,1.67.21,1.05.5,2.08.03,3.1-.78,1.68-.71,3.42-.11,5.17.33.95.38,1.87.12,2.82-.42,1.55-1.44,2.51-3.12,2.86-1.58.33-3.14.16-4.62-.48-.79-.34-1.67-.5-2.4-.99-.36-.24-.82-.28-1.26-.19-1.16.23-2.33.43-3.2,1.25-.12.11-.27.14-.43.04-1.16,1.03-1.26,2.31-.85,3.7.2.67.35,1.38.69,2,.31.56.31,1.03.13,1.56-.3-.12-.65-.18-.9-.37-.53-.4-1.11-.65-1.76-.78-.92-.19-1.76-.62-2.49-1.14-1.18-.84-2.35-1.7-3.37-2.72-.15-.15-.31-.29-.44-.46-.59-.77-.4-1.62.49-2.02.87-.39,1.79-.72,2.77-.75,1.17-.03,2.17-.55,3.27-.77.35-.07.54-.32.6-.63.26-1.33,1.17-2.46,1.27-3.85.02-.33.27-.64.4-.97.17-.42.31-.85.49-1.26.4-.89.16-1.61-.62-2.31-.92-.82-1.63-1.8-2.26-2.83-.27-.45-.68-.8-1.06-1.17-.99-.96-.66-2.38.7-2.56,1.91-.25,3.77-.77,5.74-.72,2.31.06,4.51.65,6.67,1.39.46.16.91.37,1.38.48.96.22,1.87.56,2.78.93Z"/>
    <path class="cls-6" d="m73.82,56.32c.39.04.76.64,1.14.77.63-.06,1.39,1.04,1.96,1.25,1.82.68,1.75,1.46,3.46,2.4,1.84,1.02,3.31,3.72,4.89,5.11.15.13,1.28.51,1.39.67,1.68,2.37,4.28,2.62,5.62,5.2.88,1.7,2.88,5.08,3.83,6.72.29.5,1.29.96,1.89,1.1.75.18.43-1.18.95-1.82.2-.24-.16-1.86.15-1.92.24-.92.06-1.87-.31-2.64-.65-1.35-1.53-2.59-2.41-3.81-.32-.45-.63-.88-.83-1.4-.33-.89-.61-1.82-1.09-2.63-1.81-3.02-3.68-5.99-5.53-8.98-.21-.34-.43-.68-.86-.79-.38-.34-.57-1.64-1.07-1.74-.44-.08-1.59.16-1.95-.07-.78-.51-1.2.4-2.05.5-1.49.18-2.97.14-4.44-.28-1.3-.37-2.62-.65-3.94-.93-1.04-.22-6.39-.76-6.13.31.15.63,3.76,2.95,5.35,2.96Z"/>
    <path class="cls-4" d="m177.22,14.77c-.45.03-.9.04-1.36.01.82.18,1.64.34,2.38.79.38.23.84.33,1.3.31-.54-.46-1.19-.69-1.84-.94-.16-.06-.32-.12-.48-.17Z"/>
    <path class="cls-3" d="m141.55,17.82c.01.34.08.67.13,1.01.89.07,1.78.2,2.68.08,1.03-.54,2.16-.79,3.26-1.08,1.45-.38,2.92-.66,4.38-.98.02-.57-.58-.77-.75-1.23-.1-.26-.12-.48.11-.66.21-.16.45-.2.66.01.18.17.32.38.52.53.48.36.49.81.31,1.32,1.22.35,2.47.36,3.72.37-.04-.43-.53-.59-.62-.99-.06-.26-.02-.5.18-.68.2-.18.44-.25.67-.1.33.22.62.51.97.68.62.31.69.78.52,1.37.2.35.56.38.9.44.88.14,1.76.27,2.65.4-.12-.15-.24-.31-.36-.46-.16-.2-.35-.39-.22-.66.16-.34.48-.51.84-.54.12-.01.29.09.38.18.49.5.45,1.07.21,1.67.31.26.66.42,1.05.52.91.22,1.82.44,2.74.65-.26-.3-.48-.64-.78-.89-.63-.53-.77-1.25-.89-1.99-.02-.09,0-.21.03-.29.08-.19.23-.34.45-.34.13,0,.28.08.39.16.07.05.13.16.15.25.26,1.01.85,1.78,1.65,2.43.34.27.26.61.15.95,1.75.73,3.49,1.46,5.32,1.95.18.05.34.11.48.22.32-.09.65-.11,1.09,0-.63-.55-1.03-1.23-1.14-2.05-.17-1.29-.38-2.55-.78-3.79-.29-.89,0-1.3.88-1.56.2-.06.4-.11.6-.15,0,0,0,0-.01,0-.73-.14-1.91-.55-2.4-1.28-.35-.08-.7-.15-1.05-.23-.34-.08-.68-.18-1.02-.02.12.32.47.36.67.57.34.35.37.73-.06,1.01-.41.27-.54.54-.44.99.08.34.05.71.18,1.02.29.68.02,1.29-.17,1.9-.07.21-.29.4-.49.54-.25.19-.54.24-.83.02-.37-.27-.68-.6-.88-1.02-.39-.81-.86-1.61-1.1-2.46-.33-1.14-.49-2.34-.72-3.51-1-.52-2.08-.79-3.18-1.03-.12.08-.25.17-.37.25-.07.95.53,1.31,1.32,1.52.11.03.24.19.27.31.06.23-.14.35-.32.45-.08.05-.19.04-.29.07-.67.2-.7.24-.71.89,0,.35.01.69-.02,1.04-.03.25-.13.49-.44.52-.22.02-.37-.11-.48-.29-.13-.21-.22-.57-.39-.61-1.01-.25-1.03-1.11-1.2-1.87-.09-.41-.33-.71-.62-1-.33-.33-.29-.72-.16-1.12-.58-.22-1.12-.14-1.64.18-.25.71.15,1.37.14,2.06,0,.25.06.49.08.74.01.21-.08.41-.27.48-.19.07-.4.04-.55-.13-.74-.86-1.55-1.69-1.28-2.99-.47-.14-.92-.13-1.31.21-.11.58-.3,1.13-.23,1.75.05.45-.41.67-.83.45-.04-.02-.08-.06-.12-.08-.75-.31-1.04-.86-.88-1.65-1.65.24-3.19.81-4.63,1.65-.25.91-.77,1.44-1.78,1.41-.28,0-.59.11-.84.24-.48.26-.95.17-1.42.03-.17.08-.42.11-.51.24-.36.52-.69,1.03-1.28,1.33-.22.11-.3.4-.28.64Z"/>
    <path class="cls-2" d="m102.52,40.06c.27-.82,1.08-1.01,1.7-1.4.67-.43,1.27-1.03,2.11-1.09.9-.07,1.79-.2,2.67-.42.8-.19,1.58.28,2.38.06,1.69.31,3.39.14,5.09.18,2.66.07,5.13-.69,7.55-1.74.97-.42,1.88-.94,2.78-1.49.38-.24.76-.47,1.21-.6.28-.08.58-.23.77-.44.59-.65,1.36-1.02,2.08-1.47,1.74-1.09,3.41-2.28,4.91-3.7.25-.24.55-.44.85-.62,1.28-.8,2.57-1.58,3.84-2.39.61-.39,1.24-.64,1.97-.65,1.35-.03,2.69-.15,4.04.02.89.11,1.79.05,2.69.13.99.09,1.98.22,2.97.34,1.11.13,2.2-.22,3.29.02.24.05.47-.15.6-.39.32-.57.28-1.21-.15-1.68-.2-.22-.58-.34-.66-.58-.36-1.04-1.25-1.12-2.09-1.12-.64,0-1.06-.16-1.35-.7.09-.05.17-.15.26-.14,1.8.05,3.32.69,4.4,2.18.26.37.49.76.72,1.15.52.86.4,1.75.05,2.61-.29.7-1.53,1.23-2.48,1.06-.69-.12-1.38-.27-2.05-.48-2.13-.65-4.33-.75-6.53-.84-1.75-.07-3.5-.06-5.24.18-.46.06-.89.13-1.24.44-.56.5-1.12.99-1.68,1.49-1.75,1.57-3.5,3.14-5.26,4.7-.3.26-.64.48-.98.69-1.79,1.11-3.53,2.3-5.47,3.14-2.85,1.24-5.71,2.46-8.79,3.04-1.68.31-3.38.3-5.08.34-2.3.05-4.58-.26-6.88-.16-.66.03-1.29.07-1.93.22-.34.08-.68.2-1.04.1Z"/>
    <path class="cls-3" d="m58.8,18.95c.87.22,1.41.91,2.02,1.47,1.34,1.23,2.29,2.73,3.07,4.4.67,1.45,1.39,2.87,1.95,4.38.83,2.22,1.38,4.49,1.68,6.84.15,1.14.31,2.28.31,3.43,0,.67-.17,1.29-.38,1.91-.12.34-.48.52-.85.48-.44-.05-.84-.35-.82-.74.11-2.21-.76-4.23-1.13-6.34-.19-1.05-.66-1.99-1.06-2.96-.35-.84-1.08-1.44-1.65-2.13-1.42-1.71-3.19-3.04-4.91-4.42-.57-.46-1.18-.8-2.04-.75-1.02.07-1.34-.34-1.42-1.51-.02-.39.13-.79.2-1.18,0-.44-.02-.89.02-1.32.05-.48.32-.8.81-.94.91-.25,1.84-.36,2.72-.75.48-.21.97.08,1.45.14Z"/>
    <path class="cls-3" d="m37.78,45.3c.18-.53.19-1.01-.09-1.55-.31-.6-.43-1.31-.61-1.98-.35-1.37-.25-2.65.85-3.7.77.57,1.68.83,2.58,1.08,1.21.34,2.1,1.17,2.86,2.1,1.43,1.74,2.76,3.56,3.94,5.49.33.55.6,1.16.78,1.78.4,1.34-.24,2.39-1.59,2.74-.54.14-1.08.19-1.64.07-.44-.1-.87-.21-1.31-.31-2.53-1.3-4.2-3.46-5.78-5.72Z"/>
    <path class="cls-6" d="m84.02,5.01c.88.47,1.47,1.22,1.9,2.08.74,1.48,1.37,3.01,2.24,4.42.21.34.33.74.28,1.15-.02.13-.13.28-.25.34-.11.05-.3.04-.42-.02-.28-.14-.46-.41-.54-.7-.24-.79-.74-1.42-1.12-2.13-.43-.79-.81-1.61-1.25-2.4-.24-.44-.53-.85-.83-1.26-.07-.1-.29-.21-.38-.17-.89.35-1.86.45-2.7.92-.21.12-.29.53-.1.65.95.63,1.12,1.87,2.03,2.52.07.73.61,1.08,1.14,1.46.19.14.33.37.47.58.21.32.15.62-.12.78-.3.18-.58.14-.82-.09-.14-.14-.28-.3-.37-.47-.34-.69-.99-1.12-1.54-1.6-.38-.33-.73-.65-1.03-1.04-.35-.46-.5-1.08-1.34-.92-.37.07-.7-.35-.9-.71-.14-.26-.33-.38-.61-.28-1.25.49-2.47,1.06-3.65,1.73.5.64.51.64.72,1.6.07.3.22.45.52.37.53-.14.9.14,1.18.49.61.73,1.18,1.49,1.74,2.26.14.19.22.45.26.69.04.25-.04.52-.29.64-.26.13-.51.03-.66-.19-.61-.92-1.23-1.83-1.96-2.66-.25-.28-.45-.52-.88-.4-.4.11-.67-.1-.88-.42-.17-.25-.32-.51-.49-.76-.12-.17-.29-.32-.5-.28-.52.1-1-.05-1.48-.17-.55-.13-.99.05-1.38.41-.69.66-1.36,1.34-2.19,1.83-.18.11-.27.3-.24.52.08.55.16,1.09.26,1.63.06.32.4.43.69.25.13-.08.23-.2.35-.28.25-.16.51-.13.66.11.3.46.64.92.82,1.43.45,1.27.71,2.61,1.41,3.8.09.16.1.39.1.58,0,.7-.45,1-1.1.76-.54-.2-.96-.56-1.25-1.05-.77-1.3-1.74-2.45-2.71-3.6-.41-.49-.78-1.04-.82-1.75-.01-.22-.25-.3-.47-.2-.13.06-.27.15-.36.26-.42.53-.94.5-1.5.31.07-.69.41-1.26.95-1.65,1.06-.79,1.83-1.84,2.68-2.82.16-.19.35-.51.52-.51,1.34-.01,2.02-1.14,3.01-1.73.23-.13.48-.25.71-.13.58.29,1.04.06,1.55-.2,1.3-.65,2.6-1.31,3.95-1.86.53-.22.81-.78,1.37-.86.49-.07,1-.05,1.48-.2.91-.28,1.83-.55,2.74-.8.24-.07.49-.07.74-.11.17.05.3,0,.41-.14.07-.03.15-.05.23-.04Z"/>
    <path class="cls-6" d="m175.86,14.78c-.6-.03-1.2-.1-1.78-.21-.2.04-.4.09-.6.15-.89.26-1.17.67-.88,1.56.4,1.24.61,2.5.78,3.79.11.82.51,1.5,1.14,2.05.22.06.47.14.77.27,1.95.84,3.64,1.06,5.59.52.33-.24.66-.47,1.02-.66,1.44-.78,1.59-2.19,1.73-3.59.02-.22-.13-.48-.25-.69-.28-.49-.7-.83-1.2-1.09-.84-.45-1.74-.75-2.65-1-.46.01-.91-.08-1.3-.31-.74-.45-1.56-.61-2.38-.79Z"/>
    <path class="cls-6" d="m107.11,1.84c.03.95.16,1.88.09,2.84-.06.79.09,1.58.51,2.32.27.47.42,1.01.58,1.54.06.19-.07.41-.28.47-.13.04-.29-.01-.43-.06-.09-.03-.16-.12-.22-.2-.62-.86-.96-1.86-1.29-2.85-.08-.22-.07-.5-.01-.74.11-.47-.02-.86-.23-1.29-.65-1.34-.78-1.45-2.2-1.63-.45-.06-.88,0-1.31.09.07.35.28.65.12,1.03-.12.28-.59.3-.5.67.07.29.27.54.36.82.18.52.34,1.05.49,1.58.04.14.09.36.02.43-.58.64-.16,1.33-.15,2.01,0,.14-.06.29-.11.43-.06.18-.36.27-.49.15-.04-.03-.1-.05-.11-.09-.47-1.08-1.16-2.1-1.04-3.37.02-.24.02-.5-.02-.74-.09-.52-.29-.96-.89-1.08-.74-.14-.97-.61-.85-1.32.04-.22-.08-.38-.23-.52.14-.69.59-1.02,1.25-1.1.45-.05.89-.08,1.34-.12.2-.02.42.05.58-.04.9-.47,1.85-.31,2.8-.27.52.02.99.12,1.28.62.2.35.62.27.93.42Z"/>
    <path class="cls-6" d="m92.21,3.19c-.02.39-.18.79.06,1.17.21.33.23.67-.04.97-.28.32-.21.62-.02.96.32.56.83,1.02.8,1.74,0,.23.17.35.35.45.47.26.72.72.91,1.16.4.92.88,1.8,1.41,2.64.08.12.14.28.15.42.02.2-.03.42-.25.49-.13.04-.36.05-.42-.02-.59-.74-1.45-1.3-1.74-2.22-.35-1.07-1.11-1.62-2.06-2-.36-.14-.62-.3-.65-.72,0-.09-.04-.24-.1-.27-.75-.32-.81-1.1-1.1-1.7-.16-.33-.28-.64-.69-.71-.56-.09-.87-.42-1.02-.96-.03-.12-.2-.21-.3-.32.31-.8.76-1.34,1.76-1.13.68.14,1.36-.09,2.03-.24.37-.08.68-.03.92.29Z"/>
    <path class="cls-6" d="m169.6,13.04c.12.32.47.36.67.57.34.35.37.73-.06,1.01-.41.27-.54.54-.44.99.08.34.05.71.18,1.02.29.68.02,1.29-.17,1.9-.07.21-.29.4-.49.54-.25.19-.54.24-.83.02-.37-.27-.68-.6-.88-1.02-.39-.81-.86-1.61-1.1-2.46-.33-1.14-.49-2.34-.72-3.51,1.1-.3,2.09.08,3.06.52.26.12.51.27.76.41Z"/>
    <path class="cls-6" d="m126.94.57c-.08.45-.19.9-.51,1.24-.54.57-.79,1.14-.22,1.85.27.34.19.76.04,1.15-.07.2-.22.36-.44.33-.13-.02-.33-.1-.37-.2-.37-.96-.94-1.76-1.73-2.42-.27-.23-.22-.55-.07-.83.21-.4.51-.75.51-1.23,0,0,0,.01,0,.01.16.05.29,0,.39-.13.34-.06.7-.08,1.03-.18.56-.16.97.08,1.36.41Z"/>
    <path class="cls-6" d="m113.58,6.08c-.52-.13-1.15-.12-1.03-.95.04-.27-.11-.49-.37-.58-.55-.18-.68-.58-.85-1.1-.19-.59-.7-1.08-.5-1.78.14-.36.39-.54.78-.45.52.11,1.01.3,1.36.73-.02.26.02.5.28.63.47.23.65.59.54,1.1-.01.05-.03.11-.01.15.41.8.08,1.53-.23,2.26h.01Z"/>
    <path class="cls-6" d="m119.22,1.83c.19,1.08.59,2.12.62,3.22,0,.25.02.5-.03.74-.04.19-.18.35-.42.36-.22,0-.4-.09-.49-.27-.09-.17-.12-.37-.17-.56-.18-.83-.35-1.66-.53-2.48-.06-.29-.14-.59-.44-.75.03-.09.06-.19.11-.28.34-.6.47-.64,1.02-.28.12.08.22.2.33.3Z"/>
    <path class="cls-6" d="m166.49,19.67c-.26-.3-.48-.64-.78-.89-.63-.53-.77-1.25-.89-1.99-.02-.09,0-.21.03-.29.08-.19.23-.34.45-.34.13,0,.28.08.39.16.07.05.13.16.15.25.26,1.01.85,1.78,1.65,2.43.34.27.26.61.15.95-.41.04-.79-.07-1.14-.28Z"/>
    <path class="cls-6" d="m156.59,17.19c-.04-.43-.53-.59-.62-.99-.06-.26-.02-.5.18-.68.2-.18.44-.25.67-.1.33.22.62.51.97.68.61.31.69.78.52,1.37-.58-.04-1.18-.03-1.72-.29Z"/>
    <path class="cls-6" d="m133.26,2.19c.29.18.61.33.87.54.25.2.18.61-.09.75-.04.02-.09.07-.13.07-.77-.04-1,.47-1.11,1.1-.02.14-.1.29-.21.37-.1.08-.28.13-.39.09-.12-.04-.27-.18-.28-.29-.04-.46.02-.93.43-1.19.53-.35.59-.88.68-1.41.07-.03.15-.04.22-.03Z"/>
    <path class="cls-6" d="m152.01,16.85c.02-.57-.58-.77-.75-1.23-.1-.26-.12-.48.11-.66.21-.16.45-.2.66.01.18.17.32.38.52.53.48.36.49.81.31,1.32-.28.07-.57.13-.85.03Z"/>
    <path class="cls-6" d="m161.85,18.32c-.12-.15-.24-.31-.36-.46-.16-.2-.35-.39-.22-.66.16-.34.48-.51.84-.54.12-.01.29.09.38.18.49.5.45,1.07.21,1.67-.28-.06-.56-.12-.85-.18Z"/>
    <path class="cls-4" d="m83.79,5.05c-.11.13-.24.19-.41.14.1-.15.24-.2.41-.14Z"/>
    <path class="cls-4" d="m124.55.35c-.1.13-.23.19-.39.13.09-.16.23-.19.39-.13Z"/>
    <path class="cls-6" d="m162.23,11.34c-.07.95.53,1.31,1.32,1.52.11.03.24.19.27.31.06.23-.14.35-.32.45-.08.05-.19.04-.29.07-.67.2-.7.24-.71.89,0,.35.01.69-.02,1.04-.03.25-.13.49-.44.52-.22.02-.37-.11-.48-.29-.13-.21-.22-.57-.39-.61-1.01-.25-1.03-1.11-1.2-1.87-.09-.41-.33-.71-.62-1-.33-.33-.29-.72-.16-1.12.21-.12.42-.24.63-.36.51-.3.98-.34,1.48.05.26.2.62.27.93.4Z"/>
    <path class="cls-6" d="m157.55,11.43c-.25.71.15,1.37.14,2.06,0,.25.06.49.08.74.01.21-.08.41-.27.48-.19.07-.4.04-.55-.13-.74-.86-1.55-1.69-1.28-2.99.62-.16,1.23-.37,1.89-.16Z"/>
    <path class="cls-6" d="m147.67,13.93c-.25.91-.77,1.44-1.78,1.41-.28,0-.59.11-.84.24-.48.26-.95.17-1.42.03.05-.36.17-.7.51-.86.94-.45,1.92-.77,2.95-.93.18-.03.39.07.58.11Z"/>
    <path class="cls-6" d="m154.36,11.81c-.11.58-.3,1.13-.23,1.75.05.45-.41.67-.83.45-.04-.02-.08-.06-.12-.08-.75-.31-1.04-.86-.88-1.65.62-.46,1.29-.68,2.06-.47Z"/>
    <path class="cls-6" d="m109.8,14.33c-.04.1-.09.24-.16.37-.13.26-.58.29-.76.06-.03-.04-.09-.07-.09-.11-.15-1.14-.6-2.18-.96-3.26-.07-.2.08-.37.26-.48.24-.14.57-.16.68.04.52.96.96,1.95,1.09,3.05.01.09-.03.19-.06.33Z"/>
    <path class="cls-6" d="m113.57,6.09c.97.37,1.01.37.93,1.22-.04.47-.02.89.24,1.29.08.12.13.27.17.41.11.38-.02.8-.27.94-.29.15-.72-.13-.84-.64-.25-1.06-.69-2.11-.22-3.22h-.01Z"/>
    <path class="cls-6" d="m103.46,10.11c.12-.27.59-.37.78-.16.75.82.95,1.82.92,2.89,0,.2-.15.37-.37.4-.28.04-.54-.09-.59-.34-.19-.87-.48-1.71-.79-2.54-.03-.07.04-.19.05-.25Z"/>
    <path class="cls-6" d="m124.18,6c.12-.35.29-.53.55-.57.3-.05.5.15.54.4.07.44.1.89.08,1.33-.01.26-.23.44-.5.48-.3.04-.49-.15-.54-.4-.08-.44-.1-.88-.13-1.24Z"/>
    <path class="cls-6" d="m72.38,16.19c-.09-.04-.21-.05-.26-.12-.31-.43-.4-.9-.17-1.4.12-.26.55-.29.75-.05.35.41.33,1.08-.06,1.48-.06.06-.18.06-.27.09Z"/>
    <path class="cls-6" d="m75.26,20.57c-.48-.08-.86-.82-.65-1.27.09-.2.3-.26.49-.18.44.19.66.55.68,1.03,0,.19-.34.46-.52.42Z"/>
    <path class="cls-6" d="m100.65,15.04c-.41-.13-.72-.73-.61-1.18.05-.22.39-.35.6-.24.38.2.54.54.61.93.04.25-.35.56-.6.48Z"/>
    <path class="cls-6" d="m95.92,15.42c.03-.22.38-.38.58-.28.4.18.59.52.67.91.04.2-.08.39-.28.46-.13.04-.32.09-.41.03-.38-.26-.62-.62-.56-1.11Z"/>
    <path class="cls-6" d="m120.52,8.2c-.08.29-.17.59-.55.58-.38-.01-.66-.47-.56-.87.08-.34.42-.58.77-.53.33.05.45.35.34.82Z"/>
    <path class="cls-6" d="m83.66,18c.03-.05.05-.11.09-.13.37-.24,1.13.07,1.17.5.03.26-.06.51-.3.62-.18.08-.39.04-.54-.11-.24-.24-.5-.48-.41-.87Z"/>
    <path class="cls-6" d="m72.39,23.34c.08-.35.29-.43.55-.41.35.03.59.27.57.54-.02.26-.34.55-.59.55-.32,0-.59-.38-.53-.68Z"/>
    <path class="cls-6" d="m108.16,15.41c.21.08.31.25.28.47-.04.25-.34.39-.58.27-.21-.11-.25-.29-.18-.5.08-.23.27-.26.48-.24Z"/>
    <path class="cls-7" d="m141.91,16.12c-.17-.17-.19-.41.02-.49.67-.24,1.18-.66,1.59-1.23.16-.22.4-.27.66-.28.3-.01.6-.04.9-.07.7-.05,1.35-.23,1.98-.6,1.21-.72,2.54-1.19,3.92-1.49,2.4-.53,4.8-1.05,7.21-1.55,2.02-.42,4.07-.57,6.14-.42.95.07,1.87.33,2.83.33.93,0,1.62-.41,1.89-1.31.02-.06-.07-.16-.13-.23-.02-.02-.11-.03-.13-.01-.09.12-.16.26-.25.38-.66.91-1.77.99-2.83.4-.09-.05-.16-.28-.13-.39.03-.09.23-.14.36-.16.09-.02.19.04.29.05,1.25.2,1.85-.17,2.24-1.38.11-.36-.34-1.19-.68-1.19-.13,0-.29.08-.39.18-.35.37-.74.69-1.21.88-.52.22-1.06.32-1.58-.01-.07-.05-.13-.17-.13-.25,0-.08.09-.19.16-.22.13-.05.29-.09.43-.08.37.03.7-.05,1.01-.24.29-.19.73-.36.67-.73-.07-.47-.55-.28-.87-.29-1.66-.04-3.32-.04-4.84-.83-.53-.27-1.05-.25-1.6-.06-.47.16-.96.3-1.44.4-.1.02-.27-.12-.34-.23-.08-.13-.03-.32.11-.38,1.2-.5,2.34-1.08,3.73-.42,1.38.66,2.91.74,4.42.71.82-.02,1.6,0,2.23.64.8.84,1.6,1.69,1.72,2.91.07.67-.1,1.29-.61,1.79-.47.46-.96.88-1.64,1-.65-.12-1.28-.43-2.28-.3.98.38,1.71.52,2.45.62,1.23.41,2.47.81,3.57,1.52.74.47,1.52.77,2.38.88,2.66.35,5.17,1.26,7.72,2.04.38.12.73.33,1.11.46,1.16.39,1.74,1.65,1.36,2.99-1.24,4.36-5.25,5.4-8.56,3.66-.4-.21-.76-.48-1.15-.72-.21-.13-.4-.34-.68-.23-.59.25-1.08-.1-1.58-.29-1.87-.72-3.78-1.37-5.67-2.04-3-1.07-6.08-1.76-9.21-2.27-1.58-.26-3.15-.62-4.78-.61-2.14.02-4.18.5-6.17,1.25-.07.03-.12.13-.15.21-.04.12.02.18.15.21,1.31.37,2.63.74,3.99.73,1.48-.02,2.86.53,4.31.6.38.02.67.31.8.63.35.92,1,1.61,1.63,2.33.51.57.82,1.26.86,2.05.1,1.94-1.67,3.18-3.47,2.41-.98-.89-2.19-.77-3.39-.85-1.6-.1-3.2-.3-4.8-.48-.61-.07-1.19-.09-1.79.08-1.02.28-2.07.39-3.13.06-.18.21-.35.39-.51.58-1.81,2.21-3.96,3.99-6.51,5.28-1.12.57-2.19,1.23-3.22,1.96-.98.7-2.04,1.28-3.13,1.8-.11.05-.32.03-.39-.05-.15-.16-.11-.4.05-.54.22-.2.48-.36.74-.5.95-.48,1.82-1.07,2.7-1.65.84-.55,1.69-1.1,2.58-1.55,2.21-1.14,4.18-2.6,5.87-4.43.75-.81,1.47-1.65,1.98-2.64.09-.18.15-.37.36-.45.05-.02.11-.04.14-.02.08.05.18.11.21.19.11.31-.07.58-.14.87-.1.43,0,.61.39.58.6-.04,1.22-.04,1.79-.21.65-.19,1.28-.24,1.93-.17,1.3.14,2.59.3,3.89.44.75.08,1.51.19,2.25.14.76-.05,1.39.11,1.95.58.56.47,1.18.51,1.84.28.69-.24,1-.7,1.01-1.5,0-.26-.27-.43-.51-.27-.83.55-1.69.58-2.59.25-.19-.07-.38-.15-.45-.37-.03-.09-.07-.2-.04-.28.05-.15.21-.27.35-.21.56.26,1.11.44,1.73.24.72-.23.93-.99.4-1.53-.18-.19-.37-.31-.66-.23-.54.14-1.09.21-1.64.08-.24-.06-.5-.1-.67-.3-.1-.12-.16-.26-.06-.39.05-.07.16-.15.23-.14.49.07.98.2,1.49.09.18-.04.28-.15.29-.29.03-.43-.31-.99-.69-1.04-1.09-.14-2.13-.56-3.26-.56-1.61,0-3.21-.23-4.76-.67-1.02-.29-2.05-.48-3.11-.54-.35-.02-.75,0-1.03-.17-.87-.51-1.35-.12-1.84.58-.95,1.35-1.97,2.67-2.94,4-.14.2-.28.43-.32.67-.08.51-.32.82-.84.92-.47.1-.75.49-1.08.79-.78.74-1.67,1.28-2.68,1.65-.18.07-.39.09-.58.09-.06,0-.16-.11-.19-.19-.03-.08,0-.2.04-.28.05-.08.14-.16.22-.19,2.26-.87,3.73-2.67,5.17-4.48,1.03-1.3,1.97-2.66,2.96-3.99.3-.4.56-.84,1.02-1.08.21-.14.43-.15.67-.08.04.19.02.48.13.54.71.4,1.46.59,2.28.32,1.28-.43,2.56-.87,3.86-1.27,1.84-.56,3.72-.8,5.65-.6,2.55.26,5.06.75,7.57,1.26,3.16.65,6.17,1.8,9.19,2.87.71.25,1.42.51,2.13.75.06.02.19-.04.23-.1.05-.07.07-.2.03-.27-.16-.31-.35-.61-.53-.91-.29-.47-.59-.93-.87-1.41-.1-.18-.12-.39.14-.49.15-.06.31-.06.4.07.44.61.92,1.2,1.28,1.85.68,1.25,1.71,2.09,2.96,2.68,1.87.89,3.69.78,5.41-.43.37-.26.65-.58.84-1.03.24-.58.23-1.28.83-1.69.1-.07.11-.27.13-.42.1-.86-.23-1.42-1.03-1.81-1.18-.58-2.46-.85-3.71-1.22-1.63-.49-3.24-1.05-4.97-1.18-.86-.07-1.64-.42-2.38-.87-1.74-1.04-3.61-1.74-5.62-2.02-1.59-.22-3.14-.69-4.76-.71-.73-.36-1.48-.19-2.21-.03-2.55.54-5.11,1.07-7.65,1.64-1.38.31-2.7.79-3.9,1.55-.35.23-.69.36-1.11.35-.82-.02-1.33.78-2.13.87-.03,0-.05.08-.06.13-.09.35-.33.46-.67.44-.3-.02-.6,0-.9,0l-.1-.03h-.1Z"/>
    <path class="cls-7" d="m88.65,55.32c.53.8.92,1.26,1.17,1.79.26.55.65.98,1.02,1.45,1.38,1.74,2.57,3.6,3.41,5.66.21.51.43,1.02.64,1.53.4.99.95,1.88,1.66,2.67,1.26,1.39,2.2,2.98,2.96,4.7.4.91.61,1.79.11,2.74-.29.54-.24,1.18-.25,1.78,0,.63-.21,1.18-.54,1.7-.36.56-.58.66-1.25.55-.94-.14-1.7-.6-2.25-1.38-.4-.58-.74-1.2-.94-1.88-.46-1.52-1.29-2.82-2.26-4.06-1.18-1.51-2.31-3.04-3.82-4.25-.12-.09-.22-.22-.34-.3-2.28-1.44-4.05-3.44-5.89-5.35-1.57-1.63-3.32-3.05-5.17-4.34-.56-.39-1.27-.59-1.92-.86-.92-.4-1.84-.82-2.78-1.17-1.66-.6-2.89-1.78-4.15-2.94-.14-.12-.21-.33-.28-.51-.02-.06.05-.19.12-.25.06-.06.2-.1.26-.07.18.09.36.19.49.33,1.52,1.62,3.46,2.55,5.45,3.4.51.22,1.01.46,1.53.64,1.65.56,3,1.61,4.32,2.69.85.7,1.64,1.48,2.42,2.26,2.05,2.07,4.14,4.1,6.54,5.76,1.87,1.29,3.2,3.03,4.35,4.93.49.81.97,1.65,1.36,2.52.19.43.55.71.75,1.11.17.34.33.43.68.23.32-.18.55.1.79.27.28.19.57.18.85.04,1.03-.49,1.61-1.87,1.17-2.91-.46-1.11-.96-2.19-1.77-3.13-.79-.91-1.46-1.92-2.16-2.9-.47-.66-.84-1.37-1.09-2.14-.77-2.37-2.08-4.45-3.51-6.47-.92-1.31-1.92-2.57-2.82-3.89-.56-.82-1.35-1.08-2.2-.97-.82.11-1.67.03-2.49.4-.62.28-1.38.22-2.02-.21-.14-.09-.17-.25-.08-.4.05-.07.15-.17.22-.16.5.05.98.19,1.49.09.7-.12.75-.21.37-.92-.07-.13-.13-.26,0-.41.11-.13.26-.13.4-.11.15.03.3.05.43.12.77.4,1.6.58,2.43.79,3.2.84,6.05,2.41,8.85,4.1.38.23.72.54,1.06.84.2.17.3.42.09.65-.18.21-.38.05-.53-.07-1.77-1.44-3.86-2.32-5.86-3.36-.22-.11-.47-.16-1.08-.35Zm9.72,22.17q-1.2.11-2.42-.32c-.21.83.28,1.28.87,1.66.84.54,1.27.35,1.56-.65.07-.23.16-.47,0-.7Z"/>
    <path class="cls-7" d="m60.13,18.26c.05-.09.08-.25.18-.33.36-.28.71-.57,1.11-.77.77-.4,1.39-.96,2-1.57,1.55-1.57,3.14-3.11,4.73-4.64.55-.52,1.18-.93,1.89-1.22,1.43-.61,2.86-1.25,4.3-1.83,3.68-1.5,7.42-2.82,11.2-4.02,3.07-.98,6.25-1.48,9.43-1.96,2.88-.44,5.75-.89,8.67-1.04,2.02-.1,4.01.03,6.01.26.62.07,1.26.35,1.82-.28.24-.27.67-.04,1.01.02,1.78.32,3.56.65,5.34.99.44.08.77.05,1.04-.35.36-.52,1.12-.39,1.51-.9.09-.12.3,0,.38.13.13.21.23.44.34.67.09.18.2.36.07.56-.18.28-.41.16-.66.08-.5-.16-.96-.17-1.29.37-.17.27-.51.33-.81.35-.5.02-1.01.05-1.5-.03-3.17-.56-6.39-.67-9.59-1-2.71-.28-5.42,0-8.11.37-3.38.47-6.76.94-10.1,1.68-1.82.4-3.6.91-5.36,1.52-4.22,1.47-8.43,2.98-12.54,4.76-.94.41-1.75.92-2.42,1.72-1.03,1.23-2.17,2.36-3.51,3.29-.69.47-1.41.96-1.76,1.81-.08.2-.35.4-.57.45-.81.2-1.43.7-2.1,1.14-.12.08-.28.13-.42.14-.17.01-.25-.12-.3-.33Z"/>
    <path class="cls-7" d="m87.77,41.85c-.05-.18-.18-.38.04-.53.21-.14.37.01.51.16.03.03.06.08.07.13.47,1.68,1.76,2.76,2.85,4,.31.36.63.44,1.06.26.55-.24,1.11-.46,1.68-.66.1-.04.29.05.39.13.13.12.07.3-.04.4-.18.17-.4.3-.6.45-.8.63-.88,1.41-.12,2.14.98.94,1.98,1.85,3.05,2.69,1.15.9,2.25,1.85,3.29,2.87,1.79,1.76,3.58,3.52,5.35,5.3.93.93,1.62,2.04,2.12,3.26.26.62.31,1.26.35,1.91.04.56-.24.96-.64,1.29-.38.31-.81.41-1.26.17-1.55-.82-3.13-1.6-4.64-2.49-.99-.58-1.87-1.34-2.79-2.03-.11-.08-.19-.23-.25-.36-.03-.07,0-.2.04-.27.05-.07.18-.17.23-.15.23.08.46.18.67.31,1.39.9,2.78,1.8,4.15,2.72.89.6,1.9.88,2.92,1.13.2.05.41.02.56-.13.09-.1.22-.28.18-.37-.06-.16-.22-.06-.34,0-.13.07-.28.12-.41.18-.07-.16-.14-.31-.2-.47.58-.34.56-.9.5-1.46-.04-.33-.26-.5-.63-.48-.25.01-.5.08-.74.07-.13,0-.33-.11-.36-.21-.05-.22.09-.36.33-.37.1,0,.21,0,.3-.03.23-.08.32-.25.17-.45-.78-1.11-1.64-2.16-2.64-3.07-1.44-1.32-2.88-2.64-4.37-3.9-2.22-1.88-4.34-3.87-6.38-5.94-1.33-1.35-2.64-2.75-3.58-4.42-.17-.65-.52-1.21-.83-1.79Z"/>
    <path class="cls-7" d="m137.11,4.68c-.15-.09-.29-.15-.31-.33-.03-.26.15-.39.33-.41.29-.04.6,0,.9.03,2.65.32,5.27.78,7.88,1.32,2.88.6,5.77.71,8.69.38.7-.08,1.39-.21,2-.59.14-.09.3-.05.4.07.16.19.07.4-.06.54-.13.14-.32.25-.49.33-.5.24-1.05.34-1.6.42-3.12.44-6.21.32-9.29-.35-2.6-.58-5.24-.94-7.87-1.35-.2-.03-.4-.04-.57-.05Z"/>
    <path class="cls-7" d="m122.66,37.67c.07.07.17.12.2.2.03.08.01.2-.04.28-.18.27-.49.34-.76.46-2.57,1.09-5.25,1.7-8.06,1.63-2.66-.06-5.32-.2-7.97-.29-.75-.03-1.5,0-2.25,0-.17,0-.25-.14-.29-.29-.06-.18.06-.3.19-.36.52-.25,1.08-.2,1.62-.18,2.11.07,4.21.15,6.32.24,2.31.11,4.61.12,6.89-.43,1.17-.28,2.32-.63,3.44-1.09.23-.09.45-.23.72-.15Z"/>
    <path class="cls-7" d="m34.23,22c-.02.28.11.44.26.57,1.5,1.42,2.6,3.18,3.96,4.72.43.49.76,1.06.92,1.71.03.14.09.31.04.44-.04.12-.18.22-.3.28-.05.03-.21-.04-.24-.1-1.16-2.5-3.12-4.39-4.9-6.41-1.08-1.23-1.02-1.67.49-2.23,1.18-.43,2.37-.83,3.56-1.21,1.31-.42,2.66-.47,4.02-.3.25.03.5.11.65.33.05.07.09.19.07.27-.02.08-.11.2-.18.21-.19.03-.39.03-.58,0-1.58-.24-3.09-.02-4.58.54-.84.32-1.71.57-2.56.87-.23.08-.44.21-.63.3Z"/>
    <path class="cls-7" d="m38.01,46.15c-.16.18-.28.32-.4.46-.12.14-.35.13-.39.04-.19-.47-.73-.65-.89-1.16-.16-.5-.57-.78-1.08-.94-.48-.15-.94-.34-1.39-.56-.22-.11-.4-.3-.56-.49-.09-.11-.13-.28.02-.4.07-.06.21-.12.26-.09.96.63,2.2.66,3.1,1.43.19.16.37.07.49-.12.24-.35.48-.31.7,0,.26.37.47.77.73,1.14.29.41.58.81,1.06,1.04,1.33.62,1.86,1.9,2.53,3.06.08.13.02.29-.14.37-.15.08-.29.05-.42-.04-.34-.24-.5-.62-.7-.96-.36-.61-.77-1.16-1.44-1.49-.59-.29-.98-.84-1.49-1.29Z"/>
    <path class="cls-7" d="m33.5,36.47c.21.06.33.16.34.32.02.23-.1.39-.33.43-1.41.22-2.64.95-3.95,1.45-.41.16-.48.49-.2.84.15.2.32.39.51.55.54.44,1.12.85,1.65,1.31.32.27.89.34.87.92-.01.34-.52.25-1.27-.27-.58-.4-1.13-.84-1.69-1.26-.16-.12-.32-.24-.45-.4-.96-1.14-1.08-1.85.47-2.5.83-.35,1.66-.73,2.49-1.07.51-.21,1.04-.39,1.55-.31Z"/>
    <path class="cls-7" d="m57.2,26.1c2.51.75,4.28,2.14,5.49,4.23.05.08.08.19.08.28,0,.09-.05.22-.11.25-.12.06-.32.12-.4.06-.2-.14-.38-.33-.51-.54-.99-1.59-2.38-2.68-4.13-3.34-.23-.09-.45-.23-.67-.35-.15-.08-.2-.23-.17-.37.06-.25.27-.25.47-.22.05,0,.1.02-.05-.01Z"/>
    <path class="cls-7" d="m120.57,32.72s.12-.21.23-.25c.33-.11.67-.2,1.01-.26,1.53-.3,2.99-.77,4.31-1.65.32-.22.72-.33,1.09-.47.05-.02.17.1.22.17.05.08.07.2.05.28-.03.09-.12.16-.2.22-1.83,1.28-3.86,2.09-6.07,2.4-.14.02-.3.01-.44-.04-.13-.05-.27-.14-.2-.41Z"/>
    <path class="cls-7" d="m49.9,22.19c1.08.26,2.14.67,3.01,1.46.15.13.27.28.38.45.04.06.04.19,0,.27-.07.15-.22.2-.37.16-.09-.02-.19-.06-.26-.12-1.29-1.17-2.92-1.42-4.55-1.69-.29-.05-.61-.01-.85-.22-.1-.09-.18-.24-.2-.37-.03-.17.13-.27.28-.26.84.07,1.7.04,2.56.32Z"/>
    <path class="cls-7" d="m35.4,37.75c.31-1.59.84-3.09,1.7-4.46.11-.18.31-.25.51-.11.13.09.18.24.12.39-.08.24-.16.48-.27.7-.91,1.75-1.48,3.61-1.79,5.55-.02.1-.03.2-.06.29-.06.19-.12.38-.39.3-.24-.07-.28-.26-.27-.47,0-.2.03-.4.07-.59.12-.54.25-1.07.37-1.61Z"/>
    <path class="cls-7" d="m87.77,41.85c.31.58.66,1.14.83,1.79-.13.06-.27.11-.38.19-.3.23-.57.16-.76-.11-.25-.36-.44-.77-.66-1.15-.32-.55-.63-1.1-.97-1.64-.1-.17-.24-.03-.36.05h0c.14-.03.3-.11.23-.28-.16-.36-.38-.7-.53-1.07-.04-.11,0-.31.08-.4.17-.18.39-.1.51.06.35.49.67,1,.99,1.5.22.34.41.68.63,1.02.1.15.24.11.38.03Z"/>
    <path class="cls-7" d="m104.09,30.87c-.1-.03-.31-.06-.48-.15-.11-.06-.22-.22-.23-.34,0-.23.17-.34.4-.33.25.01.5.04.74.08,1.5.23,2.98.33,4.46-.16.13-.04.3-.04.38.14.09.22.03.41-.16.51-.27.13-.55.24-.84.31-1.39.33-2.78.25-4.26-.04Z"/>
    <path class="cls-7" d="m59.76,50.25c1.33.12,2.66.26,4.01.17.34-.02.69.05,1.03.11.16.02.25.15.26.32.02.26-.24.39-.37.37-1.13-.25-2.27.11-3.39-.04-.3-.04-.63-.03-.87-.16-.38-.21-.51.07-.75.22-.12.08-.24-.08-.29-.23.28-.17.28-.48.37-.74Z"/>
    <path class="cls-7" d="m75.18,53.68c.05-.09.11-.17.14-.26.23-.65.27-.68.77-.47.41.18.8.4,1.22.55.67.24,1.29.76,2.08.4.05-.02.17.08.24.14.04.03.08.08.08.12,0,.08-.02.24-.04.24-.39.03-.75.12-1.09.35-.21.14-.49,0-.71-.12-.61-.35-1.27-.56-1.95-.72-.28.02-.54-.03-.76-.24Z"/>
    <path class="cls-7" d="m96.91,43.6c-.16-.82-.17-.85.34-1.09.4-.19.83-.34,1.25-.49.14-.05.32.04.34.2.02.13-.02.34-.11.39-.34.21-.7.38-1.06.55-.32.14-.27.34-.15.59.1.2.05.42-.16.51-.7.31-1.44.33-2.19.22-.07-.01-.19-.14-.18-.2.02-.13.08-.35.16-.37.58-.13,1.17-.21,1.76-.31Z"/>
    <path class="cls-7" d="m65.08,45.12c-.46.96-1.02,1.89-2.02,2.46-.21.12-.45.24-.7.1-.13-.07-.25-.17-.16-.35.02-.04.04-.11.07-.13,1-.55,1.61-1.45,2.12-2.43.04-.08.12-.16.19-.22.13-.11.28-.1.4,0,.07.05.13.15.14.24.01.09-.03.19-.05.34Z"/>
    <path class="cls-7" d="m133.58,1.46c.08.04.2.06.25.13.08.11.15.25.17.39,0,.06-.12.19-.2.19-1.19.04-2.39.1-3.56-.15-.22-.05-.29-.24-.26-.46.03-.17.16-.26.31-.25,1.09.05,2.18.1,3.28.16Z"/>
    <path class="cls-7" d="m56.94,50.23c.23.07.3.26.34.46.05.24.16.54-.09.69-.64.37-1.3.7-1.97,1.02-.09.04-.3-.04-.38-.13-.08-.09-.13-.31-.08-.39.51-.76,1.3-1.19,2.05-1.65.03-.02.09,0,.13.01Z"/>
    <path class="cls-7" d="m35.51,41.04c.05-.04.12-.12.2-.15.11-.04.21.02.22.14.06.61.33.98.98,1.09.23.04.24.53.03.78-.13.16-.33.25-.51.1-.2-.18-.43-.23-.66-.3-.14-.05-.23-.16-.23-.33,0-.43-.02-.87-.03-1.32Z"/>
    <path class="cls-7" d="m75.18,53.68c.21.21.48.25.76.24.18.13.24.29.12.5-.09.15-.25.17-.38.14-.33-.08-.72-.12-.98-.32-.42-.32-1.25-.14-1.25-.99.63-.32,1.1.13,1.61.34.04.02.08.06.11.09Z"/>
    <path class="cls-7" d="m37.49,31.64c-.01-.58.39-.93.84-1.25.12-.09.28-.15.39,0,.08.1.17.29.13.37-.25.52-.53,1.03-.83,1.52-.1.16-.29.27-.51.18-.24-.11-.16-.32-.13-.5.02-.09.07-.18.11-.31Z"/>
    <path class="cls-7" d="m123.41.83c-.21-.1-.37,0-.52.15-.18.17-.37.36-.63.11-.25-.25-.46-.53-.33-.92.08-.24.22-.44.49-.5.22-.05.38.04.53.18.23.22,0,.74.5.8,0,.06-.02.12-.04.18Z"/>
    <path class="cls-7" d="m48.74,54.28c-.52-.08-.72-.1-.91-.14-.21-.04-.38-.17-.32-.39.03-.11.17-.26.28-.28.7-.15,1.36-.04,1.95.37.07.05.11.17.1.25-.01.15-.1.29-.27.27-.39-.03-.77-.08-.83-.09Z"/>
    <path class="cls-7" d="m141.54,17.26c-.23-.06-.46-.05-.67.08-.1-.1-.19-.21-.3-.28-.25-.15-.8.02-.66-.51.1-.4.54-.32.87-.33.38-.02.77.15,1.12-.1h.1s.1.03.1.03c-.18.37-.24.81-.56,1.12Z"/>
    <path class="cls-7" d="m53.89,21.11c.24-.47.56-.96,1.16-1.16.11-.04.28.04.39.12.16.11.07.28-.02.38-.32.37-.65.73-.99,1.08-.11.11-.26.13-.4.04-.13-.09-.18-.22-.14-.45Z"/>
    <path class="cls-7" d="m53.21,53.48c-.02.36-.43.69-1.03.79-.2.03-.4-.07-.44-.31-.04-.27-.28-.61.13-.77.3-.12.69-.02.85-.45.04-.12.25-.15.4-.07.14.08.17.22.14.38,0,.05-.01.1-.06.43Z"/>
    <path class="cls-7" d="m42.54,50.49c.07-.06.13-.17.21-.18.29-.04.45.17.6.36.2.26.36.21.6.02.15-.13.39-.12.49.11.09.22.13.47.18.71,0,.02-.07.07-.1.07-.09-.01-.22-.01-.27-.07-.39-.48-.93-.62-1.51-.7-.11-.02-.3-.11-.19-.32Z"/>
    <path class="cls-7" d="m125.01.46c.14-.21.24-.44.4-.62.22-.25.59-.2.76.06.21.32.19.62-.07.79-.16.11-.35.2-.54.25-.13.03-.32.02-.41-.06-.09-.08-.1-.26-.15-.42Z"/>
    <path class="cls-7" d="m118.87,32.39c-.12-.12-.22-.18-.24-.26-.02-.08,0-.21.06-.27.34-.31.76-.44,1.21-.44.08,0,.18.09.22.16.04.07.06.22.01.27-.34.41-.8.51-1.26.54Z"/>
    <path class="cls-7" d="m127.66.55c.07-.07.19-.21.34-.32.22-.17.4-.48.75-.26.26.17.07.64-.37.93-.17.11-.35.18-.54.11-.15-.06-.22-.18-.17-.45Z"/>
    <path class="cls-7" d="m63.72,43.65c.11-.39.42-.75.82-1.03.06-.04.2-.02.27.02.07.04.17.15.15.21-.12.54-.37,1-.95,1.16-.12.03-.28-.07-.29-.35Z"/>
    <path class="cls-7" d="m123.41.83c.03-.06.04-.12.04-.18.13-.33.35-.6.68-.75.19-.09.4-.05.54.11.14.17.11.37-.04.53-.24.25-.5.48-.88.52-.17.01-.26-.1-.34-.23Z"/>
    <path class="cls-7" d="m59.76,50.25c-.08.27-.09.57-.37.74-.32-.03-.6.47-.93.08-.19-.22.08-.54.64-.76.21-.08.41-.3.66-.07Z"/>
    <path class="cls-7" d="m116.23,32.63c.04-.29.31-.47.76-.47.21,0,.39.1.39.33,0,.11-.12.28-.22.32-.22.08-.46.12-.69.14-.17,0-.22-.15-.23-.32Z"/>
    <path class="cls-7" d="m57.12,19.11c.22,0,.29.12.29.27,0,.3-.26.57-.54.52-.1-.02-.24-.18-.25-.29-.04-.28.23-.51.5-.51Z"/>
    <path class="cls-7" d="m85.48,40.98c-.26.19-.03.45-.11.66-.05.13-.14.3-.24.32-.1.02-.29-.09-.35-.2-.1-.17-.08-.38.09-.52.18-.15.5.05.61-.25h0Z"/>
    <path class="cls-7" d="m58.05,19.38c-.2-.1-.26-.26-.2-.46.05-.16.18-.21.34-.18.26.05.37.34.23.54-.08.11-.24.15-.37.1Z"/>
    <path class="cls-7" d="m167.79,11.59c-.74-.09-1.47-.23-2.45-.62.99-.14,1.62.17,2.28.3.06.11.12.21.18.32Z"/>
    <path class="cls-7" d="m106.19,64.37c-.29.13-.58.1-.84-.05-.11-.06-.25-.22-.24-.31.03-.24.24-.25.45-.21.14.03.29.07.43.11.07.16.14.31.2.47Z"/>
    <path class="cls-8" d="m45.1,42.16s-.34-.91.27-1.78.75-.54.78-.25.44,1.01.28,1.34-.24.89-.73,1.08-.37.26-.59-.39Z"/>
    <path class="cls-8" d="m46.16,41.6s.22.32.57.3l.35-.02s-.35.91.62,2.09.61,1.91.96,2.33c0,0,.6.84.27-.36s.15-1.05-.51-1.82-1.32-1.92-.94-2.16.39-.65,2.14-.88,1.99-.8,2.08-1.18.51-1.36.33-1.29-.23-.26-.77.23c0,0,.16.72-.56,1.02s-1.65.73-2.47.78-.89.83-.89.83c0,0-1.02.27-1.02-.29l-.16.41Z"/>
    <path class="cls-6" d="m41.8,28.01s-1.96-3.34-2.61-3.74c-.91-.58-1.7-1.57.25-1.57,1.95,0,3.63.47,4.31.92s1.29.59,1,1.12-1.55,1.3-1.69,1.81-.7,2.47-1.26,1.46Z"/>
    <path class="cls-7" d="m45.26,44.94c-.06.06-.15.1-.19.17-2.02,3.1-3.96,6.23-5.29,9.62-.06.16-.15.31-.24.46-.07.11-.17.19-.28.14-.12-.05-.12-.17-.09-.29.09-.28.19-.57.31-.84.24-.56.49-1.11.74-1.66.07-.16.14-.32.23-.47l.96-1.82c.17-.47.48-.92.76-1.37.89-1.46,1.75-2.94,2.82-4.29,0,0,.43-.34.27.34Z"/>
    <path class="cls-7" d="m43.94,52.21c-.36,1.36-.74,2.78-1.12,4.19-.11.4-.23.81-.37,1.21-.04.12-.17.19-.29.18-.14,0-.14-.14-.11-.26.34-1.34.69-2.67,1.03-4.01.11-.44.23-.88.35-1.33l.33-1.13c.22-.73.42-1.46.63-2.18.1-.32.21-.64.33-.96.06-.17.22-.35.35-.33.14.01.15.2.09.38-.28.93-.55,1.86-.82,2.78-.06.2-.09.4-.16.71l-.25.74Z"/>
    <path class="cls-7" d="m49.72,35.93c-.03-.08-.08-.16-.09-.24-.25-3.69-.42-7.37.08-10.98.02-.17.02-.35.02-.52,0-.13-.05-.25-.18-.26-.12-.02-.19.09-.22.21-.06.29-.11.59-.14.89-.06.6-.11,1.21-.16,1.81-.01.17-.03.35-.02.52l-.05,2.06c-.08.5-.03,1.04,0,1.57.07,1.71.09,3.42.37,5.12,0,0,.21.51.41-.16Z"/>
    <path class="cls-7" d="m52.12,28.94c.35-1.37.71-2.78,1.07-4.2.1-.4.19-.82.26-1.23.02-.13-.06-.25-.16-.3-.13-.06-.19.05-.22.17-.36,1.33-.71,2.67-1.06,4-.12.44-.23.89-.34,1.33l-.26,1.15c-.17.74-.35,1.47-.51,2.21-.07.33-.13.66-.18,1-.03.18.02.41.14.46.13.06.23-.1.27-.29.21-.95.43-1.89.64-2.83.05-.2.11-.39.2-.7l.15-.77Z"/>
    <path class="cls-7" d="m54.66,31.71c.42-.96.86-1.96,1.29-2.96.12-.28.24-.58.34-.87.03-.09-.01-.19-.08-.24-.09-.06-.15.01-.19.1-.42.94-.84,1.87-1.26,2.81-.14.31-.27.62-.41.94l-.33.81c-.21.52-.43,1.04-.64,1.56-.09.23-.18.47-.26.71-.04.13-.03.3.05.36.09.06.18-.05.23-.18.27-.67.54-1.34.81-2,.06-.14.13-.28.23-.49l.2-.55Z"/>
    <path class="cls-6" d="m56.46,39.15c.04.09-.02-.05,0,.01.03.08.06.16.09.23.1.28.18.56.25.84.2.84.28,1.72.2,2.59-.19,1.93-1.32,3.78-3.11,4.59-.33.15-.27.4.04.51.39.14.9.07,1.27-.1,3.37-1.52,4.47-5.77,2.97-9-.2-.44-1.96-.2-1.72.33h0Z"/>
    <path class="cls-7" d="m46.07,34.1s-.41,3.33.34,3.7.3-1.37.38-2.29.08-2.85-.71-1.41Z"/>
    <path class="cls-7" d="m47.67,34.41s-2.93,1.63-2.79,2.45,1.28-.56,2.07-1.05,2.35-1.61.72-1.41Z"/>
    <path class="cls-7" d="m42.43,42.09s-.41,3.33.34,3.7.3-1.37.38-2.29.08-2.85-.71-1.41Z"/>
    <path class="cls-7" d="m44.03,42.39s-2.93,1.63-2.79,2.45,1.28-.56,2.07-1.05,2.35-1.61.72-1.41Z"/>
  </g>
  <path class="cls-1" d="m138.49,53.29s25.19,7.1,42.48,4.26c2.47-.41,4.78-1.01,6.83-1.87,16.4-6.89,17.62-10.07,9.86-10.27-7.76-.2-37.45,12.64-15.23,18.3,22.21,5.66,25.75-7.69,52.14-7.73,26.39-.04,27.05,10.86,49.14,4.66"/>
  <path class="cls-5" d="m19.36,31.38c-.75.39-1.39-1.04-1.45-1.54-.11-.84.16-1.68.52-2.42.66-1.35,1.72-2.52,3.02-3.27.51-.29.98-.48,1.47-.07.27.22.49.51.68.81.41.63.66,1.34.76,2.08.19,1.4-.16,2.82-1.04,3.93l1.1-.06c-1.46-1.06-.4-3.01.92-3.58.43-.19.93-.34,1.35-.04.34.24.56.66.66,1.05.24.91-.09,1.86-.39,2.71h1.16c-.23-.31-.33-.65-.27-1.04s.35-.95.79-.97.8.53.91.89c.12.42.06.86-.14,1.25-.16.31,1,.43,1.16.13.76-1.47-.42-2.76-1.92-2.75-.64,0-1.34.2-1.73.74s-.38,1.33.04,1.88c.16.21,1.05.3,1.16,0,.4-1.14.83-2.45.13-3.57-.62-.99-1.88-1.12-2.93-.89s-2.09.8-2.56,1.77-.23,2.05.62,2.66c.24.18.89.2,1.1-.06.97-1.24,1.33-2.87,1.02-4.41-.28-1.39-1.18-3.1-2.74-3.28s-3.1.9-4.14,2c-1.11,1.16-2.24,3.03-1.9,4.71s2.24,2.32,3.66,1.58c.25-.13-.11-.3-.22-.33-.26-.08-.58-.04-.82.09h0Z"/>
  <path class="cls-5" d="m51.6,7.09c.45,2.48-.21,5.32-1.98,7.17-.06.07-.12.12-.18.18.41.1.53.08.37-.06-.06-.13-.18-.24-.23-.4-.11-.31-.17-.68-.13-1.01.03-.17.09-.35.19-.49l.14-.15c-.22-.09-.22-.07,0,.05.24.21.32.54.33.84.02,1.18-.78,3.11-2.08,3.35-.16.03-.48.12-.39.33.08.2.62.13.75.11,1.59-.3,2.42-1.58,2.8-3.07.16-.65.23-1.41-.36-1.87-.51-.41-1.35-.36-1.9-.04-1.1.62-.87,2.83.52,2.87.8.02,1.26-.47,1.72-1.06s.82-1.23,1.11-1.92c.65-1.56.84-3.29.54-4.95-.06-.35-1.26-.22-1.2.1h0Z"/>
  <path class="cls-5" d="m227.62,39.1c4.16-2.41,7.28-5.74,8.93-9.51.18-.4-1.25-.59-1.55-.54-4.17.6-5.45,3.93-5.31,6.75.09,1.95.43,3.88.44,5.85.01,2.02-.18,4.03-.53,6.04-.08.47,1.84.78,1.91.39.61-3.46.62-6.89.23-10.34-.31-2.73-.25-7.31,4.45-7.99l-1.55-.54c-1.63,3.73-4.69,6.99-8.81,9.37-.41.24,1.3.82,1.78.54h0Z"/>
  <path class="cls-5" d="m240.81,30.33c-.82.84-1.42,1.78-1.75,2.8-.04.11.12.22.21.27.18.11.43.18.65.22s.48.08.71.04c.12-.02.32-.04.36-.16.26-.81.7-1.58,1.28-2.28l-.06.07c.13-.15.26-.3.41-.45.24-.24-.32-.44-.54-.5-.24-.07-.5-.12-.75-.11-.14,0-.41,0-.5.1h0Z"/>
  <path class="cls-5" d="m241.99,38.44c-.07,1.97.42,4.2-.86,5.89l1.96.04c.2-.91.66-1.74,1.28-2.43.3-.33.65-.61,1.02-.85.17-.11.35-.21.54-.29.1-.05.21-.09.31-.13.24-.09.34.03-.22-.03l-.6-.16c.16.11.01.61-.03.74-.1.29-.25.58-.38.86-.29.62-.58,1.25-.87,1.87-.25.54,1.66.64,1.93.15,1-1.85,2.54-3.37,4.44-4.29l-1.71-.22c.06.98-.54,1.8-.83,2.7-.11.36-.34.98,0,1.27.5.44,1.5.31,2.1.24.22-.03.86-.17.68-.51s-.96-.27-1.24-.24c-.01,0-.04.01-.05.01l.36.13c-.14-.07.08-.76.12-.87.11-.32.25-.62.39-.93.27-.59.51-1.21.47-1.88-.02-.25-.46-.32-.63-.34-.34-.05-.77-.03-1.09.12-2.09,1.01-3.83,2.62-4.94,4.66l1.93.15c.27-.58.53-1.15.8-1.73.23-.49.53-1.01.59-1.55.17-1.54-2.18-.88-2.97-.53-1.72.78-3,2.31-3.41,4.16-.07.31.75.36.88.36.34,0,.86-.02,1.08-.32,1.33-1.76.86-4.06.93-6.11.02-.54-1.97-.53-1.99.07h0Z"/>
  <path class="cls-5" d="m267.59,38.29c-.24-.47-.75-.73-1.24-.85-.69-.17-1.46-.17-2.12.11-.71.3-2.05,1.37-1.5,2.28.26.42.81.66,1.21.91s.81.51,1.06.93c.21.36.32.86.06,1.23-.1.14-.24.25-.36.3-.04.01-.08.03-.12.04-.13.04.1-.02-.04,0-.03,0-.2.03-.09.02s-.11,0-.13,0c.05,0,.23,0,0,0-.09,0-.18,0-.27-.01-.02,0-.24-.02-.13-.01.07,0-.19-.03-.18-.03-.2-.03-.44-.08-.6-.16-.39-.19-.75-.67-.55-1.13.15-.35-.42-.49-.67-.53s-.52-.05-.77,0c-.13.03-.41.08-.47.21-.51,1.16.75,1.91,1.7,2.17.65.18,1.33.27,2.01.28.59,0,1.21-.03,1.76-.26.48-.2.88-.51,1.01-1.03.11-.44-.06-.95-.31-1.32-.31-.45-.76-.76-1.22-1.04-.21-.13-.43-.25-.63-.39-.18-.12-.38-.23-.41-.46-.06-.49.48-1,.84-1.25.02-.01.32-.21.34-.18,0,0-.34-.01-.35-.01-.05,0-.1-.07-.05-.01.04.05,0-.02.08.05s.14.16.2.26c.26.51,2.19.39,1.93-.11h0Z"/>
  <path class="cls-5" d="m269.77,34.64l.19.16c.06.05.12.09.2.11.09.04.19.06.29.06.13.01.25,0,.37,0,.13,0,.26-.03.39-.07l.23-.08c.12-.05.23-.11.33-.2l.09-.11c.04-.08.03-.15-.03-.21l-.19-.16c-.06-.05-.12-.09-.2-.11-.09-.04-.19-.06-.29-.06-.13-.01-.25,0-.37,0-.13,0-.26.03-.39.07l-.23.08c-.12.05-.23.11-.33.2l-.09.11c-.04.08-.03.15.03.21h0Z"/>
  <path class="cls-5" d="m270.15,36.46c-.29,2.02-.45,4.05-.49,6.09,0,.29.41.46.63.53.34.11.8.21,1.14.06.29-.13.55-.31.76-.56.37-.45-1.46-1.06-1.83-.62-.15.18-.31.32-.52.41l1.77.59c.03-2.04.2-4.07.49-6.09.05-.36-.64-.55-.89-.6-.2-.04-1.01-.18-1.06.18h0Z"/>
  <path class="cls-5" d="m279.61,36.94c-1.11-.74-2.74-.76-3.9-.13-.9.48-1.44,1.46-1.62,2.44-.11.6-.09,1.22-.01,1.82.06.48.12,1.08.42,1.48.48.64,1.46.71,2.18.57.54-.1,1.07-.31,1.52-.61.93-.6,1.59-1.55,1.78-2.64.02-.14-.2-.26-.28-.29-.21-.1-.48-.14-.7-.15-.27,0-.95-.01-1.01.35-.13.69-.46,1.31-.95,1.81-.24.24-.52.44-.81.6-.1.05-.24.11-.39.16-.2.07-.09.02.26.07.39.04.41.14.32-.02-.18-.3-.24-.63-.3-.97-.07-.47-.12-.94-.1-1.41.03-.79.24-1.55.75-2.17.24-.29.54-.52.88-.64.09-.03.02,0,0,0,.02,0,.24-.04.13-.03-.1,0,.04,0,.05,0-.05.03-.16,0-.02,0-.04,0-.09-.02-.14-.02-.12,0,.13.04,0,0,.09.03.15.06.21.11.38.25.92.29,1.36.2.21-.04.77-.27.38-.53h0Z"/>
  <path class="cls-5" d="m282.98,29.91c.16,2.07.15,4.16-.05,6.23-.1,1-.24,1.99-.42,2.97-.1.53-.21,1.06-.33,1.58-.09.38-.14,1.19-.43,1.43l1.48-.07-.07-.02.43.29-.02.1c.34-.44-1.53-.89-1.89-.42l-.04.05c-.06.07-.06.14-.02.21.2.45.99.52,1.41.5.64-.04.76-.36.9-.93.33-1.27.59-2.55.78-3.84.38-2.59.45-5.22.25-7.83-.05-.62-2.02-.71-1.98-.22h0Z"/>
  <path class="cls-5" d="m286.52,36.37c-.06.43-.12.91-.35,1.28-.04.06-.13.16-.16.19.02-.02-.11.05-.03.02.05-.02.1-.05.15-.06.07-.02.13-.03.2-.04s.1.03.06,0c-.02-.02-.16-.06-.24-.09-.25-.13-.63-.06-.88,0-.27.06-.61.17-.8.38-.37.43.02.83.32,1.15.39.42.78.84,1.18,1.26.73.76,1.46,1.75,2.62,1.72.42-.01,1-.1,1.3-.44s-.22-.46-.47-.45c-.22,0,.05.03-.06-.02-.08-.03-.14-.07-.21-.12-.14-.1-.27-.22-.39-.34-.33-.32-.65-.65-.96-.99s-.64-.68-.96-1.02c-.15-.16-.3-.31-.44-.48-.04-.04-.18-.25-.16-.27l-1.68.38c.88.45,2.15.19,2.93-.35.67-.46.85-1.19.96-1.95.05-.38-.54-.36-.79-.33s-.51.09-.74.21c-.12.06-.37.18-.39.33h0Z"/>
</svg>