<?xml version="1.0" encoding="UTF-8"?>
<svg xmlns="http://www.w3.org/2000/svg" xmlns:xlink="http://www.w3.org/1999/xlink" viewBox="0 0 416 361.11">
  <defs>
    <style>
      .cls-1, .cls-2, .cls-3, .cls-4, .cls-5, .cls-6 {
        fill: none;
      }

      .cls-2 {
        clip-path: url(#clippath-3);
      }

      .cls-3 {
        clip-path: url(#clippath-2);
      }

      .cls-4 {
        clip-path: url(#clippath-1);
      }

      .cls-7 {
        fill: #f8eae1;
      }

      .cls-8 {
        fill: #eaddd5;
      }

      .cls-9 {
        fill: #eec899;
      }

      .cls-10 {
        fill: #eea77d;
      }

      .cls-11 {
        fill: #655142;
      }

      .cls-12 {
        fill: #7d727a;
      }

      .cls-13 {
        fill: #241914;
      }

      .cls-14 {
        fill: #5c4c43;
      }

      .cls-5 {
        filter: url(#drop-shadow-1);
      }

      .cls-6 {
        clip-path: url(#clippath);
      }
    </style>
    <clipPath id="clippath">
      <rect class="cls-1" x="448.61" y="85.34" width="398.63" height="275.77"/>
    </clipPath>
    <clipPath id="clippath-1">
      <rect class="cls-1" x="-50.99" y="-131.77" width="909.25" height="606.17"/>
    </clipPath>
    <clipPath id="clippath-2">
      <rect class="cls-1" x="8.68" y="85.59" width="398.63" height="276"/>
    </clipPath>
    <clipPath id="clippath-3">
      <rect class="cls-1" x="-436.74" y="86.1" width="398.84" height="275" transform="translate(-474.63 447.19) rotate(-180)"/>
    </clipPath>
    <filter id="drop-shadow-1" filterUnits="userSpaceOnUse">
      <feOffset dx="0" dy="-2"/>
      <feGaussianBlur result="blur" stdDeviation="5"/>
      <feFlood flood-color="#959cab" flood-opacity=".4"/>
      <feComposite in2="blur" operator="in"/>
      <feComposite in="SourceGraphic"/>
    </filter>
    <image id="image" width="6720" height="4480" xlink:href="../../../../../../../../../../../../Users/pinyiwu/Downloads/still-life-pet-food-assortment.jpg"/>
  </defs>
  <g id="_圖層_3" data-name="圖層 3">
    <g class="cls-6">
      <g class="cls-4">
        <image width="6720" height="4480" transform="translate(-50.99 -131.77) scale(.14)" xlink:href="../../../../../../../../../../../../Users/pinyiwu/Downloads/pink-pet-bag-arrangement.jpg"/>
      </g>
    </g>
    <g class="cls-3">
      <image width="2670" height="4000" transform="translate(-2.26 -108.8) scale(.16)" xlink:href="../../../../../../../../../../../../Users/pinyiwu/Downloads/pexels-arina-krasnikova-7725981.jpg"/>
    </g>
    <g class="cls-2">
      <use transform="translate(42.13 102.91) rotate(-180) scale(.07 -.07)" xlink:href="#image"/>
      <use transform="translate(42.13 103.57) rotate(-180) scale(.07)" xlink:href="#image"/>
    </g>
  </g>
  <g id="bg">
    <g class="cls-5">
      <path class="cls-7" d="m162.01,255.56c.53.28,1.04.63,1.52,1.04.32.28.69.61,1.05.98,1.17.54,2.33,1.09,3.48,1.66,3.55,1.77,6.68,4.08,9.65,6.59,2.33,1.97,4.66,3.92,7.2,5.62,1.12.75,2.22,1.53,3.64,1.6.78.04,1.3.58,1.89,1.03,1.17.9,2.15,1.98,3.11,3.09,2.07,2.4,4.1,4.86,6.39,7.04,2.42,2.3,4.54,4.74,6.12,7.69.57,1.06,1.36,2.07,2.27,2.86,1.02.89,1.94,1.84,2.84,2.84,1.4,1.54,3.22,1.64,4.9.36.68-.52,1.52-1.02,1.6-1.92.17-1.88,1.21-3.79-.03-5.66-.73.24-1.25.74-1.66,1.37-1.07,1.69-2.62,1.9-4.48,1.68-1.48-.18-2.47-.86-3.31-2-2.77-3.72-5.71-7.28-8.33-11.13-3.98-5.85-8.83-11.06-13.57-16.32-.32-.36-.71-.68-1.1-.95-4.23-2.92-8.71-5.41-13.47-7.35-4.39-1.8-8.89-3.28-13.49-4.42-1.42-.35-2.92-.87-4.42-.55,3.16.67,6.14,2.42,8.19,4.86Z"/>
      <path class="cls-7" d="m65.43,218.4c3.03.49,5.42,2.24,7.53,4.27,3.96,3.81,7.71,7.83,11.09,12.16.97,1.24,1.78,2.64,2.4,4.08,1.34,3.12.11,5.85-3.07,7.08-1.26.49-2.57.78-3.94.63-1.09-.12-2.18-.25-3.26-.38,0,.64.11,1.24.7,1.59.74.42,1.49.85,2.27,1.17,2.37.97,4.91,1.44,7.28,2.31,2.36.87,4.61.59,6.79.17,5.9-1.13,5.88-1.26,10.7-5.05.29-.23.56-.48.87-.68,2.67-1.7,5.25-3.58,8.54-3.96,1.48-.17,2.85-.62,4.13-1.41.94-.58,1.99-1,3.13-.9,1.83.17,3.7.22,5.46.69,3.9,1.04,7.63,2.6,11.12,4.61,4.01,2.32,8.18,4.2,12.54,5.71.42-.05.83-.08,1.26-.08-.52-1.5-1.02-3.01-1.57-4.5-.93-2.52-.05-3.86,2.53-3.63,3.27.29,6.55.59,9.79,1.12,3.68.6,7.26.28,10.82-.58,2.03-.49,3.95-.87,5.99.14.93.46,2.14.37,3.24.45,1.24.09,2.39.41,3.42,1.13,1.51-1.12,3.13-.52,4.55-.01,4.58,1.63,9.1,3.45,13.63,5.23,3.17,1.24,6.27,2.68,9.5,3.75,1.42.47,2.72,1,3.95,1.81,2.35,1.55,4.71,3.07,7.07,4.61,2.19,1.43,4.55,2.34,7.2,2.39,2.41.04,4.55-2.15,4.28-4.44-.22-1.82-1.61-2.67-3.06-3.35-.76-.36-1.69-.33-2.46-.66-1.03-.44-1.98-1.06-1.77-2.45.33-2.24-1.04-3.55-2.79-4.23-4.26-1.66-7.72-4.67-11.79-6.64-2.19-1.06-4.23-2.43-6.32-3.69-1.15-.69-2.19-1.5-3.2-2.42-3.24-2.96-5.75-6.63-9.26-9.31-.8-.61-1.26-1.5-1.15-2.57-2.1.08-3.48-.86-4.2-2.85-.31-.87-.91-1.48-1.97-1.15-1.13.34-1.96-.32-2.61-.98-2.05-2.08-3.99-4.27-5.97-6.43-1.19-1.31-1.69-2.89-2.09-4.6-.33-1.4.04-2.41.89-3.33.57-.62,1.25-1.19,1.97-1.64,7.34-4.56,14.67-9.12,22.07-13.59,1.22-.74,2.45-1.6,3.96-1.83.57-.09,1.15-.4,1.64-.74,1.74-1.23,3.7-1.86,5.77-2.2,4.32-.72,8.67-1.11,13.04-1.44,2.55-.19,5.09-.07,7.64-.28,2.51-.2,5.1-.12,7.65-.08,3.54.06,7.03-.01,10.51-.78,1.69-.37,3.32-.85,4.9-1.5,6.21-2.56,12.21-5.51,18.01-8.91,4.25-2.49,7.92-5.72,11.73-8.76,1.92-1.53,3.1-3.75,4.58-5.68,2.45-3.2,4.65-6.55,6.32-10.24.35-.77.97-1.42,1.35-2.18,1.2-2.39,3.17-3.25,5.74-3.03-.21-.8-.47-1.6-.6-2.41-.1-.59,0-1.31.51-1.64,1.34-.89,2.01-2.22,2.72-3.57.19-.35.77-.49,1.17-.73.03-.88.21-1.74.98-2.23,2.14-1.36,4.43-2.42,6.88-3.08.44-.12.95.06,1.43.1,3.24-2.44,6.8-4.25,10.73-5.31,1.36-1.29,2.93-2.01,4.85-1.73.85-.95,1.93-1.08,3.11-.89,1.45-.57,2.88-1.24,4.52-.94,1.16-.92,2.45-1.29,3.91-.91.47-.35.95-.7,1.42-1.06,1.14-.88,2.27-1.09,3.6-.3.69.41,1.57.48,2.36.71.27-.24.55-.47.82-.71,2.4-1.7,5.25-1.74,8-2.1,1.33-.18,2.68-.19,3.99-.42,1.46-.25,2.42-1.14,2.64-2.66.18-1.21.38-2.43.39-3.65.03-2.16-.8-3.07-2.94-4.02-1.48-.65-2.99-.97-4.58-1.18-4.36-.58-8.73-.88-13.13-.73-.88.03-1.7.22-2.49.53-1.81.73-3.6,1.52-5.38,2.3-4.52,1.97-9.31,2.96-14.13,3.77-3.46.58-6.91,1.69-10.5.86-.35-.08-.76-.1-1.09.01-1.71.54-3.4.17-5.1-.01-2.43-.26-4.86-.62-7.3-.8-3.08-.22-5.98-1.01-8.83-2.18-2.01-.83-4.02-1.82-6.3-1.74.4,1.13,1.56,1.51,2.29,2.31,1.51,1.64,1.4,3.98-.57,4.97-1.59.8-2,1.84-2.11,3.44-.16,2.3-.17,4.67-1.38,6.77-.48.85-.84,1.83-1.51,2.49-4.23,4.19-8.9,7.58-15.09,8.36-3.76.47-7.52.7-11.3.86-4.17.18-8.24,1.07-12.21,2.29-3.04.93-6.02,2.05-8.96,3.26-2.94,1.21-5.76,2.69-8.27,4.69-2.68,2.13-5.45,4.16-8.07,6.36-5.16,4.33-10.66,8.21-16.11,12.14-8.39,6.06-17.65,10.43-27.63,13.23-1.65.46-3.27,1.01-4.91,1.5-7.41,2.2-15.04,3.19-22.71,3.83-4.25.35-8.58.4-12.78-.54-6.01-1.34-11.69-3.38-16.14-8.03-3.2-3.35-6.69-6.42-10.05-9.62-2.02-.12-3.91.02-4.69,2.37,2.17.29,3.68,1.8,5.32,2.98,3.59,2.6,6.33,5.95,8.68,9.76,2.04,3.32,4.19,6.56,5.98,10.03,2.64,5.13,4.61,10.48,6.03,16.06.69,2.72,1.4,5.42,1.74,8.21.2,1.62-.04,3.17-.37,4.72-.19.86-1.02,1.39-1.92,1.4-1.08.02-2.13-.6-2.2-1.56-.36-5.37-3.04-10.02-4.55-15.03-.75-2.5-2.16-4.64-3.41-6.86-1.1-1.94-3.01-3.17-4.59-4.68-3.91-3.73-8.58-6.46-13.14-9.3-1.52-.95-3.09-1.61-5.15-1.22-2.45.46-3.35-.45-3.86-3.26-.17-.93.09-1.95.15-2.92-2.05.58-4.1,1.15-6.14,1.75-.52.15-.67.64-.82,1.1,1.36,1,2.88,1.75,3.42,3.63.72,2.47,1.62,4.86.81,7.48-1.33,4.3-.76,8.48,1.01,12.51.97,2.2,1.31,4.4.96,6.78-.57,3.87-2.61,6.51-6.27,7.87-3.44,1.28-6.99,1.35-10.44.27-1.86-.58-3.85-.7-5.61-1.65-.86-.47-1.9-.42-2.86-.08-2.53.91-5.11,1.74-6.86,4-.23.3-.57.41-.95.23,2.03,1.17,4.29,1.52,6.56,1.89Z"/>
      <path class="cls-7" d="m89.12,223.19c1.18-.76,2.41-1.03,3.8-.47,2.14.86,4.33,1.59,6.48,2.43,1.68.66,2.56,2.19,3.48,3.58.59.89.18,1.89-.52,2.68-1.26,1.42-2.84,2.33-4.72,2.49-1.93.17-3.88.14-5.13.18-.81-.09-.94-.1-1.06-.12-2.25-.29-4.39-.86-5.19-3.32-.74-2.27.8-6.12,2.85-7.44Z"/>
      <path class="cls-8" d="m286.09,103.59c.4,1.13,1.56,1.51,2.29,2.31,1.51,1.64,1.4,3.98-.57,4.97-1.59.8-2,1.84-2.11,3.44-.16,2.3-.17,4.67-1.38,6.77-.48.85-.84,1.83-1.51,2.49-4.23,4.19-8.9,7.58-15.09,8.36-3.76.47-7.52.7-11.3.86-4.17.18-8.24,1.07-12.21,2.29-3.04.93-6.02,2.05-8.96,3.26-2.94,1.21-5.76,2.69-8.27,4.69-2.68,2.13-5.45,4.16-8.07,6.36-5.16,4.33-10.66,8.21-16.11,12.14-8.39,6.06-17.65,10.43-27.63,13.23-1.65.46-3.27,1.01-4.91,1.5-7.41,2.2-15.04,3.19-22.71,3.83-4.25.35-8.58.4-12.78-.54-6.01-1.34-11.69-3.38-16.14-8.03-3.2-3.35-6.69-6.42-10.05-9.62.08-.59.12-1.19.25-1.77.26-1.17,1.11-2.15,2.17-2.09,1.88.11,2.68-1.27,3.88-2.14,1.41.29,2.68.21,3.54-1.18.18-.3.49-.55.8-.73.49-.3,1.1-.16,1.18.35.29,1.69,1.33,2.92,2.47,3.99,2.68,2.51,5.35,5.01,7.58,7.94.83,1.09,1.95,1.84,3.31,2.18,1.63.4,2.63-.46,2.44-2.15-.05-.47-.14-1.02-.41-1.37-2.03-2.66-3.05-5.83-4.49-8.79-.58-1.18-1.52-2.2-2.38-3.23-.44-.52-1.08-.53-1.63-.07-.28.23-.49.55-.77.78-.67.52-1.51.34-1.75-.41-.4-1.28-.75-2.58-1.09-3.87-.14-.51.02-1,.43-1.31,1.87-1.43,3.28-3.27,4.77-5.06.82-.99,1.84-1.55,3.21-1.38,1.2.15,2.41.38,3.64-.02.49-.16.95.15,1.28.53.48.55.94,1.13,1.41,1.69.6.71,1.33,1.16,2.25.77,1-.42,1.56.1,2.24.71,2,1.81,3.77,3.82,5.51,5.88.42.49,1.06.66,1.65.28.58-.37.69-1.04.53-1.64-.16-.57-.42-1.18-.82-1.6-1.57-1.7-3.17-3.39-4.86-4.98-.79-.75-1.76-1.34-3-.84-.68.27-1.11-.04-1.36-.76-.78-2.27-.8-2.26-2.2-3.67,2.66-1.97,5.44-3.69,8.34-5.23.64-.34,1.14-.09,1.55.49.58.83,1.49,1.75,2.37,1.47,1.98-.61,2.54.85,3.51,1.85.83.86,1.79,1.55,2.79,2.23,1.45.99,3.14,1.84,4.17,3.42.26.4.64.75,1.02,1.04.65.49,1.34.51,2.01-.02.6-.48.65-1.23.06-1.93-.39-.46-.79-.99-1.3-1.27-1.38-.77-2.79-1.46-3.17-3.21-2.39-1.31-3.16-4.27-5.64-5.51-.49-.25-.41-1.27.06-1.61,1.9-1.39,4.22-1.91,6.27-3.01.22-.12.77.08.98.3.83.89,1.66,1.81,2.37,2.8,1.28,1.79,2.45,3.65,3.71,5.45,1.12,1.6,2.53,2.99,3.32,4.82.29.66.79,1.27,1.51,1.54.3.11.77.1,1.03-.07.26-.16.49-.58.5-.89.03-1.01-.39-1.95-.99-2.71-2.52-3.17-4.47-6.7-6.68-10.06-1.28-1.94-2.92-3.61-5.18-4.48,2.49-1.67,5.19-2.71,8.23-2.76.28.22.7.39.82.68.51,1.26,1.36,1.99,2.75,2.04,1.01.04,1.39.77,1.87,1.51.89,1.39,1.25,3.24,3.15,3.81.16.05.28.4.33.62.18,1,.86,1.31,1.77,1.56,2.41.64,4.41,1.75,5.56,4.24.98,2.14,3.22,3.26,4.85,4.87.17.16.71.07,1.02-.06.53-.23.57-.78.47-1.26-.07-.34-.25-.7-.47-.97-1.54-1.89-2.94-3.87-4.18-5.99-.6-1.02-1.34-2.06-2.54-2.55-.46-.19-.92-.43-.97-.98-.15-1.75-1.52-2.73-2.44-3.99-.56-.75-.82-1.46-.23-2.33.56-.81.41-1.64-.18-2.37-.7-.86-.43-1.86-.49-2.81,3.69-1.05,7.37-2.12,11.07-3.13,1.61-.44,3.19-1.06,4.92-.9.41.3.74.67.7,1.2-.1,1.75.59,2.83,2.43,2.96,1.47.11,2.09,1.11,2.45,2.35.17.57.25,1.19.27,1.78.08,3.1,2.04,5.36,3.49,7.85.05.09.2.12.3.19.35.24,1.07-.06,1.15-.51.07-.35.18-.73.13-1.07-.23-1.62-1.44-3.18-.22-4.9.15-.2-.04-.71-.18-1.04-.52-1.24-1.05-2.47-1.63-3.67-.32-.65-.86-1.21-1.12-1.88-.33-.87.81-1.05,1.01-1.76.28-.96-.33-1.61-.59-2.45,1.02-.35,2.05-.61,3.15-.6,3.47.03,3.82.28,5.78,3.32.63.97,1.05,1.87.92,3.05-.07.58,0,1.26.24,1.78,1.1,2.3,2.2,4.62,3.95,6.54.16.18.37.37.59.42.34.08.75.14,1.05.02.49-.21.75-.77.55-1.22-.54-1.22-1.06-2.49-1.84-3.55-1.22-1.65-1.81-3.54-1.89-5.46-.1-2.34-.68-4.57-1.03-6.85,1.31-.83,2.84-.61,4.27-.89,1.55-.31,3.14-.39,4.72-.57-.27,1.76,1.1,2.8,1.72,4.17.54,1.2.99,2.15,2.36,2.42.66.13,1.08.61,1.06,1.29-.06,2.05,1.47,1.86,2.76,2.02-.81,2.82.55,5.24,1.46,7.73.44,1.19,1.54,1.76,2.21,1.3.58-.4.77-1.45.4-2.34-.14-.33-.31-.67-.54-.95-.74-.89-.92-1.89-.95-3.04-.06-2.07-.15-2.06-2.6-2.67.54-1.85,1.13-3.7-.08-5.53-.06-.09-.03-.24-.02-.36.12-1.27-.42-2.11-1.63-2.52-.69-.23-.85-.8-.87-1.44,3.87-.35,7.74-.71,11.61-1.06.76.31,1.03,1,1.27,1.69.68,1.95,1.32,3.91,1.99,5.86.15.45.3.92.56,1.31.28.42.74.59,1.27.51.58-.08.86-.51.91-.99.05-.59-.04-1.2-.13-1.79-.39-2.67-1.66-5.07-2.42-7.62,2.8-1.35,5.59-2.72,8.41-4.03.97-.45,1.97-.92,3.11-.66.15,1.17-.48,2.11-.88,3.13-.28.71-.3,1.52.42,1.99,2.1,1.37,3.72,3.14,4.89,5.36.12.24.63.38.95.38.55,0,.85-.44.97-.94.25-.98.33-2.03-.43-2.78-1.58-1.56-1.14-3,0-4.54.68-.92.82-2.03.87-3.14,3.34.33,6.69.58,10.02,1.02,1.76.23,3.48.8,5.21,1.22-.09,1.32-.07,2.62-1.25,3.61-.91.76-.93,1.92-.7,3.01.06.26.48.57.77.62.29.05.71-.12.93-.34.23-.23.38-.63.4-.97.1-1.57.49-2.85,2.37-2.98.1,0,.2-.13.3-.2.6-.43.65-1.44,0-1.84-.71-.43-1.51-.71-2.27-1.05,1.07-.83,2.2-.95,3.43-.34,1.1.54,2.23,1,3.35,1.49Zm-60.08,34.94c.02-.34.09-.59.04-.82-.64-2.62-1.98-4.91-3.52-7.07-.33-.47-1.11-.33-1.65.09-.41.32-.71.78-.49,1.25,1.18,2.5,2.56,4.91,3.25,7.61.03.1.17.16.25.25.52.51,1.58.31,1.83-.36.13-.34.21-.69.29-.95Zm-16.55-8.41c-.02.17-.15.45-.06.63,1,1.92,1.93,3.87,2.64,5.92.2.59.86.83,1.53.65.53-.15.83-.6.78-1.08-.23-2.59-1-4.96-3.05-6.73-.51-.44-1.64-.08-1.84.61Zm48.97-15.85c.19.85.36,1.93.68,2.96.19.59.7,1.02,1.41.82.64-.17,1.13-.67,1.08-1.3-.08-1.08-.29-2.16-.58-3.2-.17-.6-.71-1.01-1.41-.81-.63.18-1,.66-1.18,1.54Zm-122.44,39.45c.21-.09.5-.13.63-.29.83-1.07.68-2.7-.28-3.6-.56-.52-1.59-.32-1.81.35-.42,1.28-.06,2.38.8,3.34.13.15.44.14.67.21Zm8.22,9.77c.47.03,1.22-.72,1.15-1.17-.19-1.14-.82-1.96-1.94-2.29-.49-.15-.98.05-1.15.57-.38,1.16.76,2.83,1.94,2.9Zm59.85-20.62c.61.12,1.49-.75,1.31-1.34-.28-.93-.77-1.71-1.75-2.08-.54-.21-1.32.2-1.38.74-.13,1.13.79,2.48,1.82,2.68Zm-11.34,2.26c0,1.21.69,2.01,1.68,2.53.24.12.69-.04.99-.18.47-.23.71-.73.55-1.2-.32-.92-.88-1.68-1.89-2-.53-.17-1.32.32-1.33.85Zm57.47-24.51c.13-1.19-.25-1.88-1.06-1.9-.85-.02-1.61.64-1.71,1.5-.12,1,.69,2.03,1.61,1.95.92-.08,1.06-.82,1.16-1.55Zm-86.39,34.25c-.1.96.6,1.46,1.25,1.99.41.33.94.37,1.35.12.56-.34.7-.96.56-1.58-.23-1.02-2.15-1.58-2.98-.88-.08.07-.1.21-.17.35Zm-25.76,16.15c-.04.76.7,1.57,1.48,1.5.62-.06,1.3-.85,1.28-1.5-.02-.65-.68-1.16-1.53-1.14-.65.02-1.13.28-1.23,1.14Zm84.3-29.42c-.51,0-.97.12-1.09.71-.11.52.03.95.58,1.16.6.22,1.3-.19,1.32-.82.01-.54-.27-.9-.81-1.05Z"/>
      <path class="cls-8" d="m193.51,222.53c-2.1.08-3.48-.86-4.2-2.85-.31-.87-.91-1.48-1.97-1.15-1.13.34-1.96-.32-2.61-.98-2.05-2.08-3.99-4.27-5.97-6.43-1.19-1.31-1.69-2.89-2.09-4.6-.33-1.4.04-2.41.89-3.33.57-.62,1.25-1.19,1.97-1.64,7.34-4.56,14.67-9.12,22.06-13.59,1.22-.74,2.45-1.6,3.96-1.83.57-.09,1.15-.4,1.64-.74,1.74-1.23,3.7-1.86,5.77-2.2,4.32-.72,8.67-1.11,13.04-1.44,2.55-.19,5.09-.07,7.64-.28,2.51-.2,5.1-.12,7.65-.08,3.54.06,7.03-.01,10.51-.78,1.68-.37,3.32-.85,4.9-1.5,6.21-2.56,12.21-5.51,18.01-8.91,4.25-2.49,7.92-5.72,11.73-8.76,1.92-1.53,3.1-3.75,4.58-5.68,2.45-3.2,4.65-6.55,6.32-10.24.35-.77.97-1.42,1.35-2.18,1.2-2.39,3.17-3.25,5.73-3.03,2.18-.08,4.37-.02,6.51-.58.17.17.32.44.52.49,2.85.72,5.78,1,8.7,1.07,3.03.07,6.06-.16,9.09-.26.86,1.23,1.93,1.5,3.47,1.31,2.02-.24,4.2-.3,5.37,2.12.27.56,1.23.75,1.77,1.22,1.17,1.02,1.46,2.54.84,4.02-.25.6-.76,1.17-1.34,1.11-2.72-.28-5.26.89-7.98.89-2.42,0-4.86-.03-7.29.03-2.18.06-4.36.48-6.54.46-3.32-.03-6.53.65-9.78,1.1-1.76.24-3.22,1.03-4.58,2.14-2.84,2.33-5.74,4.58-8.6,6.89-.66.53-1.33,1.1-1.87,1.75-3.22,3.86-6.91,7.22-10.81,10.36-1.61,1.3-3.38,2.42-4.62,4.16-.4.57-1.09,1.02-1.74,1.3-1.04.44-1.9,1.11-2.76,1.79-2.01,1.59-4.06,3.1-6.3,4.4-5.55,3.21-11.31,5.77-17.78,6.36-4.12.37-8.19,1.27-12.36,1.02-1.88.75-3.91-.17-5.79.53-2.07.77-4.18,1.34-6.35,1.77-2.02.4-3.31,2.03-4.8,3.25-1.37,1.13-3.28,1.82-3.7,3.87-.59.97-1.5,1.6-2.43,2.17-5.6,3.46-10.65,7.58-15.01,12.54-1.52,1.73-3.18,3.32-4.78,4.97Z"/>
      <path class="cls-8" d="m88.45,176.71c1.48,1.01,3.13,1.78,3.74,3.67.8,2.48,1.8,4.89.95,7.5-1.4,4.3-.75,8.48,1.21,12.54,1.07,2.21,1.46,4.42,1.1,6.8-.59,3.86-2.76,6.5-6.72,7.82-3.72,1.25-7.56,1.29-11.3.17-2.02-.6-4.17-.73-6.09-1.71-.94-.47-2.06-.44-3.1-.11-2.74.89-5.52,1.7-7.39,3.94-.25.3-.62.41-1.03.22-2.52,2.82-2.38,5.95-1,9.19.67,1.58,1.24,3.25,2.24,4.63.91,1.25,1.05,2.41.76,3.74-.76-.2-1.62-.26-2.27-.63-1.4-.81-2.87-1.25-4.49-1.39-2.29-.2-4.44-1-6.36-2.05-3.09-1.7-6.18-3.44-8.93-5.63-.4-.32-.84-.62-1.19-.98-1.64-1.69-1.44-3.8.61-5.04,1.98-1.2,4.12-2.26,6.48-2.6,2.83-.4,5.09-1.94,7.69-2.79.82-.27,1.21-.93,1.26-1.71.24-3.3,2.14-6.28,1.97-9.67-.04-.81.47-1.63.7-2.46.29-1.06.5-2.14.82-3.19.7-2.28-.07-3.95-2.15-5.41-2.45-1.72-4.46-3.9-6.27-6.21-.79-1.02-1.87-1.74-2.9-2.53-2.67-2.03-2.27-5.58.96-6.4,4.55-1.16,8.9-2.94,13.68-3.39,5.62-.52,11.09.28,16.54,1.47,1.16.25,2.3.64,3.48.77,2.39.26,4.69.83,6.98,1.45Z"/>
      <path class="cls-12" d="m150.93,250.4c.96-.01,2.03,1.34,2.99,1.54,1.5-.32,3.67,2.12,5.09,2.46,4.6,1.13,4.66,3.02,9.05,4.82,4.76,1.95,9.07,8.05,13.3,10.98.4.28,3.23.87,3.55,1.23,4.74,5.26,11.1,5.13,15.08,10.98,2.62,3.85,8.42,11.46,11.19,15.17.85,1.14,3.4,1.95,4.88,2.13,1.86.23.71-2.98,1.79-4.67.4-.64-.93-4.45-.2-4.69.33-2.29-.4-4.54-1.51-6.29-1.96-3.07-4.45-5.83-6.91-8.54-.91-1-1.78-1.94-2.4-3.16-1.05-2.06-2-4.24-3.39-6.05-5.23-6.79-10.62-13.44-15.96-20.15-.61-.77-1.24-1.53-2.31-1.67-1.03-.72-1.84-3.81-3.08-3.9-1.09-.08-3.81.85-4.74.39-2.04-1-2.79,1.32-4.82,1.8-3.56.86-7.15,1.18-10.82.58-3.24-.53-6.52-.82-9.79-1.12-2.58-.23-15.68-.02-14.76,2.5.55,1.49,9.93,6.06,13.79,5.62Z"/>
      <path class="cls-10" d="m389.26,120.32c-1.08.2-2.18.35-3.28.42,2.03.21,4.06.37,5.98,1.24.99.45,2.12.55,3.23.39-1.43-.97-3.09-1.33-4.73-1.76-.4-.1-.8-.19-1.2-.28Z"/>
      <path class="cls-8" d="m303.84,137.89c.13.81.39,1.61.6,2.41,2.18-.08,4.37-.02,6.51-.58,2.34-1.59,4.99-2.53,7.58-3.55,3.39-1.34,6.88-2.42,10.33-3.61-.12-1.39-1.62-1.69-2.16-2.76-.31-.6-.42-1.14.08-1.62.46-.45,1.03-.61,1.61-.16.47.37.89.83,1.4,1.13,1.26.74,1.42,1.83,1.13,3.1,3.05.51,6.08.17,9.11-.18-.22-1.04-1.44-1.27-1.79-2.21-.22-.61-.2-1.2.24-1.69.43-.49.99-.74,1.61-.42.86.43,1.64,1.05,2.54,1.38,1.58.58,1.9,1.7,1.65,3.17.58.8,1.47.76,2.3.8,2.17.1,4.34.15,6.52.22-.34-.34-.67-.68-1.01-1.02-.44-.43-.96-.85-.73-1.54.3-.87,1.02-1.36,1.88-1.55.29-.06.72.13.98.33,1.33,1.06,1.39,2.47.98,3.98.82.54,1.73.84,2.7.95,2.27.27,4.54.53,6.81.8-.71-.65-1.35-1.41-2.15-1.93-1.68-1.1-2.21-2.81-2.72-4.57-.06-.22-.08-.5-.01-.71.15-.48.47-.9.98-.95.32-.03.69.11.99.27.19.1.35.35.43.57.91,2.36,2.58,4.07,4.68,5.4.89.57.79,1.41.63,2.27,4.43,1.26,8.86,2.53,13.44,3.2.45.07.87.17,1.22.4.76-.32,1.53-.46,2.64-.31-1.69-1.15-2.85-2.68-3.35-4.63-.78-3.07-1.66-6.06-2.98-8.95-.95-2.08-.38-3.15,1.69-4.03.46-.2.93-.38,1.4-.52,0,0-.02,0-.03,0-1.8-.13-4.78-.78-6.18-2.4-.87-.08-1.73-.17-2.6-.26-.84-.09-1.7-.24-2.49.24.37.74,1.24.74,1.8,1.19.91.74,1.09,1.67.15,2.46-.91.76-1.16,1.45-.77,2.52.29.79.33,1.71.74,2.43.89,1.56.42,3.11.14,4.64-.1.53-.6,1.05-1.02,1.46-.56.54-1.24.74-2.01.3-.98-.56-1.82-1.27-2.42-2.21-1.18-1.85-2.53-3.64-3.37-5.64-1.13-2.67-1.85-5.52-2.74-8.29-2.57-.97-5.27-1.31-7.98-1.58-.27.24-.55.47-.82.71.1,2.32,1.65,3.01,3.62,3.31.28.04.63.39.74.67.2.55-.24.89-.64,1.17-.19.13-.46.15-.68.24-1.56.67-1.63.78-1.46,2.35.09.84.23,1.68.24,2.52,0,.6-.17,1.23-.91,1.38-.53.11-.92-.15-1.24-.55-.37-.48-.69-1.31-1.11-1.37-2.52-.32-2.81-2.38-3.44-4.17-.34-.98-1.01-1.63-1.79-2.24-.89-.7-.9-1.66-.7-2.65-1.46-.38-2.75-.01-3.91.91-.4,1.78.76,3.27.93,4.94.06.6.28,1.17.39,1.76.1.51-.07,1.01-.52,1.24-.43.23-.96.21-1.36-.15-2.04-1.87-4.24-3.65-3.96-6.86-1.18-.19-2.26-.06-3.11.89-.11,1.43-.41,2.83-.06,4.31.26,1.08-.81,1.74-1.87,1.33-.11-.04-.21-.13-.32-.16-1.9-.53-2.77-1.77-2.6-3.74-3.93,1.06-7.48,2.87-10.73,5.31-.34,2.26-1.45,3.7-3.9,3.91-.68.06-1.39.43-1.96.83-1.09.76-2.24.68-3.43.47-.4.24-.98.38-1.17.73-.71,1.35-1.38,2.68-2.72,3.57-.5.33-.6,1.05-.51,1.64Z"/>
      <path class="cls-7" d="m215.73,202.85c.43-2.05,2.33-2.74,3.7-3.87,1.49-1.22,2.78-2.85,4.8-3.25,2.17-.43,4.28-1,6.35-1.77,1.87-.7,3.91.22,5.79-.53,4.17.26,8.24-.64,12.36-1.02,6.47-.59,12.23-3.14,17.78-6.36,2.24-1.29,4.29-2.8,6.3-4.4.86-.68,1.71-1.36,2.76-1.79.65-.27,1.34-.73,1.74-1.3,1.24-1.74,3.01-2.87,4.62-4.16,3.91-3.14,7.6-6.5,10.81-10.36.54-.65,1.21-1.21,1.87-1.75,2.86-2.31,5.76-4.56,8.6-6.89,1.36-1.11,2.82-1.9,4.58-2.14,3.25-.45,6.47-1.12,9.78-1.1,2.18.02,4.36-.4,6.54-.46,2.43-.07,4.87-.04,7.29-.03,2.72,0,5.25-1.17,7.98-.89.59.06,1.09-.51,1.34-1.11.62-1.48.33-3-.84-4.02-.54-.47-1.5-.66-1.77-1.22-1.17-2.42-3.35-2.36-5.37-2.12-1.54.18-2.61-.09-3.47-1.31.19-.15.38-.4.58-.42,4.37-.39,8.22.72,11.26,4.03.74.81,1.4,1.71,2.07,2.58,1.49,1.93,1.46,4.11.85,6.3-.49,1.78-3.36,3.41-5.69,3.28-1.71-.1-3.43-.27-5.11-.57-5.34-.97-10.7-.58-16.04-.16-4.24.34-8.48.86-12.63,1.94-1.1.29-2.11.57-2.88,1.43-1.22,1.36-2.44,2.73-3.65,4.09-3.8,4.29-7.58,8.59-11.4,12.87-.65.72-1.41,1.35-2.18,1.96-4.01,3.2-7.9,6.57-12.35,9.17-6.54,3.81-13.11,7.59-20.4,9.86-3.97,1.23-8.1,1.69-12.21,2.27-5.54.78-11.16.67-16.7,1.58-1.58.26-3.11.54-4.6,1.09-.8.29-1.59.68-2.48.54Z"/>
      <path class="cls-8" d="m103.91,164.27c2.17.29,3.68,1.8,5.32,2.98,3.59,2.6,6.33,5.95,8.68,9.76,2.04,3.32,4.19,6.56,5.98,10.03,2.64,5.13,4.61,10.48,6.03,16.06.69,2.72,1.4,5.42,1.74,8.21.2,1.62-.04,3.17-.37,4.72-.19.86-1.02,1.39-1.92,1.4-1.08.02-2.13-.6-2.2-1.56-.36-5.37-3.04-10.02-4.55-15.03-.75-2.5-2.16-4.64-3.41-6.86-1.1-1.94-3.01-3.17-4.59-4.68-3.91-3.73-8.58-6.46-13.14-9.3-1.52-.95-3.09-1.61-5.15-1.22-2.45.46-3.35-.45-3.86-3.26-.17-.93.09-1.95.15-2.92-.11-1.07-.3-2.14-.32-3.21-.02-1.19.54-2.03,1.7-2.5,2.12-.86,4.35-1.41,6.36-2.58,1.11-.65,2.37-.08,3.56-.06Z"/>
      <path class="cls-8" d="m60.57,234.04c.28-1.33.16-2.49-.67-3.73-.92-1.38-1.43-3.04-2.03-4.61-1.25-3.22-1.35-6.35,1-9.19,2.03,1.17,4.29,1.52,6.56,1.89,3.03.49,5.42,2.24,7.53,4.27,3.96,3.81,7.71,7.83,11.09,12.16.97,1.24,1.78,2.64,2.4,4.08,1.34,3.12.11,5.85-3.07,7.08-1.26.49-2.57.78-3.94.63-1.09-.12-2.18-.25-3.26-.38-6.49-2.42-11.15-7.18-15.61-12.19Z"/>
      <path class="cls-12" d="m160.97,123.33c2.26.88,3.9,2.54,5.18,4.48,2.22,3.36,4.17,6.89,6.68,10.06.6.76,1.02,1.69.99,2.71,0,.31-.24.73-.5.89-.26.16-.72.18-1.03.07-.72-.27-1.22-.87-1.51-1.54-.79-1.84-2.2-3.22-3.32-4.82-1.26-1.8-2.43-3.66-3.71-5.45-.71-.99-1.54-1.91-2.37-2.8-.21-.22-.76-.42-.98-.3-2.05,1.09-4.37,1.62-6.27,3.01-.47.34-.55,1.36-.06,1.61,2.47,1.25,3.25,4.2,5.64,5.51.38,1.74,1.78,2.44,3.17,3.21.51.28.91.81,1.3,1.27.6.7.55,1.45-.06,1.93-.67.53-1.36.51-2.01.02-.39-.29-.76-.64-1.02-1.04-1.03-1.58-2.72-2.43-4.17-3.42-1-.68-1.96-1.37-2.79-2.23-.97-1.01-1.53-2.47-3.51-1.85-.89.27-1.79-.64-2.37-1.47-.41-.59-.91-.83-1.55-.49-2.9,1.54-5.68,3.26-8.34,5.23,1.39,1.41,1.41,1.4,2.2,3.67.25.72.67,1.03,1.36.76,1.24-.5,2.21.09,3,.84,1.69,1.59,3.28,3.28,4.86,4.98.39.43.66,1.03.82,1.6.17.6.05,1.26-.53,1.64-.59.38-1.24.21-1.65-.28-1.73-2.06-3.5-4.07-5.51-5.88-.68-.61-1.24-1.13-2.24-.71-.92.39-1.66-.06-2.25-.77-.47-.56-.93-1.14-1.41-1.69-.33-.39-.8-.69-1.28-.53-1.22.4-2.43.17-3.64.02-1.37-.17-2.39.39-3.21,1.38-1.49,1.79-2.9,3.63-4.77,5.06-.41.31-.57.8-.43,1.31.35,1.3.69,2.6,1.09,3.87.23.75,1.08.93,1.75.41.29-.22.49-.54.77-.78.55-.46,1.19-.45,1.63.07.86,1.03,1.81,2.05,2.38,3.23,1.44,2.96,2.46,6.12,4.49,8.79.27.36.36.9.41,1.37.19,1.7-.8,2.56-2.44,2.15-1.36-.34-2.48-1.09-3.31-2.18-2.23-2.94-4.9-5.43-7.58-7.94-1.14-1.07-2.18-2.3-2.47-3.99-.09-.52-.69-.65-1.18-.35-.31.18-.62.44-.8.73-.86,1.39-2.14,1.47-3.54,1.18-.03-1.69.65-3.16,1.82-4.27,2.33-2.22,3.9-4.98,5.68-7.6.34-.5.69-1.33,1.12-1.39,3.25-.41,4.56-3.34,6.79-5.05.51-.39,1.1-.73,1.68-.52,1.48.54,2.54-.16,3.7-.92,2.96-1.94,5.92-3.92,9.02-5.62,1.22-.68,1.73-2.12,3.07-2.47,1.18-.3,2.4-.4,3.53-.91,2.12-.94,4.26-1.85,6.41-2.73.56-.23,1.17-.32,1.76-.47.42.07.73-.11.95-.46.17-.1.35-.15.55-.17Z"/>
      <path class="cls-12" d="m385.98,120.74c-1.46.1-2.92.1-4.36,0-.48.14-.94.33-1.4.52-2.07.88-2.64,1.95-1.69,4.03,1.32,2.89,2.2,5.89,2.98,8.95.5,1.96,1.66,3.48,3.35,4.63.55.07,1.18.21,1.94.44,4.95,1.48,9.12,1.52,13.67-.33.72-.67,1.48-1.32,2.28-1.89,3.27-2.31,3.22-5.75,3.15-9.18-.01-.54-.45-1.12-.8-1.6-.81-1.1-1.93-1.8-3.2-2.3-2.16-.85-4.42-1.31-6.7-1.66-1.11.17-2.23.07-3.23-.39-1.92-.87-3.96-1.03-5.98-1.24Z"/>
      <path class="cls-12" d="m215.92,109.05c.35,2.28.93,4.5,1.03,6.85.08,1.92.67,3.81,1.89,5.46.78,1.06,1.31,2.33,1.84,3.55.19.44-.06,1.01-.55,1.22-.3.13-.71.06-1.05-.02-.22-.05-.42-.24-.59-.42-1.75-1.92-2.84-4.24-3.95-6.54-.25-.52-.3-1.2-.24-1.78.13-1.18-.29-2.08-.92-3.05-1.97-3.04-2.31-3.29-5.78-3.32-1.1,0-2.13.25-3.15.6.26.84.87,1.49.59,2.45-.21.71-1.35.89-1.01,1.76.26.67.8,1.23,1.12,1.88.59,1.2,1.12,2.44,1.63,3.67.14.33.33.84.18,1.04-1.22,1.72-.01,3.28.22,4.9.05.34-.07.72-.13,1.07-.09.45-.8.76-1.15.51-.1-.07-.25-.1-.3-.19-1.45-2.49-3.41-4.74-3.49-7.85-.02-.6-.1-1.21-.27-1.78-.36-1.23-.98-2.24-2.45-2.35-1.84-.13-2.53-1.21-2.43-2.96.03-.53-.29-.9-.7-1.2.13-1.7,1.13-2.64,2.72-3.01,1.06-.25,2.14-.46,3.21-.67.47-.09,1.04-.01,1.4-.25,2.05-1.39,4.4-1.29,6.7-1.46,1.26-.09,2.42,0,3.27,1.15.58.79,1.59.48,2.37.75Z"/>
      <path class="cls-12" d="m180.26,116.59c.06.96-.21,1.95.49,2.81.59.73.74,1.55.18,2.37-.6.86-.33,1.57.23,2.33.93,1.26,2.3,2.24,2.44,3.99.05.56.51.79.97.98,1.21.49,1.94,1.53,2.54,2.55,1.24,2.11,2.64,4.09,4.18,5.99.22.28.41.63.47.97.09.48.06,1.03-.47,1.26-.3.13-.85.23-1.02.06-1.63-1.62-3.87-2.73-4.85-4.87-1.14-2.49-3.15-3.6-5.56-4.24-.91-.24-1.59-.55-1.77-1.56-.04-.23-.17-.58-.33-.62-1.91-.57-2.26-2.42-3.15-3.81-.48-.74-.86-1.48-1.87-1.51-1.38-.05-2.24-.77-2.75-2.04-.12-.29-.54-.45-.82-.68.52-2.03,1.45-3.47,3.92-3.25,1.7.15,3.27-.61,4.85-1.16.88-.31,1.64-.26,2.3.43Z"/>
      <path class="cls-12" d="m370.34,118.32c.37.74,1.24.74,1.8,1.19.91.74,1.09,1.67.15,2.46-.91.76-1.16,1.45-.77,2.52.29.79.33,1.71.74,2.43.89,1.56.42,3.11.14,4.64-.1.53-.6,1.05-1.02,1.46-.56.54-1.24.74-2.01.3-.98-.56-1.82-1.27-2.42-2.21-1.18-1.85-2.53-3.64-3.37-5.64-1.13-2.67-1.85-5.52-2.74-8.29,2.57-1.03,5.07-.41,7.55.38.67.21,1.31.51,1.97.76Z"/>
      <path class="cls-12" d="m263.55,100.33c-.05,1.11-.19,2.22-.87,3.14-1.14,1.53-1.58,2.98,0,4.54.76.75.68,1.8.43,2.78-.13.5-.42.93-.97.94-.33,0-.83-.14-.95-.38-1.17-2.21-2.79-3.99-4.89-5.36-.72-.47-.7-1.28-.42-1.99.4-1.02,1.03-1.96.88-3.13,0,0,.02.02.02.03.41.09.7-.1.91-.44.82-.24,1.66-.4,2.44-.73,1.3-.55,2.37-.09,3.42.6Z"/>
      <path class="cls-12" d="m232.8,117.49c-1.29-.16-2.82.04-2.76-2.02.02-.67-.4-1.16-1.06-1.29-1.38-.27-1.82-1.22-2.36-2.42-.62-1.38-1.99-2.41-1.72-4.17.24-.9.8-1.41,1.77-1.32,1.3.13,2.53.45,3.51,1.39.02.65.18,1.21.87,1.44,1.21.41,1.75,1.25,1.63,2.52-.01.12-.04.27.02.36,1.21,1.83.62,3.68.08,5.53l.02-.02Z"/>
      <path class="cls-12" d="m245.23,105.57c.76,2.56,2.03,4.95,2.42,7.62.09.59.18,1.2.13,1.79-.04.48-.33.91-.91.99-.53.07-.99-.09-1.27-.51-.26-.39-.41-.86-.56-1.31-.67-1.95-1.31-3.91-1.99-5.86-.24-.69-.5-1.38-1.27-1.69.06-.23.09-.48.18-.7.65-1.55.96-1.68,2.39-.96.32.16.58.42.87.64Z"/>
      <path class="cls-12" d="m364.71,135.25c-.71-.65-1.35-1.41-2.15-1.93-1.68-1.1-2.21-2.81-2.72-4.57-.06-.22-.08-.5-.01-.71.15-.48.47-.9.98-.95.32-.03.69.11.99.27.19.1.35.35.43.57.91,2.36,2.58,4.07,4.68,5.4.89.57.79,1.41.63,2.27-.98.21-1.92.05-2.84-.34Z"/>
      <path class="cls-12" d="m340.03,132.07c-.22-1.04-1.44-1.27-1.79-2.21-.22-.61-.2-1.2.24-1.69.43-.49.99-.74,1.61-.42.86.43,1.64,1.05,2.54,1.38,1.58.58,1.9,1.7,1.65,3.17-1.42.07-2.85.26-4.25-.22Z"/>
      <path class="cls-12" d="m279.31,102.44c.76.34,1.56.62,2.27,1.05.66.4.61,1.42,0,1.84-.1.07-.19.19-.3.2-1.89.13-2.28,1.42-2.37,2.98-.02.34-.17.73-.4.97-.22.22-.64.39-.93.34-.29-.05-.72-.36-.77-.62-.23-1.09-.21-2.25.7-3.01,1.19-.99,1.17-2.29,1.25-3.61.16-.1.34-.15.53-.14Z"/>
      <path class="cls-12" d="m328.87,132.56c-.12-1.39-1.62-1.69-2.16-2.76-.31-.6-.42-1.14.08-1.62.46-.45,1.03-.61,1.61-.16.47.37.89.83,1.4,1.13,1.26.74,1.42,1.83,1.13,3.1-.66.25-1.33.48-2.06.32Z"/>
      <path class="cls-12" d="m353.1,133.31c-.34-.34-.67-.68-1.01-1.02-.44-.43-.96-.85-.73-1.54.3-.87,1.02-1.36,1.88-1.55.29-.06.72.13.98.33,1.33,1.06,1.39,2.47.98,3.98-.7-.07-1.4-.13-2.1-.2Z"/>
      <path class="cls-10" d="m160.41,123.5c-.22.35-.53.52-.95.46.2-.4.52-.55.95-.46Z"/>
      <path class="cls-10" d="m257.69,100.47c-.21.34-.5.52-.91.44.18-.41.5-.52.91-.44Z"/>
      <path class="cls-12" d="m352.02,116.3c.1,2.32,1.65,3.01,3.62,3.31.28.04.63.39.74.67.2.55-.24.89-.64,1.17-.19.13-.46.15-.68.24-1.56.67-1.63.78-1.46,2.35.09.84.23,1.68.24,2.52,0,.6-.17,1.23-.91,1.38-.53.11-.92-.15-1.24-.55-.37-.48-.69-1.31-1.11-1.37-2.52-.32-2.81-2.38-3.44-4.17-.34-.98-1.01-1.63-1.79-2.24-.89-.7-.9-1.66-.7-2.65.47-.35.95-.7,1.42-1.06,1.14-.88,2.27-1.09,3.6-.3.69.41,1.57.48,2.36.71Z"/>
      <path class="cls-12" d="m340.73,117.87c-.4,1.78.76,3.27.93,4.94.06.6.28,1.17.39,1.76.1.51-.07,1.01-.52,1.24-.43.23-.96.21-1.36-.15-2.04-1.87-4.24-3.65-3.96-6.86,1.45-.57,2.88-1.24,4.52-.94Z"/>
      <path class="cls-12" d="m317.53,126.74c-.34,2.26-1.45,3.7-3.9,3.91-.68.06-1.39.43-1.96.83-1.09.76-2.24.68-3.43.47.03-.88.21-1.74.98-2.23,2.14-1.36,4.43-2.42,6.88-3.08.44-.12.95.06,1.43.1Z"/>
      <path class="cls-12" d="m333.1,119.7c-.1,1.43-.41,2.83-.06,4.31.26,1.08-.81,1.74-1.87,1.33-.11-.04-.21-.13-.32-.16-1.9-.53-2.77-1.77-2.6-3.74,1.36-1.29,2.93-2.01,4.85-1.73Z"/>
      <path class="cls-12" d="m226.01,138.53c-.08.26-.16.61-.29.95-.25.67-1.32.87-1.83.36-.08-.08-.23-.15-.25-.25-.69-2.71-2.07-5.12-3.25-7.61-.22-.46.08-.92.49-1.25.54-.42,1.32-.56,1.65-.09,1.54,2.16,2.88,4.45,3.52,7.07.05.22-.02.48-.04.82Z"/>
      <path class="cls-12" d="m232.78,117.5c2.46.61,2.55.61,2.6,2.67.03,1.15.22,2.15.95,3.04.23.28.4.62.54.95.38.89.18,1.94-.4,2.34-.67.46-1.77-.11-2.21-1.3-.91-2.49-2.27-4.91-1.46-7.73l-.02.02Z"/>
      <path class="cls-12" d="m209.46,130.12c.2-.69,1.33-1.05,1.84-.61,2.06,1.77,2.82,4.14,3.05,6.73.04.49-.25.94-.78,1.08-.67.19-1.32-.06-1.53-.65-.71-2.06-1.64-4-2.64-5.92-.09-.17.04-.46.06-.63Z"/>
      <path class="cls-12" d="m258.42,114.26c.18-.88.55-1.36,1.18-1.54.7-.2,1.24.21,1.41.81.29,1.04.5,2.12.58,3.2.05.64-.44,1.13-1.08,1.3-.71.19-1.23-.23-1.41-.82-.32-1.03-.49-2.11-.68-2.96Z"/>
      <path class="cls-12" d="m135.99,153.71c-.23-.06-.53-.06-.66-.21-.86-.96-1.21-2.06-.8-3.34.22-.67,1.25-.87,1.81-.35.97.9,1.11,2.53.28,3.6-.13.16-.42.2-.63.29Z"/>
      <path class="cls-12" d="m144.21,163.47c-1.18-.07-2.32-1.73-1.94-2.9.17-.52.66-.71,1.15-.57,1.12.33,1.75,1.15,1.94,2.29.07.46-.68,1.2-1.15,1.17Z"/>
      <path class="cls-12" d="m204.06,142.86c-1.03-.2-1.95-1.55-1.82-2.68.06-.54.84-.95,1.38-.74.97.37,1.47,1.15,1.75,2.08.18.59-.7,1.46-1.31,1.34Z"/>
      <path class="cls-12" d="m192.72,145.12c0-.53.8-1.02,1.33-.85,1.01.32,1.57,1.08,1.89,2,.16.47-.07.97-.55,1.2-.3.15-.75.31-.99.18-1-.52-1.68-1.32-1.68-2.53Z"/>
      <path class="cls-12" d="m250.19,120.61c-.1.73-.24,1.47-1.16,1.55-.92.08-1.73-.95-1.61-1.95.1-.85.86-1.52,1.71-1.5.8.02,1.19.71,1.06,1.9Z"/>
      <path class="cls-12" d="m163.8,154.86c.07-.14.09-.28.17-.35.83-.7,2.75-.14,2.98.88.14.63,0,1.24-.56,1.58-.41.25-.93.21-1.35-.12-.65-.52-1.34-1.03-1.25-1.99Z"/>
      <path class="cls-12" d="m138.04,171.01c.09-.86.57-1.12,1.23-1.14.85-.02,1.51.49,1.53,1.14.02.65-.65,1.44-1.28,1.5-.79.08-1.53-.74-1.48-1.5Z"/>
      <path class="cls-12" d="m222.34,141.59c.54.14.82.51.81,1.05-.02.63-.72,1.04-1.32.82-.55-.2-.69-.63-.58-1.16.12-.59.58-.7,1.09-.71Z"/>
      <path class="cls-13" d="m304.2,133.67c-.45-.37-.58-.95-.1-1.19,1.56-.78,2.68-1.93,3.49-3.43.31-.58.89-.78,1.52-.88.72-.12,1.44-.28,2.16-.42,1.69-.32,3.21-.93,4.61-2.02,2.73-2.1,5.82-3.6,9.07-4.73,5.66-1.96,11.32-3.91,17-5.8,4.78-1.59,9.68-2.54,14.73-2.76,2.31-.1,4.61.26,6.94,0,2.24-.25,3.8-1.45,4.19-3.7.03-.15-.22-.37-.38-.52-.05-.05-.28-.04-.31,0-.18.32-.31.66-.49.98-1.34,2.39-4,2.91-6.74,1.77-.24-.1-.47-.62-.42-.9.04-.21.51-.39.82-.49.21-.07.48.04.72.05,3.09.13,4.43-.93,5.02-3.98.17-.9-1.17-2.78-1.99-2.69-.31.03-.68.29-.88.55-.75.99-1.59,1.87-2.67,2.48-1.2.68-2.47,1.09-3.82.42-.19-.09-.37-.36-.39-.57-.01-.19.15-.48.32-.58.31-.17.68-.3,1.02-.31.89-.03,1.69-.31,2.37-.87.65-.53,1.66-1.08,1.42-1.96-.31-1.12-1.42-.51-2.18-.44-4.02.37-8.04.84-11.96-.63-1.35-.51-2.62-.29-3.89.32-1.09.53-2.23.99-3.38,1.38-.23.08-.69-.21-.88-.45-.23-.29-.16-.77.17-.96,2.76-1.54,5.36-3.29,8.9-2.08,3.52,1.21,7.26.96,10.91.46,1.99-.27,3.88-.47,5.57.92,2.18,1.8,4.35,3.63,4.99,6.56.35,1.6.12,3.15-.98,4.5-1.02,1.25-2.08,2.4-3.68,2.89-1.62-.11-3.23-.68-5.6-.06,2.49.65,4.29.77,6.11.79,3.1.63,6.21,1.27,9.07,2.66,1.92.94,3.91,1.42,6.01,1.45,6.54.08,12.87,1.58,19.26,2.73.96.17,1.87.6,2.82.8,2.93.61,4.67,3.5,4.13,6.85-1.75,10.91-11.16,14.58-19.67,11.3-1.02-.39-1.99-.95-2.99-1.4-.54-.24-1.07-.71-1.7-.36-1.37.78-2.65.08-3.91-.24-4.74-1.22-9.53-2.23-14.3-3.32-7.56-1.73-15.22-2.52-22.94-2.86-3.91-.17-7.81-.61-11.74-.11-5.18.65-9.97,2.41-14.56,4.79-.16.08-.26.35-.3.55-.07.31.11.42.42.47,3.27.52,6.57,1.04,9.87.62,3.57-.46,7.07.46,10.61.21.92-.06,1.72.55,2.1,1.29,1.1,2.13,2.87,3.61,4.61,5.16,1.39,1.24,2.35,2.81,2.67,4.71.8,4.67-3.14,8.16-7.7,6.82-2.62-1.88-5.53-1.25-8.44-1.08-3.91.22-7.83.2-11.75.2-1.49,0-2.9.13-4.3.7-2.4.96-4.89,1.55-7.57,1.04-.39.55-.75,1.03-1.07,1.54-3.74,5.86-8.45,10.78-14.24,14.64-2.55,1.7-4.95,3.6-7.22,5.66-2.18,1.99-4.57,3.69-7.07,5.25-.24.15-.77.15-.97-.01-.42-.36-.37-.95-.04-1.32.48-.54,1.05-1.02,1.66-1.42,2.15-1.43,4.09-3.11,6.06-4.77,1.87-1.58,3.77-3.13,5.8-4.5,5.03-3.39,9.36-7.48,12.93-12.39,1.59-2.19,3.1-4.41,4.03-6.96.17-.45.25-.95.74-1.2.11-.05.26-.14.34-.1.21.1.47.22.56.41.35.72-.01,1.43-.09,2.15-.11,1.08.19,1.46,1.12,1.29,1.44-.26,2.94-.45,4.27-1.01,1.51-.64,3.02-.93,4.62-.95,3.18-.03,6.36,0,9.54-.05,1.83-.03,3.7.03,5.49-.3,1.81-.34,3.39-.13,4.89.86,1.48.97,3,.9,4.53.15,1.61-.78,2.22-1.97,2-3.92-.07-.63-.77-.96-1.3-.51-1.84,1.56-3.92,1.88-6.2,1.34-.47-.11-.96-.27-1.19-.76-.1-.21-.22-.47-.18-.67.08-.39.44-.72.78-.61,1.42.48,2.81.74,4.27.09,1.68-.76,1.97-2.66.53-3.82-.49-.4-.98-.64-1.66-.37-1.26.49-2.57.83-3.94.67-.6-.07-1.23-.09-1.71-.55-.27-.25-.46-.57-.26-.93.1-.18.35-.41.52-.41,1.21.03,2.43.19,3.62-.2.42-.14.63-.45.61-.78-.05-1.04-1.04-2.31-1.97-2.32-2.69-.03-5.31-.74-8.05-.42-3.9.46-7.82.36-11.72-.27-2.55-.41-5.11-.57-7.69-.42-.85.05-1.82.21-2.55-.11-2.26-1-3.3.1-4.29,1.93-1.92,3.55-4,7.01-5.98,10.53-.29.52-.55,1.13-.57,1.71-.06,1.25-.54,2.07-1.76,2.47-1.12.37-1.68,1.39-2.38,2.23-1.68,2.01-3.69,3.58-6,4.76-.42.21-.91.32-1.39.38-.16.02-.43-.22-.51-.41-.08-.19-.06-.48.02-.68.09-.21.28-.42.49-.53,5.23-2.76,8.27-7.52,11.22-12.33,2.11-3.44,4.01-7.01,6.03-10.5.61-1.04,1.1-2.19,2.16-2.91.46-.39,1-.48,1.59-.4.15.44.19,1.16.47,1.28,1.83.76,3.71,1.02,5.61.12,2.99-1.4,5.96-2.84,8.98-4.17,4.3-1.88,8.79-2.99,13.5-3.07,6.25-.1,12.47.37,18.68.9,7.83.66,15.43,2.6,23.07,4.33,1.79.41,3.57.82,5.37,1.19.16.03.45-.14.52-.3.09-.18.11-.51,0-.66-.48-.7-1.02-1.37-1.54-2.04-.83-1.06-1.7-2.09-2.5-3.17-.3-.41-.39-.91.2-1.23.34-.18.73-.24,1,.06,1.23,1.35,2.57,2.63,3.62,4.11,2,2.84,4.75,4.58,7.92,5.65,4.78,1.62,9.16.84,12.96-2.59.81-.73,1.41-1.6,1.73-2.74.41-1.46.2-3.16,1.53-4.33.21-.19.19-.69.19-1.05,0-2.11-.97-3.36-3-4.08-3.03-1.07-6.2-1.36-9.34-1.9-4.09-.71-8.15-1.61-12.35-1.44-2.1.09-4.09-.55-6.02-1.42-4.5-2.03-9.22-3.18-14.17-3.27-3.91-.08-7.8-.78-11.72-.36-1.87-.66-3.63-.03-5.36.55-6.02,2.03-12.05,4.05-18.05,6.16-3.24,1.14-6.31,2.69-8.99,4.87-.79.65-1.56,1.06-2.59,1.16-2,.19-3,2.28-4.9,2.71-.06.01-.1.22-.12.34-.12.88-.66,1.22-1.5,1.26-.73.04-1.45.17-2.18.26l-.24-.04-.24.02Z"/>
      <path class="cls-13" d="m186.53,243.75c1.52,1.78,2.6,2.79,3.35,4,.79,1.27,1.86,2.18,2.89,3.21,3.83,3.81,7.25,7.97,9.88,12.72.65,1.18,1.34,2.34,1.98,3.52,1.25,2.28,2.83,4.27,4.79,5.99,3.44,3.01,6.18,6.59,8.49,10.53,1.23,2.1,1.99,4.14,1.04,6.6-.54,1.39-.26,2.91-.1,4.37.16,1.52-.17,2.91-.82,4.26-.7,1.45-1.2,1.76-2.88,1.7-2.32-.08-4.29-.96-5.83-2.7-1.14-1.28-2.12-2.69-2.81-4.28-1.54-3.54-3.92-6.45-6.62-9.17-3.27-3.31-6.46-6.7-10.45-9.18-.31-.19-.58-.46-.91-.62-5.92-2.83-10.77-7.17-15.79-11.26-4.27-3.49-8.91-6.42-13.74-9.02-1.48-.79-3.25-1.06-4.89-1.54-2.35-.69-4.68-1.46-7.05-2.03-4.18-.99-7.5-3.49-10.87-5.92-.36-.26-.61-.74-.81-1.16-.07-.15.08-.48.22-.63.14-.15.45-.31.61-.25.45.16.92.35,1.28.65,4.13,3.49,9.1,5.19,14.16,6.67,1.29.38,2.57.83,3.88,1.11,4.16.89,7.72,3.04,11.22,5.29,2.26,1.45,4.4,3.1,6.51,4.77,5.56,4.41,11.18,8.74,17.48,12.07,4.88,2.58,8.61,6.41,11.94,10.68,1.43,1.83,2.81,3.72,4,5.71.59.99,1.54,1.57,2.14,2.47.5.76.92.95,1.72.35.71-.54,1.36.08,1.99.42.72.39,1.42.26,2.08-.15,2.36-1.48,3.36-4.98,2-7.38-1.44-2.55-2.96-5.03-5.18-7.07-2.16-1.97-4.08-4.23-6.06-6.4-1.32-1.45-2.42-3.07-3.24-4.87-2.53-5.52-6.31-10.18-10.33-14.65-2.61-2.9-5.39-5.66-7.94-8.61-1.58-1.82-3.59-2.23-5.6-1.72-1.96.5-4.04.56-5.92,1.67-1.43.85-3.28.94-4.94.08-.35-.18-.47-.57-.3-.94.09-.19.32-.45.49-.45,1.21-.02,2.42.17,3.64-.2,1.65-.5,1.75-.72.64-2.32-.21-.3-.4-.59-.14-.98.24-.36.58-.4.94-.37.36.02.75.04,1.08.17,1.97.74,4.05.94,6.11,1.23,7.97,1.11,15.33,4.1,22.59,7.38.99.45,1.9,1.1,2.81,1.72.53.37.85.93.41,1.56-.39.55-.9.23-1.29-.02-4.7-2.97-10.01-4.52-15.15-6.46-.56-.21-1.18-.24-2.71-.54Zm29.85,50.88q-2.87.6-5.95-.08c-.28,2.06,1.04,3.03,2.58,3.77,2.2,1.06,3.18.48,3.59-2.01.09-.58.26-1.17-.22-1.68Z"/>
      <path class="cls-13" d="m106.94,162.21c.09-.22.12-.64.35-.86.78-.77,1.56-1.58,2.47-2.19,1.74-1.19,3.09-2.72,4.38-4.37,3.31-4.24,6.72-8.41,10.13-12.58,1.17-1.43,2.6-2.58,4.22-3.5,3.3-1.88,6.56-3.83,9.88-5.67,8.47-4.68,17.16-8.94,25.96-12.94,7.15-3.25,14.7-5.36,22.26-7.44,6.84-1.89,13.66-3.8,20.68-5,4.85-.83,9.72-1.07,14.62-1.1,1.53,0,3.14.49,4.32-1.2.49-.71,1.61-.29,2.46-.23,4.4.28,8.8.54,13.19.87,1.08.08,1.87-.1,2.43-1.15.72-1.35,2.6-1.27,3.4-2.61.19-.32.73-.07.95.21.38.47.68,1.01,1.01,1.52.26.41.58.82.32,1.33-.36.72-.95.51-1.57.39-1.26-.25-2.37-.13-3.01,1.27-.32.7-1.13.95-1.85,1.07-1.2.19-2.43.41-3.63.35-7.84-.44-15.66.22-23.49.32-6.65.09-13.12,1.53-19.51,3.21-8.04,2.11-16.1,4.21-23.97,6.95-4.28,1.49-8.46,3.23-12.54,5.21-9.8,4.77-19.55,9.63-28.98,15.11-2.17,1.26-3.97,2.72-5.36,4.84-2.15,3.27-4.57,6.34-7.55,8.95-1.53,1.34-3.14,2.72-3.75,4.87-.14.51-.73,1.07-1.24,1.26-1.89.72-3.26,2.11-4.76,3.36-.27.23-.63.4-.97.47-.4.08-.65-.22-.83-.72Z"/>
      <path class="cls-13" d="m180.55,211.4c-.17-.42-.53-.87-.05-1.28.48-.4.9-.08,1.28.24.09.07.16.19.21.3,1.61,3.93,5.06,6.18,8.04,8.86.86.77,1.65.88,2.64.31,1.27-.73,2.56-1.44,3.87-2.08.24-.12.72.03.98.21.35.24.25.71.02.98-.39.46-.88.84-1.31,1.27-1.75,1.75-1.72,3.67.32,5.22,2.63,1.99,5.33,3.92,8.14,5.63,3.03,1.85,5.97,3.82,8.77,6,4.83,3.75,9.67,7.49,14.46,11.29,2.52,2,4.5,4.46,6.07,7.29.8,1.43,1.11,2.96,1.4,4.53.25,1.34-.31,2.4-1.19,3.31-.82.85-1.83,1.23-3,.78-3.99-1.55-8.03-2.98-11.93-4.71-2.55-1.13-4.91-2.71-7.34-4.11-.3-.17-.54-.49-.71-.8-.1-.17-.08-.48.01-.67.09-.19.38-.46.52-.43.58.13,1.17.31,1.7.57,3.62,1.78,7.24,3.56,10.83,5.4,2.33,1.2,4.85,1.59,7.4,1.9.5.06,1.01-.06,1.32-.48.2-.27.44-.74.33-.95-.19-.37-.54-.08-.82.11-.3.21-.63.37-.95.54-.21-.36-.42-.71-.63-1.07,1.3-1,1.11-2.33.8-3.67-.18-.79-.77-1.13-1.66-.98-.6.1-1.18.34-1.77.38-.31.02-.84-.18-.92-.4-.18-.52.12-.91.7-1,.24-.04.5-.05.71-.15.53-.25.7-.69.29-1.15-2.2-2.46-4.58-4.76-7.26-6.69-3.86-2.78-7.73-5.57-11.7-8.2-5.91-3.92-11.61-8.12-17.14-12.54-3.61-2.88-7.17-5.89-9.93-9.68-.59-1.52-1.6-2.78-2.51-4.1Z"/>
      <path class="cls-13" d="m289.32,107.36c-.4-.18-.75-.29-.85-.71-.15-.62.26-.98.69-1.09.7-.17,1.45-.19,2.17-.19,6.49.02,12.98.38,19.44.95,7.15.63,14.17.07,21.13-1.57,1.68-.39,3.3-.89,4.68-2,.31-.25.71-.21.99.05.44.42.28.94,0,1.33-.28.38-.69.68-1.1.94-1.15.73-2.44,1.12-3.75,1.46-7.42,1.95-14.94,2.56-22.57,1.79-6.46-.65-12.95-.78-19.44-1.02-.49-.02-.98.03-1.39.04Z"/>
      <path class="cls-13" d="m263.79,191.33c.19.14.45.24.54.43.09.19.08.49,0,.68-.35.71-1.08.97-1.71,1.33-5.92,3.37-12.23,5.61-19.03,6.24-6.45.6-12.92,1.03-19.38,1.57-1.82.15-3.63.43-5.45.63-.4.04-.64-.26-.79-.61-.19-.43.07-.76.35-.93,1.18-.74,2.55-.79,3.88-.9,5.12-.42,10.24-.85,15.36-1.21,5.63-.4,11.2-1.02,16.54-3.01,2.76-1.03,5.44-2.19,8.01-3.63.52-.29,1.03-.68,1.69-.58Z"/>
      <path class="cls-13" d="m45.33,178.67c.04.69.4,1.02.79,1.32,4.03,3.02,7.21,6.95,10.94,10.3,1.19,1.07,2.14,2.35,2.7,3.88.12.34.3.72.23,1.05-.06.3-.37.59-.64.77-.12.08-.53-.03-.62-.17-3.52-5.72-8.8-9.74-13.69-14.12-2.97-2.66-2.96-3.76.55-5.53,2.72-1.38,5.49-2.68,8.27-3.94,3.05-1.39,6.3-1.91,9.64-1.87.62,0,1.23.12,1.67.6.15.16.27.43.25.64-.02.21-.2.52-.37.57-.45.12-.94.18-1.41.16-3.89-.14-7.49.83-10.92,2.62-1.95,1.02-3.98,1.87-5.96,2.83-.53.26-1,.63-1.44.9Z"/>
      <path class="cls-13" d="m61.36,236.02c-.33.49-.58.86-.83,1.23-.25.38-.8.43-.92.21-.6-1.08-1.95-1.37-2.48-2.56-.52-1.17-1.6-1.73-2.89-1.96-1.2-.21-2.38-.55-3.53-.95-.55-.19-1.05-.61-1.49-1.01-.26-.23-.38-.65-.07-.97.15-.16.47-.36.6-.3,2.51,1.25,5.52.96,7.92,2.57.51.34.91.06,1.16-.43.47-.9,1.08-.89,1.69-.19.73.83,1.36,1.73,2.1,2.55.81.9,1.63,1.8,2.86,2.2,3.38,1.11,5.05,4.06,7.01,6.69.23.3.12.7-.23.94-.33.23-.68.2-1.02.01-.89-.49-1.38-1.36-1.98-2.13-1.05-1.37-2.2-2.59-3.91-3.19-1.51-.53-2.62-1.75-3.98-2.69Z"/>
      <path class="cls-13" d="m47.68,213.88c.53.08.83.29.91.67.11.55-.14.97-.68,1.12-3.35.94-6.11,3.06-9.13,4.65-.95.5-1.01,1.33-.25,2.1.42.43.88.85,1.39,1.18,1.44.92,2.96,1.73,4.37,2.69.84.57,2.24.57,2.36,1.97.07.83-1.18.76-3.15-.29-1.51-.81-2.97-1.7-4.45-2.57-.42-.25-.85-.5-1.21-.83-2.65-2.49-3.15-4.18.43-6.2,1.92-1.08,3.8-2.23,5.73-3.3,1.18-.65,2.4-1.23,3.67-1.19Z"/>
      <path class="cls-13" d="m102.07,182.03c6.29,1.09,10.96,3.96,14.5,8.66.14.19.25.44.27.66.02.22-.05.55-.19.64-.28.17-.74.38-.96.26-.52-.29-1.02-.69-1.4-1.15-2.85-3.57-6.53-5.81-10.95-6.9-.59-.14-1.14-.42-1.71-.65-.39-.15-.55-.49-.51-.86.07-.63.58-.67,1.08-.66.12,0,.24.03-.13-.02Z"/>
      <path class="cls-13" d="m257.32,179.94c.09-.13.23-.54.5-.67.76-.37,1.56-.66,2.37-.92,3.62-1.17,7.02-2.73,9.96-5.22.72-.61,1.65-1,2.51-1.44.11-.06.44.18.57.36.13.17.23.46.19.66-.04.22-.24.43-.42.58-4.07,3.62-8.73,6.17-14.01,7.55-.34.09-.73.11-1.07.04-.33-.07-.69-.27-.6-.94Z"/>
      <path class="cls-13" d="m83.31,174.64c2.68.33,5.37,1.02,7.71,2.67.39.27.75.61,1.06.97.12.14.15.46.09.65-.12.38-.47.53-.86.5-.23-.02-.49-.09-.67-.22-3.46-2.47-7.48-2.59-11.49-2.79-.72-.04-1.48.14-2.12-.29-.27-.18-.51-.52-.6-.83-.11-.41.23-.69.6-.71,2.06-.08,4.12-.39,6.29.05Z"/>
      <path class="cls-13" d="m81.31,208.46c-.49.84-1.07,1.88-1.7,2.9-.34.56-1.18.46-1.45-.14-.12-.27-.27-.55-.3-.84-.16-1.93.17-3.78,1.16-5.47.42-.71,1.16-1.02,1.75-.81.74.26,1.09.8,1.2,1.56.13.94-.23,1.76-.67,2.8Z"/>
      <path class="cls-13" d="m52.67,216.45c.29-3.92,1.16-7.72,2.85-11.29.23-.48.69-.69,1.21-.41.34.18.5.53.41.92-.13.59-.25,1.2-.46,1.77-1.71,4.49-2.55,9.15-2.74,13.94,0,.24-.02.49-.06.73-.08.49-.17.96-.87.85-.61-.1-.75-.56-.79-1.05-.04-.48-.04-.98,0-1.46.13-1.34.29-2.67.45-4Z"/>
      <path class="cls-13" d="m180.55,211.4c.91,1.32,1.92,2.58,2.51,4.1-.29.19-.61.33-.86.57-.66.64-1.34.55-1.87-.05-.71-.8-1.28-1.73-1.92-2.59-.93-1.24-1.84-2.49-2.81-3.69-.3-.37-.6-.01-.85.22l.03.03c.33-.16.7-.38.46-.77-.49-.83-1.11-1.59-1.59-2.43-.14-.25-.08-.75.09-.99.35-.49.92-.36,1.25.01.98,1.08,1.89,2.22,2.82,3.35.62.75,1.19,1.53,1.82,2.28.29.34.62.19.92-.04Z"/>
      <path class="cls-13" d="m216.92,180.17c-.26-.04-.77-.05-1.21-.23-.28-.12-.6-.48-.65-.77-.09-.56.32-.88.86-.92.61-.04,1.22-.03,1.83-.01,3.68.12,7.32-.05,10.73-1.67.3-.14.72-.18.95.24.28.5.19.98-.25,1.27-.61.39-1.26.73-1.94.98-3.27,1.19-6.66,1.41-10.32,1.12Z"/>
      <path class="cls-13" d="m115.18,239.72c3.26-.08,6.52-.12,9.74-.73.82-.15,1.69-.07,2.53-.03.38.02.65.3.73.69.12.63-.46,1.02-.79.99-2.81-.29-5.45.92-8.22.87-.73-.01-1.53.11-2.16-.15-.97-.39-1.22.3-1.74.74-.27.22-.61-.13-.76-.48.62-.49.55-1.23.67-1.9Z"/>
      <path class="cls-13" d="m153.47,243.63c.09-.22.21-.44.26-.67.37-1.63.47-1.72,1.73-1.35,1.05.31,2.06.74,3.12.99,1.68.4,3.34,1.46,5.15.36.12-.07.43.16.63.27.1.06.22.16.23.26.03.2.03.57-.02.58-.95.18-1.78.51-2.54,1.17-.47.4-1.19.15-1.74-.08-1.58-.66-3.24-.99-4.93-1.17-.67.12-1.32.08-1.9-.36Z"/>
      <path class="cls-13" d="m203.16,213.04c-.62-1.95-.64-2.01.51-2.73.92-.58,1.9-1.07,2.89-1.54.33-.16.77,0,.87.39.08.3.05.82-.15.98-.76.6-1.58,1.13-2.41,1.63-.73.44-.55.91-.19,1.47.29.47.24.99-.24,1.27-1.61.95-3.4,1.21-5.24,1.16-.18,0-.49-.29-.49-.44,0-.33.09-.88.28-.95,1.37-.47,2.78-.84,4.18-1.25Z"/>
      <path class="cls-13" d="m126.58,225.8c-.84,2.44-1.93,4.85-4.18,6.53-.48.36-1.01.7-1.66.44-.33-.14-.66-.33-.48-.8.04-.11.06-.27.14-.32,2.27-1.62,3.48-3.97,4.44-6.48.08-.22.24-.42.4-.59.28-.3.65-.32.97-.13.18.11.35.33.4.53.06.22,0,.47-.03.83Z"/>
      <path class="cls-13" d="m279.86,100.58c.21.08.5.1.65.25.23.25.43.56.52.89.03.13-.25.49-.42.52-2.87.44-5.75.92-8.67.65-.55-.05-.77-.51-.75-1.05.02-.43.32-.68.69-.7,2.66-.2,5.31-.37,7.98-.55Z"/>
      <path class="cls-13" d="m108.33,240.49c.58.1.79.55.95,1.01.19.57.54,1.27-.03,1.69-1.44,1.08-2.95,2.07-4.47,3.03-.21.13-.74,0-.96-.21-.22-.2-.41-.72-.3-.93,1.01-1.99,2.8-3.24,4.48-4.59.07-.06.23,0,.33,0Z"/>
      <path class="cls-13" d="m53.85,224.38c.12-.12.25-.32.44-.42.25-.13.5-.01.57.28.32,1.45,1.08,2.27,2.68,2.35.58.03.73,1.23.3,1.89-.28.43-.73.71-1.2.38-.53-.37-1.11-.42-1.69-.55-.36-.08-.6-.33-.66-.74-.13-1.05-.29-2.1-.44-3.18Z"/>
      <path class="cls-13" d="m75.12,230.15c-.13.27-.35.83-.64,1.31-.27.45-.66.49-.77.17-.4-1.13-.65-2.37,0-4.07.32-.82.97-1.26,1.36-.88.67.65.71,1.51.05,3.47Z"/>
      <path class="cls-13" d="m153.47,243.63c.57.44,1.22.47,1.9.36.47.27.67.63.43,1.17-.17.4-.55.49-.88.44-.83-.11-1.77-.1-2.45-.49-1.11-.65-3.07,0-3.3-2.03,1.43-.96,2.69,0,4,.37.11.03.2.13.3.19Z"/>
      <path class="cls-13" d="m55.97,201.05c-.2-1.39.68-2.36,1.67-3.27.26-.24.64-.44.95-.13.22.22.5.65.42.87-.47,1.33-.99,2.64-1.58,3.93-.19.41-.63.75-1.18.57-.61-.19-.48-.72-.46-1.17,0-.23.11-.46.19-.79Z"/>
      <path class="cls-13" d="m255.07,101.97c-.55-.17-.89.12-1.22.5-.4.46-.8.99-1.48.45-.68-.53-1.27-1.15-1.06-2.13.13-.61.39-1.13,1.04-1.36.51-.18.92,0,1.32.3.63.48.23,1.78,1.44,1.78.01.15,0,.31-.05.45Z"/>
      <path class="cls-13" d="m89.64,252.62c-1.29-.04-1.77-.03-2.24-.07-.52-.04-.96-.3-.9-.86.03-.28.33-.67.59-.76,1.65-.56,3.28-.48,4.83.35.17.09.32.38.33.58.01.36-.16.72-.57.74-.95.04-1.9.02-2.03.02Z"/>
      <path class="cls-13" d="m303.66,136.55c-.58-.09-1.12,0-1.59.4-.27-.2-.51-.47-.82-.6-.65-.28-1.93.29-1.75-1.05.13-.99,1.22-.92,2.01-1.05.91-.15,1.9.13,2.69-.57l.24-.02.24.04c-.34.96-.34,2.03-1.03,2.86Z"/>
      <path class="cls-13" d="m92.64,170.89c.44-1.2,1.07-2.48,2.47-3.14.25-.12.69.03.97.18.43.22.26.64.07.92-.67.99-1.37,1.95-2.09,2.9-.23.3-.6.39-.96.2-.34-.18-.5-.48-.46-1.05Z"/>
      <path class="cls-13" d="m100.25,249.42c.05.88-.84,1.78-2.26,2.2-.47.14-.99-.05-1.14-.62-.17-.64-.85-1.39.09-1.91.7-.38,1.67-.26,1.94-1.34.07-.29.57-.44.94-.28.36.16.48.49.45.88,0,.12,0,.24-.03,1.07Z"/>
      <path class="cls-13" d="m73.58,245.23c.15-.17.27-.45.45-.49.68-.18,1.14.28,1.56.7.56.56.94.41,1.45-.12.33-.35.92-.41,1.22.14.28.52.44,1.1.64,1.66.01.04-.14.19-.22.19-.23,0-.55.03-.68-.1-1.09-1.06-2.44-1.22-3.86-1.25-.28,0-.75-.18-.55-.72Z"/>
      <path class="cls-13" d="m258.84,100.61c.27-.55.46-1.13.8-1.62.46-.66,1.37-.66,1.86-.07.59.71.63,1.44.05,1.93-.37.31-.79.59-1.23.75-.3.11-.77.14-1.01-.03-.25-.17-.31-.61-.47-.97Z"/>
      <path class="cls-13" d="m253.11,179.63c-.32-.26-.58-.38-.66-.57-.08-.19-.05-.52.07-.67.73-.85,1.7-1.29,2.8-1.42.18-.02.46.16.58.33.12.17.2.51.1.65-.71,1.09-1.8,1.47-2.9,1.67Z"/>
      <path class="cls-13" d="m265.28,100.08c.15-.18.4-.57.73-.88.48-.46.83-1.28,1.73-.85.68.33.36,1.52-.62,2.36-.37.32-.79.54-1.29.41-.37-.09-.59-.37-.55-1.04Z"/>
      <path class="cls-13" d="m122.87,222.63c.17-.97.81-1.93,1.68-2.74.13-.12.47-.11.66-.03.18.07.44.32.43.46-.15,1.34-.6,2.53-1.96,3.07-.28.11-.69-.1-.81-.76Z"/>
      <path class="cls-13" d="m255.07,101.97c.05-.15.06-.3.05-.45.22-.85.67-1.55,1.42-2.01.44-.27.96-.25,1.33.12.39.38.38.87.05,1.3-.52.68-1.08,1.31-1.97,1.5-.4.08-.67-.16-.89-.46Z"/>
      <path class="cls-13" d="m115.18,239.72c-.13.67-.05,1.41-.67,1.9-.78.02-1.31,1.32-2.22.47-.52-.49.04-1.33,1.32-2.01.49-.26.91-.85,1.57-.36Z"/>
      <path class="cls-13" d="m246.8,180.96c.02-.71.62-1.22,1.71-1.35.51-.06.98.14,1.03.68.03.27-.21.71-.45.84-.5.27-1.08.43-1.64.53-.41.07-.56-.31-.65-.7Z"/>
      <path class="cls-13" d="m99.88,165.14c.52-.05.74.21.79.58.1.72-.47,1.46-1.15,1.41-.26-.02-.63-.36-.7-.62-.17-.67.4-1.29,1.05-1.37Z"/>
      <path class="cls-13" d="m174.76,209.97c-.57.52.06,1.1-.08,1.63-.09.32-.25.77-.49.85-.23.08-.72-.14-.89-.38-.28-.39-.31-.89.08-1.3.39-.41,1.21-.03,1.41-.78l-.03-.03Z"/>
      <path class="cls-13" d="m102.21,165.52c-.51-.18-.71-.55-.61-1.06.08-.39.38-.55.76-.52.63.05,1,.71.72,1.24-.15.28-.55.44-.87.34Z"/>
      <path class="cls-13" d="m365.54,115.33c-1.82-.02-3.63-.14-6.11-.79,2.37-.61,3.98-.05,5.6.06.17.24.35.48.52.72Z"/>
      <path class="cls-13" d="m231.57,260.64c-.66.41-1.37.42-2.05.11-.28-.13-.67-.45-.66-.68.02-.58.52-.68,1.02-.64.36.03.71.09,1.07.13.21.36.42.71.63,1.07Z"/>
      <path class="cls-14" d="m77.38,224.35s-1.07-2.1.13-4.38,1.65-1.51,1.82-.84,1.36,2.31,1.05,3.16-.32,2.21-1.45,2.83-.82.75-1.54-.78Z"/>
      <path class="cls-14" d="m79.8,222.69s.62.71,1.46.57l.84-.14s-.59,2.31,2.09,4.89c2.69,2.58,2.02,4.45,3,5.36,0,0,1.69,1.87.56-.94s.07-2.58-1.75-4.27c-1.82-1.69-3.75-4.28-2.9-4.96s.77-1.67,4.93-2.74,4.59-2.51,4.69-3.44.85-3.45.44-3.23-.64-.57-1.8.79c0,0,.59,1.71-1.06,2.64s-3.8,2.24-5.75,2.6-1.92,2.25-1.92,2.25c0,0-2.39.94-2.54-.42l-.28,1.03Z"/>
      <path class="cls-12" d="m65.35,191.05s-5.7-7.52-7.37-8.31c-2.37-1.13-4.55-3.3.16-3.87,4.72-.57,8.93.11,10.69.99s3.28,1.07,2.73,2.43-3.38,3.59-3.58,4.87-.98,6.19-2.63,3.89Z"/>
      <path class="cls-13" d="m78.57,231.01c-.14.15-.33.29-.42.46-4.01,8.07-7.81,16.2-10.06,24.8-.1.4-.27.8-.45,1.18-.13.29-.35.51-.64.43-.29-.08-.35-.38-.29-.67.14-.71.3-1.42.51-2.13.42-1.41.87-2.82,1.32-4.23.13-.4.25-.81.44-1.2l1.81-4.68c.28-1.19.91-2.38,1.44-3.54,1.74-3.78,3.39-7.6,5.59-11.18,0,0,.95-.95.76.75Z"/>
      <path class="cls-13" d="m77.45,249c-.49,3.4-.99,6.93-1.5,10.46-.15,1.01-.34,2.02-.55,3.02-.07.31-.35.5-.64.52-.35.02-.39-.29-.35-.58.44-3.33.9-6.66,1.35-9.99.15-1.1.31-2.21.47-3.31l.49-2.83c.32-1.82.59-3.64.9-5.46.14-.81.32-1.62.52-2.42.1-.43.43-.9.75-.91.35-.01.42.44.33.9-.41,2.32-.8,4.65-1.19,6.97-.08.5-.11.99-.2,1.78l-.39,1.87Z"/>
      <path class="cls-13" d="m86.79,207.95c-.09-.19-.24-.37-.27-.56-1.66-8.85-3.11-17.71-2.95-26.6,0-.41-.04-.84-.11-1.26-.05-.31-.19-.59-.5-.59-.3,0-.44.27-.47.57-.06.72-.1,1.45-.09,2.19.02,1.47.08,2.95.12,4.43.01.42.02.85.09,1.27l.47,5c-.05,1.22.23,2.53.43,3.8.65,4.11,1.2,8.24,2.35,12.27,0,0,.66,1.17.93-.51Z"/>
      <path class="cls-13" d="m90.59,190.34c.45-3.4.93-6.94,1.39-10.48.13-1.01.22-2.03.29-3.06.02-.31-.2-.58-.47-.68-.33-.12-.45.18-.5.47-.48,3.33-.94,6.66-1.41,9.99-.15,1.1-.3,2.21-.45,3.32l-.3,2.86c-.19,1.84-.42,3.66-.61,5.5-.08.81-.13,1.64-.16,2.47-.01.44.17.98.48,1.08.33.11.52-.31.57-.77.24-2.35.49-4.69.75-7.03.06-.5.16-.98.29-1.76l.13-1.9Z"/>
      <path class="cls-13" d="m97.53,196.33c.74-2.45,1.52-4.98,2.28-7.53.22-.72.41-1.46.58-2.21.05-.23-.08-.45-.27-.55-.23-.13-.36.08-.42.28-.75,2.38-1.5,4.77-2.24,7.16-.25.79-.48,1.59-.73,2.38l-.56,2.06c-.36,1.33-.75,2.64-1.11,3.97-.16.59-.29,1.19-.41,1.79-.06.32,0,.74.22.85.23.12.42-.16.51-.5.46-1.7.92-3.39,1.4-5.07.1-.36.24-.7.43-1.26l.33-1.38Z"/>
      <path class="cls-13" d="m105.33,213.31c1.11,1.8,1.8,3.95,2.18,6.02.74,4.01.02,8.03-2.19,11.48-1.01,1.58-2.43,2.93-4.04,3.89-.67.4.75.54,1.09.34,3.16-1.88,5.39-4.95,6.37-8.48,1.03-3.74.57-7.72-.89-11.28-.31-.76-.65-1.53-1.08-2.23-.22-.36-1.66-.11-1.43.27h0Z"/>
    </g>
  </g>
  <g id="cat">
    <path class="cls-9" d="m183.13,41.7c2.17-.16,4.33-.32,6.5-.49,3.5.07,7,.15,10.49.22,1.25,0,2.5,0,3.75.01.5,0,1,.02,1.5.02.83.06,1.67.11,2.5.17,3.15.15,6.3.29,9.45.44.73.06,1.47.12,2.2.17.2.14.39.29.59.43.92.01,1.83.02,2.75.03,1,.16,2,.32,3,.47.92.17,1.83.34,2.75.5.75.17,1.5.33,2.25.5.66.19,1.32.39,1.98.58.72.34,1.43.69,2.15,1.03.38.47.76.95,1.14,1.42.45,1.43-.52,2.28-1.29,3.22-.68.58-1.37,1.17-2.05,1.75-.5.18-1.02.33-1.5.55-1.88.89-3.7,1.94-5.63,2.7-4.16,1.62-8.33,3.22-12.57,4.6-5.12,1.67-10.31,3.11-15.48,4.61-.42.12-.9,0-1.36,0,.08-.59.16-1.19.24-1.78-.58.23-1.16.45-1.72.71-.18.08-.32.27-.48.39-1,.72-1.99,1.44-3.24,2.33-.09-.79-.2-1.26-.18-1.72.15-3.01.36-6.03.49-9.04.07-1.6-.34-1.88-1.63-.94-2.32,1.68-4.53,3.51-6.75,5.31-.2.16-.35.7-.24.83.19.23.7.47.9.37,1.34-.71,2.64-1.49,3.92-2.3.5-.32.92-.76,1.53-1.28.12.7.28,1.14.26,1.58-.09,2.1-.21,4.21-.36,6.31-.04.61-.25,1.2-.37,1.8-1.7.35-3.41.64-5.09,1.05-2.46.6-4.89,1.29-7.33,1.95.14-1.26.33-2.53.39-3.79.04-.79-.13-1.59-.21-2.38-.78.3-1.67.46-2.33.94-1.94,1.42-3.83,2.92-5.63,4.51-.43.38-.46,1.23-.67,1.87-1.58,1.23-4.02.73-5.57,2.84,1.11.46,2.03.99,3.02,1.22,2.8.66,5.63,1.19,8.45,1.77-.18.95-.35,1.9-.61,3.26.97-.37,1.66-.5,2.2-.86,1-.66,1.9-1.46,2.85-2.2,1.36.27,2.72.57,4.08.81,5.93,1.01,11.91,1.75,17.63,3.72.97.34,1.93.8,2.77,1.39,1.16.82,1.26,1.87.11,2.67-1.65,1.15-3.42,2.21-5.29,2.95-5.27,2.09-10.8,3.26-16.41,4-5.05.67-10.12,1.27-15.19,1.76-4.42.43-8.85.67-13.28.95-.64.04-1.3-.18-1.95-.28.52-.88,1.03-1.75,1.55-2.63-.13-.11-.26-.23-.39-.34-.38.18-.8.3-1.13.55-.94.69-1.81,1.47-2.77,2.13-.45.31-1.03.43-1.55.63-.11-.55-.23-1.09-.33-1.64-.02-.12,0-.25.02-.37.31-2.78.67-5.56.93-8.35.13-1.36-.64-1.85-1.75-1.05-2.32,1.68-4.54,3.5-6.76,5.31-.25.2-.24.72-.35,1.09.38.05.86.28,1.13.13,1.32-.75,2.59-1.59,3.87-2.42.41-.26.78-.57,1.17-.85.12.07.24.15.36.22-.14,2.73-.28,5.46-.42,8.19-.35-.08-.7-.24-1.05-.24-2.69-.03-5.37,0-8.06-.04-1.03-.01-2.05-.14-3.07-.21-.18-.56-.36-1.12-.54-1.69-.55.23-1.12.4-1.63.69-.68.38-1.3.85-1.95,1.29-2.26-.27-4.52-.59-6.78-.8-6.9-.61-13.79-1.29-20.47-3.27-.82-.24-1.65-.61-2.35-1.11-1.16-.83-1.29-1.75-.25-2.7,1.18-1.09,2.48-2.13,3.9-2.84,5.68-2.86,11.47-5.53,17.15-8.39,3.38-1.7,6.65-3.63,9.3-6.43,2.26-2.38,2.29-4.82-.07-7.08-.95-.91-2.12-1.58-3.16-2.4-1.2-.94-2.49-1.81-3.53-2.91-1.03-1.08-.83-1.93.16-3.08,1.76-2.05,4.19-2.97,6.6-3.86,6.22-2.29,12.69-3.58,19.2-4.65,6.5-1.07,13.03-1.94,19.56-2.78,5.34-.69,10.71-1.19,16.07-1.78Zm-24.16,35.93c.14.04.28.09.43.13,0,1.03.1,2.08-.02,3.1-.29,2.55-.69,5.09-1.02,7.64-.06.5-.02,1.01-.02,1.51.54-.07,1.23.06,1.59-.23,2.08-1.65,4.12-3.36,6.09-5.14.48-.44.68-1.2,1.01-1.81-2.52.21-3.65,2.7-6.13,3,0-.74-.04-1.31,0-1.88.25-2.85.53-5.7.77-8.55.04-.43-.09-.87-.15-1.3-.51.08-1.14,0-1.5.27-2.31,1.76-4.57,3.59-6.82,5.43-.2.17-.22.56-.33.84.29.11.63.36.88.29.7-.18,1.45-.38,2.04-.78,1.11-.77,2.13-1.68,3.18-2.53Z"/>
    <path class="cls-11" d="m178.08,77.41c-.94.74-1.85,1.54-2.85,2.2-.54.36-1.23.49-2.2.86.25-1.36.43-2.31.61-3.26.24-2.24.47-4.48.71-6.72v-3.02c-1.83,1.41-3.31,2.55-4.79,3.7-.6.07-1.21.14-1.81.21.21-.64.23-1.49.67-1.87,1.8-1.59,3.69-3.09,5.63-4.51.65-.48,1.55-.64,2.33-.94.08.79.25,1.59.21,2.38-.06,1.27-.25,2.53-.39,3.79-.09,1.9-.19,3.81-.28,5.71.13.05.26.1.4.15l5.27-3.62c.11.13.22.27.32.4-.52,2.12-2.32,3.22-3.83,4.55Z"/>
    <path class="cls-11" d="m127.8,95.77c.65-.43,1.28-.9,1.95-1.29.51-.29,1.09-.47,1.63-.69.18.56.36,1.12.54,1.69-.13.93-.31,1.85-.38,2.78-.2,2.46-.35,4.92-.54,7.6,2.51-.6,3.67-2.85,6.18-3.62-.3.76-.39,1.27-.66,1.65-1.78,2.53-4.37,4.16-6.83,5.92-.22.16-.75.19-.9.04-.23-.22-.38-.67-.33-.99.33-2.19.82-4.37,1.06-6.57.17-1.59.03-3.22.03-4.83-.14-.04-.27-.07-.41-.11-.39.34-.75.73-1.17,1.01-1.22.82-2.45,1.65-3.74,2.36-.33.18-.91-.08-1.38-.14-.02-.15-.04-.3-.06-.45,1.67-1.46,3.33-2.92,5-4.38Z"/>
    <path class="cls-11" d="m142.83,85.84c.65-.43,1.28-.9,1.95-1.29.51-.29,1.09-.47,1.63-.69.18.56.36,1.12.54,1.69-.13.93-.31,1.85-.38,2.78-.2,2.46-.35,4.92-.54,7.6,2.51-.6,3.67-2.85,6.18-3.62-.3.76-.39,1.27-.66,1.65-1.78,2.53-4.37,4.16-6.83,5.92-.22.16-.75.19-.9.04-.23-.22-.38-.67-.33-.99.33-2.19.82-4.37,1.06-6.57.17-1.59.03-3.22.03-4.83-.14-.04-.27-.07-.41-.11-.39.34-.75.73-1.17,1.01-1.22.82-2.45,1.65-3.74,2.36-.33.18-.91-.08-1.38-.14-.02-.15-.04-.3-.06-.45,1.67-1.46,3.33-2.92,5-4.38Z"/>
    <path class="cls-11" d="m187.34,55.82c.65-.43,1.28-.9,1.95-1.29.51-.29,1.09-.47,1.63-.69.18.56.36,1.12.54,1.69-.13.93-.31,1.85-.38,2.78-.2,2.46-.35,4.92-.54,7.6,2.51-.6,3.67-2.85,6.18-3.62-.3.76-.39,1.27-.66,1.65-1.78,2.53-4.37,4.16-6.83,5.92-.22.16-.75.19-.9.04-.23-.22-.38-.67-.33-.99.33-2.19.82-4.37,1.06-6.57.17-1.59.03-3.22.03-4.83-.14-.04-.27-.07-.41-.11-.39.34-.75.73-1.17,1.01-1.22.82-2.45,1.65-3.74,2.36-.33.18-.91-.08-1.38-.14-.02-.15-.04-.3-.06-.45,1.67-1.46,3.33-2.92,5-4.38Z"/>
    <path class="cls-11" d="m116.49,118.66h-.11s-.1.05-.1.05c-.37.25-.75.5-1.12.75-.55.53-1.29.68-1.7.07-.29-.44-.24-1.23-.1-1.81.24-1.02.66-2,1-3,.09-2,.17-4,.26-6v-1.58c-.61.44-1,.72-1.4,1.01-1.06.78-2.07,1.66-3.22,2.29-.52.28-1.31.05-2.24.05.3-.5.37-.71.51-.82,2.26-1.82,4.52-3.65,6.82-5.42.37-.28.97-.27,1.47-.4.12.53.38,1.08.34,1.6-.2,2.69-.48,5.38-.73,8.06,0,.08,0,.17,0,.25.04.55.09,1.1.13,1.66.6-.26,1.25-.44,1.8-.78,1.21-.75,2.36-1.58,3.65-2.24-.13,2.07-1.55,3.14-2.84,4.29-.21.16-.41.32-.62.48-.21.12-.42.24-.63.36-.09.06-.17.12-.26.18-.08.08-.16.15-.24.23-.22.24-.44.48-.66.72Z"/>
    <path class="cls-11" d="m158.97,77.62c-1.06.85-2.07,1.77-3.18,2.53-.59.4-1.34.6-2.04.78-.25.06-.58-.19-.88-.29.11-.29.13-.68.33-.84,2.25-1.84,4.51-3.67,6.82-5.43.36-.28,1-.19,1.5-.27.05.43.18.87.15,1.3-.24,2.85-.52,5.7-.77,8.55-.05.57,0,1.15,0,1.88,2.48-.3,3.61-2.79,6.13-3-.33.61-.52,1.37-1.01,1.81-1.97,1.78-4.01,3.49-6.09,5.14-.36.29-1.05.16-1.59.23,0-.5-.04-1.02.02-1.51.33-2.55.73-5.08,1.02-7.64.12-1.02.02-2.06.02-3.1-.14-.04-.28-.09-.43-.13Z"/>
  </g>
</svg>