<?xml version="1.0" encoding="UTF-8"?>
<svg id="bg" xmlns="http://www.w3.org/2000/svg" viewBox="0 0 332.15 80">
  <defs>
    <style>
      .cls-1 {
        fill: none;
        stroke: #f0cb9c;
        stroke-dasharray: 0 6;
        stroke-linecap: round;
        stroke-miterlimit: 10;
        stroke-width: 2px;
      }

      .cls-2 {
        fill: #f9be99;
      }

      .cls-3 {
        fill: #eea77d;
      }

      .cls-4 {
        fill: #bb8057;
      }

      .cls-5 {
        fill: #241914;
      }
    </style>
  </defs>
  <g>
    <g>
      <path class="cls-3" d="m251.52,31.48c.93-.09,1.73-.43,2.42-1.03-.79.37-1.6.74-2.42,1.03Z"/>
      <path class="cls-3" d="m303.05,43.52c-.45-2.47-1.28-4.85-1.94-7.28-.04-.06-.07-.13-.11-.19-.09-.14-.19-.28-.28-.42-1.11-1.39-2.2-2.8-3.48-4.04-.29-.28-.6-.54-.84-.86-1.61-1.25-3.42-2.22-4.8-3.72-1.63-.65-3.35-1.02-5.18-1.06-1.64-.03-3.25-.05-4.88.49-1.52.5-3.06.92-4.48,1.65-.55.28-1.07.34-1.64.23-.31-.06-.62-.15-.92-.26-.91-.14-1.81-.38-2.69-.53-.9-.15-1.84-.23-2.75-.41-.29.02-.58.04-.88.07.39.37.88.25,1.33.25.68,0,1.34.04,1.95.39.17.1.38.17.58.2,1.81.2,3.51.75,5.18,1.44.47.2,1,.19,1.48.43.75.36.83.33.98-.45.21-1.13,1.03-1.51,1.97-1.64.76-.11,1.55-.06,2.31.02.68.08,1.12.55,1.22,1.23.11.76.15,1.54-.05,2.3-.08.29-.13.6-.16.9-.01.15.06.31.25.32.09,0,.22,0,.28-.06.14-.14.28-.31.38-.48.23-.4.57-.59,1.02-.57.54.02,1-.09,1.38-.52.16-.18.44-.27.68-.34.66-.18,3.02.29,3.58.69.45.31.48.77.43,1.24-.06.51-.39.82-.83,1.03-.09.04-.2.08-.3.07-.97-.11-1.38.27-1.42,1.28-.02.51-.55.85-1.13.89-.31.02-.63.04-.93-.01-1.06-.18-2.12-.37-3.17-.59-.7-.15-.87-.38-.89-1.05,0-.31.05-.61.09-.99-.62-.23-1.28-.1-1.93-.13.25.32.5.64.75.97.1.14.09.3-.05.41-.13.1-.3.07-.42-.03-.39-.33-.79-.66-1.17-1.01-1.05-1.01-2.32-1.73-3.6-2.37-1.69-.85-3.43-1.66-5.34-1.96-.24-.04-.5,0-.79,0,.16.43.47.52.77.55,1.15.13,2.19.64,3.19,1.13,1.14.56,2.13,1.42,3.18,2.15.08.06.13.16.19.24.1.15.09.32-.04.41-.11.07-.32.13-.42.07-.5-.26-.97-.58-1.47-.85-1.08-.59-2.17-1.17-3.26-1.74-.13-.07-.3-.08-.44-.08-.06,0-.16.13-.16.19,0,.09.06.23.14.26.91.41.9,1.29,1.05,2.08.09.5-.39.89-.89.73-.46-.15-.76-.42-.95-.92-.2-.52-1.28-.76-1.76-.47-.05.03-.08.21-.04.26.15.21.33.4.49.59.52.64,1.04,1.27,1.55,1.92.1.13.11.31-.01.41-.1.08-.29.14-.41.11-.19-.06-.37-.18-.52-.31-.27-.24-.53-.49-.77-.76-1.61-1.83-3.62-3.21-5.44-4.8-.32-.28-.69-.46-1.09-.55-.09-.02-.23.01-.28.07-.13.15-.02.29.1.36,1.23.79,2.12,1.94,3.16,2.94.57.55.77,1.32,1.05,2.03.13.32.17.69.34,1.01.41.81.39,1.82,1.17,2.46.05.04.04.2.02.3-.02.09-.07.21-.14.26-.07.05-.22.06-.29.01-.59-.42-1.15-.91-1.43-1.59-.45-1.09-1.48-1.7-2.09-2.66-.34-.53-1.14-.63-1.65-1.11-.47-.44-.53-1.11-1.04-1.51-.63-.5-1.29-.83-2.11-.74-.16.02-.3.07-.36.23-.06.17.01.31.13.41.54.48,1.09.94,1.63,1.42.15.14.29.29.42.45.1.13.11.31-.01.41-.1.08-.3.15-.41.11-.23-.09-.45-.24-.65-.39-.83-.61-1.64-1.24-2.48-1.84-.25-.18-.55-.28-.83-.39-.07-.02-.22.04-.25.11-.04.07,0,.24.05.27.61.32.78,1.08,1.41,1.41.47.24.77.65.93,1.18.1.33.35.62.54.93.32.52.71.99.67,1.68-.02.46.23.92.56,1.24.49.48.71,1.14,1.12,1.66.79,1.02.99,2.25,1.3,3.44.05.18,0,.41-.09.59-.11.25-.35.38-.63.36-.21-.01-.41-.1-.52-.29-.09-.18-.19-.38-.2-.57-.08-1.19-.7-2.15-1.36-3.07-.31-.43-.58-.83-.56-1.38,0-.43-.2-.79-.49-1.1-.46-.49-.89-1.01-1.39-1.44-.32-.28-.6-.55-.79-.92-.12-.22-.25-.5-.45-.61-.62-.34-1.02-.84-1.38-1.42-.25-.41-.66-.64-1.18-.61-.73.04-1.44-.03-2.13-.29-.17-.06-.39-.08-.58.13.46.33.93.62,1.35.98.45.38.94.62,1.5.76.27.07.5.27.52.52.06,1.06.84,1.62,1.53,2.22.58.51,1.18,1,1.6,1.65.11.17.24.35.29.54.03.12-.04.29-.12.41-.04.06-.23.1-.27.06-.44-.41-1.22-.34-1.45-1.05-.03-.09-.12-.23-.18-.23-.86-.02-1.17-.75-1.65-1.25-.46-.48-.94-.94-1.3-1.52-.47-.74-1.15-1.31-1.85-1.85-.14-.1-.3-.07-.41.05-.06.07-.1.19-.09.28.06.42.24.79.6,1.04.31.21.54.47.69.81.37.86.86,1.64,1.55,2.29.1.1.14.27.19.41.06.17-.16.47-.33.42-.35-.09-.78-.11-1.01-.33-.48-.47-1.23-.29-1.65-.75-.38-.41-.64-.93-.98-1.39-.4-.54-.81-1.06-1.24-1.58-.2-.24-.43-.46-.77-.46-.17,0-.29.07-.3.25,0,.05,0,.11.03.15.72.97.78,2.22,1.43,3.23.08.13.13.29.14.44,0,.14-.05.31-.14.41-.15.17-.38.16-.56.04-.16-.12-.32-.27-.41-.44-.24-.45-.47-.92-.65-1.4-.11-.3-.24-.57-.47-.78-.07-.06-.19-.1-.27-.08-.07.01-.17.12-.18.19-.03.36-.05.72-.04,1.08,0,.41.06.83-.13,1.22-.17.35-.1.69,0,1.05.24.81.15,1.64.1,2.46-.02.35-.3.55-.65.51-.29-.03-.52-.19-.52-.47.04-1.35-.49-2.63-.37-3.99.04-.41.01-.83,0-1.24-.02-.88-.04-.84-.87-1.14-1.21-.44-2.4-.94-3.59-1.42-.53-.21-1.06-.41-1.57-.64-.23-.1-.44-.26-.62-.44-.09-.09-.12-.29-.1-.43.03-.21.18-.36.41-.39.52-.06,1.02-.02,1.51.19,1.18.51,2.38.98,3.57,1.47.29.12.61.27.84-.06.26-.37.09-1.03-.33-1.2-.47-.19-.98-.3-1.48-.42-.6-.14-1.21-.24-1.81-.38-.2-.05-.39-.14-.57-.23-.45-.21-.65-.54-.5-.82.2-.38.55-.46.93-.4,1.06.19,2.12.41,3.18.61.33.06.55.26.71.54.25.43.69.36,1.11.51.07-.3.12-.55.19-.79.07-.23.21-.39.41-.49-.22-.16-.36-.42-.38-.69-.05-.08-.06-.19-.07-.31-.87-.08-1.74-.01-2.6-.29-.49-.16-1.02-.09-1.51.12-.34.15-.7.16-1.05,0-.25-.12-.4-.33-.41-.61s.12-.57.36-.63c.79-.19,1.57-.65,2.4-.39.81.25,1.63.21,2.45.24-.27-1.31-.51-2.62-1.31-3.75-.17-.24-.19-.58-.26-.88-.24-.94-.35-1.95-.75-2.82-.55-1.19-.73-2.46-1.03-3.7-.23-.95-.43-1.9-.65-2.85-.16-.71-.49-1.35-.82-1.99-.35-.66-.88-1.13-1.55-1.45-.88-.41-1.71-.37-2.41.34-.4.4-.79.82-1.09,1.29-.65.98-1.25,2.01-1.87,3.01,0,.21.05.43,0,.62-.31,1.14-.64,2.27-.98,3.41-.04.15-.19.26-.36.18-.08-.04-.15-.15-.16-.23-.14-1.01.26-1.92.55-2.84.08-.24.23-.46.35-.69-.57,0-1.11-.12-1.67-.22-1.42-.26-2.85-.39-4.23.2.17.1.34.21.51.31.09.05.21.08.26.16.26.43.13.9.15,1.36.03.44-.06.81-.55.98-.22.07-.28.27-.23.5.06.25.11.5.16.75.19,1-.38,1.77-.81,2.57-.07.12-.27.17-.41.06-.11-.09-.27-.25-.24-.34.37-1.42.21-2.86.24-4.3.02-.62-.06-1.23-.1-1.85-.15.03-.3.07-.46.08-1.95.07-2.56-.32-3.29-2.09-.16-.38-.27-.78-.43-1.16-.24-.57-.45-1.16-.77-1.68-1.03-1.65-2.87-1.66-3.85.01-.63,1.06-1.19,2.19-1.46,3.4-.27,1.19-.82,2.21-1.41,3.24-.77,1.34-1.53,2.69-2.28,4.04-.41.73-.75,1.55-.66,2.35.08.77-.11,1.41-.29,2.1-.24.94-.6,1.88-.09,2.85.52,0,1-.17,1.49-.29.65-.17.87,0,1.09.82.09.35.31.33.54.37.21.04.4.1.45.34.06.3-.12.47-.36.59-.18.09-.37.2-.56.23-.7.13-1.4.24-2.09.35-.08.34-.14.68-.25,1.01-.13.39-.18.78-.07,1.18.45-.23.91-.45,1.35-.69.62-.33,1.27-.31,1.93-.21.22.03.37.2.35.42-.01.13-.11.32-.22.36-.84.32-1.7.6-2.55.9-.33.12-.58-.08-.86-.18-.07,1.18-.16,2.37.15,3.54.16-.38.28-.76.68-.99.39-.23.74-.55,1.12-.82.22-.15.47-.18.74-.13.2.04.36.31.25.46-.69.91-1.51,1.66-2.65,1.99-.08.85.08,1.67.34,2.47.4,0,.72-.17.87-.54.43-1.08,1.3-1.85,1.99-2.73.9-1.15,2.23-1.8,3.48-2.53.62-.36,1.28-.66,1.93-.99.26-.13.35-.34.26-.64-.07-.24-.13-.5-.15-.75-.11-1.19.33-2.11,1.39-2.67.33-.17.47-.4.45-.73-.06-1,.22-1.92.53-2.86.24-.75.7-1.26,1.26-1.71.73-.59,1.67-.35,2.02.53.3.76.56,1.55.54,2.39-.02.68.12,1.33.3,1.97.07.25.08.53.33.67.67.38.64,1,.61,1.63-.03.58-.44.91-.83,1.25-.22.18-.49.3-.94.58.56,0,.87.02,1.17,0,1.01-.08,1.94.09,2.81.63.31.19.66.25,1.02.32,1.78.31,3.5.77,5.1,1.65,1.49.81,3.02,1.55,4.34,2.64.92.76,1.85,1.49,2.4,2.57.18.35.47.49.81.65.5.24.72.68.49,1.15-.44.9-.45,1.88-.65,2.82-.22,1.06-.88,1.99-1.64,2.76-1.41,1.44-2.62,3.03-3.94,4.54-1.35,1.55-2.87,2.96-4.35,4.4-1.15,1.12-2.15,2.34-3.1,3.63-.33.45-.75.86-1.18,1.21-.84.68-1.69,1.35-2.59,1.93-.92.59-1.52,1.31-1.73,2.42-.19,1-.99,1.34-1.88.87-1.23-.65-2.43-1.35-2.79-2.9-.16-.72-.62-1.28-1.33-1.61-1.45-.67-2.84-1.45-4.16-2.36-.08-.05-.2-.05-.3-.07.05.35.1.7.16,1.09-.48.2-.94.4-1.41.59.3.32.61.15.9.04.4-.15.81-.2,1.21-.06.11.04.22.21.25.34.04.14-.03.3-.19.37-.09.04-.19.09-.29.09-1.31-.02-2.52.42-3.75.8-.2.06-.39.13-.59.15-.2.02-.44,0-.49-.25-.02-.13.03-.32.12-.41.26-.24.56-.45.84-.67.15-.12.4-.13.42-.51-.85.04-1.69-.13-2.53.16-.19.07-.4.09-.6.1-.55.02-.85-.37-.72-.89.13-.52.32-.96.99-.97.29,0,.59-.17.87-.29.69-.29.84-.85.41-1.45-.12-.17-.27-.31-.39-.48-.12-.17,0-.47.2-.49.41-.03.82-.03,1.23-.06.35-.03.56-.25.54-.62-.03-.35-.11-.71-.17-1.06-.17-.87-.18-1.73-.05-2.6,0-.07.13-.16.21-.17.08,0,.23.05.24.11.15.75.28,1.51.42,2.26.2,1.06.32,2.14.71,3.14.27.68.58,1.35,1.44,1.44.02-.31-.08-.72.08-.91.72-.83.23-1.47-.19-2.19-.47-.8-.78-1.67-.82-2.62-.03-.81.07-1.53.78-2.06.45-.33.46-.73.18-1.22-.34-.58-.63-1.18-.91-1.79-.28-.6-.66-1.16-.7-1.87-.02-.33-.26-.55-.56-.68-.09.19-.19.37-.25.56-.32,1.03-.64,2.06-.76,3.14-.06.59-.08,1.22-.52,1.74-.8.94-1.55,1.92-2.34,2.87-.47.56-.8,1.21-1.03,1.89-.34.97-.66,1.95-.73,2.99-.03.52-.11,1.03-.59,1.36v1.86c.29-.02.5.1.56.4.48,2.2,2,3.23,4.07,3.72,1.08.26,2.15.19,3.23.27.91.06,1.87-.19,2.67.49.1.09.3.08.45.09,0,0,0,0,.01,0,.98-.07,1.96-.11,2.9-.14,1.62-.05,3.2.2,4.79.44.32,0,.63,0,.95,0,.46,0,.89.02,1.26.31,4.7.56,9.5.81,14.22,1.12,1.24-.08,2.48-.21,3.72-.32,1.57-.14,3.12-.68,4.72-.17.19.06.41.02.62.02,1.08,0,2.17,0,3.25,0-.11-.18-.22-.35-.32-.53-.58-1.04-.44-1.89.51-2.54.52-.36,1-.73,1.32-1.27.54-.9.46-1.59-.27-2.36-.28-.3-.58-.58-.87-.88-.18-.19-.31-.4-.36-.67-.21-1.1.26-1.81,1.37-2,.5-.08,1.01-.11,1.52-.19.71-.12,1.35.3,1.61.95.26.68.67.82,1.3.76.63-.05,1.22.02,1.74.47.17.15.49.12.74.18.02-.62.09-1.24.05-1.85-.07-1.05.26-2.04.42-3.05.11-.72.6-1.44,1.31-1.83.72-.4,1.42-.83,2.22-1.07.6-.18,1.17-.34,1.8-.09.54.21,1.12.17,1.67-.02.78-.28,1.63-.15,2.43-.43.46-.16,1.02-.08,1.53.06,1.61.45,3.17.13,4.68-.41.63-.22,1.13-.41,1.69.12.21.2.58.21.84.37.37.22.73.55.65.98-.19,1.01.57,1.47,1.08,2.07.2.23.5.36.72.58.43.42.59,1.25.23,1.7-.78.96-1.58,1.93-2.89,2.18-.4.07-.82.06-1.23.08-.35.01-.6.14-.65.52-.09.69-.45,1.2-1.14,1.28-.85.1-1.77.26-2.45-.54-.24-.28-.49-.54-.31-.96.19-.44.38-.86.93-.93.31-.03.62-.03.93-.06.27-.02.52-.14.63-.38.12-.27-.04-.49-.22-.68-.07-.08-.14-.15-.23-.21-.81-.5-1.14-1.15-.72-2.09.12-.27-.07-.47-.35-.58-.58-.25-1.18-.34-1.8-.4-.3-.03-.59-.16-.88-.25,0,.61,0,1.23,0,1.84,0,.2.03.44-.05.61-.2.4-.64.77-.65,1.16-.01.4.45.77.42,1.28-.03.48-.06.93-.5,1.22-.43.28-.47.6-.24,1.05.59,1.18.56,1.26-.38,2.24-.18.19-.32.38-.44.61-.52,1.01-1.03,1.25-2.09,1.04-.25-.05-.5-.1-.75-.14.03.38.25.65.52.89.37.34.47.76.44,1.23,2.17-.03,4.34-.1,6.51-.09,1.18,0,2.36.22,3.53-.17.24-.08.51-.07.74.05,1.52-.44,3.03-.91,4.48-1.52,2.08-.87,3.87-2.13,5.76-3.33.26-.17.52-.33.78-.48,1.2-1.2,2.41-2.4,3.63-3.58,1.5-1.45,2.76-3.08,3.79-4.87.19-.32.37-.65.55-.98-.02-.09-.02-.19,0-.29,1-3.65,2.67-7.62,1.97-11.46Zm-84.77-10.91c-.31,0-.57-.35-.48-.63.09-.26.3-.44.58-.36.25.06.44.25.43.55-.09.26-.24.45-.53.45Zm2.71-12.94c-.5.1-1,.19-1.5.3-.8.18-1.33-.36-1.14-1.14.14-.59.33-1.19.58-1.75.41-.94.85-1.86,1.32-2.77.16-.31.45-.55.71-.8.29-.27.53-.25.76.07.81,1.11,1.16,2.37,1.23,3.39,0,1.54-.72,2.45-1.96,2.7Zm6.23,1.77c-.02.18-.15.37-.26.53-.04.06-.18.09-.27.08-.08-.01-.22-.1-.22-.16-.09-1.26-.53-2.49-.4-3.77,0-.1.06-.19.09-.29.08-.22.48-.28.65-.1.26.27.41.59.43.96.03.46,0,.92,0,1.38,0,0,0,0,0,0,0,.46.02.92-.01,1.38Zm6.69-1.88c-.19.48-.36.96-.59,1.42-.18.37-.38.73-.45,1.15-.05.3.18.86-.4.79-.35-.04-.2-.51-.23-.8-.01-.1,0-.21,0-.25.02-.57,0-1.09.18-1.59.28-.8.05-1.64.15-2.46.02-.14.08-.31.18-.39.2-.16.38-.02.54.11.67.53.98,1.14.62,2.02Zm3.84-1.6c-.5-.17-.67-.61-.46-1.13.5-1.26,1.21-2.38,2.23-3.29.38-.34.72-.32,1.04.11.76,1.01,1.19,2.15,1.3,3.27-.03.39,0,.65-.07.9-.14.6-.81,1.07-1.4.92-.89-.22-1.78-.49-2.65-.79Zm-2.42,49.59c-.14.13-.51.08-.51-.09-.06-1.15-.74-1.98-1.44-2.8-.09-.11-.13-.27-.18-.42-.07-.22.2-.45.48-.38.14.03.28.12.41.18.53.86,1.23,1.63,1.46,2.66.07.32.03.6-.23.84Zm2.65-2.03c-.1.45-.21.9-.36,1.33-.06.18-.22.35-.37.48-.32.27-.89.03-.94-.4-.03-.26-.02-.51-.03-.77-.06-1.52-.58-2.02-2.17-2.12,0-.15,0-.3.02-.45.05-.3.25-.5.53-.41.6.19,1.21.21,1.83.26,1.01.08,1.72,1.09,1.5,2.08Zm13.43-3.4c-.4.05-.8.05-1.21.07.51.63.8,1.32.54,2.14-.04.12-.21.25-.33.27-.12.02-.31-.06-.39-.16-.09-.11-.11-.28-.12-.43-.04-.43-.36-.6-.69-.75-.24-.11-.51-.17-.71.05-.2.22-.14.5.02.71.51.65,1.04,1.28,1.56,1.91.07.08.16.15.19.24.03.08.04.21,0,.26-.06.06-.18.1-.27.1-.34-.02-.57-.25-.75-.49-.53-.71-1.43-1.01-1.92-1.76-.04-.06-.2-.08-.27-.05-.07.03-.14.16-.12.24.07.4.12.82.26,1.2.38.98.29.88-.66,1.59-.33.25-.81.1-.84-.29-.06-.72-.44-1.25-.82-1.79-.54-.76-1.43-.9-2.16-.36-.19.14-.34.4-.41.63-.09.29-.09.61-.1.91-.02.42-.03.89-.54.99-.46.09-.48-.45-.74-.68-.15-.13-.25-.31-.44-.55-.29.34-.09.72-.2,1.02-.11.32-.31.52-.65.59-.2.04-.49-.14-.44-.31.34-1.1.11-2.13-.29-3.16-.05-.12-.03-.36.05-.43.39-.32.8-.63,1.24-.9.29-.17.6-.01.89.1,1.14.45,2.2.22,3.24-.33.71-.37,1.28-.86,1.63-1.58.29-.6.57-1.21.85-1.82.33-.7.64-1.4.98-2.1.16-.33.41-.59.73-.78.44-.26.96-.09,1.05.45.11.71.64,1.16.94,1.74.32.62.35.67-.26,1.1-.26.18-.53.32-.64.64.35.02.76-.13,1.03.14.39.39.81.77,1.01,1.31.03.08-.12.33-.21.34Zm1.73-16.74c-.1.18-.28.32-.5.27-.14-.03-.33-.11-.37-.22-.27-.76-.53-1.53-.75-2.31-.05-.18.13-.37.36-.42.39-.09.75,0,.93.35.28.54.48,1.12.49,1.82-.04.13-.08.34-.17.51Zm3.76-1c-.21.09-.42.04-.55-.14-.44-.63-.94-1.23-1.15-1.99-.07-.25-.05-.51.18-.71.2-.17.69-.16.86.04.52.65.84,1.4,1.08,2.08-.03.38-.16.6-.41.71Zm2.93.24c-.21.19-.47.24-.71.13-.17-.08-.35-.23-.44-.4-.35-.68-.68-1.36-.98-2.06-.19-.43.13-.87.56-.85.4-.02.71.18.86.52.32.69.61,1.4.89,2.11.07.19-.02.4-.19.55Zm7.07-4.63c-.13.11-.36.11-.4,0-.25-.77-.9-1.23-1.33-1.85-.17-.25-.27-.55-.35-.84-.04-.14.05-.29.23-.37.07,0,.22-.02.26.04.61.69,1.21,1.38,1.79,2.09.23.29.12.68-.2.95Zm4.56,2.84c-.27.17-.68.04-.72-.27-.11-.79,0-1.61-.27-2.4-.02-.05.19-.18.31-.29.16.08.32.12.41.22.43.53.55,1.19.7,1.82.09.35-.08.69-.42.9Zm3.47,4.13c-.07.15-.2.27-.34.22-.53-.18-.87-.73-.72-1.14.04-.11.23-.23.34-.22.41.03.76.62.71,1.14Zm2.78-4.16c-.22.11-.39.02-.53-.15-.19-.23-.51-.45-.55-.7-.12-.92-.74-1.41-1.44-1.85-.12-.08-.24-.19-.32-.31-.05-.07-.08-.23-.04-.28.09-.1.22-.18.35-.22.08-.03.21.01.29.05,1.13.56,1.98,1.4,2.52,2.55.06.13.06.29.07.38-.06.27-.17.44-.36.53Zm1.97,2.14c-.25.34-.62.51-1,.66-.45.17-.87-.15-.76-.59.15-.64.35-1.26.52-1.89.06-.22.19-.37.4-.4.27-.03.48.11.63.34.2.3-.13.6-.02.87.09.22.28.4.43.61-.07.14-.12.29-.2.4Zm1.49-5.79c-.09.01-.2-.03-.29-.06-.77-.29-1.23-1.11-2.09-1.24-.36-.94-1.31-1.39-1.83-2.2-.05-.08-.07-.2-.05-.29.01-.09.06-.21.12-.26.07-.05.22-.1.27-.06.46.31,1.02.57,1.35,1,.63.83,1.52,1.35,2.22,2.1.17.19.35.38.5.58.05.07.03.19.04.29-.08.05-.15.14-.23.15Zm6.56-.87c1.29-1.22,2.86-1.98,4.41-2.74.88-.43,1.88-.79,2.95-.4.54.2,1.09.08,1.66-.09.93-.28,1.29-.06,1.67.84.14.33.26.67.35,1.02.28,1.08-.44,1.87-1.52,1.65-.3-.06-.59-.2-.89-.23-.41-.04-.77-.37-1.19-.24-.48.15-.38.68-.57,1.02-.47.84-1.16,1.23-2.03.85-1.24-.56-2.28-.21-3.32.42-.17.11-.33.25-.52.32-.95.37-1.65-.12-1.65-1.19-.04-.51.24-.85.66-1.24Zm-1.69,9c.05.22-.11.38-.29.49-.15.1-.37.06-.39-.06-.11-.6-.45-1.14-.41-1.77.01-.16.06-.3.27-.32.07.02.19.03.24.09.35.46.46,1.01.57,1.56Zm-2.42,1.49c-.26.04-.42-.07-.49-.28-.13-.42.07-.84.39-.82.21.01.36.14.4.38.07.39-.06.67-.31.73Zm-.19-7.26c0-.17.26-.4.42-.36.09.04.22.04.27.11.43.5.85,1.01,1.26,1.53.05.06.03.21-.02.28-.05.07-.17.15-.25.14-.85-.09-1.67-.93-1.69-1.7Zm9.41,14.7c-.2.23-.34.51-.47.79-.67,1.43-2.69,2.41-4.26,2.05-.75-.17-1.02-1.24-.48-1.91.2-.24.46-.39.75-.53.54-.26.62-.53.13-.86-.91-.63-1.43-1.73-2.57-2.1-.27-.09-.49-.38-.68-.61-.48-.56-.49-1.24-.05-1.84.21-.29.45-.56.66-.85.17-.25.32-.52.45-.76.51-.03.86.21,1.17.47.35.3.71.38,1.14.19.58-.26,1.07-.11,1.57.29.67.55,1.49.87,2.18,1.42.48.38.76.82.87,1.4.03.15-.02.33.04.46.41.91.16,1.68-.45,2.4Zm5.91-5.2c-.3.29-.61.55-1,.72-.6.26-1.12.18-1.55-.27-.44-.46-.52-.98-.18-1.55.18-.31.43-.58.65-.86.34-.45.33-.58.04-1.11-.19-.33-.44-.56-.78-.72-1.66-.78-3.27-.72-4.85.21-.44.26-.9.51-1.38.7-.54.22-1.01.05-1.39-.38-.86-.98-.71-2.44.35-3.26.2-.16.46-.28.61-.47,1.14-1.49,2.79-1.59,4.44-1.7.52.01,1.03-.01,1.53.19.68.28,1.29.19,1.83-.38.5-.54,1.07-.53,1.66-.1.25.18.53.32.79.48,1.58.93,2.22,2.49,1.63,4.23-.53,1.56-1.16,3.1-2.4,4.27Z"/>
      <path class="cls-2" d="m214.27,42.02c.4,0,.72-.17.86-.54.43-1.08,1.3-1.85,1.99-2.73.9-1.15,2.23-1.8,3.47-2.53.62-.36,1.28-.66,1.93-.99.26-.13.35-.34.26-.64-.07-.24-.13-.5-.15-.75-.11-1.19.33-2.11,1.39-2.67.33-.17.47-.4.45-.73-.06-1,.22-1.92.53-2.86.24-.75.7-1.26,1.26-1.71.73-.59,1.67-.35,2.02.53.3.76.56,1.55.54,2.39-.02.68.12,1.33.3,1.97.07.25.08.53.33.67.67.38.64,1,.61,1.63-.03.58-.44.91-.83,1.25-.22.18-.49.3-.94.58.56,0,.87.02,1.17,0,1.01-.08,1.94.09,2.81.63.31.19.66.25,1.02.32,1.78.31,3.5.77,5.1,1.65,1.49.81,3.02,1.55,4.34,2.64.92.76,1.85,1.49,2.4,2.57.18.35.47.49.81.65.5.24.72.68.49,1.15-.44.9-.45,1.88-.65,2.82-.22,1.06-.88,1.99-1.64,2.76-1.41,1.44-2.62,3.03-3.94,4.54-1.35,1.55-2.87,2.96-4.35,4.4-1.15,1.12-2.15,2.34-3.1,3.63-.33.45-.75.86-1.18,1.21-.84.68-1.69,1.35-2.59,1.93-.92.59-1.52,1.31-1.73,2.42-.19,1-.99,1.34-1.88.87-1.23-.65-2.43-1.35-2.79-2.9-.16-.72-.62-1.28-1.33-1.61-1.45-.67-2.84-1.45-4.16-2.36-.08-.05-.2-.05-.3-.07-.03-.09-.04-.18-.05-.27.02-.31-.08-.72.08-.91.72-.83.23-1.47-.19-2.19-.47-.8-.78-1.67-.82-2.62-.03-.81.07-1.53.78-2.06.45-.33.46-.73.18-1.22-.34-.58-.63-1.18-.91-1.79-.28-.6-.66-1.16-.7-1.87-.02-.33-.26-.55-.56-.68.4-1.47.26-2.97.22-4.45-.02-.7-.35-1.38-.54-2.08Z"/>
      <path class="cls-4" d="m292.54,31.3c-.56-.39-2.92-.87-3.58-.69-.24.07-.53.16-.68.34-.38.43-.84.55-1.38.52-.45-.02-.79.18-1.02.57-.1.18-.23.34-.38.48-.06.06-.19.06-.28.06-.19-.01-.27-.17-.25-.32.03-.3.08-.61.16-.9.21-.77.16-1.54.05-2.3-.1-.67-.54-1.15-1.22-1.23-.76-.09-1.56-.13-2.31-.02-.94.13-1.76.51-1.97,1.64-.15.78-.23.81-.98.45-.48-.23-1-.23-1.48-.43-1.67-.69-3.37-1.24-5.18-1.44-.2-.02-.41-.1-.58-.2-.61-.35-1.27-.38-1.95-.39-.45,0-.94.11-1.33-.25-.82,0-1.64-.01-2.46,0-.25,0-.51.05-.74.14-1.3.53-2.68.67-4.06.72-.39.01-.77.05-1.14.1-1.28.44-2.56.9-3.82,1.39-.67.26-1.34.58-2.02.89-.69.6-1.49.94-2.42,1.03-.85.3-1.71.52-2.58.55-.16,0-.3-.05-.43-.14-.19.1-.33.26-.41.49-.08.24-.12.49-.19.79-.42-.15-.86-.08-1.11-.51-.16-.28-.39-.48-.71-.54-1.06-.2-2.11-.42-3.18-.61-.37-.07-.73.02-.93.4-.15.28.05.61.5.82.19.09.37.19.57.23.6.14,1.21.24,1.81.38.5.12,1.01.23,1.48.42.42.17.59.83.33,1.2-.23.32-.55.17-.84.06-1.19-.49-2.39-.96-3.57-1.47-.5-.21-.99-.25-1.51-.19-.23.03-.38.18-.41.39-.02.14,0,.34.1.43.17.18.39.34.62.44.52.23,1.05.43,1.57.64,1.2.48,2.38.98,3.59,1.42.83.3.85.26.87,1.14.01.41.03.83,0,1.24-.12,1.35.41,2.64.37,3.99,0,.29.23.44.52.47.34.04.63-.16.65-.51.05-.82.14-1.65-.1-2.46-.11-.36-.17-.7,0-1.05.19-.39.13-.81.13-1.22,0-.36.01-.72.04-1.08,0-.07.11-.18.18-.19.08-.02.21.02.27.08.24.21.36.48.47.78.18.48.41.94.65,1.4.09.17.25.32.41.44.18.13.41.13.56-.04.09-.1.14-.27.14-.41,0-.15-.06-.31-.14-.44-.64-1-.71-2.26-1.43-3.23-.03-.04-.04-.1-.03-.15.02-.18.14-.25.3-.25.35,0,.58.22.77.46.43.52.84,1.04,1.24,1.58.34.46.6.97.98,1.39.42.46,1.17.29,1.65.75.23.22.66.24,1.01.33.17.05.39-.25.33-.42-.05-.14-.09-.32-.19-.41-.69-.65-1.18-1.43-1.55-2.29-.15-.34-.38-.61-.69-.81-.36-.24-.54-.62-.6-1.04-.01-.09.03-.21.09-.28.11-.13.27-.16.41-.05.7.53,1.38,1.11,1.85,1.85.37.58.84,1.04,1.3,1.52.48.5.8,1.23,1.65,1.25.06,0,.16.14.18.23.22.71,1.01.64,1.45,1.05.04.04.23,0,.27-.06.07-.12.15-.29.12-.41-.05-.19-.18-.37-.29-.54-.43-.66-1.02-1.15-1.6-1.65-.69-.6-1.47-1.16-1.53-2.22-.01-.25-.25-.46-.52-.52-.56-.14-1.06-.38-1.5-.76-.42-.36-.89-.65-1.35-.98.19-.21.41-.2.58-.13.69.26,1.4.33,2.13.29.52-.03.93.21,1.18.61.36.59.76,1.08,1.38,1.42.2.11.34.38.45.61.19.38.48.65.79.92.5.44.93.96,1.39,1.44.29.31.5.68.49,1.1-.01.56.25.95.56,1.38.66.92,1.27,1.88,1.36,3.07.01.19.11.39.2.57.1.19.3.28.52.29.28.02.52-.11.63-.36.08-.18.13-.41.09-.59-.31-1.19-.51-2.42-1.3-3.44-.4-.52-.62-1.18-1.12-1.66-.33-.33-.59-.78-.56-1.24.03-.69-.36-1.16-.67-1.68-.19-.31-.43-.6-.54-.93-.16-.53-.46-.94-.93-1.18-.63-.32-.79-1.08-1.41-1.41-.05-.03-.08-.2-.05-.27.04-.07.19-.13.25-.11.29.11.59.21.83.39.84.6,1.65,1.23,2.48,1.84.2.15.42.3.65.39.11.04.31-.02.41-.11.12-.1.12-.28.01-.41-.13-.16-.27-.32-.42-.45-.54-.48-1.09-.94-1.63-1.42-.12-.1-.19-.24-.13-.41.06-.17.2-.22.36-.23.82-.09,1.48.24,2.11.74.51.4.57,1.07,1.04,1.51.5.48,1.31.58,1.65,1.11.61.96,1.64,1.57,2.09,2.66.28.68.83,1.17,1.43,1.59.06.05.22.04.29-.01.07-.05.12-.16.14-.26.02-.1.03-.25-.02-.3-.78-.64-.76-1.65-1.17-2.46-.17-.33-.21-.69-.34-1.01-.28-.7-.48-1.47-1.05-2.03-1.03-1-1.92-2.15-3.16-2.94-.12-.08-.23-.22-.1-.36.05-.06.19-.09.28-.07.41.1.78.28,1.09.55,1.82,1.59,3.83,2.97,5.44,4.8.24.27.5.52.77.76.15.13.33.26.52.31.12.04.31-.02.41-.11.12-.1.12-.28.01-.41-.51-.64-1.03-1.28-1.55-1.92-.16-.2-.34-.38-.49-.59-.04-.05,0-.23.04-.26.48-.28,1.56-.05,1.76.47.19.5.49.77.95.92.49.16.98-.23.89-.73-.15-.79-.14-1.67-1.05-2.08-.07-.03-.14-.17-.14-.26,0-.07.1-.19.16-.19.15,0,.32.01.44.08,1.09.57,2.18,1.15,3.26,1.74.5.27.97.59,1.47.85.1.05.31,0,.42-.07.14-.09.14-.26.04-.41-.06-.09-.11-.19-.19-.24-1.05-.73-2.04-1.59-3.18-2.15-1-.49-2.04-1-3.19-1.13-.29-.03-.61-.12-.77-.55.29,0,.54-.03.79,0,1.91.3,3.65,1.11,5.34,1.96,1.27.64,2.54,1.36,3.6,2.37.37.36.77.68,1.17,1.01.12.1.29.13.42.03.14-.11.15-.27.05-.41-.24-.33-.5-.65-.75-.97.64.03,1.31-.1,1.93.13-.04.38-.1.68-.09.99.02.67.2.9.89,1.05,1.05.23,2.11.41,3.17.59.3.05.62.03.93.01.57-.04,1.11-.38,1.13-.89.04-1.01.46-1.39,1.42-1.28.1.01.21-.03.3-.07.44-.21.77-.52.83-1.03.05-.48.02-.93-.43-1.24Zm-31.92-.03c-.03.07-.15.09-.23.14-.09-.03-.2-.04-.28-.1-.12-.08-.32-.24-.3-.28.1-.21.32-.16.5-.14.09.01.2.06.26.13.05.06.08.19.05.25Zm19.84-.13c-.06-.07-.08-.2-.06-.29.04-.17.22-.23.35-.17.36.17.7.02,1.05-.02.3-.03.6.24.53.43-.24.68.19,1.3.11,1.95-.78-.51-1.39-1.19-1.98-1.89Z"/>
      <path class="cls-4" d="m252.38,33.96s.02.08.05.11c.02.02.06.02.09.02l-.14-.13s-.03-.08-.05-.11c-.02-.02-.06-.02-.08-.02.05.04.09.09.14.13Z"/>
      <path class="cls-2" d="m255.8,71.2c.34.2.69.33,1.04.43.76-.03,1.51-.06,2.27-.09.08-.03.16-.05.24-.08.54-.21,1.09-.29,1.66-.28.93.02,1.86,0,2.78,0,1.3,0,2.6,0,3.9,0,.7-.05,1.3-.05,1.87,0,.19,0,.38,0,.57,0,.67,0,1.09-.24,1.15-.95.04-.48-.07-.9-.44-1.23-.26-.24-.49-.51-.52-.89-.28-.17-.56-.35-.91-.32-.42.27-.47.25-.64-.31-.28-.16-.56-.34-.91-.32-.43.28-.48.25-.63-.33-.25-.18-.49-.4-.77-.52-1.44-.59-2.1-1.75-2.4-3.19-.25-.05-.57-.03-.74-.18-.52-.45-1.11-.52-1.74-.47-.63.05-1.04-.09-1.3-.76-.25-.65-.9-1.07-1.61-.95-.51.08-1.02.11-1.52.19-1.11.19-1.58.89-1.37,2,.05.27.18.48.36.67.29.3.59.58.87.88.73.77.81,1.47.27,2.36-.33.54-.8.92-1.32,1.27-.95.65-1.09,1.5-.51,2.54.1.18.21.35.32.53Z"/>
      <path class="cls-4" d="m229.44,16.94c.17.1.34.21.51.31.09.05.21.08.26.16.26.43.13.9.15,1.36.03.44-.06.81-.55.98-.22.07-.28.27-.23.5.06.25.11.5.16.75.19,1-.38,1.77-.81,2.57-.07.12-.27.17-.41.06-.11-.09-.27-.25-.24-.34.37-1.42.21-2.86.24-4.3.02-.62-.06-1.23-.1-1.85.01-.1.01-.2.05-.3.21-.56.4-.59.8-.15.07.07.11.16.17.25Z"/>
      <path class="cls-4" d="m248.19,29.48s-.04-.02-.07-.02c-.14-.05-.28-.08-.43-.12-.82-.03-1.64,0-2.45-.24-.83-.26-1.61.2-2.4.39-.24.06-.37.35-.36.63s.16.49.41.61c.34.17.7.16,1.05,0,.5-.21,1.03-.28,1.51-.12.86.28,1.73.21,2.6.29.02,0,.04,0,.06,0,0-.48.02-.95.06-1.41Z"/>
      <path class="cls-4" d="m213.42,30.3c.52,0,1-.17,1.49-.29.65-.17.87,0,1.09.82.09.35.31.33.54.37.21.04.4.1.45.34.06.3-.12.47-.36.59-.18.09-.37.2-.56.23-.7.13-1.4.24-2.09.35-.16-.3-.14-.6.01-.9.36-.05.92-.18.87-.45-.09-.44-.57-.1-.89-.11-.05,0-.1.03-.15.04-.28-.27-.44-.59-.4-.99Z"/>
      <path class="cls-4" d="m213.65,34.91c.45-.23.91-.45,1.35-.69.62-.33,1.27-.31,1.93-.21.22.03.37.2.35.42-.01.13-.11.32-.22.36-.84.32-1.7.6-2.55.9-.33.12-.58-.08-.86-.18,0-.2,0-.39,0-.59Z"/>
      <path class="cls-4" d="m213.8,39.04c.16-.38.28-.76.68-.99.39-.23.74-.55,1.12-.82.22-.15.47-.18.74-.13.2.04.36.31.25.46-.69.91-1.51,1.66-2.65,1.99-.04-.17-.09-.34-.13-.51Z"/>
      <path class="cls-4" d="m235.94,16.54c0,.21.05.43,0,.62-.31,1.14-.64,2.27-.98,3.41-.04.15-.19.26-.36.18-.08-.04-.15-.15-.16-.23-.14-1.01.26-1.92.55-2.84.08-.24.23-.46.35-.69.1-.28.31-.41.6-.43Z"/>
      <path class="cls-3" d="m213.82,31.29s.1-.04.15-.04c.32,0,.8-.33.89.11.05.27-.51.4-.87.45-.06-.17-.11-.35-.17-.52Z"/>
      <path class="cls-4" d="m267.25,66.84c-.25-.18-.49-.4-.77-.52-1.44-.59-2.1-1.75-2.4-3.19.02-.62.09-1.24.05-1.85-.07-1.05.26-2.04.42-3.05.11-.72.6-1.44,1.31-1.83.72-.4,1.42-.83,2.22-1.07.6-.18,1.17-.34,1.8-.09.54.21,1.12.17,1.67-.02.78-.28,1.63-.15,2.43-.43.46-.16,1.02-.08,1.53.06,1.61.45,3.17.13,4.68-.41.63-.22,1.13-.41,1.69.12.21.2.58.21.84.37.37.22.73.55.65.98-.19,1.01.57,1.47,1.08,2.07.2.23.5.36.72.58.43.42.59,1.25.23,1.7-.78.96-1.58,1.93-2.89,2.18-.4.07-.82.06-1.23.08-.35.01-.6.14-.65.52-.09.69-.45,1.2-1.14,1.28-.85.1-1.77.26-2.45-.54-.24-.28-.49-.54-.31-.96.19-.44.38-.86.93-.93.31-.03.62-.03.93-.06.27-.02.52-.14.63-.38.12-.27-.04-.49-.22-.68-.07-.08-.14-.15-.23-.21-.81-.5-1.14-1.15-.72-2.09.12-.27-.07-.47-.35-.58-.58-.25-1.18-.34-1.8-.4-.3-.03-.59-.17-.89-.25-.03-.42-.21-.8-.44-1.14-.35-.51-.88-.44-1.39-.33-.07.02-.18.15-.17.22.07.43.49.46.79.61.4.2.68.65,1.2.63,0,.62,0,1.23,0,1.85,0,.2.03.44-.05.61-.2.4-.64.77-.65,1.16-.01.4.44.77.42,1.28-.03.48-.06.93-.5,1.22-.43.28-.47.6-.24,1.05.59,1.18.56,1.26-.38,2.24-.18.19-.32.38-.44.61-.52,1.01-1.03,1.25-2.09,1.04-.25-.05-.5-.1-.75-.14-.28-.17-.56-.35-.91-.32-.12-.29-.36-.34-.64-.31-.28-.16-.56-.34-.91-.32-.12-.28-.36-.34-.63-.33Z"/>
      <path class="cls-4" d="m293.72,42.31c.52.01,1.03-.01,1.53.19.68.28,1.29.19,1.83-.38.5-.54,1.07-.53,1.66-.1.25.18.53.32.79.48,1.58.93,2.22,2.49,1.63,4.23-.53,1.56-1.16,3.1-2.4,4.27-.3.29-.61.55-1,.72-.6.26-1.12.18-1.55-.27-.44-.46-.52-.98-.18-1.55.18-.31.43-.58.65-.86.34-.45.33-.58.04-1.11-.19-.33-.44-.56-.78-.72-1.66-.78-3.27-.72-4.85.21-.44.26-.9.51-1.38.7-.54.22-1.01.05-1.39-.38-.86-.98-.71-2.44.35-3.26.2-.16.46-.28.61-.47,1.14-1.49,2.79-1.59,4.44-1.7Z"/>
      <path class="cls-4" d="m250.21,62.17c.51.63.8,1.32.54,2.14-.04.12-.21.25-.33.27-.12.02-.31-.06-.39-.16-.09-.11-.11-.28-.12-.43-.04-.43-.36-.6-.69-.75-.24-.11-.51-.17-.71.05-.2.22-.14.5.02.71.51.65,1.04,1.28,1.56,1.91.07.08.16.15.19.24.03.08.04.21,0,.26-.06.06-.18.1-.27.1-.34-.02-.57-.25-.75-.49-.53-.71-1.43-1.01-1.92-1.76-.04-.06-.2-.08-.27-.05-.07.03-.14.16-.12.24.07.4.12.82.26,1.2.38.98.29.88-.66,1.59-.33.25-.81.1-.84-.29-.06-.72-.44-1.25-.82-1.79-.54-.76-1.43-.9-2.16-.36-.19.14-.34.4-.41.63-.09.29-.09.61-.1.91-.02.42-.03.89-.54.99-.46.09-.48-.45-.74-.68-.15-.13-.25-.31-.44-.55-.29.34-.09.72-.2,1.02-.11.32-.31.52-.65.59-.2.04-.49-.14-.44-.31.34-1.1.11-2.13-.29-3.16-.05-.12-.03-.36.05-.43.39-.32.8-.63,1.24-.9.29-.17.6-.01.89.1,1.14.45,2.2.22,3.24-.33.71-.37,1.28-.86,1.63-1.58.29-.6.57-1.21.85-1.82.33-.7.64-1.4.98-2.1.16-.33.41-.59.73-.78.44-.26.96-.09,1.05.45.11.71.64,1.16.94,1.74.32.62.35.67-.26,1.1-.26.18-.53.32-.64.64h0c-.53.09-1.21.16-1.17.84.04.57.69.61,1.18.7.1.02.2,0,.3,0h0c.05.16.15.27.32.31h0Zm-2.76.43c-.07.04-.19.07-.21.13-.02.07.03.21.09.23.14.06.28,0,.28-.17,0-.06-.1-.12-.16-.19Z"/>
      <path class="cls-4" d="m286.33,49.58c.51-.03.86.21,1.17.47.35.3.71.38,1.14.19.58-.26,1.07-.11,1.57.29.67.55,1.49.87,2.18,1.42.48.38.76.82.87,1.4.03.15-.02.33.04.46.41.91.16,1.68-.45,2.4-.2.23-.34.51-.47.79-.67,1.43-2.69,2.41-4.26,2.05-.75-.17-1.02-1.24-.48-1.91.2-.24.46-.39.75-.53.54-.26.62-.53.13-.86-.91-.63-1.43-1.73-2.57-2.1-.27-.09-.49-.38-.68-.61-.48-.56-.49-1.24-.05-1.84.21-.29.45-.56.66-.85.17-.25.32-.52.45-.76Z"/>
      <path class="cls-4" d="m287.08,39.5c-.04-.51.24-.85.66-1.24,1.29-1.22,2.86-1.98,4.41-2.74.88-.43,1.88-.79,2.95-.4.54.2,1.09.08,1.66-.09.93-.28,1.29-.06,1.67.84.14.33.26.67.35,1.02.28,1.08-.44,1.87-1.52,1.65-.3-.06-.59-.2-.89-.24-.41-.04-.77-.37-1.19-.24-.48.15-.38.68-.57,1.02-.47.84-1.16,1.23-2.03.85-1.24-.56-2.28-.21-3.32.42-.18.11-.33.25-.52.32-.95.37-1.65-.12-1.65-1.19Z"/>
      <path class="cls-4" d="m216.73,61.88c0,.09.03.18.05.27.05.35.1.7.16,1.09-.48.2-.94.4-1.41.59.3.32.61.15.9.04.4-.15.81-.2,1.21-.06.11.04.22.21.25.34.04.14-.03.3-.19.37-.09.04-.19.09-.29.09-1.31-.02-2.52.42-3.75.8-.2.06-.39.13-.59.15-.2.02-.44,0-.49-.25-.02-.13.03-.32.12-.41.26-.24.56-.45.84-.67.15-.12.4-.13.42-.51-.85.04-1.69-.13-2.53.16-.19.07-.4.09-.6.1-.55.02-.85-.37-.72-.89.13-.52.32-.96.99-.97.29,0,.59-.17.87-.29.69-.29.84-.85.41-1.45-.12-.17-.27-.31-.39-.48-.12-.17,0-.47.2-.49.41-.03.82-.03,1.23-.06.35-.03.56-.25.54-.62-.03-.35-.11-.71-.17-1.06-.17-.87-.18-1.73-.05-2.6,0-.07.13-.16.21-.17.08,0,.23.05.24.11.15.75.28,1.51.42,2.26.2,1.06.32,2.14.71,3.14.27.68.58,1.35,1.44,1.44Z"/>
      <path class="cls-2" d="m222.94,16.96c0,1.54-.72,2.45-1.96,2.7-.5.1-1,.19-1.5.3-.8.18-1.33-.36-1.14-1.14.14-.59.33-1.19.58-1.75.41-.94.85-1.86,1.32-2.77.16-.31.45-.55.71-.8.29-.27.53-.25.76.07.81,1.11,1.16,2.37,1.23,3.39Z"/>
      <path class="cls-2" d="m241.86,16.91c-.03.39,0,.65-.07.9-.14.6-.81,1.07-1.4.92-.89-.22-1.78-.49-2.65-.79-.5-.17-.67-.61-.46-1.13.5-1.26,1.21-2.38,2.23-3.29.38-.34.72-.32,1.04.11.76,1.01,1.19,2.15,1.3,3.27Z"/>
      <path class="cls-4" d="m234.1,64.04c0-.15,0-.31.02-.46.05-.3.25-.5.53-.41.6.19,1.21.21,1.83.26,1.01.08,1.72,1.09,1.5,2.08-.1.45-.21.9-.36,1.33-.06.18-.22.35-.37.48-.32.27-.89.03-.94-.4-.03-.26-.02-.51-.03-.77-.06-1.52-.58-2.02-2.19-2.12h.01Z"/>
      <path class="cls-4" d="m232.23,21.85c.02-.57,0-1.09.18-1.59.28-.8.05-1.64.15-2.46.02-.14.08-.31.18-.39.2-.16.38-.02.54.11.67.53.98,1.14.62,2.02-.19.48-.36.96-.59,1.42-.18.37-.38.73-.45,1.15-.05.3.18.86-.4.79-.35-.04-.2-.51-.23-.8-.01-.1,0-.21,0-.25Z"/>
      <path class="cls-4" d="m281.41,38.98c-.08.05-.15.14-.23.15-.09.01-.2-.03-.29-.06-.77-.29-1.23-1.11-2.09-1.24-.36-.94-1.31-1.39-1.83-2.2-.05-.08-.07-.2-.05-.29.01-.09.06-.21.12-.26.07-.05.22-.1.27-.06.46.31,1.02.57,1.35,1,.63.83,1.52,1.35,2.22,2.1.17.19.35.38.5.58.05.07.03.19.04.29Z"/>
      <path class="cls-4" d="m258.26,41.42c.4-.02.71.18.86.52.32.69.61,1.4.89,2.11.07.19-.02.4-.19.55-.21.19-.47.24-.71.13-.17-.08-.35-.23-.44-.4-.35-.68-.68-1.36-.98-2.06-.19-.43.13-.87.56-.85Z"/>
      <path class="cls-4" d="m227.23,20.05c0,.46.02.92-.01,1.38-.02.18-.15.37-.26.53-.04.06-.18.09-.27.08-.08-.01-.22-.1-.22-.16-.09-1.26-.53-2.49-.4-3.77,0-.1.06-.19.09-.29.08-.22.48-.28.65-.1.26.27.41.59.43.96.03.46,0,.92,0,1.38,0,0,0,0,0,0Z"/>
      <path class="cls-4" d="m278.07,42.26c-.06.27-.17.44-.36.53-.22.11-.39.02-.53-.15-.19-.23-.51-.45-.55-.7-.12-.92-.74-1.41-1.44-1.85-.12-.08-.24-.19-.32-.31-.05-.07-.08-.23-.04-.28.09-.1.22-.18.35-.22.08-.03.2.01.29.05,1.13.56,1.98,1.4,2.52,2.55.06.13.06.29.07.38Z"/>
      <path class="cls-4" d="m279.89,44.52c-.07.14-.12.29-.2.4-.25.34-.62.51-1,.66-.45.17-.87-.15-.76-.59.15-.64.35-1.26.52-1.89.06-.22.19-.37.4-.4.27-.03.48.11.63.34.2.3-.13.6-.02.87.09.22.28.4.43.61Z"/>
      <path class="cls-4" d="m257.31,43.65c-.03.38-.16.6-.41.71-.21.09-.42.04-.55-.14-.44-.63-.94-1.23-1.15-1.99-.07-.25-.05-.51.18-.71.2-.17.69-.16.86.04.52.65.84,1.4,1.08,2.08Z"/>
      <path class="cls-4" d="m253.31,44.85c-.04.13-.08.34-.17.51-.1.18-.28.32-.5.27-.14-.03-.33-.11-.37-.22-.27-.76-.53-1.53-.75-2.31-.05-.18.13-.37.36-.42.39-.09.75,0,.93.35.28.54.48,1.12.49,1.82Z"/>
      <path class="cls-4" d="m234.09,64.02c.54.87,1.23,1.64,1.47,2.67.07.32.03.6-.23.84-.14.13-.51.08-.51-.09-.06-1.15-.74-1.98-1.44-2.8-.09-.11-.13-.27-.18-.42-.07-.22.2-.45.48-.38.15.03.28.12.42.19h-.01Z"/>
      <path class="cls-4" d="m265.04,36.9c.07,0,.22-.02.26.04.61.69,1.21,1.38,1.79,2.09.23.29.12.68-.2.95-.13.11-.36.11-.4,0-.25-.77-.9-1.23-1.33-1.85-.17-.25-.27-.55-.35-.84-.04-.14.05-.29.23-.37Z"/>
      <path class="cls-4" d="m270.77,39.86c.16.08.32.12.41.22.43.53.55,1.19.7,1.82.09.35-.08.69-.42.9-.27.17-.68.04-.72-.27-.11-.79,0-1.61-.27-2.4-.02-.05.19-.18.31-.29Z"/>
      <path class="cls-4" d="m249.59,60.32c.35.02.75-.13,1.03.14.39.39.81.77,1.01,1.31.03.08-.12.33-.21.34-.4.05-.8.05-1.21.07h0c-.04-.16-.15-.27-.32-.31h0c-.02-.53-.41-.99-.31-1.55h0Z"/>
      <path class="cls-4" d="m283.85,41.14c.09.04.22.04.27.11.43.5.85,1.01,1.26,1.53.05.06.03.21-.02.28-.05.07-.17.15-.25.14-.85-.09-1.67-.93-1.69-1.7,0-.17.26-.4.42-.36Z"/>
      <path class="cls-4" d="m285.23,45.62c.07.02.19.03.24.09.35.46.46,1.01.57,1.56.05.22-.11.38-.29.49-.15.1-.37.06-.39-.06-.11-.6-.45-1.14-.41-1.77.01-.16.06-.3.27-.32Z"/>
      <path class="cls-4" d="m274.93,46.94c-.07.15-.2.27-.34.22-.53-.18-.87-.73-.72-1.14.04-.11.23-.23.34-.22.41.03.76.62.71,1.14Z"/>
      <path class="cls-4" d="m283.63,48.76c-.26.04-.42-.07-.49-.28-.13-.42.07-.84.39-.82.21.01.36.14.4.38.07.39-.06.67-.31.73Z"/>
      <path class="cls-4" d="m218.8,32.15c-.09.26-.24.45-.53.45-.31,0-.57-.35-.48-.63.09-.26.3-.44.58-.36.25.06.44.25.43.55Z"/>
      <path class="cls-3" d="m282.45,33.03c-.78-.51-1.4-1.19-1.99-1.9-.06-.07-.08-.2-.06-.29.04-.17.22-.23.35-.17.36.17.7.02,1.04-.02.3-.03.6.24.53.43-.24.69.19,1.3.11,1.96h0Z"/>
      <path class="cls-3" d="m260.38,31.4c-.09-.03-.2-.04-.28-.1-.12-.08-.32-.24-.3-.28.1-.21.32-.16.5-.14.09.01.2.06.26.13.05.06.08.19.05.25-.03.07-.15.09-.23.14Z"/>
      <path class="cls-3" d="m252.38,33.96s-.09-.09-.14-.13c.03,0,.07,0,.08.02.03.03.03.07.05.11h0Z"/>
      <path class="cls-3" d="m252.38,33.97l.14.13s-.07,0-.09-.02c-.02-.03-.03-.07-.05-.11h0Z"/>
      <path class="cls-3" d="m267.25,66.84c.27-.01.51.05.63.33-.43.28-.48.25-.63-.33Z"/>
      <path class="cls-3" d="m268.78,67.49c.28-.04.52.02.64.31-.42.27-.47.25-.64-.31Z"/>
      <path class="cls-3" d="m275.01,57.21c-.52.03-.8-.42-1.2-.63-.3-.15-.72-.18-.79-.61-.01-.06.1-.2.17-.22.51-.12,1.04-.19,1.39.33.23.34.41.71.44,1.14h0Z"/>
      <path class="cls-3" d="m249.6,60.31c-.11.56.29,1.02.31,1.56-.1,0-.2.01-.3,0-.49-.09-1.14-.13-1.18-.7-.05-.69.63-.76,1.17-.85Z"/>
      <path class="cls-3" d="m247.45,62.6c.06.06.16.13.16.19,0,.17-.13.23-.28.17-.06-.02-.11-.17-.09-.23.02-.06.14-.09.21-.13Z"/>
      <path class="cls-3" d="m249.9,61.86c.17.04.28.15.32.32-.17-.05-.27-.15-.32-.32Z"/>
    </g>
    <g>
      <path class="cls-5" d="m277.84,27.77c1.15-1.2,2.63-1.8,4.21-2.13,4.06-.84,7.8.02,11.21,2.31,2.64,1.77,4.79,4.07,6.65,6.64,1.12,1.55,2.14,3.17,2.79,4.98,1.47,4.09,1.39,8.22.13,12.32-1.37,4.47-4.09,8.07-7.58,11.11-1.64,1.42-3.41,2.68-5.18,3.93q-1.17.83-1.71,2.42c.35.36.79,0,1.17.14.13.05.3.17.33.29.02.1-.1.32-.21.36-.28.1-.59.17-.9.2-1.03.08-2.06.17-3.09.21-1.49.05-2.98.05-4.46.35-.95.19-1.95.2-2.92-.06-.14-.04-.26-.19-.17-.37.04-.07.14-.16.21-.16.41.01.82.06,1.23.07,1.47.03,2.88-.24,4.14-1.03.35-.22.67-.44,1.14-.29.29.09.59-.11.87-.26.96-.49,1.84-1.14,2.77-1.66,1.32-.74,2.47-1.68,3.69-2.54.97-.69,1.9-1.43,2.79-2.21,3.31-2.92,5.89-6.36,7.22-10.62,1.15-3.68,1.28-7.4.17-11.13-.31-1.04-.74-2.04-1.28-2.98-1.92-3.36-4.37-6.25-7.45-8.61-2.23-1.71-4.74-2.73-7.53-2.97-2.68-.23-5.25.18-7.5,1.83-.12.09-.27.14-.4.22-.12-.11-.23-.21-.35-.32Zm9.42,41.3c-.12-.13-.26-.12-.4-.04-.03.02-.06.07-.06.11,0,.1.08.15.2.09.09-.04.15-.12.22-.19.03-.07.07-.15.1-.22-.04,0-.1,0-.12.03-.07.08-.05.16.05.22Zm-1.04.44s-.06-.11-.08-.11c-.09.01-.17.05-.26.07.03.03.06.1.09.1.08,0,.16-.04.24-.06Z"/>
      <path class="cls-5" d="m232.32,70.83c-.24.07-.51.09-.72.22-.24.14-.45.26-.69.07-.64-.49-1.41-.09-2.09-.33-.67-.24-1.34-.49-2.07-.58-2.01-.25-4.01-.22-6.02-.06-1.5.12-2.98.17-4.47-.15-.82-.18-1.64-.06-2.45.12-.15.03-.29-.07-.35-.24-.06-.17.03-.3.15-.39.48-.38,1.06-.33,1.62-.41.57-.08.67-.25.65-.82-.03-.74-.38-1.26-1.01-1.61-.06-.03-.09-.19-.07-.27.04-.16.18-.25.34-.25.45,0,.78.22,1.03.58.24.35.37.73.42,1.15.06.45.13.91.2,1.34.86.25,1.69.21,2.52.19.56-.01.7-.15.71-.76.01-.46-.01-.93-.08-1.39-.19-1.25-.76-1.82-1.99-2-.3-.04-.62.01-.92,0-.16,0-.31-.13-.29-.29.02-.13.11-.29.22-.35.17-.1.39-.19.58-.17,1.65.11,2.82.8,3.17,2.4.16.76.12,1.53.18,2.3.44.32.91.15,1.36.17.5.02.66-.44.97-.69.09-.07.04-.26-.07-.4-.69-.96-1.28-1.99-2.05-2.9-.71-.84-1.56-1.32-2.66-1.36-.98-.04-1.95-.06-2.92.19-1.2.31-2.41.54-3.63.79-.3.06-.61.09-.92.11-.5.03-.92-.19-.85-.43.12-.39.47-.32.76-.37,1.67-.31,3.34-.65,5.02-.93.81-.13,1.64-.17,2.46-.19,1.26-.02,2.32.46,3.12,1.44.69.83,1.41,1.65,1.87,2.64.17.37.39.69.05,1.13-.17.22.29.87.6.9.67.05,1.34.05,2.01.07.3,0,.49-.19.59-.43.12-.28.15-.59.26-.88.09-.24.19-.61.35-.65.7-.15.75-.77.99-1.24.69-1.36,1.89-2,3.3-2.33.65-.15,1.28-.23,1.91-.52.85-.39,1.85-.25,2.74-.03,1.05.26,2.08.57,3.18.58.09,0,.2.06.27.12.07.06.1.16.13.25.05.12,0,.21-.15.2-1.02-.02-2.05.16-3.05-.23-.63-.25-1.3-.31-1.98-.32-.2,0-.5-.04-.6.08-.6.68-1.43.44-2.15.63-.88.23-1.8.44-2.43,1.33.29,0,.49-.02.69,0,.15.02.27.12.17.32-.21.45-.62.68-1.02.91-.68.41-1.21.95-1.55,1.68-.18.38.02.72.43.8.2.04.41.05.62.07.41.03.85.17,1.21.05.43-.14.33-.7.47-1.08.23-.59.52-1.13.98-1.56.39-.37.85-.58,1.41-.5.25.04.63.32.56.44-.11.2-.31.23-.52.21-.52-.07-.9.17-1.2.55-.39.5-.67,1.05-.7,1.69-.02.36.33.72.78.81.2.04.41.04.62.06,0,.18,0,.35,0,.53Z"/>
      <path class="cls-5" d="m232.32,70.83c0-.18,0-.35,0-.53.55-.23,1.12-.11,1.68-.07,5.23.41,10.47.52,15.72.64,1.13.03,2.26-.06,3.34-.23,1.25-.2,2.45-.79,3.42-1.67.54-.5.89-1.13.93-1.89.03-.56.14-1.13-.04-1.68.12-.14.24-.27.36-.41.61.54.98,1.2.91,2.04-.09,1.02-.54,1.88-1.29,2.56-.41.37-.9.67-1.35.99.1.41.41.26.62.25,2.94-.08,5.88-.17,8.82-.28,2.06-.08,4.12-.21,6.18-.32.07-.05.14-.1.21-.16-.08-.04-.16-.09-.24-.13-.01-.44.07-.54.38-.41.12.05.22.16.33.24.07.34.29.49.63.49.2,0,.39.01.59.02-.09.19-.18.38-.28.57-2.71.34-5.45.41-8.17.51-4.53.15-9.07.37-13.6.31-6.38-.09-12.78-.06-19.14-.83Z"/>
      <path class="cls-5" d="m277.84,27.77c.12.11.23.21.35.32-.07.08-.13.16-.2.24-.22.22-.28.44.04.61,1.01.52,1.97,1.13,2.85,1.85.29.23.55.48.64.85.04.15.03.31-.11.41-.13.09-.27.11-.4-.02-1.1-1.13-2.43-1.88-3.89-2.44-3.11-1.2-6.33-1.82-9.67-1.77-2.06.03-4.13.1-6.15.55-.85.19-1.71.39-2.53.7-1.68.64-3.43,1.12-5.03,1.96-1.2.63-2.53.87-3.86,1.05-.1.01-.22.03-.31,0-.08-.03-.18-.11-.2-.19-.03-.08,0-.25.04-.27.27-.14.55-.26.84-.36,2.28-.81,4.6-1.5,6.82-2.45,5.12-2.2,13.54-2.27,18.53-.56.95.32,1.56-.02,2.26-.46Z"/>
      <path class="cls-5" d="m244.46,18.81c.37.01.47.3.62.56.24.41.19.81.08,1.23.54.07.77.38.83.92.04.28.35.34.62.3.81-.12,1.63-.26,2.44-.38.81-.13,1.63-.25,2.44-.37.15-.02.32-.05.46,0,.12.05.22.19.28.31.02.04-.08.2-.16.22-.29.09-.59.17-.9.22-1.47.24-2.95.46-4.43.69-.19.03-.41,0-.57.26.39,1.23.79,2.49,1.19,3.76.39,1.23.69,2.48.88,3.76.14.97.2,1.91-.02,2.91-.25,1.09-.23,2.25-.35,3.38-.03.31-.1.61-.18.91-.06.21-.25.35-.46.33-.22-.01-.38-.17-.37-.41.02-.41.07-.82.12-1.23.14-1.23.28-2.46.41-3.69.1-.93-.03-1.85-.2-2.77-.41-2.23-1.06-4.4-1.89-6.51-.11-.29-.28-.41-.57-.38-.46.05-.92.12-1.38.18-1.79.24-3.57.48-5.36.72-.15.02-.3-.02-.46-.03-.13-.01-.19-.09-.15-.22.03-.09.06-.22.13-.25.19-.08.39-.13.59-.16,1.33-.19,2.65-.37,3.98-.56.76-.11,1.53-.23,2.29-.35.26-.04.51-.09.63-.36.09-.2-.05-1.06-.25-1.12-1.15-.32-.8-1.04-.52-1.76.01-.04-.03-.1-.04-.15h.12s.11.04.11.04Z"/>
      <path class="cls-5" d="m208.76,62.99c.02,2.11.38,3.61,1.75,4.73.49.4,1,.72,1.61.89.3.08.62.1.85.34.06.06.1.18.09.27-.02.09-.1.2-.18.22-.14.04-.3.04-.44.02-2-.25-3.92-2.17-4.3-4.16-.32-1.67-.23-3.29.34-4.88.69-1.91,1.62-3.67,3.18-5.05.73-.64,1.41-1.34,1.54-2.42.05-.41.07-.66-.29-.89-.09-.06-.11-.28-.1-.42.01-.15.09-.29.16-.43.21-.42-.47-.85.03-1.28.35-.3.66-.65.99-.97.22-.21.45-.42.69-.6.06-.04.21-.01.28.04.07.05.15.21.12.26-.35.66-.19,1.52-.84,2.06-.23.19-.36.5-.5.77-.06.12-.08.38-.03.41.68.38.3.88.18,1.35-.08.3-.15.6-.19.91-.02.13.03.38.11.4.74.21.5.78.5,1.27.01.67-.03,1.36.41,1.93.23.29.13.59.12.88-.01.36.44.43.46.76.02.37-.06.72-.29,1.01-.06.07-.18.13-.26.11-.08-.01-.22-.11-.22-.18-.12-1.41-.95-2.65-1-4.09-.02-.56-.68-.8-1.13-.43-.36.3-.7.62-1,.97-1.6,1.92-2.53,4.11-2.66,6.17Z"/>
      <path class="cls-5" d="m244.46,18.81l-.11-.04h-.12c-.34-.09-.66-.12-1.01,0-.42.14-.86.22-1.29.32,0-.19,0-.38.01-.57.05-.02.09-.05.14-.07,1.68-.62,1.66-.61,1.25-2.41-.37-1.63-1.37-2.86-2.48-4.02-.27-.28-.53-.24-.8,0-1.1.94-2.1,1.98-2.78,3.27-.22.41-.43.82-.64,1.23-.34.67-.84,1-1.63.85-.45-.08-.92-.09-1.38-.12-.37-.03-.71.02-.98.33-.11.13-.33.13-.41.03-.48-.58-1.14-.63-1.81-.67-.08,0-.22-.11-.22-.18-.01-.14,0-.36.08-.42.58-.44,1.27-.62,1.95-.82.17-.05.39.13.42.37.05.37.25.56.61.51.57-.07,1.13,0,1.69.11.49.1.78-.13.98-.54.16-.32.33-.64.49-.96.76-1.5,1.87-2.7,3.13-3.78.75-.64,1.17-.64,1.87.05,1.4,1.4,2.57,2.95,2.9,4.99.04.25.08.51.18.75.09.21.31.23.52.23,0,.21,0,.41.01.62-.06.19-.14.38-.18.57-.04.23-.16.35-.39.37Z"/>
      <path class="cls-5" d="m217.51,44.46c-.92.11-.93.11-.88.97,0,.16.06.37-.06.41-.77.26-.78.99-1.02,1.58-.03.09-.11.18-.19.23-.08.05-.19.08-.27.06-.09-.02-.21-.11-.22-.19-.08-.47.06-.92.26-1.34.3-.66.3-1.26-.11-1.89-.31-.48-.44-1.05-.44-1.63,0-.36-.12-.56-.51-.6-.23-.02-.34-.22-.36-.44-.03-.31-.03-.62-.04-.93-.02-.5.04-.98-.36-1.44-.23-.26-.19-.77-.27-1.18-.56-.04-1,.27-1.47.44-1.6.58-3.19,1.18-4.78,1.77-.19.07-.39.11-.6.12-.07,0-.18-.09-.22-.17-.03-.08-.03-.22.02-.28.2-.26.51-.32.8-.43,1.73-.66,3.47-1.32,5.19-2.01.52-.21,1.1-.32,1.5-.76.07-.07.17-.16.25-.16,1.32-.06,2.44-.78,3.69-1.05.35-.08.71-.14,1.07-.16.19-.01.44.01.5.27.06.26-.14.38-.34.4-1.3.14-2.48.68-3.69,1.12-.99.35-1.37.83-.96,1.72.39.86.29,1.69.39,2.54.03.22.09.45.33.44.47-.02.67.14.6.62-.05.37.04.72.21,1.05.06.12.15.28.26.32.2.08.23-.13.3-.25.07-.13.12-.28.21-.4.17-.21.47-.17.66.05.14.16.25.33.23.55-.02.28.09.5.28.69l.03-.03Z"/>
      <path class="cls-5" d="m219.29,14.66c-.56,1.04-1.21,2.03-1.65,3.13-.16.4-.26.78-.02,1.17-.13.14-.25.27-.38.41-.13-.06-.26-.12-.39-.19-.07-.26-.21-.46-.42-.61-.14-.21-.31-.41-.43-.64-.11-.19,0-.42.23-.4.33.02.58,0,.75-.34.52-1.01,1.04-2.01,1.6-2.99.27-.47.25-.84-.03-1.28-.36-.56-.71-1.13-1.02-1.73-.31-.59-.57-1.21-.84-1.82-.06-.14-.08-.32.08-.41.22-.13.37,0,.48.2.49.91.97,1.81,1.47,2.72.15.26.33.5.54.83.55-.25.73-.77.98-1.17.57-.91,1.38-1.22,2.46-.32.31.26.61.57.82.91,1.01,1.62,1.84,3.32,2.29,5.19l.03.06c-.55.24-.73.24-.87-.08-.15-.33-.26-.67-.41-1-.42-.94-.83-1.88-1.28-2.81-.27-.55-.61-1.08-1.08-1.5-.51-.46-.83-.43-1.25.16-.3.42-.57.86-.85,1.29-.15.24-.1.49-.04.74-.25.16-.5.31-.75.47Z"/>
      <path class="cls-5" d="m283.38,53.32c.08.16.13.3.21.42.14.22.11.41-.13.48-.44.12-.9.19-1.36.27-.26.05-.57.07-.64.34-.17.61-.65.59-1.11.63-1.24.12-2.47.05-3.71-.05-.53-.04-1.02-.17-1.37-.61-.05-.07-.09-.2-.06-.27.05-.16.21-.25.36-.16,1.14.67,2.39.46,3.61.51.19,0,.47-.04.57-.17.5-.66,1.27-.63,1.95-.82.37-.1.67-.17.68-.64,0-.21.21-.37.42-.4,1.28-.2,1.95-1.24,2.74-2.07,1.05-1.1,1.52-2.56,2.1-3.93.3-.7.19-1.53,0-2.29-.17-.7-.41-1.38-.64-2.06-.08-.24-.2-.47-.15-.74,0-.05.04-.12.07-.13.09-.02.18-.02.27,0,.04,0,.08.07.1.11.99,1.89,1.4,3.87.87,5.98-.05.2-.08.44-.21.57-1.06,1.06-1.33,2.69-2.59,3.6-.37.27-.2.93-.79,1.06-.4.08-.78.25-1.2.39Z"/>
      <path class="cls-5" d="m257.73,64.99c-.12.14-.24.27-.36.41-1.29-1.54-2.67-2.98-4.2-4.29-.11-.1-.21-.23-.28-.37-.03-.07,0-.21.05-.27.06-.07.21-.13.26-.1.22.12.44.25.63.42.61.53,1.21,1.09,1.94,1.74.13-.69.22-1.2-.24-1.64-.3-.29-.3-.63-.2-1,.86-3.23.38-6.44-.2-9.64-.05-.25-.14-.5-.17-.75-.03-.19-.07-.44.17-.52.24-.08.37.11.42.32.17.75.36,1.5.49,2.26.27,1.57.48,3.15.45,4.76-.01.82-.06,1.64-.22,2.46-.14.74-.31,1.45.17,2.21.28.44.31,1.13-.02,1.63-.24.37-.08.53.13.77.45.5.89.99,1.17,1.61Z"/>
      <path class="cls-5" d="m216.47,33.64c-.93,0-1.85,0-2.78,0-.2,0-.39.02-.56.19-.2.2-.22.65-.56.59-.15-.03-.24-.41-.37-.62-.12-.19-.33-.22-.54-.25-.46-.06-.92-.09-1.38-.17-.11-.02-.27-.18-.29-.3-.03-.24.15-.36.38-.35.51,0,1.03.04,1.54.05.54,0,.7-.16.86-.69.12-.41.06-.81.04-1.22-.05-1.14-.01-2.27.35-3.36.1-.29.25-.56.42-.81.08-.11.26-.2.4-.07.1.09.22.24.22.36,0,.2-.08.4-.14.59-.52,1.57-.39,3.14-.11,4.73.07.39.29.51.63.5,1.13,0,2.27-.03,3.4-.02.41,0,.82.05,1.22.12.12.02.31.2.31.3,0,.22-.2.33-.42.33-.87,0-1.75,0-2.62,0,0,.03,0,.06,0,.09Z"/>
      <path class="cls-5" d="m269.82,69.02c-1.79-.84-3.36-1.99-4.73-3.4-.91-.93-1.58-2.01-1.91-3.3-.68-2.71.65-5.52,3.19-6.65.23-.1.47-.23.73-.13.08.03.17.13.2.21.02.07,0,.22-.06.25-.22.13-.46.23-.69.32-2.22.92-3.79,4.09-2.33,6.95.58,1.12,1.37,2.06,2.35,2.83.84.67,1.75,1.26,2.64,1.88.33.23.67.46,1.01.7-.13.11-.27.23-.4.34Z"/>
      <path class="cls-5" d="m244.01,38.63c-.05.12-.07.25-.13.27-.14.06-.3.1-.44.07-.4-.07-.8-.17-1.19-.29-2.89-.91-5.78-1.82-8.67-2.73-.2-.06-.41-.09-.59-.19-.17-.09-.41-.21-.27-.46.05-.1.25-.18.37-.16.3.03.61.11.9.2,2.41.73,4.81,1.47,7.22,2.22.83.26,1.67.52,2.5.79.12.04.21.18.31.27Z"/>
      <path class="cls-5" d="m240.51,30.81c.44,0,.59,0,.75,0,.22,0,.44.07.46.3.01.21-.15.36-.39.37-1.65.08-3.25.46-4.86.78-1.11.22-2.21.47-3.32.69-.55.11-1.11.22-1.67.05-.07-.02-.14-.15-.15-.23,0-.09.05-.18.1-.27.02-.03.09-.05.13-.06,2.55-.33,5.02-1.06,7.55-1.49.56-.09,1.12-.13,1.4-.16Z"/>
      <path class="cls-5" d="m241.94,18.52c0,.19,0,.38-.01.57-2.13.87-4.27,1.73-6.39,2.63-.9.38-1.77.82-2.64,1.24-.23.11-.44.27-.72.23-.09-.01-.22-.06-.26-.13-.04-.07,0-.21.04-.28.09-.12.21-.22.35-.29,3.04-1.5,6.12-2.89,9.33-3.96.09-.03.2-.01.3-.02Z"/>
      <path class="cls-5" d="m219.29,14.66c.25-.16.5-.31.75-.47,1.57,2.24,2.97,4.57,3.85,7.17.18.54.39,1.06.7,1.54.12.17.19.39-.05.51-.23.11-.39-.08-.51-.23-.36-.45-.56-.98-.73-1.52-.79-2.43-2.19-4.53-3.5-6.68-.11-.18-.27-.3-.5-.31Z"/>
      <path class="cls-5" d="m233.19,29.77c-.37-.13-.81-.27-1.23-.45-.31-.13-.33-.58-.02-.73,1.25-.63,2.58-.95,3.98-.86.21.01.39.13.47.34.1.26.06.5-.13.71-.1.11-.22.22-.36.28-.84.4-1.75.51-2.72.71Z"/>
      <path class="cls-5" d="m227.57,35.01c-.2-.02-.38.02-.5-.05-.78-.42-1.53-.31-2.31,0-.32.12-.71.1-1-.21-.21-.23-.45-.22-.67-.03-.37.33-.65.15-.91-.13-.38-.41-.53-.89-.33-1.42.14-.38.35-.74.56-1.09.1-.17.27-.29.51-.25.2.04.26.31.11.63-.09.19-.21.35-.29.54-.24.61-.05,1.25.5,1.6.1.07.32.07.42,0,.64-.42,1.53-.28,2.07-.92.06-.07.34-.08.42,0,.52.47,1.15.63,1.81.73.06,0,.14.16.14.24,0,.08-.06.21-.13.25-.13.07-.28.09-.39.12Z"/>
      <path class="cls-5" d="m248.07,41.94c-.02.53-.11.97-.56,1.37-.26.23-.24.76-.4,1.13-.07.16-.28.34-.5.19-.11-.08-.23-.23-.24-.36-.02-.37.05-.78.34-.98.42-.29.42-.64.38-1.07-.09-.87-.15-1.74-.21-2.61-.02-.3-.01-.61.02-.91,0-.08.12-.17.2-.2.15-.05.31-.04.39.12.07.13.15.28.17.42.15.97.28,1.93.41,2.9Z"/>
      <path class="cls-5" d="m216.19,50.52c.03-.53.04-.94.07-1.35.01-.19.17-.26.31-.26.18,0,.23.16.3.3.19.42-.05.8-.09,1.2-.05.53-.01,1.02.33,1.46.09.11.14.27.33.19.53-.21.66.19.94.51.52.58.93,1.19,1.15,1.94.06.22.01.41-.2.51-.23.11-.42-.02-.53-.18-.46-.67-.93-1.34-1.31-2.05-.17-.32-.3-.47-.66-.44-.36.03-.56-.2-.58-.56-.02-.46-.04-.92-.06-1.27Z"/>
      <path class="cls-5" d="m219.84,29.33c-.53-.03-1.05-.02-1.52-.26-.12-.06-.22-.2-.27-.33-.08-.22.02-.42.19-.54.87-.61,2.24-.54,3,.13.25.22.2.61-.08.77-.42.24-.89.21-1.33.23Z"/>
      <path class="cls-5" d="m226.59,31.12c.51.07,1.04-.03,1.5.24.11.07.21.24.21.38,0,.13-.08.37-.17.39-1.1.22-2.2.6-3.29-.01-.11-.06-.21-.23-.24-.36-.04-.23.11-.38.31-.47.14-.06.3-.09.45-.1.41-.03.82-.05,1.23-.07Z"/>
      <path class="cls-5" d="m245.03,17.87c0-.21,0-.41-.01-.62.95-.77,1.89-1.55,2.85-2.3.31-.24.64-.53,1.09-.45.08.01.16.1.22.16.02.02,0,.1-.01.15-.01.05-.04.11-.08.13-1.25.7-2.24,1.75-3.4,2.57-.2.15-.44.24-.66.36Z"/>
      <path class="cls-5" d="m215.26,17.01c-.97-.99-1.7-2.15-2.43-3.31-.16-.25-.25-.56-.32-.85-.03-.11.09-.34.17-.36.11-.03.33.07.38.17.68,1.44,1.78,2.6,2.58,3.96l-.37.39Z"/>
      <path class="cls-5" d="m218.73,20.27c.97.94,1.75,2.01,2.3,3.24.03.06-.05.2-.11.24-.07.04-.2.05-.28.01-.09-.04-.16-.13-.22-.21-.68-.96-1.36-1.93-2.04-2.9.11-.13.23-.26.34-.39Z"/>
      <path class="cls-5" d="m216.42,18.57c.21.16.36.36.42.61-.07.07-.12.19-.2.22-.47.13-.7.35-.44.87.09.18.03.42-.19.49-.12.04-.29-.03-.43-.07-.05-.01-.09-.05-.13-.08-.83-.72-.81-1.19.11-1.73.26-.15.57-.21.85-.31Z"/>
      <path class="cls-5" d="m225.82,17.39l-.03-.06c.39.03.66-.26.99-.4.38-.16.75-.33,1.18-.36.42-.03.71.11.7.38-.01.35-.29.38-.53.47-.48.18-.96.36-1.44.55-.58.24-.62.21-.87-.58Z"/>
      <path class="cls-5" d="m241.23,63.48c.66.16,1.35.32,2.04.5.2.05.38.14.39.39.01.21-.27.39-.59.32-.74-.16-1.49-.33-2.22-.53-.1-.03-.23-.22-.23-.34,0-.23.2-.33.42-.34.05,0,.1,0,.19,0Z"/>
      <path class="cls-5" d="m273.51,70.28c-.2,0-.39-.02-.59-.02-.34,0-.55-.15-.63-.49.35.2.8.11,1-.08.39-.37.69-.29,1.08-.09.36.19.65.64,1.19.23.16-.12.59.08.77.36.05.07.07.21.04.28-.03.06-.2.14-.25.11-.72-.48-1.52-.3-2.3-.32l.04.02c-.05-.13-.08-.31-.25-.09l-.11.09Z"/>
      <path class="cls-5" d="m230.8,33.43c0,.42-.08.83-.44,1.09-.1.08-.29.09-.42.07-.16-.03-.28-.21-.2-.34.48-.7.24-1.36-.06-2.03-.07-.16,0-.31.13-.39.21-.12.4-.03.52.16.28.43.49.9.46,1.43Z"/>
      <path class="cls-5" d="m286.18,38.56c-.94-.36-1.21-1.12-1.43-1.91-.05-.17.12-.26.29-.25.21.01.42.05.53.25.3.59.54,1.19.61,1.91Z"/>
      <path class="cls-5" d="m229.37,54c.13.01.26-.02.33.03.43.29.78.66.96,1.15.04.1-.08.27-.17.38-.05.06-.21.09-.27.05-.52-.27-.91-.66-1.03-1.25-.02-.11.12-.26.18-.37Z"/>
      <path class="cls-5" d="m271.33,56.03c.01-.3.48-.29.45-.52-.06-.46.18-.55.52-.48.45.09.88.23,1.31.38.14.05.25.22.16.36-.06.1-.25.17-.37.16-.4-.05-.79-.17-1.19-.22-.17-.02-.23.14-.23.3l-.65.03Z"/>
      <path class="cls-5" d="m237.45,55.52c.03-.15.07-.34.12-.53,0-.04.08-.08.11-.08.09,0,.21,0,.26.06.33.38.31.82.17,1.27-.02.07-.15.14-.24.15-.08,0-.23-.04-.25-.1-.08-.23-.11-.48-.18-.78Z"/>
      <path class="cls-5" d="m214.84,23.57c.34.03.7.43.58.7-.05.11-.22.24-.34.23-.32-.02-.58-.2-.61-.54-.02-.21.16-.34.36-.4Z"/>
      <path class="cls-5" d="m217.48,44.49c.33.38.66.76.98,1.14.16.2.12.46-.05.51-.18.05-.3-.03-.33-.19-.09-.54-.76-.85-.58-1.49l-.03.03Z"/>
      <path class="cls-5" d="m235.45,23.65c.14.02.25.02.34.06.08.04.18.12.19.2.01.07-.07.19-.14.23-.28.17-.59.19-.87.01-.07-.04-.15-.16-.13-.23.01-.08.12-.17.2-.2.14-.05.3-.05.42-.07Z"/>
      <path class="cls-5" d="m242.02,52.94c-.04.1-.09.3-.21.45-.09.11-.29.11-.39-.02-.22-.28-.09-.75.24-.88.16-.07.37.14.36.45Z"/>
      <path class="cls-5" d="m218.73,20.27c-.11.13-.23.26-.34.39-.38-.43-.76-.86-1.15-1.29.13-.14.25-.27.38-.41.43.38.84.79,1.11,1.31Z"/>
      <path class="cls-5" d="m245.99,48.83c-.04.19-.37.4-.56.3-.15-.08-.18-.23-.13-.38.06-.23.25-.3.46-.27.16.02.24.15.23.36Z"/>
      <path class="cls-5" d="m273.23,70.85c.09-.19.18-.38.28-.57l.11-.09c.1-.02.18.01.25.09l-.04-.02c.17.11.36.2.51.33.16.14.06.29-.07.36-.35.19-.68-.04-1.03-.09Z"/>
      <path class="cls-5" d="m240.08,54.61c-.03.08-.05.22-.13.34-.04.07-.16.11-.25.12-.16,0-.27-.1-.26-.27.01-.14.06-.28.13-.4.04-.07.16-.12.24-.13.17,0,.23.13.27.34Z"/>
      <path class="cls-5" d="m243.95,50.87c.04.09.15.21.14.33-.02.23-.19.33-.41.24-.16-.06-.19-.21-.12-.36.06-.14.18-.23.39-.2Z"/>
      <path class="cls-5" d="m269.83,55.22c.21.05.38.16.38.4,0,.03-.06.07-.1.1-.22.14-.39,0-.54-.12-.04-.03-.01-.19.02-.28.04-.12.14-.15.25-.1Z"/>
      <path class="cls-5" d="m271.33,56.03l.65-.03c.16.04.28.18.19.29-.23.29-.61.15-.84-.27Z"/>
      <path class="cls-5" d="m231.3,65.42s.01.07.02.07c.04,0,.08,0,.12,0,0-.03-.01-.07-.02-.07-.04,0-.08,0-.12,0Z"/>
      <path class="cls-5" d="m270.57,55.55c.12.05.26.08.38.15.06.04.13.15.11.2-.05.13-.15.25-.32.16-.12-.07-.24-.16-.34-.26-.01-.01.1-.15.17-.26Z"/>
      <path class="cls-5" d="m215.26,17.01l.37-.39c.09.02.14.07.15.16-.11.15-.22.3-.33.45-.12-.03-.18-.1-.18-.22Z"/>
      <path class="cls-5" d="m215.77,16.79c.1.15.33.27.15.49-.17.21-.33.11-.49-.04.11-.15.22-.3.33-.45Z"/>
      <path class="cls-5" d="m271.59,69.94c.08.04.16.09.24.13-.07.05-.14.1-.21.16.04-.1.03-.2-.03-.29Z"/>
      <path class="cls-5" d="m271.26,69.37s.08.08.11.11c-.07.03-.14.08-.21.1-.03,0-.07-.06-.1-.1.07-.04.13-.07.2-.11Z"/>
      <path class="cls-5" d="m270.49,69.21c.04-.06.07-.13.11-.2.03.03.1.08.1.1-.02.07-.06.14-.1.21-.03-.03-.07-.07-.11-.11Z"/>
      <path class="cls-5" d="m269.82,69.02c.13-.11.27-.23.4-.34.07.39-.02.46-.4.34Z"/>
      <path class="cls-5" d="m230.57,65.69s.07,0,.1,0c.08.06.06.12-.06.17-.02,0-.07-.05-.09-.09,0-.02.03-.05.05-.08Z"/>
    </g>
  </g>
  <path class="cls-1" d="m12.92,47.06c.81-.84,20.2-26.93,33.09-9.54,12.89,17.39,10.43,14.9,29.82,16.45,19.39,1.55,24.44-5.94,42.55,5.44,18.11,11.38,17.63,11.15,36.46-2.28,18.83-13.43,35.27.79,43.09,6.21"/>
</svg>