<?xml version="1.0" encoding="UTF-8"?>
<svg id="bg" xmlns="http://www.w3.org/2000/svg" viewBox="0 0 332.15 101.19">
  <defs>
    <style>
      .cls-1 {
        stroke: #604c3f;
        stroke-width: .25px;
      }

      .cls-1, .cls-2, .cls-3, .cls-4, .cls-5, .cls-6, .cls-7, .cls-8, .cls-9, .cls-10, .cls-11, .cls-12, .cls-13, .cls-14, .cls-15, .cls-16, .cls-17, .cls-18, .cls-19, .cls-20, .cls-21, .cls-22 {
        fill-rule: evenodd;
      }

      .cls-1, .cls-22 {
        fill: none;
        stroke-miterlimit: 10;
      }

      .cls-23 {
        fill: #f8eae1;
      }

      .cls-24 {
        fill: #ebd6cd;
      }

      .cls-25 {
        fill: #a19088;
      }

      .cls-26 {
        fill: #666;
      }

      .cls-27 {
        fill: #8e470c;
      }

      .cls-28 {
        fill: #241914;
      }

      .cls-29 {
        fill: #604c3f;
      }

      .cls-2 {
        fill: #5c3e22;
      }

      .cls-3 {
        fill: #523417;
      }

      .cls-4 {
        fill: #9b7d60;
      }

      .cls-5 {
        fill: #714f31;
      }

      .cls-6 {
        fill: #cfe6f7;
      }

      .cls-7 {
        fill: #cbe5f7;
      }

      .cls-8 {
        fill: #c5a487;
      }

      .cls-9 {
        fill: #ab896f;
      }

      .cls-10 {
        fill: #b1cdb9;
      }

      .cls-11 {
        fill: #a4846b;
      }

      .cls-12 {
        fill: #b3937a;
      }

      .cls-13 {
        fill: #aecde3;
      }

      .cls-14 {
        fill: #bad6ea;
      }

      .cls-15 {
        fill: #85a8c1;
      }

      .cls-16 {
        fill: #9cbfd8;
      }

      .cls-17 {
        fill: #8c6f53;
      }

      .cls-18 {
        fill: #f0efde;
      }

      .cls-19 {
        fill: #f0f1f0;
      }

      .cls-20 {
        fill: #fff;
      }

      .cls-21 {
        fill: #66879e;
      }

      .cls-22 {
        stroke: #f0cb9c;
        stroke-dasharray: 0 6;
        stroke-linecap: round;
        stroke-width: 2px;
      }
    </style>
  </defs>
  <g>
    <ellipse class="cls-27" cx="212.73" cy="52.03" rx="21.24" ry="4.31"/>
    <path class="cls-29" d="m191.13,52.13c.09,1.56,2.75,2.21,3.9,2.55,3.42,1.01,7.05,1.38,10.59,1.63,4.52.32,9.08.32,13.61.03,3.61-.24,7.29-.62,10.78-1.6,1.26-.35,3.77-.94,4.26-2.41s-1.93-2.31-2.91-2.65c-3-1.05-6.24-1.45-9.38-1.75-4.67-.45-9.39-.52-14.07-.3-4.07.2-8.23.55-12.17,1.62-1.27.34-4.5,1.06-4.6,2.82-.02.3.71.16.72-.09.09-1.59,3.27-2.19,4.39-2.47,3.16-.79,6.44-1.14,9.68-1.36,7.46-.51,15.37-.46,22.68,1.27,1.32.31,4.31.81,4.92,2.31s-2.58,2.33-3.49,2.59c-6.89,1.98-14.57,2.01-21.67,1.7-3.85-.17-7.75-.5-11.51-1.39-1.22-.29-4.9-.94-5-2.71-.01-.24-.74-.09-.72.19Z"/>
  </g>
  <g>
    <g>
      <g>
        <path class="cls-23" d="m284.67,65.5c.12-.8-.25-1.47-.65-2.1-1.2-1.92-1.68-4.03-1.6-6.26.07-2.06-.27-4.03-.96-5.96-.7.04-.91-.57-1.28-.97-.88.03-1.67-.37-2.49-.58-.22.04-.45.08-.67.11h-.02c-.34.41-.83.21-1.24.35-.36.44-.87.62-1.36.85-.82.85-1.82,1.43-2.86,1.96-.35.47-.75.85-1.39.85-.11.27-.34.34-.6.34-.45.49-1.06.63-1.62.43-1.86-.67-3.78-1.31-4.58-3.44-.48-1.29-1.47-2.23-2.41-3.18-.72-.73-1.45-.76-2.33-.23-.32.2-.59.46-.91.66-.85.52-2.25.26-2.67-.61-.39-.81-1.02-1.2-1.77-1.53-1.14.51-2.08.19-2.88-.71-.35,0-.61-.22-.82-.45-1.2-1.27-2.72-2.07-4.16-2.99-1.45-.93-3.01-1.33-4.73-1.19-1.22.1-2.46.18-3.69.05-.98.41-1.92.06-2.87-.16-1.44-.31-2.99-.38-3.94-1.78-.06-.08-.17-.13-.25-.19-.38-.26-.79-.35-1.21-.11-.46.26-.69.7-.62,1.21.07.47.23.94.41,1.38.42,1.05.61,2.14.79,3.26.16.95-.1,1.68-.66,2.37-.23.29-.5.56-.74.85-.66.81-1.12,1.73-1.15,2.77-.04,1.32-.53,2.5-.93,3.72-.39,1.21-1.1,2.19-1.98,3.07-.72.73-1.44,1.44-2.64,1.18-.37-.08-.75.1-.85.56.02.16.01.34.08.47.29.59,2.3,1.94,2.92,2.01.61.07,1.21-.03,1.68-.4.62-.49,1.2-.55,1.94-.25.85.35,1.54.06,2.07-.73.44-.67.97-1.27,1.44-1.92.19-.26.43-.54.47-.83.16-1.43,1.23-2.34,1.91-3.47.08-.13.21-.24.33-.34.25-.21.21-.84.5-.78,1.22.23,1.77-.9,2.26-.35,1.5,1.7,2.52,1.9,4.42,3.11,1.63,1.04,3.18,6.46,4.34,8.01.8,1.08,1.73,2.04,2.62,3.03.25.28.53.54.77.82,1.15,1.36,2.1,2.82,2.61,4.55.24.82.6,1.6.92,2.39.56,1.39,1.18,2.76,1.1,4.31-.02.4.12.77.48.95.7.36.77.95.73,1.63-.04.64-.08,1.29-.04,1.93.08,1.39-.19,2.65-1.13,3.73-.24.28-.4.63-.59.95-.81,1.32-.37,2.63,1.1,3.02,1.44.38,4.09-.06,4.78-2.17.56-1.73,1.26-3.4,1.31-5.24,0-.14.07-.36.17-.39.27-.1.36.16.45.34.41.82.52,1.74.76,2.61.17.6.14,1.15-.09,1.72-.2.49-.39,1.01-.46,1.53-.19,1.29.59,2.17,1.87,2.26,1.33.1,2.25-.51,2.94-1.58,1.01-1.56,1.29-3.31,1-5.09-.29-1.73-.5-3.48-1-5.18-.18-.61-.25-1.25-.34-1.89-.2-1.53-.3-3.08-.6-4.59-.28-1.42-.25-2.86-.39-4.29-.17-1.64.05-3.32.07-4.98,0-.56.21-1.04.39-1.55.13-.37.43-.42.75-.11.31.3.65.58.88.94.61.94,1.21,1.9,1.73,2.88.75,1.41,1.44,2.85,2.04,4.33.77,1.88,1.78,3.65,2.88,5.37.35.55.66,1.11.88,1.71,1.23.67,2,1.45,1.44,3.38-.62,2.13-1.48,4.27-2.73,6.13-.28.8-.58,1.59-.56,2.46.01.65.34.98.98,1.04.17-.12.33-.26.52-.36.85-.42,1.19-.27,1.66.72.75.02,1.5.04,2.25.07.44.02.84-.06,1.24-.25.42-.2.69-.47.75-.96.09-.85.34-1.67.64-2.46,1.2-3.14,2.13-6.36,2.9-9.63.8-3.43,1.74-6.81,3.06-10.08.1-.24.1-.52.15-.78-.61-.23-1.01-.59-.9-1.31Z"/>
        <path class="cls-25" d="m272.42,90.54c.17-.12.33-.26.52-.36.85-.42,1.19-.27,1.66.72-.51,0-1.03,0-1.54,0-.27,0-.5-.09-.63-.35Z"/>
        <path class="cls-26" d="m311.34,35.61c-.12-.47-.22-.94-.35-1.4-.26-.92-.92-1.42-1.82-1.6-1.1-.22-2.13-.07-3.06.59-.21-.06-.36-.17-.44-.38.24-.47.05-.89-.16-1.3.21-.64.42-1.28.63-1.93.2-.27.41-.54.44-.89.67-.96,1.36-1.91,2.02-2.88.27-.39.53-.8.56-1.31.2-.29.4-.58.4-.95.56-.72.74-1.61,1.12-2.41.64-1.37.84-2.81.62-4.3.22-.56.26-1.11-.11-1.62-.1-3.05-.82-5.91-2.7-8.37-1.1-1.44-2.33-2.78-3.71-3.96-1.62-1.39-3.53-2.14-5.7-2.15-.59,0-1.17,0-1.76,0-.63-.57-.72-.55-1.31.22.18.38.28.78.35,1.21.03.18.07.31.14.42-.06-.11-.11-.24-.14-.42-.07-.42-.17-.82-.35-1.21-1.22.29-2.41.65-3.38,1.52.08.04.14.09.2.14-.06-.05-.12-.1-.2-.14-.76.24-1.3.9-2.09,1.09-.13.03-.28.18-.35.31-.35.7-.95,1.28-.98,2.13h0c-.04.19-.08.37-.11.56.02.31.03.63.08.94,0,.04.04.08.08.12.04.04.09.06.13.07.02,0,.05,0,.08,0-.03,0-.06,0-.08,0-.04,0-.09-.04-.13-.07-.04-.04-.07-.08-.08-.12-.04-.31-.06-.63-.08-.94-.24.24-.27.55-.29.87-.08,1.05.05,2.08.36,3.09-.07.33.06.62.16.91-.01.1-.04.21-.04.31.1,1.96.71,3.83,1.04,5.76.12.71.9,1.07,1.01,1.77.11.68.14,1.37.65,1.91-.03.45-.08.91.26,1.29-.08.68.19,1.29.34,1.93-.11.43.01.84.06,1.26.16,1.31.3,2.62.44,3.93-.13.22-.26.44-.39.66-.22.02-.42-.04-.57-.2-.28-.31-.56-.63-.82-.96-1.28-1.68-2.54-3.37-3.82-5.05-.17-.22-.3-.54-.68-.46.03-.02.05-.05.05-.07,0-.08-.04-.16-.06-.24-.04-.19-.14-.31-.34-.33,0,0,0,0,0,0,0-.21-.14-.34-.31-.44-.24-.38-.53-.7-.92-.92-.24-.38-.52-.74-.93-.96-.48-.7-1.1-1.18-1.96-1.32-.49-.33-.84-.89-1.52-.88-.86-.32-1.66-.8-2.61-.84-.17-.06-.34-.12-.51-.18-.93-.53-1.95-.59-2.98-.61-.17-.16-.38-.2-.61-.16-1.25-.39-2.48-.85-3.83-.59-2.67-.25-5.28.05-7.83.87-.21,0-.42,0-.63.01-.18-.05-.31.01-.41.16-.09-.03-.16-.01-.23.05-1.36.03-2.66.33-3.9.9-.3-.04-.6-.1-.9-.13-.39-.03-.68.14-.83.52-.56.15-1.12.28-1.67.44-.55.16-1.11.31-1.51.78-.2.03-.43.15-.6.09-.64-.22-1.2-.06-1.76.23-.27.14-.55.26-.83.39-.49.49-1.11.74-1.77.92-1.33.36-2.67.72-3.98,1.13-1.11.35-2.23.7-3.11,1.53-.11,0-.19.04-.24.13-1.47.76-2.82,1.69-4.13,2.68-.76.57-1.59,1.06-2.15,1.85-.19.1-.4.16-.55.29-.65.55-1.29.9-2.15.36-.33-.2-.73-.05-1,.28-.63.76-1.33,1.38-2.4,1.35-.05,0-.1.04-.15.06-.59.2-1,.82-1.74.69-.69-.12-1,.77-1.7.68-.71.56-1.74.52-2.37,1.25-.16.18-.38.18-.59.13-.31-.07-.62-.17-.93-.24-.8-.19-1.58-.32-2.12.56-.09.16-.35.22-.55.31-.77.36-1.31.96-1.56,1.74-.38,1.21-1.16,2.14-1.99,3.06-.25.27-.57.49-.68.87-.1.03-.16.1-.17.2-.96.56-1.48,1.48-1.99,2.41-.29.53-.34,1.1-.36,1.69-.01.4.39.87-.02,1.19-.31.24-.77.32-1.17.43-.71.21-1.43.37-2.14.59-.35.11-.69.27-1,.47-.31.2-.32.52-.19.85-.13.08-.29.13-.39.25-.29.34-.24.61.14.69.49.1,1.11-.03,1.15.75-.48.58-.93,1.18-1.05,1.94-.09.55.15,1.09.61,1.15,1.28.17,2.56.28,3.57-.8.2.01.4.02.61.03,0,0,0-.01,0-.02,0,0,0,.01,0,.02.26.75.53,1.5.77,2.26.36,1.12,1.07,1.92,2.13,2.44,1.43.7,2.83,1.45,4.26,2.15.73.36,1.49.56,2.31.33.1-.46.48-.64.85-.56,1.2.26,1.91-.45,2.64-1.18.88-.88,1.59-1.87,1.98-3.07.4-1.22.89-2.39.93-3.72.03-1.04.48-1.96,1.15-2.77.24-.29.5-.56.74-.85.56-.69.82-1.42.66-2.37-.19-1.11-.37-2.21-.79-3.26-.18-.44-.34-.91-.41-1.38-.07-.51.15-.95.62-1.21.42-.24.83-.15,1.21.11.09.06.2.11.25.19.95,1.41,2.5,1.47,3.94,1.78.06-.23.11-.47.13-.7-.03.23-.07.47-.13.7.95.22,1.89.57,2.87.16,1.23.12,2.46.05,3.69-.05,1.73-.15,3.28.26,4.73,1.19,1.44.92,2.97,1.72,4.16,2.99.22.23.47.44.82.45.02-.19,0-.36-.02-.53.03.17.04.34.02.53.79.9,1.73,1.22,2.88.71.74.33,1.38.72,1.77,1.53.41.87,1.82,1.13,2.67.61.32-.2.59-.46.91-.66.88-.54,1.61-.5,2.33.23.94.95,1.93,1.89,2.41,3.18.79,2.13,2.71,2.77,4.58,3.44.55.2,1.17.05,1.62-.43-.25-.15-.43-.35-.57-.56.14.21.31.41.57.56.26,0,.49-.06.6-.34.64,0,1.04-.38,1.39-.85,1.04-.53,2.04-1.11,2.86-1.96h0c.49-.23,1-.42,1.36-.85.41-.13.91.06,1.24-.34h.02c.22-.05.45-.09.67-.12.83.21,1.61.61,2.49.58.37.4.58,1.01,1.28.97.69,1.93,1.03,3.9.96,5.96-.08,2.23.4,4.33,1.6,6.26.39.63.77,1.3.65,2.1-.11.72.3,1.08.9,1.31.37-.07.71-.19.89-.56.31-.66.62-1.31.93-1.97.25-.28.52-.54.59-.93.76-.73,1.25-1.64,1.7-2.58.62-.36.76-1.01.97-1.62-.2-.02-.39-.07-.56-.13.17.07.36.11.56.13,1.16-1.55,2.06-3.24,2.59-5.11.39-.33.7-.7.45-1.26.53-.99.77-2.08,1.07-3.15.24-.86.61-1.7.59-2.62.24-.84.56-1.66.4-2.56.25-1.04.86-1.91,1.41-2.8-.02.11.03.2.13.25,0,.22.15.26.32.25.13,0,.18-.1.15-.23.06-.47.12-.94.17-1.41.09-.91.26-1.77,1.07-2.37.29-.21.52-.53.6-.91.34-.19.46-.57.7-.85.15-.18.43-.15.49.06.08.25.11.52.21.77.31.79.61,1.6,1.51,1.94.28.46.85.04,1.15.38.3.33.71.47,1.08.68.23.13.47.25.71.37,1.67.84,3.12.22,4.07-.81.32-.35.58-.77.94-1.09.94-.85,1.18-1.87.88-3.06Zm-4.8-18.75s0,0,0,0c-.04.02-.08.05-.12.07.04-.02.09-.04.12-.07Zm-16.91-9.25s-.04.02-.06.03c.02-.01.05-.02.06-.03.15-.27.31-.55.39-.84-.08.3-.24.57-.39.84Zm1.46-.46c.09-.06.19-.1.29-.13-.1.03-.2.07-.29.13-.07.05-.13.1-.18.16.05-.06.11-.11.18-.16Zm1.36,1.03c-.21.12-.45.18-.69.23-.16.03-.33.05-.5.07.16-.02.33-.04.5-.07.25-.04.49-.1.69-.23.14-.08.26-.19.36-.34-.1.15-.23.26-.36.34Zm-.14-1.17c-.19-.28-.29-.57-.32-.88.03.3.13.59.32.88.38.01.62.17.64.58-.02-.41-.27-.57-.64-.58Zm-82.62,43.19h0c-.27-.08-.54-.16-.81-.24.27.08.54.15.81.24Zm10.29,6c-.06.13-.09.27-.1.41h0c0-.14.04-.28.1-.41Zm1.23,1.73c-.2-.02-.38-.06-.55-.14.16.07.35.12.55.14.15.01.28-.01.41-.06-.13.05-.26.07-.41.06Zm.97-.67c.06-.14.09-.31.1-.48h0c0,.18-.04.34-.1.48Zm10.68-23.39c-.29.13-.53.3-.66.5.13-.2.37-.37.66-.5.08,0,.16.02.23.05-.07-.03-.15-.05-.23-.05Zm15.89-.33c-.13,0-.25-.02-.36-.07-.11-.05-.19-.13-.26-.26-.1-.06-.18-.12-.24-.2.06.08.14.14.24.2.06.13.15.21.26.26.11.05.23.06.36.07.1.21.24.39.41.5-.17-.12-.31-.29-.41-.5Zm4.78,2.46c-.35.33-.48.45-.71.42.23.04.36-.09.71-.42.25-.07.45-.2.56-.4-.11.21-.31.33-.56.4Zm8.01,1.41c-.32.12-.53.36-.63.68.09-.32.3-.56.63-.68.02-.08.06-.15.12-.2-.05.05-.09.12-.12.2Zm7.52,4.3c-.37.06-.74.09-1.11.17.36-.08.74-.12,1.1-.17.04-.1.08-.2.11-.3-.03.1-.07.2-.1.3Zm.43-.22c-.11.11-.21.21-.32.32.11-.11.21-.21.32-.32h0c.2,0,.4,0,.61,0-.2,0-.4,0-.61,0Zm1.67,3.54s.08-.1.1-.14h0s-.07.09-.1.14Zm4.27-20.42h0c-.27-.18-.53-.37-.64-.69.11.33.36.52.64.69Zm-1.6,25.48c-.01.11.01.21.06.29-.05-.08-.07-.18-.06-.29Zm1.24-.71c-.17,0-.31,0-.44.01.13-.02.28-.02.44-.01.12,0,.21.03.29.06-.08-.04-.18-.06-.29-.06Zm1.31-24.44h0c.22.06.44.11.66.15-.22-.04-.44-.09-.66-.15Zm5.22,17.84c-.63,0-1.16-.41-1.34-.96.18.55.71.95,1.34.96.11,0,.21,0,.31-.02-.1.02-.21.02-.31.02Zm6.9,14.66c.02.1.06.2.11.29-.05-.09-.09-.19-.11-.29-.02-.11-.04-.21-.06-.29.02.09.04.18.06.29Zm-.85-.97c.25.02.41.04.52.1.11.06.16.16.22.36-.05-.19-.11-.3-.22-.36-.11-.06-.26-.08-.52-.1-.11,0-.22-.03-.32-.05.1.02.21.04.32.05Zm-2,4.93c.09,0,.16,0,.2.04.32.36.73.61,1.13.88-.39-.27-.81-.52-1.13-.88-.03-.04-.11-.05-.2-.04Zm.36-3.66c-.11-.23-.25-.42-.43-.59.19.17.32.36.43.59Zm.5-1.77c.16.16.33.28.52.36-.19-.08-.36-.2-.52-.36-.15-.15-.32-.28-.48-.42.16.14.33.27.48.42Zm-1.84-.64c.07-.2.2-.32.36-.36-.16.04-.29.16-.36.36-.06.19-.1.35-.12.5.01-.15.05-.32.12-.5Zm9-37.94c.01.08,0,.15,0,.23-.02.33-.04.67-.07,1,.02-.33.04-.67.06-1,.02-.08.02-.15,0-.23.02-.04.04-.08.06-.11-.02.04-.04.08-.06.11Zm.08-1.96h0c-.08-.3-.06-.59,0-.86-.07.27-.08.56,0,.86Zm1.11-5.43c-.09-.13-.19-.25-.28-.38-.28-.75-.55-1.52-1.29-1.9.74.39,1.01,1.15,1.29,1.9.09.13.19.25.28.38h0Zm5.05-.22c-.05-.07-.09-.15-.15-.2.05.05.1.13.15.2Zm1.78-3.43c-.1.06-.22.09-.3.05-.11-.06-.21-.14-.31-.23-.3-.27-.55-.66-.72-1.09.17.43.42.82.72,1.09.1.09.2.17.31.23.08.04.2.01.3-.05Zm-1.14.98c-.18.07-.27.04-.37-.1.11.14.19.17.37.1Zm3.1.61c.05,0,.1-.02.16-.03-.05.01-.1.03-.16.03-.16,0-.3.02-.42.05.13-.04.27-.05.42-.05Zm-2.93-4.69c.12.23.25.45.37.68-.13-.23-.25-.45-.37-.68-.01-.03-.06-.04-.12-.04.06,0,.1.02.12.04Zm-.52.12s.05-.07.09-.1c.04-.03.1-.06.14-.09h0s-.09.06-.14.09c-.04.03-.08.06-.09.1-.04.12-.06.26-.07.4,0-.14.03-.27.07-.4Zm-1.23,2.39c-.17-.3-.25-.65-.22-1.07-.03.42.05.78.22,1.07Zm-.33-1.46c-.08-.11-.19-.2-.33-.23-.15-.04-.31-.07-.46-.11.15.04.31.07.46.11.13.04.25.12.33.23Zm-3-.05s-.02.05-.02.08c0-.03.01-.05.02-.08Zm1.29,34.12h0,0s0,0,0,0Zm1.71-29.9c-.1-.32-.22-.63-.37-.92.15.29.27.6.37.92.04.15.09.28.15.39-.06-.12-.11-.25-.15-.39Zm4.18,11.54c-.12.23-.27.45-.48.77-1.23-1.25-1.73-2.84-2.47-4.27-.13.06-.27.12-.4.17.13-.05.27-.11.4-.17.01-.88-.02-1.74-.45-2.54.05-.91.1-1.81.14-2.72.02-.49.19-.94.42-1.37.52-.16,1.05-.17,1.57-.04.39.55.77,1.1,1.16,1.66.33,1.12.76,2.22.68,3.44-.02.34.22.7.34,1.06-.03,1.4-.23,2.77-.91,4.02Zm1.4-12.29c.14-.12.24-.29.27-.47-.03.18-.12.35-.27.47Z"/>
      </g>
      <g>
        <path class="cls-28" d="m302.67,21.15c-.29.21-.15.47-.09.72.4,1.79.54,3.6.52,5.43-.03,2-.48,3.93-.9,5.87-.15.68-.26,1.37-.31,2.06-.22,2.87,2.4,5.59,5.49,5.42.97-.05,1.77-.41,2.29-1.25.37-.59.75-1.17.99-1.83.38-1.06.36-2.11-.03-3.15-.41-1.09-1.11-1.51-2.25-1.33-.63.1-1.28.18-1.87.48-.13.53.44.67.59,1.05.08.21.07.42-.1.59-.19.17-.4.14-.58,0-.73-.59-1.24-1.26-1.29-2.29-.08-1.55.24-2.99,1-4.32.85-1.49,1.74-2.95,2.62-4.42.72-1.2,1.29-2.46,1.68-3.81,1.57-5.39,0-14.32-8.03-18.42-2.86-1.46-7.43-1.46-10.34,1.38-.15.15-.31.3-.47.44-1.7,1.51-2.29,3.36-1.97,5.63.49,3.52,1.28,6.95,2.24,10.36.65,2.32,1.28,4.65,1.72,7.02.2,1.07.27,2.12.15,3.2-.05.48-.12.95-.03,1.44.02.12-.07.32-.18.39-.19.13-.42.07-.57-.11-.73-.85-1.47-1.7-2.17-2.58-1.58-1.96-2.91-4.12-4.61-5.98-.54-.59-1.07-1.2-1.65-1.76-1-.99-2.14-1.75-3.51-2.18-1.89-.59-3.71-1.39-5.67-1.75-1.6-.29-3.18-.46-4.79-.18-.21.04-.43.06-.64.05-.22,0-.41-.12-.49-.34-.08-.21.14-.45.46-.53,2.25-.51,4.48-.27,6.69.27.88.22,1.74.51,2.61.79.87.28,1.72.59,2.59.88.87.29,1.72.6,2.38,1.28.14.15.34.27.53.35.52.2.95.46,1.07,1.08.04.19.24.35.38.5,2.03,2.15,3.66,4.62,5.46,6.95.26.34.53.67.82.98.05.06.2.07.28.03.08-.03.17-.14.17-.22.02-.37.06-.75,0-1.12-.14-.9-.28-1.8-.5-2.68-.74-2.91-1.52-5.8-2.28-8.7-.67-2.54-1.12-5.13-1.45-7.74-.27-2.17.32-4.02,1.83-5.59,1.52-1.57,3.21-2.85,5.41-3.27,2.44-.46,4.79-.31,7.03.87,4.72,2.48,7.56,6.38,8.65,11.56.91,4.33.32,8.42-2.08,12.2-.8,1.27-1.55,2.57-2.31,3.86-.52.88-.91,1.82-1.03,2.85-.09.84.07,1.04.83.78.4-.14.83-.19,1.26-.26,1.59-.23,2.75.42,3.31,1.9.56,1.47.53,2.95-.16,4.37-.28.58-.62,1.13-.98,1.66-.67,1.01-1.65,1.5-2.84,1.57-2.64.15-4.98-1.25-6.11-3.64-.16-.33-.29-.68-.42-.99-.39-.13-.49.19-.67.35-.54.52-1.05,1.08-1.61,1.57-.36.32-.37.58-.1.94.06.09-.02.42-.06.42-.63.05-.82.6-1.16.98-.05.06-.2.06-.29.04-.18-.04-.26-.21-.25-.36.05-.56.37-1.06.22-1.67-.04-.15.28-.42.47-.6.58-.56,1.17-1.1,1.75-1.65.67-.65,1.11-1.43,1.39-2.32,1.12-3.62,1.75-7.29,1.18-11.09-.2-1.33-.58-2.61-1.11-3.85-.61-1.43-1.16-2.88-1.72-4.33-.27-.7-.48-1.41-.28-2.19.07-.29-.05-.63-.06-.94-.02-.7-.06-1.39-.03-2.09.04-.95.46-1.77,1.11-2.43.83-.85,1.83-1.49,2.89-2.01.18-.09.41-.11.62-.12.16,0,.31.09.35.27.04.16.03.33-.12.43-.27.17-.56.32-.83.49-.78.48-1.56.95-2.21,1.6-.24.24-.19.52.13.61,1.12.31,2.03.94,2.86,1.73.97.94,1.48,2.09,1.59,3.42.19,2.37-.29,4.58-1.62,6.58-.21.32-.5.37-.82.4-.19-.63.03-1.18.37-1.67,1.08-1.55,1.16-3.31,1.09-5.09-.08-1.99-1.67-3.91-3.61-4.46-.55-.16-.97.12-.97.72,0,1.17.06,2.35.13,3.52.02.31.17.62.27.92.69,2.03,1.64,3.95,2.48,5.91.03.07.16.09.25.13Z"/>
        <path class="cls-28" d="m268.43,58.91c.44.6.93,1.16,1.32,1.8.59.96,1.06,1.96,1.33,3.08.51,2.19,1.13,4.35,1.69,6.54.4,1.56.89,3.1,1.57,4.55,1,2.12,1.01,4.36.84,6.62-.04.52-.27,1.03-.44,1.54-.41,1.21-.98,2.37-1.18,3.65-.08.5-.5.82-.77,1.21-.46.66-.97,1.29-1.05,2.11.7.72,1.55.85,2.49.8,1.07-.05,2.12-.17,3.18-.4.86-.19,1.17-.71,1.35-1.39.24-.93.45-1.87.58-2.83.11-.81.35-1.55.63-2.31.72-1.91,1.38-3.83,2.03-5.76.19-.55.24-1.15.34-1.73.21-1.11.39-2.22.62-3.32.59-2.76,1.69-5.29,3.21-7.67,1.5-2.35,2.91-4.76,4.35-7.14.78-1.29,1.46-2.62,1.99-4.03.81-2.15,1.79-4.25,2.16-6.55.11-.69.19-1.38.28-2.07.04-.32.08-.65.3-.9.1-.12.25-.22.42-.12.08.05.19.13.2.21.04.32.07.64.05.95-.11,1.83-.53,3.6-1.14,5.33-1.27,3.6-2.83,7.05-4.96,10.24-1.16,1.74-2.14,3.59-3.27,5.35-1.53,2.39-2.3,5.06-2.93,7.78-.2.88-.11,1.8-.34,2.7-.62,2.45-1.54,4.79-2.42,7.15-.25.66-.44,1.31-.54,2.01-.15,1-.37,2-.62,2.98-.12.46-.38.88-.6,1.31-.15.29-.4.5-.73.59-1.87.53-3.78.75-5.72.53-.32-.04-.64-.12-.93-.24-.95-.37-1.23-.89-.86-1.87.43-1.09.92-2.16,1.46-3.2.73-1.39,1.17-2.87,1.72-4.33.37-.98.21-2.02.23-3.03,0-.23-.13-.43-.34-.49-.66-.18-.88-.75-1.13-1.27-.56-1.16-1.05-2.35-1.63-3.49-1.13-2.19-2.33-4.35-3.46-6.54-.59-1.14-1.1-2.32-1.66-3.48-.22-.45-.14-.82.32-1.17.88,1.1,1.24,2.47,1.91,3.68.68,1.22,1.3,2.46,1.95,3.69.63,1.18,1.27,2.36,1.9,3.54.65,1.21,1.06,2.55,1.94,3.9-.04-.82-.28-1.36-.51-1.89-.89-2.02-1.56-4.1-2.02-6.26-.18-.84-.45-1.66-.63-2.49-.48-2.27-1.24-4.42-2.54-6.37-.18-.26-.33-.56-.44-.85-.11-.29.07-.51.29-.69l.11.02h.11Z"/>
        <path class="cls-28" d="m237.63,53.81c.04-.1.08-.25.15-.39.07-.16.54-.19.55-.05.02.78.73.95,1.14,1.37.15.15.26.34.39.51.13.17.31.36.52.29.45-.15.71.04.92.4.13.23.34.19.56.15.32-.06.52.12.59.4.78,3.05,4.49,9.11,6.83,10.92.59.45,1.25.76,1.59,1.5.19.42.64.71.97,1.06,1.66,1.76,3.14,3.65,4.31,5.78,1.26,2.3,2.54,4.59,3.8,6.89.62,1.13,1.12,2.3,1.49,3.54.27.89.2,1.68-.37,2.42-.16.21-.33.42-.46.65-.34.65-.31.91.29,1.52.25.25.26.43.08.67-.19.26-.44.27-.7.12-.77-.46-1.02-1.03-.85-1.89.12-.59.36-1.12.76-1.57.44-.49.52-1.03.29-1.64-.13-.35-.22-.72-.36-1.06-.17-.4-.16-1.11-.73-1.02-.44.07-.25.74-.34,1.14-.14.63-.32,1.26-.34,1.89-.05,1.41-.8,2.49-1.52,3.6-.1.16-.34.29-.53.31-1.06.15-2.12.3-3.18.39-.47.04-.97,0-1.43-.11-.81-.2-1.23-.86-1.13-1.69.17-1.3.59-2.53,1.53-3.47.96-.97,1.17-2.08,1.04-3.38-.27-2.69-.91-5.27-1.99-7.74-.58-1.32-1.17-2.64-1.76-3.96-.4-.88-.89-1.7-1.41-2.52-.69-1.08-1.41-2.1-2.33-3.01-.76-.75-1.3-2.41-1.97-3.25-.1-.12-1.69-3.75-1.8-3.76-.99-.14-1.12-1-1.53-1.68-.23-.39-.74-.56-1.25-.3-.48.24-.84.02-1.07-.4-.44-.8-.82-1.63-.77-2.64Zm12.58,15.78l-.06.04.09-.02c-.15.34.02.62.15.91.61,1.31,1.22,2.62,1.81,3.94,1.23,2.76,2.02,5.63,2.27,8.66.12,1.46-.08,2.75-1.18,3.84-.78.77-1.19,1.77-1.36,2.86-.09.56.08.82.62.89,1.03.14,2.02-.05,3.03-.23,1.23-.22,1.25-.19,1.74-1.26.18-.38.28-.81.36-1.22.14-.68.24-1.37.33-2.06.18-1.27.34-2.54.51-3.82-.59-1.08-1.16-2.17-1.76-3.25-.54-.98-1.12-1.95-1.66-2.94-1.05-1.89-2.38-3.56-3.81-5.16-.36-.4-.72-.79-1.08-1.19Z"/>
        <path class="cls-28" d="m212.28,40.93c-.18.52-.14,1.09-.5,1.59-.23.32-.27.8-.35,1.22-.13.73-.12.73.77.97.05.01.11.02.15.05.11.1.27.2.31.32.07.24-.11.41-.31.49-.24.1-.51.17-.77.22-.53.09-1.06.21-1.59.23-.97.04-1.76.43-2.42,1.1-.34.34-.79.56-1.01,1,.05.33.31.43.55.54.59.26,1.17.53,1.77.77.55.21,1.25.25,1.63.62.48.46.72,1.17,1.02,1.79.52,1.05,1.01,2.13,1.53,3.18.33.68.81,1.25,1.42,1.71.66.5,1.33.87,2.2.81.81-.05,1.6.16,2.37.37,1.46.39,2.67,1.13,3.38,2.51.27.54.52.52.99.27.48-.25.92.03,1.34.3.6.38.78.35,1.23-.07.58-.53.91-1.18,1.04-1.95,0-.06.17-.11.26-.13.13-.03.22.03.24.15.02.16.08.33.04.47-.17.56.08.73.6.83.36.07.4.52.08.74-.97.67-1.94,1.34-3.05,1.76-.35.13-.72.22-1.09.25-.86.06-1.6-.15-1.97-1.04-.13-.29-.31-.56-.44-.86-.51-1.17-1.43-1.85-2.61-2.2-.77-.23-1.55-.44-2.37-.42-1.94.06-3.2-1.04-4.19-2.51-.47-.71-.8-1.51-1.18-2.28-.17-.33-.3-.69-.46-1.02-.07-.15-.26-.25-.37-.15-.9.82-2.07.79-3.15.93-1.34.18-1.87-.44-1.69-1.8.05-.37.1-.75.23-1.1.28-.74.48-1.39-.45-1.87-.31-.16-.3-.78-.02-1.01,1.29-1.09,2.37-2.52,4.27-2.67.65-.05.67-.14.77-.8.03-.21.05-.43.07-.64.02-.16.03-.32.06-.48.22-1.22.55-1.62,1.73-2.14l-.03-.03Zm-1.87,11.1c0-1.03-.62-1.36-1.46-1.62-2-.63-2.04-.64-2.33,1.43-.08.56.15.81.72.73.99-.15,1.98-.34,3.06-.53Z"/>
        <path class="cls-28" d="m264.67,59.97c.24,1.29-.07,2.54-.32,3.79-.14.68-.37,1.34-.53,2.01-.11.45-.35.9.11,1.34.12.11.05.41.07.62.1,1.01.18,2.02.29,3.03.24,2.23.48,4.46.75,6.68.24,1.96.41,3.93,1.29,5.75.17.35.22.73.05,1.09-.62,1.27-.45,2.6-.31,3.93.04.37.11.74.14,1.11.02.23-.12.4-.32.51-.16-.03-.31-.06-.47-.08-.18-1.22-.47-2.42-.35-3.67.04-.37,0-.79.16-1.1.43-.8.3-1.49-.06-2.28-.64-1.43-.82-3-1.01-4.53-.17-1.39-.5-2.73-.76-4.1-.23-1.25-.72-2.47-.41-3.79.07-.3-.18-.32-.39-.28-.43.08-.61-.14-.56-.52.1-.74.22-1.47.04-2.23-.1-.42.04-.86.37-1.19.4-.4.51-.93.65-1.44.52-1.87.8-3.77.67-5.72-.06-.8-.01-1.61,0-2.41,0-.25.19-.42.4-.43.2-.02.44.11.47.35.04.26.01.52.01.79,0,.92.01,1.85.02,2.77Z"/>
        <path class="cls-28" d="m263.51,16.33c.32,0,.7-.09.95.05.81.45,1.64.32,2.49.23.25-.03.53.04.78.11.16.04.24.21.22.38-.01.09-.08.24-.14.25-.95.16-1.89.3-2.84.43-.1.01-.23-.02-.3-.09-.63-.63-1.41-.4-2.13-.36-1.77.1-3.5.45-5.21.89-2.07.53-4.07,1.28-6.06,2.07-.95.37-1.79.94-2.64,1.51-.21.14-.4.01-.54-.18-.12-.16-.02-.32.08-.43.69-.79,1.59-1.26,2.52-1.66,2.41-1.04,4.86-1.93,7.43-2.5,1.78-.39,3.57-.66,5.39-.69Z"/>
        <path class="cls-28" d="m242.08,23.09c-.74.52-1.48,1.07-2.24,1.57-1.35.88-2.62,1.86-3.81,2.94-1,.9-2.07,1.7-3.27,2.32-.14.07-.35.12-.4.24-.36.83-.94.79-1.56.4-.5-.32-.77-.11-1.04.29-.05.08-.16.15-.26.18-.09.03-.25.06-.3,0-.11-.1-.26-.28-.23-.39.2-.73.61-1.36,1.07-1.95.13-.17.39-.17.56.03.67.81,1.46.59,2.15.14.94-.61,1.86-1.28,2.68-2.04,1.86-1.73,4-3.06,6.08-4.47.3-.2.63-.48.96-.04-.13.26-.26.52-.39.78Z"/>
        <path class="cls-28" d="m235.01,52.36c-.32.04-.44.28-.6.5-.77,1.03-1.53,2.06-2.32,3.08-.21.27-.34.52-.36.86-.02.34-.2.6-.47.81-.17.14-.37.3-.57.21-.26-.11-.11-.33-.07-.53.19-1.08.72-1.95,1.43-2.78.66-.77,1.17-1.66,1.75-2.5.21-.3.44-.6.69-.88.35-.38.65-.39.91,0,.44.67.91,1.33,1.27,2.04.51.98,1.19,1.77,2.14,2.33.18.11.33.26.46.43.05.06.04.21.01.3-.04.17-.17.26-.35.27-.28.01-.52-.08-.75-.23-.91-.6-1.65-1.35-2.16-2.33-.29-.57-.58-1.14-1.02-1.6Z"/>
        <path class="cls-28" d="m264.67,59.97c0-.92-.01-1.85-.02-2.77.04.15.05.32.11.46.09.19.24.4.44.16.27-.32.48-.69.73-1.03.16-.21.39-.37.68-.26.34.12.24.39.21.65-.06.6.04.66.55.42.14-.07.26-.2.4-.24.14-.04.32-.06.44,0,.21.11.27.37.14.54-.27.37-.12.68.06,1h-.11s-.11-.02-.11-.02c-.12-.07-.19-.3-.38-.16-.21.15-.43.29-.6.49-.3.35-.59.44-1.09.38-.47-.05-.98.24-1.47.38Zm1.84-1.57c-.04-.07-.07-.14-.11-.21-.04.03-.11.08-.1.1.01.08.06.15.09.22.04-.03.07-.07.12-.11Z"/>
        <path class="cls-28" d="m242.08,23.09c.13-.26.26-.52.39-.78.2.2.44.35.66.06.61-.77,1.54-.83,2.37-1.12.11-.04.33.03.41.12.15.18.11.42-.06.56-.55.47-1.02,1.11-1.81,1.18-.36.03-.55.27-.8.46-.77.61-.79.6-1.17-.5Z"/>
        <path class="cls-28" d="m226.68,31.68c.12.29.02.63-.24.64-.76.02-1.21.49-1.66.98-.24.26-.45.25-.67.06-.39-.35-.75-.72-1.11-1.06.06-.16.08-.27.14-.35.61-.75.61-.75,1.47-.23.13.08.29.11.44.17.01-.05.03-.1.05-.15.25-.35.49-.73.77-1.05.15-.17.37-.07.51.1-.02.34-.07.68.29.9Z"/>
        <path class="cls-28" d="m221.53,55.84s.07,0,.1,0c.42.14.75.9.55,1.3-.04.09-.13.17-.22.21-.16.06-.34.08-.51.11-.53.09-.66.01-.85-.52-.11-.3-.11-.36.29-.5.25-.09.3-.26.4-.43.05-.1.13-.16.25-.17Z"/>
        <path class="cls-28" d="m213.84,39.4c-.21.02-.49-.31-.45-.45.04-.15.08-.36.18-.42.91-.5,1.2-1.44,1.65-2.27.15-.28.27-.58.47-.82.18-.22.47-.24.7-.05.17.14.31.36.17.55-.79,1.1-1.16,2.51-2.38,3.29-.13.08-.28.13-.35.17Z"/>
        <path class="cls-28" d="m234.34,47.04c.78.4.79.41.55,1.02-.07.19-.19.37-.31.6.26.05.47.06.65.14.29.13.37.42.21.66-.24.36-.52.69-.94.83-.12.04-.34,0-.43-.09-.09-.09-.13-.3-.09-.42.09-.24.25-.45.4-.71-.19-.06-.34-.09-.48-.15-.44-.2-.51-.39-.32-.71.24-.4.68-.68.77-1.18l-.02.02Z"/>
        <path class="cls-28" d="m265.43,89.73c.16.03.31.06.47.08-.32.87-.93,1.37-1.86,1.52-.47.07-.92.24-1.38.34-.26.06-.57.05-.63-.29-.06-.31.19-.46.45-.56.2-.07.39-.18.6-.21.85-.14,1.59-.55,2.36-.89Z"/>
        <path class="cls-28" d="m218.73,33.85c-.2.25-.38.51-.59.74-.1.11-.27.16-.43.08-.22-.11-.3-.3-.26-.51.18-.88.91-1.43,1.73-1.21.55.15,1.07.42,1.59.67.09.05.16.29.13.41-.04.13-.19.26-.33.3-.14.05-.32.02-.46-.02-.45-.13-.89-.29-1.38-.46Z"/>
        <path class="cls-28" d="m227.05,30.76c.3-.97.88-1.81,1.36-2.69.1-.19.35-.28.54-.13.11.08.18.26.19.4,0,.15-.05.32-.12.46-.39.81-.89,1.57-1.12,2.46-.08.29-.45.28-.89.03.01-.18.02-.35.04-.53Z"/>
        <path class="cls-28" d="m234.36,47.03c-.18-.39-.42-.13-.64-.06-.22.07-.44.05-.57-.12-.07-.1-.06-.32,0-.45.26-.63.54-1.26.83-1.88.09-.19.22-.38.47-.33.33.07.37.34.36.61-.03.66-.39,1.2-.65,1.77-.1.22-.06.4.2.48,0,0,.02-.02.02-.02Z"/>
        <path class="cls-28" d="m296.2,44.1c-.08-.06-.21-.11-.23-.18-.15-.64.24-1.65.75-1.98.16-.1.53.05.51.22-.08.69-.23,1.36-.74,1.88-.06.06-.2.04-.3.06Z"/>
        <path class="cls-28" d="m212.31,40.96c-.02-.16-.07-.32-.05-.47.07-.42.32-.55.65-.38.34.18.53.55.38.75-.19.26-.45.2-.71.12-.1-.03-.2-.04-.3-.07,0,0,.03.03.03.03Z"/>
        <path class="cls-28" d="m233.05,42.54c-.04.17-.19.31-.43.26-.16-.03-.27-.16-.27-.34,0-.25.16-.43.37-.42.21,0,.37.18.33.5Z"/>
        <path class="cls-28" d="m227.05,30.76c-.01.18-.02.35-.04.53-.21.05-.28.22-.34.4-.36-.22-.3-.57-.29-.9.22.12.45.17.66-.02Z"/>
        <path class="cls-28" d="m225.11,31.74c-.02.05-.04.1-.05.15,0,0-.03-.09-.03-.09l.08-.06Z"/>
      </g>
    </g>
    <path class="cls-28" d="m223.06,56.62c.07-.07.14-.16.23-.21,3.92-1.99,7.88-3.88,12.06-5.01.19-.05.39-.13.58-.22.14-.07.25-.17.21-.31-.04-.14-.19-.17-.33-.14-.35.07-.69.15-1.04.26-.69.21-1.37.44-2.06.66-.2.06-.4.12-.58.22l-2.28.9c-.58.14-1.16.45-1.72.72-1.84.86-3.7,1.69-5.43,2.77,0,0-.46.47.37.37Z"/>
    <path class="cls-28" d="m224.75,54.23c.03-.07.05-.15.1-.21,2.22-2.49,4.49-4.93,7.13-6.89.12-.09.24-.2.34-.32.08-.09.13-.19.06-.28-.07-.09-.18-.07-.27,0-.23.14-.45.3-.66.47-.43.34-.85.69-1.27,1.04-.12.1-.25.2-.35.31l-1.36,1.27c-.37.26-.69.64-1.02.99-1.06,1.12-2.15,2.22-3.07,3.47,0,0-.19.46.36.16Z"/>
    <path class="cls-28" d="m216.9,64.12s.01-.1.04-.13c1.32-1.33,2.7-2.61,4.48-3.47.08-.04.15-.1.22-.16.05-.04.07-.11-.01-.19-.08-.08-.16-.09-.23-.06-.16.06-.31.12-.45.2-.28.15-.56.32-.84.48-.08.05-.16.09-.23.15l-.86.63c-.25.11-.44.32-.64.5-.65.59-1.32,1.15-1.82,1.86,0,0-.06.29.34.19Z"/>
    <path class="cls-28" d="m217.14,61.75s.02-.07.05-.09c1.16-.88,2.36-1.71,3.83-2.17.07-.02.13-.06.19-.1.04-.03.06-.08.01-.15-.05-.07-.12-.09-.17-.07-.13.03-.25.06-.37.1-.24.09-.47.18-.7.28-.07.03-.14.05-.19.09l-.73.39c-.21.06-.37.19-.55.31-.56.38-1.14.74-1.61,1.22,0,0-.08.22.24.18Z"/>
    <path class="cls-28" d="m231.84,55.99c1.66-.25,3.38-.51,5.1-.78.49-.08.98-.17,1.47-.28.15-.03.24-.18.25-.31.01-.17-.15-.19-.29-.17-1.62.23-3.25.47-4.87.7-.54.08-1.08.16-1.62.24l-1.38.25c-.89.16-1.77.3-2.66.46-.39.07-.79.16-1.18.26-.21.05-.44.21-.44.37,0,.17.22.2.44.16,1.13-.21,2.27-.41,3.4-.61.24-.04.48-.06.87-.1l.91-.2Z"/>
  </g>
  <g>
    <g>
      <path class="cls-18" d="m199,57.46c-.13-.16-.08-.39-.8-.99-.72-.6-1.38-.89-1.45-1.3s.13-.36.41-.86c.28-.5.8-.75.97-1.44.17-.69,1.29-.11,1.97.3.68.41.27,5-1.1,4.29Z"/>
      <path class="cls-10" d="m198.46,56.71c-.07-.07-.16-.15-.26-.23-.72-.6-1.38-.89-1.45-1.3s.13-.36.41-.86c.09-.17.21-.31.34-.44-.07.16-.13.32-.22.53-.14.35-.04.65.12.85.15.2.51.17.68.02.17-.16.3-.06.13-.33-.16-.27-.33-.35-.2-.45.13-.1.21-.08.32-.16.11-.08.17.04.25-.25.08-.29-.04-.46.08-.7.09-.17.3-.45.39-.72.36.12.75.34,1.05.52.04.02.07.06.1.11.12.31.17.67-.02,1.13-.38.93-.11,1.21-1.01,1.76-.67.41-.44.56-.71.54Z"/>
      <path class="cls-18" d="m199.04,53.76c-.27.63-.37,1.33-.76,1.68-.39.34-.7.99-.89,1.71-.18.72-.34,1.22-.01,1.63s2.33,1.91,2.38,2.41c.04.5.35.96.73,1,.38.05,1.25.1,1.37-.04s-.27-9.22-2.82-8.39Z"/>
      <path class="cls-19" d="m198.88,54.8c.2-.17.13-.34.07-.64-.06-.3-.37-.39,0-.91.37-.52.77-1.21,1.36-1.21s1.22.55,1.73.27c.51-.28,1.67-1.05,2.52-1.02.84.03,1.63.47,1.97.42.34-.05,2.56-.17,2.92.31.37.49.83.91,1,1.49.17.58.03.88.32,1.39.3.52.27.71.76.89.49.19.62-.08.53.25-.08.33-1.94,1.85-2.26,3.2-.32,1.35-.15,2.08-.51,2.51-.35.42-1.31.17-2.63.03-1.32-.14-3.18.14-4.02.24-.84.09-1.07.33-1.5-.13-.44-.45-1.59-2.15-2.12-2.37-.53-.22-.97-.81-.93-1,.04-.19.07-.69.2-.64.13.05.18.31.52.58s.55.5.87.64c.32.14.73.2.63.16-.1-.05-.46-.33-.75-.6-.28-.27-.28-.45-.66-.91-.38-.45-.51-.53-.44-.83.07-.3.2-.71.24-1,.04-.3-.31-.49.17-1.13Z"/>
      <path class="cls-18" d="m204.03,51.35c.18-.05.36-.07.53-.06.84.03,1.63.47,1.97.42.34-.05,2.56-.17,2.92.31.37.49.83.91,1,1.49.17.58.03.88.32,1.39.3.52.27.71.76.89.48.18.61-.07.54.23-.31.36-.86.64-1.13.82-.41.27-1.17,1.3-1.72,2.26-.55.96-.44.91-.62,1.19-.18.28-1.32.28-1.9.28s-1.52.33-2.07.33-.31-.45.14-.55c.45-.09.51-.44,1.34-.63.83-.19,1.22-.27,1.62-.3.39-.03.13-.38.15-1.47.03-1.1.37-.77,1.18-1.3.82-.53.7-.33.82-1.07.11-.74.03-1.86-.17-2.21-.2-.34-.97-.52-1.86-.38-.89.14-1.04-.17-1.73-.44-.69-.27-.86.44-1.18.74-.32.3-.06.72-.18,1.33-.13.61.34.6.9,1.19s.41,1.08.51,1.5c.1.42-.31.55-1.1.41-.79-.14-1.72-.2-2.02-.49-.31-.28.1-.55.1-1.33s-.2-1.08-.27-1.32c-.07-.24-.37-.61-.51-.96-.14-.34-.04-.74.28-1.13.25-.3.91-.82,1.37-1.17Z"/>
      <path class="cls-10" d="m206.5,51.71s.02,0,.03,0c.34-.05,2.56-.17,2.92.31.24.32.52.6.73.93-.23-.21-.56-.36-.88-.54-.53-.31-1.2-.27-1.43-.19-.24.08-.44.09-.72.03s-.06-.19-.13-.33c-.03-.06-.28-.14-.53-.21h0Zm3.95,1.8c.17.58.03.88.32,1.39.17.29.23.48.34.62-.03.27-.08.5-.11.69-.04.33-.22.33-.49.61-.27.28-.69.55-.9.72-.21.17-.48.91-.66,1.05s-.01-.25.22-1.05c.24-.8.37-.56.9-.8.53-.24.37-.52.52-1.07.15-.55-.14-1.6-.15-2.17Z"/>
      <path class="cls-10" d="m203.87,51.91c-.35.45-.96.96-.94,1.39.01.44.35,1.05.55,1.25.2.2.45.33.39.69s-.21.67-.28,1.11c-.07.44-.27.41.07.69.34.28,1.14.39,1.45.49.31.09.77.19.79.02.01-.17,0-.19-.38-.28-.38-.09-.97.11-.94-.6s.21-.53.06-1.07c-.15-.53.03-.89-.37-1.11-.39-.22-.65-.27-.79-.74-.14-.47-.23-1.13.39-1.85Z"/>
      <path class="cls-19" d="m205.31,54.64c-.13-.36-.25-.61.03-1.13.28-.52.67-.53.84-.33.17.2.58.17.69.58.11.41-.07.52-.1,1.02-.03.5.11.85.52.89.41.05.45-.19.58-.63.13-.44.22-1.13.53-1.29.31-.16.38-.49.63.03.25.52.62,1.07.28,1.54-.34.47-.32.75-.87.97s-.72-.03-.86.61c-.14.64.07,1.25-.24,1.54-.31.28-.45.94-.55-.03-.1-.97.04-1.44-.38-1.94-.42-.5-.59-1.39-1.11-1.83Z"/>
      <path class="cls-20" d="m208.22,55.53c.17-.34.17-.89.34-1.19.17-.3.42-.22.48.13.06.34.03.8-.17.99-.2.19-.3.5-.56.52-.27.02-.52-.08-.63.17-.11.25-.37-.46.55-.61Z"/>
      <path class="cls-19" d="m199.02,55.76c.44-.58.53-.8.53-1.25s-.19-.53.03-1.02c.22-.49.2-.89.62-.99.42-.09,1.17.08,1.21.55.04.47.52,1.69.46,2.24-.06.55-.45.86-.08,1.6.37.74.3.94,1.18,1.08.89.14,2.1-.2,2.56.42.46.63-.22,1.32-.67,1.33-.45.02-1.1,0-1.48.44s-.48.83-.18.96c.3.13,1.31.14,1.77.03.46-.11,1.31-.42,1.93-.24.62.19,1.36.33,1.6.11.24-.22.42-1.21.76-1.49s.11.63,0,1.25c-.11.63.08.69-.62.85-.7.16-1.25-.03-2.24-.05-.98-.02-2.22.05-3,.11-.77.06-1.07.36-1.53-.08-.46-.44-.89-.55-1.38-1.05-.49-.5-1.62-1.46-1.27-1.32.35.14,1.36.72,1.45.41s.23-.56-.21-.97c-.44-.41-1.03-.69-1.07-.92-.04-.24-.22-.71-.22-1.07s1.3-.22,1.59-.5c.29-.29.62-.74.11-.81-.51-.07-.87-.02-1.07.18-.2.2-.89.42-.79.19Z"/>
      <path class="cls-20" d="m201.48,56.7c.07.37.26,1.04.53,1.23.27.19.6.38.85.38s1.34-.08,1.69.04c.36.12.4.75.32.81-.08.06-.57.32-1.1.33-.53,0-.7.06-.94.67-.24.61-.25.74.01.94.27.2.08.31-.27.34-.35.03-.55-.24-.59-.67-.04-.44.13-.81.3-1.16.17-.34.51-.31.03-.55-.48-.24-.7-.09-.82-.55-.11-.45-.06-.31-.2-.8-.14-.49,0-1.77.18-1.02Z"/>
      <path class="cls-20" d="m199.75,55.18c.11-.41.09-.37.13-.83.04-.46.14-.91.39-1.27.25-.36.52-.6.63.14.11.74.69,1.38.51,1.57-.18.19-.16.3-.58.06-.41-.23-.48-1.14-1.08.33Z"/>
      <path class="cls-19" d="m198.43,55.67c-.03.52-.16.47-.23.81-.07.34.06.45.13.67.07.22.21.31.35.53.14.22.04.26.22.45.18.2.63.49.44.49-.18,0-.41-.24-.67-.48-.25-.24-.15-.38-.42-.37-.27.02-.55.19-.4.67.15.49.23.61.45.76.22.15,1.31,1.02,1.49,1.38s.54.64.64.87c.1.23.13.48-.14.2-.27-.28-.63-.92-.77-1.07s-.99-.88-1.24-1.1c-.25-.23-.64-.35-.79-.92-.15-.56-.12-1.09.15-1.39s.27-.18.28-.53c.01-.35.46-1.21.48-.97Z"/>
    </g>
    <path class="cls-1" d="m212.08,55.96s.01-.05,0-.06c0-.01-.03-.02-.05-.02-.02,0-.05,0-.08,0-.04,0-.07,0-.12,0-.08,0-.18-.03-.3-.07-.23-.09-.35-.18-.44-.31-.04-.05-.07-.11-.11-.18-.06-.11-.12-.24-.22-.41-.3-.52-.15-.81-.32-1.39-.06-.21-.17-.39-.29-.57,0,0,.01,0,.02.01-.02-.04-.05-.07-.08-.1-.08-.11-.16-.22-.24-.32-.14-.17-.28-.33-.41-.5-.37-.49-2.59-.36-2.92-.31s-1.12-.39-1.97-.42c-.15,0-.31.02-.48.06-.02,0-.03,0-.05,0,0,0,0,0-.01,0-.75.19-1.57.72-1.98.95-.51.28-1.14-.27-1.73-.27-.41,0-.73.33-1.01.71-.07-.03-.13-.05-.2-.08-.02,0-.04-.02-.05-.02,0,0,0,0,0,0-.44-.15-.82-.16-.92.22-.11.46-.38.73-.63,1h0s0,0,0,0c-.12.13-.24.27-.33.43-.28.5-.48.45-.41.86.06.32.49.58,1.02.97-.15.3-.28.64-.37,1-.18.72-.34,1.22-.01,1.63.32.41,2.33,1.91,2.38,2.41.04.5.35.96.73,1,.38.05,1.25.1,1.37-.04,0,0,0,0,0,0,.2-.03.44-.09.78-.13.84-.09,2.7-.38,4.02-.24,1.32.14,2.28.39,2.63-.03.35-.42.18-1.16.51-2.51.32-1.35,2.18-2.87,2.26-3.2,0-.01,0-.01,0-.02,0,0,0,0,0,0,0-.04,0-.05,0-.07Z"/>
  </g>
  <g>
    <path class="cls-13" d="m180.3,91.76s-2.5.7-3.31,1.3c-.82.6-5.51,2.78-5.84,3.01-.32.23-1.34,1.07-1.63,1.23-.28.15-.53.47-1.24-.25-.71-.72-1.1-1.56-.98-1.74.12-.18,1.13-.82,1.45-.97.32-.16,3.72-2.26,5.03-2.76s1.9-.74,2.71-1.19c.81-.45,1.95-.88,2.26-1.71.31-.83-.29-1.55.01-2.15.3-.59.31-2.04.13-2.5s-1.02-2.5-1.82-2.92c-.8-.42-1.99-.68-2.88-.46-.89.22-4.38.49-6.4,1-2.02.5-3.09.76-3.51.84-.42.08-1.76.51-1.99.24-.23-.27-.55-2.22-.27-2.61s1.68-.71,2.94-1.17,9.5-3.07,11.4-4.01c1.89-.94,2.39-1.45,3.13-1.72s2.39-.74,3.07-.99,8.76-3.25,9.67-3.69c.91-.43,2.3-1.18,2.63-1.1.33.08,1.4,2.29,1.95,3.26.55.97,2.8,5.66,2.64,6.49-.16.82-.5,1.74-.27,2.37s1.5,1.73,1.65,2.41c.15.68.29,3.92.1,4.2-.19.27-1.16.11-2.27.52s-2.55,1.1-3.99,1.32c-1.44.22-6.63.37-9.34,1.65-2.71,1.29-3.72,1.61-5.03,2.09Z"/>
    <path class="cls-16" d="m200.98,83.6c.06,1.13.07,2.42-.05,2.58-.19.27-1.16.11-2.27.52s-2.55,1.1-3.99,1.32c-.93.14-3.44.25-5.82.66h0s2.66-.58,4.06-1,1.31-.2,2.66-.37c1.35-.17,2.16-.81,2.97-1.19.81-.39,1.32-.82,1.2-1.78-.12-.96-.59-1.47-1.1-2.48-.51-1.02-1.22-1.31-2.15-1.88-.93-.57-1.16-.35-2.79-1.33-1.62-.98-.81-1.84-.96-3.06-.15-1.22-.66-1.19-.68-1.8-.02-.61,1.68.18,2.18.53.5.34.58,1.59.88,2.66.3,1.07,1.12,1.18,1.95,2.2.83,1.02,1.23,1.48,2.05,2,.87.65,1.47,1.53,1.87,2.41Z"/>
    <path class="cls-16" d="m167.37,95.73c-.08-.2-.1-.35-.06-.41.12-.18,1.13-.82,1.45-.97.32-.16,3.72-2.26,5.03-2.76s1.9-.74,2.71-1.19c.81-.45,1.95-.88,2.26-1.71.31-.83-.29-1.55.01-2.15.3-.59.31-2.04.13-2.5s-1.02-2.5-1.82-2.92c-.8-.42-1.99-.68-2.88-.46-.89.22-4.38.49-6.4,1-2.02.5-3.09.76-3.51.84-.42.08-1.76.51-1.99.24-.23-.27-.55-2.22-.27-2.61s1.68-.71,2.94-1.17,9.5-3.07,11.4-4.01c1.89-.94,2.39-1.45,3.13-1.72s2.39-.74,3.07-.99,8.76-3.25,9.67-3.69c.91-.43,2.3-1.18,2.63-1.1.33.08,1.4,2.29,1.95,3.26.55.97,2.8,5.66,2.64,6.49-.16.82-.5,1.74-.27,2.37.05.12.13.27.24.42-.81-.41-1.86-1.19-3.03-2.85-2.12-3-.71-3.21-2.12-4.23s-2.69-.81-5.38.17-1.43.88-2.3,2.21c-.87,1.34-.44,2-1.44,3.17-1,1.18-2.68.46-4.39.93-1.71.47-.42,1.17-1.01,2.2-.6,1.03.34.95.59,2.34.25,1.39.33.9.84,1.79.51.88,2.68.25,4.86.02,2.18-.23,2.72.54,2.96,1.37.24.83-1.77.29-4.2.91-2.43.63-3.57,1.04-5.5,1.43-1.93.39-5.08,2.51-5.08,2.51,0,0-4.69,2.74-6.85,3.76Z"/>
    <path class="cls-15" d="m191.44,68.89c.39-.15.67-.27.8-.33.91-.43,2.3-1.18,2.63-1.1.33.08,1.4,2.29,1.95,3.26.55.97,2.8,5.66,2.64,6.49-.15.79-.48,1.68-.29,2.3-.27-.19-.54-.4-.78-.64-1.11-1.07-1.82-2.38-1.94-3.04-.12-.66,1.65.49,1.86-.2.21-.69-.33-1.31-.89-2.61-.56-1.3-1.54-3.05-2.3-3.96-.76-.9-3.67-.18-3.67-.18h0Z"/>
    <path class="cls-15" d="m176.15,90.58c.11-.06.23-.12.35-.19.81-.45,1.95-.88,2.26-1.71.31-.83-.29-1.55.01-2.15.3-.59.31-2.04.13-2.5s-1.02-2.5-1.82-2.92c-.8-.42-1.99-.68-2.88-.46-.89.22-4.38.49-6.4,1-2.02.5-3.09.76-3.51.84-.04,0-.1.02-.16.03h0s2.92-.97,3.98-1.29c1.07-.32.66-.33,1.64-.64.98-.31,1.27-.14,2.17-.29s1.96,0,2.85-.49c.89-.48,1.59-1.65,2.38-1.95.78-.31-.56.77-.2,1.68.36.91.75,1.18,1.25,1.7.51.52,1.03,1.17,1.13,2.25.1,1.08.37,1.09.15,1.92-.22.83-.72,1.12-.27,1.89.45.77.67,1.14.18,1.52-.49.38-3.16,1.69-3.24,1.73Z"/>
    <path class="cls-21" d="m161.95,80.33c.02-.08.04-.15.08-.2.28-.38,1.68-.71,2.94-1.17,1.14-.41,8.05-2.6,10.72-3.71h0s.01.38-1.13.89c-1.14.52-1.7.77-2.82,1.33-1.12.56-1.65.8-3.2,1.34-1.55.54-2.73.86-3.53,1.08-.54.14-2.11.44-3.06.44Z"/>
    <path class="cls-15" d="m185.09,75.47c-.72.94-.14.89-1.39,1.34s-1.4.42-2.7.82c-1.3.4-2.5,1.2-2.22.65.29-.56.62-1.07,1.39-1.8s-.05-1.09-.74-.84-1.61.9-3.34,1.67c-1.74.77-.75.95-2.89,1.41-2.14.46-5.26,1.86-2.97.71,2.29-1.15,7.27-4.27,9.07-5.2,1.8-.92,2.06-.52,4.98-1.53,2.92-1.01,4.7-2.3,5.93-2.24,1.23.05-1.35,1.04-2.82,2.25-1.46,1.21-6.56,3.7-2.31,2.77Z"/>
    <path class="cls-14" d="m187.54,83.92c-1.4.1-2.66.78-4.05-.03-1.39-.81-3.52-.43-1.59-1.27,1.92-.84,5.07-.26,5.45-1.3.37-1.04-.41-.17.64-3.32,1.05-3.15,1.52-4.55,2.59-3.67,1.07.88,1.24,1.05,1.7,2.61.45,1.56.63,2.68,2.6,3.51,1.97.83,1.91-.29,3.11,1.73,1.19,2.02,1.99,3.09.31,3.57s-2.55,1.24-3.55,1.02-2.85-.06-3.68.34c-.84.39-1.9-3.29-3.52-3.18Z"/>
    <path class="cls-7" d="m195.52,82.3c-.71-.2-1.61-.37-1.89-1.15s-1.54-3.05-2.06-3.3c-.52-.24-1.17-.69-1.4.76-.23,1.44-.23,2.08-.69,2.79-.46.71-.23.24,1.44.95s2.11,2.09,4.06,2.05c1.94-.05,2.12-.68.53-2.1Z"/>
    <path class="cls-6" d="m168.24,96.12c.55.55.94.91,1.47.56s.29-.38,1.44-1.02c1.15-.64,1.74-.68,3.53-1.96,1.78-1.28,1.26-1.55,2.74-1.97,1.49-.43,2.1-.56,2.33-.96s-.21-.97-1.98-.05c-1.77.92-2.2,1.16-3.99,2.04-1.79.88-5.58,2.82-5.55,3.38Z"/>
    <path class="cls-13" d="m162.53,82.25c-.14-.38-.46-1.26-.17-1.44.28-.17.75-.15,1.7-.23.95-.08,1.57-.13,2.7-.47,1.13-.34,1.75-.45.95.03-.8.48-2.36.81-1.96.99.4.18,2.18-.7,1.85-.26-.33.44-3.88,1.66-5.07,1.37Z"/>
    <path class="cls-15" d="m180.89,86.26c.7.5.87.8,1.82.64.95-.16,2.21-.44,3.06-.47.85-.04,1.67-.31,2.17.1.5.41-.7.14-1.46.35-.76.21-.75.07-2.03.53s-1.96.64-2.73.65c-.78,0-.92.65-1.35-.08-.44-.73-.52-2.06-.49-2.93.03-.87.11-.4,1.02,1.22Z"/>
    <path class="cls-7" d="m180.79,82.66c.8-.72.75-1.27,2.03-1.4,1.28-.12,2.05.25,2.79-.26.74-.52,1.03-.83,1.38-2.55.36-1.72.1-1.94.83-2.87.73-.92-.02-1.4-.44-.59-.43.81-.37,1.45-1.14,2.73-.78,1.28-.93,1.65-1.95,1.84-1.03.19-1.33-.09-2.27.42-.94.5-.93.38-1.34,1.08-.41.69-.71.89-.49,1.52s.06,1.68,1.19,2.32c1.12.64,1.77.43,2.67.44.9.01,2.09-.37,1.15-.42-.94-.05-1.04.24-2.52-.52-1.48-.76-2.23-.7-1.87-1.75Z"/>
  </g>
  <path class="cls-1" d="m200.96,85.84s.01-.08.02-.13c0-.03,0-.05,0-.08,0-.05,0-.11.01-.17,0-.03,0-.06,0-.1,0-.08,0-.16,0-.25,0-.02,0-.04,0-.06,0-.11,0-.23,0-.35,0-.04,0-.07,0-.11,0-.09,0-.18,0-.27,0-.04,0-.09,0-.13,0-.09,0-.18,0-.27,0-.05,0-.09,0-.14,0-.1,0-.19-.01-.28,0-.03,0-.05,0-.08,0,0,0,0,0,0-.04-.71-.09-1.35-.15-1.61-.12-.56-1-1.4-1.43-2.03-.1-.14-.18-.27-.22-.38-.04-.1-.04-.23-.05-.34,0-.07-.02-.14-.02-.21,0-.12.02-.25.04-.38.01-.07.01-.14.03-.21.03-.16.07-.32.11-.48.06-.25.12-.5.17-.74.16-.82-2.1-5.51-2.64-6.49s-1.62-3.18-1.95-3.26c-.33-.08-1.72.66-2.63,1.1-.06.03-.16.07-.29.12-.04.02-.09.04-.13.05-.1.04-.2.08-.33.13-2.24.89-8.33,3.16-8.92,3.37-.69.25-2.33.72-3.07.99-.74.27-1.24.78-3.13,1.72-.21.1-.5.23-.84.37-.09.03-.17.07-.26.11-.11.04-.23.09-.35.14-.1.04-.19.07-.3.11-.13.05-.27.1-.41.15-.11.04-.21.08-.32.12-.15.06-.32.11-.48.17-.1.04-.21.07-.31.11-.19.07-.39.14-.59.2-.15.05-.3.11-.46.16-.22.07-.43.15-.65.22-.11.04-.22.08-.33.11-.18.06-.37.12-.55.19-.12.04-.24.08-.37.12-.18.06-.36.12-.53.18-.11.04-.21.07-.32.11-.18.06-.36.12-.54.18-.13.04-.26.09-.39.13-.17.05-.33.11-.49.16-.06.02-.12.04-.18.06-.25.08-.49.16-.72.24-.13.04-.26.08-.38.13-.12.04-.24.08-.35.11-.11.04-.2.07-.3.1-.08.03-.16.05-.23.08-.11.04-.21.07-.3.1-.04.02-.1.03-.14.05-.12.04-.23.08-.3.11-1.26.46-2.66.79-2.94,1.17-.03.05-.06.11-.08.2,0,0,0,0,0,0-.13.62.14,2.17.34,2.41.23.27,1.56-.16,1.99-.24s1.5-.34,3.51-.84c2.02-.5,5.51-.78,6.4-1,.89-.22,2.08.03,2.88.46.8.42,1.64,2.47,1.82,2.92.18.46.17,1.9-.13,2.5-.3.59.3,1.32-.01,2.15-.31.83-1.45,1.27-2.26,1.71-.11.06-.21.12-.32.17-.66.35-1.26.58-2.39,1.02-1.31.5-4.7,2.6-5.03,2.76-.32.16-1.33.79-1.45.97-.03.04-.02.12,0,.22,0,.03.02.06.03.09.01.04.01.06.03.11,0,0,0,0,.01,0,.14.36.45.86.91,1.33.71.72.95.4,1.24.25.28-.15,1.31-1,1.63-1.23s5.02-2.41,5.84-3.01c.82-.6,3.31-1.3,3.31-1.3,1.31-.48,2.32-.8,5.03-2.09.98-.47,2.29-.78,3.62-1.01.23-.04.46-.07.69-.11.04,0,.08-.01.12-.02.27-.04.54-.07.81-.11.08,0,.16-.02.23-.03.19-.02.38-.04.57-.06.08,0,.16-.02.25-.03.19-.02.37-.04.55-.05.06,0,.13-.01.19-.02.23-.02.44-.04.65-.06.2-.02.38-.03.56-.05.07,0,.13-.01.19-.02.13-.01.25-.02.37-.04.05,0,.1-.01.15-.02.15-.02.28-.03.39-.05,1.44-.22,2.87-.91,3.99-1.32,1.12-.4,2.08-.24,2.27-.52.01-.02.03-.06.04-.1,0-.02,0-.04,0-.05Z"/>
  <g>
    <g>
      <path class="cls-18" d="m173.13,92.22c-.13-.16-.08-.39-.8-.99-.72-.6-1.38-.89-1.45-1.3s.13-.36.41-.86c.28-.5.8-.75.97-1.44.17-.69,1.29-.11,1.97.3.68.41.27,5-1.1,4.29Z"/>
      <path class="cls-10" d="m172.6,91.47c-.07-.07-.16-.15-.26-.23-.72-.6-1.38-.89-1.45-1.3s.13-.36.41-.86c.09-.17.21-.31.34-.44-.07.16-.13.32-.22.53-.14.35-.04.65.12.85.15.2.51.17.68.02.17-.16.3-.06.13-.33-.16-.27-.33-.35-.2-.45.13-.1.21-.08.32-.16.11-.08.17.04.25-.25.08-.29-.04-.46.08-.7.09-.17.3-.45.39-.72.36.12.75.34,1.05.52.04.02.07.06.1.11.12.31.17.67-.02,1.13-.38.93-.11,1.21-1.01,1.76-.67.41-.44.56-.71.54Z"/>
      <path class="cls-18" d="m173.18,88.52c-.27.63-.37,1.33-.76,1.68-.39.34-.7.99-.89,1.71-.18.72-.34,1.22-.01,1.63s2.33,1.91,2.38,2.41c.04.5.35.96.73,1,.38.05,1.25.1,1.37-.04s-.27-9.22-2.82-8.39Z"/>
      <path class="cls-19" d="m173.01,89.56c.2-.17.13-.34.07-.64-.06-.3-.37-.39,0-.91.37-.52.77-1.21,1.36-1.21s1.22.55,1.73.27c.51-.28,1.67-1.05,2.52-1.02.84.03,1.63.47,1.97.42.34-.05,2.56-.17,2.92.31.37.49.83.91,1,1.49.17.58.03.88.32,1.39.3.52.27.71.76.89.49.19.62-.08.53.25-.08.33-1.94,1.85-2.26,3.2-.32,1.35-.15,2.08-.51,2.51-.35.42-1.31.17-2.63.03-1.32-.14-3.18.14-4.02.24-.84.09-1.07.33-1.5-.13-.44-.45-1.59-2.15-2.12-2.37-.53-.22-.97-.81-.93-1,.04-.19.07-.69.2-.64.13.05.18.31.52.58s.55.5.87.64c.32.14.73.2.63.16-.1-.05-.46-.33-.75-.6-.28-.27-.28-.45-.66-.91-.38-.45-.51-.53-.44-.83.07-.3.2-.71.24-1,.04-.3-.31-.49.17-1.13Z"/>
      <path class="cls-18" d="m178.16,86.11c.18-.05.36-.07.53-.06.84.03,1.63.47,1.97.42.34-.05,2.56-.17,2.92.31.37.49.83.91,1,1.49.17.58.03.88.32,1.39.3.52.27.71.76.89.48.18.61-.07.54.23-.31.36-.86.64-1.13.82-.41.27-1.17,1.3-1.72,2.26-.55.96-.44.91-.62,1.19-.18.28-1.32.28-1.9.28s-1.52.33-2.07.33-.31-.45.14-.55c.45-.09.51-.44,1.34-.63.83-.19,1.22-.27,1.62-.3.39-.03.13-.38.15-1.47.03-1.1.37-.77,1.18-1.3.82-.53.7-.33.82-1.07.11-.74.03-1.86-.17-2.21-.2-.34-.97-.52-1.86-.38-.89.14-1.04-.17-1.73-.44-.69-.27-.86.44-1.18.74-.32.3-.06.72-.18,1.33-.13.61.34.6.9,1.19s.41,1.08.51,1.5c.1.42-.31.55-1.1.41-.79-.14-1.72-.2-2.02-.49-.31-.28.1-.55.1-1.33s-.2-1.08-.27-1.32c-.07-.24-.37-.61-.51-.96-.14-.34-.04-.74.28-1.13.25-.3.91-.82,1.37-1.17Z"/>
      <path class="cls-10" d="m180.63,86.47s.02,0,.03,0c.34-.05,2.56-.17,2.92.31.24.32.52.6.73.93-.23-.21-.56-.36-.88-.54-.53-.31-1.2-.27-1.43-.19-.24.08-.44.09-.72.03s-.06-.19-.13-.33c-.03-.06-.28-.14-.53-.21h0Zm3.95,1.8c.17.58.03.88.32,1.39.17.29.23.48.34.62-.03.27-.08.5-.11.69-.04.33-.22.33-.49.61-.27.28-.69.55-.9.72-.21.17-.48.91-.66,1.05s-.01-.25.22-1.05c.24-.8.37-.56.9-.8.53-.24.37-.52.52-1.07.15-.55-.14-1.6-.15-2.17Z"/>
      <path class="cls-10" d="m178,86.67c-.35.45-.96.96-.94,1.39.01.44.35,1.05.55,1.25.2.2.45.33.39.69s-.21.67-.28,1.11c-.07.44-.27.41.07.69.34.28,1.14.39,1.45.49.31.09.77.19.79.02.01-.17,0-.19-.38-.28-.38-.09-.97.11-.94-.6s.21-.53.06-1.07c-.15-.53.03-.89-.37-1.11-.39-.22-.65-.27-.79-.74-.14-.47-.23-1.13.39-1.85Z"/>
      <path class="cls-19" d="m179.44,89.4c-.13-.36-.25-.61.03-1.13.28-.52.67-.53.84-.33.17.2.58.17.69.58.11.41-.07.52-.1,1.02-.03.5.11.85.52.89.41.05.45-.19.58-.63.13-.44.22-1.13.53-1.29.31-.16.38-.49.63.03.25.52.62,1.07.28,1.54-.34.47-.32.75-.87.97s-.72-.03-.86.61c-.14.64.07,1.25-.24,1.54-.31.28-.45.94-.55-.03-.1-.97.04-1.44-.38-1.94-.42-.5-.59-1.39-1.11-1.83Z"/>
      <path class="cls-20" d="m182.35,90.28c.17-.34.17-.89.34-1.19.17-.3.42-.22.48.13.06.34.03.8-.17.99-.2.19-.3.5-.56.52-.27.02-.52-.08-.63.17-.11.25-.37-.46.55-.61Z"/>
      <path class="cls-19" d="m173.16,90.52c.44-.58.53-.8.53-1.25s-.19-.53.03-1.02c.22-.49.2-.89.62-.99.42-.09,1.17.08,1.21.55.04.47.52,1.69.46,2.24-.06.55-.45.86-.08,1.6.37.74.3.94,1.18,1.08.89.14,2.1-.2,2.56.42.46.63-.22,1.32-.67,1.33-.45.02-1.1,0-1.48.44s-.48.83-.18.96c.3.13,1.31.14,1.77.03.46-.11,1.31-.42,1.93-.24.62.19,1.36.33,1.6.11.24-.22.42-1.21.76-1.49s.11.63,0,1.25c-.11.63.08.69-.62.85-.7.16-1.25-.03-2.24-.05-.98-.02-2.22.05-3,.11-.77.06-1.07.36-1.53-.08-.46-.44-.89-.55-1.38-1.05-.49-.5-1.62-1.46-1.27-1.32.35.14,1.36.72,1.45.41s.23-.56-.21-.97c-.44-.41-1.03-.69-1.07-.92-.04-.24-.22-.71-.22-1.07s1.3-.22,1.59-.5c.29-.29.62-.74.11-.81-.51-.07-.87-.02-1.07.18-.2.2-.89.42-.79.19Z"/>
      <path class="cls-20" d="m175.61,91.46c.07.37.26,1.04.53,1.23.27.19.6.38.85.38s1.34-.08,1.69.04c.36.12.4.75.32.81-.08.06-.57.32-1.1.33-.53,0-.7.06-.94.67-.24.61-.25.74.01.94.27.2.08.31-.27.34-.35.03-.55-.24-.59-.67-.04-.44.13-.81.3-1.16.17-.34.51-.31.03-.55-.48-.24-.7-.09-.82-.55-.11-.45-.06-.31-.2-.8-.14-.49,0-1.77.18-1.02Z"/>
      <path class="cls-20" d="m173.88,89.94c.11-.41.09-.37.13-.83.04-.46.14-.91.39-1.27.25-.36.52-.6.63.14.11.74.69,1.38.51,1.57-.18.19-.16.3-.58.06-.41-.23-.48-1.14-1.08.33Z"/>
      <path class="cls-19" d="m172.56,90.43c-.03.52-.16.47-.23.81-.07.34.06.45.13.67.07.22.21.31.35.53.14.22.04.26.22.45.18.2.63.49.44.49-.18,0-.41-.24-.67-.48-.25-.24-.15-.38-.42-.37-.27.02-.55.19-.4.67.15.49.23.61.45.76.22.15,1.31,1.02,1.49,1.38s.54.64.64.87c.1.23.13.48-.14.2-.27-.28-.63-.92-.77-1.07s-.99-.88-1.24-1.1c-.25-.23-.64-.35-.79-.92-.15-.56-.12-1.09.15-1.39s.27-.18.28-.53c.01-.35.46-1.21.48-.97Z"/>
    </g>
    <path class="cls-1" d="m186.21,90.72s.01-.05,0-.06c0-.01-.03-.02-.05-.02-.02,0-.05,0-.08,0-.04,0-.07,0-.12,0-.08,0-.18-.03-.3-.07-.23-.09-.35-.18-.44-.31-.04-.05-.07-.11-.11-.18-.06-.11-.12-.24-.22-.41-.3-.52-.15-.81-.32-1.39-.06-.21-.17-.39-.29-.57,0,0,.01,0,.02.01-.02-.04-.05-.07-.08-.1-.08-.11-.16-.22-.24-.32-.14-.17-.28-.33-.41-.5-.37-.49-2.59-.36-2.92-.31s-1.12-.39-1.97-.42c-.15,0-.31.02-.48.06-.02,0-.03,0-.05,0,0,0,0,0-.01,0-.75.19-1.57.72-1.98.95-.51.28-1.14-.27-1.73-.27-.41,0-.73.33-1.01.71-.07-.03-.13-.05-.2-.08-.02,0-.04-.02-.05-.02,0,0,0,0,0,0-.44-.15-.82-.16-.92.22-.11.46-.38.73-.63,1h0s0,0,0,0c-.12.13-.24.27-.33.43-.28.5-.48.45-.41.86.06.32.49.58,1.02.97-.15.3-.28.64-.37,1-.18.72-.34,1.22-.01,1.63.32.41,2.33,1.91,2.38,2.41.04.5.35.96.73,1,.38.05,1.25.1,1.37-.04,0,0,0,0,0,0,.2-.03.44-.09.78-.13.84-.09,2.7-.38,4.02-.24,1.32.14,2.28.39,2.63-.03.35-.42.18-1.16.51-2.51.32-1.35,2.18-2.87,2.26-3.2,0-.01,0-.01,0-.02,0,0,0,0,0,0,0-.04,0-.05,0-.07Z"/>
  </g>
  <g>
    <path class="cls-18" d="m156.36,87.98c-.08-.07-.06-.19-.52-.47-.47-.28-.9-.43-.95-.62s.08-.17.27-.41c.18-.24.52-.36.63-.69.11-.33.85-.05,1.29.14.44.19.17,2.39-.72,2.05Z"/>
    <path class="cls-10" d="m156.01,87.62s-.11-.07-.17-.11c-.47-.28-.9-.43-.95-.62s.08-.17.27-.41c.06-.08.14-.15.22-.21-.04.08-.09.15-.14.25-.09.17-.02.31.08.4.1.09.34.08.45,0,.11-.07.19-.03.09-.16-.11-.13-.22-.17-.13-.22.09-.05.14-.04.21-.07.07-.04.11.02.16-.12.05-.14-.03-.22.05-.33.06-.08.2-.22.25-.35.23.06.49.16.69.25.02.01.05.03.07.05.08.15.11.32-.01.54-.25.44-.07.58-.66.84-.44.2-.29.27-.46.26Z"/>
    <path class="cls-18" d="m156.39,86.22c-.17.3-.24.64-.5.8-.26.16-.46.47-.58.82-.12.34-.22.58,0,.78s1.53.91,1.55,1.15c.03.24.23.46.48.48.25.02.82.05.9-.02s-.18-4.4-1.84-4.01Z"/>
    <path class="cls-19" d="m156.28,86.71c.13-.08.08-.16.05-.31-.04-.14-.24-.19,0-.43.24-.25.51-.58.89-.58s.8.26,1.13.13c.33-.13,1.09-.5,1.65-.49.55.01,1.07.22,1.29.2.22-.02,1.67-.08,1.91.15.24.23.54.43.65.71.11.28.02.42.21.67.19.25.17.34.5.43.32.09.4-.04.35.12-.06.16-1.27.88-1.48,1.53-.21.64-.1,1-.33,1.2-.23.2-.86.08-1.72.01-.86-.07-2.08.07-2.63.11-.55.04-.7.16-.98-.06-.28-.22-1.04-1.03-1.39-1.13-.35-.1-.63-.39-.61-.48.03-.09.05-.33.13-.31.08.02.12.15.34.28s.36.24.57.31c.21.07.48.1.41.07-.06-.02-.3-.16-.49-.28-.18-.13-.18-.22-.43-.43-.25-.22-.33-.25-.29-.4.05-.14.13-.34.16-.48.03-.14-.2-.23.11-.54Z"/>
    <path class="cls-18" d="m159.65,85.06c.12-.02.24-.03.35-.03.55.01,1.07.22,1.29.2.22-.02,1.67-.08,1.91.15.24.23.54.43.65.71.11.28.02.42.21.67.19.25.17.34.5.43.31.09.4-.03.35.11-.2.17-.56.31-.74.39-.27.13-.76.62-1.12,1.08-.36.46-.29.43-.4.57-.12.13-.86.13-1.24.13s-.99.16-1.35.16-.2-.22.09-.26c.29-.04.33-.21.87-.3.54-.09.8-.13,1.06-.14.26-.01.08-.18.1-.7.02-.52.24-.37.77-.62.53-.25.46-.16.53-.51.07-.35.02-.89-.11-1.06-.13-.16-.63-.25-1.21-.18-.58.07-.68-.08-1.13-.21-.45-.13-.56.21-.77.35-.21.14-.04.34-.12.64-.08.29.22.28.59.57s.27.52.33.72c.06.2-.2.26-.72.19-.51-.07-1.12-.1-1.32-.23-.2-.13.06-.26.06-.64s-.13-.52-.17-.63c-.05-.11-.24-.29-.33-.46-.09-.16-.03-.35.18-.54.16-.14.59-.39.9-.56Z"/>
    <path class="cls-10" d="m161.26,85.24s.01,0,.02,0c.22-.02,1.67-.08,1.91.15.16.15.34.29.48.44-.15-.1-.37-.17-.57-.26-.35-.15-.78-.13-.94-.09-.16.04-.28.04-.47.01s-.04-.09-.08-.16c-.02-.03-.18-.07-.35-.1h0Zm2.58.86c.11.28.02.42.21.67.11.14.15.23.22.29-.02.13-.05.24-.07.33-.03.16-.15.16-.32.29-.17.13-.45.26-.59.34-.14.08-.31.43-.43.5s0-.12.15-.5c.16-.38.24-.27.59-.38.35-.11.24-.25.34-.51.1-.26-.09-.76-.1-1.04Z"/>
    <path class="cls-10" d="m159.54,85.33c-.23.22-.63.46-.62.67,0,.21.23.5.36.6.13.1.29.16.26.33s-.14.32-.18.53c-.05.21-.17.19.05.33.22.13.74.19.95.23.2.04.51.09.51,0,0-.08,0-.09-.25-.13-.25-.04-.63.05-.62-.28s.14-.25.04-.51c-.1-.25.02-.43-.24-.53-.26-.1-.42-.13-.51-.35-.09-.22-.15-.54.26-.88Z"/>
    <path class="cls-19" d="m160.49,86.63c-.08-.17-.17-.29.02-.54.18-.25.44-.25.55-.16.11.1.38.08.45.28.07.19-.05.25-.06.49-.02.24.07.4.34.43.27.02.29-.09.38-.3.08-.21.15-.54.35-.61.2-.07.25-.23.41.01.17.25.4.51.18.73-.22.22-.21.36-.57.46s-.47-.01-.56.29c-.09.31.05.6-.16.73-.2.13-.29.45-.36-.01-.06-.46.03-.69-.25-.93-.28-.24-.39-.67-.73-.88Z"/>
    <path class="cls-20" d="m162.38,87.06c.11-.16.11-.43.22-.57.11-.14.28-.1.31.06.04.16.02.38-.11.47-.13.09-.19.24-.37.25-.17,0-.34-.04-.41.08-.07.12-.24-.22.36-.29Z"/>
    <path class="cls-19" d="m156.37,87.17c.29-.28.35-.38.35-.6s-.13-.25.02-.49c.14-.23.13-.43.4-.47.28-.04.76.04.79.26.03.22.34.81.3,1.07-.04.26-.29.41-.06.76.24.35.19.45.77.52.58.07,1.37-.1,1.67.2.3.3-.15.63-.44.64-.29,0-.72,0-.97.21s-.31.4-.12.46c.19.06.86.07,1.16.01.3-.05.86-.2,1.26-.11.4.09.89.16,1.05.05.16-.1.28-.58.5-.71s.07.3,0,.6c-.07.3.06.33-.4.4-.46.07-.82-.01-1.46-.02-.64,0-1.45.02-1.96.05-.51.03-.7.17-1-.04-.3-.21-.58-.26-.9-.5-.32-.24-1.06-.7-.83-.63.23.07.89.34.95.19s.15-.27-.14-.46c-.29-.19-.68-.33-.7-.44-.02-.11-.15-.34-.15-.51s.85-.1,1.04-.24c.19-.14.41-.35.07-.39-.33-.03-.57-.01-.7.09-.13.1-.58.2-.51.09Z"/>
    <path class="cls-20" d="m157.98,87.62c.05.18.17.5.34.59.17.09.4.18.56.18s.87-.04,1.11.02c.23.06.26.36.21.39-.05.03-.37.15-.72.16-.35,0-.46.03-.62.32-.16.29-.17.35,0,.45.17.1.06.15-.17.16-.23.01-.36-.11-.39-.32-.03-.21.08-.39.19-.55.11-.16.33-.15.02-.26-.31-.11-.46-.04-.53-.26-.07-.22-.04-.15-.13-.38-.09-.23,0-.85.12-.49Z"/>
    <path class="cls-20" d="m156.85,86.89c.07-.19.06-.18.08-.4.03-.22.09-.43.26-.61.17-.17.34-.28.41.07.07.35.45.66.33.75-.12.09-.11.14-.38.03-.27-.11-.31-.54-.71.16Z"/>
    <path class="cls-19" d="m155.98,87.13c-.02.25-.1.23-.15.39-.05.16.04.22.09.32.05.1.14.15.23.25.09.1.03.12.15.22.12.09.41.23.29.24-.12,0-.27-.12-.44-.23-.17-.11-.1-.18-.28-.18-.17,0-.36.09-.26.32.1.23.15.29.29.36.14.07.86.49.97.66s.35.31.42.42c.06.11.08.23-.09.09-.17-.13-.41-.44-.5-.51s-.65-.42-.81-.53c-.16-.11-.42-.17-.51-.44-.1-.27-.08-.52.1-.66s.17-.09.18-.25c0-.17.3-.58.31-.46Z"/>
  </g>
  <path class="cls-1" d="m163.66,85.82c.08.09.19.48.23.58.11.28-.03.12.17.36.06.08.1.14.14.19.02.03.04.06.07.09.06.06.13.1.29.15.08.02.14.03.2.03.03,0,.06,0,.08,0,.02,0,.04,0,.06,0,.01,0,.03,0,.03,0,0,0,0,.02,0,.03,0,.01,0,.01,0,.03,0,0,0,0,0,0,0,0,0,0,0,0-.06.16-1.27.88-1.48,1.53-.21.64-.1,1-.33,1.2-.23.2-.86.08-1.72.01-.86-.07-2.08.07-2.63.11-.23.02-.38.05-.51.06,0,0,0,0,0,0-.08.07-.65.04-.89.02-.25-.02-.45-.24-.48-.48-.03-.24-1.34-.96-1.55-1.15-.21-.19-.11-.43,0-.78.06-.17.14-.34.24-.48-.35-.19-.63-.31-.66-.46-.05-.19.08-.17.27-.41.06-.08.14-.14.22-.21,0,0,0,0,0,0h0c.16-.13.34-.26.41-.48.06-.18.31-.18.6-.11,0,0,0,0,0,0,.01,0,.02,0,.03.01.04.01.09.02.13.04.18-.18.39-.34.66-.34.39,0,.8.26,1.13.13.26-.11.8-.36,1.29-.45,0,0,0,0,0,0,.01,0,.02,0,.03,0,.11-.02.21-.03.31-.03.55.01,1.07.22,1.29.2s1.67-.08,1.91.15c.08.08.18.16.27.24.06.05.11.1.16.15l.04.04Z"/>
  <g>
    <path class="cls-24" d="m233.91,52.97l-2.75,35.75c-.2,2.55-2.49,4.52-5.25,4.52h-25.47c-2.52,0-4.63-1.76-4.88-4.08l-4.07-36.97s5.54,4.74,21.24,3.98c11.71.02,18.43-2.63,20.52-3.61.32-.15.68.08.66.41Z"/>
    <path class="cls-29" d="m233.55,53.02c-.55,7.11-1.09,14.22-1.64,21.33l-.94,12.23c-.06.72-.09,1.45-.17,2.18-.3,2.78-2.59,4.27-5.23,4.29-7.99.06-15.97,0-23.96,0-2.06,0-4.14-.43-5.22-2.44-.48-.89-.52-1.89-.62-2.87l-1.22-11.07-1.62-14.69-.65-5.92c-.12-1.13-.13-2.37-.38-3.48-.04-.15-.04-.32-.05-.48l-.7.23c2.45,2.07,6.26,2.88,9.31,3.41,4.35.76,8.68.67,13.08.62s8.52-.44,12.68-1.36c1.49-.33,2.96-.73,4.41-1.22.55-.19,1.11-.39,1.65-.61.38-.16,1.1-.69,1.28-.11.07.23.79.03.72-.19-.29-.94-1.26-.39-1.89-.12-1,.43-2.03.78-3.08,1.1-3.72,1.12-7.6,1.71-11.48,1.97-7.54.51-15.89.8-23.03-2.15-1.01-.42-2.12-.9-2.97-1.62-.15-.13-.73-.02-.7.23.81,7.35,1.62,14.7,2.43,22.05.46,4.21.93,8.41,1.39,12.62.08.76.14,1.53.25,2.28.38,2.6,2.64,4.12,5.15,4.18,7.97.19,15.96,0,23.93,0,1.3,0,2.57.05,3.81-.44,1.98-.78,3.27-2.46,3.46-4.57.27-3.15.48-6.31.73-9.47.65-8.5,1.31-17.01,1.96-25.51l.04-.53c.02-.27-.7-.12-.72.1Z"/>
  </g>
  <g>
    <path class="cls-27" d="m212.7,60.14c10.51,0,21.03-1.54,21.03-4.61l-.02-1.08c0,.7-1.72,2.26-6.05,3.14-3.98.81-9.29,1.25-14.93,1.25s-10.95-.44-14.93-1.25c-4.33-.88-6.08-2.45-6.08-3.14l.19,1.89c.23,2.23,10.28,3.8,20.79,3.8Z"/>
    <path class="cls-29" d="m212.68,60.42c5.45-.01,11.11-.21,16.41-1.58,1.43-.37,3.07-.83,4.21-1.83.84-.75.81-1.52.79-2.57,0-.39-.71-.3-.74.05-.08.93-1.77,1.6-2.45,1.88-1.82.77-3.8,1.11-5.75,1.4-4.18.62-8.42.82-12.63.81s-8.58-.24-12.81-.92c-1.84-.3-3.69-.66-5.39-1.44-.66-.3-2.16-.96-2.23-1.85l-.72.19c.09.88-.03,1.99.63,2.66.96.97,2.62,1.33,3.89,1.64,5.44,1.35,11.22,1.56,16.79,1.57.42,0,.55-.56.06-.56-5.22-.01-10.56-.25-15.68-1.35-1.37-.29-3.17-.62-4.29-1.54-.74-.61-.59-1.73-.68-2.61-.04-.35-.76-.17-.72.19.14,1.59,3.2,2.48,4.35,2.83,3.4,1.02,7.06,1.33,10.58,1.55,4.01.25,8.05.27,12.06.04,3.49-.19,7.08-.5,10.48-1.37,1.36-.35,5.09-1.28,5.25-3.18l-.74.05c.02,1.09.06,1.78-.92,2.46-1.37.96-3.2,1.34-4.81,1.68-4.87,1.02-9.93,1.23-14.89,1.24-.42,0-.55.56-.06.56Z"/>
  </g>
  <g>
    <path class="cls-12" d="m189.02,79.43c0-.36.24-.64.56-.91.32-.28,2.85-1.14,3.33-1.32.48-.18,2.02.48,5.71.91,3.69.43,8.21.64,9.28.84,1.07.2,1.86.33,1.98.61.12.28,2.34,8.31,3.05,11.76.71,3.46.16,6,.16,6.51s.48,1.32-.32,1.42c-.79.1-8.64-.2-13.48-.2s-8.8.2-9.44.2-.24.05-3.09-.56c-2.85-.61-3.29-.93-2.89-1.59.4-.66,2.82-11.77,3.05-12.79.24-1.02,2.1-4.88,2.1-4.88Z"/>
    <path class="cls-9" d="m210.86,83.1c.72,2.68,1.65,6.22,2.06,8.23.71,3.46.16,6,.16,6.51s.48,1.32-.32,1.42c-.1.01-.32.02-.62.02-.48-.53-1-1.24-1.15-1.98-.32-1.52-3.09-4.42-3.57-6.61-.48-2.19-.48-4.32-.79-5.39-.32-1.07-2.3-3.71-3.97-3.71s-1.51,1.42-2.22,2.95c-.71,1.52-.71,2.44-.71,4.83s-1.11,8.08-1.19,7.67c-.08-.41-.32-1.37-.48-3.3-.16-1.93-.95-8.13-1.07-9.12-.12-.99-1.03-1.75-2.26-2.92-1.27-1.42,5.39-1.3,8.49-1.35,3.09-.05,5.23,1.83,5.23,1.83,0,0,1.32.38,2.41.92Z"/>
    <path class="cls-11" d="m189.02,79.43c0-.36.24-.64.56-.91.04-.04.12-.08.23-.14.72.87-.42,2.88-.42,2.88,0,0-.28,12.71-.2,15.5.06,2.1,1.21,2.43,1.77,2.46-.56.02-.93.03-1.1.03-.63,0-.24.05-3.09-.56-2.85-.61-3.29-.93-2.89-1.59.4-.66,2.82-11.77,3.05-12.79.24-1.02,2.1-4.88,2.1-4.88h0Zm2.24,19.78h0,0s0,0,0,0Z"/>
    <path class="cls-5" d="m190.01,78.85s1.78-.91,2.42-1.04c.63-.13,1.47-.3,1.98-.05.52.25,5.04.89,7.53,1.02,2.5.13,7.22.61,7.3.99.08.38,1.15,3.51.32,3.53s-2.34.15-3.09-.1c-.75-.25-3.89-1.09-4.52-1.22-.63-.13-2.14-.15-2.74.1-.59.25-1.98,1.02-2.97.89-.99-.13-6.86-1.27-6.86-1.7s.63-2.41.63-2.41Z"/>
    <path class="cls-2" d="m190.01,78.85s1.78-.91,2.42-1.04c.63-.13,1.47-.3,1.98-.05.14.07.58.17,1.2.28.38,1.34,1.3,3.53,1.78,4.79-.4.12-.8.18-1.15.14-.87-.11-5.51-1.01-6.62-1.52-.13-.22-.19-.43-.17-.61h0c.16-.73.57-1.99.57-1.99Z"/>
    <path class="cls-3" d="m209.17,79.69s.06.05.07.07c.08.38,1.15,3.51.32,3.53s-2.34.15-3.09-.1c-.08-.03-.18-.06-.31-.1.68-.89,2.11-2.39,3.02-3.4Z"/>
    <path class="cls-3" d="m192.41,82.22c-1.58-.35-3.03-.75-3.03-.96,0-.41.57-2.22.63-2.4.57.74,1.76,2.3,2.4,3.36Z"/>
    <path class="cls-17" d="m190.4,99.24l-3.63-2.27s-.71-1.42-1.71-1.07c-.6.21-1.2,1.2-1.2,1.2,0,0,.41-.89,1.28-.21.86.68,5.26,2.35,5.26,2.35Z"/>
    <path class="cls-4" d="m185.06,95.9s4.14-17.19,4.36-16.52c.22.67-.94,18.66-.94,18.66,0,0-1.14-.56-1.71-1.07-.45-.4-1.07-1.37-1.71-1.07Z"/>
    <path class="cls-8" d="m191.17,82.81c1.35.53,3.49,1.09,3.89,1.88.4.79.83,10.39,1.15,11.26s.83,1.63.99,1.78c.16.15,1.39.58,2.14.13.75-.46,2.42-3.58,2.46-4.57.04-.99,1.03-5.74,1.31-6.53.28-.79,1.31,4.22,2.06,6.1.75,1.88,3.21,4.32,2.89,5.08-.32.76-2.06.99-3.37.86-1.31-.13-5.99-.13-7.61-.13s-6.26-.05-6.34-.71c-.08-.66.36-2.82.36-4.17s-.95-11.74.08-10.98Z"/>
  </g>
  <path class="cls-22" d="m41.18,63.78s34.83,10.27,52.96-8.61c18.13-18.88,4.18-28.16.29-27.37s-16.22,2.43-7.49,20.87c8.72,18.44,17.74,22.11,34.27,17.17s4.56-23.85-4.47-13.99c-9.03,9.86,2.09,28.94,24.87,24.96s34.58-15.1,34.58-15.1"/>
  <path class="cls-1" d="m212.92,91.38c-.05-.24-.11-.5-.17-.77-.02-.09-.04-.18-.06-.27-.05-.2-.09-.4-.14-.61-.03-.11-.05-.23-.08-.34-.05-.2-.1-.41-.15-.62-.03-.12-.06-.24-.09-.37-.05-.22-.11-.45-.17-.67-.03-.12-.06-.23-.09-.35-.06-.25-.13-.51-.2-.76-.02-.09-.05-.19-.07-.28-.09-.35-.18-.69-.27-1.03,0,0,0-.01,0-.02-.09-.36-.19-.71-.28-1.05-.02-.09-.04-.17-.07-.25-.07-.25-.13-.5-.2-.74,0-.03-.02-.07-.03-.1,0,0,0,0,0,0-.52-1.93-.94-3.42-.99-3.53-.12-.28-.91-.41-1.98-.61-1.07-.2-5.59-.41-9.28-.84s-5.23-1.09-5.71-.91c-.41.15-2.39.83-3.1,1.19,0,0,0,0,0,0,0,0,0,0,0,0-.1.05-.18.1-.22.13-.32.28-.56.56-.56.91,0,0-1.86,3.86-2.1,4.88-.24,1.02-2.66,12.13-3.05,12.79-.4.66.04.98,2.89,1.59,2.85.61,2.46.56,3.09.56.04,0,.09,0,.16,0,.03,0,.07,0,.1,0,.08,0,.18,0,.29,0h0s0,0,0,0c.05,0,.09,0,.15,0,.04,0,.08,0,.12,0,1.52-.05,4.79-.18,8.62-.18,4.49,0,11.58.26,13.2.22.01,0,.03,0,.05,0,.1,0,.18,0,.23-.01.79-.1.32-.91.32-1.42s.56-3.05-.16-6.51Z"/>
</svg>