<?xml version="1.0" encoding="UTF-8"?>
<svg xmlns="http://www.w3.org/2000/svg" xmlns:xlink="http://www.w3.org/1999/xlink" viewBox="0 0 416 361.11">
  <defs>
    <style>
      .cls-1, .cls-2, .cls-3, .cls-4 {
        fill: none;
      }

      .cls-2 {
        clip-path: url(#clippath-1);
      }

      .cls-5 {
        fill: #f7eae0;
      }

      .cls-6 {
        fill: #f9be99;
      }

      .cls-7 {
        fill: #eaddd5;
      }

      .cls-8 {
        fill: #e9d2b3;
      }

      .cls-9 {
        fill: #e9c8ad;
      }

      .cls-10 {
        fill: #bb8057;
      }

      .cls-11 {
        fill: #cd8850;
      }

      .cls-12 {
        fill: #604c3f;
      }

      .cls-3 {
        filter: url(#drop-shadow-2);
      }

      .cls-4 {
        clip-path: url(#clippath);
      }
    </style>
    <clipPath id="clippath">
      <rect class="cls-1" x="8.68" y="85.34" width="398.63" height="275.77"/>
    </clipPath>
    <clipPath id="clippath-1">
      <rect class="cls-1" x="-490.91" y="-131.77" width="909.25" height="606.17"/>
    </clipPath>
    <filter id="drop-shadow-2" filterUnits="userSpaceOnUse">
      <feOffset dx="0" dy="-2"/>
      <feGaussianBlur result="blur" stdDeviation="5"/>
      <feFlood flood-color="#959cab" flood-opacity=".4"/>
      <feComposite in2="blur" operator="in"/>
      <feComposite in="SourceGraphic"/>
    </filter>
  </defs>
  <g id="_圖層_3" data-name="圖層 3">
    <g class="cls-4">
      <g class="cls-2">
        <image width="6720" height="4480" transform="translate(-490.91 -131.77) scale(.14)" xlink:href="../../../../../../../../../../../../Users/pinyiwu/Downloads/pink-pet-bag-arrangement.jpg"/>
      </g>
    </g>
  </g>
  <g id="bg">
    <g class="cls-3">
      <g>
        <path class="cls-5" d="m264.72,223.75c.57-.2,1.13-.46,1.65-.77,1.39-.83,1.46-1.43.45-3.22,2.32-1.88,2.55-3.13,1.06-5.81.11-.71.24-1.42.34-2.13.11-.83.12-1.7-.3-2.41-.8-1.35-1.17-2.83-1.61-4.3-.59-1.96-2.29-2.8-4.03-3.49-1.04-.41-2.24-.33-3.23-.97-.75-1.92-2.23-2.71-4.2-3.13-3.13-.67-6.24-1.07-9.42-.51-.7.12-1.48.3-2.11-.14-1.36-.94-2.52-.46-3.67.37-2.09.24-4,.94-5.7,2.18-2.25.54-4.49,1.12-6.75,1.58-.91.19-1.73.52-2.51.98-.57-.18-1.08-.24-1.1-1.15-.04-1.6-.9-2.4-2.3-1.98-3.01.91-6.23,1.37-8.79,3.45-.59.27-1.14.28-1.75-.06-2.61-1.45-4.96-3.24-7.19-5.2-.39-.34-.71-.78-.71-1.31,0-.73.65-.97,1.14-1.33.29.04.59.14.88.11,2.34-.2,3.12-1.16,2.83-3.5-.04-.29-.16-.57-.25-.85,3.15-1.76,5.49-4.49,8.08-6.91,1.49-1.39,2.89-2.87,4.69-3.88,2.36.34,4.1-1.01,5.87-2.2,1.01-.68,1.04-1.65.23-2.6-.33-.38-.71-.73-1.07-1.09,1.78-1.03,3.04-2.69,4.67-3.9.4-.3.69-.77,1.11-1.03,1.72-1.1,3.53-2.07,4.85-3.69,3.33-1.62,5.84-4.45,9.04-6.24,1.2-.67,1.97-1.75,2.97-2.61,2.47,2.07,1.67,1.98,4.75,1.03.88-.27,1.75-.52,2.5-1.08.54-.4.75-.96.65-1.6-.11-.68-.62-1.11-1.26-1.13-1.04-.03-2.03-.05-2.72-.98,2.48-1.52,4.96-3.04,7.44-4.55.74,1.49,1.97,1.59,3.55,1-.18.6-.3.98-.41,1.36-.22.76-.09,1.41.59,1.89.49.34,1.07.56,1.39,1.14.68,1.22,1.79,1.29,2.92.85,1.03-.41,2.02-.97,2.97-1.55.65-.4.94-1.07.74-1.85-.17-.66-.64-1.13-1.3-1.07-1.06.1-1.66-.55-2.38-1.12-.49-.39-.48-.68-.31-1.25.53-1.78.35-2.25-1.39-2.59-1.06-.21-1.38-.61-1.31-1.56.49-.37,1.05-.58,1.67-.58,1.07,0,1.6-.68,2.01-1.53,2.28-1.37,4.72-2.53,6.8-4.16,2.79-2.19,5.56-4.44,8.01-7.04,1.75-1.85,3.53-3.67,5.8-4.93.47-.26.75-.68.78-1.24.9-.26,1.45-.86,1.7-1.75,1.03-.41,1.51-1.26,1.86-2.24.69-1.94,2.28-3.57,2.04-5.83,1.44-.8,1.99-2.3,2.82-3.58,1.23-1.89,2.36-3.85,4.24-5.2.79.03,1.59.09,2.38.1.98,0,1.74-.34,2.08-1.36.36-1.05-.1-1.72-.97-2.22-.13-.38-.38-.79-.1-1.15.56-.71,1.15-1.4,1.78-2.05,1.68-1.73,3.46-3.38,4.76-5.45.3-.49.89-.8,1.35-1.19.7-.43,1.4-.85,2.09-1.28.11.49.17,1,.34,1.47.32.88,1.06,1.21,1.97.96.72-.2,1.17-.85,1.13-1.62-.04-.72-.66-1.26-1.42-1.36-.78-.1-1.32.52-2.03.61-.43-.71-.85-1.42-1.28-2.13,1.9-1.14,3.79-2.29,5.69-3.43.75.79,1.4,1.67,2.32,2.32,1.25.88,2.37.9,3.48-.19.44.63,1.01,1.15,1.79.91,1.17-.36,2.43-.81,2.78-2.17.46-1.79,1.13-3.5,1.76-5.23.26-.7.59-1.3,1.18-1.75,1.26.87,2.49,1.78,4.02,2.15.49.12.98-.34,1.01-.87.06-.92-.35-1.57-1.08-2.06-2.67-1.78-3.9-4.67-5.57-7.23-.08-.12-.04-.41.06-.52.1-.12.37-.23.52-.18,1.96.63,3.73,1.66,5.53,2.62.63.33,1.25.7,1.9.99.28.12.64.02.76-.31.09-.27.2-.68.06-.86-.3-.39-.73-.69-1.13-1-1.68-1.31-3.67-2.27-4.79-4.22,1.61-2.76,1.11-5.69.63-8.6-.23-1.4-.67-2.77-.1-4.18.78-.23,1.56-.49,1.96-1.28.33-.65.48-1.34.04-2.01-.44-.67-1.09-.86-1.84-.66-.39.1-.75.28-1.12.43,1.18-2.07,2.45-4.1,3.88-6.01.25-.33.48-.63.5-1.05,1.43-.61,2.97-.51,4.47-.67.66-.07.78-.53.49-1.61.43-.28.99-.47,1.26-.86,1.01-1.42,2.24-2.05,3.95-1.42,1.53-.52,3.11-.96,4.59-1.61.85-.37,1.76-.58,2.57-.96,1.45-.7,2.78-.47,4.14.1.66.27,1.31.75,1.98.78,2.56.11,3.48,1.75,3.92,3.91.23,1.12.72,2.11,1.25,3.12,1.62,3.11,2.5,6.48,2.9,9.94.16,1.37-.69,2.87-.48,4.22.22,1.4.71,2.73.54,4.2-.16,1.42-.16,2.86-.16,4.29,0,.49.22.98.34,1.47-.86.31-1.74.59-1.88,1.7-.11.85,0,1.85.7,2.17,1.58.71,1.33,2.37,2.11,3.46-.42.26-.81.57-1.26.78-.93.43-1.31,1.16-1.31,2.13-1.45.59-2.13,2.1-3.44,2.86-.7.13-1.43.21-1.71,1.03-.62,1.85-2.08,2.32-3.81,2.35-.51,0-1.01,0-1.52,0-.85,0-1.62.17-2.09.96-.49.83-.14,1.55.34,2.24.48,2.1-.21,3.55-2.22,4.45-1.32.58-2.42,1.51-3.29,2.69-1.22,1.64-1.23,3-.35,4.82.89,1.84,2.46,2.75,4.23,3.24,1.5.41,2.83,1.18,4.32,1.58,1.74.46,2.25,1.99,2.77,3.42.28.76-.28,1.35-.9,1.79-1.09-.26-2.17-.53-3.16-1.13-1.06-.64-2.28-.83-3.52-.93-.78-.06-.98,1.25-1.77.79-.61-.35-1.11-.87-1.84-1.04-.89-.22-1.75-.53-2.64-.76-.85-.22-1.67.28-1.83,1.18-.16.9-.23,1.83-.22,2.74,0,.84.83,1.51,1.69,1.4.6-.07,1.18-.29,1.76-.48.87-.29,1.73-.6,2.59-.93.42-.16.81-.15,1.11.19.66.75,1.46,1.05,2.46.96.37-.03.79.17,1.14.36,1.39.75,2.89,1,4.45.93-.13.38-.28.76-.38,1.15-.74,2.88-2.53,5.07-4.64,7.06-4.65,4.41-9.41,8.71-13.56,13.63-.65.77-1.47,1.4-2.22,2.1-1.4.26-1.96,1.21-2.18,2.52-.16.94.07,1.78.39,2.63-.46.66-1.07,1.26-1.35,1.98-1.4,3.68-2.46,7.47-3.27,11.32-.16.75.06,1.39.44,2.01-.05.35-.09.7-.14,1.06-.86.54-.89,1.49-1.19,2.33-.77,2.15-1.44,4.38-3.5,5.75-.98-.28-1.83-.09-2.38.79-.55.88-.29,1.74.3,2.52.12.16.24.33.35.49s.23.33.34.5c-.44.71-.86,1.46-1.92,1.11-.19-.06-.4-.08-.6-.14-2.96-.89-5.28.3-7.09,2.47-3.01,3.6-5.03,7.68-5.43,12.47-.19,2.25-.52,4.46.01,6.71.24,1-.21,1.7-1.02,2.37-1.9,1.58-2.24,3.06-1,5.06.92,1.49,1.03,2.79.13,4.29-.78,1.32-1.37,2.75-2.09,4.11-.85,1.59-3.46,2.36-5.06,1.49-.81-.44-1.63-.9-2.35-1.47-2.58-2.05-5.24-1.4-7.82-.18-1.76.83-3.38,1.95-5.01,3.03-1.65,1.09-2.86,2.68-3.82,4.35-.85,1.49-1.68,3.02-2.27,4.69-.81,2.3-2.26,4.35-3.09,6.68-.38,1.06-.94,2.06-1.25,3.13-.38,1.3-1.24,2.08-2.37,2.68-.82.06-1.34-.56-2-.86-1.04-1.09-2.12-2.14-2.83-3.51-.7-1.35-1.97-1.92-3.37-2.37-1.34-.43-2.36.13-3.41.76-.52-.72.05-1.66-.36-2.3-.41-.62-1.49-.57-1.85-1.4.75-.58,1.69-.64,2.54-.94Zm36.27-86.28c1.84.58,3.41-.39,3.68-2.15.15-1-.18-1.95-.94-2.46-1.46-.99-2.15-2.38-2.69-3.95-.16-.47-.47-.91-.81-1.27-.94-1.01-2.2-1.27-3.34-.77-1.35.6-2.03,1.72-1.93,3.16.07,1.02.64,2.6,1.13,3.39,1.31,2.15,2.88,3.42,4.9,4.06Zm32.17-17.23c-.08-.56-.43-.94-.95-1.11-.68-.22-1.43-.27-2.08-.55-1.65-.71-3.67-.57-4.92-2.26-.36-.49-1.15-.38-1.75-.21-.66.19-1,.71-1.09,1.35-.08.53.07,1.07.55,1.35,1.77,1.01,3.54,2,5.35,2.93,1.03.53,2.19.52,3.32.39.3-.03.58-.18.74-.24.69-.45.91-.99.82-1.66Zm-24.71,68.03c1.32-.93,1.75-3.11.85-4.39-.92-1.32-3.11-1.75-4.39-.86-1.33.93-1.75,3.1-.85,4.39.92,1.33,3.11,1.76,4.39.86Zm-76.46,1.92c-.96-.56-1.96-.64-2.89-.06-.81.51-1.19,1.35-1.18,2.35,0,.73.22,1.4.58,2.03.8,1.41,2.31,2.03,3.58,1.46,1.24-.56,1.93-2.19,1.51-3.63-.08-.29-.23-.56-.3-.71-.37-.66-.76-1.11-1.31-1.43Zm78.18-22.3c1.55-.75,2.12-2.66,1.25-4.2-.8-1.41-2.64-1.95-3.98-1.17-1.25.73-1.72,2.73-.96,4.1.72,1.32,2.41,1.89,3.7,1.27Zm43.94-78.85c.8-.48.88-1.95.05-2.34-1.66-.79-3.45-1.26-5.28-1.37-.91-.06-1.57,1.23-1.16,2.06.73,1.46,4.9,2.54,6.39,1.66Zm-138.81,108.55c.34-.56.4-1.17-.03-1.73-.44-.56-1.32-.8-1.95-.48-.64.32-1.26.7-1.82,1.15-.84.68-.98,1.72-.43,2.46.55.75,1.51.87,2.54.27.7-.36,1.26-.96,1.69-1.67Zm117.3-104.69c.65.13,1.22,0,1.64-.56.42-.57.39-1.43-.15-1.97-.5-.5-1.07-.96-1.66-1.36-.68-.46-1.41-.38-1.98.11-.54.46-.61,1.17-.1,2.07.44.83,1.17,1.5,2.26,1.71Zm-53.16,69.86c.77-.52.99-1.64.47-2.4-.53-.77-1.65-.99-2.41-.47-.76.52-.98,1.65-.47,2.41.53.77,1.64.98,2.41.47Zm45.64,3.74c.86-.37,1.29-1.54.86-2.32-.37-.67-1.38-.98-2.16-.65-.83.34-1.27,1.54-.85,2.33.36.68,1.36.98,2.16.64Zm-38.81-33.18c.5-.24.78-1.13.5-1.58-.41-.68-1.64-.98-2.45-.6-.49.23-.77,1.13-.49,1.58.43.7,1.61.99,2.44.6Zm-16.18,64.9c.83-.45,1.09-1.29.65-2.05-.39-.66-1.29-.93-1.82-.55-.72.51-1.02,1.47-.66,2.12.36.66,1.14.86,1.84.47Z"/>
        <path class="cls-8" d="m329.55,171.34c.83-.29,1.15-.87.97-1.65-.21-.88-.38-1.8-1.07-2.48,2.06-1.37,2.73-3.6,3.49-5.75.3-.83.32-1.79,1.19-2.33.55.23,1.11.61,1.68.07.24-.22.24-.55.07-.84-.42-.73-1.04-.4-1.62-.29-.38-.62-.6-1.26-.44-2.01.81-3.86,1.87-7.64,3.27-11.32.28-.73.89-1.32,1.35-1.98,2.02.72,2.66.4,2.85-1.45.05-.5.05-1,.12-1.49.17-1.05-.37-1.7-1.19-2.21.74-.69,1.56-1.32,2.22-2.1,4.15-4.92,8.91-9.22,13.56-13.63,2.1-1.99,3.9-4.18,4.64-7.06.1-.39.25-.77.38-1.15q1.03-1.58-.24-3.3c.62-.44,1.17-1.03.9-1.79-.52-1.43-1.03-2.95-2.77-3.42-1.49-.4-2.82-1.17-4.32-1.58-1.77-.49-3.34-1.4-4.23-3.24-.88-1.82-.86-3.18.35-4.82.88-1.18,1.98-2.11,3.29-2.69,2.02-.9,2.71-2.35,2.22-4.45,1.74.4,3.47.23,5.21-.02,1.84-.26,3.34-.99,3.87-2.99.1-.38.43-.7.6-1.07.51-1.16.42-1.4-.89-2.5,1.31-.76,1.99-2.27,3.43-2.86.51.73,1.21,1.07,2.09,1.09.55.02,1.2-.12,1.31-.6.32-1.38,1.56-1.81,2.4-2.66.19-.19.22-.55.32-.83h0c1.03-1.1,2.04-2.23,3.11-3.3.26-.26.74-.55,1.05-.48.73.16.33.79.3,1.23-.02.3-.12.61-.12.91,0,.42.07.87.45,1.08.82.47,1.4,1.16,1.96,1.9.28.37.7.46,1.08.25.39-.22.52-.65.33-1.05-.26-.55-.54-1.11-.91-1.58-.68-.87-.9-1.79-.6-2.86.85-3.04,1.03-6.27,2.77-9.03.31-.49.2-.97-.12-1.42v.03c.31-.23.37-.53.21-.89v.04c.35-.12.88-.43.99.1.22,1.09.24,2.23.39,3.34.08.6.23,1.19.4,1.77.05.15.29.31.46.33.31.04.64-.07.7-.41.09-.49.16-1,.14-1.5-.05-1.15.63-1.91,1.36-2.62.32-.31.73-.27.94.24.12.28.16.71.37.82,1.79.98,1.15,2.36.63,3.69-.56,1.42-1.18,2.82-1.79,4.23-.55,1.27-.82,2.54.08,3.78.54.74.55,1.58.16,2.33-1.04,2.05-.64,4.4-1.46,6.49-.25.64.29,1.15.59,1.67q.34,1.22-.93,2.06c-.11-.17-.21-.35-.33-.51-1.13-1.51-2.4-1.46-3.22.14-.18.36-.31.76-.41,1.15-.39,1.55-.14,2.04,1.45,2.84.18.09.37.16.56.24.1.38.35.79.26,1.12-.29,1.16-.53,2.39-1.12,3.4-.74,1.28-.59,3.01-1.98,3.94-1.98-.6-2.26-.45-2.55,1.35-.06.37-.15.74-.23,1.11l-.11-.03c-.63-.82-1.05-1.75-1.31-2.75-.13-.5-.3-.98-.74-1.3-.43-.32-.9-.47-1.43-.23-.52.24-.77.68-.73,1.22.03.39.14.81.32,1.16.93,1.8,1.02,3.77.9,5.69-.17,2.75-.6,5.48-.98,8.21-.1.7-.34,1.39-.59,2.06-.3.79-.95,1.06-1.73.71-.75-.33-1.44-.77-2.19-1.11-.46-.21-.97-.3-1.46-.44-.06-1.69-.91-2.89-2.36-3.66-.44-.23-.95-.36-1.45-.42-.64-.08-1.21.11-1.54.74-.36.66-.3,1.52.29,1.95,1.23.89,2.41,1.88,3.96,2.22.82.99,2.05,1.3,3.13,1.87.78.42,1.24,1.05,1.17,1.98-.04.51-.07,1.02-.12,1.53-.09.89.1,2.16-.89,2.37-.72.15-1.84-.43-2.4-1.03-.74-.79-1.51-1.19-2.52-1.46-1.17-.31-1.56-1.55-2.31-2.37-.67-.74-1.61-.57-1.91.34-.54,1.63-.03,3.22.26,4.81.02.08.13.21.21.21,1.83.15,1.3,1.66,1.66,2.72.42,1.23,1.21,2.33,1.34,3.69.04.36.38.72.65,1.02.88.97,1.8,1.91,2.7,2.86-.36.65-.58,1.38-1.21,1.86-.39-.14-.77-.39-1.16-.38-1.75.04-3.2-.81-4.45-1.8-2.15-1.71-4.66-2.5-7.18-3.36-.97-.33-1.93-.67-2.92-.93-.22-.06-.65.15-.74.34-.1.21-.02.69.16.82.91.69,1.62,1.51,2.22,2.49.28.46.99.67,1.51.97,1.15.66,2.41,1.1,3.42,2.03,1.25,1.15,2.29,2.34,2.18,4.18-.02.4.02.85.19,1.2.52,1.05-.06,1.83-.68,2.47-.68.71-1.55,1.24-2.45,1.94-1.58-2.35-3.83-3.85-5.37-6.06-.86-1.23-2.34-1.96-3.88-2.32-.82-.19-1.53.13-1.8.78-.28.68-.11,1.46.44,1.96.08.07.14.16.23.2,2.64,1.19,3.9,3.83,5.9,5.7.91.85.96,2.41,2.17,3.22.4.27.03.94-.09,1.44-.41,1.76-.32,1.86,1.69,2.36.35.54.4,1.13.27,1.75-.55,2.8-1.55,5.44-2.78,8.02-1.74,3.67-3.9,7.11-5.82,10.68-.36.67-.86,1.11-1.5,1.44-.24-.56-.48-1.13-.71-1.69q-.46-1.12-1.83-1c-1.25.11-1.8-.2-1.79-1.33.02-2.09-.88-3.94-1.34-5.9-.15-.62-.41-1.13-.85-1.59-.99-1.02-1.49-1.04-2.52.01-.43.44-.85.89-1.28,1.32-.66.66-.77,1.35-.28,2.2.81,1.43.99,3.08,1.44,4.63.11.37.2.86.05,1.17-.57,1.15-.42,2.13.35,3.14.29.38.38.93.5,1.42.31,1.3.93,2.2,2.39,2.41.85.12,1.3.94,1.85,1.54.24.52.11.97-.17,1.44-1.83,3.08-3.66,6.17-5.45,9.27-2.72,4.73-6.22,8.88-9.58,13.15-.68.86-1.24,1.91-2.43,2.26-.27-.93-.76-1.64-1.69-2.05-.75-.33-1.43-.8-2.17-1.16-.72-.35-1.15-.8-1.04-1.67.05-.4.09-.92-.11-1.2-1.03-1.41-1.22-2.9-.95-4.6.17-1.06-.83-2.12-1.98-2.45-1.29-.38-2.46-.05-3.38.92-.76.8-.98,1.81-.56,2.85.23.56.54,1.13.96,1.56.89.9.75,1.82.27,2.81-.09.18-.12.4-.24.57-1.2,1.76-1.09,3.43.55,5.03-1.34,1.06-2.41,2.14-2.32,3.88.03.55-.43.89-.78,1.27-.56.61-1.05,1.26-1.29,2.07-.19.65-.54,1.03-1.29,1.08-1.21.08-1.68.82-1.9,2-.49,2.62-1.16,5.2-1.74,7.81-.25,1.13-.57,2.17-1.83,2.61-.82.29-1.25,1.03-1.69,1.72-1.15,1.8-1.13,1.95.48,3.57.2.2.37.48.46.75.05.16-.05.39-.12.58-.09.26-.27.32-.48.18-.65-.46-1.19-1.21-2.14-.87-1.11.39-1.41,1.44-1.75,2.39-.53,1.45-.82,2.8.06,4.4.68,1.25,1.08,2.87.19,4.4-.64,1.08.02,1.95.66,2.79-.14.47-.24.97-.44,1.41-.87,1.93-1.8,3.83-2.64,5.77-.52,1.2-1.05,2.43-.44,3.78-1.27.92-1.15,2.24-1.03,3.56.09,1.03.17,2.03-.89,2.67-.41.05-.83.03-1.21.16-.8.26-.96.61-.66,1.37.11.28.3.54.43.82.09.18.21.39.19.57-.03.28-.12.77-.27.8-1.47.32-.94,2.3-2.23,2.69-.96.29-1.84-.69-1.46-1.65.39-.97.73-1.92.6-2.97-.06-.5-.12-1.03-.33-1.48-.43-.95-1.28-1.27-2.27-1.27-.83,0-1.45.47-1.7,1.5-.29,1.19-.44,2.41-.66,3.72-.93.41-1.95-.19-2.94.05-.24.06-.7-.13-.79-.32-.68-1.5-1.86-1.29-3.13-1.06-1.01.18-1.49-.14-1.61-.88-.18-1.12.24-2.01,1.13-2.22.59-.14,1.22-.12,1.82-.24,1.25-.25,1.58-.63,1.58-1.85.01-2.25,0-4.51-.02-6.76,0-.82-.14-1.62-.6-2.35-.68-1.08-1.84-1.39-2.9-.66-.41.28-.77.67-1.08,1.07-.72.92-1.79.82-2.75.97-.44.07-.67-.43-.76-.83-.13-.52-.04-1.05.39-1.41,1.16-.98.63-2.29.64-3.46,0-.94-.94-1.8-1.72-1.94-1.03-.18-2.27.55-2.66,1.64-.61,1.73-.65,3.67.35,5.05,1.67,2.31,2.04,4.86,2.31,7.5.16,1.5.78,2.96.44,4.52-.72-.12-.97-.65-1.11-1.28-.52-2.28-.94-4.6-1.62-6.83-1.8-5.93-3.73-11.81-5.58-17.72-.52-1.65-.95-3.32-1.36-5-.17-.69-.19-1.44.51-1.94,1.25,1.07,1.39,3,2.99,3.81.14.07.24.35.25.54.05,1.41.94,2.18,2.02,2.89.41.27.67.78,1.05,1.11.44.39.56.79.37,1.35-.16.48-.29.99-.28,1.49.02.8.84,1.58,1.63,1.56,1.12-.02,2.26,0,3.34-.24,1.91-.44,3.57-1.23,4.48-3.26.92-2.05,2.19-3.94,3.25-5.93.33-.62.53-1.33.7-2.02.12-.52-.03-1.02-.54-1.32-.48-.28-1.01-.3-1.46-.01-.42.27-.76.67-1.13,1.02-.72.67-1.4.86-2.16.42-.78-.46-1.49-1.06-2.23-1.59,1.13-.59,1.99-1.38,2.37-2.68.32-1.07.88-2.07,1.25-3.13.83-2.33,2.28-4.38,3.09-6.68.59-1.67,1.42-3.2,2.27-4.69.95-1.67,2.16-3.26,3.82-4.35,1.63-1.08,3.26-2.2,5.01-3.03,2.58-1.22,5.25-1.87,7.82.18.72.57,1.54,1.03,2.35,1.47,1.6.87,4.21.1,5.06-1.49.72-1.36,1.31-2.79,2.09-4.11.9-1.51.79-2.8-.13-4.29-1.23-2-.9-3.48,1-5.06.81-.67,1.26-1.38,1.02-2.37-.53-2.24-.2-4.46-.01-6.71.4-4.8,2.41-8.87,5.43-12.47,1.81-2.17,4.13-3.36,7.09-2.47.2.06.41.08.6.14,1.06.34,1.48-.4,1.92-1.11.5-.05,1.03-.02,1.49-.18Zm.06,15.39c-.43-1.48-1.9-2.73-.9-4.55.38-.7.49-1.56.67-2.36.14-.61.05-1.22-.28-1.78-.39-.67-1.11-1.08-1.79-.92-.66.16-1.17.6-1.16,1.27.02,1.52-.71,2.75-1.29,4.06-.7,1.57-1.09,3.12.28,4.58.45.48.47,1.11.52,1.73.05.61,0,1.36.32,1.78,1.04,1.34.78,2.66.28,4.06-.4,1.13-.36,2.22.42,3.21.49.62.62,1.25.24,1.99-.19.36-.3.77-.37,1.17-.11.65.05,1.21.71,1.53.69.33,1.39.44,2.03-.06.31-.25.58-.6.76-.95,1.36-2.65,2.69-5.31,4.02-7.96.05-.09.07-.19.11-.29.49-1.3.27-2.67-1.33-3.25-.38-.13-.82-.17-1.11-.83.09-1.28-.96-1.9-2.13-2.42Zm-30.26,31.91c1.68-.52,2.37-1.55,2.23-3.19-.09-1.07-.55-1.97-1.22-2.76-.74-.88-2.03-1.14-3.07-.69-1.17.51-1.7,1.39-1.61,2.68.06.91.31,1.6.91,2.57.8,1.29,1.67,1.72,2.75,1.38Zm44.01-74.94c-.5-.59-1.26-.66-1.97-.37-.65.27-.79.92-.76,1.53.02.5.14,1.02.35,1.47.59,1.29,1.24,2.55,1.9,3.81.13.25.4.46.64.64.64.49,1.33.44,2,.06.67-.38.95-1.04.76-1.82-.29-1.2-.86-2.28-1.62-3.25-.42-.69-.77-1.45-1.29-2.06Zm-24.17,45.19c-.81-1.32-2.53-1.76-3.71-.95-1.09.75-1.59,2.86-.91,3.86.86,1.28,2.51,1.64,3.78.82,1.33-.85,1.68-2.38.84-3.73Zm-37.14,53.99c-.53.8-.53,1.53-.08,1.94.68.62,1.88.69,2.51.07.42-.42.79-.93,1.08-1.46.45-.81.26-1.65-.4-2.19-.51-.41-1.24-.32-2.18.44-.18.24-.59.69-.92,1.19Zm69.81-87.11c-.79-.7-2.11-.39-2.5.59-.32.8-.24,1.58.04,2.35.27.74,1.31,1.08,2.03.7,1.22-.64,1.47-2.72.43-3.64Zm-21.05,19.2c-.73.62-1.08,1.43-1.09,2.38,0,.68.66,1.32,1.38,1.33,1.48.02,2.68-1.92,2.04-3.29-.37-.8-1.61-1.02-2.33-.42Zm-28.59,51.5c-.26-.25-.69-.42-1.06-.45-.67-.06-1.42.78-1.74,1.83-.21.69.06,1.48.64,1.85.41.27.9.26,1.42-.03,1.42-.77,1.77-2.18.74-3.2Zm34.7-63.33c.44-.22.63-.88.35-1.24-.34-.45-1.03-.51-1.58-.08-.31.24-.56.56-.33,1.01.31.49.94.62,1.56.32Z"/>
        <path class="cls-8" d="m195.67,178.89c.02.24.04.49.05.73,1.21-.98,2.26-2.09,2.91-3.6.23-.54.66-1.08,1.15-1.41,1.02-.68,1.98-1.37,2.76-2.35.54-.69,1.48-.61,2.21-.04.24.18.41.45.6.7.5.64,1.05.56,1.56.05,2.18-2.15,4.36-4.31,6.51-6.48.56-.57,1.73-.87,1.64-1.67-.13-1.11-1.43-.86-2.24-1.15-.49-.18-1.03-.34-1.19-.87-.3-.99-.42-2,.04-3,.31-.67,1.06-1.07,1.77-.86.49.14.93.44,1.42.57,1.07.3,1.93,1.22,3.16,1.07.87-2.73,1.16-5.51.7-8.35-.69.23-1.51.57-2.02-.05-.79-.96-1.52-1.22-2.84-1.07-1.23.14-2.58-.52-3.84-.91-.34-.11-.78-.5-.83-.82-.21-1.47-1.09-2.3-2.32-2.99-.88-.49-.76-1.7.12-2.29,1.12-.75,2.24-.92,3.4-.02,1.4,1.09,2.88,1.58,4.48.37,3.6-.78,3.45-1.18,5.21,1.83.45-.27.82-.61.95-1.13.84-3.45,1.68-6.91,2.47-10.37.08-.35-.14-.78-.22-1.17-.92.47-1.7,1.01-2.17,2.05-.44.98-1.4,1.2-2.29.59-.93-.63-1.75-1.33-2.94-1.53-.83-.14-1.16-.8-1.01-1.65.4-2.2,1.35-4.08,3.39-5.23.26-.14.65-.32.86-.22,1.62.75,3.48.28,5.09,1.01,1.09-1.34,1.22-3.02,1.4-4.6.15-1.32.32-2.62.61-3.91.26-1.12.25-2.22-.16-3.31-.73-.02-1.46-.03-2.06.45-1.25,1-2.33.35-3.37-.35-1.33-.89-1.51-2.21-.28-3.32.75-.68,1.15-1.38,1.29-2.33.07-.51.17-1.02.32-1.51.38-1.2,1.67-1.51,2.33-.45.68,1.1,1.55,1.88,2.6,2.54.12-.17.32-.32.34-.5.22-2.54.43-5.08.58-7.62.02-.35-.31-.73-.48-1.09-1.09,1.19-2.21,1.4-3.78.68-2.47-1.14-2.78-1.76-1.35-3.99.33-.52.65-1.06,1.22-1.33.92-.43,1.35-1.18,1.53-2.13.26-1.38,1.2-1.77,2.45-1.73.27-.51.08-.96-.19-1.4-.9.17-1.8.33-2.69.51-1.15.24-2.23-.08-3.27-.5-.97-.39-1.42-1.29-1.18-2.2.21-.79.84-1.21,1.93-1.01,1.32.24,2.6.37,3.84-.26-.32-.72-.97-.95-1.67-.89-1.46.11-2.69-.42-3.84-1.23-.04.18-.12.36-.21.52-.13,1.8-1.58,2.82-2.48,4.16-.3.45-.9.55-1.41.46-1.94-.36-3.8-.24-5.69.39-.44.15-.88.05-1.22-.18.55,4.52.51,9.01-.43,13.39.67-.2,1.33-.43,1.97.16.43.4.88.41,1.4.19.37-.15.78-.29,1.17-.3.97-.04,1.71,1.07,1.31,1.94-.17.36-.48.66-.67,1.01-1.27,2.25-4.29,1.86-5.76,3.83-.18.25-.77.19-1.16.28-.1.02-.2.05-.3.08-1.16,2.29-1.85,5.23-1.74,7.46,1.66-.71,3.1-.74,4.33.95.7.97,1.87,1.14,3.04.66.28-.12.55-.31.84-.37.64-.14,1.22.02,1.64.56.4.52.53,1.1.3,1.73-.38,1.04-1.23,1.62-2.44,1.24-.92-.29-1.45-.2-2.16.45-.9.82-1.99,1.43-3,2.13-.69.48-1.48.66-2.3.78-1.21.19-1.97-.33-2.4-1.42-.47.21-.86.51-1.06,1.02-.13.32-.26.65-.4.97.11,1.91-.25,3.83-.85,5.99-.54,1.93-1.11,3.85-1.69,5.77,1.12-1.14,2.21-2.32,3.42-3.35.84-.72,1.88-1.42,3.07-1.21,1.8.31,3.57.76,5.34,1.22.51.13.82.6.86,1.16.04.67-.23,1.22-.82,1.53-.35.18-.79.34-1.16.29-2-.23-3.37.77-4.33,2.32-.78,1.25-1.96,2.08-2.94,3.11-.69.73-1.47,1.31-1.97,2.27-.57,1.1-1.89,1.09-2.78.09-.24-.27-.4-.61-.59-.93-.36,1.27-.71,2.54-1.03,3.82-1.39,5.51-1.57,11.23-1.07,16.88.48-.37.93-.77.91-1.47-.04-1.17.69-1.95,1.46-2.6,1.89-1.57,3.82-3.1,5.83-4.51,1.51-1.06,2.35-.68,2.92,1.07.46,1.41.78,1.67,2.14,1.51.5-.06.98-.31,1.5-.15.4.13.74.36.91.76.55,1.26-.55,3.16-1.8,2.83-2-.53-3.66.19-5.27,1.01-1.91.97-3.86,1.97-5.42,3.49-.99.97-1.93,1.04-2.94.4.33,2.67.83,5.62.5,8.35Zm20.01-77.03c-.19-1.2.51-2.5,1.63-3,.58-.26,1.28-.04,1.59.5.67,1.17.2,2.81-.99,3.42-.87.45-2.09-.06-2.22-.92Z"/>
        <path class="cls-8" d="m205.58,76.6c.51,1.67.91,3.35,1.63,4.96.46,1.01.85,2.09.83,3.26,0,.51,0,1.1.24,1.5.79,1.27,1.03,2.5.68,3.89-.42-2.56-1-5.13-1.72-7.68-1.68-5.99-4.03-12-7.35-17.3,1.08,1.02,2.23,2,2.84,3.25,1.26,2.56,2,5.37,2.84,8.12Z"/>
        <path class="cls-11" d="m388.04,85.01c.81-.31,1.32-.95,1.66-1.7,1.01-2.2,2.26-4.31,2.85-6.69-.1-.43-.2-.85-.29-1.28-.56-.07-.93-.33-.87-.95.09-.91.55-1.69,1.01-2.45.26-.44.62-.84,1.17-.75.73.12.87.7.84,1.34.32-.12.64-.24.96-.36.74-1.34,1.65-2.62,1.79-4.21.25-.31.58-.59.72-.95,1.42-3.5,3.15-6.9,3.36-10.78.08-1.41.81-2.72.67-4.18.64-.36.62-1,.67-1.6.31-4.41,1.14-8.74,2.1-13.05.4-1.8.97-3.56,1.1-5.42.05-.69.4-1.37.67-2.03.99-2.38,1.72-4.83,2.25-7.35.55-2.62.33-5.1-1.03-7.43-.66-1.14-1.02-2.45-2.06-3.39-.21-.19-.43-.37-.65-.53-2.92.06-5.7.33-8.42,2.02-.14.08-.26.18-.39.27-1.54,2.61-3.24,5.13-3.98,8.13-.42,1.69-.72,3.41-1.12,5.11-.28,1.19-.64,2.37-.97,3.55.16,1.46-.14,2.75-1.36,3.71h0c.18.76-.15,1.42-.42,2.08-.78,1.9-1.67,3.75-2.38,5.67-1.21,3.26-2.34,6.56-3.45,9.86-.22.66-.26,1.4-.28,2.11,0,.26.2.63.43.77.44.27.68-.14.98-.41.78-.72.42-1.77.82-2.58.48-.98,1.56-1.36,2.93-1.05.89.2.94.84,1.05,1.61.24,1.76-.17,3.04-2,3.61-.19.06-.38.17-.54.29-1.5,1.25-2.28,2.78-1.79,4.78.36-.12.89-.43,1,.1.22,1.09.24,2.23.39,3.34.08.6.23,1.19.4,1.77.05.15.29.31.46.33.31.04.64-.07.7-.41.09-.49.16-1,.14-1.5-.05-1.15.63-1.91,1.36-2.62.32-.31.73-.27.94.24.12.28.16.71.37.82,1.79.98,1.15,2.36.63,3.69-.56,1.42-1.18,2.82-1.79,4.23-.55,1.27-.82,2.54.08,3.78.54.74.55,1.58.16,2.33-1.04,2.05-.64,4.4-1.46,6.49-.25.64.29,1.15.59,1.67Zm5.2-48.48c-.2.63-.6,1.03-1.29,1.08-.42.03-.78-.1-1.15-.48-.02-.2-.12-.5-.08-.77.08-.53.43-.89.88-1.16.45-.26.91-.46,1.37-.05.43.38.43.88.27,1.38Zm6.1,14.08c-.01-.1-.02-.2-.02-.3-.01-.52.02-1.03.63-1.19.6-.16.96.21,1.12.72.23.75.22,1.59.83,2.2-1.9.64-2.37.38-2.56-1.43Zm-3.47-.67c.64-.55,1.36-.51,1.87.1.43.52.41,1.25-.06,1.63-.74.62-1.74.69-2.21.15-.41-.48-.23-1.36.39-1.88Zm-3.62-3.34c-.36-.59-.17-1.38.37-1.55.47-.14.78.13,1.01.48.3.46.41.94-.07,1.35-.37.32-1.03.17-1.3-.28Zm3.56,13.08c-.05-.09-.09-.18-.38-.75.01.03-.26-.42-.39-.9-.1-.39,0-.8.39-1.06.4-.26.8-.13,1.15.06.66.35,1.03.98,1.31,1.64.29.7,0,1.58-.65,1.81-.73.26-1.13-.22-1.44-.79Zm-1.33,7.71c.12-.5.35-.95.89-1.12.61-.19.91.21,1.17.67.19.34.41.67.61,1-.55.21-1.1.47-1.67.6-.62.13-1.15-.52-1-1.15Z"/>
        <path class="cls-11" d="m209.29,92.51c.34.23.78.33,1.22.18,1.88-.63,3.75-.75,5.69-.39.5.09,1.11,0,1.41-.46.9-1.34,2.35-2.36,2.48-4.16-.7-.88-1.46-1.46-2.59-.64-.42.3-.87.57-1.42.34-1.03-.43-1.97-.13-2.97.19-.98.3-1.77-.44-1.42-1.31.47-1.21.65-2.32.08-3.55-.2-.43-.11-1.01-.09-1.51.03-.69.67-1.06,1.31-.81.88.35,1.09.78.89,1.84-.27,1.45.33,2.2,1.73,2.06,1.17-.11,2.23-.49,2.49-1.84.27-1.38,1.17-1.47,3.01-1.2-2.01,1.07-1.75,2.19-1.08,3.52.34.67.2,1.6.28,2.41,1.15.81,2.38,1.34,3.84,1.23.7-.05,1.34.17,1.67.89-1.24.62-2.52.49-3.84.26-1.09-.2-1.72.22-1.93,1.01-.24.91.21,1.81,1.18,2.2,1.04.42,2.12.73,3.27.5.89-.18,1.79-.34,2.69-.51.64-.88,1.03-1.79.34-2.82-.31-.47-.43-.94-.06-1.4.93-1.17.45-2.09-.52-2.9-.52-.43-.92-.84-.44-1.52.46-.65.66-1.28.69-1.9-.2-.72-.39-1.44-.56-2.17-.17-.33-.37-.66-.58-.99-.88.41-1.68.09-2.19-.56-1.03-1.31-2.52-2.02-3.7-3.12-.74-.69-1.56-1.29-2.29-1.98-.32-.3-.21-.75-.05-1.14.18-.43.57-.61.98-.55.49.07,1.02.18,1.43.43.95.58,1.85,1.24,2.75,1.9.73.54,1.39,1.2,2.35,1.32.46-1.04.07-1.96-.4-2.88-.93-1.79-2.03-3.5-2.66-5.43-.29.1-.64.12-.86.3-1.08.88-2.1.92-3.36.21-1.14-.64-2.44-1.02-3.83-.8-.29.05-.61,0-.9-.06-.68-.14-1.26-.87-1.27-1.54-.01-.58.35-.94.8-1.2,1.38-.83,2.79-1.11,4.35-.36,1.17.56,2.27,1.44,3.71,1.15-.4-.68-.8-1.37-1.2-2.05-1.83-.35-2.64-2.05-3.99-3.04-.39-.29-.56-.86-.31-1.36.24-.48.69-.72,1.22-.72.66,0,1.35.57,1.97-.1-1.67-2.19-3.47-4.28-5.38-6.27-1.62-1.68-3-3.61-4.55-5.36-2.37-2.66-5.18-4.55-8.76-5.29-4.81-.99-10.45,2.23-11.51,7.67-.46,2.34-.22,4.5,1.04,6.56,3.63,2.51,7.02,5.32,9.53,9,.32.48.63.97.93,1.46,1.08,1.02,2.23,2,2.84,3.25,1.26,2.56,2,5.37,2.84,8.12.51,1.67.91,3.35,1.63,4.96.46,1.01.85,2.09.83,3.26,0,.51,0,1.1.24,1.5.79,1.27,1.03,2.5.68,3.89.13.77.24,1.54.33,2.31Zm-5.98-34.18c.35.67.07,1.42-.65,1.7-.58.23-1.19-.02-1.5-.6-.35-.66-.06-1.41.65-1.7.58-.23,1.19,0,1.49.6Zm1.95,7.67c-.08.18-.25.32-.4.46-.49.45-1.51.24-1.93-.49-.23-.37-.21-.86,0-1.35,1.13-2.6,3.2-4.17,5.79-5.09,1.11-.39,2.07,0,2.31.82.2.65-.1,1.26-1.31,1.78-1.92.83-3.6,1.86-4.47,3.87Zm4.79,3.32c.38.64.3,1.19-.52,1.79-.66.49-1.18,1.08-1.72,1.68-.43.48-1.02.72-1.63.43-.58-.28-.89-.83-.91-1.47-.05-1.23.5-2.13,2.06-2.9,0,0,.46-.24.94-.34.76-.16,1.38.13,1.79.82Zm-1.7,11.08c-.23-.39-.2-.88.07-1.14,1.07-1.06,2.2-2.05,3.25-3.01.16-.1.24-.15.33-.2.75-.41,1.53-.36,1.94.14.41.49.23,1.32-.48,1.83-.99.7-2.01,1.33-2.75,2.35-.21.29-.68.44-1.06.54-.52.13-1,0-1.3-.51Z"/>
        <path class="cls-11" d="m225.92,89.29c.1.02.2.03.3.05-.05-.03-.1-.1-.15-.09-.05,0-.1.02-.15.05Z"/>
        <path class="cls-8" d="m384.06,60.75c-.49-2,.3-3.53,1.79-4.78.15-.13.35-.24.54-.29,1.83-.56,2.24-1.85,2-3.61-.11-.77-.16-1.41-1.05-1.61-1.37-.31-2.45.07-2.93,1.05-.4.82-.04,1.87-.82,2.58-.3.28-.54.69-.98.41-.22-.14-.44-.51-.43-.77.02-.71.06-1.45.28-2.11,1.11-3.3,2.24-6.59,3.45-9.86.71-1.92,1.6-3.77,2.38-5.67.27-.65.59-1.32.42-2.07-.77.38-1.31.94-1.53,1.8-.17.7-.38,1.39-1.03,1.81-1.29.86-2.76.61-4.17.66-.76.02-1.07-.4-1.05-1.47.01-.46.07-.81-.47-.89-.81-.11-1.63-.14-2.44-.29-1.7-.31-1.88-.84-.89-2.5.09-.16.13-.35.23-.61-.44.02-.84.02-1.24.05-.41.03-.81.1-1.22.11-1.35.05-1.5-.16-1.23-1.6.15-.78-.21-1.18-.85-.97-.19.06-.38.16-.57.23-1.7.69-1.68.68-2.8-.85-.48-.66-1.03-1.26-1.59-1.86-.39-.41-.35-.94-.5-1.42-.49-.43-1.11-.66-1.68-.42-1.16.48-2.4.25-3.57.35-1.76.15-3.68-.04-4.7-1.97-.5.92-1.15,1.67-2.2,2.02-3.5,1.17-6.88,2.61-9.98,4.62-.62.4-1.32.8-2.01.6-1.17-.34-2.48.02-3.55-.75-2.26,1.36-4.02,3.21-5.35,5.48-.31.53-.49,1.09-.36,1.71.78.29,1.34-.29,2.01-.49,1.34-.42,2.67-1.02,4.13-.31.66.32,1.4.06,2.1-.06.8-.13,1.6-.28,2.41-.35.54-.05,1.08.16,1.12.76.03.41-.37.7-.8.8-.79.18-1.59.34-2.39.51-2.7.57-5.35,1.24-7.72,2.73-.02.11-.03.22-.05.33,1.33.28,2.63-.07,3.94-.19,1.52-.15,3.04-.3,4.57-.08.43-.28.99-.47,1.26-.86,1.01-1.42,2.24-2.05,3.95-1.42,1.53-.52,3.11-.96,4.59-1.61.85-.37,1.76-.58,2.57-.96,1.45-.7,2.78-.47,4.14.1.66.27,1.31.75,1.98.78,2.56.11,3.48,1.75,3.92,3.91.23,1.12.72,2.11,1.25,3.12,1.62,3.11,2.5,6.48,2.9,9.94.16,1.37-.69,2.87-.48,4.22.22,1.4.71,2.73.54,4.2-.16,1.42-.16,2.86-.16,4.29,0,.49.22.98.33,1.47.54.45,1.26.77,1.32,1.59.08,1,.46,1.7,1.42,2.15.41.19.64.75.96,1.15.44-2.65.41-5.27-.43-7.86-.43-1.35-.27-1.71.88-2.61.16-.13.32-.26.49-.37,1.24-.84,1.99-.71,2.9.41.43.52.47,1.36,1.34,1.62.61-.73.63-1.69.95-2.52.25-.67.43-1.38,1.09-1.8l.21-.86c-.64-.65-1.28-1.32-1.93-1.95-.51-.5-1.1-.92-1.58-1.45-.67-.75-.22-1.96.78-2.14.39-.07.81-.05,1.2.04,1.05.22,1.75,1.03,2.51,1.7.19.17.32.56.29.83-.15,1.11-.23,2.27-1.32,2.96.14.34.05.62-.21.86.13.27.24.56.4.81.62.99.67,1,1.93.52.19-.07.38-.13.57-.2v.03c-.24-.37-.15-.66.21-.89v.04Z"/>
        <path class="cls-11" d="m140.67,207.23c1.81,2.16,4.25,3.19,6.95,3.64,1.63.27,3.27.31,4.9-.12,2.62-.7,5.06-.18,7.47.96,2.6,1.23,5.29,2.27,7.91,3.46,1.17.53,2.34.62,3.6.59,5.44-.16,10.87-.07,16.29.49,2.34.24,4.7.52,7.07.16.27-.64.78-1.21.39-1.99-.35-.71-.96-1.04-1.69-1.15-.9-.14-1.81-.21-2.71-.34-1.19-.17-2.43-.18-3.32-1.25-.39-.47-1.05-.64-1.67-.64-2.85,0-5.67-.4-8.49-.69-.62-.06-1.19.15-1.63.62.29,1.28.13,1.66-.78,1.76-1.15.12-2.27.17-3.01-1-.39-.63-1.02-.45-1.64-.48-1.36-.06-2.16-1.38-1.62-2.58.32-.73.74-1.43,1.15-2.2.89.7,1.82,1.39,3.05,1.06.5-.13,1.11-.37,1.14-.9.04-.79-.62-.56-1.1-.5-.2.02-.41.06-.61.05-1.01-.09-1.38-.9-.85-1.75.33-.52,1.06-.67,1.21-1.44-1.92-.72-2.4.93-3.21,2.05-.29-.26-.57-.42-.72-.66-.57-.9-1.32-1.21-2.36-.95-.38.1-.83.09-1.21,0-.56-.13-.84-.55-.83-1.13.02-.68.35-1.19.99-1.42.68-.25,1.41-.3,2.12-.13,2.71.63,5.29-.39,7.93-.58.28-.02.69-.19.78-.4.55-1.32,1.95-.93,2.86-1.5.49-.31.98-.24,1.39.17,1.08,1.06,2.15.65,2.98-.21,1.37-1.44,2.99-2.47,4.72-3.4.71-.38,1.28-1,1.91-1.52.23-.19.43-.46.69-.58.39-.18.82-.1,1.16.17.34.28.45.68.27,1.1-.12.27-.27.6-.5.75-1.52.99-1.4,2.35-.96,3.82.18.59.34,1.18.47,1.77.3,1.29.95,2.27,2.32,2.59.72.17,1.27.51,1.77,1.1,1.52,1.77,2.49,1.95,4.5.92.91-.47,1.77-1.03,2.62-1.61.73-.5,1.19-1.35,1.01-2.13-.53-2.29-1.13-4.65-3.18-6.13-1.21-.88-2.42-1.71-4.02-2.1-1.62-.39-3.11-1.27-4.63-2.05-.36.26-.73.51-1.14.76-4.6,2.71-11.07,4.15-17.24,4.01-2.31.37-4.6.53-6.95.24-1.21-.15-2.46-.09-3.69,0-3.59.25-7.18.34-10.78.3-2.16-.02-4.3.16-6.42.68-1.33.33-2.48.94-3.64,1.62-2.74,1.62-3.91,5.3-1,8.76Zm21.52-2.42c-.08-.35-.05-.65.24-.83.71-.44,1.6-.22,2.09.55.25.4.06.77-.29,1.05-.07.06-.19.08-.29.1-.79.09-1.36-.23-1.76-.86Z"/>
        <path class="cls-9" d="m170.31,211.23c.62.03,1.24-.15,1.64.48.73,1.18,1.86,1.12,3.01,1,.91-.09,1.07-.47.78-1.76.44-.47,1.01-.68,1.64-.62,2.83.29,5.64.68,8.49.69.62,0,1.27.17,1.67.64.89,1.07,2.13,1.08,3.32,1.25.9.13,1.81.2,2.71.34.73.12,1.33.44,1.69,1.15.39.78-.12,1.36-.39,1.99,2.36.36,5.2.11,7.45-.65-.99-1.57-.93-3.05.28-4.5.39-.46.65-1.04.96-1.57.53-.9,1.3-1.23,2.33-1.09,2.2.31,3.41,2.12,2.68,4.23-.29.85-.89,1.59-1.36,2.39.4.37.85.47,1.37.29.7-.24,1.12.17,1.52.64,1.38-2.18,3.53-3.28,5.85-4.14,1.3-.48,2.71-.67,4.11-1.5-.49-.2-.76-.42-1.02-.4-1.42.12-2.38-.3-2.59-1.87-.06-.43-.47-.6-.93-.59-.4,0-.82,0-1.21-.1-1.12-.26-1.65-.75-1.53-1.91.11-1.15-.36-2.2-.28-3.32-.59.27-1.14.28-1.75-.06-2.61-1.45-4.97-3.24-7.19-5.2-.39-.34-.71-.78-.71-1.31,0-.73.65-.97,1.14-1.33-.32-.24-.7-.43-.94-.73-.79-.98-.9-2.46-.3-3.34.68-.99,1.96-1.47,3.17-1.07.55.19,1.03.59,1.54.9,3.15-1.76,5.49-4.49,8.08-6.91,1.49-1.39,2.89-2.87,4.69-3.88-.66-.26-1.32-.54-1.99-.77-1.63-.55-3.25-1.21-4.75.4-.73.79-1.86.77-2.53.11-1.03-1.02-1.9-.86-2.98-.27-.34.18-.81.09-1.21.19-.72.18-1.39.56-1.62,1.28-.23.71.53.99.89,1.46.92,1.17.89,2.45,0,3.66-.71.96-1.99,1.23-3.32.69-.28-.12-.53-.31-.8-.45-1.28-.68-1.21-.57-2.55.36-1.45,1-3,1.94-4.87,1.56-.66,1.22-1.62,2.31-2.94,3.27,1.52.78,3.02,1.66,4.63,2.05,1.6.38,2.81,1.22,4.02,2.1,2.04,1.48,2.64,3.84,3.18,6.13.18.78-.27,1.63-1.01,2.13-.85.58-1.71,1.14-2.62,1.61-2.01,1.04-2.98.85-4.5-.92-.5-.59-1.05-.93-1.77-1.1-1.37-.32-2.02-1.29-2.32-2.59-.14-.6-.3-1.19-.47-1.77-.44-1.47-.56-2.83.96-3.82.23-.15.38-.47.5-.75.19-.42.07-.82-.27-1.1-.33-.27-.76-.36-1.16-.17-.26.12-.45.39-.69.58-.63.52-1.21,1.14-1.91,1.52-1.73.92-3.35,1.95-4.72,3.4-.82.86-1.9,1.27-2.98.21-.41-.4-.9-.48-1.39-.17-.91.58-2.31.19-2.86,1.5-.09.21-.5.38-.78.4-2.64.19-5.23,1.21-7.93.58-.72-.17-1.44-.12-2.12.13-.63.23-.97.73-.99,1.42-.01.58.27,1.01.83,1.13.39.09.83.1,1.21,0,1.04-.26,1.79.05,2.36.95.15.24.43.4.72.66.81-1.12,1.29-2.76,3.21-2.05-.16.77-.89.92-1.21,1.44-.53.85-.15,1.66.85,1.75.2.02.41-.02.61-.05.48-.05,1.14-.28,1.1.5-.03.54-.64.77-1.14.9-1.23.32-2.16-.36-3.05-1.06-.41.77-.82,1.47-1.15,2.2-.53,1.21.26,2.52,1.62,2.58Zm12.91-9.42c-.11-.24-.12-.64,0-.86.19-.34.53-.59.64-.7,1.05-.62,1.77-.65,2.19-.21.43.45.43,1.39,0,2.01-.63.92-2.35.8-2.83-.24Zm-4.99,5.62c-.71-.98-.29-2.69.86-3.52.94-.68,2.53-.39,3.31.6.79,1.01.46,2.77-.65,3.52-1.19.81-2.69.55-3.52-.6Zm-2.86,3.39c.1.04.2.08.3.13-.07.01-.13.02-.19.01-.04,0-.07-.09-.11-.14Z"/>
        <path class="cls-11" d="m296.52,270.71c0,.49.21.98.32,1.47h0c-.54,1.68-.27,3.34.18,4.98h0c-.41.74-.44,1.48,0,2.23-.24.92,0,1.82.1,2.74.27,2.75.53,5.51.71,8.27.11,1.74.02,3.49-.51,5.18-.63,2-1.92,3.6-3.94,3.94-2.97.51-5.93.36-8.2-2.23-1.57-1.79-2.91-3.75-3.81-5.92-.83-2.01-1.88-3.86-3.03-5.68.04-.29.17-.62.09-.88-.64-2.34-1.39-4.65-1.98-7-.59-2.38-1.83-4.46-2.81-6.67-.29-1.26-.19-2.59-.76-3.79.34-1.55-.29-3.01-.44-4.52-.28-2.65-.64-5.19-2.31-7.5-1-1.38-.96-3.32-.35-5.05.39-1.1,1.63-1.83,2.66-1.64.79.14,1.73,1,1.72,1.94,0,1.16.52,2.48-.64,3.46-.43.36-.51.89-.39,1.41.1.4.33.9.76.83.96-.16,2.04-.05,2.75-.97.31-.4.66-.79,1.08-1.07,1.06-.73,2.22-.42,2.9.66.46.73.59,1.53.6,2.35.03,2.25.03,4.51.02,6.76,0,1.22-.34,1.6-1.58,1.85-.6.12-1.23.1-1.82.24-.89.21-1.31,1.1-1.13,2.22.12.74.6,1.07,1.61.88,1.27-.23,2.44-.44,3.13,1.06.09.2.56.38.79.32.99-.24,2.02.36,2.94-.05.23-1.31.37-2.53.66-3.72.25-1.02.87-1.49,1.7-1.5.99,0,1.84.33,2.27,1.27.21.45.27.98.33,1.48.13,1.05-.21,2-.6,2.97-.38.96.49,1.94,1.46,1.65,1.29-.39.75-2.36,2.23-2.69.15-.03.24-.52.27-.8.02-.18-.11-.39-.19-.57-.13-.28-.32-.53-.43-.82-.3-.76-.14-1.11.66-1.37.38-.12.81-.11,1.21-.16,1.09,1.28,1.74,2.72,1.76,4.43Zm-9.98,4.72c.57-.6.58-1.61-.04-2.16-.4-.35-.89-.47-1.37-.11-.77.6-1.12,1.59-.75,2.05.51.63,1.64.74,2.15.21Zm-12.63-12.53c.28.53.87.8,1.2.51.41-.36.5-.83.28-1.33-.21-.48-.8-.7-1.2-.48-.51.37-.54.81-.27,1.31Zm20.02,12.31c.16-.37.14-.76-.22-1.05-.36-.28-.71-.25-1.04.04-.39.35-.38.96.01,1.27.37.29,1.06.17,1.25-.26Z"/>
        <path class="cls-11" d="m316.61,81.5c-2.08-2.15-3.81-4.55-5.27-7.16-.42-.75-.97-1.42-1.91-1.27-1.81.28-3.18-.44-4.4-1.66-.36-.36-.77-.67-1.19-.97-.4-.29-1.14-.03-1.26.45-.14.6-.22,1.2-.31,1.81-.39,2.42-.39,2.43,2.26,2.52.63.02,1.04.27.92.88-.39,2.12-.68,4.3-2.83,5.54-.65.37-.63,1-.54,1.63.23,1.72.47,3.45.69,5.17.13,1.04-.03,2.05-.45,3.01-.31.7-1.05,1.06-1.77.88-.67-.17-1.17-.66-1.07-1.31.45-2.99-.88-5.87-.54-8.84.05-.44-.09-.79-.43-1.08-1.16-1.01-1.14-2.33-.9-3.68.18-1,.42-2,.61-2.88-.31-.57-.7-.61-1.11-.48-.69.23-1.45-.54-2.06.05-.62.61-.63,1.49-.66,2.31-.02.4.08.81.14,1.22.12.76.03,1.46-.68,1.89-.72.44-1.39.24-1.94-.34-.58-.61-.85-.24-1.04.31-.32.9-.43,1.79.11,2.66.21.35.42.71.57,1.09.41,1.06-.4,2.14-1.52,2.01-1.18-.14-2.1-.75-2.84-1.66-.53-5.59,1.58-10.43,4.4-15.03.43-.7.87-1.33,1.15-2.13,1.37-3.86,2.61-7.79,4.68-11.36.79-1.37.82-2.69-.17-4.02-.68-.9-1.27-1.87-1.86-2.83-.55-.89-.83-1.88-.88-2.92-.11-2.25,1.19-3.94,3.38-4.49,1.68-.42,3.32-.17,4.79.6,5.26,2.77,7.63,5.87,7.1,12.04-.07.82-.17,1.63-.35,2.43-.37,1.7-.81,3.4-1.22,5.09-.17.7-.36,1.39-.87,1.95-.5-.65-1.03-1.25-1.96-1.12-.18.03-.4.15-.49.3-.63.98.12,1.7.53,2.46.41.75,1.04.85,1.77.4.52.99.12,1.99.04,2.99-.05.57.12.99.72,1.13.18.09.38.29.54.26,1.93-.38,3.04.44,4.26,2,3.16,4.08,6.63,7.92,10,11.83.59.69,1.27,1.33,2,1.87.68.5.73,1.17.85,1.86-1.1,1.09-2.23,1.07-3.48.19-.91-.65-1.57-1.53-2.32-2.32-.87-1.29-2.12-2.2-3.18-3.3Zm-20.41-10.9c.28.34.65.48,1.06.27.39-.2.58-.6.42-1-.18-.45-.45-.89-.76-1.26-.28-.34-.73-.36-1.08-.11-.36.25-.41.66-.25,1.07.07.19.17.36.26.54.12.16.22.33.35.48Zm-5.2,3.21c.28.38.72.4,1.07.18.63-.4.88-1.27.54-1.84-.21-.36-.59-.52-1.03-.35-.78.38-1.07,1.34-.58,2.01Zm12.22-6.49c.65-.4.78-1.32.27-1.81-.32-.31-.74-.36-1.11-.17-.59.3-.7,1.26-.24,1.84.32.35.72.36,1.08.13Zm-4.1-6.99c-.15-.44-.47-.63-.92-.54-.52.1-.82.72-.54,1.16.23.36.57.54.99.37.42-.22.62-.53.47-.98Zm-.82,7.2c.39-.27.42-.67.13-1.03-.29-.36-.72-.38-1.06-.12-.36.28-.35.68-.12,1.09.31.4.7.3,1.04.06Z"/>
        <path class="cls-9" d="m314.1,88.23c-.69.08-1.4,0-2.03.42-.54.36-.88.82-.83,1.48.04.57.44.87.93,1.06.37.14.75.26,1.13.39-.46.39-1.04.7-1.35,1.19-1.3,2.08-3.07,3.72-4.76,5.45-.63.65-1.22,1.34-1.78,2.05-.29.36-.03.77.1,1.15-1.43.31-2.8.05-4.18-.31-1.56-.42-3.13-.77-4.76-.89-1.62-.12-3.02.03-3.92,1.6-.21.36-.62.49-1.05.47-.34-.82-.04-1.6.15-2.38.23-.94.19-1.66-.65-2.42-1.36-1.23-2.04-3-2.97-4.56-.29-.49-.1-.97.26-1.38.65.64,1.26,1.34,1.97,1.92.98.8,1.89.85,2.49.27.64-.62.59-1.54-.13-2.5-.18-.24-.4-.46-.61-.69-.47-.54-.94-1.07-1.4-1.62-1.07-1.27-1.17-1.28-3.12-.36-.84-.97-.82-2.23-1.1-3.38-.15-.61.21-1.16.67-1.59.74.91,1.66,1.53,2.84,1.66,1.12.13,1.93-.96,1.52-2.01-.15-.38-.35-.74-.57-1.09-.54-.87-.42-1.77-.11-2.66.19-.55.46-.92,1.04-.31.55.58,1.22.78,1.94.34.71-.43.8-1.13.68-1.89-.06-.4-.16-.81-.14-1.22.03-.82.05-1.7.66-2.31.6-.6,1.36.18,2.06-.05.41-.14.8-.09,1.11.48-.19.88-.43,1.87-.61,2.88-.24,1.35-.26,2.67.9,3.68.34.29.48.64.43,1.08-.34,2.97.99,5.85.54,8.84-.1.64.4,1.14,1.07,1.31.72.18,1.46-.18,1.77-.88.42-.96.58-1.97.45-3.01-.22-1.73-.46-3.45-.69-5.17-.08-.63-.1-1.26.54-1.63,2.15-1.23,2.44-3.42,2.83-5.54.11-.62-.29-.86-.92-.88-2.65-.09-2.65-.11-2.26-2.52.1-.6.18-1.21.31-1.81.11-.48.86-.74,1.26-.45.41.3.83.61,1.19.97,1.22,1.22,2.59,1.94,4.4,1.66.94-.15,1.49.52,1.91,1.27,1.46,2.6,3.19,5.01,5.27,7.16,1.06,1.1,2.31,2.01,3.18,3.3-1.9,1.14-3.79,2.29-5.69,3.43Zm-3.33-4.74c-.09-.78-.78-1.3-2.11-1.34-.86-.02-1.58-.21-2.31-.65-.72-.43-1.38-.2-1.92.39-.46.5-.55,1.11-.29,1.71.24.56.54,1.12.92,1.58,1.08,1.3,2.38,1.33,4.38.16.77-.38,1.44-.85,1.32-1.84Zm-15.89,6.77c.78-.29,1.27-1.53.91-2.27-.38-.78-1.53-1.06-2.37-.58-.64.37-1,1.48-.69,2.13.28.59,1.45.98,2.14.72Z"/>
        <path class="cls-9" d="m264.11,220.05c-1.68.75-3.11.4-4.56-.62-1.4-.99-1.95-.87-3.09.43-.53.61-1.06,1.25-1.47,1.94-.8,1.36.23,3.03,1.84,2.94.89-.05,1.79-.53,2.62.17-1.11.71-2.18,1.5-3.47,1.89-.41-1.34-1.11-2.18-2.69-1.74-.54.15-.57-.29-.68-.71-.38-1.43-1.08-1.9-2.37-1.54-.78.22-1.5.67-2.35.61-.2-.01-.4-.08-.6-.12-.03-.1-.1-.2-.08-.28.61-2.61.57-2.47-2.06-3.42-1.89-.69-3.71-1.65-5.25-3.01v.03c.8-.15,1.59-.32,2.4-.45.54-.09.98-.3,1.18-.84.24-.64,0-1.17-.37-1.71-.4-.6-1.65-.23-1.54-1.18.06-.5.79-.89,1.14-1.39.31-.44.32-.98.07-1.47-.37-.73-.82-1.43-1.16-2.17-.43-.93-.29-1.44.52-2.17.23-.2.54-.32.76-.52,1.25-1.16,1.36-2.34.48-3.85-.49-.83-1.31-1.3-1.91-1.98-.55-.62-1.14-1.18-1.82-1.63,1.15-.83,2.3-1.31,3.67-.37.62.43,1.41.26,2.11.14,3.18-.56,6.29-.16,9.42.51,1.96.42,3.45,1.21,4.2,3.13-.41-.03-.82-.03-1.22-.09-2.9-.45-5.01,1.41-6.13,4.04-.73,1.71.15,4.61,2.59,5.01,1.7.28,3.37.69,5.15.36.38,1.23.62,2.32,1.04,3.34.69,1.66,2.03,2.53,3.8,2.63.93.05,1.81-.16,2.45-.98.31-.39.76-.68,1.14-1.01,1.49,2.68,1.26,3.93-1.06,5.81-.92-.08-1.86-.09-2.71.29Zm-16.63-11.27c.62-.37.92-1.59.54-2.19-.51-.79-1.96-.97-2.74-.35-.56.45-.7,1.39-.28,1.94.53.69,1.82,1.01,2.49.61Z"/>
        <path class="cls-11" d="m195.74,179.92c0-.1-.01-.2-.02-.29,1.21-.98,2.26-2.09,2.91-3.6.23-.54.66-1.08,1.15-1.41,1.02-.68,1.98-1.37,2.76-2.35.54-.69,1.48-.61,2.21-.04.24.18.41.45.6.7.5.64,1.05.56,1.56.05,2.18-2.15,4.36-4.31,6.51-6.48.56-.57,1.73-.87,1.64-1.67-.13-1.11-1.43-.86-2.24-1.15-.49-.18-1.03-.34-1.19-.87-.3-.99-.42-2,.04-3,.31-.67,1.06-1.07,1.77-.86.49.14.93.44,1.42.57,1.07.3,1.93,1.22,3.16,1.07.11.19.21.38.3.57-.03.46.04.86.21,1.19,0,.06,0,.11-.01.16-.78,1.17-.03,2.18.39,3.18.37.87,1.13,1.45,1.97,1.88.4.2.79.14,1.19-.01.38-.14.77-.32,1.16-.36.68-.07,1.18.27,1.51.86.27.48.25.96,0,1.46-.52,1.1-1.61,1.56-2.47,2.26-.35.29-.48.67-.33,1.09.15.39.4.78.86.78.82,0,1.63-.08,2.45-.12.36.36.74.7,1.07,1.09.82.95.78,1.93-.23,2.6-1.77,1.19-3.51,2.54-5.87,2.2-.66-.26-1.32-.54-1.99-.77-1.63-.55-3.25-1.21-4.75.4-.73.79-1.86.77-2.53.11-1.03-1.02-1.9-.86-2.98-.27-.34.18-.81.09-1.21.19-.72.18-1.39.56-1.62,1.28-.23.71.53.99.89,1.46.92,1.17.89,2.45,0,3.66-.71.96-1.99,1.23-3.32.69-.28-.12-.53-.31-.8-.45-1.28-.68-1.21-.57-2.55.36-1.45,1-3,1.94-4.87,1.56,1.16-2.14,1.45-4.68,1.27-7.68Z"/>
        <path class="cls-11" d="m326.03,207.88c-.27-.93-.76-1.64-1.69-2.05-.75-.33-1.43-.8-2.17-1.16-.72-.35-1.15-.8-1.04-1.67.05-.4.09-.92-.11-1.2-1.03-1.41-1.22-2.9-.95-4.6.17-1.06-.83-2.12-1.98-2.45-1.29-.38-2.46-.05-3.38.92-.76.8-.98,1.81-.56,2.85.23.56.54,1.13.96,1.56.89.9.75,1.82.27,2.81-.09.18-.12.4-.24.57-1.2,1.76-1.09,3.43.55,5.03-1.34,1.06-2.41,2.14-2.32,3.88.03.55-.43.89-.78,1.27-.56.61-1.05,1.26-1.29,2.07-.19.65-.54,1.03-1.29,1.08-1.21.08-1.68.82-1.9,2-.49,2.62-1.16,5.2-1.74,7.81-.25,1.13-.57,2.17-1.83,2.61-.82.29-1.25,1.03-1.69,1.72-1.15,1.8-1.13,1.95.48,3.57.2.2.37.48.46.75.05.16-.05.39-.12.58-.09.26-.27.32-.48.18-.65-.46-1.19-1.21-2.14-.87-1.11.39-1.41,1.44-1.75,2.39-.53,1.45-.82,2.8.06,4.4.68,1.25,1.08,2.87.19,4.4-.64,1.08.02,1.95.66,2.79.92-.21,1.72-.66,2.41-1.29.3-.27.74-.59.77-.91.17-1.92,1.67-3.25,2.16-5.03.46-1.67,1.27-3.25,1.74-4.92,1.65-5.81,3.21-11.65,4.85-17.63.48-.38.96.29,1.52.33,1.29.09,2.44-.2,3.38-1.14,2.46-2.47,4.92-4.92,7.36-7.41.87-.89,1.6-1.88,1.64-3.21Z"/>
        <path class="cls-9" d="m233.95,199.44c-2.25.54-4.49,1.12-6.75,1.58-.91.19-1.73.52-2.51.98.14.27.34.53.42.82.42,1.56.69,3.17,2.35,4.04.3.16.44.68.58,1.06.25.67.53,1.35.66,2.05.18.96.39,1.8,1.62,1.8.2,0,.4.08.59.17,1.07.5,1.25,1.64.45,2.52-.39.43-1.24.25-1.35,1.02.28.68.63,1.32.8,2.01.42,1.63-.49,2.59-2.13,2.41-2.19-.24-3.71-1.63-5.22-3.01-.64-.58-.78-1.61-.13-2.23.94-.89.93-2.28,1.93-3.1.3-.25.19-.79-.16-1.09-.54-.46-1.18-.27-1.75-.08-.46.15-.46.59-.31,1.02.31.88.14,1.65-.67,2.14-.66.4-1.04.94-1.29,1.65-.18.53-.59.82-1.15.86-.41.03-.82.05-1.23.06-.89.02-1.18.73-1.51,1.35-.38.69.07,1.18.56,1.56,1.28,1.01,2.08,2.53,3.6,3.3.71.36.93,1.08.63,1.85-.31.8-.96.99-1.75.88-.4-.05-.81-.08-1.22-.12.66,1.54,1.75,2.41,3.5,2.24,1.29-.12,2.3.52,3.35,1.13.84.48,1.55,1.34,2.7,1.05-.8-1.27-2.02-2.24-2.58-3.7-.57-1.49.17-2.8,1.76-2.68,1.72.12,3.44.38,5.12.75,1.38.3,2.7.72,4.17.67,1.64-.05,2.23,1.11,1.47,2.68-.38.77-.75,1.46-.11,2.23.71.87.24,1.73,0,2.59,4.22,1.33,8.35,1.48,12.28-.94.45-.28.79-.63.93-1.16-1.21.22-2.41.48-3.62.66-.6.09-1.23.13-1.82.05-.87-.12-1.38-.89-1.26-1.8.04-.3.16-.6.29-.87.29-.58.09-1-.41-1.28-1.16-.66-2.34-1.27-3.5-1.92-.81-.45-1.7-.91-1.89-1.91-.18-.98-.84-.88-1.53-1.05-1.24-.3-1.59-1.35-.79-2.34.83-1.03,1.62-2.12,2.84-2.76v.03c-1-.69-2.21-.29-3.28-.67-1.55-.56-2.4-1.92-1.69-3.35.64-1.31.62-2.55.42-3.88-.13-.87.05-1.61.8-2.18.4-.31.76-.7,1.05-1.12.31-.45,1.16-.51.97-1.31-.11-.07-.2-.17-.28-.17-.3,0-.61.03-.91.05-2.04.1-3.28-1.02-3.31-3.05,0-.5.19-1.01.29-1.51Z"/>
        <path class="cls-9" d="m319.94,64.3c1.59-.22,2.65-.83,3.5-2.05.29-.42.61-.82.96-1.19.61-.62.6-1.29.12-1.93-.76-1.03-.8-2.3-1.21-3.44.31,0,.65.1.91-.01,1.39-.6,2.64-.83,3.84.49.48.53,1.43.2,1.81-.52.62-1.16,1.15-2.37,1.71-3.57.14.02.27.05.4.08.22,1.72,1.42,2.18,2.92,2.24-.58,1.41-.13,2.79.1,4.18.48,2.91.98,5.84-.63,8.6-1.43-1.3-2.93-2.52-4.26-3.92-1.14-1.19-2.35-1-3.67-.59-.34.1-.52.83-.26,1.05.47.39,1,.71,1.46,1.11.31.26.66.55.79.9.13.34.05.8-.05,1.17-.13.47-.58.57-.99.46-.89-.23-1.85-.38-2.64-.8-1.55-.84-2.74.22-4.06.57-.28.07-.34.54-.15.8.29.41.63.79,1.01,1.12,2.01,1.74,4.02,3.47,6.06,5.18,1.8,1.51,3.64,2.98,5.46,4.46-.6.45-.92,1.05-1.18,1.75-.63,1.73-1.3,3.44-1.76,5.23-.35,1.36-1.6,1.8-2.78,2.17-.78.24-1.36-.28-1.79-.91-.12-.69-.18-1.37-.85-1.86-.73-.54-1.41-1.18-2-1.87-3.37-3.91-6.84-7.75-10-11.83-1.21-1.56-2.33-2.38-4.26-2-.16.03-.36-.17-.54-.26,3.43-3.04,7.64-4.21,12.01-4.81Zm-5.41,3.74c-.57-.31-1.18-.2-1.77.07-.66.3-.89,1.03-.36,1.44,1.78,1.38,3.27,3.06,4.87,4.63.71.71,1.6,1.25,2.45,1.81.58.38,1.18.24,1.64-.27.38-.43.36-.93.1-1.42-.14-.27-.32-.52-.75-1.24-1.38-1.96-3.65-3.65-6.19-5.03Zm9.47,12.49c.33.32.76.38,1.1.13.49-.36.43-.91.09-1.33-.49-.63-1.04-1.23-1.6-1.79-.66-.66-1.24-.78-1.49-.39-.31.49-.23,1.13.17,1.64.6.6,1.16,1.18,1.74,1.74Z"/>
        <path class="cls-11" d="m219.01,224.95c.41.04.81.07,1.22.12.79.1,1.44-.08,1.75-.88.3-.77.08-1.49-.63-1.85-1.52-.77-2.32-2.29-3.6-3.3-.49-.38-.94-.87-.56-1.56.34-.62.63-1.32,1.51-1.35.41-.01.82-.03,1.23-.06.56-.05.97-.33,1.15-.86.24-.7.63-1.25,1.29-1.65.82-.49.99-1.26.67-2.14-.15-.43-.15-.87.31-1.02.56-.18,1.2-.38,1.75.08.35.3.46.84.16,1.09-1.01.82-.99,2.21-1.93,3.1-.65.61-.51,1.64.13,2.23,1.51,1.38,3.02,2.77,5.22,3.01,1.64.18,2.55-.78,2.13-2.41-.18-.68-.52-1.32-.8-2.01.11-.76.96-.58,1.35-1.02.8-.88.62-2.02-.45-2.52-.18-.09-.39-.17-.59-.17-1.23,0-1.44-.84-1.62-1.8-.13-.7-.4-1.38-.66-2.05-.14-.38-.28-.9-.58-1.06-1.65-.87-1.92-2.49-2.35-4.04-.08-.29-.28-.55-.42-.82-.57-.18-1.08-.24-1.1-1.15-.04-1.6-.9-2.4-2.3-1.98-3.01.91-6.23,1.37-8.79,3.45-.08,1.12.39,2.17.28,3.32-.11,1.15.41,1.64,1.53,1.91.39.09.81.1,1.21.1.46,0,.87.16.93.59.21,1.58,1.17,1.99,2.59,1.87.26-.02.53.2,1.02.4-1.4.83-2.81,1.02-4.11,1.5-2.32.86-4.47,1.96-5.85,4.14.25,2.32,1.55,3.88,3.59,4.89.95-.18,1.56.21,1.88,1.1.95,1.17,2.32,1.84,3.45,2.8Z"/>
        <path class="cls-8" d="m221.93,172.85c-.16-.42-.02-.8.33-1.09.86-.71,1.95-1.17,2.47-2.26.24-.51.26-.98,0-1.46-.33-.59-.83-.93-1.51-.86-.4.04-.78.22-1.16.36-.4.15-.79.21-1.19.01-.85-.43-1.61-1.01-1.97-1.88-.42-1-1.17-2.01-.39-3.18.05.02.1.03.16.05.06.09.13.16.21.24-.07.05-.13.11-.18.18-.02.05-.06.1-.1.14-.38.44-.26,1.11.22,1.41.45.29,1.17.15,1.38-.4.06-.16.12-.31.13-.48,0-.04,0-.09,0-.13,1.33.21,2.88-.43,3.23-2.12.03-.15.16-.34.35-.56.21.1.46.12.7,0,2.64-1.37,5.17-2.87,7.87-4.18,2.02-.98,4.25-1.88,5.18-3.98.7-.28,1.41-.55,2.09-.87.88-.4,1.88-.86,2.95-.51.35,2.43.61,2.87,2.79,3.22,1.13.18,1.86.63,2.41,1.53-1,.86-1.77,1.94-2.97,2.61-3.21,1.79-5.71,4.62-9.04,6.24-1.32,1.62-3.13,2.59-4.85,3.69-.42.27-.71.73-1.11,1.03-1.63,1.21-2.89,2.87-4.67,3.9-.82.04-1.63.12-2.45.12-.46,0-.71-.39-.86-.78Z"/>
        <path class="cls-11" d="m382.31,99.38c-1.98-.6-2.26-.45-2.55,1.35-.06.37-.15.74-.23,1.11-.05.12-.11.25-.16.37l.05-.4c-.63-.82-1.05-1.75-1.31-2.75-.13-.5-.3-.98-.74-1.3-.43-.32-.9-.47-1.43-.23-.52.24-.77.68-.73,1.22.03.39.14.81.32,1.16.93,1.8,1.02,3.77.9,5.69-.17,2.75-.6,5.48-.98,8.21-.1.7-.34,1.39-.59,2.06-.3.79-.95,1.06-1.73.71-.75-.33-1.44-.77-2.19-1.11-.46-.21-.97-.3-1.46-.44-.37.27-.74.55-1.11.82.82.99,2.05,1.3,3.13,1.87.78.42,1.24,1.05,1.17,1.98-.04.51-.07,1.02-.12,1.53-.09.89.1,2.16-.89,2.37-.72.15-1.84-.43-2.4-1.03-.74-.79-1.51-1.19-2.52-1.46-1.17-.31-1.56-1.55-2.31-2.37-.67-.74-1.61-.57-1.91.34-.54,1.63-.03,3.22.26,4.81.02.08.13.21.21.21,1.83.15,1.3,1.66,1.66,2.72.42,1.23,1.21,2.33,1.34,3.69.04.36.38.72.65,1.02.88.97,1.8,1.91,2.7,2.86.51-.12,1.03-.28,1.23-.8.51-1.36,1.28-2.55,2.23-3.64.73-.84,1-1.77.45-2.82-.26-.49-.33-.93.16-1.35,1.96-1.69,2.45-4.17,3.37-6.42.27-.66.36-1.39.6-2.06.31-.86.62-1.74,1.54-2.19.79-.39,1.23-1.13,1.46-1.9,1.38-4.51,2.48-9.07,1.93-13.85Z"/>
        <path class="cls-11" d="m339.68,30.69c1.07.77,2.38.41,3.55.75.69.2,1.39-.2,2.01-.6,3.11-2.01,6.49-3.45,9.98-4.62,1.05-.35,1.69-1.1,2.2-2.02.47-3.14.73-6.29.85-9.46.02-.51.1-1.03.05-1.53-.19-1.97-1.73-2.79-3.51-1.85-2.22,1.16-3.91,2.96-5.5,4.83-2.32,2.73-4.37,5.66-6.27,8.7-1.18,1.9-2.69,3.61-3.37,5.8Z"/>
        <path class="cls-11" d="m263.72,234.57c1.25,1.07,1.39,3,2.99,3.81.14.07.24.35.25.54.05,1.41.94,2.18,2.02,2.89.41.27.67.78,1.05,1.11.44.39.56.79.37,1.35-.16.48-.29.99-.28,1.49.02.8.84,1.58,1.63,1.56,1.12-.02,2.26,0,3.34-.24,1.91-.44,3.57-1.23,4.48-3.26.92-2.05,2.19-3.94,3.25-5.93.33-.62.53-1.33.7-2.02.12-.52-.03-1.02-.54-1.32-.48-.28-1.01-.3-1.46-.01-.42.27-.76.67-1.13,1.02-.72.67-1.4.86-2.16.42-.78-.46-1.49-1.06-2.23-1.59-.82.06-1.34-.56-2-.86-1.34.71-2.52.76-3.42-.71-.33-.53-.85-.96-1.46-1.05-1.99-.28-4.06-.84-5.75.88.12.65.24,1.3.35,1.94Z"/>
        <path class="cls-8" d="m265.41,138.61c-1.23-.37-2.56-.42-3.68-1.13.86-1.53,2.12-2.66,3.59-3.57,1.56-.97,3.11-1.94,4.67-2.9,1.8,1.55,3.95,1.15,6.03,1.04.58-.03.81-.56.85-1.08.04-.54-.2-1-.72-1.2-.37-.14-.78-.16-1.17-.22-.89-.15-1.77-.3-2.66-.44,2.77-2.07,5.06-4.62,7.35-7.17.87-.97,1.47-2.21,2.75-2.77-.11,1.41.46,2.22,1.93,2.5,1.76.34,3.55.68,5.01,1.84-.03.55-.31.98-.78,1.24-2.26,1.25-4.04,3.07-5.8,4.93-2.45,2.59-5.22,4.85-8.01,7.04-2.08,1.63-4.52,2.79-6.8,4.16-.41-1.25-1.34-1.88-2.56-2.25Zm12.11-10.64c-.1.41.08.79.47,1.01.72.4,1.5.58,2.32.55.44-.01.8-.25.97-.62.17-.37.11-.8-.16-1.14-.69-.85-2.09-1.22-3.16-.73-.11.22-.36.55-.45.92Z"/>
        <path class="cls-11" d="m368.14,136.27c-.39-.14-.77-.39-1.16-.38-1.75.04-3.2-.81-4.45-1.8-2.15-1.71-4.66-2.5-7.18-3.36-.97-.33-1.93-.67-2.92-.93-.22-.06-.65.15-.74.34-.1.21-.02.69.16.82.91.69,1.62,1.51,2.22,2.49.28.46.99.67,1.51.97,1.15.66,2.41,1.1,3.42,2.03,1.25,1.15,2.29,2.34,2.18,4.18-.02.4.02.85.19,1.2.52,1.05-.06,1.83-.68,2.47-.68.71-1.55,1.24-2.45,1.94-1.58-2.35-3.83-3.85-5.37-6.06-.86-1.23-2.34-1.96-3.88-2.32-.82-.19-1.53.13-1.8.78-.28.68-.11,1.46.44,1.96.08.07.14.16.23.2,2.64,1.19,3.9,3.83,5.9,5.7.91.85.96,2.41,2.17,3.22.4.27.03.94-.09,1.44-.41,1.76-.32,1.86,1.69,2.36.78-1.05,1.5-2.11,2.51-3.01,1.29-1.15,1.82-2.9,2.51-4.47.41-.93.68-1.89,1.57-2.55.38-.28.57-.82.83-1.26.98-1.63,1.58-3.51,3.12-4.81.21-.17.06-.76.08-1.16Z"/>
        <path class="cls-10" d="m259.24,147.72c.74,1.49,1.97,1.59,3.55,1-.18.6-.3.98-.41,1.36-.22.76-.09,1.41.59,1.89.49.34,1.07.56,1.39,1.14.68,1.22,1.79,1.29,2.92.85,1.03-.41,2.02-.97,2.97-1.55.65-.4.94-1.07.74-1.85-.17-.66-.64-1.13-1.3-1.07-1.06.1-1.66-.55-2.38-1.12-.49-.39-.48-.68-.31-1.25.53-1.78.35-2.25-1.39-2.59-1.06-.21-1.38-.61-1.31-1.56-.31-.51-.57-1.12-1.22-1.2-.67-.09-1.5.24-2-.06-.78-.47-.02-1.48-.34-2.21-.2-.45-.39-.91-.59-1.37-.25.02-.5.04-.76.06-.73.45-1.47.9-2.2,1.34-1.45,1.04-2.91,2.07-4.08,3.45.52,2.15,1.6,3.61,4.08,3.48.49-.02.98.12,1.47.16.78.06.58.63.59,1.09Z"/>
        <path class="cls-11" d="m239.9,216.6c-1.22.63-2.01,1.73-2.84,2.76-.79.98-.45,2.04.79,2.34.7.17,1.35.07,1.53,1.05.18.99,1.08,1.45,1.89,1.91,1.16.65,2.34,1.27,3.5,1.92.5.28.7.71.41,1.28-.14.27-.26.57-.29.87-.11.92.39,1.68,1.26,1.8.59.08,1.22.04,1.82-.05,1.21-.18,2.41-.44,3.62-.66,1.52-.91,3.22-1.57,4.38-3.01-.41-1.34-1.11-2.18-2.69-1.74-.54.15-.57-.29-.68-.71-.38-1.43-1.08-1.9-2.37-1.54-.78.22-1.5.67-2.35.61-.2-.01-.4-.08-.6-.12-.03-.1-.1-.2-.08-.28.61-2.61.57-2.47-2.06-3.42-1.89-.69-3.71-1.65-5.25-3.01Z"/>
        <path class="cls-11" d="m347.7,175.4c-.24-.56-.48-1.13-.71-1.69q-.46-1.12-1.83-1c-1.25.11-1.8-.2-1.79-1.33.02-2.09-.88-3.94-1.34-5.9-.15-.62-.41-1.13-.85-1.59-.99-1.02-1.49-1.04-2.52.01-.43.44-.85.89-1.28,1.32-.66.66-.77,1.35-.28,2.2.81,1.43.99,3.08,1.44,4.63.11.37.2.86.05,1.17-.57,1.15-.42,2.13.35,3.14.29.38.38.93.5,1.42.31,1.3.93,2.2,2.39,2.41.85.12,1.3.94,1.85,1.54.82-.46,1.4-1.11,1.8-1.99.68-1.48,1.48-2.9,2.23-4.35Z"/>
        <path class="cls-11" d="m238.39,231.92c.23-.87.71-1.73,0-2.59-.64-.78-.26-1.46.11-2.23.77-1.57.17-2.73-1.47-2.68-1.47.05-2.79-.36-4.17-.67-1.68-.37-3.4-.62-5.12-.75-1.59-.12-2.32,1.19-1.76,2.68.56,1.46,1.78,2.42,2.58,3.7.64.39.97,1.02,1.27,1.68.39.85,1.13,1.27,2,1.03,1.16-.33,2.18-.15,3.28.24,1.11.39,2.22.03,3.28-.4Z"/>
        <path class="cls-11" d="m195.08,169.8c-.06-.53-.1-1.06-.15-1.59.48-.37.93-.77.91-1.47-.04-1.17.69-1.95,1.46-2.6,1.89-1.57,3.82-3.1,5.83-4.51,1.51-1.06,2.35-.68,2.92,1.07.46,1.41.78,1.67,2.14,1.51.5-.06.98-.31,1.5-.15.4.13.74.36.91.76.55,1.26-.55,3.16-1.8,2.83-2-.53-3.66.19-5.27,1.01-1.91.97-3.86,1.97-5.42,3.49-.99.97-1.93,1.04-2.94.4-.03-.25-.06-.5-.09-.74Z"/>
        <path class="cls-11" d="m198.94,141.01c1.12-1.14,2.21-2.32,3.42-3.35.84-.72,1.88-1.42,3.07-1.21,1.8.31,3.57.76,5.34,1.22.51.13.82.6.86,1.16.04.67-.23,1.22-.82,1.53-.35.18-.79.34-1.16.29-2-.23-3.37.77-4.33,2.32-.78,1.25-1.96,2.08-2.94,3.11-.69.73-1.47,1.31-1.97,2.27-.57,1.1-1.89,1.09-2.78.09-.24-.27-.4-.61-.59-.93.61-2.17,1.26-4.33,1.91-6.5Z"/>
        <path class="cls-8" d="m294.97,113.68c1.43-.8,1.99-2.3,2.82-3.58,1.23-1.89,2.36-3.85,4.24-5.2-2.01-.84-4.16-.9-6.28-1.14-.64-.07-1.18.04-1.62.59-1.41,1.71-3.5,2.4-5.32,3.5-.39.23-.99.12-1.49.16.07.7-.16,1.32-.45,1.95-.45.95-1.06,1.86-1.07,2.97,1.21-.14,2.42-.26,3.63-.42,1.33-.18,2.65-.21,3.98-.06.73.08,1.05.55,1.27,1.15l.29.07Z"/>
        <path class="cls-11" d="m220.07,146.28c-1.76-3-1.61-2.61-5.21-1.83-1.6,1.21-3.08.72-4.48-.37-1.16-.9-2.28-.73-3.4.02-.88.59-1.01,1.8-.12,2.29,1.24.69,2.11,1.52,2.32,2.99.04.31.49.71.83.82,1.27.39,2.61,1.05,3.84.91,1.31-.15,2.05.11,2.84,1.07.51.62,1.33.28,2.02.05,1-1.86.73-4.01,1.36-5.95Z"/>
        <path class="cls-11" d="m367.37,26.24c.15.48.11,1.01.5,1.42.56.59,1.11,1.2,1.59,1.86,1.11,1.52,1.1,1.54,2.8.85.19-.08.37-.17.57-.23.64-.21.99.2.85.97-.27,1.44-.12,1.65,1.23,1.6.41-.01.81-.09,1.22-.11.4-.03.8-.03,1.24-.05-.1.26-.13.46-.23.61-.99,1.66-.81,2.19.89,2.5.8.14,1.63.17,2.44.29.54.08.48.42.47.89-.02,1.07.29,1.49,1.05,1.47,1.41-.05,2.88.2,4.17-.66-.23-1.94-1.86-2.89-3.07-4-3.62-3.34-7.82-5.79-12.53-7.33-1.05-.34-2.11-.88-3.19-.07Z"/>
        <path class="cls-11" d="m287.31,108.01c.5-.05,1.1.07,1.49-.16,1.82-1.1,3.91-1.79,5.32-3.5.45-.54.98-.66,1.62-.59,2.12.24,4.27.3,6.28,1.14.79.03,1.59.09,2.38.1.98,0,1.74-.34,2.08-1.36.36-1.05-.1-1.72-.97-2.22-1.43.31-2.8.05-4.18-.31-1.56-.42-3.13-.77-4.76-.89-1.62-.12-3.02.03-3.92,1.6-.21.36-.62.49-1.05.47-.88.47-1.77.93-2.65,1.42-.52.29-1.06.59-1.51.98-.54.46-.97,1.03-.98,1.79,0,.66.44,1.09.84,1.54Z"/>
        <path class="cls-11" d="m334.84,41.47c2.37-1.5,5.03-2.17,7.72-2.73.8-.17,1.59-.33,2.39-.51.43-.1.83-.39.8-.8-.04-.6-.59-.81-1.12-.76-.81.07-1.61.21-2.41.35-.7.12-1.45.38-2.1.06-1.46-.71-2.78-.11-4.13.31-.66.2-1.22.78-2.01.49-1,.43-2.02.78-2.06,2.19-.01.38-.58.75-.89,1.13.55,1.5.58,1.53-.38,2.21-.92.65-1.89,1.22-1.75,2.57.63.25,1.17.04,1.7-.3,2.36-1.51,5.01-1.86,7.74-1.85,1.43-.61,2.97-.51,4.47-.67.66-.07.78-.53.49-1.61-1.53-.22-3.04-.07-4.57.08-1.31.12-2.61.47-3.94.19-.27.11-.53.24-.81.32-.16.05-.35,0-.52,0,.09-.16.15-.36.28-.46.32-.24.7-.31,1.1-.19Z"/>
        <path class="cls-8" d="m244.87,149.11c2.48-.93,6.52-1.83,7.68-4.41.22-.48.26-1.02.22-1.57.12-.05.23-.1.34-.15.52,2.15,1.6,3.61,4.08,3.48.49-.02.98.12,1.47.16.78.06.58.63.59,1.09-2.48,1.52-4.96,3.04-7.44,4.55-.46-.02-.75-.28-.98-.64-.63-1.02-1.59-1.21-2.68-1.08-1.11.13-2.25.45-3.26-.35-.11-.39-.13-.76-.03-1.09Z"/>
        <path class="cls-11" d="m202.94,127.26c.43,1.09,1.18,1.61,2.4,1.42.82-.13,1.61-.3,2.3-.78,1.01-.7,2.11-1.31,3-2.13.71-.65,1.24-.73,2.16-.45,1.21.38,2.06-.19,2.44-1.24.23-.63.1-1.21-.3-1.73-.42-.54-1-.7-1.64-.56-.29.06-.56.25-.84.37-1.16.47-2.34.31-3.04-.66-1.23-1.69-2.66-1.66-4.33-.95-1.4,2.02-1.85,4.34-2.15,6.71Z"/>
        <path class="cls-11" d="m224.2,128.64c-1.61-.73-3.47-.26-5.09-1.01-.21-.1-.61.07-.86.22-2.03,1.15-2.98,3.03-3.39,5.23-.15.84.18,1.51,1.01,1.65,1.19.2,2.01.9,2.94,1.53.9.61,1.85.39,2.29-.59.47-1.04,1.25-1.58,2.17-2.05.3-.72.55-1.47.91-2.16.5-.95.48-1.87.02-2.81Z"/>
        <path class="cls-10" d="m251.81,152.28c-.46-.02-.75-.28-.98-.64-.63-1.02-1.59-1.21-2.68-1.08-1.11.13-2.24.45-3.26-.35-.84.15-1.52.62-2.21,1.08.35,2.43.61,2.87,2.79,3.22,1.13.18,1.86.63,2.41,1.53,2.47,2.07,1.67,1.98,4.75,1.03.88-.27,1.75-.52,2.5-1.08.54-.4.75-.96.65-1.6-.11-.68-.62-1.11-1.26-1.13-1.04-.03-2.03-.05-2.72-.98Z"/>
        <path class="cls-8" d="m291.06,121.75c1.03-.41,1.51-1.26,1.86-2.24.69-1.94,2.28-3.57,2.04-5.83l-.29-.07c-.39.33-.81.62-1.36.6-.71-.02-1.4-.09-2.11.15-2.16.71-4.4.68-6.64.52-.57.83-1.13,1.66-1.7,2.49-.32.47-.26.95-.03,1.43,1.92.05,3.71.66,5.52,1.2,1.07.31,2.02.83,2.7,1.76Z"/>
        <path class="cls-11" d="m266.82,219.76c-.92-.08-1.86-.09-2.71.29-1.68.75-3.11.4-4.56-.62-1.4-.99-1.95-.87-3.09.43-.53.61-1.06,1.25-1.47,1.94-.8,1.36.23,3.03,1.84,2.94.89-.05,1.79-.53,2.62.17.91-.07,1.82-.15,2.74-.22.75-.58,1.69-.64,2.54-.94.57-.2,1.13-.46,1.65-.77,1.39-.83,1.46-1.43.45-3.22Z"/>
        <path class="cls-11" d="m226.88,111.86c-1.04-.67-1.92-1.45-2.6-2.54-.66-1.06-1.96-.75-2.33.45-.15.49-.25,1-.32,1.5-.13.95-.54,1.65-1.29,2.33-1.23,1.11-1.05,2.42.28,3.32,1.04.7,2.12,1.35,3.37.35.6-.48,1.34-.47,2.06-.45,1.56-1.44,1.55-3.14.82-4.96Z"/>
        <path class="cls-5" d="m328.89,45.98c-.15-1.35.83-1.92,1.75-2.57.96-.68.93-.72.38-2.21-.62-.32-1.17-.12-1.73.19-2.17,1.19-3.9,2.93-5.64,4.62-1.98,1.93-2.29,4.23-.84,6.67,1.31-.91,2.61-1.84,4.18-2.29.33-1.6.53-3.26,1.9-4.42Z"/>
        <path class="cls-11" d="m227.38,94.15c-1.25-.04-2.2.35-2.45,1.73-.18.95-.6,1.7-1.53,2.13-.57.27-.88.81-1.22,1.33-1.43,2.23-1.11,2.86,1.35,3.99,1.57.72,2.69.51,3.78-.68.26-1.9.47-3.81.8-5.69.19-1.09-.04-1.99-.73-2.81Z"/>
        <path class="cls-11" d="m208.87,105.9c.67-.2,1.33-.43,1.97.16.43.4.88.41,1.4.19.37-.15.78-.29,1.17-.3.97-.04,1.71,1.07,1.31,1.94-.17.36-.48.66-.67,1.01-1.27,2.25-4.29,1.86-5.76,3.83-.18.25-.77.19-1.16.28-.1.02-.2.05-.3.08-.11-.08-.2-.16-.29-.24,1.06-2.28,1.83-4.6,2.33-6.95Z"/>
        <path class="cls-11" d="m207.2,215.23c.46-.79,1.06-1.54,1.36-2.39.73-2.11-.48-3.92-2.68-4.23-1.02-.14-1.8.18-2.33,1.09-.31.53-.57,1.1-.96,1.57-1.22,1.45-1.27,2.93-.28,4.5,1.75.94,3.34.31,4.9-.54Z"/>
        <path class="cls-10" d="m326.99,50.39c-1.57.45-2.87,1.37-4.18,2.29-.29,1.08-.49,2.15.5,3.01.31,0,.65.1.91-.01,1.39-.6,2.64-.83,3.84.49.48.53,1.43.2,1.81-.52.62-1.16,1.15-2.37,1.72-3.57-.54-1.28-1.37-1.85-2.76-1.2-.73.35-1.31-.01-1.84-.5Z"/>
        <path class="cls-9" d="m263.37,232.62c1.7-1.72,3.76-1.16,5.75-.88.61.09,1.14.51,1.46,1.05.9,1.48,2.08,1.42,3.42.71-1.04-1.09-2.12-2.14-2.83-3.51-.7-1.35-1.97-1.92-3.37-2.37-1.34-.43-2.36.13-3.41.76-1.82,1.6-1.92,2.01-1.03,4.23Z"/>
        <path class="cls-9" d="m220.91,64.74c-1.44.28-2.55-.59-3.71-1.15-1.56-.75-2.96-.47-4.35.36-.45.27-.81.62-.8,1.2.01.67.6,1.39,1.27,1.54.29.06.61.11.9.06,1.38-.22,2.69.16,3.83.8,1.26.71,2.28.67,3.36-.21.22-.18.57-.2.86-.3-.45-.77-.91-1.53-1.36-2.3Z"/>
        <path class="cls-9" d="m217.84,72.25c.18-.43.57-.61.98-.55.49.07,1.02.18,1.43.43.95.58,1.85,1.24,2.75,1.9.73.54,1.39,1.2,2.35,1.32.19.34.38.67.57,1,.14.81.29,1.61.46,2.41-.09.1-.18.19-.3.28-.88.41-1.68.09-2.19-.56-1.03-1.31-2.52-2.02-3.7-3.12-.74-.69-1.56-1.29-2.29-1.98-.32-.3-.21-.75-.05-1.14Z"/>
        <path class="cls-11" d="m260.14,138.13c.2.46.39.91.59,1.37.32.73-.44,1.74.34,2.21.5.3,1.33-.03,2,.06.65.08.92.7,1.22,1.2.49-.37,1.05-.58,1.67-.58,1.07,0,1.6-.68,2.01-1.53-.41-1.25-1.34-1.88-2.56-2.25-1.23-.37-2.56-.42-3.68-1.13-.53.22-1.06.43-1.59.65Z"/>
        <path class="cls-8" d="m278.34,285.68c.04-.29.17-.62.09-.88-.64-2.34-1.39-4.65-1.98-7-.59-2.38-1.83-4.46-2.81-6.67-.28.31-.5.65-.43,1.08.51,3.09.98,6.19,2.11,9.12.64,1.65,1.22,3.44,3,4.34Z"/>
        <path class="cls-11" d="m288.4,91.56c.65.64,1.26,1.34,1.97,1.92.98.8,1.89.85,2.49.27.64-.62.59-1.54-.13-2.5-.18-.24-.4-.46-.61-.69-.47-.54-.94-1.07-1.4-1.62-1.07-1.27-1.17-1.28-3.12-.36-.13,1.1.34,2.04.79,2.98Z"/>
        <path class="cls-11" d="m291.06,121.75c-.68-.93-1.63-1.44-2.7-1.76-1.81-.53-3.61-1.15-5.52-1.2-.13.14-.27.26-.42.36-.11,1.41.46,2.22,1.93,2.5,1.76.34,3.55.68,5.01,1.84.9-.26,1.45-.86,1.7-1.75Z"/>
        <path class="cls-11" d="m284.57,114.88c2.24.16,4.48.2,6.64-.52.71-.23,1.4-.17,2.11-.15.55.02.96-.27,1.36-.6-.23-.6-.54-1.07-1.27-1.15-1.33-.15-2.65-.12-3.98.06-1.21.16-2.42.28-3.63.42-.89.34-1.59.8-1.23,1.94Z"/>
        <path class="cls-11" d="m269.99,131.01c1.8,1.55,3.95,1.15,6.03,1.04.58-.03.81-.56.85-1.08.04-.54-.2-1-.72-1.2-.37-.14-.78-.16-1.17-.22-.89-.15-1.77-.3-2.66-.44-.31,0-.62-.02-.92.03-1.21.2-1.25.28-1.4,1.88Z"/>
        <path class="cls-9" d="m294.76,266.28c1.09,1.28,1.74,2.72,1.76,4.43,0,.49.21.98.32,1.47.34-.23.74-.48.72-.92-.19-3.55.01-7.12-.61-10.65-.03-.19-.18-.36-.27-.55-1.27.92-1.15,2.24-1.03,3.56.09,1.03.17,2.03-.89,2.67Z"/>
        <path class="cls-10" d="m387.1,87.07c-.11-.17-.21-.35-.33-.51-1.13-1.51-2.4-1.46-3.22.14-.18.36-.31.76-.41,1.15-.39,1.55-.14,2.04,1.45,2.84.18.09.37.16.56.24,1.69-.76,1.81-2.31,1.95-3.86Z"/>
        <path class="cls-9" d="m218.61,57.45c-.62.68-1.31.1-1.97.1-.54,0-.99.25-1.22.72-.25.5-.09,1.07.31,1.36,1.34.99,2.15,2.7,3.99,3.04,1.02-.71,1.18-1.6.54-2.65-.54-.87-1.09-1.73-1.64-2.59Z"/>
        <path class="cls-9" d="m307.34,62.95c-.5-.65-1.03-1.25-1.96-1.12-.18.03-.4.15-.49.3-.63.98.12,1.7.53,2.46.41.75,1.04.85,1.77.4.48-.65.62-1.32.16-2.04Z"/>
        <path class="cls-6" d="m392.25,75.34c.1.43.19.85.29,1.28,1.27-1.27,2.4-2.64,2.82-4.45-.32.12-.64.24-.96.36-.92.78-1.1,2.13-2.16,2.82Z"/>
        <path class="cls-9" d="m296.85,272.18c-.54,1.68-.27,3.33.18,4.98.2-.22.57-.42.59-.65.13-1.5.26-3.02-.77-4.33Z"/>
        <path class="cls-8" d="m388.72,34.03c1.22-.96,1.52-2.25,1.36-3.71-1.53.84-1.98,2.08-1.36,3.71Z"/>
        <path class="cls-9" d="m215.57,222.15c-.32-.89-.93-1.28-1.88-1.1.44.69.83,1.45,1.88,1.1Z"/>
        <path class="cls-9" d="m297.03,277.15c-.41.74-.44,1.49,0,2.23q.74-.96,0-2.23Z"/>
        <path class="cls-11" d="m257.18,139.54c.73-.45,1.47-.9,2.2-1.34-1.51-.05-1.57-.02-2.2,1.34Z"/>
        <path class="cls-11" d="m259.05,200.65c-.41-.03-.82-.03-1.22-.09-2.9-.45-5.01,1.41-6.13,4.04-.73,1.71.15,4.61,2.59,5.01,1.7.28,3.37.69,5.15.36.38,1.23.62,2.32,1.04,3.34.69,1.66,2.03,2.53,3.8,2.63.93.05,1.81-.16,2.45-.98.31-.39.76-.68,1.14-1.01.11-.71.24-1.42.33-2.13.11-.83.12-1.7-.3-2.41-.8-1.35-1.17-2.83-1.61-4.3-.59-1.96-2.29-2.8-4.03-3.49-1.04-.41-2.24-.33-3.23-.97Z"/>
        <path class="cls-11" d="m334.38,67.2c-1.43-1.3-2.93-2.52-4.26-3.92-1.14-1.19-2.35-1-3.67-.59-.34.1-.52.83-.26,1.05.47.39,1,.71,1.46,1.11.31.26.66.55.79.9.13.34.05.8-.05,1.17-.13.47-.58.57-.99.46-.89-.23-1.85-.38-2.64-.8-1.55-.84-2.74.22-4.06.57-.28.07-.34.54-.15.8.29.41.63.79,1.01,1.12,2.01,1.74,4.02,3.47,6.06,5.18,1.8,1.51,3.64,2.98,5.46,4.46,1.26.87,2.49,1.78,4.02,2.15.49.12.98-.34,1.01-.87.06-.92-.35-1.57-1.08-2.06-2.67-1.78-3.9-4.67-5.57-7.23-.08-.12-.04-.41.06-.52.1-.12.37-.23.52-.18,1.96.63,3.73,1.66,5.53,2.62.63.33,1.25.7,1.9.99.28.12.64.02.76-.31.09-.27.2-.68.06-.86-.3-.39-.73-.69-1.13-1-1.68-1.31-3.67-2.27-4.79-4.22Z"/>
        <path class="cls-11" d="m233.95,199.44c-.1.5-.29,1.01-.29,1.51.03,2.03,1.27,3.15,3.31,3.05.3-.01.61-.05.91-.05.08,0,.17.1.28.17.19.79-.66.86-.97,1.31-.29.42-.65.81-1.05,1.12-.75.58-.93,1.31-.8,2.18.2,1.33.23,2.57-.42,3.88-.71,1.43.14,2.79,1.69,3.35,1.07.38,2.28-.02,3.28.67.8-.15,1.6-.32,2.4-.45.54-.09.98-.3,1.18-.84.24-.64,0-1.17-.37-1.71-.4-.6-1.65-.23-1.54-1.18.06-.5.79-.89,1.14-1.39.31-.44.32-.98.07-1.47-.37-.73-.82-1.43-1.16-2.17-.43-.93-.29-1.44.52-2.17.23-.2.54-.32.76-.52,1.25-1.16,1.36-2.34.48-3.85-.49-.83-1.31-1.3-1.91-1.98-.55-.62-1.14-1.18-1.82-1.63-2.09.24-4,.94-5.7,2.18Z"/>
        <path class="cls-8" d="m296.09,133.42c1.31,2.15,2.88,3.42,4.9,4.06,1.84.58,3.41-.39,3.68-2.15.15-1-.18-1.95-.94-2.46-1.46-.99-2.15-2.38-2.69-3.95-.16-.47-.47-.91-.81-1.27-.94-1.01-2.2-1.27-3.34-.77-1.35.6-2.03,1.72-1.93,3.16.07,1.02.64,2.6,1.13,3.39Z"/>
        <path class="cls-10" d="m361.02,113.67q1.03-1.58-.24-3.3c-1.09-.26-2.17-.53-3.16-1.13-1.06-.64-2.28-.83-3.52-.93-.78-.06-.98,1.25-1.77.79-.61-.35-1.11-.87-1.84-1.04-.89-.22-1.75-.53-2.64-.76-.85-.22-1.67.28-1.83,1.18-.16.9-.23,1.83-.22,2.74,0,.84.83,1.51,1.69,1.4.6-.07,1.18-.29,1.76-.48.87-.29,1.73-.6,2.59-.93.42-.16.81-.15,1.11.19.66.75,1.46,1.05,2.46.96.37-.03.79.17,1.14.36,1.39.75,2.89,1,4.45.93Z"/>
        <path class="cls-9" d="m326.99,50.39c.53.48,1.11.84,1.84.5,1.39-.66,2.22-.08,2.76,1.2.13.02.27.05.4.08.65-.43,1.3-.86,1.95-1.29,1.18-2.07,2.45-4.1,3.88-6.01.25-.33.48-.63.5-1.05-2.73,0-5.37.34-7.74,1.85-.53.34-1.07.55-1.7.3-1.37,1.16-1.57,2.81-1.9,4.42Z"/>
        <path class="cls-11" d="m356.23,88.38c1.74.4,3.47.23,5.21-.02,1.84-.26,3.34-.99,3.87-2.99.1-.38.43-.7.6-1.07.51-1.16.42-1.4-.89-2.5-.7.13-1.43.21-1.71,1.03-.62,1.85-2.08,2.32-3.81,2.35-.51,0-1.01,0-1.52,0-.85,0-1.62.17-2.09.96-.49.83-.14,1.55.34,2.24Z"/>
        <path class="cls-8" d="m332.33,121.91c.69-.45.91-.99.82-1.66-.08-.56-.43-.94-.95-1.11-.68-.22-1.43-.27-2.08-.55-1.65-.71-3.67-.57-4.92-2.26-.36-.49-1.15-.38-1.75-.21-.66.19-1,.71-1.09,1.35-.08.53.07,1.07.55,1.35,1.77,1.01,3.54,2,5.35,2.93,1.03.53,2.19.52,3.32.39.3-.03.58-.18.74-.24Z"/>
        <path class="cls-8" d="m304.06,187.42c.92,1.33,3.11,1.76,4.39.86,1.32-.93,1.75-3.11.85-4.39-.92-1.32-3.11-1.75-4.39-.86-1.33.93-1.75,3.1-.85,4.39Z"/>
        <path class="cls-8" d="m233.3,191.63c-.37-.66-.76-1.11-1.31-1.43-.96-.56-1.96-.64-2.89-.06-.81.51-1.19,1.35-1.18,2.35,0,.73.22,1.4.58,2.03.8,1.41,2.31,2.03,3.58,1.46,1.24-.56,1.93-2.19,1.51-3.63-.08-.29-.23-.56-.3-.71Z"/>
        <path class="cls-8" d="m306.47,166.63c.72,1.32,2.41,1.89,3.7,1.27,1.55-.75,2.12-2.66,1.25-4.2-.8-1.41-2.64-1.95-3.98-1.17-1.25.73-1.72,2.73-.96,4.1Z"/>
        <path class="cls-10" d="m373.79,73.59c-.31-.39-.55-.96-.96-1.15-.96-.45-1.34-1.16-1.42-2.15-.06-.81-.78-1.14-1.32-1.59-.86.31-1.74.59-1.88,1.7-.11.85,0,1.85.7,2.17,1.58.71,1.33,2.37,2.11,3.46.71.89,1.54,1.13,2.55.5.33-.2.67-.39,1-.59h0c-.55-.68-.76-1.48-.78-2.35Z"/>
        <path class="cls-11" d="m207.44,190.19c-.51-.31-.98-.72-1.54-.9-1.21-.41-2.49.07-3.17,1.07-.6.88-.49,2.37.3,3.34.24.3.62.49.94.73.29.04.59.14.88.11,2.34-.2,3.12-1.16,2.83-3.5-.04-.29-.16-.57-.25-.85Z"/>
        <path class="cls-8" d="m347.72,87.4c.73,1.46,4.9,2.54,6.39,1.66.8-.48.88-1.95.05-2.34-1.66-.79-3.45-1.26-5.28-1.37-.91-.06-1.57,1.23-1.16,2.06Z"/>
        <path class="cls-11" d="m213.61,199.27c.7-.36,1.26-.96,1.69-1.67.34-.56.4-1.17-.03-1.73-.44-.56-1.32-.8-1.95-.48-.64.32-1.26.7-1.82,1.15-.84.68-.98,1.72-.43,2.46.55.75,1.51.87,2.54.27Z"/>
        <path class="cls-10" d="m333.94,50.88c-.65.43-1.3.86-1.95,1.29.22,1.72,1.42,2.18,2.92,2.24.78-.23,1.56-.49,1.96-1.28.33-.65.48-1.34.04-2.01-.44-.67-1.09-.86-1.84-.66-.39.1-.75.28-1.12.43Z"/>
        <path class="cls-10" d="m338.44,142.76c2.02.72,2.66.4,2.85-1.45.05-.5.05-1,.12-1.49.17-1.05-.37-1.7-1.19-2.21-1.4.26-1.96,1.21-2.18,2.52-.16.94.07,1.78.39,2.63Z"/>
        <path class="cls-8" d="m330.35,91.2c.44.83,1.17,1.5,2.26,1.71.65.13,1.22,0,1.64-.56.42-.57.39-1.43-.15-1.97-.5-.5-1.07-.96-1.66-1.36-.68-.46-1.41-.38-1.98.11-.54.46-.61,1.17-.1,2.07Z"/>
        <path class="cls-11" d="m374.57,75.94c-.33.2-.67.39-1,.59-1.01.62-1.84.39-2.55-.5-.42.26-.81.57-1.26.78-.93.43-1.31,1.16-1.31,2.13.51.73,1.21,1.07,2.09,1.09.55.02,1.2-.12,1.31-.6.32-1.38,1.56-1.81,2.4-2.66.19-.19.22-.55.32-.83Z"/>
        <path class="cls-10" d="m328.05,171.51c.5-.05,1.03-.02,1.49-.18.83-.29,1.15-.87.97-1.65-.21-.88-.38-1.8-1.07-2.48-.98-.28-1.83-.09-2.38.79-.55.88-.29,1.74.3,2.52.12.16.24.33.35.49s.23.33.34.5Z"/>
        <path class="cls-8" d="m277.04,162.29c.53.77,1.64.98,2.41.47.77-.52.99-1.64.47-2.4-.53-.77-1.65-.99-2.41-.47-.76.52-.98,1.65-.47,2.41Z"/>
        <path class="cls-8" d="m322.93,165.86c.36.68,1.36.98,2.16.64.86-.37,1.29-1.54.86-2.32-.37-.67-1.38-.98-2.16-.65-.83.34-1.27,1.54-.85,2.33Z"/>
        <path class="cls-10" d="m315.39,90.31c.11.49.17,1,.34,1.47.32.88,1.06,1.21,1.97.96.72-.2,1.17-.85,1.13-1.62-.04-.72-.66-1.26-1.42-1.36-.78-.1-1.32.52-2.03.61v-.06Z"/>
        <path class="cls-10" d="m314.1,88.23c-.69.08-1.4,0-2.03.42-.54.36-.88.82-.83,1.48.04.57.44.87.93,1.06.37.14.75.26,1.13.39.7-.43,1.4-.85,2.09-1.28v.06c-.44-.71-.87-1.42-1.3-2.13Z"/>
        <path class="cls-8" d="m283.84,132.73c.43.7,1.61.99,2.44.6.5-.24.78-1.13.5-1.58-.41-.68-1.64-.98-2.45-.6-.49.23-.77,1.13-.49,1.58Z"/>
        <path class="cls-8" d="m268.25,197.75c.36.66,1.14.86,1.84.47.83-.45,1.09-1.29.65-2.05-.39-.66-1.29-.93-1.82-.55-.72.51-1.02,1.47-.66,2.12Z"/>
        <path class="cls-11" d="m334.12,159.13c.55.23,1.11.61,1.68.07.24-.22.24-.55.07-.84-.42-.73-1.04-.4-1.62-.29-.05.35-.09.7-.14,1.05Z"/>
        <path class="cls-11" d="m331.75,189.16c.09-1.28-.96-1.9-2.13-2.42-.43-1.48-1.9-2.73-.9-4.55.38-.7.49-1.56.67-2.36.14-.61.05-1.22-.28-1.78-.39-.67-1.11-1.08-1.79-.92-.66.16-1.17.6-1.16,1.27.02,1.52-.71,2.75-1.29,4.06-.7,1.57-1.09,3.12.28,4.58.45.48.47,1.11.52,1.73.05.61,0,1.36.32,1.78,1.04,1.34.78,2.66.28,4.06-.4,1.13-.36,2.22.42,3.21.49.62.62,1.25.24,1.99-.19.36-.3.77-.37,1.17-.11.65.05,1.21.71,1.53.69.33,1.39.44,2.03-.06.31-.25.58-.6.76-.95,1.36-2.65,2.69-5.31,4.02-7.96.05-.09.07-.19.11-.29.49-1.3.27-2.67-1.33-3.25-.38-.13-.82-.17-1.11-.83Z"/>
        <path class="cls-11" d="m373.79,73.59c.01.87.23,1.67.78,2.36,1.03-1.11,2.04-2.24,3.11-3.32.26-.26.74-.55,1.05-.48.73.16.33.79.3,1.23-.02.3-.12.61-.12.91,0,.42.07.87.45,1.08.82.47,1.4,1.16,1.96,1.9.28.37.7.46,1.08.25.39-.22.52-.65.33-1.05-.26-.55-.54-1.11-.91-1.58-.68-.87-.9-1.79-.6-2.86.85-3.04,1.03-6.27,2.77-9.03.31-.49.2-.97-.12-1.42-.19.07-.38.13-.57.2-1.26.48-1.31.47-1.93-.52-.16-.26-.27-.54-.4-.81h.05c-.66.44-.83,1.14-1.09,1.81-.31.83-.34,1.79-.95,2.52-.88-.26-.92-1.1-1.34-1.62-.92-1.12-1.66-1.24-2.9-.41-.17.11-.33.25-.49.37-1.15.91-1.31,1.27-.88,2.61.83,2.59.87,5.21.43,7.86Z"/>
        <path class="cls-11" d="m296.6,217.26c.8,1.29,1.67,1.72,2.75,1.38,1.68-.52,2.37-1.55,2.23-3.19-.09-1.07-.55-1.97-1.22-2.76-.74-.88-2.03-1.14-3.07-.69-1.17.51-1.7,1.39-1.61,2.68.06.91.31,1.6.91,2.57Z"/>
        <path class="cls-10" d="m344.66,145.76c-.42-.69-.77-1.45-1.29-2.06-.5-.59-1.26-.66-1.97-.37-.65.27-.79.92-.76,1.53.02.5.14,1.02.35,1.47.59,1.29,1.24,2.55,1.9,3.81.13.25.4.46.64.64.64.49,1.33.44,2,.06.67-.38.95-1.04.76-1.82-.29-1.2-.86-2.28-1.62-3.25Z"/>
        <path class="cls-11" d="m318.36,192.63c1.33-.85,1.68-2.38.84-3.73-.81-1.32-2.53-1.76-3.71-.95-1.09.75-1.59,2.86-.91,3.86.86,1.28,2.51,1.64,3.78.82Z"/>
        <path class="cls-10" d="m368.39,115.87c.37-.27.74-.55,1.11-.82-.06-1.69-.91-2.89-2.37-3.66-.44-.23-.95-.36-1.45-.42-.64-.08-1.21.11-1.54.74-.36.66-.3,1.52.29,1.95,1.23.89,2.41,1.88,3.96,2.22Z"/>
        <path class="cls-11" d="m282.98,241.69c-.18.24-.59.69-.92,1.19-.53.8-.53,1.53-.08,1.94.68.62,1.88.69,2.51.07.42-.42.79-.93,1.08-1.46.45-.81.26-1.65-.4-2.19-.51-.41-1.24-.32-2.18.44Z"/>
        <path class="cls-10" d="m351.45,159.41c1.22-.64,1.47-2.72.43-3.64-.79-.7-2.11-.39-2.5.59-.32.8-.24,1.58.04,2.35.27.74,1.31,1.08,2.03.7Z"/>
        <path class="cls-10" d="m333.17,175.38c-.37-.8-1.61-1.02-2.33-.42-.73.62-1.08,1.43-1.09,2.38,0,.68.66,1.32,1.38,1.33,1.48.02,2.68-1.92,2.04-3.29Z"/>
        <path class="cls-11" d="m301.5,229.67c1.42-.77,1.77-2.18.74-3.2-.26-.25-.69-.42-1.06-.45-.67-.06-1.42.78-1.74,1.83-.21.69.06,1.48.64,1.85.41.27.9.26,1.42-.03Z"/>
        <path class="cls-11" d="m335.39,162.82c.31.49.94.62,1.55.32.44-.22.63-.88.35-1.24-.34-.45-1.03-.51-1.58-.08-.31.24-.56.56-.33,1.01Z"/>
        <path class="cls-11" d="m384.07,60.72c-.35.23-.45.52-.21.89.32-.23.38-.53.21-.89Z"/>
        <path class="cls-9" d="m220.3,87.18c-.08-.81.06-1.73-.28-2.41-.67-1.32-.93-2.45,1.08-3.52-1.84-.27-2.74-.18-3.01,1.2-.26,1.35-1.32,1.73-2.49,1.84-1.39.13-1.99-.62-1.73-2.06.19-1.06-.02-1.49-.89-1.84-.64-.26-1.28.12-1.31.81-.02.51-.11,1.08.09,1.51.57,1.23.39,2.34-.08,3.55-.34.88.45,1.62,1.42,1.31,1-.31,1.95-.62,2.97-.19.54.23,1-.04,1.42-.34,1.13-.81,1.89-.24,2.59.65.1-.16.17-.34.22-.52Z"/>
        <path class="cls-11" d="m217.9,102.78c1.19-.61,1.67-2.25.99-3.42-.31-.54-1.01-.76-1.59-.5-1.11.5-1.82,1.8-1.63,3,.14.86,1.36,1.36,2.22.91Z"/>
        <path class="cls-9" d="m395.42,58.93c.29.57.33.66.38.75.31.57.7,1.05,1.44.79.65-.23.95-1.11.65-1.81-.28-.67-.65-1.29-1.31-1.64-.35-.19-.76-.31-1.15-.06-.4.26-.5.67-.39,1.06.13.48.4.93.39.9Z"/>
        <path class="cls-7" d="m392.25,75.34c1.06-.68,1.23-2.04,2.16-2.82.02-.64-.11-1.22-.84-1.34-.55-.09-.9.31-1.17.75-.46.77-.92,1.54-1.01,2.45-.06.62.31.88.87.95Z"/>
        <path class="cls-8" d="m401.91,52.05c-.62-.61-.61-1.46-.84-2.21-.16-.51-.52-.88-1.12-.72-.61.16-.65.67-.63,1.19,0,.1.01.2.02.3.19,1.81.67,2.07,2.58,1.43v.02Z"/>
        <path class="cls-7" d="m395.47,51.82c.46.54,1.46.47,2.21-.15.46-.39.49-1.12.06-1.63-.51-.61-1.23-.65-1.87-.1-.62.53-.8,1.4-.39,1.88Z"/>
        <path class="cls-7" d="m390.8,37.12c.37.38.74.51,1.15.48.69-.05,1.09-.45,1.29-1.08.16-.5.16-1-.27-1.38-.46-.41-.93-.21-1.37.05-.45.26-.8.63-.88,1.16-.04.28.06.57.08.77Z"/>
        <path class="cls-9" d="m397.15,67.96c-.21-.34-.42-.67-.62-1.02-.26-.46-.56-.86-1.17-.67-.54.17-.76.62-.89,1.12-.15.63.38,1.28,1,1.15.58-.13,1.13-.4,1.69-.6v.03Z"/>
        <path class="cls-9" d="m392.24,46.6c.27.45.93.61,1.3.28.48-.42.37-.9.07-1.35-.23-.35-.53-.62-1.01-.48-.54.16-.73.96-.37,1.55Z"/>
        <path class="cls-9" d="m202.93,65.97c.42.73,1.44.94,1.93.49.15-.14.32-.28.4-.46.87-2.01,2.55-3.04,4.47-3.87,1.21-.52,1.51-1.13,1.31-1.78-.24-.82-1.21-1.21-2.31-.82-2.6.92-4.66,2.49-5.79,5.09-.21.49-.23.99,0,1.35Z"/>
        <path class="cls-9" d="m207.33,68.84c-1.56.77-2.1,1.67-2.06,2.9.02.64.34,1.2.91,1.47.61.29,1.2.05,1.63-.43.54-.6,1.05-1.19,1.72-1.68.82-.6.9-1.15.52-1.79-.41-.69-1.02-.98-1.79-.82-.48.1-.94.34-.94.34Z"/>
        <path class="cls-9" d="m211.68,76.25c-1.05.96-2.19,1.95-3.26,3.01-.26.26-.29.75-.07,1.14.3.51.78.64,1.3.51.38-.1.85-.25,1.06-.54.74-1.01,1.76-1.64,2.75-2.35.72-.51.89-1.34.48-1.83-.41-.5-1.19-.56-1.94-.14-.09.05-.17.11-.33.2Z"/>
        <path class="cls-9" d="m203.31,58.33c-.31-.59-.91-.83-1.49-.6-.72.29-1,1.03-.65,1.7.3.58.92.83,1.5.6.72-.28,1-1.02.65-1.7Z"/>
        <path class="cls-8" d="m225.85,89.28c.13.02.25.04.38.06-.05-.03-.1-.1-.15-.09-.08,0-.16.05-.24.08v-.05Z"/>
        <path class="cls-11" d="m381.17,59.58c1.09-.7,1.17-1.86,1.32-2.96.04-.26-.09-.66-.29-.83-.76-.67-1.46-1.47-2.51-1.7-.39-.08-.81-.11-1.2-.04-1,.18-1.45,1.39-.78,2.14.47.53,1.06.95,1.58,1.45.66.64,1.29,1.3,1.93,1.95h-.05Z"/>
        <path class="cls-11" d="m380.96,60.44c.25-.24.35-.52.21-.86h.05c-.07.3-.14.58-.21.87h-.05Z"/>
        <path class="cls-9" d="m162.2,204.81c.4.63.97.95,1.76.86.1-.01.21-.04.29-.1.35-.27.54-.64.29-1.05-.49-.77-1.38-.99-2.09-.55-.3.18-.32.48-.24.83Z"/>
        <path class="cls-11" d="m178.22,207.43c.83,1.15,2.33,1.41,3.52.6,1.11-.75,1.43-2.51.65-3.52-.77-.99-2.36-1.28-3.31-.6-1.15.83-1.57,2.53-.86,3.52Z"/>
        <path class="cls-11" d="m183.85,200.25c-.11.11-.45.36-.64.7-.12.22-.11.62,0,.86.48,1.04,2.2,1.16,2.83.24.42-.62.42-1.55,0-2.01-.42-.44-1.14-.42-2.19.21Z"/>
        <path class="cls-11" d="m175.72,210.97c-.12-.05-.24-.1-.36-.15.04.05.07.13.11.14.08.02.17-.01.26-.02v.03Z"/>
        <path class="cls-9" d="m284.4,275.21c.51.63,1.64.74,2.15.21.57-.6.58-1.61-.04-2.16-.4-.35-.89-.47-1.37-.11-.77.6-1.12,1.59-.75,2.05Z"/>
        <path class="cls-9" d="m274.19,261.58c-.51.37-.54.81-.27,1.31.28.53.87.8,1.2.51.41-.36.5-.83.28-1.33-.21-.48-.8-.7-1.2-.48Z"/>
        <path class="cls-9" d="m292.69,275.46c.37.29,1.06.17,1.25-.26.16-.37.14-.76-.22-1.05-.36-.28-.71-.25-1.04.04-.39.35-.38.96.01,1.27Z"/>
        <path class="cls-9" d="m295.85,70.12c.12.16.22.33.35.48.28.34.65.48,1.06.27.39-.2.58-.6.42-1-.18-.45-.45-.89-.76-1.26-.28-.34-.73-.36-1.08-.11-.36.25-.41.66-.25,1.07.07.19.17.36.26.54Z"/>
        <path class="cls-9" d="m291.59,71.81c-.78.38-1.07,1.34-.58,2.01.28.38.72.4,1.07.18.63-.4.88-1.27.54-1.84-.21-.36-.59-.52-1.03-.35Z"/>
        <path class="cls-9" d="m302.15,67.19c.32.35.72.36,1.08.13.65-.4.78-1.32.27-1.81-.32-.31-.74-.36-1.11-.17-.59.3-.7,1.26-.24,1.84Z"/>
        <path class="cls-9" d="m298.66,61.32c.42-.22.62-.53.47-.98-.15-.44-.47-.63-.92-.54-.52.1-.82.72-.54,1.16.23.36.57.54.99.37Z"/>
        <path class="cls-9" d="m297.27,67.47c.31.4.7.3,1.04.06.39-.27.42-.67.13-1.03-.29-.36-.72-.38-1.06-.12-.36.28-.35.68-.12,1.09Z"/>
        <path class="cls-10" d="m309.45,85.33c.77-.38,1.44-.85,1.32-1.84-.09-.78-.78-1.3-2.11-1.34-.86-.02-1.58-.21-2.31-.65-.72-.43-1.38-.2-1.92.39-.46.5-.55,1.11-.29,1.71.24.56.54,1.12.92,1.58,1.08,1.3,2.38,1.33,4.38.16Z"/>
        <path class="cls-11" d="m292.74,89.54c.28.59,1.45.98,2.14.72.78-.29,1.27-1.53.91-2.27-.38-.78-1.53-1.06-2.37-.58-.64.37-1,1.48-.69,2.13Z"/>
        <path class="cls-11" d="m244.98,208.18c.53.69,1.82,1.01,2.49.61.62-.37.92-1.59.54-2.19-.51-.79-1.96-.97-2.74-.35-.56.45-.7,1.39-.28,1.94Z"/>
        <path class="cls-11" d="m320.72,73.06c-1.38-1.96-3.65-3.65-6.19-5.03-.57-.31-1.18-.2-1.77.07-.66.3-.89,1.03-.36,1.44,1.78,1.38,3.27,3.06,4.87,4.63.71.71,1.6,1.25,2.45,1.81.58.38,1.18.24,1.64-.27.38-.43.36-.93.1-1.42-.14-.27-.32-.52-.75-1.24Z"/>
        <path class="cls-11" d="m322.27,78.78c.6.6,1.16,1.18,1.74,1.74.33.32.76.38,1.1.13.49-.36.43-.91.09-1.33-.49-.63-1.04-1.23-1.6-1.79-.66-.66-1.24-.78-1.49-.39-.31.49-.23,1.13.17,1.64Z"/>
        <path class="cls-8" d="m379.43,101.82l-.05.4c.05-.12.11-.25.16-.37l-.11-.03Z"/>
        <path class="cls-11" d="m277.96,127.05c-.11.22-.36.55-.45.92-.1.41.08.79.47,1.01.72.4,1.5.58,2.32.55.44-.01.8-.25.97-.62.17-.37.11-.8-.16-1.14-.69-.85-2.09-1.22-3.16-.73Z"/>
        <path class="cls-8" d="m334.84,41.47c-.4-.12-.78-.05-1.1.19-.13.1-.19.31-.28.46.17,0,.36.04.52,0,.28-.08.54-.21.81-.32.02-.11.03-.22.05-.33Z"/>
      </g>
      <path class="cls-12" d="m254.36,144.33c.6,1.02.64,1.36,0,1.73-3.18,1.88-6.21,4.03-9.82,5.09-2.28.67-4.39,1.7-6.34,3.1-3.93,2.82-8.05,5.34-12.23,7.77-5.28,3.07-9.97,6.87-14,11.48-7.1,8.12-14.92,15.57-21.92,23.78-.52.61-.96,1.36-1.78,1.67-.32.12-.64.07-.81-.2-.14-.24-.3-.65-.2-.82.43-.68.94-1.32,1.47-1.94.67-.77,1.55-1.4,1.79-2.67-.73.22-1.33.37-1.89.59-4.15,1.62-8.43,2.6-12.88,2.9-3.18.21-6.35.5-9.53.65-6.36.31-12.73.63-19.09-.03-1.32-.14-2.68-.19-3.8.8,1.15,1.4,1.15,1.44.03,2.36-.8.66-1.55,1.38-2.73.78-.42-.22-.48.26-.57.5-.15.38-.25.78-.33,1.19-.47,2.53.11,3.83,2.33,5.12,1.07.62,2.14,1.24,3.29,1.69,2.73,1.07,5.61,1.65,8.41.58,1.15-.44,2.13-.57,3.22-.35,1.1.23,2.2.51,3.27.86,1.95.65,3.8,1.55,5.63,2.49,1.55.79,3.19,1.59,5,1.16,2.34-.55,4.7-.37,7.06-.38,1.32,0,2.67.29,3.93-.41.23-.13.69-.14.87.01,1.33,1.08,2.94.78,4.44.88,3.9.27,7.8.39,11.7.6,3.74.2,7.41-.26,10.93-1.47,5.54-1.9,11.16-3.52,16.81-5.07,5.65-1.55,11.01-3.99,16.72-5.36.49-.12.97-.35,1.41-.61,2.14-1.29,4.56-1.87,6.86-2.72.57-.21,1.21-.35,1.81-.31,1.85.11,3.68.24,5.47-.45.12-.05.38.12.5.25.23.25.18.57.04.86-.29.6-.82.88-1.43,1.06-1.01.3-2.04.19-3.06.24-.27.01-.76.11-.78.24-.21,1.21-1.4,1.73-1.85,2.8-.81,1.92-.55,3.1,1.24,4.16,1.6.95,3.22,1.2,4.95.18.9-.53,1.85.13,1.84,1.16,0,.3-.09.6-.19.89-.31.87-.02,1.59.5,2.29,1.67,2.25,3.58,2.65,6.2,1.32.88-.44,1.78-1.62,2.75-.87,1.17.91.06,2.05-.31,3.03-1.25,3.37-2.56,6.72-3.86,10.08-1.05,2.7-1.19,5.41.02,8.1,1.19,2.64,2.03,5.37,2.37,8.26.1.81.34,1.61.59,2.39,1.29,4.01,2.5,8.04,3.92,12,1.85,5.16,3.21,10.39,3.32,15.9.03,1.34.3,2.66.81,3.9,1.49,3.61,2.99,7.21,4.51,10.8.4.94.87,1.86,1.39,2.75.49.84,1.48.8,1.96-.06.87-1.54,1.32-3.23,1.56-4.97.09-.65-.12-1.21-.48-1.74-.17-.25-.31-.52-.41-.8-.12-.33.37-.79.75-.77.7.04,1.11.45,1.43,1.01.55.95.55,1.98.37,3-.47,2.65-1.16,5.21-3.15,7.17.8,1.21,1.91,1.99,3.04,2.68,1.84,1.12,3.79.46,4.46-1.57.41-1.26.55-2.61.78-3.92.11-.6.1-1.23.25-1.82.06-.22.44-.48.67-.49.23,0,.59.26.67.49.35,1,.12,2.04,0,3.05-.31,2.48-.71,4.93-3.12,6.4-.11.07-.16.39-.09.53.07.15.3.29.48.32.86.12,1.63-.19,2.3-.68,2.23-1.61,3.45-3.79,3.37-6.56-.06-1.95-.27-3.89-.4-5.84-.37-5.43-1.11-10.84-.95-16.3.1-3.51.02-7-.73-10.43-.44-2.03.17-3.55,1.45-5.05,1.06-1.24,2.05-2.58,2.89-3.98,1.75-2.91,3.12-6.02,4.45-9.14.2-.47.53-1.04.41-1.45-.38-1.25.26-2.2.71-3.22.87-1.97,1.72-3.96,2.68-5.89,2.68-5.38,4.35-11.09,5.58-16.94,1.01-4.84,1.74-9.72,1.2-14.69-.02-.2-.05-.42,0-.61.09-.41.25-.79.72-.9.48-.12.79.15.99.52.72,1.32.66,2.78.64,4.21-.06,4.02-.59,7.99-1.41,11.93-.17.8-.34,1.61-.46,2.42-.02.16.11.41.25.51.13.09.44.1.54.01.9-.83,1.8-1.68,2.66-2.56,3.97-4.04,7.52-8.45,10.75-13.08,1.7-2.44,3.4-4.87,5.23-7.19,3-3.79,5.84-7.68,8.53-11.69,2.12-3.16,3.89-6.53,5.37-10.05.32-.76.63-1.52.87-2.3.08-.25,0-.64-.15-.85-.16-.21-.5-.31-.81-.08-.24.18-.5.35-.77.5-.39.2-.84.22-1.14-.07-.32-.31-.26-.75,0-1.12,1.86-2.71,3.68-5.45,5.59-8.12.95-1.33,2.12-2.51,2.58-4.15.14-.49.4-1.09.96-1.1,1.44-.02,1.81-1.13,2.35-2.09,3.79-6.71,7.59-13.41,11.38-20.12,4.26-7.55,7.79-15.42,10.08-23.79,1.11-4.05,2.59-8.03,2.98-12.26.04-.42.14-.85.56-1.02.93-.39.93-1.27,1.12-2.05,1.29-5.24,3.39-10.12,6.26-14.69.87-1.39,1.64-2.85,2.51-4.24.39-.63.4-1.73,1.55-1.59.7.09.7.89-.06,2.39-.51,1.01-1.12,1.97-1.62,2.98-.45.89-1.42,1.63-1.11,2.77.45,1.69-1.6,1.34-1.88,2.44-.12.49-.43.93-.65,1.39-1.53,3.16-2.6,6.48-3.4,9.89-.66,2.8-1.36,5.6-2.19,8.35-.77,2.56-1.81,5.03-2.6,7.58-2.62,8.38-6.2,16.32-10.54,23.94-3.57,6.25-7.07,12.52-10.61,18.78-.86,1.52-1.72,3.05-2.99,4.28-1,.96-1.54,2.14-2,3.41-1.05,2.9-2.18,5.77-3.27,8.66-2.29,6.1-5.39,11.76-9.26,17-3.59,4.88-7.11,9.81-10.76,14.65-3.96,5.25-7.95,10.46-12.64,15.11-1.67,1.66-3.11,3.55-4.59,5.39-1.1,1.37-1.9,2.91-2.42,4.61-2.38,7.9-5.62,15.44-9.41,22.76-1.14,2.2-2.47,4.29-4.25,6.02-.89.86-.93,1.65-.72,2.74.7,3.64.91,7.33.82,11.04-.06,2.36.07,4.72.22,7.08.27,4.1.65,8.19.92,12.29.07,1.1.53,2.37-.28,3.28-.95,1.06.21,2.2-.39,3.21-.31.53-.57,1.09-.83,1.64-.21.44-.75.74-.55,1.34-1.4.86-2.81,1.71-4.21,2.57-.2.02-.43-.02-.61.06-1.13.52-2.15.49-2.99-.53-.99-1.21-2.29-2.03-3.58-2.88-2.11-1.38-3.77-3.17-4.93-5.41-.89-1.73-1.75-3.49-2.52-5.28-1.13-2.64-2.06-5.37-3.29-7.96-.81-1.71-1.28-3.46-1.45-5.31-.17-1.74-.31-3.48-.44-5.22-.09-1.13-.17-2.25-.52-3.34-1.55-4.79-3-9.61-4.66-14.36-1.05-3.02-2.01-6.04-2.5-9.2-.25-1.63-.66-3.21-1.39-4.71-1.75-3.59-2.1-7.26-.6-11.04.18-.47.25-.99.31-1.49.02-.15-.18-.37-.34-.46-.15-.08-.52-.09-.54-.03-.55,1.49-2.11,1.55-3.21,1.9-1.37.44-2.6.8-3.42,2.06-.21.32-.64.5-.99.72-3.02,1.85-6.26,3.11-9.8,3.42-3.38.29-6.76.48-10.16.35-6.89-.25-12.68-3.11-17.76-7.58-1-.88-1.85-1.93-2.77-2.89-.45-.47-.74-1.01-.67-1.65.02-.26.25-.55.46-.73.24-.19.58-.18.82.08,1.02,1.14,1.96,2.38,3.07,3.43,4.96,4.69,10.77,7.48,17.7,7.51,2.98.01,5.96-.15,8.93-.33,2.81-.17,5.41-1.11,7.92-2.35,1.71-.85,3.03-2.04,3.93-3.75.79-1.51,2.08-1.97,3.95-1.81,1.72.14,3.61.6,4.56-1.56.29-.66.56-1.33.78-2.01.2-.62.65-1.21.47-2.03-.54.06-.94.08-1.34.14-2.92.46-4.97-.83-6.44-3.22-.32-.52-.6-1.09-.75-1.68-.16-.62-.52-.88-1.08-.81-1.84.21-3.45-.37-4.93-1.39-2.04-1.41-2.56-3.03-1.75-5.33.14-.39.31-.76.49-1.13.22-.45.55-.9-.06-1.42-1.39.54-2.88.97-4.23,1.69-1.2.63-2.45,1.05-3.71,1.47-1.75.58-3.53,1.08-5.27,1.72-4.82,1.78-9.72,3.33-14.67,4.68-3.27.89-6.53,1.8-9.72,2.97-5.48,2.02-11.1,2.76-16.95,2.34-6.76-.49-13.54-.72-20.32-1.01-1.32-.06-2.69,0-3.98.28-1.47.33-2.84.19-4.24-.2-1.2-.33-2.3-.86-3.39-1.45-2.26-1.24-4.61-2.27-7.14-2.83-.68-.15-1.4-.42-2.09.04-1.66,1.11-3.54.89-5.37.83-3.63-.13-6.73-1.76-9.7-3.64-1.27-.8-1.94-2.15-2.21-3.59-.9-4.86,2.79-9.61,7.72-9.96.81-.06,1.64.05,2.46.09,2.26.11,4.52.33,6.77.32,7.4-.05,14.78-.4,22.15-1.09,4.02-.38,7.87-1.46,11.65-2.79,1.36-.48,2.69-1.1,3.75-2.09.83-.77,1.21-2.25,2.86-1.52.15.06.51-.29.73-.5.52-.49,1.03-1,1.52-1.53,4.55-4.88,9.08-9.79,13.64-14.66,2.03-2.17,3.95-4.47,6.54-6.04.76-.29,1.56-.53,1.71-1.52,3.63-2.71,7.65-4.81,11.47-7.23,1.72-1.09,3.64-1.94,4.87-3.69.16-.23.46-.4.74-.52,2.54-1.11,4.95-2.5,7.6-3.35,2.06-.67,4-1.6,5.85-2.72.79-.47,1.62-.88,2.43-1.32.7-.36,1.41-.72,2.11-1.08Zm95.3,23.89c.22.25.49.03.71-.11.39-.49.52-1.06.48-1.68,0-.15,0-.3-.01-.45-.07.13-.14.26-.21.4-.27.3-.53.6-.8.9-.1.31-.47.61-.18.94Zm-34.69,50.15s.04-.16.06-.25c-.14.02-.29.02-.41.07-.05.02-.05.16-.08.25.16-.02.31-.02.43-.07Zm34.05-49.45c.01.15,0,.31.05.45.02.05.18.05.27.07,0-.15-.01-.31-.02-.45-.11-.03-.21-.05-.3-.07Z"/>
      <path class="cls-12" d="m221.42,141.4c1.7-1.35,2.39-3.25,2.92-5.27,2.47-9.49,3.68-19.15,4.29-28.92.44-6.99.42-13.96-.57-20.91-1.26-8.8-3.93-17.18-7.31-25.38-2.28-5.52-5.62-10.23-9.65-14.54-3.51-3.76-8.03-5.33-12.99-5.49-3.65-.12-6.56,1.44-7.97,5.1-.66,1.72-1.46,3.39-1.64,5.28-.23,2.36.48,4.26,2.58,5.5,2.71,1.6,4.7,3.88,6.55,6.4,7.21,9.8,10.39,20.83,10.41,32.89,0,2.79-.32,5.54-.91,8.26-2.01,9.34-3.91,18.71-6.45,27.93-1.75,6.34-3.14,12.78-4.62,19.18-1.19,5.13-1.68,10.34-1.35,15.61.21,3.48.43,6.97.66,10.45.03.4.09.81.21,1.2.05.15.28.3.46.35.33.09.59-.08.77-.35.44-.66.22-1.4.19-2.1-.15-3.59-.33-7.18-.49-10.77-.2-4.65.25-9.25,1.32-13.77,1.97-8.3,3.79-16.64,6.08-24.86,2.24-8.03,3.88-16.2,5.32-24.39,1.67-9.52.38-18.83-3.15-27.82-.75-1.91-1.58-3.79-2.38-5.68-.16-.38-.3-.77-.5-1.13-1.88-3.31-4.13-6.37-6.6-9.27-1.2-1.42-2.63-2.6-4.27-3.5-1.79-.99-2.29-2.56-1.93-4.45.41-2.14,1.24-4.13,2.37-5.98.81-1.32,2-2.03,3.54-2.15,4.72-.36,8.95.89,12.56,3.98.93.8,1.74,1.74,2.55,2.67,3.39,3.91,6.01,8.26,8.01,13.07,5.03,12.11,7.96,24.62,7.64,37.76-.28,11.11-1.23,22.16-3.94,32.99-.47,1.89-1.05,3.76-1.56,5.65-.21.78-.69,1.5-.48,2.37.12-.01.23.02.33.09Z"/>
      <path class="cls-12" d="m369.71,82.93c.12.37.24.75.35,1.09.31.08.42-.03.54-.24,1.27-2.35,2.56-4.69,3.85-7.03,2.04-3.69,3.86-7.49,5.36-11.44.32-.85.48-1.8,1.2-2.47.14-.13.31-.32.33-.5.43-3.62,2.34-6.77,3.22-10.24.55-2.19,1.18-4.36,1.76-6.55.55-2.09,1.06-4.18,2-6.15.35-.73.53-1.55.74-2.35.82-3.19,1.61-6.38,2.41-9.57.27-1.08.34-2.23,1.48-2.9.61-.36.27-1.44,1.09-1.73v.09c-.4-.42-.37-.73.21-.92l-.03.05c-.42-1.1-.37-2.01,1-2.33.89-.21,1.18-.79.91-1.6-.2-.57-.61-1.07-.22-1.72.38-.64.91-1.12,1.52-1.5.25-.15.58-.16.84.09.69.67,1.22.45,1.76-.23,2.03-2.56,2.89-2.52,5.64-.59.31.22.54.56.83.85-.71.99-1.86,1.49-2.19,2.65-.12.43-.05.86.35,1.06.22.11.67.06.83-.1.5-.51.83-1.16,1.53-1.47.46-.2.83-.07,1.06.3.82,1.32.92,2.69.16,4.09-1.24,2.28-1.86,4.77-2.69,7.21-1.17,3.43-1.84,6.95-2.38,10.51-.64,4.27-1.31,8.54-2.05,12.79-.26,1.51-.7,3-1.15,4.48-1.38,4.52-2.81,9.03-4.22,13.55-.09.29-.14.6-.13.9,0,.17.16.44.29.47.27.06.72.11.84-.03.36-.48.7-1.03.89-1.6,3.02-9.19,5.98-18.4,7.05-28.07.59-5.35,1.9-10.51,3.59-15.6.45-1.36,1.09-2.66,1.73-3.95.69-1.37.75-2.79.35-4.2-.49-1.7-1.35-3.24-2.59-4.51-2.76-2.83-5.68-3.32-9.24-1.61-2,.96-3.56,2.36-4.67,4.31-2.62,4.6-2.65,4.59-3.89,9.6-.74,3-1.47,5.99-2.24,8.98-.15.57-.11,1.25-.75,1.64-.65.13-.76-.52-1.1-.84-.38-.35-.71-.74-1.09-1.09-.84-.76-1.66-1.54-2.55-2.24-.53-.42-1.12-1.03-1.89-.41-.45.37-.22,1.03.61,1.76.54.47,1.09.94,1.65,1.39,1.06.84,1.85,1.91,2.72,2.93.87,1.03,1.16,2.05.72,3.4-1.07,3.22-2,6.48-3.03,9.72-.43,1.36-.49,1.36-2.1.87-.34-.1-.65-.04-.78.22-.12.24-.12.57.19.81.32.25.62.54.91.83.3.3.51.7.37,1.11-.49,1.43-.83,2.93-1.66,4.22-.99-.1-1.2-.9-1.68-1.36-.45-.42-.84-.91-1.27-1.35-.21-.21-.44-.43-.71-.56-.14-.07-.37.02-.55.08-.22.08-.25.25-.15.5.35.9,1.16,1.42,1.72,2.15.44.57.86,1.15,1.32,1.71.5.61.62,1.25.33,2-1.17,3.08-2.33,6.15-3.81,9.1-.18.36-.34.91-.64,1.02-1.8.66-2.1,2.37-2.8,3.81-1.25,2.56-3.28,4.47-5.49,6.16-4.84,3.7-8.92,8.19-13.21,12.47-.51.51-.97,1.07-1.11,1.81-.03.17.08.41.21.53.13.12.37.2.55.17.9-.14,1.33-.9,1.91-1.47,3-2.95,6-5.91,8.98-8.89,1.61-1.61,3.48-2.87,5.27-4.26.62-.66.65-.66.9.15Z"/>
      <path class="cls-12" d="m299.56,42.46c3.39.29,5.78,2.48,8.26,4.45,1.12.89,1.43,2.25,1.4,3.61-.04,1.33-.17,2.67-.45,3.97-.86,4.02-1.54,8.07-1.94,12.16-.4,4.11-1.72,8.02-2.71,12.01-.12.5-.27.99-.35,1.49-.06.35.2.55.49.68.32.14.66.05.81-.22.3-.53.56-1.09.74-1.67.56-1.87,1.1-3.75,1.58-5.64.24-.95.68-1.62,1.57-2.12,3.69-2.08,7.58-3.64,11.76-4.37,1.95-.34,3.94-.36,5.78.3,1.33.47,2.78-.03,4.02.76.11.07.61-.22.68-.43.09-.23,0-.7-.19-.83-1.15-.8-1.74-1.99-2.38-3.16-.67-1.23-.71-1.21-2.45-.6l.07-.08c.68.56.84,1.35.9,2.16-.44.47-.96.28-1.44.18-2.87-.58-5.74.16-8.61-.02-.18-.01-.42.07-.56.19-2.21,1.95-5.14,2.36-7.51,3.73-.71-.47-.51-1-.46-1.49.39-4.1.98-8.16,1.91-12.18.35-1.51.57-3.03.59-4.58.03-2.41-.79-4.44-2.77-5.88-1.49-1.08-2.98-2.2-4.59-3.1-2.77-1.56-5.5-1.33-8.1.56-.89.65-1.43,1.45-1.58,2.52-.32,2.19.22,4.08,1.92,5.56.62.54,1.31.99,1.94,1.52.87.74.96,1.01.39,2.12-2.71,5.3-5.05,10.8-8.13,15.91-.69,1.14-1.33,2.32-1.95,3.5-2.11,4.04-2.79,8.31-2.34,12.85.2,2.02.11,4.05,1.5,5.73.46,2.63,1.94,4.72,3.51,6.77.35.46.24.95-.21,1.35-.76.68-1.73,1.12-2.3,2.03-.24.39-.29.86.11,1.08.98.55,1.97,1.08,3.15.31,1.29-.85,2.66-1.57,3.98-2.35,3-1.78,5.64-4.13,8.92-5.47.41-.17.57-.63.3-1.02-.14-.2-.53-.38-.77-.34-1.23.2-2.38.64-3.42,1.34-1.28.86-2.56,1.72-3.83,2.59-.84.57-1.65,1.21-2.73,1.46-.49-.81-1.06-1.5-1.66-2.18-1.36-1.55-2.62-3.18-3-5.3-.07-.4-.26-.78-.4-1.16-.43-1.15-1.7-2.04-1.63-3.27.22-3.55-.32-7.21,1.18-10.62.54-1.22.96-2.51,1.65-3.65,3.36-5.55,6.09-11.42,8.98-17.21.45-.9.74-1.91,1.96-2.2.55-.13.6-.78.58-1.3-.05-.92-.17-1.83-.19-2.75-.02-1.1.33-1.46,1.62-1.65.44-.06.82-.12.93-.59.15-.59-.17-1-.66-1.23-.92-.43-1.79-.21-2.5.55-.81.86-1.01,1.99-1.4,3.02-.24.01-.53.11-.62.02-.61-.63-1.87-.83-1.71-1.97.18-1.29.33-2.7,1.82-3.31.09-.04.19-.07.27-.14.32-.26.65-.52.38-1.01-.24-.43-.63-.45-1.05-.37-.78.51-1.55,1.02-2.33,1.54-.07.13-.14.26-.21.39,0-.15,0-.3,0-.45-.04-.89.2-1.55,1.2-1.78.77-.18,1.51-.49,2.26-.74Z"/>
      <path class="cls-12" d="m326.37,44.66c2.48-1.06,4.19-3.18,6.36-4.66.39-.27.66-.76.9-1.2.77-1.4,1.87-2.09,3.52-1.77.28.05.6-.05.9-.08.51-.63.08-1.63.87-2.15,1.14-1.63,2.65-2.38,4.65-2,.08-.38.16-.76.24-1.14-.3-.57-.68-1.02-1.39-1.04-.5,0-1.03.18-1.47-.28,2.78-6.69,7.41-11.95,12.98-16.47.32-.26.65-.51,1.01-.7.87-.44,1.76-1.51,2.7-.81.71.53.3,1.73.24,2.62-.18,2.56-.42,5.11-.69,7.66-.15,1.38-.57,1.72-1.97,1.82-.72.05-1.43.06-2.15.1-1.13.07-1.84.69-2.5,1.92,1.78-.05,3.28-.15,4.78-.13,1.18.01,2.46-.48,3.53.49.11.1.41.11.55.03.53-.31,1.03-.61,1.71-.5,3.13.53,6.35.4,9.43,1.28.49.14.97.35,1.47.41.22.02.61-.22.69-.42.09-.23-.02-.63-.18-.84-.47-.6-1.21-.78-1.9-.91-1.61-.32-3.23-.59-4.85-.83-.75-.11-1.32-.29-1.58-1.14-.12-.4-.65-.47-.94,0-.56.93-1.4.61-2.19.54-.62-.05-.92-.4-.89-.99.05-.92.14-1.84.22-2.76.15-1.63.3-3.26.45-4.89-.57-.83-1.08-1.65-1.23-2.7-.12-.88-.45-1.73-.68-2.6-1.08-.83-2.15-.36-3.18.09-1.8.8-3.37,1.98-4.82,3.28-4.61,4.16-8.61,8.8-11.19,14.53-.54,1.2-1.14,2.15-2.68,2-.4-.04-.51.57-.16.88.22.19.51.32.76.48.34.21.3.62.11.77-1.57,1.25-2.83,3.03-5.13,3.06-.56.58-.07,1.56-.78,2.09-1.21,1.76-3.1,3.29-4.72,3.85-.57.19-1.15.37-1.69.62-.92.43-.58,1.11-.27,1.76l-.05-.03c.66-.15,1.05.13,1.23.76h-.02Z"/>
      <path class="cls-12" d="m361.95,40.79c.94-.03,1.65-.02,2.35-.1.83-.09,1.3-.89.89-1.54-.85-1.32-2.01-2.31-3.45-2.93-.39-.17-.82-.07-1.08.32-.16.25-.25.56-.37.84-.9,2.06-1.81,2.44-3.79,1.57-.64-.28-1.06-1.01-1.87-.96-.19.01-.4.09-.55.2-.29.21-.27.54-.11.81.56.92,1.42,1.45,2.43,1.76.89.27,1.79.46,2.73.39.64-.05.94.28,1,.87.14,1.49.84,2.74,1.76,3.86.32.39.72.73,1.14,1,.21.13.61.15.83.04.46-.23.39-.67.15-1.03-.39-.6-.82-1.17-1.22-1.77-.63-.96-1.07-1.97-.82-3.33Z"/>
      <path class="cls-12" d="m217.59,165.75c.76-.29,1.56-.53,1.71-1.52-.64-.55-.48-1.3-.45-1.99.17-4.08.5-8.14,1.47-12.12.37-1.49.7-2.99.52-4.53-.18-1.46.53-2.78.59-4.2-.1-.07-.21-.1-.33-.09-.19.35-.44.68-.57,1.05-1.97,5.64-3.06,11.47-3.46,17.42-.07,1.02.01,2.06-.14,3.06-.17,1.1.88,1.85.68,2.91Z"/>
      <path class="cls-12" d="m282.82,115.05c-.79.63-.78,1.63-1.11,2.47-.91,2.26-1.44,4.7-3.06,6.64-.12.15-.31.35-.28.51.15,1.08-.96,2.1-.17,3.2,1.6.08,1.54-1.36,2.02-2.26.77-1.43,1.37-2.91,2.52-4.15,1.72-1.86,1.78-4.13.92-6.45-.02-.06-.19-.06-.29-.09-.17.11-.36.15-.56.13Z"/>
      <path class="cls-12" d="m398.59,20.88c-.16.28-.37.44-.72.39-1.07-.16-2.03.1-2.85.8-.29.24-.53.15-.8,0l.03-.05c.75.5.22.7-.22.92v-.09c1.04,2.85,3.48,3.97,6.06,4.9.45.16.88-.31.81-.66-.35-1.83.21-3.86-1.15-5.47h.02c-.62.09-1.18.07-1.22-.77h.05Z"/>
      <path class="cls-12" d="m331.9,37.71c.7-.53.22-1.5.78-2.09-4.46-.53-8.93-.34-13.4-.2-.3,0-.64.05-.88.2-.22.14-.36.44-.44.7-.03.08.23.35.38.36.6.07,1.21.09,1.81.09,3.46.01,6.92.03,10.38,0,.74,0,1.1.35,1.37.94Z"/>
      <path class="cls-12" d="m252.25,145.41c.7-.36,1.41-.72,2.11-1.08.94-.37,1.91-.7,2.82-1.12.44-.2,1.14-.61,1.13-.9-.09-1.58,1.13-1.39,2.02-1.71.4-.14.69-.5.47-.95-.11-.24-.41-.52-.64-.54-1.01-.07-2.03-.08-3.04-.06-.45,0-.9.74-.57,1.13.69.84.4,1.28-.44,1.53-1.07.32-2.17.54-3.25.8-.92.22-1.21.63-.75,1.52.27.51.33.89.14,1.38Z"/>
      <path class="cls-12" d="m379.19,50.76c-3.23-2.66-6.92-4.68-10.29-7.14-.16-.11-.64.02-.82.19-.2.2-.1.55.14.79.07.07.14.15.22.21,3.49,2.47,6.91,5.03,10.62,7.17.04-.41.08-.82.13-1.22Z"/>
      <path class="cls-12" d="m282.82,115.05c.2.02.39-.02.56-.13,2.35-1.97,3.99-4.58,6.14-6.73.19-.19.27-.54.31-.83.02-.16-.1-.39-.23-.5-.13-.12-.4-.23-.54-.17-.37.14-.76.3-1.03.58-.85.87-1.67,1.78-2.47,2.7q-2.01,2.32-2.74,5.1Z"/>
      <path class="cls-12" d="m358.95,10.52c.23.87.56,1.72.68,2.6.15,1.04.66,1.87,1.23,2.7.34-.63.47-1.29.27-2-.58-1.01-.58-1.05.16-1.53l.07-.23c-.16-.06-.31-.13-.47-.2.17.03.33.06.5.09.69-2.35.75-4.8,1.14-7.21.05-.29.02-.61-.03-.91-.05-.32-.26-.56-.61-.52-.17.02-.42.16-.46.29-.16.58-.29,1.18-.38,1.78-.24,1.5-.43,3.02-.71,4.52-.14.79-.72.88-1.38.62Z"/>
      <path class="cls-12" d="m145.67,201.04c-1.95,1.18-2.78,2.85-2.96,4.9-.04.44.19.8.64.91.46.12.81-.12.97-.53.23-.57.34-1.18.57-1.74.61-1.44,1.59-2.35,3.28-2.2.4.04.81.07,1.21.03.31-.03.54-.27.58-.61.04-.32-.02-.61-.34-.76-1.38-.63-2.75-.68-3.96,0Z"/>
      <path class="cls-12" d="m338.92,34.78c-.78.52-.35,1.52-.87,2.15,3.45.43,6.9.87,10.36,1.28.15.02.4-.15.47-.29.15-.33-.05-.67-.33-.75-.98-.28-1.98-.55-2.98-.69-1.93-.27-3.87-.46-5.81-.66-.66-.07-.81-.49-.83-1.04Z"/>
      <path class="cls-12" d="m343.82,31.65c-.08.38-.16.76-.24,1.14,3.42,1.07,6.85,2.14,10.27,3.2.1.03.21.04.3.01.18-.06.43-.12.49-.25.07-.15.01-.42-.09-.57-.36-.56-1.01-.67-1.57-.88-2.99-1.1-6.03-2.02-9.16-2.65Z"/>
      <path class="cls-12" d="m352.96,48.1c.15.13.36.36.62.51.15.09.39.1.57.04.3-.09.48-.33.52-.66.07-.66-.39-1.14-.6-1.7-.54-1.45-1.05-2.88.06-4.34.22-.29.07-.81-.37-1.02-.42-.21-.81-.05-1.1.25-.57.6-1.03,1.28-1,2.16.05,1.65.34,3.25,1.31,4.76Z"/>
      <path class="cls-12" d="m273.31,128c-.86-.09-1.21-2.07-2.32-.99-.84.81.4,1.59.77,2.36.22.46.51.89.8,1.31.34.5.95.49,1.21-.04.3-.62.41-1.24,1.21-1.61.66-.3.76-2.51.25-3.05-.29-.31-.79-.25-1.07.12-.24.31-.36.71-.52,1.08-.11.26.11.64-.33.81Z"/>
      <path class="cls-12" d="m267.13,212.55c.33.15.6.38.86.37.25,0,.52-.23.72-.42.13-.12.18-.36.2-.56.24-1.84-.1-3.61-.79-5.31-.15-.38-.65-.53-1.05-.38-.24.09-.56.43-.55.63.16,1.89.39,3.78.6,5.67Z"/>
      <path class="cls-12" d="m379.86,45.84c.12.16.23.34.38.47.41.34.89.56,1.38.28.32-.18.7-.52.76-.85.24-1.24-.03-2.39-.95-3.33-.41-.42-1.23-.36-1.62.1-.8.92-.79,2.01.05,3.33Z"/>
      <path class="cls-12" d="m365.55,20.05c1.01-2.33,1.54-4.81,2.19-7.25.12-.47.25-1.07-.44-1.24-.5-.12-.69.35-.79.72-.69,2.54-1.62,5.01-2,7.62.34.05.69.1,1.03.15Z"/>
      <path class="cls-12" d="m334.12,29.76c-2.04-.7-4.17-.91-6.3-1.14-.38-.04-.79.11-1.18.19-.06.01-.14.15-.13.23,0,.19,0,.42.11.56.11.14.33.25.52.27,2.22.31,4.43.61,6.65.91.11-.34.23-.69.34-1.03Z"/>
      <path class="cls-12" d="m357.54,30.09c.06-.08.35-.33.34-.57,0-.24-.25-.58-.48-.7-1.32-.72-2.67-.89-3.99.02-.44.3-.68.73-.54,1.29.11.42.42.68.81.82,1.38.51,2.56-.04,3.86-.87Z"/>
      <path class="cls-12" d="m325.55,48.09c-.8.7-1.53.07-2.24-.17-.47-.16-.86-.54-1.32-.74-.38-.16-.81-.15-1.04.31-.19.38-.23.79.07,1.13.2.22.45.44.72.55.84.35,1.69.7,2.56.94.67.18,1.48.36,1.87-.46.33-.68-.59-.98-.67-1.57h.05Z"/>
      <path class="cls-12" d="m263.81,135.13c.06.08.1.2.17.23,1.53.59,3.09.95,4.69.34.19-.07.34-.49.36-.75.02-.31-.24-.55-.58-.59-1.31-.12-2.62-.23-3.94-.32-.35-.03-.56.22-.67.51-.07.18-.03.39-.04.59Z"/>
      <path class="cls-12" d="m373.94,52.72c-.94-.98-1.99-2.23-3.36-3.14-.24-.16-.62-.26-.76.11-.09.23-.07.65.09.81,1.1,1.19,2.24,2.35,3.4,3.49.18.17.58.3.79.22.55-.2.26-.64.14-1-.03-.09-.1-.17-.3-.49Z"/>
      <path class="cls-12" d="m270.71,129.92c-.1-.27-.13-.36-.17-.46-.19-.53-.55-.85-1.13-.78-.53.07-.89.88-.67,1.49.55,1.56,1.64,2.55,3.24,2.94.23.06.66-.13.77-.33.11-.2.04-.62-.11-.84-.57-.81-1.83-1-1.94-2.02Z"/>
      <path class="cls-12" d="m399.74,21.63c-.24-.73.46-.73.8-1.02.87-.76.82-1.64-.12-2.22-.26-.16-.55-.28-.84-.35-.7-.18-1.52.42-1.45,1.14.05.58.3,1.13.47,1.7h-.05c.98-.24,1.3-.04,1.22.76h-.02Z"/>
      <path class="cls-12" d="m323.24,57.37c1.15-.65,2.22-1.41,2.96-2.53.23-.35.26-.76-.11-1.09-.37-.33-.79-.2-1.12.02-.41.29-.73.71-1.14,1-1.01.71-1.13,1.57-.56,2.6h-.04Z"/>
      <path class="cls-12" d="m326.25,62.77l-.07.08c.27-1.06.55-2.11.8-3.17.09-.39.06-.83-.33-1.05-.54-.31-.93,0-1.23.43-.22.32-.38.68-.88.52l.02-.07c.16.09.46.19.45.26-.07.58-.21,1.15-.3,1.73-.17,1.17.01,1.31,1.52,1.27Z"/>
      <path class="cls-12" d="m325.5,48.08c.04-.28.12-.43.46-.59,1.06-.49,1.07-.61.68-1.54-.18-.42-.74-.74-.27-1.29h.03c-.71.39-1.04.19-1.23-.75l.05.03c-.13.15-.24.32-.39.44-1,.81-1.06,1.06-.38,1.84.4.45.87.85,1.25,1.31.07.09-.09.37-.15.56h-.05Z"/>
      <path class="cls-12" d="m402.04,23.22c.23.27.36.44.5.58.32.33.75.41,1.14.28.53-.18.78-.66.76-1.21-.03-.83-1.08-1.72-1.91-1.57-.41.07-.75.4-.71.87.03.4.17.78.23,1.04Z"/>
      <path class="cls-12" d="m324.55,59.58c-.41-.6-.58-1.4-1.4-1.68-.03,0,.05-.35.08-.53h.04c.23,1.06-1.02.74-1.24,1.35-.09.26-.24.59-.14.79.09.21.46.44.68.41.67-.08,1.33-.27,2-.42l-.02.07Z"/>
      <path class="cls-12" d="m296.3,45.04c.78-.51,1.55-1.02,2.33-1.54.17-.47.48-.82.93-1.04-.75.25-1.49.56-2.26.74-1,.23-1.24.9-1.2,1.78l.21.05Z"/>
      <path class="cls-12" d="m334.19,30.88c.49.12.98.26,1.48.35.42.08.85.01,1-.43.17-.51-.23-.72-.63-.79-.6-.11-1.2-.16-1.81-.23-.01.37-.03.73-.04,1.1Z"/>
      <path class="cls-12" d="m361.29,12.29c-.74.48-.74.52-.16,1.53.26-.49.32-1,.16-1.53Z"/>
      <path class="cls-12" d="m379.19,50.76c-.04.41-.08.82-.13,1.22.38.26.74.28.95-.18.13-.3-.04-.57-.3-.74-.17-.11-.34-.2-.52-.3Z"/>
      <path class="cls-12" d="m334.12,29.76c-.11.34-.23.69-.34,1.03.11.13.25.16.41.1.01-.36.03-.73.04-1.1l-.11-.03Z"/>
      <path class="cls-12" d="m361.39,11.96c-.17-.03-.33-.06-.5-.09.16.07.31.13.47.2l.03-.1Z"/>
      <path class="cls-12" d="m364.02,21.71c-.04.09-.08.19-.11.28-.13.41-.14.86.37.93.49.07.59-.39.64-.79-.3-.14-.6-.29-.9-.43Z"/>
      <path class="cls-12" d="m364.24,20.88c-.07.28-.14.55-.21.83.3.14.6.29.9.43.09-.28.17-.56.26-.84-.32-.14-.63-.28-.95-.42Z"/>
      <path class="cls-12" d="m365.19,21.3c.09-.28.17-.56.26-.84-.33-.14-.65-.27-.98-.41-.08.28-.15.55-.23.83.32.14.63.28.95.42Z"/>
      <path class="cls-12" d="m365.55,20.05c-.34-.05-.69-.1-1.03-.15l-.05.16c.33.14.65.27.98.41.14-.11.17-.25.1-.42Z"/>
      <path class="cls-12" d="m350.37,168.1c.39-.49.52-1.06.48-1.68l-.22-.05c-.27.3-.53.6-.8.9.18.28.36.55.53.83Z"/>
      <path class="cls-12" d="m350.86,166.42c0-.15,0-.3-.01-.45-.07.13-.14.26-.21.4l.22.05Z"/>
      <path class="cls-12" d="m296.09,44.99c0,.15,0,.3,0,.45.07-.13.14-.26.21-.39l-.21-.05Z"/>
    </g>
  </g>
</svg>