<?xml version="1.0" encoding="UTF-8"?>
<svg id="bg" xmlns="http://www.w3.org/2000/svg" viewBox="0 0 332.15 80">
  <defs>
    <style>
      .cls-1 {
        fill: #f7eae0;
      }

      .cls-2 {
        fill: #f9be99;
      }

      .cls-3 {
        fill: #eaddd5;
      }

      .cls-4 {
        fill: #e9d2b3;
      }

      .cls-5 {
        fill: #e9c8ad;
      }

      .cls-6 {
        fill: #655142;
      }

      .cls-7 {
        fill: #bb8057;
      }

      .cls-8 {
        fill: #cd8850;
      }

      .cls-9 {
        fill: #36382b;
      }

      .cls-10 {
        fill: #604c3f;
      }

      .cls-11 {
        stroke: #604c3f;
      }

      .cls-11, .cls-12, .cls-13 {
        fill: none;
        stroke-miterlimit: 10;
      }

      .cls-12 {
        stroke-dasharray: 0 4;
      }

      .cls-12, .cls-13 {
        fill-rule: evenodd;
        stroke: #f0cb9c;
        stroke-linecap: round;
        stroke-width: 2px;
      }

      .cls-13 {
        stroke-dasharray: 0 6;
      }
    </style>
  </defs>
  <rect class="cls-11" x="301.48" y="51.02" width="18.37" height="10.49" rx="1.98" ry="1.98"/>
  <path class="cls-9" d="m305.99,56.48c-5.03-1.78-7.49,3.45-8.08,7.9-.43,3.23-.33,6.72-1.48,9.62-1.32,3.31-4.3,4.94-7.88,2.84-6.76-3.97-6.55-12.98-4.86-18.66,1.71-5.73,4.26-10.78,4.64-17.2.32-5.36-.66-11.38-3.85-16.44-2.7-4.29-6.82-7.88-11.15-8.95-5.66-1.39-9.08,2.72-13.66,4.42-5.28,1.96-9.92-2.59-14.76-6.12-5.06-3.7-9.71-4.4-14.53-2.58-5.08,1.91-9.61,5.7-15.6,5.11-.95-.09-.78,1.57.16,1.66,9.99.95,17.15-10.92,27.88-3.99,4.08,2.63,7.88,6.77,12.4,7.76,5.89,1.29,9.28-3.99,14.39-4.99,4.99-.98,10.62,3.12,13.87,8.24,3.76,5.92,4.18,13.02,3.16,18.96-1.08,6.25-4.3,11.32-5.12,17.68-.63,4.95.42,11.01,4.7,14.84,2,1.79,4.5,2.91,6.72,2.52,2.62-.46,4.17-2.85,4.94-5.49.92-3.14.71-6.73,1.26-10.03.63-3.75,2.83-7.33,6.82-6.51.31.06.32-.49,0-.6Z"/>
  <g>
    <g>
      <path class="cls-1" d="m169.09,54.54c.16.1.33.18.51.25.48.17.64.07.87-.53.91.19,1.26,0,1.61-.9.19-.11.39-.22.58-.34.22-.14.43-.31.52-.55.17-.46.45-.84.72-1.24.36-.53.22-1.11.04-1.66-.11-.33-.37-.61-.41-.97.31-.56.21-1.08-.08-1.63-.46-.89-.98-1.72-1.75-2.37-.17-.14-.37-.3-.39-.54-.04-.52-.39-.7-.82-.81-.47-.46-1.02-.78-1.66-.94-.58-.44-1.16-.86-1.72-1.31-.23-.18-.47-.31-.73-.41-.07-.17-.16-.31.06-.49.38-.33.4-.69.02-.95-.82-.55-1.57-1.23-2.58-1.44-.18-.09-.29-.22-.33-.43-.17-.92-.2-1.84-.17-2.77,0-.16.05-.33.17-.43.18-.14.36-.04.55.01.05.08.08.17.15.24.51.53.9.52,1.41-.01.06-.07.11-.15.16-.23,1.05.41,2.17.43,3.27.58.63.08,1.27.13,1.87.36.38.64,1.06.79,1.69.98.36.11.61-.08.67-.46.03-.16.03-.32.05-.47.6.23,1.25.2,1.87.35.15.04.32.02.47.06.61.2,1.2.44,1.85.44,1.05.48,2.23.53,3.3.95.4.16.81.13,1.22.2-.01,1.01-.15.79.69,1.35.24.16.47.32.76.39.2.05.38,0,.51-.16.14-.16.14-.37.02-.53-.2-.26-.39-.5-.3-.85.86.3,1.72.59,2.57.89-.21.48,0,.79.46,1.05-.18.08-.3.12-.41.17-.23.1-.36.26-.34.52.01.19.08.37,0,.56-.16.41.04.69.37.87.3.17.63.29.96.41.23.08.44.02.59-.19.12-.17.15-.38,0-.53-.23-.24-.2-.51-.2-.8,0-.2.07-.25.24-.32.54-.23.61-.36.35-.85-.16-.3-.13-.45.12-.63.19.05.35.14.47.29.21.26.48.25.77.18.78.28,1.55.64,2.35.82,1.08.24,2.17.46,3.29.54.79.06,1.59.12,2.34.42.16.06.31.04.45-.06.24.16.49.18.76.06.3.17.6.12.91,0,.61-.22,1.31-.16,1.81-.66.48.19.95.02,1.42-.03.7-.08,1.4-.19,2.09,0,.15.2.29.4.45.59.19.24.43.35.74.23.33-.12.39-.37.34-.67.07-.11.11-.25.26-.25.28,0,.56,0,.85.02.75.06,1.5.16,2.26.07.18-.02.37.06.55.09.24.08.48.17.72.25-.1.12-.21.24-.29.37-.15.25-.08.5.16.67.19.13.44.12.61-.05.17-.15.17-.41.04-.61-.13-.21-.39-.21-.55-.37.09-.24.17-.49.26-.73.65.23,1.3.46,1.96.69-.04.34-.13.67-.1,1.02.03.48.25.75.74.8-.06.23-.08.47.14.61.32.21.68.43,1.07.24.52-.25,1.07-.42,1.61-.61.22-.08.43-.12.66-.06.04.48.06.96.28,1.4.07.14.28.17.41.07.23-.17.31-.4.28-.67-.1-1,.35-1.87.64-2.78.01-.04.09-.09.14-.09.05,0,.13.04.15.09.23.6.34,1.23.47,1.85.04.22.08.44.14.65.03.09.12.16.23.12.08-.03.2-.09.22-.15.04-.15.02-.31.02-.47-.02-.67-.18-1.34.07-1.99.99-.16,1.59-.86,2.2-1.55.29-.33.54-.71.99-.85.21.14.43.28.7.22.22-.05.42-.15.49-.39.07-.24-.01-.43-.21-.58-.1-.07-.22-.12-.33-.19.74-.13,1.47-.22,2.22-.25.13,0,.25-.01.35-.09.43.22.71.62,1.05.95.15.15.28.08.49-.2.15.05.31.14.46.13.54-.04.94.13,1.13.67.43.27.85.56,1.3.79.26.13.49.31.74.43.46.21.66.58.8,1.02.07.21.08.47.2.63.48.64.27,1.19-.17,1.72-.22.28-.37.59-.5.92-.43,1.01-1.07,1.89-1.82,2.67-.3.31-.83.4-1.11.72-.29.33-.52.71-.91.96-.37.24-.72.53-1.07.81-.12.1-.19.25-.29.37-.24-.15-.49-.3-.78-.12-.23.14-.45.37-.39.6.14.52-.31.79-.42,1.2-.15-.05-.3-.08-.44-.15-.29-.14-.54-.09-.78.11-.43-.23-.93-.1-1.37-.26-.17-.14-.34-.3-.59-.21-.57.22-.97-.04-1.32-.45-.1-.12-.2-.24-.3-.37-.17-.2-.36-.36-.65-.31-.3.05-.4.27-.47.53-.41.53-.9.65-1.51.35-.4-.2-.84-.28-1.3-.26-.64.03-.97.3-1.23.87-.27.58-.18,1.14.06,1.66.2.44.28.92.48,1.35.23.51-.03.94-.28,1.35-.13.22-.38.2-.61.14-.15-.32-.3-.63-.35-.99-.06-.38-.25-.72-.47-1.03-.14-.2-.5.01-.54-.27-.04-.22-.01-.44-.11-.65-.12-.26-.22-.53-.34-.79-.12-.25-.4-.35-.65-.21-.25.14-.49.31-.7.49-.2.17-.2.5,0,.69.14.13.3.23.46.33.24.15.49.3.74.44.12.07.2.17.18.31-.05.31.04.56.26.78.08.08.12.23.14.35.09.49.33.89.66,1.26-.12.05-.24.08-.35.14-.84.39-1.73.39-2.62.28-1.99-.25-3.97-.54-5.98-.57-.32,0-.63-.08-.95-.12-.34-.29-.68-.23-1.04-.03-.26.15-.42.37-.56.62-.25.02-.52-.01-.75.07-1.17.39-2.29.89-3.38,1.46-.21.11-.32.29-.4.51-.09.06-.19.12-.28.18-.3-.1-.54.08-.8.18-.67.24-1.34.52-2.08.3-.13-.29-.34-.46-.66-.42-.32.04-.48.27-.55.57-.01.06-.03.12-.05.18s-.03.12-.05.18c-.26.03-.52.08-.65-.24-.02-.06-.06-.11-.09-.17-.37-.89-1.12-1.21-2-1.22-1.47-.01-2.85.31-4.09,1.16-.58.4-1.18.76-1.62,1.33-.19.25-.45.29-.77.22-.76-.15-1.18.07-1.42.76-.18.52-.47.8-1.01.88-.47.07-.94.21-1.41.31-.55.11-1.25-.37-1.36-.92-.06-.28-.11-.57-.11-.86-.02-1.03-.7-1.54-1.51-1.92-.55-.26-1.14-.43-1.72-.61-.59-.18-1.21-.16-1.81-.06-.53.09-1.06.19-1.58.38-.72.26-1.5.32-2.22.58-.33.12-.68.18-1,.32-.39.16-.75.11-1.12-.04-.18-.18-.13-.43-.19-.65.06-.47.1-.94.28-1.38.19-.44.07-.86-.09-1.28-.16-.41-.5-.54-.86-.67.07-.27.41-.32.48-.54.07-.22-.16-.47-.03-.72.29.07.49.28.73.43Zm28.01-8.36c.22.56.77.75,1.25.46.27-.16.43-.43.41-.71-.05-.55.15-.99.42-1.43.08-.13.13-.29.15-.45.06-.43-.13-.78-.48-.96-.41-.21-.82-.15-1.15.16-.23.22-.5.67-.59.94-.26.74-.25,1.37,0,1.99Zm10.54,4.34c.12-.13.14-.29.08-.45-.08-.21-.22-.4-.28-.61-.16-.54-.59-1-.43-1.63.05-.19-.13-.35-.3-.46-.18-.12-.37-.1-.54,0-.14.09-.24.23-.22.4.11.63.22,1.25.35,1.87.08.35.31.63.56.88.07.06.16.1.21.13.25.08.42.02.56-.13Zm-21.31,7.53c.49.14,1.1-.2,1.23-.67.14-.49-.19-1.1-.66-1.23-.49-.14-1.09.19-1.23.67-.14.49.19,1.1.66,1.23Zm-15.62-18.07c-.05-.34-.23-.6-.56-.71-.28-.09-.56-.02-.8.18-.18.15-.29.33-.37.54-.18.47-.03.96.36,1.15.38.19.91.03,1.17-.35.05-.08.09-.17.11-.21.09-.22.12-.4.09-.6Zm20.88,14.44c.49.23,1.06-.02,1.26-.53.18-.47-.05-1.02-.51-1.19-.42-.16-1,.13-1.18.58-.17.44.02.96.43,1.14Zm27.74-5.03c.27.1.64-.17.57-.45-.14-.56-.38-1.08-.72-1.55-.17-.23-.61-.14-.73.13-.21.47.36,1.69.87,1.87Zm-53.72-11.97c.2-.03.36-.14.41-.35.05-.22-.07-.48-.27-.57-.2-.09-.42-.17-.64-.21-.33-.07-.61.1-.68.38-.07.28.09.54.44.67.23.1.48.11.74.08Zm48.52,7.55c.1.18.24.29.46.28.22-.01.42-.19.45-.43.02-.22.02-.45,0-.67-.02-.26-.19-.42-.42-.46-.22-.04-.4.09-.52.39-.11.27-.13.58.03.88Zm-27.4,1.02c.28.08.59-.09.67-.36.08-.28-.09-.59-.36-.67-.28-.08-.59.09-.67.36-.08.28.09.59.36.67Zm8.15,11.75c.26.13.63,0,.73-.25.09-.22-.04-.53-.27-.65-.25-.13-.62,0-.73.26-.09.22.03.52.27.65Zm.31-15.94c.16.07.43-.04.48-.19.08-.23-.09-.59-.34-.71-.15-.07-.43.04-.48.2-.08.24.08.59.34.71Zm-18.87,8.96c.27.11.53,0,.62-.25.08-.22-.03-.5-.23-.55-.26-.07-.56.05-.64.26-.09.22.02.44.25.54Z"/>
      <path class="cls-4" d="m194.59,59.79c.23.14.44.11.59-.09.17-.23.36-.45.39-.75.74.22,1.41-.06,2.08-.3.26-.09.5-.28.8-.18.05.18.07.39.32.42.1.01.18-.05.22-.15.09-.25-.11-.33-.25-.45.07-.22.18-.39.4-.51,1.09-.57,2.22-1.06,3.38-1.46.23-.08.5-.05.75-.07.23.63.43.72.92.4.13-.09.25-.19.38-.27.29-.17.34-.43.3-.73.31.04.63.11.95.12,2.01.03,3.99.32,5.98.57.9.11,1.78.11,2.62-.28.11-.05.23-.09.35-.14q.59-.07.75-.71c.23.06.48.08.61-.14.24-.41.51-.83.28-1.35-.2-.44-.28-.91-.48-1.35-.23-.52-.33-1.08-.06-1.66.26-.57.6-.84,1.23-.87.46-.02.9.06,1.3.26.62.31,1.1.19,1.51-.35.25.5.63.88,1.04,1.25.43.39.9.61,1.49.34.11-.05.25-.03.38-.07.38-.11.42-.18.43-.71.44.16.94.03,1.37.26-.07.27-.02.5.15.72.1.14.27.26.4.2.4-.2.75.02,1.12.05.08,0,.18-.06.26-.09h0c.47.03.95.05,1.42.09.12.01.28.07.32.16.11.21-.12.24-.24.32-.08.06-.17.09-.24.15-.1.08-.2.19-.17.32.05.29,0,.57-.07.85-.03.14.03.26.15.31.13.05.26,0,.32-.13.08-.17.16-.35.2-.53.08-.34.25-.57.57-.71.9-.4,1.72-.99,2.73-1.12.18-.02.27-.14.32-.31h0c.12.03.2-.01.26-.12h-.01c.1.07.28.13.17.27-.22.27-.49.5-.73.76-.13.14-.24.29-.35.45-.03.04-.02.13.01.18.05.08.14.14.24.09.14-.08.27-.16.39-.26.27-.24.59-.23.9-.19.14.02.21.12.13.27-.05.08-.14.18-.13.25.12.63-.34.75-.76.88-.45.15-.92.27-1.37.41-.42.12-.77.31-.9.77-.07.28-.27.44-.53.5-.7.16-1.19.72-1.85.93-.2.07-.22.3-.29.47q-.23.32-.68.18c.02-.06.04-.12.06-.18.14-.57-.12-.87-.67-.75-.12.03-.24.08-.36.13-.45.21-.52.37-.4.91.01.06.03.12.05.18-.07.1-.12.24-.22.29-.34.16-.68.35-1.04.4-.46.07-.84.45-1.34.3-.25-.6-.34-.63-.83-.35-.1.06-.21.11-.31.17l-.02-.03c.07-.32.21-.6.4-.86.1-.13.18-.27.17-.44,0-.17-.07-.31-.23-.39-.16-.08-.32-.05-.44.07-.09.08-.17.19-.22.31-.25.58-.71.99-1.2,1.34-.7.5-1.44.94-2.17,1.39-.19.12-.4.19-.61.27-.25.09-.44-.02-.52-.28-.07-.25-.1-.5-.17-.75-.04-.15-.12-.29-.18-.44.4-.35.52-.79.41-1.3-.03-.15-.1-.3-.19-.43-.11-.17-.27-.27-.48-.23-.23.04-.43.23-.41.46.03.47.02.96.25,1.39-.08.4.09.75.17,1.12.05.27,0,.51-.25.68-.13.09-.26.19-.39.27-.23.15-.5.45-.75.26-.18-.14-.26-.53-.23-.78.04-.34-.01-.6-.15-.9-.16-.34.06-.68.11-1.03.05-.31-.18-.5-.46-.39-.5.19-.78.63-1.11,1.02-.02.02-.02.07-.01.09.33.47-.14.64-.33.94-.21.35-.32.75-.62,1.06-.08.08-.1.23-.12.36-.06.41-.1.81-.15,1.22-.23.04-.45.13-.69.08-.04-.12-.06-.26-.14-.35-.36-.41-.44-.93-.45-1.43-.01-.86-.32-1.62-.61-2.4-.11-.3-.22-.6-.35-.89-.03-.06-.16-.13-.23-.11-.07.02-.17.13-.17.2.02.36-.04.69-.16,1.03-.06.16.03.37.07.56.07.41.21.8.19,1.23-.03.53-.11,1.02-.58,1.35-.1.07-.2.17-.25.28-.15.33-.45.35-.73.33-.31-.02-.61-.13-.95-.21.25-.85.17-1.69.4-2.5.13-.45,0-.95-.21-1.4-.12-.24-.33-.34-.55-.28-.22.07-.37.26-.39.49,0,.03-.01.07,0,.1.24.87-.15,1.7-.21,2.55-.02.39-.39.71-.35,1.16.01.15-.22.19-.36.26-.51.25.71.3.99.88-.06.19-2.71.17-2.89.26-.79.42-.94.53-1.81.74-1.23.31-1.87.79-3.11,1.03-.23.05-.44.01-.65-.08.09-.17.18-.34.27-.51q.18-.33-.12-.64c-.27-.28-.31-.48-.03-.7.51-.41.78-.99,1.16-1.49.12-.16.19-.32.21-.52.05-.44-.05-.57-.5-.6-.19-.02-.38-.03-.57-.05-.29-.03-.48.08-.59.37-.18.48-.55.85-.83,1.26-.07.1-.17.22-.27.24-.39.09-.6.32-.69.71-.03.15-.15.28-.24.4-.25.33-.35.66-.11,1.06.14.23.03.5,0,.75-.08.16-.21.22-.38.25-1.11.17-2.21.34-3.32.52-1.68.28-3.38.26-5.07.3-.34,0-.71.08-1.03-.14.17-.25.25-.51.16-.82-.07-.25-.09-.5-.15-.75-.06-.24-.04-.44.2-.58.11-.07.24-.16.27-.26.14-.53.46-.87.92-1.14.29-.17.35-.62.2-.97-.17-.39-.48-.6-.89-.63-.34-.02-.63.12-.8.43-.09.17-.17.36-.19.54-.04.39-.29.54-.63.62-.06.02-.12.05-.18.06-.66.06-1.05.42-1.1,1.13-.52-.11-.99-.16-1.4.21-.13.12-.3.07-.46.06-.26-.01-.51,0-.76.1-.19.08-.36.07-.52-.1-.26-.28-.53-.24-.86-.06-.73.4-1.49.75-2.23,1.13-.32.16-.64.29-.99.08-.23-.14-.49-.1-.75-.07-.66.08-.69.11-.77.82,0,.09-.04.18-.09.26-.03.05-.1.06-.16.09-.08.03-.13,0-.14-.08-.02-.25.05-.53-.21-.69-.31-.19-.63-.05-.92.05-.46.16-.84.36-1.05.89-.17.41-.48.83-1.03.92-.39.06-.47.39-.54.71-.14.06-.28.13-.43.17-.64.17-1.28.33-1.92.51-.39.11-.8.23-1,.64-.47-.12-.77.17-1.06.46-.23.23-.46.44-.82.31-.09-.09-.17-.19-.28-.26-.22-.14-.34-.11-.46.11-.05.08-.07.18-.11.27-.03.06-.05.13-.1.16-.07.05-.21.12-.25.09-.37-.29-.74.23-1.09,0-.26-.17-.2-.58.11-.68.31-.1.61-.21.84-.45.11-.11.22-.23.29-.37.14-.29.05-.56-.14-.8-.17-.2-.4-.26-.7-.11-.34.17-.67.37-1.03.58-.28-.14-.34-.51-.59-.7-.06-.05-.11-.2-.08-.26.23-.46-.06-.7-.36-.96-.25-.21-.26-.39-.11-.56.23-.27.53-.34.76-.17.15.12.27.27.42.39.31.25.47.25.76.01.55-.44,1.09-.89,1.63-1.35.2-.17.36-.36.45-.61.13-.38-.03-.72-.42-.83-.15-.04-.31-.05-.47-.05-.36.01-.55-.27-.78-.47-.1-.09-.03-.25.05-.35.1-.13.24-.22.42-.19.47.08.68-.3.96-.53.23-.18.25-.58.13-.8-.16-.28-.58-.44-.92-.32-.54.2-1.01.57-1.15,1.09-.23.86-.77,1.45-1.35,2.05-.33.34-.56.78-1,1-.11-.2.19.2.31.04.45-.58.94-1.18,1.35-1.78,1.07-1.61,1.9-3.46,2.96-5.08.3-.45,1-.57.9-1.62.13-.18.31-.33.57-.26,0,.51-.45.93-.33,1.48.01.05-.04.13-.08.17-.33.29-.34.66-.3,1.06.02.15-.06.31-.06.47,0,.18-.08.29-.25.36-.15.06-.3.13-.41.23-.19.16-.22.51-.05.7.23.26.45.55.72.76.49.37,1,.62,1.67.44.68-.18,1.39-.25,2.08-.39.22-.04.43-.14.63-.23.15-.07.24-.21.21-.39-.03-.17-.13-.3-.29-.35-.15-.05-.31-.05-.47-.07-.3-.04-.49-.17-.53-.44-.04-.28-.04-.57-.06-.85.37.15.73.21,1.12.04.32-.14.67-.2,1-.32.73-.26,1.51-.32,2.22-.58.52-.19,1.05-.29,1.58-.38.59-.1,1.21-.12,1.81.06.58.18,1.18.35,1.72.61.8.38,1.49.89,1.51,1.92,0,.29.06.58.11.86.11.56.81,1.04,1.36.92.47-.09.93-.24,1.41-.31.54-.08.83-.37,1.01-.88.24-.69.66-.91,1.42-.76.32.06.58.03.77-.22.44-.57,1.04-.93,1.62-1.33,1.24-.86,2.62-1.18,4.09-1.16.88,0,1.63.33,2,1.22.02.06.06.11.09.17.13.32.39.28.65.24.11.11.21.25.34.33Zm-3.7,3.07c.27-.4.28-1,.92-1.12.24-.05.47-.19.7-.31.18-.09.3-.23.37-.42.08-.23.04-.48-.13-.61-.17-.13-.38-.16-.54-.03-.36.31-.8.38-1.24.49-.52.14-.97.36-1.05.98-.03.2-.17.33-.31.47-.14.13-.33.27-.37.43-.12.52-.49.71-.92.87-.35.13-.61.35-.69.74-.05.24-.18.4-.43.45-.12.03-.24.08-.36.14-.18.1-.28.25-.23.48.06.23.17.42.42.48.12.03.26.02.38,0,.91-.2,1.81-.4,2.72-.61.03,0,.06-.02.09-.03.41-.14.7-.47.52-.97-.04-.12-.12-.23-.02-.43.33-.23.27-.61.16-1Zm-13.7-.98c.46.3.84.27,1.21-.09.24-.23.36-.52.42-.84.06-.35-.13-.72-.44-.88-.35-.18-.67-.13-.97.14-.21.2-.33.39-.44.73-.15.45-.08.74.21.94Zm26.81-4.24c.04-.24-.09-.44-.3-.55-.19-.1-.38,0-.52.12-.12.1-.22.24-.29.38-.19.4-.37.81-.54,1.21-.03.08-.03.19-.03.28.01.25.16.41.38.49.23.09.44.02.59-.18.23-.31.38-.66.46-1.04.08-.24.2-.47.24-.72Zm-15.7,3.13c.16-.46-.08-.96-.51-1.08-.4-.11-1,.18-1.11.55-.14.46.1.93.55,1.08.47.15.91-.07,1.07-.54Zm-20.39,1.74c-.3.03-.48.18-.48.37-.01.29.21.59.48.62.19.02.38,0,.56-.03.29-.05.45-.27.45-.53,0-.2-.17-.36-.54-.44-.09,0-.28,0-.47.01Zm34.86-.43c.01-.33-.33-.59-.64-.49-.25.08-.43.26-.56.48-.13.21,0,.53.23.63.4.17.95-.19.96-.62Zm-8.81-1.27c-.3-.05-.56.02-.79.21-.17.13-.19.42-.05.6.29.36.99.27,1.2-.16.12-.25-.07-.59-.36-.65Zm-18.1,3.31c.01-.11-.04-.25-.1-.34-.12-.17-.47-.19-.79-.06-.21.09-.34.31-.32.52.02.15.12.27.29.34.47.19.88,0,.92-.46Zm22.16-4.18c.14.06.34-.02.37-.16.04-.17-.08-.35-.29-.4-.12-.03-.25-.03-.31.12-.06.17.04.35.23.44Z"/>
      <path class="cls-4" d="m166.23,28.98c-.06.05-.11.11-.17.16.48.1.95.13,1.44-.01.18-.05.39-.06.57,0,.37.11.72.21,1.11.2.27,0,.44.23.45.53,0,.09-.03.19-.05.28-.05.25.07.36.3.39.95.1,1.9.2,2.86.29.25.02.55.24.73.06.24-.25-.08-.51-.17-.77-.05-.15-.12-.32-.03-.46.18-.27.4-.5.73-.58.22-.06.47.04.56.26.06.15.08.31.14.46.14.32.09.71.37.97.83-.33,1.56-.81,2.15-1.49-.19-.12-.44-.25-.39-.5.08-.38,0-.61-.3-.9-.28-.27-.39-.72-.54-1.11-.04-.1-.03-.29.03-.36.31-.34.34-.72.26-1.15-.06-.31.26-.52.58-.42.4.12.67.36.68.82.02.55.19,1.01.8,1.15.9.71.97.6.59,1.62.15.06.31.08.46,0,1-.48,2-.96,2.99-1.46.1-.05.16-.19.24-.29-.3-.13-.58-.21-.93-.12-.32.09-.57-.1-.6-.44-.03-.35-.03-.69-.21-1.01-.13-.23-.04-.44.2-.57.61-.34,1.25-.48,1.93-.22.09.03.21.09.22.17.14.54.62.89.77,1.43.54,0,.97-.3,1.39-.57.35-.22.7-.44,1.07-.63.32-.16.59-.38.77-.69-.14-.18-.28-.36-.52-.41-.49-.1-.55-.49-.58-.88-.05-.5.23-.8.75-.73.31.05.56,0,.82-.15.14-.08.28-.16.43-.22.36-.15.7.1.57.47-.13.38-.14.75-.1,1.13.06,0,.14.01.19-.02.66-.45,1.31-.9,1.95-1.37.09-.06.11-.22.17-.33-.5-.03-.78-.26-.91-.78-.21-.82-.13-1.02.7-1.12.19-.02.38-.05.56.03.29.14.55.09.82-.05.38-.21.67-.06.9.25.18-.04.25-.17.3-.32-.22-.18-.44-.37-.66-.55-.29-.23-.42-.55-.53-.89-.1-.31.03-.6.3-.72.23-.11.46-.04.63.26.2.37.43.7.82.88.11-.22.04-.42-.12-.58-.32-.33-.43-.73-.47-1.17-.05.03-.11.04-.17.05-.46.33-.99.18-1.5.23-.17.02-.31-.11-.39-.25-.3-.54-.7-.96-1.22-1.29-.12-.08-.19-.2-.2-.33-.98,1.03-2.07,1.91-3.32,2.55.18.12.37.24.35.51-.01.18.07.29.23.38.11.06.22.13.31.22.2.23.08.63-.21.7-.12.03-.25.02-.38.04-.79.14-1.3-.67-2.07-.63-.1,0-.2-.15-.3-.23-.03-.02-.05-.04-.08-.05-.78.17-1.63.59-2.15,1.06.5.26.79.6.63,1.23-.09.36.1.68.44.86.08.05.18.07.26.13.16.13.24.3.19.51-.05.2-.16.35-.36.42-.33.12-.63.02-.78-.34-.11-.28-.24-.39-.54-.43-.38-.05-.74-.2-1.11-.3-.25-.07-.45-.23-.65-.4-.29-.26-.31-.54-.13-.86-.15-.07-.29-.11-.46-.05-.1.03-.21.06-.31.1-.44.41-.97.7-1.61.98-.57.25-1.15.49-1.73.74.5.04,1,.07,1.49.16.34.06.71.17.9.5.28.5.52,1.01.76,1.53.07.15.02.32-.11.44-.15.14-.34.19-.53.1-.11-.05-.24-.12-.3-.22-.34-.53-.85-.66-1.42-.59-.46.06-.89-.06-1.33-.09-.31-.02-.61-.1-.94-.02-.38.08-.64-.24-.57-.65.02-.11.07-.22.11-.33-.38.17-.75.33-1.13.51-1.6.76-3.02,1.85-4.28,3.09.18.04.37.07.54-.07.27-.24.61-.22.92-.16.75.14,1.51.31,2.24.51.56.15.63.43.32.92-.25.39-.25.52.06.82.11.11.27.17.33.33.05.12.06.25,0,.37-.2.38-.87.49-1.04.13-.27-.59-.77-.85-1.29-1.07-.61-.27-1.24-.54-1.92-.62-.43-.05-.63-.26-.68-.63-.58.61-1.19,1.31-1.91,1.78Zm22.55-10.45c.25-.28.7-.37,1.05-.2.18.09.26.3.2.48-.15.39-.64.6-1.02.44-.28-.12-.4-.52-.22-.72Z"/>
      <path class="cls-4" d="m192.87,11.09c-.3.45-.63.88-.87,1.38-.15.31-.34.62-.62.85-.12.1-.27.22-.31.36-.15.44-.4.74-.8.93.53-.61,1.04-1.26,1.51-1.94,1.11-1.59,2.1-3.35,2.72-5.2-.03.46-.04.94-.22,1.33-.37.81-.9,1.55-1.4,2.3Z"/>
      <path class="cls-8" d="m227.02,56.78c.24.13.49.13.74.06.73-.19,1.49-.31,2.18-.64.08-.11.17-.22.25-.32-.09-.15-.1-.29.06-.4.24-.16.52-.2.79-.24.16-.02.32-.02.41.13.12.2,0,.35-.16.47.09.05.18.11.28.16.47-.09.96-.12,1.37-.4.12,0,.26.02.37-.01,1.13-.35,2.29-.61,3.27-1.33.35-.26.82-.34,1.14-.67.21.08.36-.05.52-.16,1.13-.8,2.34-1.46,3.57-2.08.51-.26,1.05-.47,1.53-.81.18-.12.41-.18.62-.24.77-.23,1.51-.54,2.22-.91.74-.39,1.29-.93,1.59-1.72.14-.39.39-.73.41-1.17,0-.09,0-.18,0-.26-.59-.69-1.21-1.31-2.16-1.63-.05-.02-.1-.03-.14-.04-.93.15-1.88.24-2.75.65-.49.24-.97.5-1.45.74-.34.17-.7.31-1.05.47-.32.33-.69.51-1.16.41h0c-.15.19-.37.25-.58.31-.61.19-1.24.34-1.84.55-1.03.35-2.05.74-3.06,1.12-.2.08-.39.22-.57.35-.06.05-.11.17-.1.26.02.16.17.14.29.15.33.05.51-.25.79-.31.33-.08.64.11.83.5.13.25-.02.39-.18.57-.38.41-.77.56-1.27.23-.05-.03-.12-.06-.18-.07-.6-.11-1.12,0-1.51.51.1.06.28.13.17.26-.22.27-.49.5-.73.76-.13.14-.24.29-.35.45-.03.04-.02.13.01.18.05.08.14.14.24.09.14-.08.27-.16.39-.26.27-.24.59-.23.9-.19.14.02.21.12.13.27-.05.08-.14.18-.13.25.12.63-.34.75-.76.88-.45.15-.92.27-1.37.41-.42.12-.77.31-.9.77-.07.28-.27.44-.53.5-.7.16-1.19.72-1.85.93-.2.07-.22.3-.29.47Zm12.73-8.36c-.19.08-.37.06-.52-.1-.09-.09-.13-.21-.11-.37.04-.05.1-.13.17-.17.14-.09.3-.07.45-.02.15.06.29.13.28.32,0,.18-.13.28-.28.34Zm-2.19,4.26s.04-.04.07-.06c.12-.11.25-.2.41-.08.16.11.14.27.05.41-.14.21-.34.37-.37.64-.53-.33-.56-.5-.16-.9Zm-.53-.97c.26.05.39.23.35.47-.04.21-.22.35-.41.31-.3-.06-.51-.28-.47-.5.04-.2.28-.32.53-.28Zm.09-1.54c.07-.2.3-.32.45-.22.13.09.12.21.08.34-.05.16-.15.28-.34.25-.15-.03-.25-.22-.19-.37Zm-2.45,3.45s.03-.06.11-.24c0,0,.05-.14.14-.27.07-.1.19-.16.33-.11.14.05.19.17.22.29.04.23-.03.44-.14.64-.11.21-.38.31-.57.2-.21-.13-.17-.32-.09-.5Zm-2.12,1.21c.15-.07.3-.11.45,0,.17.11.13.26.07.41-.04.11-.08.23-.12.35-.16-.09-.33-.17-.47-.28-.15-.12-.1-.38.08-.47Z"/>
      <path class="cls-8" d="m189.77,15.14c.01.13.07.25.2.33.53.33.93.76,1.22,1.29.08.14.22.27.39.25.5-.05,1.04.1,1.49-.23.08-.34.06-.64-.36-.75-.15-.04-.31-.1-.36-.27-.1-.33-.36-.5-.63-.68-.27-.18-.24-.51.03-.6.38-.13.69-.3.87-.68.06-.13.22-.23.35-.32.17-.13.39-.05.45.16.09.28.03.42-.27.58-.4.22-.46.52-.16.83.26.26.56.44.94.24.39-.21.59,0,.89.49-.66-.27-.88.01-1.06.44-.09.22-.35.36-.53.54.03.44.15.84.47,1.17.15.16.23.36.12.58-.4-.18-.62-.51-.82-.88-.17-.3-.39-.37-.63-.26-.27.12-.4.41-.3.72.11.33.24.66.53.89.22.18.44.37.66.55.34-.02.64-.11.75-.48.05-.17.14-.29.33-.29.47,0,.59-.31.6-.7,0-.21.02-.39.28-.41.25-.02.44-.09.59-.21.13-.19.27-.38.41-.57.05-.11.09-.22.12-.34-.27-.13-.35-.39-.3-.64.11-.51-.01-1.01.02-1.51.02-.31,0-.63.02-.95,0-.14.14-.2.27-.24.14-.04.26.02.33.13.08.13.16.28.18.43.05.34.07.69.09,1.04.01.28-.01.57.15.83.34-.1.49-.37.61-.67.25-.58.44-1.18.78-1.72-.08-.05-.16-.13-.24-.15-.43-.09-.64-.32-.72-.77-.07-.4-.24-.79-.57-1.08-.07-.06-.12-.15-.16-.23-.1-.19-.04-.48.12-.61.14-.12.3-.1.45-.05.48.17.82.45.95.98.1.39.1.83.46,1.12.09-.23.17-.46.26-.7-.28-.51-.03-1.04-.06-1.57,0-.15.1-.3.27-.34.16-.04.31.02.42.15.13.16.13.44.42.45.2-.84.35-1.68.45-2.54.08-.73.28-1.44.39-2.16.17-1.1.07-2.15-.46-3.16-.71-1.36-2.61-2.08-4.13-1.26-.66.35-1.13.84-1.38,1.55.12,1.37.11,2.75-.28,4.08-.05.17-.11.34-.17.51-.03.46-.04.94-.22,1.33-.37.81-.9,1.55-1.4,2.3-.3.45-.63.88-.87,1.38-.15.31-.34.62-.62.85-.12.1-.27.22-.31.36-.15.44-.4.74-.8.93-.16.18-.32.36-.49.54Zm7.06-8.22c-.09.22-.33.3-.54.18-.17-.09-.23-.29-.15-.48.09-.22.33-.29.54-.18.17.09.23.29.15.48Zm-1.46,1.99c-.06.02-.13,0-.19,0-.21-.03-.36-.32-.27-.56.04-.13.17-.22.33-.27.85-.24,1.64-.05,2.38.39.31.19.41.5.26.72-.12.18-.32.22-.69.04-.58-.3-1.16-.5-1.82-.31Zm.15,1.81c-.08.22-.23.31-.53.23-.25-.06-.49-.07-.75-.08-.2,0-.38-.1-.43-.31-.05-.19.02-.38.17-.51.29-.25.61-.3,1.11-.08,0,0,.15.06.27.16.19.15.24.36.16.59Zm-3.01,1.79c.05-.13.17-.22.29-.21.47.05.93.13,1.37.19.05.02.08.03.11.04.25.1.39.3.35.5-.04.2-.27.32-.54.25-.37-.1-.72-.22-1.11-.2-.11,0-.24-.08-.34-.15-.13-.1-.2-.24-.13-.41Z"/>
      <path class="cls-8" d="m193.84,18.51s.03.05.05.08c0-.02,0-.04,0-.05-.01-.01-.03-.02-.04-.03Z"/>
      <path class="cls-4" d="m232.09,51.01c.39-.51.91-.63,1.51-.51.06.01.13.04.18.07.5.33.89.17,1.27-.23.17-.18.31-.32.18-.57-.2-.39-.5-.58-.83-.5-.28.07-.46.36-.79.31-.13-.02-.27,0-.29-.15-.01-.08.04-.21.1-.26.18-.13.36-.27.57-.35,1.02-.39,2.04-.77,3.06-1.12.6-.21,1.23-.36,1.84-.55.21-.06.44-.12.58-.31-.24-.11-.49-.13-.74-.01-.2.1-.41.18-.64.11-.46-.14-.69-.54-.99-.88-.16-.18-.12-.34.15-.54.11-.09.21-.14.12-.29-.13-.22-.29-.42-.41-.65-.26-.47-.17-.62.43-.71.06,0,.11-.04.19-.07-.09-.1-.17-.2-.26-.29-.09-.09-.19-.18-.27-.27-.28-.32-.26-.39.14-.62.22-.12.24-.28.07-.4-.05-.03-.11-.06-.17-.09-.5-.27-.5-.27-.35-.84.06-.25.1-.5.13-.75.02-.18.16-.27.24-.4,0-.2-.06-.4-.23-.49-.35-.19-.54-.53-.79-.79-.39-.39-.72-.9-.46-1.53-.32.06-.63.05-.92-.13-.98-.61-1.99-1.14-3.1-1.49-.22-.07-.45-.16-.54-.37-.15-.35-.5-.59-.52-1.01-.78-.28-1.57-.33-2.38-.2-.19.03-.36.1-.48.25.08.25.34.27.52.39.37.24.78.44.89.94.05.22.26.35.43.5.19.17.38.33.56.51.12.12.17.29.04.42-.09.09-.24.05-.35-.03-.2-.16-.4-.32-.6-.48-.67-.54-1.36-1.05-2.19-1.32-.03.02-.06.04-.09.05.2.38.54.62.83.91.34.34.67.67.92,1.09.15.05.31.14.46.13.54-.04.94.13,1.13.67.43.27.85.56,1.3.79.26.13.49.31.74.43.46.21.66.58.8,1.02.07.21.08.47.2.63.48.64.27,1.19-.17,1.72-.22.28-.37.59-.5.92-.43,1.01-1.07,1.89-1.82,2.67-.3.31-.83.4-1.11.72-.29.33-.52.71-.91.96-.37.24-.72.53-1.07.81-.12.1-.19.25-.29.37,0,.22.06.46-.12.63-.23.22-.32.45-.24.77.03.14-.05.31-.09.46.73-.42,1.35-.95,1.81-1.66.24-.37.36-.4.81-.31.06.01.13.03.19.04.45.13.57.34.48.78-.04.21-.23.38-.12.65.3,0,.53-.18.8-.27.21-.07.42-.17.65-.09l.25-.12c.03-.28.06-.57.09-.85.02-.22,0-.45.04-.67.05-.31.43-.44.67-.23.09.08.17.19.23.3.15.3.1.63.09.94,0,.08-.07.19-.14.23-.3.18-.59.39-.98.27-.05.1-.14.13-.25.12-.04.09-.09.17-.12.26-.12.34-.11.36.26.57.05.03.11.06.16.1h0c.04-.13.13-.16.26-.12h-.01Z"/>
      <path class="cls-8" d="m148.48,21.33c-.16.87.07,1.66.5,2.4.26.45.57.85,1,1.16.69.49,1.05,1.19,1.25,1.99.22.87.5,1.73.73,2.59.1.39.31.69.57.98,1.12,1.28,2.17,2.61,3.11,4.03.41.61.81,1.24,1.36,1.74.21-.06.45-.05.56-.3.1-.23.06-.44-.06-.64-.14-.25-.31-.48-.46-.72-.2-.32-.44-.62-.36-1.05.04-.19-.05-.38-.18-.53-.56-.69-1.03-1.45-1.52-2.19-.11-.16-.27-.26-.47-.27-.25.32-.38.36-.58.16-.26-.25-.49-.51-.35-.92.07-.22-.09-.34-.21-.49-.25-.34-.1-.79.3-.9.24-.07.49-.1.76-.16,0,.35.03.71.35.95.13.09.31.2.44.1.2-.15.01-.26-.1-.36-.05-.04-.1-.09-.13-.14-.18-.26-.06-.51.25-.55.19-.02.37.12.59,0-.21-.6-.7-.39-1.13-.37,0-.12-.01-.22.02-.31.1-.32.03-.56-.24-.76-.1-.07-.18-.18-.24-.29-.08-.16-.03-.31.11-.42.17-.13.36-.15.54-.04.2.12.35.28.45.49.38.78,1.14,1.2,1.71,1.8.06.06.18.13.25.11.43-.13.61.29.93.39.17.06.25.19.24.37-.04.47.27.65.64.68.62.05,1.19.23,1.76.47.23.1.5.11.75.16.09.02.2.01.28.05.12.06.19.18.19.31,0,.14-.08.25-.21.28-.09.02-.2.05-.28.03-.54-.17-.85.13-1.11.53-.11.16-.22.31-.33.47-.25.33-.36.68-.16,1.07.1.21.13.41.09.65-.13.72.02.99.67,1.27.29.13.6.22.91.31.27.08.56.02.71-.18.45-.58.9-1.2.85-1.98-.03-.47-.07-.92-.29-1.39-.23-.47-.31-1-.42-1.52-.13-.03-.27-.07-.41-.13-1.57-.57-3.2-1.85-4.38-3.37-.55-.48-1.04-1.01-1.44-1.63-.2-.32-.47-.61-.73-.89-.77-.82-1.51-1.67-2.21-2.54-.42-.52-.89-1.01-1.44-1.41-.34-.25-.72-.41-1.11-.56-.93-.34-2.05.11-2.31,1.5Zm4.85,4.71c.07-.09.15-.14.25-.11.25.08.37.34.28.61-.05.14-.17.17-.31.14-.03,0-.06-.03-.08-.05-.18-.17-.21-.38-.14-.6Z"/>
      <path class="cls-5" d="m153.39,29.27c.12.16.28.27.21.49-.14.41.1.67.35.92.2.2.33.16.58-.16.2.01.37.11.47.27.49.74.95,1.5,1.52,2.19.12.15.21.34.18.53-.08.43.16.73.36,1.05.15.24.31.48.46.72.12.2.16.41.06.64-.11.25-.35.24-.56.3.38.64,1.01,1.28,1.63,1.67.18-.55.55-.83,1.14-.82.19,0,.38-.05.57-.08.32-.05.56.07.72.35.36.59.16,1.24-.49,1.49-.26.1-.56.1-.84.15-.01.17.06.3.2.39.2.12.18.3.15.49.8-.1,1.49.2,2.16.59.37.22.7.52,1.18.69-.05-.16-.05-.27-.11-.32-.31-.32-.4-.63-.06-1,.09-.1.05-.23-.04-.34-.08-.1-.16-.2-.22-.31-.16-.32-.14-.55.16-.75.3-.2.46-.52.75-.72-.18-.09-.29-.22-.33-.43-.17-.92-.2-1.84-.17-2.77,0-.16.05-.33.17-.43.18-.14.36-.04.55.01,0-.12-.03-.25,0-.37.08-.39.42-.71.75-.74.37-.03.74.18.89.55.06.17.06.37.09.55,1.05.41,2.17.43,3.27.58.63.08,1.27.13,1.86.36-.07-.21-.13-.43-.21-.63-.19-.5-.35-1.02-1.04-1.07-.33-.02-.55-.3-.53-.59.04-.45-.17-.63-.52-.77-.11-.04-.18-.18-.28-.25-.19-.14-.41-.23-.63-.14-.22.09-.14.32-.17.5-.1.46-.41.7-.88.73-.37.02-.69-.24-.83-.67-.03-.09-.03-.19-.05-.28-.09-.44-.1-.4-.59-.54-.53-.15-1.06-.34-1.34-.87-.43.08-.88.07-1.37-.06.11.52.2,1.06.42,1.52.23.46.26.92.29,1.39.05.79-.4,1.4-.85,1.98-.15.2-.45.26-.71.18-.31-.09-.62-.19-.91-.31-.65-.28-.8-.55-.67-1.27.04-.24.02-.44-.09-.65-.2-.39-.09-.74.16-1.07.12-.15.23-.31.33-.47.27-.4.57-.7,1.11-.53.08.03.19,0,.28-.03.14-.04.21-.14.21-.28,0-.13-.07-.25-.19-.31-.08-.04-.18-.03-.28-.05-.25-.05-.52-.06-.75-.16-.57-.23-1.13-.42-1.76-.47-.37-.03-.68-.21-.64-.68.02-.18-.06-.31-.24-.37-.32-.1-.5-.52-.93-.39-.07.02-.19-.05-.25-.11-.57-.6-1.33-1.02-1.71-1.8-.1-.21-.26-.37-.45-.49-.18-.11-.37-.09-.54.04-.14.11-.19.26-.11.42.06.11.14.22.24.29.27.2.34.44.24.76-.03.08-.01.18-.02.31.43-.02.92-.24,1.13.37-.22.12-.4-.03-.59,0-.31.04-.43.29-.25.55.04.05.09.09.13.14.11.1.29.22.1.36-.14.1-.31,0-.44-.1-.32-.23-.34-.59-.35-.95-.27.06-.52.09-.76.16-.4.11-.56.56-.3.9Zm4.83,1.25c.04-.08.13-.16.21-.17.12-.02.25.01.3.02.36.13.51.3.48.49-.02.19-.25.38-.48.4-.35.03-.66-.41-.5-.73Zm-2.35-.09c.1-.37.59-.6,1.02-.49.35.09.6.53.51.92-.09.39-.58.66-.98.54-.43-.13-.67-.54-.55-.97Zm-1.39-.02s.02.07.03.1c-.02-.01-.03-.03-.04-.04,0-.01,0-.04.01-.05Z"/>
      <path class="cls-8" d="m164.07,71.52c-.12.1-.19.24-.29.37h0c-.51.21-.86.6-1.17,1.03h0c-.26.05-.45.19-.54.44-.27.12-.44.36-.64.57-.61.61-1.22,1.22-1.86,1.81-.4.37-.84.7-1.35.9-.61.24-1.25.25-1.73-.17-.71-.62-1.26-1.36-1.09-2.42.12-.73.33-1.45.67-2.09.32-.6.56-1.22.77-1.86.08-.05.18-.08.23-.15.44-.62.85-1.26,1.3-1.87.46-.61.72-1.33,1.05-2,.25-.32.59-.56.76-.93.44-.23.67-.67,1-1,.58-.59,1.13-1.18,1.35-2.05.14-.52.61-.89,1.15-1.09.34-.12.77.03.92.32.12.22.1.62-.13.8-.28.23-.5.62-.96.53-.17-.03-.32.05-.42.19-.08.1-.15.26-.05.35.23.2.42.48.78.47.16,0,.32,0,.47.05.39.11.54.45.42.83-.08.26-.25.45-.45.61-.54.45-1.08.9-1.63,1.35-.3.24-.45.24-.76-.01-.15-.12-.27-.28-.42-.39-.23-.17-.53-.1-.76.17-.15.18-.14.36.11.56.31.26.59.5.36.96-.03.06.02.21.08.26.25.19.31.56.59.7.36-.2.68-.41,1.03-.58.3-.14.53-.09.7.11.2.24.29.51.14.8-.07.14-.18.26-.29.37-.23.24-.53.35-.84.45-.31.1-.37.5-.11.68.35.24.72-.29,1.09,0,.04.03.17-.04.25-.09.05-.03.07-.1.1-.16.04-.09.07-.18.11-.27.12-.22.24-.26.46-.11.11.07.19.17.28.26-.09.52-.31.96-.72,1.3Zm-3.12-1.47c.26.02.5-.18.51-.44,0-.17-.06-.31-.25-.35-.3-.07-.61.05-.64.23-.05.25.15.54.37.56Zm.52-5.53c-.07.17-.02.37.11.39.17.03.3-.04.38-.2.07-.14,0-.33-.12-.39-.19-.05-.3.03-.37.19Zm1,7.27c.12-.04.21-.12.21-.26,0-.14-.08-.22-.22-.24-.16-.02-.31.1-.3.25,0,.15.17.29.31.25Z"/>
      <path class="cls-8" d="m213.71,38.85c.11-.93.34-1.82.68-2.69.1-.25.15-.51-.07-.71-.43-.38-.52-.85-.47-1.39.02-.16,0-.32,0-.48,0-.15-.22-.28-.36-.21-.17.08-.33.19-.5.28-.66.38-.66.39-.16,1.04.12.16.14.3-.03.4-.59.32-1.17.69-1.9.41-.22-.08-.37.05-.5.19-.37.4-.74.8-1.11,1.19-.22.24-.5.4-.81.49-.23.06-.46-.04-.56-.25-.09-.2-.07-.41.1-.52.81-.48,1.24-1.37,2.03-1.88.12-.07.17-.18.18-.32.01-.48.34-.74.71-.95.28-.16.57-.29.82-.42.07-.19,0-.29-.11-.36-.19-.12-.16-.46-.42-.49-.27-.03-.49.14-.69.3-.1.08-.18.18-.26.28-.16.18-.35.3-.59.21-.25-.09-.33-.29-.3-.54.03-.26-.11-.25-.28-.19-.28.1-.52.25-.62.55-.04.12-.09.24-.15.35-.17.31-.6.33-.79.03-.2-.31-.24-.66-.16-1.02,1.24-1.24,2.83-1.69,4.5-1.92.25-.04.49-.05.74-.14,1.2-.44,2.4-.91,3.67-1.12.49-.08.81-.34.93-.84.08-.34.2-.68.31-1.01.1-.31.29-.57.53-.79.52-.47,1.19-.49,1.75-.07.43.32.7.77.8,1.27.37,1.82.1,3.01-1.5,4.1-.21.14-.43.28-.66.4-.49.25-.98.48-1.47.72-.2.1-.41.19-.64.18.06-.25.1-.5-.12-.7-.04-.04-.12-.07-.17-.06-.36.04-.39.37-.49.61-.1.25,0,.42.25.51-.13.32-.46.42-.71.6-.15.1-.22.22-.13.4.01.06,0,.15.04.18.47.39.5.82.36,1.42-.36,1.57-.6,3.17-.87,4.76-.05.28-.07.57-.05.85.01.26-.14.41-.28.58-.48-.05-.7-.33-.74-.8-.02-.35.06-.68.1-1.02.14-.46.11-.95.17-1.42Zm-1.42-7.08c-.02.14.01.25.14.31.13.05.26.02.32-.1.07-.13.13-.28.15-.43.03-.13-.06-.25-.19-.28-.13-.04-.24.03-.31.15-.03.05-.05.11-.08.17-.02.06-.04.12-.05.18Zm-1.8-.62c-.04.14.04.25.17.29.22.07.48-.04.55-.23.04-.12,0-.25-.12-.32-.24-.11-.54,0-.6.26Zm3.99,1.66c.23.08.47-.07.49-.29.01-.14-.06-.25-.18-.3-.19-.08-.44.08-.49.31-.02.15.06.25.18.29Zm.87-2.37c.08-.12.06-.24-.05-.33-.13-.11-.34-.05-.39.1-.04.13-.02.25.11.31.14.06.25.04.33-.08Zm-1.9,1.23c.14.04.24-.03.27-.17.03-.14-.05-.25-.18-.28-.14-.03-.23.05-.28.19-.03.15.07.23.19.26Z"/>
      <path class="cls-5" d="m211.58,39.58c-.16-.15-.28-.34-.5-.41-.19-.06-.37-.05-.52.09-.13.12-.12.28-.07.43.04.12.09.23.13.35-.18-.03-.38-.11-.55-.09-.76.1-1.51,0-2.26-.07-.28-.02-.56-.03-.85-.02-.14,0-.19.15-.26.25-.36-.28-.57-.66-.75-1.07-.21-.46-.44-.91-.73-1.32-.29-.41-.61-.72-1.16-.63-.13.02-.24-.05-.32-.16.13-.24.38-.33.6-.43.27-.13.44-.28.46-.64.03-.57.32-1.09.51-1.62.06-.17.22-.22.39-.21-.03.29-.07.57-.07.86,0,.4.17.63.43.65.28.03.49-.16.58-.53.02-.09.03-.19.05-.28.04-.22.07-.44.11-.66.09-.51.08-.54-.53-.82.07-.39.37-.64.6-.93.12-.16.32-.18.52-.15-.07.36-.04.7.16,1.02.19.3.61.28.79-.03.06-.11.11-.23.15-.35.1-.3.34-.45.62-.55.17-.06.31-.07.28.19-.03.25.05.45.3.54.25.09.43-.03.59-.21.08-.1.16-.2.26-.28.2-.15.42-.33.69-.3.26.03.23.36.42.49.11.07.18.17.11.36-.25.13-.54.27-.82.42-.37.21-.7.47-.71.95,0,.14-.06.24-.18.32-.79.51-1.22,1.4-2.03,1.88-.17.1-.2.32-.1.52.1.21.33.32.56.25.31-.09.59-.25.81-.49.37-.39.74-.79,1.11-1.19.14-.15.28-.27.5-.19.72.28,1.31-.09,1.9-.41.17-.09.15-.24.03-.4-.5-.66-.5-.66.16-1.04.17-.1.33-.2.5-.28.14-.07.35.06.36.21.01.16.02.32,0,.48-.05.54.05,1.01.47,1.39.22.2.17.46.07.71-.34.87-.58,1.76-.68,2.69-.05.47-.03.96-.17,1.42-.65-.23-1.3-.46-1.96-.69Zm.48-1.74c.17-.18.16-.45-.1-.78-.16-.21-.26-.42-.3-.68-.04-.26-.23-.37-.47-.39-.21-.01-.38.09-.47.27-.09.17-.16.35-.2.54-.1.52.15.84.83,1.09.24.11.49.18.71-.05Zm-4.78-2.49c.22.13.62,0,.73-.23.11-.25-.05-.58-.33-.69-.22-.08-.55.05-.65.26-.08.18.05.54.25.66Z"/>
      <path class="cls-5" d="m169.86,53.66c-.51-.26-.71-.67-.75-1.22-.04-.53-.18-.64-.72-.66-.25,0-.51,0-.76.03-.49.08-.68.66-.34,1.03.19.21.48.33.48.67-.39-.13-.79-.23-1.14-.46.24-.36.31-.7-.11-.99-.14-.1-.04-.19.04-.3.27-.38.25-.64-.1-.88-.21-.15-.46-.23-.61-.45-.04-.05-.06-.11-.09-.17.02-.03.03-.06.05-.07.75-.37.71-.35.42-1.18-.21-.59-.34-1.22-.32-1.86h0c.2.17.39.33.59.49.13.11.27.18.44.12.2-.07.28-.23.34-.43.06-.22-.27-.45-.02-.61.13-.08.37.02.56,0,.17-.01.3-.12.37-.27.1-.23.18-.48.29-.71.14-.29.29-.36.63-.3.09.01.18.07.28.08.53.07.84-.14,1.02-.65.1-.28.05-.57.1-.85.04-.26.06-.51.03-.76.43.11.77.3.82.81.02.24.22.39.39.54.77.66,1.29,1.49,1.75,2.37.29.56.39,1.07.08,1.63-.07-.1-.15-.2-.22-.31-.47-.79-1.33-.93-2.19-.68-.56.16-1.08.95-.7,1.62.27.47.5.95.93,1.32-.22.33-.44.61-.6.91-.27.5-.21.99.12,1.44.17.23.4.41.72.4.16,0,.31.05.47.08-.35.89-.7,1.08-1.61.9-.16-.24-.35-.47-.61-.6Zm-.58-6.25c.21.08.57-.09.64-.3.09-.28-.15-.67-.46-.73-.22-.05-.48.11-.52.32-.06.27.12.64.35.72Z"/>
      <path class="cls-8" d="m165.99,29.2s.05-.04.07-.06c.48.1.95.13,1.44-.01.18-.05.39-.06.57,0,.37.11.72.21,1.11.2.27,0,.44.23.45.53,0,.09-.03.19-.05.28-.05.25.07.36.3.39.95.1,1.9.2,2.86.29.25.02.55.24.73.06.24-.25-.08-.51-.17-.77-.05-.15-.12-.32-.03-.46.18-.27.4-.5.73-.58.22-.06.47.04.56.26.06.15.08.31.14.46.14.32.09.71.37.97-.02.06-.05.13-.08.19-.12.08-.2.18-.24.29-.01,0-.03.02-.04.03-.44.04-.53.43-.69.72-.14.26-.13.56-.06.85.03.14.12.22.24.28.11.06.23.12.32.21.15.15.17.34.09.53-.06.16-.18.25-.35.29-.37.09-.69-.08-1.04-.15-.14-.03-.26.02-.33.14-.07.11-.11.25-.02.36.16.2.34.38.52.57-.02.16-.02.32-.05.47-.07.39-.31.57-.67.46-.64-.19-1.31-.34-1.69-.98-.07-.21-.13-.43-.21-.63-.19-.5-.35-1.02-1.04-1.07-.33-.02-.55-.3-.53-.59.04-.45-.17-.63-.52-.77-.11-.04-.18-.18-.28-.25-.19-.14-.41-.23-.63-.14-.22.09-.14.32-.17.5-.1.46-.41.7-.88.73-.37.02-.69-.24-.83-.67-.03-.09-.03-.19-.05-.28-.09-.44-.1-.4-.59-.54-.53-.15-1.06-.34-1.34-.87.75-.14,1.42-.58,2.11-1.22Z"/>
      <path class="cls-8" d="m185.08,66.18c.17-.25.25-.51.16-.82-.07-.25-.09-.5-.15-.75-.06-.24-.04-.44.2-.58.11-.07.24-.16.27-.26.14-.53.46-.87.92-1.14.29-.17.35-.62.2-.97-.17-.39-.48-.6-.89-.63-.34-.02-.63.12-.8.43-.09.17-.17.36-.19.54-.04.39-.29.54-.63.62-.06.02-.12.05-.18.06-.66.06-1.05.42-1.1,1.13-.52-.11-.99-.16-1.4.21-.13.12-.3.07-.46.06-.26-.01-.51,0-.76.1-.19.08-.36.07-.52-.1-.26-.28-.53-.24-.86-.06-.73.4-1.49.75-2.23,1.13-.32.16-.64.29-.99.08-.23-.14-.49-.1-.75-.07-.66.08-.69.11-.77.82,0,.09-.04.18-.09.26-.03.05-.1.06-.16.09-.08.03-.13,0-.14-.08-.02-.25.05-.53-.21-.69-.31-.19-.63-.05-.92.05-.46.16-.84.36-1.05.89-.17.41-.48.83-1.03.92-.39.06-.47.39-.54.71.23.18.5.28.79.33.12.02.29.06.37,0,.5-.34,1.11-.24,1.64-.48.49-.22,1.04-.34,1.53-.56,1.73-.76,3.45-1.53,5.22-2.33.19.04.12.29.22.43.23.33.53.55.94.59,1.08.1,2.16.21,3.25.31.39.03.77.01,1.1-.24Z"/>
      <path class="cls-5" d="m168.86,42.29c-.58-.44-1.16-.86-1.72-1.31-.23-.18-.47-.31-.73-.41-.04.09-.06.19-.12.26-.29.41-.63.8-.51,1.37.02.1-.08.24-.14.35-.11.19-.22.39-.36.56-.2.23-.36.45-.11.75.04.05.06.11.08.18.09.36-.15.63-.52.61-.18,0-.31-.25-.51-.12-.11.2-.19.41-.32.59-.31.43-.72.4-1-.03-.38-.58-.34-1.22-.31-1.86.01-.27.23-.51.51-.47.4.05.73-.23,1.13-.15.12.02.23-.11.23-.25,0-.22-.17-.34-.33-.44-.13-.08-.23,0-.31.13-.15.25-.37.36-.65.26-.23-.08-.43-.07-.65.02-.16.06-.31.02-.44-.11-.09-.09-.17-.19-.26-.28-.18-.21-.41-.14-.63-.1-.24.05-.27.25-.27.44,0,.51-.2,1-.08,1.52.05.24-.08.44-.32.52-.25.08-.43-.04-.56-.25-.07-.11-.14-.21-.21-.32-.24.46-.23.9.15,1.29.29.29.33.66.39,1.03.05.3-.02.64.28.86.15-.44.14-.93.38-1.35.25-.43.71-.51.99-.11.31.44.59.9.83,1.38.2.39.36.79.67,1.14.34.39.17.76-.36.89-.26.06-.5.11-.56.42-.07.34-.37.4-.62.52.52,1.28,1.3,2.31,2.66,2.78.16.05.31.07.46,0-.29-.25-.59-.49-.88-.74-.14-.13-.27-.27-.37-.43-.14-.23-.06-.51.18-.66.08-.05.18-.08.27-.1.2-.04.26-.18.23-.35-.07-.41-.16-.82-.23-1.23-.05-.29-.12-.59.09-.83.2-.24.05-.38-.05-.58-.17-.36.01-.65.41-.65.41,0,.83-.03,1.23.14h0c-.03-.37-.37-.59-.49-.92-.17-.48-.01-.96.47-1.07.44-.1.74-.36,1.02-.67.18-.2.4-.31.68-.24.15.04.32.04.48.03.17-.01.35.18.51-.02,0-.04,0-.08-.02-.1-.06-.07-.13-.14-.19-.21-.43-.47-.4-1,.08-1.4.12-.1.28-.15.42-.23Z"/>
      <path class="cls-5" d="m218.52,36.24c.37.34.72.47,1.19.44.16-.01.32-.02.48,0,.27.02.43-.11.49-.35.1-.39.4-.65.59-.97.06.07.11.18.18.22.42.22.72.47.64,1.02-.03.22.24.38.48.33.4-.08.8-.19,1.2-.29.02.04.04.08.06.11-.37.4-.24.77.04,1.15-.45.14-.7.52-.99.85-.61.69-1.21,1.4-2.2,1.55.03-.6.03-1.21.1-1.81.06-.51-.23-.77-.58-1-.09-.06-.3.04-.3.14,0,.19.03.38.02.57,0,.13,0,.27-.06.37-.06.1-.18.17-.29.22-.14.06-.25-.03-.31-.15-.12-.26-.28-.52-.33-.8-.1-.54-.6-.62-.94-.86-.07-.05-.2.03-.22.12-.04.15-.07.31-.07.46-.02.83-.04,1.66-.05,2.49,0,.73,0,1.47,0,2.2-.23-.06-.44-.02-.66.06-.54.19-1.09.37-1.61.61-.4.19-.75-.03-1.07-.24-.21-.14-.2-.38-.14-.61.14-.17.3-.31.28-.58-.02-.28,0-.57.05-.85.28-1.59.51-3.19.87-4.76.14-.6.11-1.03-.36-1.42-.04-.03-.03-.12-.04-.18,1.41.22,2.53,1.01,3.54,1.94Zm-1.97-.56c-.04-.2-.19-.32-.37-.41-.2-.1-.43,0-.42.2.02.7-.09,1.4-.15,2.09-.03.31.02.63.05.95.02.22.18.33.39.34.18,0,.3-.1.36-.26.04-.09.06-.18.15-.43.2-.72.16-1.61-.01-2.49Zm-1.14,4.76c-.01.14.06.26.19.29.18.05.3-.08.34-.24.05-.24.09-.49.11-.74.03-.29-.06-.45-.2-.44-.18.02-.32.17-.36.37-.03.26-.05.51-.08.76Z"/>
      <path class="cls-8" d="m159.74,43.75c.07.11.15.21.21.32.13.21.31.33.56.25.25-.08.38-.28.32-.52-.12-.52.09-1.01.08-1.52,0-.19.02-.4.27-.44.22-.04.44-.11.63.1.08.1.17.19.26.28.12.13.27.17.44.11.22-.08.43-.1.65-.02.28.1.5-.01.65-.26.07-.12.18-.21.31-.13.16.1.33.21.33.44,0,.14-.11.28-.23.25-.4-.08-.73.2-1.13.15-.28-.04-.5.2-.51.47-.03.64-.07,1.28.31,1.86.28.43.69.46,1,.03.13-.18.22-.39.32-.59.21-.12.33.12.51.12.37.02.61-.25.52-.61-.02-.06-.04-.13-.08-.18-.24-.3-.08-.51.11-.75.14-.17.25-.37.36-.56.06-.11.16-.25.14-.35-.12-.57.22-.96.51-1.37.05-.08.08-.18.12-.26-.07-.17-.16-.31.06-.49.38-.33.4-.69.02-.95-.82-.55-1.57-1.23-2.58-1.44-.29.2-.45.52-.75.72-.3.2-.32.42-.16.75.06.11.13.22.22.31.09.11.13.24.04.34-.34.36-.25.68.06,1,.06.06.06.17.11.32-.48-.17-.8-.48-1.18-.69-.67-.39-1.36-.69-2.16-.59-.51.52-.63,1.14-.47,1.84.23.19.26.42.11.67-.09.46.02.93,0,1.39Z"/>
      <path class="cls-4" d="m172.89,34.12c.07-.12.19-.16.33-.14.34.07.67.24,1.04.15.17-.04.29-.13.35-.29.08-.19.06-.38-.09-.53-.09-.09-.21-.15-.32-.21-.11-.07-.21-.15-.24-.28-.06-.29-.08-.59.06-.85.16-.3.25-.68.69-.72,0,.02.01.03.02.05,0,.03-.01.06-.02.1-.03,0-.05-.01-.08,0-.02,0-.04,0-.05,0-.18,0-.32.16-.3.33.02.17.2.31.37.25.05-.02.1-.03.14-.06.01,0,.02-.02.03-.03.21.36.68.61,1.15.36.04-.02.11-.03.2-.03.02.07.06.13.14.17.85.37,1.72.68,2.57,1.07.64.29,1.3.65,1.99.46.21.11.41.23.62.33.27.13.58.28.71.61-.52.57-.57.72-.22,1.31.18.31.22.57.11.89-.41-.07-.82-.04-1.22-.2-1.07-.42-2.25-.46-3.3-.95-.65,0-1.25-.24-1.85-.44-.15-.05-.32-.03-.47-.06-.62-.15-1.27-.13-1.87-.35-.17-.19-.35-.37-.52-.57-.09-.11-.05-.25.02-.36Z"/>
      <path class="cls-8" d="m222.42,58.25c-.25-.6-.34-.63-.83-.35-.1.06-.21.11-.31.17-.04.01-.08.02-.12.04l.11-.07c.07-.32.21-.6.4-.86.1-.13.18-.27.17-.44,0-.17-.07-.31-.23-.39-.16-.08-.32-.05-.44.07-.09.08-.17.19-.22.31-.25.58-.71.99-1.2,1.34-.7.5-1.44.94-2.17,1.39-.19.12-.4.19-.61.27-.25.09-.44-.02-.52-.28-.07-.25-.1-.5-.17-.75-.04-.15-.12-.29-.18-.44-.14-.03-.28-.07-.42-.1-.08.4.09.75.17,1.12.05.27,0,.51-.25.68-.13.09-.26.19-.39.27-.23.15-.5.45-.75.26-.18-.14-.26-.53-.23-.78.04-.34-.01-.6-.15-.9-.16-.34.06-.68.11-1.03.05-.31-.18-.5-.46-.39-.5.19-.78.63-1.11,1.02-.02.02-.02.07-.01.09.33.47-.14.64-.33.94-.21.35-.32.75-.62,1.06-.08.08-.1.23-.12.36-.06.41-.1.81-.15,1.22.13.1.27.19.44.14.43-.15.87-.2,1.32-.18.35.01.63-.11.77-.45.07-.16.16-.26.36-.23.8.14,1.49-.24,2.22-.46.21-.07.41-.19.62-.26.27-.1.54-.2.84-.06.25.11.52.07.75-.02,1.36-.56,2.68-1.2,3.72-2.28Z"/>
      <path class="cls-8" d="m230.54,34.34c.03.41.37.66.52,1.01.09.21.32.3.54.37,1.1.35,2.12.88,3.1,1.49.29.18.6.19.92.13.85-.51,1.66-1.07,2.45-1.67.13-.1.27-.18.38-.29.44-.44.33-.97-.25-1.21-.72-.31-1.49-.36-2.25-.37-1.12-.02-2.23.07-3.34.21-.69.09-1.4.07-2.07.34Z"/>
      <path class="cls-8" d="m166.28,56.44c0,.51-.45.93-.33,1.48.01.05-.04.13-.08.17-.33.29-.34.66-.3,1.06.02.15-.06.31-.06.47,0,.18-.08.29-.25.36-.15.06-.3.13-.41.23-.19.16-.22.51-.05.7.23.26.45.55.72.76.49.37,1,.62,1.67.44.68-.18,1.39-.25,2.08-.39.22-.04.43-.14.63-.23.15-.07.24-.21.21-.39-.03-.17-.13-.3-.29-.35-.15-.05-.31-.05-.47-.07-.3-.04-.49-.17-.53-.44-.04-.28-.04-.57-.06-.85-.18-.18-.13-.43-.19-.65-.44-.18-.68-.46-.51-.97.06-.18.06-.4-.04-.56-.33-.54-.6-1.15-1.35-1.21-.13.16-.27.31-.4.47Z"/>
      <path class="cls-4" d="m189.77,37.82c-.15-.37-.41-.7-.46-1.11.54-.1,1.06-.02,1.57.16.54.18,1.08.37,1.63.55-.02.74.5,1.18.94,1.66.12.13.3.08.43,0,.14-.1.2-.25.15-.41-.04-.12-.12-.22-.18-.33-.14-.24-.28-.49-.42-.73,1.05.26,2.12.31,3.19.35.41.02.82-.08,1.21.12-.36.25-.44.55-.22.96.27.49.54.99.55,1.58-.14.1-.3.12-.45.06-.75-.3-1.54-.37-2.34-.42-1.11-.08-2.21-.3-3.29-.54-.81-.18-1.57-.54-2.35-.82.22-.35.19-.7.04-1.06Zm4.97.81c-.12.06-.18.18-.15.32.05.25.16.48.33.67.09.1.22.14.34.11.12-.03.22-.13.24-.26.07-.34-.12-.75-.45-.91-.08.02-.2.02-.31.07Z"/>
      <path class="cls-8" d="m210.71,62.15c-.04-.12-.06-.26-.14-.35-.36-.41-.44-.93-.45-1.43-.01-.86-.32-1.62-.61-2.4-.11-.3-.22-.6-.35-.89-.03-.06-.16-.13-.23-.11-.07.02-.17.13-.17.2.02.36-.04.69-.16,1.03-.06.16.03.37.07.56.07.41.21.8.19,1.23-.03.53-.11,1.02-.58,1.35-.1.07-.2.17-.25.28-.15.33-.45.35-.73.33-.31-.02-.61-.13-.95-.21.25-.85.17-1.69.4-2.5.13-.45,0-.95-.21-1.4-.12-.24-.33-.34-.55-.28-.22.07-.37.26-.39.49,0,.03-.01.07,0,.1.24.87-.15,1.7-.21,2.55-.02.39-.39.71-.35,1.16.01.15-.22.19-.36.26-.51.25-.54.53-.27,1.12.41-.02.84-.3,1.26-.23.53.08,1.06-.13,1.58-.28.3-.09.59-.21.92-.13.14.03.31-.03.47-.05.59-.09,1.16-.31,1.78-.2.08.02.2-.14.29-.21Z"/>
      <path class="cls-7" d="m186.35,38.14c-.21.48,0,.79.46,1.05-.18.08-.3.12-.41.17-.23.1-.36.26-.34.52.01.19.08.37,0,.56-.16.41.04.69.37.87.3.17.63.29.96.41.23.08.44.02.59-.19.12-.17.15-.38,0-.53-.23-.24-.2-.51-.2-.8,0-.2.07-.25.24-.32.54-.23.61-.36.35-.85-.16-.3-.13-.45.12-.63.06-.17.16-.36.05-.53-.11-.18-.36-.32-.38-.49-.04-.28.35-.3.47-.52.07-.14.14-.27.21-.41-.05-.06-.11-.11-.16-.17-.25-.09-.51-.18-.76-.26-.54-.14-1.08-.29-1.64-.3-.42.55-.55,1.1-.03,1.67.1.11.17.26.25.39.14.2-.04.26-.15.36Z"/>
      <path class="cls-8" d="m165.9,47.13c-.4-.17-.82-.14-1.23-.14-.39,0-.58.3-.41.65.1.2.25.34.05.58-.2.24-.14.55-.09.83.07.41.16.82.23,1.23.03.18-.03.31-.23.35-.09.02-.19.05-.27.1-.24.15-.33.43-.18.66.1.16.23.3.37.43.28.26.58.5.88.74.52.19,1.02.47,1.59.46.24-.36.31-.7-.11-.99-.14-.1-.04-.19.04-.3.27-.38.25-.64-.1-.88-.21-.15-.46-.23-.61-.45-.04-.05-.06-.11-.09-.17.02-.03.03-.06.05-.07.75-.37.71-.35.42-1.18-.21-.59-.34-1.22-.32-1.86Z"/>
      <path class="cls-8" d="m197.21,64.97c.09-.17.18-.34.27-.51q.18-.33-.12-.64c-.27-.28-.31-.48-.03-.7.51-.41.78-.99,1.16-1.49.12-.16.19-.32.21-.52.05-.44-.05-.57-.5-.6-.19-.02-.38-.03-.57-.05-.29-.03-.48.08-.59.37-.18.48-.55.85-.83,1.26-.07.1-.17.22-.27.24-.39.09-.6.32-.69.71-.03.15-.15.28-.24.4-.25.33-.35.66-.11,1.06.14.23.03.5,0,.75.28.11.55.12.84.04.49-.13.99-.22,1.49-.32Z"/>
      <path class="cls-8" d="m161.9,49.8c.25-.12.56-.17.62-.52.06-.31.3-.35.56-.42.53-.13.69-.5.36-.89-.3-.34-.46-.74-.67-1.14-.24-.48-.52-.94-.83-1.38-.29-.41-.75-.33-.99.11-.24.42-.23.91-.38,1.35.03.23-.05.44-.15.64-.13.26-.08.52.15.69.31.21.47.5.59.84.13.35.43.54.75.71Z"/>
      <path class="cls-8" d="m168.3,27.03c.12-.12.24-.24.35-.35.18.04.37.07.54-.07.27-.24.61-.22.92-.16.75.14,1.51.31,2.24.51.56.15.63.43.32.92-.25.39-.25.52.06.82.11.11.27.17.33.33.05.12.06.25,0,.37-.2.38-.87.49-1.04.13-.27-.59-.77-.85-1.29-1.07-.61-.27-1.24-.54-1.92-.62-.43-.05-.63-.26-.68-.63.05-.06.11-.11.16-.17Z"/>
      <path class="cls-8" d="m176.01,22.26c.5.04,1,.07,1.49.16.34.06.71.17.9.5.28.5.52,1.01.76,1.53.07.15.02.32-.11.44-.15.14-.34.19-.53.1-.11-.05-.24-.12-.3-.22-.34-.53-.85-.66-1.42-.59-.46.06-.89-.06-1.33-.09-.31-.02-.61-.1-.94-.02-.38.08-.64-.24-.57-.65.02-.11.07-.22.11-.33.65-.28,1.3-.55,1.95-.83Z"/>
      <path class="cls-4" d="m201.65,40.01c.48.19.95.02,1.42-.03.7-.08,1.4-.19,2.09,0-.2-.65-.61-1.18-.97-1.74-.11-.17-.24-.28-.46-.28-.69,0-1.27-.37-1.9-.59-.13-.05-.22-.22-.34-.33-.16.16-.35.22-.56.28-.32.08-.66.11-.93.33.27.26.54.53.82.79.31.28.58.6.8.95.13.19.07.36-.03.54l.04.09Z"/>
      <path class="cls-8" d="m178.93,28.4c.38-1.02.31-.9-.59-1.62-.61-.15-.78-.6-.8-1.15-.01-.46-.27-.69-.68-.82-.32-.1-.63.11-.58.42.08.44.05.81-.26,1.15-.07.07-.08.26-.03.36.16.38.26.84.54,1.11.3.29.38.51.3.9-.05.25.2.38.39.5.65-.13,1.11-.62,1.71-.85Z"/>
      <path class="cls-8" d="m237.11,40.14c-.09.13-.22.23-.24.4-.03.25-.07.51-.13.75-.15.57-.15.57.35.84.06.03.12.06.17.09.18.11.15.28-.07.4-.4.22-.42.3-.14.62.08.1.18.18.27.27.09.09.17.19.26.29-.08.03-.14.06-.19.07-.6.09-.69.24-.43.71.12.22.28.43.41.65.09.15,0,.2-.12.29-.26.21-.3.37-.15.54.29.33.52.74.99.88.42-.44.33-1.02.36-1.54.09-1.54-.15-3.04-.72-4.48-.13-.32-.2-.68-.61-.78Z"/>
      <path class="cls-8" d="m201.5,37.04c.11.11.2.28.34.33.62.22,1.21.59,1.9.59.22,0,.35.11.46.28.36.56.77,1.09.97,1.74.15.2.29.4.45.59.19.24.43.35.74.23.33-.12.39-.37.34-.67-.36-.28-.57-.66-.75-1.07-.21-.46-.44-.91-.73-1.32-.29-.41-.61-.72-1.16-.63-.13.02-.24-.05-.32-.16-.29-.12-.58-.24-.87-.36-.17-.07-.35-.14-.53-.17-.22-.04-.44-.03-.63.12-.16.13-.18.32-.2.51Z"/>
      <path class="cls-8" d="m226.98,35.31c.83.27,1.52.78,2.19,1.32.2.16.4.32.6.48.11.09.26.12.35.03.14-.13.08-.3-.04-.42-.18-.18-.37-.35-.56-.51-.17-.15-.38-.27-.43-.5-.12-.49-.53-.69-.89-.94-.18-.12-.43-.14-.52-.39-.3-.15-.59-.33-.94-.06-.1.07-.3,0-.45,0-.25.43-.26.44-.61.35-.34-.09-.67-.22-.97.09.06.2.22.29.41.35.83.27,1.44.84,1.98,1.5.43.22.71.62,1.05.95.15.15.28.08.49-.2-.25-.41-.59-.75-.92-1.09-.29-.29-.63-.54-.83-.91-.08-.04-.16-.08-.24-.13-.04-.03-.07-.08-.1-.13.06,0,.12-.04.17-.02.12.03.21.11.26.23Z"/>
      <path class="cls-4" d="m183.17,34.95c.72.41,1.73,1.21,2.59.98.16-.04.3-.14.42-.26.03.02.07.03.1.05-.42.55-.55,1.1-.03,1.67.1.11.17.26.25.39.14.2-.04.26-.15.36-.86-.3-1.72-.59-2.57-.89-.09-.11-.08-.24-.04-.36.12-.35-.02-.62-.27-.86-.25-.24-.55-.45-.56-.86.07-.1.16-.18.26-.22Z"/>
      <path class="cls-8" d="m180.12,20.5c-.18.32-.15.6.13.86.19.17.39.33.65.4.37.1.73.25,1.11.3.3.04.42.15.54.43.15.37.46.46.78.34.2-.07.31-.22.36-.42.05-.21-.03-.38-.19-.51-.07-.06-.17-.08-.26-.13-.35-.19-.54-.5-.44-.86.16-.63-.13-.97-.63-1.23-.77.06-1.41.41-2.05.81Z"/>
      <path class="cls-8" d="m184.01,25.9c-.14-.53-.63-.89-.77-1.43-.02-.07-.14-.13-.22-.17-.68-.26-1.32-.12-1.93.22-.23.13-.33.34-.2.57.19.33.18.66.21,1.01.03.34.27.52.6.44.34-.09.63-.01.93.12.23-.07.46-.16.7-.21.33-.07.55-.25.68-.55Z"/>
      <path class="cls-7" d="m183.78,37.25c-.09-.11-.08-.24-.04-.36.12-.35-.02-.62-.27-.86-.25-.24-.55-.45-.56-.86-.2-.17-.45-.24-.7-.32-.52.57-.57.72-.22,1.31.18.31.22.57.11.89-.01,1.01-.15.79.69,1.35.24.16.47.32.76.39.2.05.38,0,.51-.16.14-.16.14-.37.02-.53-.2-.26-.39-.5-.3-.85Z"/>
      <path class="cls-4" d="m198.93,40.67c.3.17.6.12.91,0,.61-.22,1.31-.16,1.81-.66l-.04-.09c-.16-.03-.31-.07-.41-.21-.13-.18-.26-.36-.45-.48-.6-.38-1.04-.93-1.44-1.5-.31.03-.62.06-.94.08-.18.02-.28.12-.35.28.37.47.58,1.03.81,1.57.14.32.2.65.11,1Z"/>
      <path class="cls-8" d="m170.47,54.25c-.16-.24-.35-.47-.61-.6-.51-.26-.71-.67-.75-1.22-.04-.53-.18-.64-.72-.66-.25,0-.51,0-.76.03-.49.08-.68.66-.34,1.03.19.21.48.33.48.67.2.21.4.41.6.62.29.07.49.28.73.43.16.1.33.18.51.25.48.17.64.07.87-.53Z"/>
      <path class="cls-8" d="m188.59,23.22c-.05-.38-.03-.75.1-1.13.13-.37-.21-.62-.57-.47-.15.06-.29.14-.43.22-.26.16-.51.2-.82.15-.51-.08-.79.23-.75.73.04.39.1.78.58.88.24.05.38.23.52.41.66.09,1.07-.25,1.36-.79Z"/>
      <path class="cls-1" d="m224.71,34.77c.3-.3.63-.18.97-.09.35.1.36.08.61-.35-.05-.21-.2-.31-.39-.38-.72-.29-1.48-.36-2.23-.44-.86-.1-1.47.29-1.78,1.12.48.14.96.27,1.38.56.45-.24.89-.52,1.44-.42Z"/>
      <path class="cls-8" d="m192.96,19.83c-.24-.31-.52-.46-.9-.25-.26.15-.53.19-.82.05-.18-.08-.37-.05-.56-.03-.82.1-.91.3-.7,1.12.14.52.41.75.91.78.51-.31,1.01-.64,1.53-.94.3-.17.47-.4.53-.73Z"/>
      <path class="cls-8" d="m186.45,17.69c.18.12.37.24.35.51-.01.18.07.29.23.38.11.06.22.13.31.22.2.23.08.63-.21.7-.12.03-.25.02-.38.04-.79.14-1.3-.67-2.07-.63-.1,0-.2-.15-.3-.23-.03-.02-.05-.04-.08-.05,0-.04,0-.08,0-.12.76-.2,1.47-.47,2.14-.82Z"/>
      <path class="cls-8" d="m159.75,38.97c.28-.05.58-.05.84-.15.65-.24.85-.89.49-1.49-.17-.27-.4-.4-.72-.35-.19.03-.38.08-.57.08-.59,0-.96.27-1.14.82.12.61.59.87,1.1,1.08Z"/>
      <path class="cls-7" d="m223.27,35.19c-.42-.29-.9-.42-1.38-.56-.32.14-.62.31-.63.72.06.07.11.18.18.22.42.22.72.47.64,1.02-.03.22.24.38.48.33.4-.08.8-.19,1.2-.29.2-.38.18-.7-.26-.9-.23-.11-.26-.32-.25-.54Z"/>
      <path class="cls-5" d="m166.68,55.97c.75.07,1.03.68,1.35,1.21.1.16.1.38.04.56-.18.51.07.79.51.97.06-.47.1-.94.28-1.38.19-.44.07-.86-.09-1.28-.16-.41-.5-.54-.86-.67-.75-.12-.87-.07-1.23.59Z"/>
      <path class="cls-5" d="m198.78,12.44c-.35-.29-.36-.73-.46-1.12-.13-.53-.47-.81-.95-.98-.15-.05-.31-.07-.45.05-.16.13-.22.42-.12.61.04.08.1.17.16.23.33.29.5.68.57,1.08.08.44.29.68.72.77.09.02.16.1.24.15.09-.26.19-.52.28-.78Z"/>
      <path class="cls-5" d="m196.35,13.18c.14-.04.26.02.33.13.08.13.16.28.18.43.05.34.07.69.09,1.04.01.28-.01.57.15.83-.04.11-.09.22-.13.34-.17.19-.33.39-.49.59-.04,0-.08,0-.13-.02-.27-.13-.35-.39-.3-.64.11-.51-.01-1.01.02-1.51.02-.31,0-.63.02-.95,0-.14.14-.2.27-.24Z"/>
      <path class="cls-8" d="m188.84,36.45c-.07.14-.14.27-.21.41-.11.22-.51.24-.47.52.03.18.27.32.38.49.11.17.01.36-.05.53.19.05.35.14.47.29.21.26.48.25.77.18.22-.35.19-.7.04-1.06-.15-.37-.41-.7-.46-1.11-.16-.09-.32-.17-.47-.26Z"/>
      <path class="cls-4" d="m156.85,70.1c.08-.05.18-.08.23-.15.44-.62.85-1.26,1.3-1.87.46-.61.72-1.33,1.05-2-.13,0-.26,0-.35.11-.64.74-1.3,1.47-1.78,2.32-.27.48-.59.98-.45,1.59Z"/>
      <path class="cls-8" d="m205.69,34.04c-.03.29-.07.57-.07.86,0,.4.17.63.43.65.28.03.49-.16.58-.53.02-.09.03-.19.05-.28.04-.22.07-.44.11-.66.09-.51.08-.54-.53-.82-.29.19-.42.49-.56.78Z"/>
      <path class="cls-8" d="m198.93,40.67c.09-.35.02-.68-.11-1-.23-.54-.44-1.1-.81-1.57-.06,0-.11-.01-.17-.03-.36.25-.44.55-.22.96.27.49.54.99.55,1.58.24.16.49.18.76.06Z"/>
      <path class="cls-8" d="m199.3,37.74c.41.57.84,1.12,1.44,1.5.2.13.32.3.45.48.1.14.26.18.41.21.1-.17.15-.34.03-.54-.23-.35-.5-.66-.8-.95-.28-.26-.55-.53-.82-.79-.26-.15-.51-.23-.71.09Z"/>
      <path class="cls-8" d="m192.52,37.42c-.02.74.5,1.18.94,1.66.12.13.3.08.43,0,.14-.1.2-.25.15-.41-.04-.12-.12-.22-.18-.33-.14-.24-.28-.49-.42-.73-.06-.07-.12-.15-.19-.22-.29-.25-.32-.25-.73.03Z"/>
      <path class="cls-5" d="m164.79,70.22c-.09.52-.31.96-.72,1.3-.12.1-.19.24-.29.37.12.04.26.08.36-.01.82-.75,1.72-1.41,2.45-2.26.04-.05.05-.11.08-.17-.47-.12-.77.17-1.06.46-.23.23-.46.44-.82.31Z"/>
      <path class="cls-7" d="m226.34,56.97c.02-.06.04-.12.06-.18.14-.57-.12-.87-.67-.75-.12.03-.24.08-.36.13-.45.21-.52.37-.4.91.01.06.03.12.05.18.52.26.92-.02,1.32-.29Z"/>
      <path class="cls-5" d="m200.08,10.44c-.29-.02-.28-.3-.42-.45-.11-.13-.26-.19-.42-.15-.17.04-.28.19-.27.34.03.52-.22,1.05.06,1.57.37.11.62-.03.75-.4.1-.3.2-.61.3-.91Z"/>
      <path class="cls-5" d="m216.34,32.94c.06-.25.1-.5-.12-.7-.04-.04-.12-.07-.17-.06-.36.04-.39.37-.49.61-.1.25,0,.42.25.51.25-.01.44-.11.52-.37Z"/>
      <path class="cls-2" d="m230.19,55.88c-.08.11-.17.22-.25.32.56.05,1.11.06,1.63-.2-.09-.05-.18-.11-.28-.16-.37-.07-.73.16-1.11.04Z"/>
      <path class="cls-5" d="m163.78,71.89c-.51.2-.86.6-1.17,1.03.09,0,.21.05.27.01.39-.27.78-.54.89-1.04Z"/>
      <path class="cls-4" d="m239.46,46.84c.47.1.84-.08,1.16-.41-.51-.2-.89-.06-1.16.41Z"/>
      <path class="cls-5" d="m159.73,42.36c.15-.25.12-.48-.11-.67-.08.24-.19.49.11.67Z"/>
      <path class="cls-5" d="m162.61,72.92c-.26.05-.45.19-.54.44q.38-.01.54-.44Z"/>
      <path class="cls-8" d="m187.92,36.02c.25.09.51.18.76.26-.29-.38-.31-.38-.76-.26Z"/>
      <path class="cls-8" d="m173.54,48.59c-.07-.1-.15-.2-.22-.31-.47-.79-1.33-.93-2.19-.68-.56.16-1.08.95-.7,1.62.27.47.5.95.93,1.32-.22.33-.44.61-.6.91-.27.5-.21.99.12,1.44.17.23.4.41.72.4.16,0,.31.05.47.08.19-.11.39-.22.58-.34.22-.14.43-.31.52-.55.17-.46.45-.84.72-1.24.36-.53.22-1.11.04-1.66-.11-.33-.37-.61-.41-.97Z"/>
      <path class="cls-8" d="m220.68,40.3c.03-.6.03-1.21.1-1.81.06-.51-.23-.77-.58-1-.09-.06-.3.04-.3.14,0,.19.03.38.02.57,0,.13,0,.27-.06.37-.06.1-.18.17-.29.22-.14.06-.25-.03-.31-.15-.12-.26-.28-.52-.33-.8-.1-.54-.6-.62-.94-.86-.07-.05-.2.03-.22.12-.04.15-.07.31-.07.46-.02.83-.04,1.66-.05,2.49,0,.73,0,1.47,0,2.2.04.48.06.96.28,1.4.07.14.28.17.41.07.23-.17.31-.4.28-.67-.1-1,.35-1.87.64-2.78.01-.04.09-.09.14-.09.05,0,.13.04.15.09.23.6.34,1.23.47,1.85.04.22.08.44.14.65.03.09.12.16.23.12.08-.03.2-.09.22-.15.04-.15.02-.31.02-.47-.02-.67-.18-1.34.07-1.99Z"/>
      <path class="cls-8" d="m168.86,42.29c-.14.08-.3.13-.42.23-.48.41-.51.93-.08,1.4.06.07.13.14.19.21.02.02,0,.06.02.1-.15.2-.34.01-.51.02-.16.01-.32,0-.48-.03-.29-.07-.5.04-.68.24-.28.31-.58.57-1.02.67-.49.11-.65.59-.47,1.07.12.33.46.55.49.92.2.16.39.32.59.49.13.11.27.18.44.12.2-.07.28-.23.34-.43.06-.22-.27-.45-.02-.61.13-.08.37.02.56,0,.17-.01.3-.12.37-.27.1-.23.18-.48.29-.71.14-.29.29-.36.63-.3.09.01.18.07.28.08.53.07.84-.14,1.02-.65.1-.28.05-.57.1-.85.04-.26.06-.51.03-.76-.47-.46-1.02-.78-1.66-.94Z"/>
      <path class="cls-4" d="m197.11,44.19c-.26.74-.25,1.37,0,1.99.22.56.77.75,1.25.46.27-.16.43-.43.41-.71-.05-.55.15-.99.42-1.43.08-.13.13-.29.15-.45.06-.43-.13-.78-.48-.96-.41-.21-.82-.15-1.15.16-.23.22-.5.67-.59.94Z"/>
      <path class="cls-7" d="m214.75,55.95q.59-.07.75-.71c-.15-.32-.3-.63-.35-.99-.06-.38-.25-.72-.47-1.03-.14-.2-.5.01-.54-.27-.04-.22-.01-.44-.11-.65-.12-.26-.22-.53-.34-.79-.12-.25-.4-.35-.65-.21-.25.14-.49.31-.7.49-.2.17-.2.5,0,.69.14.13.3.23.46.33.24.15.49.3.74.44.12.07.2.17.18.31-.05.31.04.56.26.78.08.08.12.23.14.35.09.49.33.89.66,1.26Z"/>
      <path class="cls-5" d="m223.27,35.19c-.01.22.02.43.25.54.43.21.46.52.26.9.02.04.04.07.06.11.23.07.46.14.7.22.74-.13,1.47-.22,2.22-.25.13,0,.25-.01.35-.09-.54-.66-1.15-1.23-1.98-1.5-.19-.06-.34-.15-.41-.35-.55-.1-.99.18-1.44.42Z"/>
      <path class="cls-8" d="m219.9,49.78c.25.5.63.88,1.04,1.25.43.39.9.61,1.49.34.11-.05.25-.03.38-.07.38-.11.42-.18.43-.71-.17-.14-.34-.3-.59-.21-.57.22-.97-.04-1.32-.45-.1-.12-.2-.24-.3-.37-.17-.2-.36-.36-.65-.31-.3.05-.4.27-.47.53Z"/>
      <path class="cls-4" d="m207.07,50.66c.25.08.42.02.56-.13.12-.13.14-.29.08-.45-.08-.21-.22-.4-.28-.61-.16-.54-.59-1-.43-1.63.05-.19-.13-.35-.3-.46-.18-.12-.37-.1-.54,0-.14.09-.24.23-.22.4.11.63.22,1.25.35,1.87.08.35.31.63.56.88.07.06.16.1.21.13Z"/>
      <path class="cls-4" d="m185.66,56.82c-.14.49.19,1.1.66,1.23.49.14,1.1-.2,1.23-.67.14-.49-.19-1.1-.66-1.23-.49-.14-1.09.19-1.23.67Z"/>
      <path class="cls-4" d="m170.61,40.59c.09-.22.12-.4.09-.6-.05-.34-.23-.6-.56-.71-.28-.09-.56-.02-.8.18-.18.15-.29.33-.37.54-.18.47-.03.96.36,1.15.38.19.91.03,1.17-.35.05-.08.09-.17.11-.21Z"/>
      <path class="cls-4" d="m191.15,53.29c-.17.44.02.96.43,1.14.49.23,1.06-.02,1.26-.53.18-.47-.05-1.02-.51-1.19-.42-.16-1,.13-1.18.58Z"/>
      <path class="cls-7" d="m226.95,51.08c.03-.15.12-.32.09-.46-.08-.32.01-.55.24-.77.18-.18.12-.41.12-.63-.24-.15-.49-.3-.78-.12-.23.14-.45.37-.39.6.14.52-.31.79-.42,1.2-.07.35.03.59.38.71.11.04.23.08.34.12h0c.06-.27.21-.48.42-.65Z"/>
      <path class="cls-8" d="m165.84,34.06c-.03-.18-.02-.38-.09-.55-.14-.37-.51-.59-.89-.55-.33.03-.67.35-.75.74-.02.12,0,.25,0,.37.05.08.08.17.15.24.51.53.9.52,1.41-.01.06-.07.11-.15.16-.23Z"/>
      <path class="cls-4" d="m218.45,47.53c-.21.47.36,1.69.87,1.87.27.1.64-.17.57-.45-.14-.56-.38-1.08-.72-1.55-.17-.23-.61-.14-.73.13Z"/>
      <path class="cls-8" d="m164.87,37.35c.23.1.48.11.74.08.2-.03.36-.14.41-.35.05-.22-.07-.48-.27-.57-.2-.09-.42-.17-.64-.21-.33-.07-.61.1-.68.38-.07.28.09.54.44.67Z"/>
      <path class="cls-7" d="m224.53,36.96c-.23-.07-.46-.14-.7-.22-.37.4-.24.78.04,1.15.21.14.43.28.7.22.22-.05.42-.15.49-.39.07-.24-.01-.43-.21-.58-.1-.07-.22-.12-.33-.19Z"/>
      <path class="cls-7" d="m203.25,56.27c.23.63.43.72.92.4.13-.09.25-.19.38-.27.29-.17.34-.43.3-.73-.34-.29-.68-.23-1.04-.03-.26.15-.42.37-.56.62Z"/>
      <path class="cls-4" d="m214.09,44.09c-.11.27-.13.58.03.88.1.18.24.29.46.28.22-.01.42-.19.45-.43.02-.22.02-.45,0-.67-.02-.26-.19-.42-.42-.46-.22-.04-.4.09-.52.39Z"/>
      <path class="cls-8" d="m226.54,51.74c-.11-.04-.23-.09-.34-.12-.35-.12-.46-.37-.38-.71-.15-.05-.3-.08-.44-.15-.29-.14-.54-.09-.78.11-.07.27-.02.5.15.72.1.14.27.26.4.2.4-.2.75.02,1.12.05.08,0,.18-.06.26-.09Z"/>
      <path class="cls-7" d="m194.25,59.46c.11.11.21.25.34.33.23.14.44.11.59-.09.17-.23.36-.45.39-.75-.13-.29-.34-.46-.66-.42-.32.04-.48.27-.55.57-.01.06-.03.12-.05.18s-.03.12-.05.18Z"/>
      <path class="cls-4" d="m186.36,45.32c-.08.28.09.59.36.67.28.08.59-.09.67-.36.08-.28-.09-.59-.36-.67-.28-.08-.59.09-.67.36Z"/>
      <path class="cls-4" d="m194.6,57.1c-.09.22.03.52.27.65.26.13.63,0,.73-.25.09-.22-.04-.53-.27-.65-.25-.13-.62,0-.73.26Z"/>
      <path class="cls-7" d="m211.34,40.31c-.1.12-.21.24-.29.37-.15.25-.08.5.16.67.19.13.44.12.61-.05.17-.15.17-.41.04-.61-.13-.21-.39-.21-.55-.37h.02Z"/>
      <path class="cls-7" d="m211.58,39.58c-.16-.15-.28-.34-.5-.41-.19-.06-.37-.05-.52.09-.13.12-.12.28-.07.43.04.12.09.23.13.35.24.08.48.17.72.25h-.02c.09-.24.17-.48.26-.72Z"/>
      <path class="cls-4" d="m194.85,41.1c-.08.24.08.59.34.71.16.07.43-.04.48-.19.08-.23-.09-.59-.34-.71-.15-.07-.43.04-.48.2Z"/>
      <path class="cls-4" d="m176.07,50.23c-.09.22.02.44.25.54.27.11.53,0,.62-.25.08-.22-.03-.5-.23-.55-.26-.07-.56.05-.64.26Z"/>
      <path class="cls-8" d="m198.45,58.47c.05.18.07.39.32.42.1.01.18-.05.22-.15.09-.25-.11-.33-.25-.45-.09.06-.19.12-.28.18Z"/>
      <path class="cls-8" d="m190.73,63.85c.33-.23.27-.61.16-1,.27-.4.28-1,.92-1.12.24-.05.47-.19.7-.31.18-.09.3-.23.37-.42.08-.23.04-.48-.13-.61-.17-.13-.38-.16-.54-.03-.36.31-.8.38-1.24.49-.52.14-.97.36-1.05.98-.03.2-.17.33-.31.47-.14.13-.33.27-.37.43-.12.52-.49.71-.92.87-.35.13-.61.35-.69.74-.05.24-.18.4-.43.45-.12.03-.24.08-.36.14-.18.1-.28.25-.23.48.06.23.17.42.42.48.12.03.26.02.38,0,.91-.2,1.81-.4,2.72-.61.03,0,.06-.02.09-.03.41-.14.7-.47.52-.97-.04-.12-.12-.23-.02-.43Z"/>
      <path class="cls-8" d="m226.95,51.08c-.21.18-.36.39-.42.66.47.03.95.05,1.42.09.12.01.28.07.32.16.11.21-.12.24-.24.32-.08.06-.17.09-.24.15-.1.08-.2.19-.17.32.05.29,0,.57-.07.85-.03.14.03.26.15.31.13.05.26,0,.32-.13.08-.17.16-.35.2-.53.08-.34.25-.57.57-.71.9-.4,1.72-.99,2.73-1.12.18-.02.27-.14.32-.31-.05-.03-.11-.07-.16-.1-.36-.21-.37-.22-.26-.57.03-.09.08-.17.12-.26h0c-.23-.06-.44.04-.65.11-.26.09-.5.27-.8.27-.11-.26.08-.44.12-.65.09-.44-.03-.65-.48-.78-.06-.02-.12-.03-.19-.04-.45-.1-.57-.07-.81.31-.46.71-1.08,1.24-1.81,1.66Z"/>
      <path class="cls-8" d="m176.98,60.94c-.15.45-.08.74.21.94.46.3.84.27,1.21-.09.24-.23.36-.52.42-.84.06-.35-.13-.72-.44-.88-.35-.18-.67-.13-.97.14-.21.2-.33.39-.44.73Z"/>
      <path class="cls-7" d="m203.76,58.36c.08-.24.2-.47.24-.72.04-.24-.09-.44-.3-.55-.19-.1-.38,0-.52.12-.12.1-.22.24-.29.38-.19.4-.37.81-.54,1.21-.03.08-.03.19-.03.28.01.25.16.41.38.49.23.09.44.02.59-.18.23-.31.38-.66.46-1.04Z"/>
      <path class="cls-8" d="m187.24,61.31c.47.15.91-.07,1.07-.54.16-.46-.08-.96-.51-1.08-.4-.11-1,.18-1.11.55-.14.46.1.93.55,1.08Z"/>
      <path class="cls-7" d="m215.68,58.16c.14.03.28.07.42.1.4-.35.52-.79.41-1.3-.03-.15-.1-.3-.19-.43-.11-.17-.27-.27-.48-.23-.23.04-.43.23-.41.46.03.47.02.96.25,1.39Z"/>
      <path class="cls-8" d="m168.39,62.5c-.09,0-.28,0-.47.01-.3.03-.48.18-.48.37-.01.29.21.59.48.62.19.02.38,0,.56-.03.29-.05.45-.27.45-.53,0-.2-.17-.36-.54-.44Z"/>
      <path class="cls-7" d="m201.81,62.71c.4.17.95-.19.96-.62.01-.33-.33-.59-.64-.49-.25.08-.43.26-.56.48-.13.21,0,.53.23.63Z"/>
      <path class="cls-7" d="m194.34,61.46c.12-.25-.07-.59-.36-.65-.3-.05-.56.02-.79.21-.17.13-.19.42-.05.6.29.36.99.27,1.2-.16Z"/>
      <path class="cls-8" d="m174.96,64.59c.47.19.88,0,.92-.46.01-.11-.04-.25-.1-.34-.12-.17-.47-.19-.79-.06-.21.09-.34.31-.32.52.02.15.12.27.29.34Z"/>
      <path class="cls-8" d="m197.81,59.51c-.06.17.04.35.23.44.14.06.34-.02.37-.16.04-.17-.08-.35-.29-.4-.12-.03-.25-.03-.31.12Z"/>
      <path class="cls-8" d="m232.1,51.01c-.12-.04-.21,0-.26.12.12.03.2-.01.26-.12Z"/>
      <path class="cls-5" d="m193.24,16.74c.18-.18.43-.33.53-.54.19-.42.41-.71,1.06-.44-.3-.5-.5-.7-.89-.49-.38.2-.68.02-.94-.24-.31-.31-.25-.6.16-.83.29-.16.36-.3.27-.58-.07-.2-.28-.28-.45-.16-.13.1-.28.19-.35.32-.18.38-.49.56-.87.68-.28.09-.3.43-.03.6.27.18.53.35.63.68.05.18.21.23.36.27.42.11.43.41.36.75.06,0,.11-.03.17-.05Z"/>
      <path class="cls-8" d="m189,19.25c.38.17.87-.04,1.02-.44.07-.18-.02-.39-.2-.48-.34-.17-.8-.08-1.05.2-.18.2-.06.6.22.72Z"/>
      <path class="cls-5" d="m234.78,53.39c-.08.18-.09.21-.11.24-.08.19-.11.38.09.5.18.11.45,0,.57-.2.11-.2.18-.41.14-.64-.02-.12-.07-.24-.22-.29-.14-.04-.26.01-.33.11-.09.13-.15.28-.14.27Z"/>
      <path class="cls-3" d="m230.19,55.88c.37.12.74-.11,1.11-.04.16-.12.27-.27.16-.47-.09-.15-.25-.16-.41-.13-.28.04-.55.08-.79.24-.16.11-.15.25-.06.4Z"/>
      <path class="cls-4" d="m237.73,53.6c.03-.27.23-.43.37-.64.09-.14.11-.3-.05-.41-.16-.12-.29-.02-.41.08-.02.02-.05.04-.07.06-.4.41-.37.57.17.9h0Z"/>
      <path class="cls-3" d="m236.51,52c-.04.22.18.45.47.5.19.03.37-.1.41-.31.05-.24-.09-.42-.35-.47-.25-.05-.5.08-.53.28Z"/>
      <path class="cls-3" d="m239.13,47.95c-.02.16.02.28.11.37.15.16.32.17.52.1.15-.06.27-.16.28-.34,0-.19-.13-.27-.28-.32-.15-.06-.31-.07-.45.02-.07.04-.13.13-.17.17Z"/>
      <path class="cls-5" d="m232.94,55.6c.04-.12.08-.24.12-.35.06-.15.1-.3-.07-.41-.15-.1-.3-.06-.45,0-.18.09-.23.35-.08.47.15.11.32.19.48.29h0Z"/>
      <path class="cls-5" d="m237.13,50.18c-.05.16.04.35.19.37.2.03.29-.09.34-.25.04-.12.04-.25-.08-.34-.15-.1-.37.01-.45.22Z"/>
      <path class="cls-5" d="m194.91,8.34c-.09.25.06.53.27.56.06,0,.13.02.19,0,.66-.19,1.24.01,1.82.31.37.19.57.14.69-.04.15-.22.05-.53-.26-.72-.74-.44-1.53-.63-2.38-.39-.16.05-.28.14-.33.27Z"/>
      <path class="cls-5" d="m195.09,9.97c-.49-.22-.82-.18-1.11.08-.15.13-.22.32-.17.51.05.21.23.3.43.31.25.01.5.02.75.08.31.08.46-.01.53-.23.09-.24.03-.44-.16-.59-.12-.1-.27-.16-.27-.16Z"/>
      <path class="cls-5" d="m194.17,12.49c-.44-.06-.9-.14-1.37-.19-.11-.01-.24.08-.29.21-.07.17,0,.32.13.41.1.07.23.16.34.15.39-.02.75.1,1.11.2.27.07.5-.05.54-.25.04-.2-.1-.4-.35-.5-.03-.01-.06-.02-.11-.04Z"/>
      <path class="cls-5" d="m196.83,6.92c.08-.19.02-.39-.15-.48-.21-.12-.45-.04-.54.18-.08.19-.02.39.15.48.21.12.45.04.54-.18Z"/>
      <path class="cls-4" d="m193.83,18.49s.04.07.06.1c0-.02,0-.04,0-.05-.02-.02-.04-.03-.07-.04h.01Z"/>
      <path class="cls-8" d="m231.8,50.08c.38.13.68-.08.98-.27.07-.04.14-.15.14-.23,0-.32.07-.64-.09-.94-.06-.11-.14-.22-.23-.3-.24-.21-.62-.08-.67.23-.03.22-.02.44-.04.67-.02.29-.06.57-.09.85h0Z"/>
      <path class="cls-8" d="m231.55,50.2c.11.01.2-.02.25-.12h0c-.08.05-.17.09-.25.13h0Z"/>
      <path class="cls-5" d="m153.33,26.04c-.07.22-.04.42.14.6.02.02.05.04.08.05.14.03.26,0,.31-.14.09-.27-.03-.53-.28-.61-.1-.03-.18.02-.25.11Z"/>
      <path class="cls-8" d="m155.88,30.43c-.11.43.12.84.55.97.4.12.89-.15.98-.54.09-.38-.16-.82-.51-.92-.43-.11-.92.12-1.02.49Z"/>
      <path class="cls-8" d="m158.73,30.36s-.18-.04-.3-.02c-.08.01-.17.1-.21.17-.15.32.16.76.5.73.23-.02.46-.21.48-.4.02-.19-.12-.36-.48-.49Z"/>
      <path class="cls-8" d="m154.53,30.53s-.02-.08-.03-.12c0,.02-.02.04-.01.05.01.02.04.04.06.06h0Z"/>
      <path class="cls-5" d="m160.58,69.49c-.05.25.15.54.37.56.26.02.5-.18.51-.44,0-.17-.06-.31-.25-.35-.3-.07-.61.05-.64.23Z"/>
      <path class="cls-5" d="m161.84,64.32c-.19-.05-.3.03-.37.19-.07.17-.02.37.11.39.17.03.3-.04.38-.2.07-.14,0-.33-.12-.39Z"/>
      <path class="cls-5" d="m162.16,71.54c0,.15.17.29.31.25.12-.04.21-.12.21-.26,0-.14-.08-.22-.22-.24-.16-.02-.31.1-.3.25Z"/>
      <path class="cls-5" d="m212.34,31.59c-.02.06-.04.12-.05.18-.02.14.01.25.14.31.13.05.26.02.32-.1.07-.13.13-.28.15-.43.03-.13-.06-.25-.19-.28-.13-.04-.24.03-.31.15-.03.05-.05.11-.08.17Z"/>
      <path class="cls-5" d="m211.09,30.89c-.24-.11-.54,0-.6.26-.04.14.04.25.17.29.22.07.48-.04.55-.23.04-.12,0-.25-.12-.32Z"/>
      <path class="cls-5" d="m214.29,32.52c-.02.15.06.25.18.29.23.08.47-.07.49-.29.01-.14-.06-.25-.18-.3-.19-.08-.44.08-.49.31Z"/>
      <path class="cls-5" d="m215.02,30.52c.14.06.25.04.33-.08.08-.12.06-.24-.05-.33-.13-.11-.34-.05-.39.1-.04.13-.02.25.11.31Z"/>
      <path class="cls-5" d="m213.26,31.4c-.03.15.07.23.19.26.14.04.24-.03.27-.17.03-.14-.05-.25-.18-.28-.14-.03-.23.05-.28.19Z"/>
      <path class="cls-7" d="m211.36,37.88c.24.11.49.18.71-.05.17-.18.16-.45-.1-.78-.16-.21-.26-.42-.3-.68-.04-.26-.23-.37-.47-.39-.21-.01-.38.09-.47.27-.09.17-.16.35-.2.54-.1.52.15.84.83,1.09Z"/>
      <path class="cls-8" d="m207.03,34.69c-.08.18.05.54.25.66.22.13.62,0,.73-.23.11-.25-.05-.58-.33-.69-.22-.08-.55.05-.65.26Z"/>
      <path class="cls-8" d="m168.94,46.69c-.06.27.12.64.35.72.21.08.57-.09.64-.3.09-.28-.15-.67-.46-.73-.22-.05-.48.11-.52.32Z"/>
      <path class="cls-8" d="m216.56,38.17c.2-.72.16-1.61-.01-2.49-.04-.2-.19-.32-.37-.41-.2-.1-.43,0-.42.2.02.7-.09,1.4-.15,2.09-.03.31.02.63.05.95.02.22.18.33.39.34.18,0,.3-.1.36-.26.04-.09.06-.18.15-.43Z"/>
      <path class="cls-8" d="m215.49,39.68c-.03.26-.05.51-.08.76-.01.14.06.26.19.29.18.05.3-.08.34-.24.05-.24.09-.49.11-.74.03-.29-.06-.45-.2-.44-.18.02-.32.17-.36.37Z"/>
      <path class="cls-4" d="m221.26,58.04l-.11.07s.08-.02.12-.04l-.02-.03Z"/>
      <path class="cls-8" d="m195.05,38.56c-.08.02-.2.02-.31.07-.12.06-.18.18-.15.32.05.25.16.48.33.67.09.1.22.14.34.11.12-.03.22-.13.24-.26.07-.34-.12-.75-.45-.91Z"/>
      <path class="cls-4" d="m226.98,35.31c-.05-.12-.14-.2-.26-.23-.05-.01-.11.01-.17.02.03.04.06.1.1.13.07.05.16.09.24.13.03-.02.06-.04.09-.05Z"/>
    </g>
    <path class="cls-10" d="m186.2,36.29c-.13.35-.2.42-.42.34-1.08-.39-2.2-.7-3.18-1.36-.61-.42-1.28-.72-2.01-.91-1.46-.39-2.88-.88-4.3-1.41-1.79-.66-3.63-1.04-5.55-1.1-3.37-.1-6.72-.51-10.08-.57-.25,0-.52.04-.76-.1-.09-.05-.15-.14-.11-.24.03-.08.1-.2.16-.21.25-.03.51-.03.76-.03.32,0,.64.1,1-.1-.2-.13-.35-.25-.52-.34-1.21-.68-2.3-1.52-3.25-2.53-.68-.73-1.38-1.43-2.05-2.17-1.34-1.47-2.68-2.95-3.78-4.61-.23-.35-.49-.68-.95-.76-.11.56-.12.56-.56.48-.32-.06-.64-.1-.73-.5-.03-.14-.16-.06-.23-.04-.12.04-.24.09-.35.16-.7.39-.9.79-.77,1.58.06.38.12.76.24,1.13.28.87.71,1.68,1.53,2.14.33.19.56.4.72.71.16.31.32.63.44.96.23.6.38,1.22.52,1.85.12.53.25,1.08.71,1.44.6.46,1.02,1.06,1.49,1.63.26.32.46.7.88.87.08.03.17.14.17.21,0,.54.39.87.67,1.25.71.99,1.45,1.96,2.17,2.94.69.94,1.53,1.74,2.52,2.35,1.56.96,3.06,2,4.56,3.05,1.49,1.06,3.15,1.86,4.61,2.97.13.1.28.17.43.22.73.26,1.35.73,2.02,1.12.16.1.32.22.43.37.34.47.67.94,1.19,1.23.03.02.05.11.04.17-.02.11-.1.16-.2.18-.2.05-.37-.02-.54-.14-.27-.18-.45-.45-.66-.69-.06-.06-.18-.16-.21-.14-.33.19-.7,0-1.04.11-.63.19-.86.48-.76,1.12.09.57.35,1.01.94,1.23.31.11.33.47.09.67-.07.06-.16.1-.25.13-.27.1-.39.31-.45.58-.21.85.07,1.39.91,1.76.28.12.74.11.75.49.01.46-.48.42-.79.53-1.06.37-2.13.72-3.2,1.07-.86.28-1.54.79-1.95,1.61-.4.81-.89,1.55-1.52,2.21-.18.18-.32.4-.46.62-.71,1.11-1.44,2.2-2.12,3.33-.88,1.47-1.87,2.83-3.18,3.95-.32.27-.58.6-.78.97-.57,1.07-1.15,2.15-1.71,3.23-.15.28-.28.58-.39.88-.11.29.1.52.4.46.54-.1,1.04-.32,1.51-.61.17-.11.27-.27.32-.46.03-.09.06-.18.11-.26.06-.1.26-.07.33.03.13.18.11.36.04.55-.12.32-.37.53-.65.68-.73.41-1.49.75-2.35.66-.13.43-.1.85-.04,1.27.09.67.64,1.01,1.26.76.38-.15.74-.39,1.1-.59.17-.09.32-.22.49-.3.06-.03.2,0,.25.07.05.06.05.19.01.26-.17.28-.47.43-.74.6-.66.42-1.33.81-2.16.52-.04-.01-.13.04-.15.08-.02.05-.01.13.02.18.14.23.37.36.62.42.83.22,1.6.08,2.25-.49.46-.4.89-.84,1.33-1.25,1.24-1.17,2.4-2.42,3.74-3.46.87-.67,1.69-1.38,2.37-2.24.4-.51.89-.66,1.51-.65.51.01,1.03-.02,1.53-.09,1.05-.15,2.07-.44,3.09-.74.15-.04.36-.08.43-.19.23-.34.58-.37.92-.47.65-.18,1.3-.37,1.95-.52,1.83-.42,3.54-1.15,5.19-2.01,1.37-.72,2.69-1.51,3.78-2.62.04-.05.09-.09.15-.12.12-.06.24-.1.36,0,.12.09.12.22.07.34-.18.44-.54.71-.89.99-.98.78-2.04,1.44-3.16,2.02-.23.12-.45.24-.67.37-.04.03-.08.11-.07.16,0,.05.06.13.1.13.38.05.76.1,1.15.13,1.76.16,3.53.14,5.29,0,.92-.07,1.85-.15,2.77-.16,1.51-.03,3.01-.11,4.51-.26,1.18-.11,2.35-.36,3.49-.7.25-.07.49-.15.73-.25.08-.03.16-.13.17-.21.02-.08-.02-.18-.14-.21-.09-.02-.19-.05-.27-.09-.13-.05-.22-.16-.21-.29.01-.14.13-.21.27-.22,1.02-.09,2.04-.19,3.07-.26.51-.03,1.03.01,1.51-.2.14-.06.34-.12.45.01.29.34.63.21.97.15,2.37-.41,4.74-.83,7.11-1.24,2.67-.47,5.26-1.18,7.74-2.28,1.2-.54,2.45-.97,3.55-1.71.11-.07.23-.13.36-.07.28.15.49-.03.72-.14,1.52-.73,3.11-1.19,4.78-1.4.51-.06,1.01-.17,1.52-.24.23-.03.5-.25.69.06.12.19-.08.34-.59.46-.34.08-.7.12-1.04.2-.3.07-.67-.02-.89.28-.32.44-.64-.12-.96.03-.14.07-.31.08-.47.12-1.07.26-2.08.66-3.06,1.14-.81.4-1.62.78-2.45,1.13-.77.32-1.57.56-2.35.88-2.54,1.03-5.17,1.74-7.87,2.2-2.21.38-4.42.78-6.64,1.16-.54.09-1.08.19-1.63.13-.43-.05-.82.05-1.22.19-.91.32-1.82.62-2.74.93-1.93.66-3.91,1.03-5.94,1.14-1.89.1-3.78.23-5.67.31-2.05.09-4.1.16-6.15-.05-.73-.07-1.47-.05-2.21-.04-.55,0-1.08.12-1.59.33-2.38.99-4.84,1.71-7.36,2.24-.76.16-1.53.26-2.29.17-.38-.04-.58.1-.8.37-.74.89-1.59,1.67-2.5,2.39-.58.45-1.13.95-1.66,1.46-.94.88-1.85,1.78-2.78,2.66-.25.24-.47.6-.85.58-.45-.02-.49.49-.85.54-.19.03-.38.08-.56.12-.15.04-.33-.03-.43.13-.49-.17-.97-.34-1.46-.51-.04-.05-.08-.11-.14-.14-.35-.17-.54-.42-.46-.83.1-.48.04-.96-.02-1.43-.08-.78.02-1.54.33-2.26.24-.56.49-1.11.77-1.66.41-.8.89-1.56,1.27-2.37.25-.53.58-.99.99-1.4.39-.38.78-.76,1.17-1.14.26-.24.51-.49.7-.79.85-1.32,1.72-2.63,2.54-3.97.52-.85,1.06-1.68,1.72-2.43.34-.38.64-.8.86-1.27.52-1.13,1.34-1.95,2.55-2.34.15-.05.29-.13.42-.22.04-.03.05-.12.04-.17,0-.05-.08-.14-.1-.14-.47.16-.79-.2-1.1-.4-.38-.24-.71-.47-1.18-.42-.12.01-.25-.06-.37-.1-1.05-.36-1.99-.89-2.77-1.69-.74-.76-1.46-1.54-2.1-2.38-1.31-1.71-1.76-3.68-1.69-5.79.01-.42.1-.83.15-1.24.02-.2.1-.38.27-.49.07-.05.18-.05.27-.03.09.02.16.11.14.21-.07.47-.18.94-.22,1.42-.15,2.13.33,4.08,1.7,5.76.59.72,1.22,1.41,1.85,2.09.6.64,1.34,1.09,2.14,1.44.54.24,1.09.33,1.68.21.52-.11.89.11,1.22.59.31.44.57.99,1.28.79.22-.06.43-.13.64-.21.19-.07.42-.08.58-.29-.12-.12-.21-.21-.3-.29-.69-.61-.79-1.36-.5-2.19.06-.18.15-.36.26-.51.12-.16.11-.3-.02-.42-.41-.4-.6-.91-.64-1.47-.06-.77.22-1.22.94-1.48.12-.04.25-.08.37-.11.15-.04.33-.05.33-.29-.4-.23-.81-.5-1.25-.69-.39-.16-.74-.38-1.09-.61-.49-.31-.96-.64-1.46-.93-1.39-.81-2.73-1.68-4.04-2.61-.86-.61-1.73-1.22-2.64-1.76-1.57-.92-2.87-2.13-3.93-3.63-1.22-1.73-2.51-3.41-3.78-5.1-.25-.33-.53-.65-.86-.9-.37-.29-.61-.65-.79-1.06-.16-.36-.25-.73-.32-1.11-.15-.79-.37-1.56-.73-2.28-.1-.19-.18-.42-.42-.5-.6-.18-.92-.68-1.26-1.13-.69-.9-.91-1.97-1.04-3.06-.06-.46.13-.89.43-1.24.99-1.18,2.87-1.23,3.93-.11.18.19.31.41.47.61.42.57.81,1.16,1.27,1.7,1.48,1.77,3.03,3.49,4.66,5.13.89.9,1.91,1.61,2.98,2.26.39.23.8.43,1.25.49.35.05.78-.16.93.39.01.05.17.07.27.08.22.03.45.05.67.06,2.08.13,4.16.25,6.24.39.93.06,1.86.07,2.75.38.22.13.44.27.7.11,1.37.34,2.68.89,4.02,1.33.6.2,1.19.49,1.86.44.09,0,.19.03.27.07.77.39,1.58.7,2.32,1.17.57.37,1.18.65,1.82.87.27.1.53.22.8.32.23.1.45.2.68.3Zm13.13,27.73c-.02.1.09.12.17.15.2,0,.36-.08.5-.22.04-.03.07-.06.11-.09-.05,0-.09.02-.14.03-.13,0-.25,0-.38-.01-.09.04-.24,0-.26.14Zm-18.98,1.57s.05-.02.07-.03c-.03-.03-.06-.07-.1-.09-.02,0-.05.02-.08.03.04.03.07.07.1.09Zm18.68-1.59s-.08.06-.1.1c0,.01.02.05.04.08.04-.03.07-.06.11-.09-.02-.03-.03-.06-.04-.09Z"/>
    <path class="cls-10" d="m180.38,27.76c.66.14,1.26-.07,1.85-.34,2.78-1.29,5.35-2.91,7.83-4.7,1.77-1.28,3.45-2.67,4.93-4.28,1.87-2.05,3.37-4.35,4.67-6.8.88-1.64,1.35-3.39,1.6-5.21.21-1.59-.31-3-1.25-4.23-.69-.9-1.65-1.3-2.81-.91-.55.18-1.11.32-1.6.65-.62.41-.93.96-.82,1.71.15.97,0,1.9-.25,2.85-.94,3.68-2.97,6.64-5.87,9.03-.67.55-1.4,1.02-2.17,1.42-2.65,1.37-5.29,2.77-8.02,3.98-1.88.83-3.7,1.78-5.55,2.69-1.47.73-2.83,1.65-4.04,2.77-.8.74-1.6,1.49-2.39,2.23-.09.09-.18.18-.25.29-.03.04-.02.13,0,.18.04.1.14.13.24.12.25-.03.38-.22.55-.37.84-.75,1.67-1.5,2.5-2.25,1.08-.97,2.28-1.77,3.58-2.41,2.39-1.17,4.76-2.38,7.2-3.46,2.38-1.05,4.68-2.27,6.94-3.55,2.63-1.48,4.62-3.64,6.09-6.28.31-.56.6-1.13.9-1.7.06-.11.13-.23.17-.34.43-1.11.72-2.26.93-3.43.1-.57.11-1.15,0-1.72-.12-.63.16-1.06.69-1.35.6-.32,1.24-.52,1.91-.61.48-.07.89.08,1.22.43,1.02,1.07,1.56,2.34,1.53,3.82,0,.38-.07.77-.14,1.14-.27,1.59-.8,3.09-1.57,4.52-1.92,3.61-4.36,6.8-7.6,9.33-2.74,2.14-5.59,4.1-8.74,5.59-.55.26-1.12.49-1.67.74-.23.1-.5.13-.67.35.03.03.04.06.04.1Z"/>
    <path class="cls-10" d="m223.89,51.95c-.07.1-.13.21-.19.3.04.09.09.1.17.08.82-.16,1.64-.31,2.46-.46,1.3-.24,2.57-.55,3.82-.97.27-.09.53-.24.83-.2.06,0,.14.01.19-.02.96-.61,2.1-.78,3.11-1.26.64-.3,1.29-.58,1.93-.87.61-.28,1.22-.57,1.88-.74.25-.06.48-.18.71-.29.93-.44,1.86-.88,2.79-1.32.31-.15.6-.36.99-.22.21.08.4-.22.63-.08h-.02c.02-.16.11-.22.27-.12h-.02c.18-.32.41-.48.76-.22.23.17.43.13.57-.1.1-.16.14-.36.37-.39.23-.03.45,0,.66.07.09.03.16.11.15.22-.03.3.13.38.41.38,1.02-.02,1.18.2,1.26,1.25,0,.12-.03.24-.04.37-.38.03-.73-.15-1.07,0-.13.06-.22.16-.19.29.02.07.12.17.19.18.22.02.45-.03.66.08.14.07.18.19.14.32-.16.46-.47.76-.96.85-.79.15-1.52.5-2.27.78-1.06.4-2.04.93-3.01,1.51-1.16.69-2.32,1.38-3.49,2.04-.42.24-.86.43-1.31.61-1.37.56-2.74,1.11-4.11,1.67-.09.04-.17.08-.24.15-.04.04-.07.13-.06.16.04.08.12.2.17.2.19,0,.39-.03.56-.1,2.82-1.09,5.63-2.21,8.17-3.86,1.41-.92,2.91-1.63,4.47-2.23.42-.16.86-.27,1.3-.36.47-.11.82-.37,1.08-.75.31-.45.51-.97.57-1.52.14-1.23-.33-2.03-1.44-2.55-.63-.29-1.27-.39-1.97-.27-1.63.28-1.63.27-3.09.97-.87.42-1.74.83-2.61,1.24-.17.08-.32.22-.55.14-.16-.13-.02-.29-.02-.43,0-.16.04-.32.05-.48.02-.35.04-.71.03-1.06,0-.21.03-.47-.28-.54-.18-.04-.29.15-.3.5,0,.22-.01.45,0,.67,0,.42-.09.83-.17,1.24-.08.41-.26.69-.68.85-.99.38-1.96.8-2.95,1.19-.41.17-.42.15-.63-.33-.04-.1-.12-.17-.21-.15-.08.02-.16.09-.16.21,0,.13,0,.26-.02.38-.01.13-.07.26-.19.31-.44.16-.87.38-1.35.44-.17-.26-.02-.47,0-.68.01-.19.05-.38.07-.57,0-.09.02-.19,0-.28-.01-.05-.08-.09-.13-.12-.06-.04-.11,0-.15.06-.15.26-.11.56-.18.84-.05.22-.11.44-.15.66-.05.24-.18.4-.42.48-.97.33-1.95.66-2.95.89-.12.03-.29.1-.37.05-.52-.3-.99-.04-1.47.08-.87.21-1.73.1-2.58-.1-1.85-.44-3.75-.53-5.63-.72-.23-.02-.45-.02-.66.09-.05.03-.08.1-.09.16,0,.05.03.13.07.17.21.19.48.14.73.17,1.31.14,2.62.28,3.92.4.71.07,1.38.27,2.07.43.28.02.29.03.14.25Z"/>
    <path class="cls-10" d="m219.74,27c.6.88.55,1.89.57,2.88,0,.45-.26.79-.6,1.05-.33.25-.68.49-1.05.68-1.14.59-2.25,1.23-3.32,1.94-1.07.72-2.28,1.17-3.43,1.73-.14.07-.29.13-.43.21-.1.06-.09.16-.07.25.03.11.12.17.21.15.19-.03.37-.08.55-.15.56-.24,1.12-.48,1.67-.74.28-.13.52-.16.82-.04,1.24.48,2.38,1.11,3.39,1.97.47.4.87.88,1.07,1.46.15.41.56.67.61,1.12,0,.04.17.1.24.08.07-.02.17-.14.16-.21-.04-.44.14-.81.29-1.2.16-.41.15-.41-.34-.71h.03c0,.28-.16.47-.34.65-.2-.01-.26-.18-.33-.31-.43-.81-1.18-1.35-1.7-2.08-.03-.05-.1-.09-.16-.1-.91-.15-1.59-.77-2.39-1.07-.03-.26.14-.32.27-.41,1.07-.72,2.16-1.38,3.32-1.95.43-.21.84-.46,1.22-.77.59-.47.91-1.07.87-1.83-.03-.58-.06-1.16-.16-1.72-.17-.98-.77-1.59-1.74-1.84-.33-.09-.63-.06-.92.12-.59.36-.94.86-.96,1.57,0,.26.02.51.02.77,0,.36-.05.43-.43.51-1.82.4-3.61.92-5.45,1.19-.41.06-.82.14-1.23.22-1.39.29-2.56.97-3.56,1.98-.45.45-.95.83-1.08,1.5-.54.63-.75,1.4-.94,2.19-.04.18-.18.25-.37.22-.32-.05-.61-.2-.94-.15-.14.02-.27.1-.24.24.06.35.13.69.55.82.46.14.9.33,1.36.49,1.02.37,2.12.54,3.09,1.07.12.07.26.01.3-.13.02-.07-.01-.2-.07-.25-.29-.26-.63-.45-1-.56-.46-.14-.92-.27-1.38-.41-.31-.09-.62-.16-.89-.37.1-.28.15-.55.2-.83.1-.63.25-1.26.68-1.77.08-.1.14-.22.2-.33.19-.33.15-.81.47-1.04.9-.65,1.68-1.51,2.8-1.82.4-.11.8-.27,1.21-.33,2-.29,3.96-.79,5.93-1.25.3-.07.61-.2.92.04.14.11.31,0,.43-.12.21-.19.41-.4.63-.59.26-.22.42-.21.72.06.1.09.19.17.33.11.17-.08.21-.24.16-.4-.08-.31-.3-.47-.63-.49-.37-.03-.68.15-1.01.26-.05-.06-.13-.11-.13-.15.03-.27-.17-.62.13-.8.35-.21.72-.46,1.16-.22.03.02.06.03.09.04.13.03.26.05.32-.11.06-.14-.02-.24-.12-.33-.28-.09-.56-.17-.83-.26-.05,0-.09.02-.14.03.04-.03.07-.06.11-.09.21-.18.41-.26.67-.06.2.15.42.27.63.4Z"/>
    <path class="cls-10" d="m224.53,33.9c.75.39,1.6.38,2.39.61.14.04.32,0,.47-.02.49-.09.88.04,1.12.5.04.08.13.13.2.2.25,0,.41-.3.69-.22.62-.05,1.1.17,1.4.73.11-.06.21-.11.32-.17.08-.18.11-.37-.03-.54-.1-.12-.25-.21-.22-.41,2.17-.66,4.35-.58,6.55-.13.13.03.25.06.37.11.28.12.71.12.73.49.01.28-.36.42-.59.58-.65.46-1.32.91-1.99,1.35-.36.24-.53.2-.83-.11-.15-.16-.3-.33-.45-.5-.24-.26-.53-.31-.96-.22.37.42.69.76.98,1.13.23.29.6.5.58.95,0,.05.06.12.1.14.18.07.35.13.46.31.49.86,1.16,1.61,1.56,2.53.06.15.11.3.19.44.04.06.17.11.24.08.07-.03.15-.13.17-.21.05-.23-.05-.44-.16-.64-.24-.45-.5-.9-.76-1.33-.12-.2-.19-.38-.04-.61.07-.11-.02-.25-.19-.23-.34.05-.43-.22-.57-.42-.11-.16-.09-.3.06-.41.23-.17.47-.33.71-.49.42-.29.85-.57,1.27-.86.09-.3.18-.59.41-.83.19-.2.33-.45.49-.68-.01-.43-.34-.59-.65-.75-.55-.28-1.14-.42-1.75-.51-1.92-.29-3.83-.33-5.72.18-.4.11-.74.15-1.01-.25-.07-.1-.24,0-.24.14,0,.09.02.19.04.28.02.12-.09.19-.16.18-.61-.13-1.29-.08-1.76-.63-.25-.02-.39.29-.66.23-.66.06-1.41-.09-1.87-.38-.16-.1-.32-.2-.49-.28-.29-.14-.38.08-.48.28v-.02c.16.13.17.28.06.45h0Z"/>
    <path class="cls-10" d="m232.52,41.72c.19.22.33.39.49.55.19.18.47.14.55-.09.15-.47.16-.94.02-1.42-.04-.13-.15-.21-.29-.2-.09.01-.18.05-.28.08-.67.19-.95.05-1.13-.61-.06-.21.03-.46-.14-.64-.04-.04-.1-.08-.16-.09-.11-.03-.18.04-.22.13-.11.32-.07.63.06.93.11.27.24.52.45.74.14.14.12.28-.01.41-.33.33-.49.74-.58,1.19-.03.15-.03.32-.01.47,0,.08.08.18.16.21.15.07.24-.04.28-.17.07-.21.12-.43.19-.65.11-.34.26-.65.64-.86Z"/>
    <path class="cls-10" d="m173.74,31.66c.22.13.44.27.7.11,0-.26.22-.37.39-.5,1.02-.77,2.06-1.49,3.22-2.05.43-.21.86-.42,1.2-.77.32-.33.78-.42,1.13-.69,0-.04-.02-.07-.04-.1-.12.02-.25.03-.37.07-1.75.64-3.37,1.54-4.89,2.62-.26.19-.49.41-.77.57-.3.18-.27.58-.57.74Z"/>
    <path class="cls-10" d="m198.91,37.35c-.31-.07-.55.14-.82.22-.73.23-1.42.58-2.21.58-.06,0-.15,0-.18.03-.23.25-.7.18-.81.59.3.4.63.1.95.04.5-.1.97-.25,1.5-.21.79.05,1.35-.39,1.74-1.06,0-.02-.02-.06-.04-.09-.06-.02-.11-.06-.14-.11Z"/>
    <path class="cls-10" d="m244.59,46.61c-.1.02-.18,0-.24-.1-.17-.29-.43-.47-.76-.53-.12-.02-.14-.1-.16-.19h.02c.03.28-.13.19-.27.13h.02c-.48.8-.27,1.61.02,2.42.05.14.25.15.32.06.37-.45.97-.71,1.09-1.36h0c-.14-.13-.25-.27-.06-.44v.02Z"/>
    <path class="cls-10" d="m227.31,33.86c.27.06.41-.25.66-.23-.76-1.18-1.69-2.22-2.61-3.27-.06-.07-.14-.15-.22-.17-.08-.02-.18,0-.26.03-.02,0-.04.13-.01.16.1.16.22.31.34.46.68.84,1.36,1.68,2.06,2.51.15.18.13.34.05.52Z"/>
    <path class="cls-10" d="m185.52,35.99c.23.1.45.2.68.3.28.15.55.32.83.46.14.07.37.15.44.09.36-.34.56,0,.81.15.11.07.26.07.32-.07.03-.07.05-.2,0-.26-.18-.26-.38-.51-.59-.75-.09-.11-.36-.07-.39.09-.07.33-.23.35-.46.2-.29-.19-.56-.42-.84-.63-.24-.18-.39-.17-.51.12-.07.17-.15.26-.3.31Z"/>
    <path class="cls-10" d="m233.53,47.86c0-1.31-.24-2.6-.32-3.9,0-.06-.13-.15-.21-.16-.09,0-.15.09-.16.19,0,.03,0,.06,0,.09.09,1.33.16,2.67.38,3.99.11-.07.21-.14.32-.21Z"/>
    <path class="cls-10" d="m198.91,37.35c.03.05.08.09.14.11.94.18,1.9.05,2.84.15.08,0,.18-.04.26-.09.04-.03.07-.1.08-.16,0-.06-.02-.14-.07-.16-.11-.06-.22-.12-.34-.13-.38-.03-.76-.05-1.14-.06-.96-.03-.96-.02-1.77.35Z"/>
    <path class="cls-10" d="m239.23,35c-.16.23-.3.48-.49.68-.22.24-.32.53-.41.83.22-.04.41-.14.53-.33.13-.34.14-.35.4-.27l.07-.03c-.02-.05-.03-.1-.05-.15.03.05.05.09.08.14.7-.3,1.31-.77,1.96-1.15.08-.05.15-.12.21-.19.07-.08.08-.17,0-.25-.04-.04-.12-.07-.16-.05-.17.08-.34.16-.5.26-.41.24-.81.49-1.23.72-.22.12-.35,0-.42-.21Z"/>
    <path class="cls-10" d="m150.97,21.31c-.67-.24-1.24-.11-1.77.26-.11.08-.15.2-.09.33.06.14.19.17.32.13.18-.06.35-.15.53-.21.47-.14.88-.08,1.18.35.07.1.14.21.23.3.07.07.17.08.26.02.09-.05.15-.13.12-.23-.12-.46-.38-.8-.79-.96Z"/>
    <path class="cls-10" d="m229.4,34.97c-.28-.09-.44.22-.69.22.58.92,1.16,1.84,1.74,2.75.03.04.12.07.16.05.11-.03.15-.15.12-.23-.13-.29-.26-.59-.43-.86-.32-.52-.66-1.02-.99-1.53-.12-.17-.04-.29.09-.41Z"/>
    <path class="cls-10" d="m231.13,35.53c-.11.06-.21.11-.32.17.42,1.04.84,2.08,1.26,3.11.01.03.03.06.06.08.05.03.11.08.16.07.05-.01.1-.08.12-.14.06-.2-.04-.38-.1-.55-.33-.94-.71-1.86-1.18-2.74Z"/>
    <path class="cls-10" d="m228.97,41c0,.06-.02.16,0,.25,0,.05.06.11.1.15.08.06.17.05.26,0,.18-.11.2-.32.29-.48.24-.42.49-.82,1.06-.85.12,0,.21-.14.17-.29-.03-.14-.15-.21-.28-.22-.26-.02-.51,0-.72.19-.39.34-.72.72-.89,1.26Z"/>
    <path class="cls-10" d="m193.9,37.62c-.15-.23.26-.7-.22-.76-.36-.04-.3.41-.42.65-.07.14-.11.3-.16.45-.05.18.07.33.25.28.21-.05.38-.15.63-.03.2.1.76-.32.79-.54.02-.13-.1-.24-.24-.23-.12,0-.24.05-.36.09-.09.03-.13.15-.26.08Z"/>
    <path class="cls-10" d="m172.27,52.9c.03.11.03.22.08.28.05.06.16.08.24.09.06,0,.12-.03.17-.06.49-.31.85-.74,1.13-1.24.06-.11,0-.26-.12-.33-.07-.04-.22-.05-.26,0-.42.41-.83.84-1.25,1.27Z"/>
    <path class="cls-10" d="m234.85,47.04c-.01.06-.04.12-.04.18,0,.16.04.33.21.39.11.04.27.06.36.02.35-.19.57-.48.62-.89.02-.18-.16-.37-.35-.37-.38-.01-.64.21-.79.67Z"/>
    <path class="cls-10" d="m238.24,38.48c.76-.22,1.47-.58,2.18-.91.14-.06.31-.15.21-.35-.07-.14-.22-.1-.33-.05-.75.34-1.53.6-2.24,1.03.06.09.11.19.17.28Z"/>
    <path class="cls-10" d="m229.66,32.82c-.24-.63-.61-1.19-.97-1.75-.07-.1-.18-.17-.28-.25-.02-.01-.06,0-.08.01-.04.04-.1.08-.11.14-.01.05,0,.13.04.18.36.6.73,1.19,1.1,1.79.11-.04.21-.08.32-.12Z"/>
    <path class="cls-10" d="m234.23,38.53s.15.02.21-.03c.06-.05.09-.18.07-.26-.09-.46-.32-.82-.8-.96-.16-.05-.31-.02-.42.13-.08.11-.08.24-.04.36.15.43.52.61.97.76Z"/>
    <path class="cls-10" d="m223.54,34.38c-.33-.05-.32-.35-.4-.57-.06-.14-.04-.32-.08-.47-.04-.12-.12-.22-.28-.19-.13.03-.24.1-.26.24-.01.09-.02.19,0,.28.08.27.17.55.28.8.09.2.2.43.48.36.23-.06.12-.34.25-.47h0Z"/>
    <path class="cls-10" d="m190.3,36.75s-.03.06-.02.09c.16.49.38.93.85,1.2.06.03.19-.01.25-.06.08-.06.09-.17.03-.26-.23-.34-.47-.68-.7-1.01-.06-.09-.16-.09-.25-.06-.06.02-.1.07-.15.11Z"/>
    <path class="cls-10" d="m232.02,46.98c.05-.42.14-.92.09-1.43,0-.09-.06-.2-.18-.16-.07.02-.17.11-.18.18-.07.5-.12,1.01-.17,1.51,0,.08.04.2.1.23.16.09.21-.06.27-.16.02-.03.02-.06.06-.17Z"/>
    <path class="cls-10" d="m192.92,37.38c.05-.08.06-.1.08-.13.09-.15.1-.3-.04-.43-.12-.12-.39-.04-.49.13-.27.44-.29.9-.07,1.37.03.07.16.13.23.12.07-.01.16-.11.18-.19.08-.3-.12-.64.1-.87Z"/>
    <path class="cls-10" d="m244.64,47.04c.13-.2.27-.03.4-.01.36.06.56-.13.51-.47-.01-.09-.04-.19-.08-.27-.09-.2-.4-.28-.56-.12-.13.13-.21.3-.32.45v-.02c.24.19.26.31.05.45h0Z"/>
    <path class="cls-10" d="m220.84,35.67c.39.15.78.26,1.2.21.13-.01.23-.09.24-.24,0-.16-.11-.23-.23-.27-.15-.04-.32-.03-.47-.08-.37-.1-.6.04-.74.38h0Z"/>
    <path class="cls-10" d="m220.14,37.47h-.03c.31-.15.62-.29.92-.44.11-.06.21-.15.19-.29-.03-.19-.19-.22-.35-.21-.12,0-.24.04-.3-.11h.02s.04.14.03.15c-.15.1-.32.18-.48.27-.32.19-.31.26,0,.62Z"/>
    <path class="cls-10" d="m223.53,34.37c.08-.05.13-.06.23,0,.33.16.36.14.51-.14.07-.13.03-.33.26-.32h0c-.23-.09-.25-.21-.06-.44v.02c-.06,0-.12,0-.18,0-.39-.08-.47-.05-.52.27-.03.19-.03.38-.07.56,0,.03-.11.05-.16.07h0Z"/>
    <path class="cls-10" d="m244.71,47.91c-.02.11-.03.17-.04.24-.02.14.05.26.16.33.15.09.31.06.44-.06.19-.17.2-.6,0-.77-.1-.08-.24-.1-.35,0-.09.09-.16.2-.21.26Z"/>
    <path class="cls-10" d="m220.57,36.42c.06-.22.22-.42.13-.67,0,0,.09-.06.15-.09h0c-.21.27-.38-.09-.57-.02-.08.03-.19.06-.22.12-.03.06-.01.2.04.25.15.15.33.27.5.4h-.02Z"/>
    <path class="cls-10" d="m218.48,26.72c.28.09.56.17.83.26.15-.05.29-.05.43.02-.21-.13-.43-.25-.63-.4-.25-.19-.46-.12-.67.06l.03.06Z"/>
    <path class="cls-10" d="m229.41,33.06c.07.14.13.29.21.43.06.12.17.21.3.16.16-.06.13-.2.07-.31-.09-.17-.2-.32-.3-.48-.09.07-.18.14-.27.21Z"/>
    <path class="cls-10" d="m239.27,35.91c-.26-.08-.27-.08-.4.27.17-.03.3-.12.4-.27Z"/>
    <path class="cls-10" d="m233.53,47.86c-.11.07-.21.14-.32.21.01.14.08.23.23.19.1-.03.13-.12.12-.22,0-.06-.02-.12-.03-.19Z"/>
    <path class="cls-10" d="m229.66,32.82c-.11.04-.21.08-.32.12,0,.05,0,.09.06.12.09-.07.18-.14.27-.21v-.03Z"/>
    <path class="cls-10" d="m239.37,35.87s-.05-.09-.08-.14c.02.05.03.1.05.15h.03Z"/>
    <path class="cls-10" d="m237.54,38.44s-.06.02-.09.03c-.12.05-.24.14-.15.27.08.13.21.07.32,0-.02-.1-.05-.2-.07-.3Z"/>
    <path class="cls-10" d="m237.78,38.33c-.08.04-.16.08-.24.11.02.1.05.2.07.3.08-.03.17-.07.25-.1-.03-.1-.06-.21-.09-.31Z"/>
    <path class="cls-10" d="m237.86,38.64c.08-.04.17-.07.25-.11-.03-.11-.06-.21-.09-.32-.08.04-.16.07-.25.11.03.1.06.21.09.31Z"/>
    <path class="cls-10" d="m238.24,38.48c-.06-.09-.11-.19-.17-.28l-.05.02c.03.11.06.21.09.32.05.01.09,0,.12-.06Z"/>
    <path class="cls-10" d="m199.5,64.17c.2,0,.36-.08.5-.22l-.03-.06c-.13,0-.25,0-.38-.01-.03.1-.06.2-.09.29Z"/>
    <path class="cls-10" d="m200.01,63.95s.07-.06.11-.09c-.05,0-.09.02-.14.03l.03.06Z"/>
    <path class="cls-10" d="m218.45,26.66s-.07.06-.11.09c.05,0,.09-.02.14-.03l-.03-.06Z"/>
  </g>
  <path class="cls-9" d="m308.73,58.88l-4.3-.33c-.19-.01-.33-.17-.33-.36v-3.6c0-.19.14-.34.33-.36l4.3-.31c.21-.01.38.15.38.36v4.24c0,.21-.18.37-.39.36Z"/>
  <rect class="cls-10" x="312.54" y="54.35" width="1" height="1.93"/>
  <path class="cls-10" d="m314.32,57.22h0c.35,0,.64.29.64.64v.81h-1.29v-.81c0-.35.29-.64.64-.64Z"/>
  <rect class="cls-10" x="315.11" y="54.35" width="1" height="1.93"/>
  <path class="cls-9" d="m214.78,16.43s-14.2-.58-16.13,10.6c-1.51,8.73-.96,14.26,10.9,22.25,11.87,7.99,7.96,13.32,4.41,13.39-2.33.05-2.57-.21-2.57-.21l-4.09.72s3.34,1.29,7.39,1.1,5.37-5.22,4.11-7.17-3.94-6.53-8.46-9.5c-4.52-2.97-11.26-7.88-10.63-15.48.43-5.16,1.48-9,6.05-11.66,3.33-1.94,10.08-2.33,10.08-2.33,0,0,.83-1.81-1.07-1.71Z"/>
  <path class="cls-9" d="m165.37,57.61s-3.49-.63-2.34,3.69c1.07,4,1.55,11.13,7.1,7.53l1.44-.32s-.41,1.1-2.02,1.94-3.07.81-4.34-.15c-1.26-.96-2.82-4.47-2.88-4.75s-.76-5.13-.92-5.48c0,0-.11-2.25,1.61-3.48s3.06-.25,3.06-.25l-.71,1.27Z"/>
  <path class="cls-6" d="m253.32,40.47c-.75,1.15-1.14,2.47-1.1,3.84.04,1.11.42,2.46,1.62,2.81,1.26.37,2.84-.32,3.51-1.44.35-.6.47-1.27.49-1.95s-.03-1.44-.21-2.1c-.42-1.56-2.34-1.75-3.56-1.01-.19.11-.44.37-.14.52s.78,0,1.03-.15c.12-.07.08-.05.05-.03-.07.03-.04-.03.04,0,0,0-.18-.02.02.01.17.03.33.07.48.16.43.25.6.7.68,1.17.19,1.05.3,2.25-.15,3.25-.16.37-.44.67-.78.87-.05.03-.11.05-.15.05-.17-.01-.33-.06-.48-.16-.78-.49-.95-1.59-.97-2.43-.03-1.2.33-2.41.99-3.41.18-.28-.16-.38-.38-.38-.3,0-.79.11-.97.39h0Z"/>
  <path class="cls-6" d="m259.06,41.97c-.45.68-.68,1.45-.65,2.27.02.67.27,1.44.98,1.66.87.26,2.07-.17,2.54-.96.22-.37.29-.77.3-1.19,0-.39-.02-.82-.12-1.19-.29-1.1-1.74-1.05-2.53-.57-.18.11-.45.38-.14.52s.77,0,1.03-.15c.12-.07-.24.07-.11.04-.05.01-.1.02-.15.03-.13.03.07.01-.04,0s.13.04.01,0c.06.02.12.04.17.07-.05-.03.02.01.02.02.02.02.05.04.07.06.04.04.08.08.1.12.07.12.11.27.13.41.11.6.16,1.24-.08,1.81-.03.08-.09.16-.17.25-.06.08-.03.03,0,.01-.02.02-.05.04-.08.07,0,0-.07.06-.01.01.08-.06-.04.04-.06.03,0,0,.17-.06.03-.02,0,0,.16-.05.08-.03-.1.03.16-.03.06-.01-.08.01.07,0,.07,0-.11.01,0,0,.02,0-.02,0-.09-.03,0,0-.03-.01-.06-.02-.09-.04,0,0-.07-.03-.03-.01-.43-.27-.52-.89-.53-1.35-.02-.65.18-1.32.54-1.86.18-.27-.16-.38-.38-.38-.3,0-.79.11-.97.39h0Z"/>
  <path class="cls-6" d="m262.73,41.98c.02,1.49.14,2.97.17,4.46.02.74,0,1.48-.05,2.22-.04.56-.03,1.35-.44,1.77-.24.25-.11.57.18.68.35.13.79-.03,1.04-.28.48-.48.58-1.14.66-1.79.09-.79.12-1.59.11-2.39-.02-1.6-.16-3.2-.18-4.8,0-.75-1.49-.51-1.48.12h0Z"/>
  <path class="cls-6" d="m264.36,41.89s.02-.04.04-.07c-.05.08-.06.09-.02.04.02-.02.03-.04.05-.06.05-.05.03-.04-.05.04.04-.02.08-.06.12-.09.11-.08-.15.07-.03.02.02-.01.05-.02.07-.03.07-.03.05-.02-.08.03.05,0,.1-.02.15-.04-.14.02-.17.03-.09.02.03,0,.05,0,.08,0,.13-.01-.19-.02-.02,0,.02,0,.04,0,.06,0,.07.01.05,0-.06-.01.03.03.11.03.15.05.02,0,.05.02.07.03-.08-.04-.1-.05-.04-.02.04.03.08.05.11.08.02.02.09.06.1.09-.06-.06-.07-.06-.02-.02.02.02.03.04.05.06.07.08.12.17.17.27l-.06-.13c.07.16.12.33.14.51v-.14c0,.09,0,.18,0,.26,0,.07,0,.2-.04.26.02-.07.02-.08,0-.02v.04s-.05.08-.06.12c0,.01-.04.11-.06.11.05-.07.06-.08.02-.03-.01.02-.03.03-.04.05-.01.02-.03.03-.04.05.07-.06.08-.08.05-.04-.04.03-.07.05-.11.08-.06.04.15-.08,0,0-.03.01-.17.07-.03.02s0,0-.04,0c-.06.01-.03,0,.1-.02-.06,0-.05,0,.02,0,.07,0,.08,0,.02,0,.1.03.13.04.08.02-.04-.02-.02,0,.06.03-.02-.01-.04-.03-.06-.05-.12-.1-.35-.13-.5-.12-.18.01-.41.08-.55.2-.26.22-.36.53-.08.77s.68.26,1.02.2.65-.2.94-.39c.47-.32.76-.9.78-1.46.02-.53-.16-1.04-.54-1.41-.4-.39-.96-.58-1.52-.54-.7.05-1.36.43-1.69,1.05-.17.32.15.6.45.63.37.04.77-.12.95-.45h0Z"/>
  <path class="cls-6" d="m270.22,39.72c-.46-.73-1.37-.97-2.14-.58-.68.35-1.09,1.3-.57,1.96.22.28.55.44.88.57.15.06.29.11.44.17.07.03.15.06.22.09.04.02.08.04.12.06.02,0,.09.05.04.02.14.08.28.17.39.28-.07-.07.05.07.07.09.02.02.03.05.05.08-.03-.07.01.04.02.06.02.09,0,.19-.06.31-.03.06,0,.02,0,0-.02.04-.05.07-.08.1s-.05.06-.08.09c.05-.05.03-.04,0,0-.03.02-.12.08.01,0-.03.02-.07.04-.1.06-.11.06.02-.02.03,0,0,0-.11.02-.11.03,0-.01.15-.02.03-.01.05,0,.1,0,.02,0-.11,0-.03,0,0,0-.04-.01-.07-.02-.11-.04-.1-.03-.04-.01,0,0-.04-.02-.08-.05-.12-.08-.02-.02-.05-.04-.07-.05l-.04-.04s.03.03,0,0c-.11-.12-.2-.28-.24-.37-.13-.34-.55-.43-.87-.33-.26.08-.73.37-.59.73.26.67.83,1.21,1.57,1.28.86.08,1.69-.35,2.12-1.1.19-.33.28-.74.13-1.1-.14-.34-.4-.61-.7-.81s-.65-.34-1-.47c-.14-.05-.28-.12-.43-.17-.02,0-.1-.06,0,0-.02-.01-.05-.03-.07-.05s-.05-.03-.07-.05c.06.05-.02-.02-.03-.04,0-.01-.06-.12-.04-.06.02.05-.02-.1-.02-.1,0,.01,0,.07,0,0,0-.05,0-.1.01-.15,0,0,.03-.09,0-.04-.02.06.04-.08.04-.09,0,.02-.06.07,0,.02.06-.06-.06.04-.08.05.04-.03.13-.04-.03,0-.05.01-.12,0-.03,0-.01,0-.12,0-.13-.02.01.02.08.03.11.04-.11-.05.11.1.09.08-.04-.04.03.04.03.04.04.05.07.1.11.16.37.59,1.76.01,1.34-.66h0Z"/>
  <g>
    <path class="cls-6" d="m273.61,36.27c-.32,1.27-.55,2.57-.67,3.87-.07.77,1.42.58,1.49-.1.13-1.31.35-2.6.67-3.87.04-.14-.08-.3-.18-.38-.13-.1-.34-.14-.5-.12-.37.04-.71.23-.8.6h0Z"/>
    <path class="cls-6" d="m272.68,42.1l-.16,1.24c-.04.34.4.42.65.39.19-.02.39-.08.55-.19.11-.08.25-.2.27-.35l.16-1.24c.04-.34-.4-.42-.65-.39-.19.02-.39.08-.55.19-.11.08-.25.2-.27.35h0Z"/>
  </g>
  <path class="cls-13" d="m297.1,32.73s11.2,2.45,16.58-1.42,10.42-2.62,14.29-.27"/>
  <path class="cls-12" d="m152.64,52.03c-50.17,15.46-46.79-8.28-53.07-12.06-6.28-3.77-15.32,4.22-14.17,7.54s5.88,6.32,7.49-1.08c1.24-5.68-15-4.37-15-4.37-5.31,3.1.14,7.81.14,7.81"/>
</svg>