<?xml version="1.0" encoding="UTF-8"?>
<svg xmlns="http://www.w3.org/2000/svg" viewBox="0 0 332.15 80">
  <defs>
    <style>
      .cls-1 {
        fill: #f7dad0;
      }

      .cls-2 {
        fill: #00b2d8;
      }

      .cls-3 {
        fill: #eaddd5;
      }

      .cls-4 {
        fill: #e7dad2;
      }

      .cls-5 {
        fill: #eea77d;
      }

      .cls-6 {
        fill: #fff;
      }

      .cls-7 {
        fill: #ffbe3f;
      }

      .cls-8 {
        fill: #ff6040;
      }

      .cls-9 {
        fill: #bb8057;
      }

      .cls-10 {
        fill: #aa7a5f;
      }

      .cls-11 {
        fill: #241914;
      }

      .cls-12 {
        fill: #24b284;
      }

      .cls-13 {
        fill: #604c3f;
      }

      .cls-14 {
        fill: #7a6a56;
      }

      .cls-15 {
        fill: none;
        fill-rule: evenodd;
        stroke: #f0cb9c;
        stroke-dasharray: 0 6;
        stroke-linecap: round;
        stroke-miterlimit: 10;
        stroke-width: 2px;
      }
    </style>
  </defs>
  <g id="bg">
    <path class="cls-15" d="m37.91,48.53s21.22-3.75,20.29,4.82-9.41,6.52-11.11,1.6,11.71-16.78,21.02-11.18c9.31,5.6,11.62,22.72,25.49,18.12"/>
    <path class="cls-15" d="m215.52,27.03s8.01-8.14,20.21-2.3c12.2,5.84,20.18,9.87,30.48,3.73,10.3-6.15,24.17-4.22,24,3.07-.17,7.29-4.46,7.13-5.12,8.45s-12.22-1.57-6.11-7.39,9.25-5.84,21.14,3.42,20.15.59,20.15.59"/>
  </g>
  <g id="cat">
    <g>
      <path class="cls-6" d="m149.92,47.22l5.94,1.62,10.96-1.19,4.48,6.93,4.18,7.14-.39,1.32-1.24,1.77-2.07,1.33,10.23,6.47,7.41,2.59,1.96,1.83-.13,2.32-1.5-.36-.98.48-1.28-.17-1.14-.79-15.18-3.71-1.5,1.95-24.78-5.31-17.27-6.03v1.52s-3.05,2.65-3.05,2.65l-1.56,4.09,2.23,2.15.17.87-1.58.66-3.05.04-2.32-3.48.26-5.52-1.21-3.03-.36-6.8-2.58,3.81-3.91,5.24,1.6,5.04,1.66,2.76.28,1.64-1.1.73-1.26.08-.62.7-1.21.38-1.44-.42-1.51-5.32-1.83-2.58.34-3.01s-2.03-6.89-1.57-12.8l.11-12.06-.83-5.62,3.16-7.97-1.07-1.75-5.25-7.42-.35-2.62,1.39-6.45S105.55.81,112.03.3l5.27,1.58.74,1.38-1.65,2.36-2.43,1.65-4.08,1.38s-3.61,3.34-3.57,7.48c0,0-.7,3.92,2.9,6.89l40.72,24.19Z"/>
      <path class="cls-3" d="m159.09,68.17c.58.22,1.18.23,1.79.16,2.46-.28,4.88-.71,7.2-1.59.46-.18.89-.39,1.3-.64.35-.21.7-.41,1.09-.51.2-.05.35-.21.32-.45-.03-.23-.28-.44-.51-.44-.12,0-.24.01-.36.04-1.69.48-3.44.4-5.17.47-1,.04-2-.14-2.99-.36-1.53-.34-2.89-.93-4.14-1.9-.92-.71-1.96-1.26-3.07-1.67-1.33-.5-2.56-1.18-3.47-2.34-.48-.61-.93-1.23-.95-2.05,0-.3-.09-.55-.27-.79-.1-.13-.23-.23-.41-.19-.17.04-.35.13-.34.3.03.42-.09.68-.53.81-.27.08-.33.35-.18.6.35.59.65,1.23,1.08,1.76.79.97,1.61,1.91,2.51,2.79.81.79,1.49,1.7,2.28,2.5.85.86,1.75,1.68,2.65,2.49.61.55,1.34.9,2.17,1.01Z"/>
      <path class="cls-5" d="m165.31,49.25s-.86,3.96-5.53,5.54c-4.67,1.58-2.12-.86-4.85-.8s-4.05-2.87-3.72-5.32,4.99-12.08,7.03-12.08,2.27,6.07,3.26,7.15,2.34-.31,3.1.49,2.07,4.27.72,5.01Z"/>
      <path class="cls-1" d="m158.95,44.63c.18-.03.3-.2.27-.38-.21-1.15-.9-4.5-1.66-3.94-.92.68-2.25,3.27-2.06,3.85,0,0-.28.03-.43-.25,0,0-.13.22.07.56.07.16-.15.15-.4.05,0,0-.31.56-.1.94,0,0-.35.72.09.7.4-.02,3.1-1.36,4.23-1.52Z"/>
      <path class="cls-5" d="m178.53,77.97s-3,.69-5.04-.28c-2.3-1.1-2.47-.06-3.81-.94-2.3-2.16-6.82-3.68-10.88-5.49-3.3-1.48-5.88-4.2-7.18-7.58-1.13-2.95-1.77-3.99,2.7.04h0c.08,0,.17.02.24.06l15.84,7.81c.05.03.11.04.17.05l9.81,1.24s5.06.82,5.42,5.47c0,.12-.02.24-.09.34-.23.36-.89,1.05-2.25.2-.15-.09-.33-.1-.48-.04-.52.22-1.7.59-2.4-.14-.08-.08-.17-.14-.29-.16-.46-.07-1.69-.28-1.78-.59Z"/>
      <g>
        <path class="cls-6" d="m171.85,72.65c0,.13,0,.33.02.51.02.09.1.21.17.22.08.01.19-.05.25-.13.22-.32.23-.71.16-1.07-.03-.14-.17-.31-.28-.33-.14-.03-.22.18-.25.37-.02.12-.04.25-.06.43Z"/>
        <path class="cls-6" d="m171.43,72.32c0-.12,0-.25-.03-.36-.04-.16-.06-.36-.25-.35-.17,0-.25.15-.28.32-.03.24-.05.49-.02.73.02.17.09.34.26.35.25,0,.26-.27.31-.5.01-.06,0-.12,0-.18Z"/>
      </g>
      <path class="cls-5" d="m173.61,67.37s-2.37-.88-2.81,1.23c0,0,.01.89-1.17.74,0,0-2.77.14-2.8.3s2.5-3.58,2.03-4.68l1.06-.23,3.69,2.63Z"/>
      <path class="cls-5" d="m151.21,47.97s-2.95-1.31-4.96.65c0,0-.74,3.16-5.16,1.62,0,0,1.26.06-3.33,0-4.59-.06-13.63-8.15-17-15.7,0,0-.77-4.32-7.87-2.16-7.1,2.16-6.95-2.44-6.95-2.44,0,0,1.31-1.58,0-2.64s-4.43-2.24-5.31-5.71c0,0-.27-3.71,3.71-3.61,0,0,.93-.08,2.29-3.91,0,0-.94,6.9,4.35,10.55,0,0,11.74-6.6,23.36,5.16,0,0,11.89,15,14.51,16.18,0,0,2.35,1.29,2.35,2Z"/>
      <path class="cls-5" d="m113.35.91c-.06.26.02,1.66,3.83,2.11,0,0,2.01.54-2.58,1.89,0,0-3.64,1.89-3.79,3.24,0,0,6.62-2.25,12.22.81,0,0,3.84-2.96-2.29-7.5,0,0-7.12-1.67-7.39-.54Z"/>
      <path class="cls-10" d="m104.98,4.13s3.19,2.06,1.4,4.89c-.49.79-1.26,1.35-2.11,1.73-.61.27-1.45.88-1.85,2.23-.67,2.26-2.27,1.08-2.27,1.08,0,0,1.87-6.91,4.83-9.94Z"/>
      <path class="cls-9" d="m144.18,42.3c-.25.08-.53.07-.71.31-.16.2-.36.3-.61.2-.27-.1-.44.01-.6.21-.27.32-.45.75-.9.9-.14.05-.18.19-.2.32-.05.35-.28.61-.51.84-.48.46-.92.96-1.32,1.49-.06.08-.14.15-.23.19-.12.06-.27.08-.36-.04-.05-.07-.11-.21-.08-.27.32-.53.48-1.2.98-1.59.59-.46.75-1.06.77-1.74,0-.26.04-.46.3-.57.06-.03.14-.08.14-.13.03-.54.5-.75.81-1.08.17-.17.34-.32.28-.59-.08-.37.06-.64.36-.86.07-.05.09-.17.13-.26.57,0,1.01.16,1.11.83.07.46.37.83.62,1.21.14.21.17.42.03.64Z"/>
      <path class="cls-9" d="m140.8,37.93c-.13.92-.6,1.67-1.2,2.32-1.05,1.12-2.19,2.16-3.14,3.38-.23.29-.54.53-.92.61-.12.02-.29-.02-.37-.11-.08-.08-.13-.25-.12-.38.03-.29.22-.53.44-.7.61-.46,1-1.11,1.49-1.66.55-.63,1.14-1.23,1.69-1.86.3-.35.57-.74.83-1.13.06-.1.09-.32.02-.39-.59-.66-.99-1.48-1.67-2.06-.17-.14-.55-.08-.6.12-.24,1.03-1.27,1.58-1.54,2.58-.61.3-.75.88-.91,1.46-.06.22-.22.41-.36.6-.21.28-.49.33-.72.15-.26-.2-.31-.46-.19-.74.07-.17.17-.34.3-.47.49-.52.66-1.23.9-1.85.16-.43.33-.85.58-1.23.29-.45.78-.79.38-1.47-.18-.3.08-.72.33-1.01.18-.2.23-.41.04-.62-.83-.94-1.72-1.82-2.68-2.63-.4.64-.39.65-1.17,1.14-.24.16-.32.34-.16.57.29.42.16.83-.04,1.19-.44.77-.92,1.51-1.41,2.25-.12.18-.32.34-.52.45-.21.12-.46.13-.65-.05-.19-.18-.19-.44-.04-.64.61-.83,1.2-1.66,1.69-2.57.17-.3.31-.56.06-.89-.23-.31-.13-.62.08-.9.17-.23.34-.45.5-.67.11-.16.19-.36.08-.52-.26-.42-.28-.89-.33-1.35-.06-.52-.36-.85-.8-1.07-.79-.39-1.61-.75-2.3-1.32-.15-.12-.35-.14-.53-.04-.45.24-.9.49-1.34.75-.26.15-.25.48,0,.68.11.09.25.14.36.22.22.16.27.4.12.61-.3.41-.6.85-.99,1.17-.97.8-2.05,1.46-2.86,2.45-.11.13-.3.21-.47.28-.61.22-1.02-.07-1.02-.71,0-.54.18-1.02.51-1.42.89-1.09,1.58-2.3,2.27-3.52.3-.52.66-1.02,1.26-1.27.18-.08.18-.31.03-.47-.1-.1-.22-.19-.34-.23-.59-.2-.74-.66-.75-1.21.63-.16,1.23-.04,1.75.29,1.03.67,2.2,1,3.32,1.43.22.08.56.14.61.29.44,1.17,1.65,1.39,2.48,2.07.19.16.37.34.34.58-.07.6.29.93.67,1.29.98.93,1.98,1.85,2.89,2.85.36.39.94.45,1.19.92.22.41.36.85.65,1.23.54.7,1.06,1.42,1.58,2.14.13.19.22.41.33.61.01.16.11.26.25.31.05.05.09.12.11.19Z"/>
      <path class="cls-9" d="m135.7,46.1c.23-.05.52.24.5.48-.03.46-.3.78-.66,1.01-.18.12-.42.07-.57-.11-.09-.11-.21-.29-.18-.4.12-.48.39-.85.91-.98Z"/>
      <path class="cls-9" d="m133.04,41.4c.15-.04.35.16.34.33-.02.31-.2.53-.45.69-.12.08-.28.05-.38-.08-.06-.08-.14-.2-.12-.27.08-.32.27-.58.61-.66Z"/>
      <path class="cls-9" d="m128.42,35.63c.19-.05.44.24.43.47-.02.45-.24.74-.54.96-.15.11-.35.06-.48-.11-.08-.11-.18-.28-.16-.39.09-.46.32-.81.75-.93Z"/>
      <path class="cls-9" d="m105.39,19.99c.19-.05.44.24.43.47-.02.45-.24.74-.54.96-.15.11-.35.06-.48-.11-.08-.11-.18-.28-.16-.39.09-.46.32-.81.75-.93Z"/>
      <path class="cls-9" d="m144.43,44.61c.2-.05.47.3.47.58-.01.54-.25.9-.56,1.16-.16.13-.38.07-.52-.15-.09-.13-.2-.35-.17-.48.09-.56.32-.98.79-1.11Z"/>
      <path class="cls-9" d="m115.96,26.5c-.49.09-.98.15-1.45-.05-.78-.33-1.45-.37-1.96.47-.25.41-.7.48-1.15.47-.23,0-.45-.08-.5-.32-.03-.14-.02-.37.06-.45.83-.73,1.43-1.62,1.81-2.66.13-.36.48-.43.81-.39.48.07.95.24,1.44.06h0c0,.2.11.3.28.36.19.33.35.68.57.98.37.5.29,1.01.1,1.54Z"/>
      <path class="cls-5" d="m107.61,55.29c.48.75.91,1.55.89,2.46-.03,1.53.36,2.69,2.12,2.97.85.14,1.28.86,1.58,1.62.15.38.16.81-.2,1.07-.21.15-.61.29-.8.2-1.8-.9-3.68-1.31-5.69-1.23-.69.03-1.05-.51-1.2-1.11-.21-.85-.24-1.76-.88-2.46h.02c-.45-.73,1.76-.36,1.74-.68.42-.54-.45-1.06-.09-1.63.6-.96,1.5-1.16,2.52-1.2Z"/>
      <path class="cls-9" d="m120.27,23.22c-.52.76-.88,1.61-1.51,2.3-.14.15-.28.31-.45.42-.14.09-.31.11-.46-.03-.13-.13-.19-.29-.14-.45.05-.15.14-.3.23-.43.38-.6.76-1.2,1.14-1.8.13-.21.26-.43.18-.71.08-.04.15-.08.23-.1.56-.16.66-.11.77.43.03.12.01.25.02.37Z"/>
      <path class="cls-9" d="m102.81,24.95c.28-.87.39-1.8.8-2.63.09-.19.18-.38.31-.53.11-.13.27-.19.45-.1.16.08.26.22.26.39,0,.16-.05.32-.1.48-.19.68-.39,1.36-.58,2.05-.07.24-.13.49.03.73-.06.06-.12.12-.19.16-.49.31-.6.29-.86-.19-.06-.11-.08-.23-.12-.35Z"/>
      <path class="cls-9" d="m167.04,70.29c-.4.83-.63,1.73-1.15,2.5-.11.17-.23.35-.38.49-.12.11-.29.16-.46.04-.15-.1-.23-.25-.2-.42.02-.16.1-.31.16-.46.28-.65.57-1.3.85-1.95.1-.23.19-.47.07-.72.07-.05.13-.1.21-.14.53-.24.63-.21.83.31.04.11.05.24.08.36Z"/>
      <path class="cls-9" d="m165.5,69.74c-.61.48-1.12,1.09-1.81,1.48-.15.09-.31.18-.47.23-.13.04-.28,0-.37-.14-.08-.14-.08-.28,0-.4.08-.11.19-.2.3-.29.46-.39.92-.78,1.37-1.17.16-.14.32-.29.32-.53.07,0,.14-.03.21-.03.49,0,.56.08.52.54,0,.1-.05.2-.08.31Z"/>
      <path class="cls-9" d="m146.86,48.58c-.18.24-.34.5-.55.72-.19.2-.55.1-.65-.14-.02-.04-.05-.08-.05-.12.1-.68-.32-.92-.87-1.08-.12-.03-.25-.12-.31-.22-.06-.09-.09-.26-.05-.36.04-.1.18-.23.28-.22.4,0,.81.1,1.01.49.26.5.72.6,1.18.73.02.07.03.13,0,.2Z"/>
      <path class="cls-9" d="m123.92,23.33c.28-.11.69.17.67.46-.07,1.13-.66,1.99-1.47,2.72-.15.14-.38.15-.56.01-.23-.18-.32-.46-.17-.67.5-.76.92-1.56,1.3-2.38.03-.07.16-.1.22-.14Z"/>
      <path class="cls-9" d="m121.35,26.89c.3.01.56.44.43.69-.52,1.01-1.41,1.55-2.44,1.9-.19.06-.41-.01-.52-.21-.14-.25-.11-.54.11-.68.77-.49,1.47-1.06,2.15-1.65.06-.05.19-.03.26-.04Z"/>
      <path class="cls-9" d="m110.35,24.65c.4-.01.64.1.79.35.16.28.04.56-.2.69-.42.23-.87.44-1.32.58-.27.09-.53-.07-.67-.33-.16-.29-.03-.55.21-.69.41-.25.86-.43,1.21-.6Z"/>
      <path class="cls-9" d="m117.32,27.81c-.22.13-.45.26-.67.03-.22-.23-.12-.67.17-.85.25-.16.59-.1.77.13.17.22.07.47-.28.69Z"/>
      <path class="cls-9" d="m176.9,75.41c0-.06-.02-.14.01-.19.2-.29.47-.45.83-.42.19.02.31.27.21.46-.18.31-.6.45-.93.3-.05-.02-.08-.1-.12-.15Z"/>
      <path class="cls-9" d="m174.57,75.46c0-.06-.02-.14.04-.19.35-.31.81-.49,1.41-.49.31,0,.49.25.3.44-.31.33-1.02.51-1.56.38-.08-.02-.12-.09-.18-.14Z"/>
      <path class="cls-9" d="m183.58,78.48c-.01-.26-.07-.6-.04-.77.25-1.13.66-1.71,1.28-1.48.33.12.61,1.22.49,1.93-.2,1.23-.88,1.68-1.49.96-.09-.11-.16-.42-.24-.64Z"/>
      <path class="cls-9" d="m132.57,38.54c0-.1-.03-.23-.01-.3.1-.44.25-.66.5-.57.13.05.23.47.19.75-.08.47-.34.65-.58.37-.04-.04-.06-.16-.09-.25Z"/>
      <path class="cls-1" d="m142.46,70.61s.83-4.36-5.02-6.48c-5.84-2.13-5.3-.26-7.64-3.53-2-2.8-4.76-10.26-9.06-9.29-1.33.3-2.36,1.36-2.77,2.66l-1.43,4.57s10.53,8.53,25.92,12.07Z"/>
      <path class="cls-10" d="m103.72,39.19s8.63,1.73,6.97,11.05c0,0,.04.55-1.82,2.81s-.31,3.4-.45,4.89-2.59,4.25-4.7.88c0,0,.83-10.93.91-11.67s-.91-7.95-.91-7.95Z"/>
      <path class="cls-5" d="m117.83,66.36s1.86-1.3,3.07,1.1c0,0,.94,1.25,0,2.4,0,0-.54.91,0,1.57s-1.55,1.65-2.09.41l-.06-3.48-.92-2.01Z"/>
      <path class="cls-13" d="m109.83,78.35c.07.17.14.34.21.51.58-.12,1.18-.17,1.73-.41.06-.24.25-.32.45-.39.29-.1.47-.28.57-.56-.17-.23-.16-.28.09-.41h0c-.26-.05-.16-.27-.18-.43-.09-.57-.35-1.03-.83-1.35-.16-.11-.35-.13-.52-.05-.09.04-.16.15-.2.24-.02.05.02.15.07.19.19.16.45.21.61.44.29.42.31.76-.04,1.17-.09.11-.27.2-.24.34.15.66-.35.56-.7.68-.21-.34-.12-.75-.4-1.03-.11-.1-.22-.2-.38-.15-.18.05-.18.21-.14.36.05.21.13.42.16.63.02.17-.12.24-.28.25Z"/>
      <path class="cls-10" d="m168.41,45.12c-2.92-1.37-3.85-.91-3.82-.21.09,1.66.71,4.81,1.32,6.31.31.76,1.45,2.39,1.56,3.19.11.84,2.51,1.14,2.13,1.97-.21.46-.05.92.39,1.15.43.23.62.55.82.98.92,2.02,2.89,4.37,4.82,3.27.11-.06,1.04,1.05.83-.32,1.05-.81,1.04-3.36.91-4.52-.15-1.32-.3-2.65-.42-3.98-.1-1.13-1.02-1.34-1.06-2.47-.02-.52.51-1.89.57-2.41.21-1.69.7-3.45.63-5.15-.05-1.13-.17-2.26-.27-3.38-.01-.16-.08-.32-.14-.46-.37-.82-1.2-1.02-1.89-.45-.5.42-.92.92-1.24,1.48-.84,1.45-2.02,2.62-3.07,3.89-.46.56-1,.93-1.73,1-.12.01-.23.07-.35.1Z"/>
      <path class="cls-13" d="m150.1,46.78c.25.03,1.21-.4,1.44-.56.49-.33.67-.81.8-1.31.9-3.36,2.93-6.02,5.3-8.46.11-.12.24-.22.37-.32.3-.21.62-.16.85.15.1.13.19.27.26.41.58,1.16,1.18,2.31,1.62,3.54.35.99.72,1.98,1.09,2.97.02.05.12.11.18.11.06,0,.16-.07.18-.12.1-.35.17-.71.28-1.06.1-.35.22-.69.36-1.03.04-.1.17-.19.3-.1.05.04.12.13.11.18-.06.32-.14.63-.21.95-.1.47-.21.93-.29,1.29.12.26.26.23.37.23,1.35,0,1.38.25,1.76-1.21.15-.59.35-1.17.55-1.74.06-.16.13-.43.4-.31.18.08.12.27.08.43-.11.39-.21.78-.33,1.17-.17.53-.4,1.05-.41,1.63.13.06.24.13.35.14,1.21.18,2.36.58,3.47,1.1.45.21.76.07.94-.38.09-.24.04-.48.02-.72-.09-1.21-.18-2.42-.25-3.64-.02-.24.11-.34.27-.31.16.03.19.15.2.26.04.36.04.73.09,1.09.1.7-.01,1.42.28,2.15.34-.12.46-.4.63-.6.81-.96,1.61-1.94,2.41-2.9.61-.72,1.34-1.3,2.16-1.75.38-.21.74-.11.92.28.17.37.3.76.38,1.15.62,3.09.35,6.14-.59,9.13-.08.26-.26.5-.43.73-.09.12-.26.2-.43.1-.18-.1-.19-.28-.11-.41.43-.67.57-1.43.73-2.18.34-1.51.46-3.05.43-4.6-.02-.97-.14-1.94-.38-2.89-.15-.6-.28-.64-.82-.28-.51.34-.96.75-1.36,1.22-.81.96-1.62,1.93-2.41,2.9-.25.31-.46.67-.69,1-.27.38-.37.76-.27,1.25.14.67.15,1.36.22,2.05-.14-.02-.28-.05-.43-.07-.05-.24-.11-.47-.14-.71-.03-.27-.17-.44-.39-.57-1.45-.82-2.97-1.47-4.64-1.67-.46-.06-.54-.01-.72.45-.37.9-.72,1.8-1.08,2.7-.13-.04-.27-.08-.4-.12.29-.84.59-1.68.88-2.52.06-.18.21-.36-.02-.59-.28,0-.61-.02-.93,0-.44.02-.74.19-.85.69-.13.59-.35,1.16-.56,1.73-.08.22-.17.47-.49.44,0-.13,0-.25,0-.38.14-.47.28-.93.42-1.4.05-.16.08-.34-.06-.44-.08-.05-.24-.02-.35.02-.3.12-.59.26-.89.38-.15.06-.31.12-.47.11-.1,0-.23-.09-.29-.19-.08-.15-.06-.34.1-.43.28-.15.59-.25.89-.39.85-.4.85-.4.62-1.27-.06-.23-.13-.47-.22-.7-.44-1.13-.88-2.27-1.36-3.39-.33-.78-.74-1.52-1.1-2.24-.31.01-.44.17-.58.32-.46.51-.92,1.03-1.37,1.55-1.54,1.77-2.69,3.75-3.36,6.01-.15.5-.25,1.06-.53,1.48-.3.44-.44.84-.34,1.33.07.39.07.72-.41.87-.17.05-.12.27-.14.42-.02.19-.14.3-.32.28-.17-.01-.3-.14-.33-.31-.08-.48-.2-.95,0-1.43-.11.02-.09-.06-.42-.09m.7-.17s.08-.05.12-.07c-.02-.03-.05-.06-.07-.09-.03.03-.06.05-.08.08.01.03.02.06.03.08Z"/>
      <path class="cls-13" d="m176.68,55.35c-.66.22-1.31.22-1.95.31-.24.04-.48.05-.72.09-.11.02-.24.06-.23.21,0,.13.1.22.24.22.28,0,.57,0,.85-.02.32-.02.65-.05.96-.1,1.26-.22,1.15-.07,1.26,1.09.15,1.52-.07,1.68-1.49,1.22-.46-.15-.91-.33-1.36-.51-1.01-.39-2.05-.44-3.11-.29-.11.02-.23.06-.2.23.03.14.14.18.25.21.04.01.08.02.12.02,1.33-.16,2.56.21,3.77.72.37.16.77.23,1.16.34.24.06.46.1.56.38.08.22.32.31.48.14.31-.32.65-.25,1.01-.2.44.06,2.75.36,3.2.39.15.01.31-.06.46-.11.04-.02.06-.12.07-.18,0-.03-.02-.08-.05-.1-.29-.19-2.5-.36-2.81-.42-1.42-.24-1.28,0-1.3-1.45,0-.52-.05-1.04-.07-1.56.42-.4,2.09-.67,2.57-.86.11-.04.23-.09.33-.16.1-.07.14-.2.08-.32-.03-.06-.13-.12-.18-.11-.24.03-.48.08-.71.12-1.35.24-2.54,1.33-2.61-.64-.12-.76-.25-1.52-.52-2.24-.07-.18-.23-.24-.39-.19-.08.03-.18.19-.17.29.02.28.07.56.13.83.19.87.31,1.74.38,2.63Z"/>
      <path class="cls-13" d="m150.58,58.58c.62-.81-.21-1.07-.43-1.51-.02-.04-.2-.03-.3,0-.05.01-.09.12-.1.18,0,.1,0,.24.06.31.37.39-.2.54-.2.84,0,.37.47.43.42.84-.13.95.46,1.6,1.13,2.08.52.37,1.19.55,1.8.8.14.05.31,0,.36-.16.05-.15-.03-.29-.17-.36-.33-.16-.65-.35-.99-.46-.72-.24-1.14-.76-1.45-1.41-.11-.22-.13-.4.06-.59.13-.13.05-.26-.02-.4-.05-.09-.18-.13-.17-.17Z"/>
      <path class="cls-13" d="m146.1,50.48c-.01.07-.05.14-.03.2.06.19.24.26.4.34,1.25.69,2.5,1.39,3.76,2.05,1.01.53,2.06.96,3.01,1.6.11.08.27.09.41.12.02,0,.07-.03.08-.05.02-.06.06-.15.03-.2-.06-.09-.14-.16-.23-.22-.53-.32-1.05-.68-1.61-.95-1.71-.84-3.39-1.74-5.05-2.68-.19-.11-.39-.2-.6-.28-.05-.02-.12.04-.19.07Z"/>
      <path class="cls-13" d="m172.82,49.89c-.06.25-.07.28-.07.32-.02.19-.15.38.05.55.13.11.36-.1.44-.44.61-2.52,1.52-4.96,2.22-7.45.02-.07.01-.15,0-.23,0-.04-.03-.09-.06-.1-.07-.02-.16-.06-.21-.03-.28.14-.36.42-.44.69-.36,1.24-.68,2.5-1.1,3.73-.36,1.04-.61,2.1-.84,2.95Z"/>
      <path class="cls-13" d="m152.34,56.03c.04-.22.28-.49-.14-.61-.31-.09-.62-.2-.94-.29-1.02-.27-2.03-.59-3.01-.98-.17-.07-.34-.14-.52-.16-.07,0-.18.09-.24.17-.02.03.02.16.06.18.22.12.44.24.68.34.95.37,1.93.65,2.92.91.41.11.86.15,1.21.43h-.02Z"/>
      <path class="cls-13" d="m167.38,68.18c.12.19.3.19.41.04.61-.81,1.08-1.7,1.25-2.72.02-.09-.02-.22-.08-.28-.05-.06-.18-.07-.27-.06-.05,0-.12.09-.13.14-.18.95-.73,1.73-1.15,2.57-.01.1-.03.2-.04.31Z"/>
      <path class="cls-13" d="m175.09,62.12c0,.09,0,.21.01.33.03.31.22.52.42.49.27-.04.27-.26.29-.45.03-.25.13-.32.39-.23.28.09.47-.09.48-.37.02-.41-.05-.8-.27-1.15-.05-.08-.2-.13-.3-.13-.19,0-.29.16-.29.32.01.24.11.47.13.7.01.11-.05.22-.08.33-.08-.06-.16-.12-.25-.17-.33-.18-.53-.07-.54.33Z"/>
      <path class="cls-13" d="m170.91,47.49c-.14-.02-.28-.05-.43-.07.03.59.06,1.18.1,1.77,0,.09.11.25.18.25.19.02.27-.14.28-.31.03-.56,0-1.11-.14-1.65Z"/>
      <path class="cls-13" d="m174.74,63.59c-.02-.11-.03-.27-.07-.42-.02-.06-.11-.11-.18-.13-.07-.01-.17,0-.22.04-.24.23-.23.58-.35.87-.07.18-.15.38.07.52.16.11.49-.05.58-.27.07-.18.1-.38.17-.61Z"/>
      <path class="cls-13" d="m163.51,47.61c-.13-.04-.27-.08-.4-.12-.14.28-.29.56-.41.85-.03.09.04.22.06.33.11-.03.27-.03.32-.1.2-.29.41-.59.43-.96Z"/>
      <path class="cls-13" d="m169.86,38.47c-.18.33-.2.7-.18,1.06,0,.09,0,.23.18.26.17.02.25-.1.27-.18.06-.36.07-.72.11-1.08-.12-.02-.25-.04-.37-.06Z"/>
      <path class="cls-13" d="m169.86,38.47c.12.02.25.04.37.06.05-.14-.03-.22-.15-.25-.13-.03-.21.05-.22.19Z"/>
      <path class="cls-13" d="m161.14,47.25c0-.13,0-.25,0-.38-.15.13-.33.25,0,.38Z"/>
      <g>
        <path class="cls-4" d="m157.94,52.91c-.29-.3-.41-.65-.35-1.06.05-.37.28-.66.63-.7.91-.11,1.73.07,2.39.76.31.33.57.68.37,1.16-.23.55-.83.86-1.42.76-.46-.08-1.27-.54-1.61-.92Z"/>
        <path class="cls-11" d="m158.78,51.53c.23-.13.46-.14.68,0,.45.28.85.63,1.15,1.07.15.21.14.47,0,.68-.15.22-.39.29-.64.24-.53-.1-.99-.38-1.39-.72-.49-.42-.39-.96.2-1.27Z"/>
      </g>
      <g>
        <path class="cls-4" d="m166.8,54.71c-.01.48.37.93.85,1.07.56.16,1.45-.13,1.76-.58.3-.44.01-1.08-.6-1.33-.6-.25-1.57.02-1.9.52-.07.11-.09.25-.12.32Z"/>
        <path class="cls-11" d="m168.33,55.71c.13-.02.28-.03.43-.05.81-.15.99-.56.52-1.14-.24-.29-.62-.37-.93-.18-.2.13-.4.28-.55.45-.18.2-.4.43-.18.71.16.21.42.22.71.21Z"/>
      </g>
      <path class="cls-13" d="m161.2,57.06c.1-.07.13-.21.07-.31-.14-.23-.26-.42-.36-.62-.15-.29.02-.61.32-.61.61,0,1.54.27,2.05.62.14.09.12.33.05.49-.05.11-.51.24-.58.34-.82.75.18,1.26.88,1.73.23.15.55.14.71.41.04.06.05.15.05.22,0,.14-.12.2-.24.2-.42,0-.88-.05-1.19-.31-.27-.23-.93-.98-1.1-1.3-.12-.22-.29-.25-.49-.14-.52.26-1.07.3-1.63.23-.19-.02-.85-.29-1.02-.37-.09-.04-.18-.17-.19-.26-.02-.2.14-.27.31-.27.28,0,1.01.23,1.29.23.38,0,.75-.04,1.09-.28Z"/>
      <path class="cls-13" d="m146.09,55.6c1.63,1.81,3.4,3.52,5.24,5.12,1.53,1.34,3.13,2.61,4.85,3.7.75.48,1.54.92,2.37,1.27.95.4,1.92.72,2.86,1.15,3.82,1.74,7.32,4.19,11.53,4.9,2.47.42,4.97.19,7.41.82,1.69.43,3.35,1.18,4.62,2.4.86.83,1.54,1.96,1.61,3.18.03.44.12,1.11-.34,1.4-.8.52-2.32.01-2.93-.63-.24-.25.21-.32.37-.32.33,0,.75.13.98.37,0,0,.04.07.11.07,0,0,.21-.1.27-.21.1-.17.05-.38.05-.56,0-.42,0-.79-.12-1.2-.3-1.06-1.02-1.95-1.88-2.61-1.39-1.05-3.15-1.5-4.86-1.67-1.22-.12-2.44-.08-3.66-.21-1.14-.12-2.26-.32-3.37-.62-3.94-1.06-7.28-3.38-11-4.98-.88-.38-1.8-.67-2.67-1.06s-1.62-.83-2.39-1.31c-1.61-1.01-3.12-2.19-4.56-3.43-2.05-1.76-4.03-3.64-5.84-5.64-.23-.26.2-.32.37-.32.32,0,.76.13.98.37h0Z"/>
      <path class="cls-13" d="m170.52,64.31c1.3.93,2.6,1.86,3.9,2.8,1.09.78,2.18,1.56,3.28,2.34,1.15.82,2.29,1.65,3.57,2.27s2.5,1.04,3.81,1.4c.73.2,1.48.33,2.21.55s1.38.61,2.01,1c.82.5,1.63,1.09,2.26,1.83.56.65,1.09,1.56.72,2.44-.16.39-.42.75-.85.83-.72.14-1.47-.13-2.05-.54l.92.03c-.51.91-1.75.82-2.55.41l.6.07c-.99.22-1.81-.46-2.14-1.34-.1-.27.37-.32.53-.31.28.02.56.17.66.43.07.2.17.35.31.5.05.06-.01.02-.03,0,0,0,.1,0-.04,0,.26-.02.43,0,.67.1.38.17.69,0,.89-.36.15-.27.75-.1.92.03.22.16.39.23.65.25.03,0,.08-.01.11-.02-.15.05-.05,0,.03-.12.2-.3.33-.59.28-.96-.1-.76-.73-1.38-1.29-1.86-.61-.53-1.32-.98-2.04-1.36-.26-.14-.52-.27-.8-.37-.12-.05.1.03,0,0-.04-.01-.08-.02-.12-.03-.14-.03-.28-.07-.42-.1-2.21-.51-4.4-1.18-6.4-2.25-2.2-1.17-4.2-2.81-6.22-4.26-1.38-.99-2.75-1.97-4.13-2.96-.19-.14-.31-.36-.09-.52s.65-.05.84.09h0Z"/>
      <path class="cls-13" d="m150.95,48.15c-1.24-.94-2.4-2.02-3.53-3.09-3.06-2.91-5.88-6.07-8.5-9.37-2.45-3.1-4.93-6.21-8.07-8.66-2.71-2.12-5.86-3.6-9.31-3.93-1.9-.18-3.82-.03-5.69.35-1.4.28-2.89.64-4.13,1.39-.27.16-.54.34-.7.62-.18.31-.89.01-.68-.34.36-.61,1.17-.95,1.79-1.23.47-.2.96-.39,1.45-.52,1.99-.56,4.04-.9,6.11-.92,3.61-.02,7.05,1.09,10.05,3.06,3.21,2.1,5.85,5,8.25,7.97,1.55,1.92,3.05,3.87,4.67,5.72,1.37,1.56,2.78,3.08,4.26,4.53s2.91,2.74,4.46,4.01c.02.02.04.03.06.05.4.3-.19.61-.5.37h0Z"/>
      <path class="cls-13" d="m183.23,78.5c.04.28-.1.56-.34.71-.78.45-1.96-.2-2.63-.55l.5-.03c-.15.18-.42.23-.64.23-.61-.01-1.12-.44-1.51-.86l.53.14c-1.42.34-2.97.37-4.4.1-.81-.15-1.61-.39-2.41-.6-.88-.22-1.75-.44-2.63-.64-1.29-.29-2.57-.52-3.89-.64-.29-.03-.59-.08-.88-.13-1.24-.21-2.48-.47-3.71-.73-1.88-.4-3.75-.82-5.62-1.26-2.32-.55-4.63-1.13-6.93-1.74-2.54-.67-5.07-1.38-7.59-2.13s-5.07-1.57-7.57-2.45c-2.34-.82-4.66-1.71-6.93-2.71-1.92-.85-3.82-1.77-5.6-2.88-1.32-.82-2.64-1.76-3.62-2.98-.19-.24-.38-.5-.53-.76-.2-.33.56-.3.7-.05.69,1.17,1.82,2.09,2.93,2.86,1.6,1.11,3.34,2.02,5.1,2.84,2.15,1,4.35,1.88,6.57,2.7,2.43.89,4.88,1.7,7.35,2.47s5.01,1.5,7.54,2.18c2.35.64,4.72,1.25,7.09,1.82,1.97.48,3.95.94,5.93,1.37,1.39.3,2.77.6,4.17.86.06.01.12.02.18.03-.08-.02.07.01.12.02.11.02.21.04.32.06.17.03.35.06.52.08.53.08,1.06.09,1.59.17,1.72.24,3.41.67,5.08,1.09.76.19,1.51.39,2.27.58,1,.25,2.04.29,3.07.21.44-.04.89-.09,1.33-.19.18-.04.4,0,.53.14.18.19.5.53.74.55.04,0,.05-.01.09-.03.07-.04-.01.02.02-.02.11-.13.37-.1.5-.03.38.2,1.39.81,1.78.5.1-.08.14-.26.13-.35-.04-.34.71-.22.75.07h0Z"/>
      <path class="cls-13" d="m128.08,65.44c.13.65-.13,1.37-.47,1.9-.4.62-.98,1.01-1.56,1.43s-1.15,1-1.53,1.66c-.25.43-.44.93-.49,1.44-.03.24-.02.48-.07.72-.08.34-.23.66-.29,1-.08.43.13.52.45.73.28.18.55.38.8.6.41.36.86.83.97,1.39.21,1.13-1.15,1.44-1.99,1.33l.36-.11c-.16.26-.57.33-.85.34-.63.03-1.2-.39-1.81-.3-.4.06-.74.17-1.14.03-.59-.21-.96-.78-1.26-1.3-.38-.64-.77-1.32-1.04-2.02-.1-.24-.15-.45-.07-.7.24-.75.27-1.47.3-2.27.03-1.01.04-2.02.04-3.03l.71.32-.39.15c-.21.08-.48-.03-.63-.17-.26-.25-.16-.69-.08-.98.11-.37.99-.13.89.24-.04.13-.03.37-.08.48-.02.04.04.08,0,.04l-.63-.17.39-.15c.19-.07.71.04.71.32,0,.7,0,1.4-.02,2.09-.02.93.02,1.91-.14,2.82-.04.2-.14.37-.19.56-.05.18.03.36.13.57.31.69.68,1.38,1.08,2.02.18.29.37.66.69.62.47-.05.85-.15,1.33-.02.29.08,1.06.44,1.26.11.06-.1.26-.12.36-.11.26.03.56.03.81-.08.64-.28.37-.98.03-1.38-.4-.48-.92-.76-1.42-1.11-.47-.33-.54-.78-.4-1.31s.26-.99.32-1.52c.05-.45.2-.89.41-1.29.26-.52.61-.98,1.03-1.39.55-.54,1.26-.9,1.79-1.45s.97-1.37.82-2.14c-.08-.4.82-.28.89.08h0Z"/>
      <path class="cls-13" d="m117.6,60.73c-.05,1.03-.07,2.07,0,3.1.03.5.04,1.07.25,1.53.15.34.23.63.18,1.01,0,.06-.03.13-.03.19,0,.02.01.12,0,.13.03.12-.07.09-.29-.09.05-.03.09-.06.13-.09.12-.09.62.03.53.23-.06.15-.12.3-.16.46-.02.07-.01.24-.05.29.03.08-.02.08-.13-.02-.16-.05-.19-.07-.1-.07,0,.01.16-.12.17-.15.11-.22.69-.04.59.16-.17.35-.81.54-1.07.16-.18-.27.04-.73.15-.99l.53.23c-.25.18-.67.24-.86-.07-.11-.2-.02-.44,0-.65.03-.36-.15-.6-.25-.91s-.13-.62-.16-.94c-.12-1.21-.09-2.45-.03-3.67.01-.22.6-.09.59.16h0Z"/>
      <path class="cls-13" d="m118.67,53.32c-.27,1.61-.75,3.21-1.34,4.73-.5,1.29-1.12,2.56-1.92,3.7-.5.71-1.13,1.3-1.64,2.01-.61.85-1.2,1.71-1.74,2.61-.27.44-.53.89-.74,1.37-.07.16-.14.33-.18.51-.03.12-.04.18-.02.25.16.49.44.97.64,1.46.21.53.4,1.07.53,1.63.22.96.54,1.93,1.04,2.78.15.25.32.5.53.71.13.13.29.21.4.35.21.25.37.58.43.9.09.49-.13.91-.55,1.18-.19.12-.39.15-.55.29-.18.16-.41.26-.65.28-.36.03-.69-.1-1-.28-.1-.06-.14-.16-.04-.24s.31,0,.4.05c.28.17.54.16.79-.06.18-.16.4-.21.61-.34.43-.28.53-.73.36-1.2-.06-.16-.14-.31-.23-.44-.03-.04-.05-.09-.09-.12,0,0-.01-.02-.02-.03.1.1-.1-.06-.12-.07-.43-.35-.74-.84-.99-1.33-.41-.8-.69-1.67-.89-2.54-.13-.56-.32-1.1-.54-1.64-.18-.46-.44-.9-.6-1.36-.09-.24.03-.53.12-.76.18-.44.41-.86.65-1.26.52-.9,1.1-1.76,1.7-2.61.18-.25.35-.51.54-.76.25-.33.57-.61.84-.93.88-1.08,1.54-2.31,2.09-3.58.73-1.72,1.31-3.56,1.62-5.4.03-.21.6-.07.56.15h0Z"/>
      <path class="cls-13" d="m107.93,28.83c.06-.02-.03.01-.06.03-.08.04-.17.07-.25.12-.27.14-.52.3-.75.5-.73.61-1.16,1.43-1.32,2.36s-.61,1.73-.92,2.59c-.48,1.32-.69,2.71-.67,4.11.02,1.11.15,2.22.36,3.32.13.69.29,1.37.45,2.04.04.14.05.28.07.43.2,2.04.2,4.11.04,6.15-.1,1.24-.32,2.47-.44,3.71-.11,1.08-.16,2.17-.16,3.26-.02,2.28.13,4.59.59,6.83.19.93.44,1.86.81,2.74.11.26.28.5.36.77.13.44-.15.86-.34,1.24-.23.46-.26,1.01-.11,1.5s.44.75.8,1.08c.57.51.93,1.32,1.25,2,.4.83.76,1.68,1.06,2.55.12.34.21.69.26,1.05.05.39.05.8.17,1.17.05.16.14.26.22.4,0,0,.06.05.07.05.08-.21-.24.01-.08-.04.12-.04.29-.03.42-.06.16-.04.37.03.52.1.06.03.26.15.09.18-.75.17-1.75.03-1.99-.83-.1-.38-.11-.79-.16-1.18s-.16-.76-.3-1.13c-.33-.91-.7-1.8-1.13-2.66-.2-.41-.42-.81-.67-1.19-.22-.32-.48-.51-.75-.78-.33-.34-.53-.78-.59-1.25-.03-.25-.02-.5.03-.74.07-.31.24-.55.37-.84s.21-.6.08-.88c-.18-.38-.36-.76-.51-1.16-.73-2.03-1-4.24-1.13-6.38-.14-2.29-.11-4.61.19-6.89.18-1.39.36-2.77.42-4.17.05-1.19.04-2.38-.03-3.57-.03-.5-.03-1.01-.12-1.5-.11-.66-.32-1.32-.45-1.98-.11-.59-.21-1.18-.28-1.77-.2-1.68-.18-3.39.27-5.03.28-.99.76-1.9,1.06-2.88.07-.23.11-.46.16-.69.1-.51.29-1,.58-1.43.39-.59.95-1.07,1.58-1.38.11-.05.22-.1.33-.14.15-.05.39.03.52.1.07.04.25.13.09.18h0Z"/>
      <path class="cls-13" d="m148.14,47.33c-.21.06-.43.11-1.28.66-.31.17-.41.33-.61.64-.08.12-.07.27.06.37.09.06.21.11.29.02.36-.42.6-.65,1.09-.87,1-.43,1.29-.4,2.36-.26.39.05.77.15,1.16.08.15-.03.3-.1.31-.24,0-.14-.12-.24-.29-.23-.93.05-1.18-.34-2.11-.27,0,0-.65-.06-.98.1Z"/>
      <path class="cls-13" d="m110.79,23.81c-1.46-.8-2.49-2.14-3.33-3.74-.5-.95-.68-2.03-.65-3.16.03-.98.19-1.94.42-2.87.83-3.37,2.62-5.35,5.47-5.88,2.51-.47,5-.66,7.5.03.61.17,1.19.39,1.71.91.75.74,1.74.43,2.24-.61.71-1.48.52-3.62-.44-4.89-.58-.78-1.3-1.31-2.08-1.71C119.38.74,117.06,0,114.61,0c-1.41,0-2.83-.06-4.23.28-.89.22-1.72.58-2.46,1.23-.98.86-1.98,1.71-2.94,2.62-1.18,1.11-2.19,2.42-2.97,4-.24.5-.5.99-.77,1.47-.57,1.03-.98,2.13-1.19,3.37-.76,4.4-.64,4.64-.43,6.26-.04.19.51,1.86.52,2.05,0,.11.03-.1.08-.11.14,0,.63.16.68.04-.11-.48-.76-.69-.77-4.64.23-1.13.44-2.27.64-3.42.18-1.03.5-1.98.98-2.85.75-1.33,1.35-2.78,2.3-3.94,1.43-1.74,3.09-3.1,4.77-4.45.58-.46,1.25-.67,1.93-.77,3.44-.52,6.8-.27,10.06,1.33.88.43,1.74.92,2.4,1.81.68.91.81,2.74.28,3.82-.21.43-.6.61-.94.36-2.33-1.69-4.88-1.79-7.47-1.58-1.05.09-2.09.23-3.12.5-2.51.66-4.23,2.46-5.18,5.4-.45,1.4-.7,2.84-.71,4.37,0,1.5.35,2.8,1.04,4,.82,1.41,1.69,2.37,3.38,3.64-.2.2-.32.31-.44.44-.12.12-.26.27-.15.46.08.14.24.26.37.28.14.02.3-.07.44-.15,0,0,.85-.62.73-1.67l-.68-.34Z"/>
      <path class="cls-13" d="m103.83,26.76c-.46-.52-.88-1-1.3-1.48-.86-.97-1.55-2.1-2.11-3.37-.1-.23-.19-.46-.26-.7-.05-.19,0-.43.16-.47.12-.03.31.06.41.18.14.18.23.43.34.65.16.33.3.69.5.99,1.1,1.75,2.28,3.39,3.99,4.26.52.26.95.63.9,1.4,0,0-.09.52-.68.18-.78-.46-1.95-1.64-1.95-1.64Z"/>
      <path class="cls-13" d="m160.63,59.35c.02.06.03.15.08.18.47.32,1.24.23,1.62-.18.03-.03,0-.12-.02-.18,0-.02-.06-.06-.07-.06-.49.22-1.02.18-1.53.19-.03,0-.05.04-.08.05Z"/>
      <g>
        <path class="cls-13" d="m151.38,72.45c.02.13.03.33.1.5.04.09.17.2.26.2.1,0,.25-.07.32-.15.25-.34.22-.73.07-1.08-.06-.14-.27-.29-.42-.3-.2-.01-.27.2-.29.4-.01.13-.02.25-.03.44Z"/>
        <path class="cls-13" d="m150.77,72.17c-.03-.12-.04-.25-.09-.36-.08-.16-.13-.35-.38-.33-.22.02-.32.17-.33.35-.01.24,0,.49.07.72.05.16.17.33.4.32.34-.02.32-.29.35-.52,0-.06-.01-.12-.02-.18Z"/>
      </g>
      <g>
        <path class="cls-13" d="m171.48,66.45c-.07.11-.2.26-.28.43-.04.09-.04.23.01.28.05.05.18.07.28.04.36-.13.6-.44.75-.78.06-.13.04-.35-.04-.43-.1-.1-.29.02-.42.15-.09.09-.18.18-.3.31Z"/>
        <path class="cls-13" d="m171.33,65.94c.06-.1.15-.21.19-.31.06-.15.16-.33,0-.43-.14-.09-.29-.03-.41.1-.17.18-.32.37-.44.58-.08.15-.13.33.01.43.2.15.37-.07.54-.22.04-.04.07-.1.11-.15Z"/>
      </g>
    </g>
    <g>
      <rect class="cls-8" x="193.24" y="53.08" width="8.73" height="9.92" rx="1.11" ry="1.11"/>
      <path class="cls-14" d="m200.9,62.76h-2.91c-1.15,0-2.33.07-3.48,0s-.9-1.31-.9-2.08v-5.92c0-.3-.04-.65.06-.94.2-.55.69-.49,1.16-.49h5.65c.58,0,1.08.21,1.14.9.02.25,0,.52,0,.77v6.43c0,.54.03,1.28-.71,1.32-.4.02-.57.53-.07.5.81-.05,1.48-.6,1.51-1.43.02-.4,0-.81,0-1.22v-4.62c0-.93.29-2.47-.71-2.99-.4-.21-.87-.16-1.3-.16h-2.05c-1.27,0-2.55-.03-3.82,0-.74.02-1.48.48-1.58,1.26-.04.32,0,.65,0,.97v6.37c0,.42-.04.84.21,1.21.38.58,1.02.61,1.64.61h6.11c.4,0,.57-.5.07-.5Z"/>
    </g>
    <g>
      <rect class="cls-12" x="210.11" y="53.08" width="8.73" height="9.92" rx="1.11" ry="1.11"/>
      <path class="cls-14" d="m217.96,62.87c-2.13,0-4.28.08-6.42,0-1.22-.04-1.08-1.25-1.08-2.11v-6c0-.29-.03-.61.03-.89.15-.63.48-.64.99-.64h5.69c.59,0,1.16.21,1.28.88.05.27.02.57.02.85v6.5c0,.16,0,.32,0,.48-.01.27-.14.92-.51.94-.14,0-.41.03-.51.14-.07.07-.14.14.04.13.82-.05,1.66-.43,1.71-1.35.02-.34,0-.69,0-1.03v-6.31c0-.51-.05-1-.54-1.31-.38-.24-.84-.19-1.27-.19h-2.05c-1.27,0-2.55-.03-3.82,0-.66.01-1.46.26-1.71.94-.12.32-.07.72-.07,1.06v6.39c0,.37-.05.8.11,1.14.3.62.93.66,1.53.66h6.11c.14,0,.41-.03.51-.14.07-.08.14-.13-.04-.13Z"/>
    </g>
    <g>
      <rect class="cls-8" x="223.77" y="43.27" width="8.73" height="9.92" rx="1.11" ry="1.11"/>
      <path class="cls-14" d="m231.42,52.91c-2.12,0-4.27.1-6.39,0-1.1-.05-.89-1.27-.89-2.04v-5.92c0-.3-.05-.68.07-.96.22-.51.71-.45,1.16-.45h5.65c.57,0,1.07.18,1.13.86.02.25,0,.52,0,.77v6.43c0,.54.03,1.26-.71,1.3-.42.02-.55.58-.06.56.82-.05,1.47-.62,1.51-1.45.02-.4,0-.81,0-1.22v-4.62c0-.95.29-2.47-.71-3.01-.4-.22-.86-.17-1.3-.17h-2.05c-1.27,0-2.55-.03-3.82,0-.75.02-1.47.49-1.57,1.28-.04.32,0,.65,0,.97v6.37c0,.42-.03.85.21,1.23.38.59,1.02.63,1.64.63h6.11c.42,0,.55-.56.06-.56Z"/>
    </g>
    <g>
      <rect class="cls-12" x="234.25" y="43.27" width="8.73" height="9.92" rx="1.11" ry="1.11"/>
      <path class="cls-14" d="m242.11,53.04c-2.13,0-4.26.06-6.39,0-1.23-.03-1.11-1.22-1.11-2.1v-5.94c0-.3-.04-.64.02-.94.15-.67.54-.65,1.06-.65h5.63c.62,0,1.19.22,1.28.93.03.27,0,.55,0,.81v6.47c0,.47.06,1.38-.59,1.41-.19.01-.79.32-.31.29.81-.05,1.59-.49,1.63-1.37.02-.36,0-.73,0-1.1v-6.28c0-.54-.1-1.06-.64-1.33-.37-.19-.82-.14-1.22-.14h-2.09c-1.25,0-2.5-.02-3.75,0-.66.01-1.44.27-1.69.95-.12.32-.07.72-.07,1.06v6.39c0,.37-.05.8.11,1.14.31.62.93.67,1.53.67h6.11c.14,0,.41-.02.51-.14.07-.08.14-.16-.04-.16Z"/>
    </g>
    <g>
      <path class="cls-2" d="m217.81,43.06h-23.54c-.57,0-1.03.46-1.03,1.03v7.96c0,.57.46,1.03,1.03,1.03h7.7c.74,0,.72-.3.72-.46,0-1.85,1.5-3.34,3.34-3.34s3.34,1.5,3.34,3.34c0,.16-.01.46.58.46h7.84c.57,0,1.03-.46,1.03-1.03v-7.96c0-.57-.46-1.03-1.03-1.03Z"/>
      <path class="cls-14" d="m218.05,42.93h-22.39c-.41,0-.82-.03-1.23,0-1.16.11-1.55.78-1.55,1.85v4.38c0,.99-.19,2.18.03,3.16.26,1.17,1.67.91,2.57.91h4.62c.68,0,2.06.22,2.66-.22.51-.37.29-1.02.5-1.59.69-1.89,3.02-2.52,4.57-1.25.49.41.86.96,1.05,1.56.1.32,0,.95.18,1.22.2.31.59.26.91.27,1.31.04,2.62,0,3.93,0,1.21,0,2.47.09,3.68,0,1.3-.1,1.63-.85,1.63-2v-5.16c0-1.12.39-2.89-1.09-3.13-.16-.03-.77.24-.6.26,1.34.22.97,2.07.97,3.06v4.46c0,.77.23,2.02-.72,2.23-1.09.25-2.52,0-3.63,0-1.19,0-2.5.16-3.68,0-.8-.11-.62-.39-.76-1.09-.19-.91-.77-1.72-1.56-2.2-1.19-.72-2.75-.63-3.94.04-.69.38-1.26.98-1.57,1.71-.24.57-.07,1.37-.63,1.56-.38.13-1,0-1.4,0h-2.33c-1.15,0-2.38.12-3.53,0-1.3-.13-1.11-1.27-1.11-2.23v-4.43c0-.56-.33-2.75.44-3.08.3-.13.95,0,1.26,0h22.27c.14,0,.81-.27.48-.27Z"/>
    </g>
    <g>
      <path class="cls-12" d="m209.29,43.06h-6.51c-.61,0-1.11-.5-1.11-1.11v-7.7c0-.61.5-1.11,1.11-1.11h6.51c.61,0,1.11.5,1.11,1.11v7.7c0,.61-.5,1.11-1.11,1.11Zm-3.25-7.11c-1.32,0-2.39,1.07-2.39,2.39s1.07,2.39,2.39,2.39,2.39-1.07,2.39-2.39-1.07-2.39-2.39-2.39Z"/>
      <g>
        <path class="cls-14" d="m209.53,42.91c-2.13,0-4.26.06-6.39,0-1.23-.03-1.1-1.22-1.1-2.1v-5.94c0-.3-.04-.64.02-.93.15-.67.54-.64,1.06-.64h5.63c.61,0,1.19.21,1.28.93.03.27,0,.55,0,.81v6.47c0,.47.06,1.37-.59,1.41-.2.01-.79.33-.31.3.81-.05,1.59-.49,1.63-1.37.02-.36,0-.73,0-1.1v-6.28c0-.54-.11-1.06-.64-1.33-.37-.19-.82-.14-1.22-.14h-2.09c-1.25,0-2.5-.02-3.75,0-.66.01-1.44.27-1.69.95-.12.32-.07.73-.07,1.06v6.39c0,.37-.05.8.11,1.14.31.62.93.68,1.53.68h6.11c.14,0,.41-.02.51-.14.07-.08.14-.16-.04-.16Z"/>
        <path class="cls-14" d="m206.27,35.8c-1.11.02-2.25.53-2.74,1.57s-.21,2.19.62,2.9c.87.75,2.16.75,3.16.25s1.6-1.49,1.46-2.58c-.16-1.25-1.26-2.13-2.5-2.14-.17,0-.37.04-.51.14-.1.07-.11.16.04.16.91.01,1.73.58,2.08,1.42s.18,1.85-.46,2.51c-.27.27-.61.49-.99.54-.44.05-.89-.08-1.27-.3-.77-.46-1.21-1.33-1.13-2.22s.79-1.93,1.78-1.94c.17,0,.37-.04.51-.14.1-.07.11-.17-.04-.16Z"/>
      </g>
    </g>
    <g>
      <path class="cls-8" d="m206.04,33.59h-5.17c-.61,0-.99-.46-.68-.83l2.58-3.14,2.58-3.14c.3-.37,1.06-.37,1.37,0l2.58,3.14,2.58,3.14c.3.37-.08.83-.68.83h-5.17Z"/>
      <path class="cls-14" d="m206.07,33.31c-.9,0-1.8,0-2.7,0h-1.81c-.28,0-1.22.11-1.07-.43.07-.25.47-.57.63-.76l1.23-1.5,1.29-1.57,1.19-1.45c.25-.3.5-.73.8-.97.48-.39.8.07,1.07.4l1.13,1.37,3.55,4.31c.1.13.31.33.17.52-.08.11-.43.08-.57.08h-1.7c-1.07,0-2.14,0-3.22,0-.43,0-.55.56-.06.56,1.07,0,2.14,0,3.22,0,.77,0,2.76.32,3.1-.67.15-.44-.24-.78-.49-1.09l-1.33-1.62-1.62-1.97-1.32-1.61c-.27-.33-.54-.77-.96-.92-1.28-.47-2.06.98-2.73,1.79-1.31,1.6-2.74,3.15-3.96,4.81-.53.73.25,1.24.94,1.26.47.01.94,0,1.41,0,1.25,0,2.51,0,3.76,0,.43,0,.55-.56.06-.56Z"/>
    </g>
    <g>
      <path class="cls-7" d="m233.87,43.34h-5.17c-.61,0-.99-.46-.68-.83l2.58-3.14,2.58-3.14c.3-.37,1.06-.37,1.37,0l2.58,3.14,2.58,3.14c.3.37-.08.83-.68.83h-5.17Z"/>
      <path class="cls-14" d="m234.02,43.14c-.9,0-1.8,0-2.7,0h-1.81c-.31,0-.96.09-1.15-.22-.22-.35.3-.78.5-1.02l1.22-1.48,1.31-1.59,1.17-1.42c.28-.34.56-.82.9-1.1.44-.36.76.06,1.02.38l1.1,1.34,3.58,4.35c.07.08.17.17.22.27.22.4-.18.49-.46.49h-1.7c-1.07,0-2.14,0-3.22,0-.26,0-.77.4-.29.4,1.07,0,2.14,0,3.22,0,.79,0,2.65.3,3.15-.52.26-.42-.12-.75-.37-1.06l-1.32-1.6-1.62-1.97-1.33-1.61c-.27-.33-.53-.78-.94-.94-1.27-.49-2.04.84-2.7,1.65-1.35,1.64-2.78,3.25-4.07,4.94-.49.64.17,1.09.82,1.11.47.02.94,0,1.41,0,1.25,0,2.51,0,3.76,0,.26,0,.77-.4.29-.4Z"/>
    </g>
    <g>
      <rect class="cls-7" x="222.92" y="53.19" width="22.29" height="9.82" rx="1.89" ry="1.89"/>
      <path class="cls-14" d="m243.45,62.76c-3.49,0-6.98,0-10.48,0h-6.39c-.51,0-1.02.03-1.53,0-1.21-.07-1.76-.91-1.78-2.03-.03-1.87-.15-3.82,0-5.68.17-2.11,2.6-1.62,4.08-1.62h13.61c.67,0,1.35-.03,2.03,0,1.26.06,1.83.91,1.85,2.09s0,2.46,0,3.69.36,3.4-1.48,3.55c-.39.03-.57.53-.08.49,2.96-.24,2.29-3.65,2.29-5.73,0-1.84.38-4.46-2.21-4.57-4.44-.19-8.92,0-13.36,0-1.67,0-3.34-.05-5.01,0-1.02.03-2.02.53-2.34,1.57-.27.86-.1,1.97-.1,2.85,0,1.96-.74,5.69,2.12,5.88,1.35.09,2.74,0,4.09,0h14.42c.32,0,.75-.49.26-.49Z"/>
    </g>
  </g>
</svg>