<?xml version="1.0" encoding="UTF-8"?>
<svg xmlns="http://www.w3.org/2000/svg" viewBox="0 0 332.15 80">
  <defs>
    <style>
      .cls-1 {
        isolation: isolate;
      }

      .cls-1, .cls-2 {
        fill: none;
      }

      .cls-2 {
        stroke: #f0cb9c;
        stroke-dasharray: 0 4;
        stroke-linecap: round;
        stroke-width: 2px;
      }

      .cls-2, .cls-3 {
        stroke-miterlimit: 10;
      }

      .cls-4 {
        fill: #f7eae0;
      }

      .cls-5 {
        fill: #eaddd5;
      }

      .cls-6 {
        fill: #e7dad2;
      }

      .cls-7 {
        fill: #655142;
      }

      .cls-8 {
        fill: #9c8b83;
      }

      .cls-9 {
        fill: #91b738;
      }

      .cls-10 {
        fill: #874937;
      }

      .cls-11 {
        fill: #a19088;
      }

      .cls-12, .cls-3 {
        fill: #cf995f;
      }

      .cls-13 {
        fill: #ce995f;
      }

      .cls-14 {
        fill: #241914;
      }

      .cls-15 {
        fill: #a2ce84;
      }

      .cls-16, .cls-17 {
        fill: #562e92;
      }

      .cls-18 {
        fill: #629b35;
      }

      .cls-19 {
        fill: #604c3f;
      }

      .cls-20 {
        fill: #7a3f31;
      }

      .cls-21 {
        fill: #76942c;
      }

      .cls-22 {
        fill: #79655a;
      }

      .cls-23, .cls-24 {
        fill: #7749bf;
      }

      .cls-3 {
        stroke: #604c3f;
        stroke-width: .25px;
      }

      .cls-24, .cls-17 {
        mix-blend-mode: multiply;
      }

      .cls-24, .cls-17, .cls-25 {
        opacity: .3;
      }

      .cls-25 {
        fill: #fff;
      }
    </style>
  </defs>
  <g class="cls-1">
    <g id="bg">
      <g>
        <g>
          <path class="cls-22" d="m258.74,9.41c.91-.32,1.59-.01,2.29.62,1.21,1.11,2.55,2.07,4.11,2.66,1.23.47,2.25,1.24,3.18,2.16.73.71,1.45,1.41,2.39,1.89.83.42,1.5,1.11,2.05,1.88,2.24,3.11,3.57,6.55,3.81,10.39.03.42.1.77.39,1.09,1.24,1.39,2.15,2.95,2.36,4.84.04.32.24.45.54.48.4.04.8.11,1.2.12,2.1.08,4.02,1.34,6.09,1.62,2.03.27,3.91.48,5.94.74.75.1,1.99.17,2.75.22,2.31.15,4.36,0,6.65.41,3.01.53,5.91.92,8.58,2.4.61.34.63.34,1.15-.13,1.08-.96,1.89-2.13,2.63-3.35.26-.43.35-.91.37-1.41.05-1.16.04-2.32-.09-3.47-.2-1.7-1.03-3.11-2.16-4.35-.6-.66-1.26-1.26-1.91-1.86-1.24-1.16-2.48-2.3-3.73-3.45-.39-.36-.78-.73-1.27-.96-.76-1.03-1.88-1.72-2.57-2.84-.31-.5-.48-.9-.36-1.46.05-.25.12-.34.41-.36.95-.04,1.45-.48,1.38-1.2-.04-.5-.21-.96-.67-1.24-.15-.09-.34-.13-.47-.24-.17-.16-.17-.4-.15-.62.02-.22.19-.26.37-.31.68-.18.83-.08.94.65.02.13.01.27.04.4.1.4.42.54.8.43.45-.14.8-.57,1.34-.45.36.74.97,1.27,1.58,1.77,1.65,1.36,3.19,2.84,4.87,4.17.83.66,1.53,1.48,2.26,2.26,1.13,1.2,2.23,2.42,3.13,3.82,1.58,2.45,2.16,5.13,1.87,8.02-.19,1.86-.52,3.7-1.15,5.47-.23.63-.46,1.26-1.06,1.65-.27.18-.39.48-.55.74-.37.61-.74,1.21-1.12,1.82-.93,1.48-1.98,2.86-3.49,3.8-.44.28-.54.63-.42,1.13.7,3,.64,6-.05,9-.24,1.05-1.47,1.84-1.9,2.82-.21.46.57,1.11.71,1.62.18.66.12,1.33-.15,1.96-.43,1.05-1.1,1.82-2.32,1.95-.71.08-1.4.23-2.11.31-2.7.29-5.39.6-8.11.63.04-.37.02-.7-.44-.82-.28-.07-.6-.07-.86-.37.5-.29,1-.57,1.48-.85.25-.14.4-.35.29-.65-.09-.23-.29-.34-.52-.28-.34.09-.58.04-.78-.28-.17-.27-.45-.17-.71-.12-.63.12-.63.1-.91-.55-.05-.11-.14-.21-.21-.32.22.01.43.03.65.04.35,0,.56-.21.7-.49.11-.21.1-.42-.09-.59-.18-.16-.4-.18-.6-.06-.14.09-.36.22-.36.34-.01.61-.62.49-.89.77-.25.08-.51.24-.76.22-.94-.07-1.72.34-2.54.69-.73.32-1.47.61-2.21.91-.41.17-.83.3-1.24.49-.88.4-1.61.94-1.82,1.97-.06.28-.3.29-.5.36-1.89-.31-3.79-.46-5.71-.33-2.04.14-3.95-.44-5.86-1.06-2.06-.67-3.92-1.66-5.52-3.13-.33-.3-.67-.58-1.02-.86-.27-.22-.47-.18-.65.13-.27.46-.52.93-.77,1.4-.54,1.02-1.07,2.04-1.61,3.07-.29-.15-.39-.46-.59-.69-1.26-1.48-2.75-2.29-4.75-1.59-.18.06-.34,0-.5-.08.08-1.48-.15-2.94-.4-4.38-.36-2.11-.82-4.19-1.25-6.29-.06-.3-.17-.6-.25-.9-.18-.63-.55-1.11-1.13-1.42-.39-.21-.76-.47-1.15-.69-1.82-1.03-3.65-2.05-5.47-3.07-.03-.17-.12-.34,0-.51.38-.61.5-1.32.7-2,.49-1.64.62-3.23-.64-4.64-.14-.16.01-.32.18-.42,1.14.36,2.27.75,3.47.85.18-.29-.04-.43-.16-.58-.59-.73-1.22-1.43-1.21-2.45-.56-.95-.63-2.13-1.39-3-.29-.33-.44-.77-.65-1.16.17-.05.37-.18.5-.13.67.23,1.07-.06,1.4-.6.04-.06.17-.06.23-.12.24-.21.32-.54.1-.69-.61-.4-.75-1.06-1.03-1.65-.21-.45-.58-.78-1.01-1.03-.62-.36-1.01-.85-1.06-1.58-.02-.3-.16-.5-.45-.59.18-.9.94-1.38,1.51-1.96.91-.93,1.39-1.98,1.55-3.25.25-2.03,1.17-3.71,2.97-4.77.75-.44,1.18-1,1.35-1.8.15.01.3.03.45.04.1.2.22.4.48.4.26,0,.39-.18.48-.39.16-.33.17-.69.17-1.04-.03-1.92.2-3.8.6-5.67Zm1.12,39.23c.38-.76.65-1.68,1.75-1.44.46-.2.85-.48,1.17-.86.17-.21.04-.38-.09-.59-.24-.37-.19-.48.16-.52,1.19-.15,1.6-.55,1.87-1.76.05-.25.19-.49.33-.72.14-.23.32-.43.48-.64.18-.24.24-.58-.01-.71-.53-.27-.11-.73-.32-1.07-.29-.47.22-.7.41-1.02.19-.31.45-.54.78-.71.17-.08.27-.28.2-.45-.07-.14-.24-.27-.39-.33-.35-.13-.71-.14-.97.2-.19.24-.38.49-.56.74-.92,1.27-1.98,2.37-3.25,3.32-1.17.88-2.37.87-3.66.65-.52-.09-1.02-.3-1.48-.6-.22-.15-.45-.29-.68-.42-.21-.12-.44-.13-.59.08-.1.14-.15.37-.02.5.63.65.7,1.51.87,2.33.31,1.43.55,2.88.97,4.29.27.93.7,1.53,1.77,1.33.51.27.84,0,1.12-.39.27-.37.56-.69,1.07-.67.04,0,.09-.02.13-.04.31-.12.47-.35.41-.59-.06-.25-.33-.37-.65-.27-.28.1-.55.22-.83.33Zm-.56-36.68c.09.8.13,1.37.22,1.94.15.92.33,1.84.5,2.76.07.39.3.58.71.67.87.19,1.75.35,2.63.41.69.05,1-.38.72-1.01-.66-1.47-1.4-2.89-2.41-4.15-.31-.38-.66-.73-1.02-1.06-.28-.26-.62-.36-.98-.16-.3.17-.39.47-.38.58Zm-5.86,24.06c.08,0,.2.02.25-.03.28-.26.57-.53.82-.83.06-.07.04-.26-.01-.36-.28-.53-.79-.58-1.1-.12-.12.18-.25.35-.35.54-.18.31.05.74.4.79Z"/>
          <path class="cls-4" d="m307.12,14.7c-.54-.12-.89.32-1.34.45-.39.12-.7-.03-.8-.43-.03-.13-.02-.26-.04-.4-.11-.73-.26-.83-.94-.65-.18.05-.34.09-.37.31-.03.22-.03.46.15.62.12.11.32.15.47.24.45.29.62.75.67,1.24.06.72-.43,1.16-1.38,1.2-.29.01-.36.11-.41.36-.11.56.06.96.36,1.46.69,1.12,1.81,1.81,2.57,2.84-.8.38-1.4.06-2-.49-1.45-1.36-2.75-2.85-3.87-4.47-.37-.54-.84-1.13-.82-1.88.03-.53-.02-1.03-.41-1.46-.27-.3-.37-.68-.37-1.09,0-.26-.06-.51-.1-.77.02-.92-.07-1.85.28-2.74.12-.3.03-.61-.04-.91-.25-1.08-.27-2.18-.09-3.27.48-.84.88-1.75,1.87-2.15.11-.05.21-.17.28-.27.45-.66,1.07-.88,1.84-.78.3.04.62,0,.93-.02.76-.06,1.25.33,1.62.94.27.44.3.91.29,1.41-.02.61-.16,1.24.23,1.8,0,.04.03.09.01.13-.47,1.6-.52,3.25-.52,4.91-.23.08-.39.26-.38.48.07,1.11.51,1.99,1.63,2.39.33.27.46.67.66,1.02Z"/>
          <path class="cls-4" d="m296.44,63.39c.07.11.16.2.21.32.28.65.28.67.91.55.27-.05.54-.15.71.12.2.32.45.37.78.28.24-.06.44.04.52.28.11.3-.05.51-.29.65-.49.29-.98.56-1.48.85.26.3.58.3.86.37.46.12.48.45.44.82-.1.09-.19.23-.3.25-.74.13-1.47.3-2.21.31-.77,0-1.48.25-2.21.38-1.21.23-2.41.53-3.66.44-.31-.02-.62-.03-.91-.11-.28-.08-.52-.09-.74.1-.53.47-1.01.17-1.43-.14-.31-.23-.56-.55-.84-.83.2-.07.45-.09.5-.36.2-1.03.94-1.57,1.82-1.97.4-.18.83-.32,1.24-.49.74-.3,1.48-.59,2.21-.91.81-.35,1.6-.77,2.54-.69.24.02.5-.14.76-.22.19,0,.39,0,.58-.01Z"/>
          <path class="cls-4" d="m250.87,45.63c.49-1.64.62-3.23-.64-4.64-.14-.16.01-.32.18-.42-.03-.34-.25-.56-.5-.76-.82-.66-1.78-.97-2.82-1.01-.08,0-.16,0-.24,0-.57.53-1.11,1.02-1.46,1.75.03.9.04,1.8-.16,2.65.03.1.06.2.09.3.08.34.23.68.25,1.03.03.51.28.93.49,1.37.16.34.39.56.77.67,1.19.35,2.23,1.05,3.34,1.57-.03-.17-.12-.34,0-.51.38-.61.5-1.32.7-2Z"/>
          <path class="cls-4" d="m259.83,64.89c.16.08.32.14.5.08,1.99-.7,3.48.11,4.75,1.59.2.23.3.54.59.69.07.87-.16,1.63-.85,2.21-.33.28-.44.75-.85.95-.06.08.31.27.25.35l-.34.51c-.31.2-.05.01-.25.35-1.05.36-2.82-.15-3.88-.2-.57-.3-.79-.76-.77-1.41.03-.7.03-1.38.38-2.04.33-.62.48-1.31.44-2.04-.02-.35.03-.7.05-1.05Z"/>
          <path class="cls-4" d="m249.17,27.86c.29.09.43.29.45.59.05.73.44,1.22,1.06,1.58.43.25.8.58,1.01,1.03.28.59.42,1.25,1.03,1.65.22.14.14.47-.1.69-.06.06-.19.06-.23.12-.33.53-.74.83-1.4.6-.14-.05-.34.08-.5.13-.04-.02-.11-.02-.12-.05-.21-.72-.68-1.29-1.06-1.92-.81-1.32-.97-2.72-.43-4.19.04-.1.2-.15.3-.23Z"/>
          <path class="cls-8" d="m305.7,5.77c-.39-.56-.25-1.19-.23-1.8.01-.5-.02-.97-.29-1.41-.37-.61-.87-1-1.62-.94-.31.02-.62.06-.93.02-.77-.09-1.39.12-1.84.78-.07.11-.17.23-.28.27-.99.4-1.39,1.31-1.87,2.15-.12,0-.24,0-.36-.01.04-.64.34-1.18.67-1.71.16-.26.36-.55.62-.67.77-.35,1.43-.85,2.12-1.32.49-.33,1.08-.36,1.65-.44.13-.02.28-.01.39.04,1.41.66,2.83,1.68,2.34,3.62-.12.47-.25.94-.37,1.41Z"/>
          <path class="cls-5" d="m258.74,9.41c-.4,1.87-.64,3.75-.6,5.67,0,.36,0,.71-.17,1.04-.1.21-.23.39-.48.39-.26,0-.38-.19-.48-.4.16-.65.13-1.31.1-1.96,0-.19-.09-.33-.25-.43.01-.3-.07-.66.06-.9.44-.83.48-1.75.72-2.62.19-.68.18-.68,1.1-.79Z"/>
          <path class="cls-8" d="m259.73,71.43c1.07.05,2.58.21,3.63-.15.02.15.05.29.07.44-1.3.82-4.53.62-3.7-.28Z"/>
          <path class="cls-8" d="m298.19,11.31c.14,0,.15.47.3.46.03.26.1.51.1.77,0,.41.1.79.37,1.09.39.43.44.93.41,1.46-.66-.45-1.04-1.06-1.14-1.87-.06-.48-.14-1.42-.04-1.92Z"/>
          <path class="cls-8" d="m306.45,13.67c-1.12-.4-1.56-1.28-1.63-2.39-.01-.22.15-.4.38-.48.22,1.04.75,1.95,1.26,2.87Z"/>
          <path class="cls-8" d="m256.85,13.72c.16.1.24.25.25.43.03.66.06,1.32-.1,1.96-.15-.01-.3-.03-.45-.04-.08-.81.24-1.57.3-2.36Z"/>
          <path class="cls-11" d="m263.42,71.71c-.02-.15-.05-.29-.07-.44.2-.34.57-.46.88-.65-.02.55-.38.85-.81,1.09Z"/>
          <path class="cls-11" d="m263.77,70.65c.06-.08.13-.15.19-.23-.06.08-.13.15-.19.23Z"/>
          <path class="cls-4" d="m259.85,48.64c.28-.11.55-.24.83-.33.32-.11.59.02.65.27.06.24-.1.47-.41.59-.04.02-.09.04-.13.04-.51-.02-.81.3-1.07.67-.28.39-.61.66-1.12.39-1.07.2-1.5-.4-1.77-1.33-.42-1.41-.66-2.86-.97-4.29-.18-.82-.24-1.67-.87-2.33-.13-.14-.08-.36.02-.5.15-.21.38-.2.59-.08.23.13.46.28.68.42.45.3.95.51,1.48.6,1.29.22,2.49.22,3.66-.65,1.27-.95,2.33-2.06,3.25-3.32.18-.25.37-.5.56-.74.26-.34.62-.33.97-.2.15.06.32.19.39.33.08.16-.03.37-.2.45-.33.16-.59.4-.78.71-.19.32-.7.55-.41,1.02.21.33-.21.8.32,1.07.25.13.19.47.01.71-.16.21-.34.41-.48.64-.14.23-.27.47-.33.72-.26,1.21-.68,1.62-1.87,1.76-.35.04-.4.15-.16.52.13.2.26.38.09.59-.31.38-.71.67-1.17.86-1.1-.24-1.37.68-1.75,1.44Z"/>
          <path class="cls-4" d="m259.3,11.96c0-.11.08-.41.38-.58.36-.21.7-.1.98.16.36.33.71.68,1.02,1.06,1.02,1.26,1.76,2.68,2.41,4.15.28.63-.03,1.06-.72,1.01-.89-.07-1.76-.22-2.63-.41-.41-.09-.64-.28-.71-.67-.17-.92-.35-1.84-.5-2.76-.09-.57-.14-1.15-.22-1.94Z"/>
          <path class="cls-6" d="m253.43,36.02c-.36-.05-.58-.48-.4-.79.11-.19.23-.36.35-.54.31-.46.82-.41,1.1.12.05.1.07.29.01.36-.25.29-.53.56-.82.83-.05.05-.16.02-.25.03Z"/>
          <path class="cls-6" d="m296.44,63.39c-.19,0-.39,0-.58.01.27-.28.88-.16.89-.77,0-.12.22-.25.36-.34.2-.13.42-.11.6.06.18.17.2.38.09.59-.15.28-.35.5-.7.49-.22,0-.43-.02-.65-.04Z"/>
        </g>
        <g>
          <path class="cls-14" d="m286.94,67.68c.39-1.62,1.43-2.49,2.87-2.99.42-.14.82-.34,1.26-.52.05-1.04.3-2.03.57-3.01.42-1.53,1.15-2.89,2.29-4.01.29-.29.54-.53.39-1.02-.1-.32,0-.71.07-1.05.32-1.6.98-3.05,1.94-4.36.13-.17.31-.31.49-.44.12-.08.27-.02.35.09.05.06.09.18.06.24-.09.2-.21.39-.34.57-.71,1.04-1.25,2.15-1.57,3.37-.11.43-.24.86-.13,1.37.59-.15.98-.6,1.46-.87.5-.28.84-.33.93-.07.15.41-.21.53-.45.71-.65.47-1.31.92-1.94,1.41-1.31,1.01-2.19,2.34-2.69,3.9-.28.88-.61,1.76-.59,2.79.46.04.82-.11,1.18-.23.51-.16,1.03-.32,1.57-.29.22,0,.43.08.65.14.14.04.18.18.18.32,0,.16-.12.26-.25.26-2.07.03-3.85,1.02-5.72,1.71-.6.22-1.07.63-1.41,1.19-.52.85-.25,1.49.72,1.65.22.04.45.07.66.04,2.43-.29,4.89-.26,7.32-.63,3.26-.5,6.52-.97,9.78-1.43,1.06-.15,2.12-.31,3.19-.36.87-.04,1.29-.5,1.51-1.24.29-.94.19-1.85-.24-2.73-.15-.32-.41-.62-.44-.95-.03-.39.45-.5.68-.76.83-.96,1.44-2.02,1.65-3.3.38-2.31.59-4.6-.15-6.88-.14-.42-.29-.84-.46-1.25-.12-.28-.08-.53.14-.73.29-.27.6-.52.92-.77,2.07-1.62,3.66-3.63,4.82-5.99.8-1.62,1.16-3.36,1.47-5.12.23-1.32.35-2.65.33-3.99-.05-2.75-.96-5.15-2.86-7.14-1.63-1.71-3.24-3.44-5.01-5.01-2.04-1.81-3.91-3.78-5.71-5.82-.83-.94-1.58-1.93-2.11-3.07-.18-.38-.51-.78-.01-1.19.07-.06.05-.25.05-.39-.03-1.1.29-2.11.73-3.09.39-.87.54-1.79.52-2.73,0-.22,0-.45-.06-.66-.48-1.68-1.25-2.06-2.57-1.95-.68.06-1.33.26-1.88.64-1.25.86-2.09,2.04-2.54,3.5-.05.16-.11.37-.06.52.32.92.44,1.91,1.1,2.7.47.56.76,1.21.63,1.97-.02.1-.14.23-.25.27-.13.05-.26-.03-.32-.16-.19-.45-.14-.98-.49-1.37-.05-.06-.15-.1-.22-.09-.05,0-.13.12-.13.18.06,1.46-.07,2.95.36,4.38.25.86.63,1.66,1.12,2.41,1.4,2.11,3.19,3.83,5.25,5.27.84.59,1.71,1.13,2.57,1.68,2.25,1.45,4,3.39,5.56,5.53.26.36.47.76.64,1.17.74,1.83,1.18,3.72,1.16,5.72-.02,2.12-.89,3.77-2.55,5.05-.21.16-.42.34-.66.46-.42.22-.48.45-.13.81.15.15,0,.34-.12.47-.1.1-.23.12-.36.05-.15-.09-.3-.19-.44-.3-2.5-1.86-5.38-2.71-8.42-3.12-2.92-.39-5.86-.52-8.79-.73-2.89-.21-5.76-.59-8.59-1.22-1.99-.44-4.03-.71-5.9-1.42-.34.27-.34.6-.41.9-.12.47-.25.95-.4,1.41-.08.24-.37.38-.52.29-.18-.11-.2-.28-.16-.46.12-.52.24-1.04.38-1.55.48-1.77-.26-3.22-1.21-4.61-.04-.06-.15-.1-.22-.1-.16,0-.21.14-.24.26-.32,1.41-1,2.66-1.66,3.93-.14.27-.27.57-.58.71-.07.03-.2.04-.24,0-.09-.08-.21-.21-.19-.3.02-.17.13-.32.21-.48.49-.95.99-1.89,1.35-2.9.45-1.24.59-2.5.34-3.81-.34-1.75-.72-3.49-1.27-5.18-.68-2.09-1.7-4.01-2.98-5.8-.37-.51-.46-.98-.23-1.02.45-.08.6.32.8.58,1.66,2.19,2.86,4.62,3.55,7.28.39,1.51.81,3.01.98,4.57.05.47.25.82.55,1.17.92,1.11,1.61,2.35,1.91,3.78.08.4.27.59.66.72,1.44.49,2.95.69,4.42,1.03,2.48.57,4.98.98,7.5,1.26,1.46.16,2.93.22,4.4.34,2.18.18,4.36.32,6.52.57,2.67.31,5.25,1,7.58,2.41.45.27.8.23,1.22-.01.95-.54,1.71-1.27,2.34-2.16.43-.6.63-1.29.69-2,.22-3.03-.35-5.86-2.31-8.28-1.52-1.88-3.22-3.57-5.34-4.8-1.31-.76-2.52-1.68-3.69-2.64-1.53-1.26-2.77-2.77-3.85-4.42-.77-1.18-1.2-2.5-1.28-3.89-.08-1.33-.22-2.67.05-3.99.06-.31-.07-.51-.21-.73-.49-.78-.48-1.58-.22-2.44.44-1.46,1.25-2.68,2.4-3.62,1.35-1.1,2.94-1.43,4.65-.92.28.08.5.18.56.49,0,.04.03.09.06.12,1.31,1.67,1.14,3.47.51,5.32-.14.42-.34.83-.48,1.25-.25.72-.37,1.46-.26,2.23.09.64.28,1.22.8,1.64.33.26.61.52.35,1.01-.09.16.06.33.17.47.32.37.63.75.96,1.12,1.67,1.86,3.4,3.65,5.27,5.31,1.77,1.57,3.38,3.3,5.01,5.01,2.06,2.17,3.03,4.79,3.06,7.76.02,2.61-.39,5.16-1.2,7.62-.96,2.95-2.71,5.39-5.08,7.4-.34.29-.69.57-1.05.83-.3.22-.34.44-.21.79.63,1.69.91,3.44.8,5.24-.07,1.2-.25,2.39-.52,3.57-.15.66-.44,1.26-.83,1.81-.26.36-.54.71-.83,1.05-.28.33-.41.64-.17,1.07.33.59.47,1.24.48,1.92.02,1.03-.38,1.9-.91,2.74-.14.22-.36.24-.58.26-1.06.12-2.13.2-3.19.35-1.72.24-3.43.54-5.15.76-3.31.42-6.6,1.04-9.95,1.17-.8.03-1.6.12-2.4.21-.91.09-1.79.08-2.54-.54-.26-.21-.57-.25-.87-.32-.3-.07-.61-.11-.92-.18-.18-.04-.34-.14-.34-.35,0-.23.18-.28.35-.31.13-.02.27,0,.4,0,.22.01.44.03.8.06Z"/>
          <path class="cls-14" d="m256.37,42.81c-.22,0-.46.07-.66,0-1.18-.44-2.44-.48-3.66-.74-.26-.06-.53-.09-.79-.15-1.34-.35-1.42-.42-1.93-1.72-.31-.78-.49-.91-1.25-.86-.6.04-1.12.28-1.59.63-.13.1-.28.26-.31.41-.18,1-.44,2-.32,3.04.1.87.43,1.63,1.02,2.28.6.66,1.28,1.24,2.08,1.65.32.16.63.33.95.48,1.96.96,3.92,1.91,5.77,3.09.41.26.81.56,1.39.47.19-.51.13-1.02-.05-1.53-.13-.38-.26-.76-.37-1.14-.05-.18-.01-.37.16-.46.19-.09.35,0,.45.17.09.15.16.32.21.48.31.98.62,1.95.92,2.93.05.17.12.36.09.52-.23,1.36.24,2.64.44,3.94.38,2.46.96,4.89,1.32,7.36.2,1.35.16,2.66-.17,3.97-.08.3-.16.59-.4.83-.54.53-.51,1.19-.42,1.87.05.44.29.73.64.96.17.11.24.29.13.45-.15.22-.37.21-.59.1-.52-.26-.81-.7-.92-1.24-.16-.85-.15-1.71.34-2.46.62-.94.75-1.98.71-3.06-.07-1.52-.37-3.01-.66-4.49-.44-2.27-.87-4.55-1.23-6.84-.07-.48-.2-.96-.31-1.47-.44-.04-.89.06-1.28-.23-.21-.16-.48-.24-.7-.39-1.95-1.26-4.04-2.26-6.12-3.27-1.05-.51-2.01-1.13-2.82-1.99-.9-.95-1.35-2.06-1.4-3.37-.03-.99.29-1.93.34-2.91,0-.12.1-.25.19-.34.85-.89,1.86-1.38,3.11-1.22.75.1,1.32.48,1.34,1.25.02.83.51,1.2,1.24,1.32.87.15,1.73.43,2.68.33.01-.55-.4-.89-.58-1.32-.12-.29-.32-.54-.24-.88.02-.08.08-.17.15-.2.07-.03.18-.02.26.01.08.03.15.1.19.17.09.15.17.31.25.47.54,1.09,1.27,2.02,2.35,2.63,0,.15.02.29.03.44Z"/>
          <path class="cls-14" d="m249.96,25.19c.19.17.36.42.68.29.39-.15.74-.36.85-.78.13-.47.22-.95.3-1.43.08-.44.12-.88.19-1.32.31-2.03,1.4-3.51,3.14-4.55.38-.23.77-.43,1.14-.63.12-1.13.21-2.24.35-3.34.16-1.29.51-2.53,1.08-3.7.44-.89.74-1.04,1.7-.86,1.06.19,1.93.76,2.52,1.61.25.36.52.56.87.73,2.69,1.27,4.73,3.29,6.49,5.64.08.1.14.23.17.36.03.13,0,.26-.13.35-.12.08-.26.12-.36.02-.19-.18-.39-.37-.54-.58-1.04-1.47-2.41-2.63-3.78-3.76-1.15-.95-2.5-1.52-3.96-1.84-.56-.12-.78.03-.74.58.07.98.19,1.95.31,2.92.08.66.22,1.31.32,1.97.02.13-.06.25-.21.3-.14.05-.29,0-.35-.1-.11-.19-.21-.39-.25-.6-.29-1.49-.55-2.98-.62-4.5,0-.13-.01-.27,0-.4.05-.75.23-.92,1.07-1.06.09-.01.17-.02.26-.04.04,0,.07-.04.13-.07-.31-.44-.78-.58-1.25-.69-.52-.13-.74-.04-.96.45-.66,1.43-.99,2.95-1.17,4.51-.05.48-.05.97-.08,1.53.55.05.98-.19,1.43-.28.16-.03.36-.09.43.14.06.19-.03.38-.17.48-.22.15-.47.26-.72.34-.9.29-1.72.73-2.54,1.18-1.67.9-2.54,2.34-2.7,4.19-.08.89-.43,1.7-.59,2.57-.1.54-.45.96-.96,1.22-.2.1-.39.22-.63.35.28.65.15,1.2-.35,1.7-.28.28-.47.65-.71.96-.27.35-.8.26-.96-.17-.22-.58-.2-1.13.24-1.62.09-.1.19-.19.29-.28.46-.38.59-.86.46-1.43l.3-.31Z"/>
          <path class="cls-14" d="m269.51,59.7c-.21.54-.38,1.1-.65,1.61-.29.54-.13.92.22,1.32.71.82,1.53,1.48,2.53,1.92,1.51.66,3.01,1.33,4.52,1.99.27.12.64.15.6.58-.02.28-.37.36-.89.15-1.69-.69-3.38-1.37-5-2.22-.76-.4-1.41-.93-1.99-1.56-.18-.19-.32-.43-.66-.52-.22.53-.43,1.07-.66,1.59-.47,1.05-.86,2.13-1.51,3.11-.56.84-.91,1.83-1.34,2.75-.1.2-.18.42-.47.35-.23-.06-.31-.36-.19-.68.06-.17.13-.33.21-.49,1.05-1.92,1.74-3.99,2.49-6.04.37-1.01.94-1.89,1.4-2.85.18-.38.27-.87.76-1.04.21.01.42.02.62.03Z"/>
          <path class="cls-14" d="m257.37,39.13s-.05.09-.08.1c-.08.02-.2.06-.24.02-.16-.14-.33-.3-.45-.48-1.42-2.2-3.11-4.22-4.43-6.49-.36-.62-.83-1.15-1.32-1.67-.14-.15-.38-.34-.12-.53.22-.16.41.05.56.21.28.29.57.57.8.89,1.72,2.48,3.42,4.97,5.13,7.46.1.15.2.29.15.49Z"/>
          <path class="cls-14" d="m252.34,38.21c-.03.15-.04.28-.2.32-.16.04-.28-.03-.33-.15-.1-.24-.2-.5-.22-.76-.02-.33-.13-.58-.32-.84-.32-.43-.57-.89-.43-1.46.07-.3-.1-.5-.32-.67-1.07-.87-1.34-2.15-1.69-3.38-.03-.11,0-.26.05-.38.03-.07.13-.13.2-.14.08-.01.2,0,.24.06.1.14.19.29.25.45.17.46.3.93.48,1.38.13.32.27.68.51.92.83.82,1.14,1.84,1.27,2.94.03.23.11.4.24.59.22.34.24.75.26,1.13Z"/>
          <path class="cls-14" d="m270.29,58.36c.3-.15.17-.34.05-.53-.1-.17-.11-.36.03-.48.14-.13.33-.07.49,0,.12.06.24.12.35.17.15-.15.1-.32.09-.49-.02-.33.06-.58.37-.79.38-.26.43-.97,1.15-.8.2.05.44-.06.66-.06.18,0,.35.04.38.28.02.2-.09.35-.24.44-.32.18-.69.13-1.04.14-.2,0-.46-.08-.49.26-.02.23.01.45.21.59.1.08.24.12.36.16.24.07.4.19.33.46-.07.26-.29.34-.65.26-.24-.06-.45-.28-.74-.16-.14.22.08.42.04.63-.02.12-.07.29-.15.34-.09.05-.27.02-.36-.05-.2-.16-.36-.38-.56-.54-.15-.11-.21.07-.29.16,0,0,.01.01.01.01Z"/>
          <path class="cls-14" d="m249.96,25.19l-.3.31c-.35-.3-.45-.75-.66-1.13-.77-1.44-1.53-2.88-2.29-4.33-.09-.17-.12-.34.07-.44.18-.09.34.02.46.15.06.06.11.14.15.22.89,1.72,1.85,3.41,2.57,5.22Z"/>
          <path class="cls-14" d="m257.26,31.49c-.06.05-.12.12-.19.14-.08.02-.18.02-.26-.01-1.44-.54-2.88-1.08-4.32-1.63-.13-.05-.2-.17-.14-.32.05-.13.17-.18.31-.18.04,0,.09,0,.13.01,1.4.52,2.8,1.04,4.2,1.57.17.06.28.21.27.41Z"/>
          <path class="cls-14" d="m281.55,68.15c-.76-.14-1.49-.06-2.12-.45-.09-.06-.19-.22-.18-.32.02-.18.18-.29.38-.27.17.02.35.05.52.09.83.2,1.65.27,2.48,0,.21-.07.46-.04.5.25.04.25-.14.43-.36.48-.43.1-.86.15-1.23.22Z"/>
          <path class="cls-14" d="m261.32,72.53c-.23-.02-.34,0-.4-.05-.1-.07-.2-.17-.23-.28-.06-.18.01-.4.18-.43.82-.14,1.64-.25,2.47-.36.14-.02.26.08.28.22.01.12,0,.27-.06.37-.06.1-.19.21-.3.23-.69.12-1.38.22-1.93.3Z"/>
          <path class="cls-14" d="m256.29,25.87c-.04.14-.06.27-.11.39-.1.23-.29.33-.53.25-.69-.24-.85-1.11-.31-1.6.2-.18.71-.07.8.2.08.25.11.51.16.76Z"/>
          <path class="cls-14" d="m256.37,42.81c0-.15-.02-.29-.03-.44.51.13.96.35,1.36.71.15.14.29.33.54.31l-.02-.02c-.35.65-.46.69-.93.35-.36-.25-.7-.52-.92-.92Z"/>
          <path class="cls-14" d="m269.51,59.7c-.21-.01-.42-.02-.62-.03.07-.2.15-.41.22-.61.19-.59.65-.71,1.19-.69,0,0-.01-.01-.01-.01-.13.05-.17.14-.2.27-.07.42-.25.79-.58,1.08Z"/>
          <path class="cls-14" d="m258.25,43.4c.18-.14.05-.32.08-.48.03-.21.19-.35.36-.31.32.09.73.07.86.5.08.26-.32.36-.98.2-.14-.03-.24-.05-.33.07l.02.02Z"/>
          <path class="cls-14" d="m284.88,67.55c-.02.08-.02.18-.07.23-.24.27-.66.26-.89-.03-.04-.06-.06-.16-.04-.23.04-.19.19-.28.37-.29.27-.03.51.04.63.32Z"/>
          <path class="cls-14" d="m273.62,54.39c-.23,0-.38-.07-.44-.25-.07-.19.1-.38.37-.39.21,0,.43,0,.46.28.01.19-.2.35-.38.35Z"/>
        </g>
      </g>
      <g>
        <g>
          <path class="cls-10" d="m207.33,22.37h-20.29l-4.27,16.2c-.09.33-.13.68-.13,1.02v24.09h29.09v-24.09c0-.34-.04-.69-.13-1.02l-4.27-16.2Z"/>
          <path class="cls-19" d="m207.47,22.17h-20.29c-.15,0-.46.07-.5.25-1.42,5.38-3.02,10.74-4.25,16.16-.42,1.83-.14,3.94-.14,5.8v19.4c0,.09.17.1.22.1h29.09c.17,0,.5-.08.5-.3v-17.92c0-2.15.18-4.38-.01-6.52-.08-.89-.41-1.79-.64-2.65l-1.33-5.05c-.81-3.06-1.61-6.12-2.42-9.18-.06-.25-.79-.05-.72.19,1.41,5.37,3.01,10.72,4.25,16.13.43,1.89.15,4.07.15,5.99v19.2l.5-.3h-26.67c-.67,0-1.48-.13-2.14,0-.41.08-.09-.14-.05.1-.02-.11-.02-.28,0-.39.15-.81,0-1.79,0-2.61v-18.26c0-1.36-.13-2.77.21-4.09,1.34-5.32,2.79-10.61,4.19-15.91l-.5.25h20.29c.27,0,.77-.4.28-.4Z"/>
        </g>
        <g>
          <rect class="cls-12" x="186.38" y="46.53" width="21.59" height="15.06"/>
          <path class="cls-19" d="m208.12,61.39h-19.87c-.39,0-1.36.19-1.72,0,.35.18.22-.16.22-.45v-14.51l-.51.29h19.87c.39,0,1.36-.19,1.72,0-.35-.18-.22.16-.22.45v14.51c0,.21.72.08.72-.19v-15.06c0-.08-.17-.1-.22-.1h-21.59c-.17,0-.51.08-.51.29v15.06c0,.08.17.1.22.1h21.59c.26,0,.77-.39.29-.39Z"/>
        </g>
        <g>
          <rect class="cls-20" x="187" y="19.13" width="20.33" height="3.24"/>
          <path class="cls-19" d="m207.56,22.22h-19.76c-.12,0-.36.05-.47,0-.02,0-.08.01-.09,0,.18.16.11-.17.13-.25.18-.9,0-2.01,0-2.94l-.6.25h19.76c.12,0,.36-.05.47,0,.02,0,.08-.01.09,0-.18-.16-.11.17-.13.25-.18.9,0,2.01,0,2.94,0,.12.72.02.72-.19v-3.24s-.11-.05-.13-.05h-20.33c-.13,0-.6.05-.6.25v3.24s.11.05.13.05c5.94,0,11.87,0,17.81,0h2.52c.16,0,.82-.3.47-.3Z"/>
        </g>
        <g>
          <path class="cls-13" d="m184.49,38.39l-.59-.25c3.67-8.23,3.2-14.92,3.2-14.98l.64-.05c0,.07.49,6.9-3.25,15.28Z"/>
          <path class="cls-19" d="m184.7,38.14l-.59-.25.14.3c1.48-3.35,2.52-6.9,2.99-10.53.19-1.48.34-3.02.23-4.52l-.4.3.64-.05-.34-.25c.11,1.47-.03,2.98-.21,4.43-.46,3.72-1.51,7.35-3.02,10.77-.17.39.56.4.7.1,1.51-3.41,2.56-7.03,3.04-10.74.19-1.51.35-3.09.23-4.61-.01-.18-.16-.27-.34-.25l-.64.05c-.14.01-.41.12-.4.3.1,1.44-.03,2.91-.21,4.34-.45,3.65-1.48,7.21-2.97,10.57-.06.13.02.25.14.3l.59.25c.32.14.84-.32.41-.51Z"/>
        </g>
        <g>
          <path class="cls-13" d="m198.2,42.95c-1.54,0-3.28-.06-5.25-.2l.05-.62c12.25.89,15.49-1.37,16.22-2.13-.61-.23-2.23-.59-5.44.19-4.71,1.15-10.51,1.15-14.42,0l.18-.6c3.81,1.12,9.47,1.12,14.08,0,4.59-1.12,6.2,0,6.27.05l.2.15-.1.22c-.06.14-1.41,2.95-11.79,2.95Z"/>
          <path class="cls-19" d="m198.23,42.69c-1.72,0-3.44-.08-5.16-.2l.24.23.05-.62-.49.29c4.19.29,8.58.47,12.7-.48,1.36-.31,2.94-.77,3.94-1.81.12-.12.06-.29-.09-.34-2.82-1.01-6.06.4-8.87.76-2.13.27-4.28.34-6.42.19-.93-.07-1.85-.18-2.76-.34-.37-.07-1.22-.1-1.53-.35l-.1.07.07-.24s.08-.27.09-.3l-.58.27c2.98.85,6.15.99,9.22.78,1.67-.12,3.33-.36,4.96-.74,1.48-.34,3.01-.64,4.54-.47.41.05,1.2.1,1.52.43.12.12.09.12-.02.28-.5.72-1.47,1.13-2.26,1.42-2.85,1.06-6.06,1.16-9.07,1.17-.41,0-.56.52-.07.52,3.33-.01,7.06-.11,10.14-1.56.86-.4,1.74-.94,2.12-1.84.04-.1.02-.18-.07-.24-1.74-1.27-4.51-.75-6.43-.32-4.62,1.03-9.57,1.41-14.19.1-.23-.06-.5.03-.58.27l-.18.6c-.03.1.08.19.16.21,3.43.97,7.11,1.07,10.64.7,1.95-.21,3.82-.75,5.76-1.02,1.13-.16,2.37-.25,3.46.14l-.09-.34c-.9.93-2.42,1.3-3.63,1.56-3.95.87-8.15.7-12.16.41-.17-.01-.48.07-.49.29l-.05.62c-.01.13.12.22.24.23,1.78.12,3.56.2,5.34.21.41,0,.56-.52.07-.52Z"/>
        </g>
      </g>
      <g>
        <g>
          <polygon class="cls-18" points="195.47 66.99 176.31 66.4 176.49 47.89 195.65 48.48 195.47 66.99"/>
          <path class="cls-19" d="m195.6,66.74c-5.59-.17-11.17-.34-16.76-.51l-2.4-.07.23.21c.05-5.39.1-10.78.15-16.17,0-.78.01-1.56.02-2.34l-.5.28c5.59.17,11.17.34,16.76.51l2.4.07-.23-.21c-.05,5.39-.1,10.78-.15,16.17,0,.78-.01,1.56-.02,2.34,0,.35.73.23.73-.07.05-5.39.1-10.78.15-16.17,0-.78.01-1.56.02-2.34,0-.13-.11-.21-.23-.21-5.59-.17-11.17-.34-16.76-.51l-2.4-.07c-.15,0-.49.07-.5.28-.05,5.39-.1,10.78-.15,16.17,0,.78-.01,1.56-.02,2.34,0,.13.11.21.23.21,5.59.17,11.17.34,16.76.51l2.4.07c.33,0,.75-.47.26-.49Z"/>
        </g>
        <g>
          <path class="cls-18" d="m195.73,62.82l-.08-10.02,2.1.1c1.29.06,2.5.64,3.42,1.63.92.99,1.43,2.27,1.44,3.61.02,2.76-2.12,4.91-4.77,4.78l-2.1-.1Zm.84-9.03l.06,8.13,1.19.06c2.15.11,3.89-1.63,3.87-3.87-.02-2.24-1.78-4.15-3.94-4.25l-1.19-.06Z"/>
          <g>
            <path class="cls-19" d="m196.02,62.74c-.02-2.92-.05-5.84-.07-8.77,0-.42,0-.84-.01-1.26l-.41.22c.7.03,1.4.06,2.09.1,1.74.12,3.28,1.21,4.08,2.74.73,1.4.82,3.11.16,4.55s-1.96,2.38-3.5,2.45c-.83.04-1.68-.06-2.51-.1-.19,0-.62.27-.24.29.87.04,1.77.15,2.65.1,1.42-.09,2.79-.79,3.65-1.94,2.17-2.89.5-7.29-2.94-8.2-1.02-.27-2.15-.22-3.2-.27-.12,0-.41.07-.41.22.02,2.92.05,5.84.07,8.77,0,.42,0,.84.01,1.26,0,.14.58.05.58-.16Z"/>
            <path class="cls-19" d="m196.28,53.87c.02,2.37.04,4.74.06,7.11,0,.34,0,.68,0,1.02,0,.07.14.07.17.07.77.04,1.56.13,2.32-.05,1.08-.25,2.05-.93,2.6-1.89,1.24-2.15.21-5.01-2.01-6.04-.87-.4-1.81-.39-2.75-.43-.19,0-.62.27-.24.29.66.03,1.36.01,2,.21,1.05.32,1.94,1.09,2.45,2.06,1,1.91.43,4.67-1.75,5.46-.76.28-1.61.15-2.4.11l.17.07c-.02-2.37-.04-4.74-.06-7.11,0-.34,0-.68,0-1.02,0-.14-.58-.05-.58.16Z"/>
          </g>
        </g>
        <g>
          <path class="cls-15" d="m195.65,48.48c-.01,1.05-4.31,1.77-9.6,1.61-5.29-.16-9.57-1.14-9.56-2.19.01-1.05,4.31-1.77,9.6-1.61,5.29.16,9.57,1.14,9.56,2.19Z"/>
          <path class="cls-19" d="m195.29,48.52c-.07.68-1.61.86-2.11.95-1.48.28-3,.38-4.5.41-3.16.07-6.45-.07-9.53-.85-.53-.13-2.02-.4-2.25-1.05-.24-.69,1.23-.92,1.66-1.02,3.08-.69,6.41-.6,9.53-.37,1.64.12,3.29.32,4.89.72.56.14,2.23.45,2.3,1.24.02.24.75.09.72-.19-.06-.71-1.21-1.03-1.74-1.21-1.57-.51-3.24-.73-4.88-.89-3.66-.37-7.74-.54-11.32.42-.56.15-1.71.42-1.91,1.09s.82,1.07,1.29,1.25c1.45.56,3.04.78,4.58.96,2.11.25,4.25.34,6.38.29,1.83-.04,3.7-.15,5.48-.59.62-.15,2.04-.46,2.13-1.29.03-.29-.7-.16-.73.09Z"/>
        </g>
        <path class="cls-15" d="m176.84,51.35c-.06-.11,0,.12,0,0v-.92c.01.1.36.54,2.44,1.02,1.78.41,4.16.68,6.7.75,2.54.08,4.92-.05,6.71-.34,2.1-.35,2.53-.81,2.53-.91l-.02,1.03q-.29.24-2.38.59c-1.83.31-4.27.43-6.85.35-3.2-.1-7.64-.59-9.14-1.57Z"/>
        <g>
          <path class="cls-18" d="m195.47,66.99c0,1.05-4.31,1.77-9.6,1.61-5.29-.16-9.57-1.14-9.56-2.19.01-1.05,4.31-1.77,9.6-1.61,5.29.16,9.57,1.14,9.56,2.19Z"/>
          <path class="cls-19" d="m195.11,67.09c-.08.79-1.82.95-2.39,1.04-1.59.27-3.21.34-4.81.35-3.05.02-6.24-.13-9.19-.95-.5-.14-1.85-.44-2.02-1.08-.21-.78,1.43-1.01,1.89-1.1,3.19-.64,6.62-.55,9.84-.25,1.55.14,3.12.35,4.62.76.55.15,1.98.47,2.05,1.22,0,.11.74-.02.72-.19-.06-.73-1.32-1.04-1.86-1.2-1.76-.54-3.62-.75-5.45-.9-3.48-.28-7.31-.41-10.71.54-.5.14-1.69.41-1.84,1.04-.18.73,1.13,1.11,1.6,1.26,3.5,1.17,7.57,1.24,11.22,1.1,1.7-.07,3.43-.19,5.08-.63.58-.15,1.88-.44,1.96-1.2,0-.07-.7,0-.72.19Z"/>
        </g>
      </g>
      <g>
        <path class="cls-7" d="m154.48,24.91c.02,1.66-.14,3.31-.48,4.93-.16.78-.37,1.55-.61,2.31-.03.08-.06.17-.09.25-.03-.05-.06-.1-.09-.15-.29-.57-.53-1.16-.72-1.78-.38-1.27-.53-2.62-.4-3.95.09-.95-1.92-.19-2.19.19-2.04,2.85-3.29,6.19-4.51,9.5-.18.49.75.45.96.42.43-.07,1.13-.27,1.31-.77.71-1.93,1.43-3.87,2.32-5.72.12.6.27,1.19.49,1.76.28.73.65,1.42,1.08,2.06.21.31.43.71.77.87.47.23,1.14.09,1.59-.1.87-.37,1.13-1.19,1.44-2.06.32-.88.59-1.77.8-2.69.44-1.88.62-3.81.6-5.74,0-.63-2.29-.2-2.28.65Z"/>
        <g>
          <path class="cls-7" d="m161.47,27.73s0,0,0,0c0,.01-.04.03-.07.06.01,0,.06-.03.07-.06Z"/>
          <path class="cls-7" d="m165.18,26.84c-.61-.43-1.35-.75-2.09-.77-.97-.02-1.96.35-2.79.86-.52.32-1.19.78-1.48,1.37-.92,1.1-1.07,2.84-.15,3.99.34.42.86.62,1.36.71.93.18,1.95.21,2.84-.14.78-.31,1.49-.96,2.02-1.63.49-.63.99-1.42,1.11-2.24.12-.85-.12-1.66-.81-2.14Zm-3.26,5.14s.05-.04.09-.06c-.04.02-.08.03-.09.06Zm1.18-1.24c-.09.14-.18.27-.28.4-.04.06-.09.12-.14.17-.02.02-.03.04-.04.05-.01.01-.02.02-.05.04-.11.11-.21.21-.33.31-.04.03-.07.06-.11.09-.01,0-.02,0-.03,0-.12,0-.24,0-.36-.02-.08-.01-.16-.02-.24-.03-.09-.01-.18-.04-.26-.06-.03-.01-.06-.02-.09-.04-.07-.03-.28-.19-.12-.05-.07-.06-.13-.11-.2-.18-.06-.07-.12-.15-.17-.23-.02-.03-.04-.06-.05-.09.07.13-.04-.08-.05-.1-.14-.29-.22-.61-.25-.94-.05-.68.2-1.29.6-1.76.04-.07.08-.14.13-.2,0,0,.02-.03.03-.04,0,0,0,0,.02-.01.07-.07.14-.13.21-.2,0,0,.04-.03.07-.05,0,0,0-.01.07-.06,0,0,0,0,0,0,0,0,0,0,0,0,0,0,0,0,0,0,.09-.06.19-.13.29-.18,0,0,.02-.01.03-.02.05-.02.1-.05.15-.07.04-.02.08-.03.12-.05.03,0,.06-.02.09-.02,0,0,0,0,.01,0,0,0,.02,0,.03,0,.01,0,.03,0,.04,0,.27.12.55.23.81.37.19.11.32.19.48.42.15.21.23.58.23.87,0,.64-.3,1.18-.63,1.68Z"/>
        </g>
      </g>
      <g>
        <path class="cls-7" d="m169.1,22.83c-.48,1.89-.81,3.81-1,5.75-.11,1.14,2.11.86,2.21-.15.19-1.94.52-3.86,1-5.75.05-.21-.12-.45-.27-.56-.2-.14-.51-.2-.74-.18-.55.05-1.05.34-1.19.9h0Z"/>
        <path class="cls-7" d="m167.72,31.48l-.24,1.84c-.07.5.6.63.97.58.28-.04.59-.12.82-.29.17-.12.37-.29.4-.51l.24-1.84c.07-.5-.6-.63-.97-.58-.28.04-.59.12-.82.29-.17.12-.37.29-.4.51h0Z"/>
      </g>
      <g>
        <g>
          <path class="cls-9" d="m230.84,35.09c-1.81-.57-3.7-.28-5.34.62.83,1.67,2.23,2.98,4.04,3.54,1.81.57,3.7.29,5.34-.62-.83-1.67-2.23-2.98-4.04-3.54Z"/>
          <path class="cls-21" d="m229.54,39.25c1.81.57,3.7.29,5.34-.62l-9.38-2.92c.83,1.67,2.23,2.98,4.04,3.54Z"/>
        </g>
        <path class="cls-21" d="m239.11,36.48l-1.49-1.49c-.23-.23-.7-.1-.91.27-.44.77-1.29,2.05-2.74,3.5l-6.14,6.14c-.25.25-.3.61-.1.79l.5.48c.19.18.54.13.78-.11l5.36-5.36c1.4-1.4,3.4-2.67,4.47-3.31.36-.22.49-.68.26-.91Z"/>
        <g>
          <g>
            <g>
              <circle class="cls-16" cx="212.86" cy="66" r="3.43"/>
              <path class="cls-25" d="m214.75,64.24c.1-.4-.44-.88-1.2-1.07-.76-.19-1.45-.01-1.55.39-.1.4.44.88,1.2,1.07.76.19,1.45.01,1.55-.39Z"/>
              <path class="cls-17" d="m216.23,65.43c-.27.65-.74,1.21-1.38,1.6-1.62.98-3.72.46-4.7-1.15-.23-.38-.37-.79-.44-1.2-.41.98-.36,2.13.23,3.1.98,1.62,3.09,2.13,4.7,1.15,1.24-.75,1.83-2.16,1.6-3.51Z"/>
              <path class="cls-17" d="m216.27,66.3c-.27.65-.74,1.22-1.38,1.62-1.62.98-3.72.46-4.7-1.15-.39-.65-.54-1.37-.48-2.07-.4.97-.36,2.12.23,3.09.98,1.62,3.09,2.13,4.7,1.15.97-.59,1.54-1.58,1.63-2.63Z"/>
              <path class="cls-17" d="m215.79,64.23c-.98-1.62-3.09-2.13-4.7-1.15-1.62.98-2.13,3.09-1.15,4.7.98,1.62,3.09,2.13,4.7,1.15,1.62-.98,2.13-3.09,1.15-4.7Zm-5.64,3.42c-.91-1.5-.43-3.44,1.07-4.35,1.5-.91,3.44-.43,4.35,1.07.91,1.5.43,3.44-1.07,4.35-1.5.91-3.44.43-4.35-1.07Z"/>
            </g>
            <g>
              <path class="cls-16" d="m208.97,62.84c-1.62.98-3.72.46-4.7-1.15-.98-1.62-.46-3.72,1.15-4.7,1.62-.98,3.72-.46,4.7,1.15.98,1.62.46,3.72-1.15,4.7Z"/>
              <path class="cls-25" d="m209.08,58.15c.1-.4-.44-.88-1.2-1.07s-1.45-.01-1.55.39c-.1.4.44.88,1.2,1.07.76.19,1.45.01,1.55-.39Z"/>
              <path class="cls-17" d="m210.57,59.33c-.27.64-.74,1.21-1.38,1.6-1.62.98-3.72.46-4.7-1.15-.23-.38-.37-.79-.44-1.2-.41.98-.36,2.13.23,3.1.98,1.62,3.09,2.13,4.7,1.15,1.24-.75,1.83-2.16,1.6-3.51Z"/>
              <path class="cls-17" d="m210.6,60.21c-.27.65-.74,1.22-1.38,1.62-1.62.98-3.72.46-4.7-1.15-.39-.65-.54-1.37-.48-2.07-.4.97-.36,2.12.23,3.09.98,1.62,3.09,2.13,4.7,1.15.97-.59,1.54-1.58,1.63-2.63Z"/>
              <path class="cls-17" d="m210.13,58.14c-.98-1.62-3.09-2.13-4.7-1.15-1.62.98-2.13,3.09-1.15,4.7.98,1.62,3.09,2.13,4.7,1.15,1.62-.98,2.13-3.09,1.15-4.7Zm-5.64,3.42c-.91-1.5-.43-3.44,1.07-4.35,1.5-.91,3.44-.43,4.35,1.07.91,1.5.43,3.44-1.07,4.35-1.5.91-3.44.43-4.35-1.07Z"/>
            </g>
            <g>
              <circle class="cls-16" cx="219.7" cy="64.03" r="4.69" transform="translate(105.01 262.06) rotate(-76.17)"/>
              <path class="cls-25" d="m222.29,61.62c.14-.55-.6-1.21-1.64-1.46s-1.99-.01-2.13.54.6,1.21,1.64,1.46c1.04.26,1.99.01,2.13-.54Z"/>
              <path class="cls-17" d="m224.32,63.24c-.37.88-1.01,1.66-1.89,2.2-2.22,1.34-5.1.64-6.44-1.58-.32-.52-.51-1.08-.61-1.64-.56,1.34-.5,2.91.31,4.25,1.34,2.22,4.23,2.92,6.44,1.58,1.7-1.03,2.5-2.96,2.19-4.8Z"/>
              <path class="cls-17" d="m224.37,64.44c-.37.89-1.01,1.68-1.9,2.21-2.22,1.34-5.1.64-6.44-1.58-.54-.89-.74-1.88-.66-2.84-.55,1.33-.49,2.9.32,4.23,1.34,2.22,4.23,2.92,6.44,1.58,1.33-.81,2.11-2.17,2.24-3.61Z"/>
              <path class="cls-17" d="m223.72,61.6c-1.34-2.22-4.23-2.92-6.44-1.58s-2.92,4.23-1.58,6.44c1.34,2.22,4.23,2.92,6.44,1.58,2.22-1.34,2.92-4.23,1.58-6.44Zm-7.72,4.68c-1.24-2.05-.59-4.72,1.46-5.96,2.05-1.24,4.72-.59,5.96,1.46,1.24,2.05.59,4.72-1.46,5.96-2.05,1.24-4.72.59-5.96-1.46Z"/>
            </g>
            <g>
              <path class="cls-16" d="m226.01,60.33c-1.83,1.11-4.22.53-5.33-1.31s-.53-4.22,1.31-5.33c1.83-1.11,4.22-.53,5.33,1.31,1.11,1.83.53,4.22-1.31,5.33Z"/>
              <path class="cls-25" d="m226.14,55.01c.11-.46-.49-1-1.35-1.21-.86-.21-1.65-.01-1.76.44s.49,1,1.35,1.21c.86.21,1.65.01,1.76-.44Z"/>
              <path class="cls-17" d="m227.83,56.35c-.31.73-.83,1.38-1.56,1.82-1.83,1.11-4.22.53-5.33-1.31-.26-.43-.42-.89-.5-1.36-.46,1.11-.41,2.41.26,3.51,1.11,1.83,3.5,2.42,5.33,1.31,1.4-.85,2.07-2.45,1.81-3.97Z"/>
              <path class="cls-17" d="m227.87,57.34c-.31.74-.83,1.39-1.57,1.83-1.83,1.11-4.22.53-5.33-1.31-.44-.73-.61-1.55-.54-2.35-.46,1.1-.41,2.4.26,3.5,1.11,1.83,3.5,2.42,5.33,1.31,1.1-.67,1.75-1.79,1.85-2.98Z"/>
              <path class="cls-17" d="m227.32,55c-1.11-1.83-3.5-2.42-5.33-1.31-1.83,1.11-2.42,3.5-1.31,5.33,1.11,1.83,3.5,2.42,5.33,1.31,1.83-1.11,2.42-3.5,1.31-5.33Zm-6.39,3.87c-1.03-1.69-.49-3.9,1.21-4.93,1.69-1.03,3.9-.49,4.93,1.21,1.03,1.69.49,3.9-1.21,4.93s-3.9.49-4.93-1.21Z"/>
            </g>
            <g>
              <path class="cls-16" d="m224.15,49.79c-1.83,1.11-4.22.53-5.33-1.31-1.11-1.83-.53-4.22,1.31-5.33,1.83-1.11,4.22-.53,5.33,1.31,1.11,1.83.53,4.22-1.31,5.33Z"/>
              <path class="cls-25" d="m224.28,44.48c.11-.46-.49-1-1.35-1.21-.86-.21-1.65-.01-1.76.44-.11.46.49,1,1.35,1.21.86.21,1.65.01,1.76-.44Z"/>
              <path class="cls-17" d="m225.96,45.82c-.31.73-.83,1.38-1.56,1.82-1.83,1.11-4.22.53-5.33-1.31-.26-.43-.42-.89-.5-1.36-.46,1.11-.41,2.41.26,3.51,1.11,1.83,3.5,2.42,5.33,1.31,1.4-.85,2.07-2.45,1.81-3.97Z"/>
              <path class="cls-17" d="m226,46.81c-.31.74-.83,1.39-1.57,1.83-1.83,1.11-4.22.53-5.33-1.31-.44-.73-.61-1.55-.54-2.35-.46,1.1-.41,2.4.26,3.5,1.11,1.83,3.5,2.42,5.33,1.31,1.1-.67,1.75-1.79,1.85-2.98Z"/>
              <path class="cls-17" d="m225.46,44.46c-1.11-1.83-3.5-2.42-5.33-1.31-1.83,1.11-2.42,3.5-1.31,5.33,1.11,1.83,3.5,2.42,5.33,1.31,1.83-1.11,2.42-3.5,1.31-5.33Zm-6.39,3.87c-1.03-1.69-.49-3.9,1.21-4.93,1.69-1.03,3.9-.49,4.93,1.21,1.03,1.69.49,3.9-1.21,4.93-1.69,1.03-3.9.49-4.93-1.21Z"/>
            </g>
            <g>
              <path class="cls-16" d="m214.4,48.86c-1.83,1.11-4.22.53-5.33-1.31-1.11-1.83-.53-4.22,1.31-5.33,1.83-1.11,4.22-.53,5.33,1.31,1.11,1.83.53,4.22-1.31,5.33Z"/>
              <path class="cls-25" d="m214.53,43.55c.11-.46-.49-1-1.35-1.21-.86-.21-1.65-.01-1.76.44-.11.46.49,1,1.35,1.21.86.21,1.65.01,1.76-.44Z"/>
              <path class="cls-17" d="m216.22,44.89c-.31.73-.83,1.38-1.56,1.82-1.83,1.11-4.22.53-5.33-1.31-.26-.43-.42-.89-.5-1.36-.46,1.11-.41,2.41.26,3.51,1.11,1.83,3.5,2.42,5.33,1.31,1.4-.85,2.07-2.45,1.81-3.97Z"/>
              <path class="cls-17" d="m216.25,45.88c-.31.74-.83,1.39-1.57,1.83-1.83,1.11-4.22.53-5.33-1.31-.44-.73-.61-1.55-.54-2.35-.46,1.1-.41,2.4.26,3.5,1.11,1.83,3.5,2.42,5.33,1.31,1.1-.67,1.75-1.79,1.85-2.98Z"/>
              <path class="cls-17" d="m215.71,43.53c-1.11-1.83-3.5-2.42-5.33-1.31-1.83,1.11-2.42,3.5-1.31,5.33,1.11,1.83,3.5,2.42,5.33,1.31,1.83-1.11,2.42-3.5,1.31-5.33Zm-6.39,3.87c-1.03-1.69-.49-3.9,1.21-4.93,1.69-1.03,3.9-.49,4.93,1.21s.49,3.9-1.21,4.93c-1.69,1.03-3.9.49-4.93-1.21Z"/>
            </g>
            <g>
              <circle class="cls-16" cx="218.85" cy="41.66" r="4.78" transform="translate(159 256.25) rotate(-85.19)"/>
              <path class="cls-25" d="m221.49,39.21c.14-.56-.61-1.23-1.67-1.49s-2.03-.01-2.17.55c-.14.56.61,1.23,1.67,1.49,1.06.26,2.03.01,2.17-.55Z"/>
              <path class="cls-17" d="m223.56,40.86c-.38.9-1.03,1.69-1.92,2.24-2.26,1.37-5.19.65-6.56-1.61-.32-.53-.52-1.1-.62-1.67-.57,1.36-.51,2.97.32,4.32,1.37,2.26,4.31,2.98,6.56,1.61,1.73-1.05,2.55-3.01,2.23-4.89Z"/>
              <path class="cls-17" d="m223.61,42.07c-.38.91-1.03,1.71-1.93,2.25-2.26,1.37-5.19.65-6.56-1.61-.55-.9-.75-1.91-.67-2.89-.56,1.36-.5,2.96.32,4.31,1.37,2.26,4.31,2.98,6.56,1.61,1.35-.82,2.15-2.21,2.28-3.67Z"/>
              <path class="cls-17" d="m222.94,39.18c-1.37-2.26-4.31-2.98-6.56-1.61-2.26,1.37-2.98,4.31-1.61,6.56,1.37,2.26,4.31,2.98,6.56,1.61,2.26-1.37,2.98-4.31,1.61-6.56Zm-7.86,4.77c-1.26-2.09-.6-4.8,1.49-6.07,2.09-1.26,4.8-.6,6.07,1.49,1.26,2.09.6,4.8-1.49,6.07-2.09,1.26-4.8.6-6.07-1.49Z"/>
            </g>
            <g>
              <path class="cls-16" d="m229.44,53.12c-2.26,1.37-5.19.65-6.56-1.61s-.65-5.19,1.61-6.56c2.26-1.37,5.19-.65,6.56,1.61,1.37,2.26.65,5.19-1.61,6.56Z"/>
              <path class="cls-25" d="m229.6,46.58c.14-.56-.61-1.23-1.67-1.49-1.06-.26-2.03-.01-2.17.55-.14.56.61,1.23,1.67,1.49,1.06.26,2.03.01,2.17-.55Z"/>
              <path class="cls-17" d="m231.67,48.23c-.38.9-1.03,1.69-1.92,2.24-2.26,1.37-5.19.65-6.56-1.61-.32-.53-.52-1.1-.62-1.67-.57,1.36-.51,2.97.32,4.32,1.37,2.26,4.31,2.98,6.56,1.61,1.73-1.05,2.55-3.01,2.23-4.89Z"/>
              <path class="cls-17" d="m231.72,49.45c-.38.91-1.03,1.71-1.93,2.25-2.26,1.37-5.19.65-6.56-1.61-.55-.9-.75-1.91-.67-2.89-.56,1.36-.5,2.96.32,4.31,1.37,2.26,4.31,2.98,6.56,1.61,1.35-.82,2.15-2.21,2.28-3.67Z"/>
              <path class="cls-17" d="m231.05,46.55c-1.37-2.26-4.31-2.98-6.56-1.61-2.26,1.37-2.98,4.31-1.61,6.56s4.31,2.98,6.56,1.61c2.26-1.37,2.98-4.31,1.61-6.56Zm-7.86,4.77c-1.26-2.09-.6-4.8,1.49-6.07,2.09-1.26,4.8-.6,6.07,1.49,1.26,2.09.6,4.8-1.49,6.07-2.09,1.26-4.8.6-6.07-1.49Z"/>
            </g>
            <g>
              <path class="cls-16" d="m235.53,58.06c-2.26,1.37-5.19.65-6.56-1.61-1.37-2.26-.65-5.19,1.61-6.56,2.26-1.37,5.19-.65,6.56,1.61,1.37,2.26.65,5.19-1.61,6.56Z"/>
              <path class="cls-25" d="m235.69,51.52c.14-.56-.61-1.23-1.67-1.49-1.06-.26-2.03-.01-2.17.55-.14.56.61,1.23,1.67,1.49,1.06.26,2.03.01,2.17-.55Z"/>
              <path class="cls-17" d="m237.76,53.17c-.38.9-1.03,1.69-1.92,2.24-2.26,1.37-5.19.65-6.56-1.61-.32-.53-.52-1.1-.62-1.67-.57,1.36-.51,2.97.32,4.32,1.37,2.26,4.31,2.98,6.56,1.61,1.73-1.05,2.55-3.01,2.23-4.89Z"/>
              <path class="cls-17" d="m237.81,54.39c-.38.91-1.03,1.71-1.93,2.25-2.26,1.37-5.19.65-6.56-1.61-.55-.9-.75-1.91-.67-2.89-.56,1.36-.5,2.96.32,4.31,1.37,2.26,4.31,2.98,6.56,1.61,1.35-.82,2.15-2.21,2.28-3.67Z"/>
              <path class="cls-17" d="m237.14,51.5c-1.37-2.26-4.31-2.98-6.56-1.61-2.26,1.37-2.98,4.31-1.61,6.56,1.37,2.26,4.31,2.98,6.56,1.61,2.26-1.37,2.98-4.31,1.61-6.56Zm-7.86,4.77c-1.26-2.09-.6-4.8,1.49-6.07,2.09-1.26,4.8-.6,6.07,1.49,1.26,2.09.6,4.8-1.49,6.07-2.09,1.26-4.8.6-6.07-1.49Z"/>
            </g>
          </g>
          <g>
            <g>
              <g>
                <g>
                  <circle class="cls-23" cx="234.03" cy="48.36" r="4.78" transform="translate(129.94 263.48) rotate(-75.85)"/>
                  <path class="cls-25" d="m236.67,45.91c.14-.56-.61-1.23-1.67-1.49s-2.03-.01-2.17.55c-.14.56.61,1.23,1.67,1.49s2.03.01,2.17-.55Z"/>
                  <path class="cls-24" d="m238.74,47.56c-.38.9-1.03,1.69-1.92,2.24-2.26,1.37-5.19.65-6.56-1.61-.32-.53-.52-1.1-.62-1.67-.57,1.36-.51,2.97.32,4.32,1.37,2.26,4.31,2.98,6.56,1.61,1.73-1.05,2.55-3.01,2.23-4.89Z"/>
                  <path class="cls-24" d="m238.79,48.78c-.38.91-1.03,1.71-1.93,2.25-2.26,1.37-5.19.65-6.56-1.61-.55-.9-.75-1.91-.67-2.89-.56,1.36-.5,2.96.32,4.31,1.37,2.26,4.31,2.98,6.56,1.61,1.35-.82,2.15-2.21,2.28-3.67Z"/>
                  <path class="cls-24" d="m238.12,45.89c-1.37-2.26-4.31-2.98-6.56-1.61-2.26,1.37-2.98,4.31-1.61,6.56,1.37,2.26,4.31,2.98,6.56,1.61,2.26-1.37,2.98-4.31,1.61-6.56Zm-7.86,4.77c-1.26-2.09-.6-4.8,1.49-6.07,2.09-1.26,4.8-.6,6.07,1.49,1.26,2.09.6,4.8-1.49,6.07-2.09,1.26-4.8.6-6.07-1.49Z"/>
                </g>
                <g>
                  <circle class="cls-23" cx="225.31" cy="40.93" r="4.78" transform="translate(165.65 262.02) rotate(-85.19)"/>
                  <path class="cls-25" d="m227.95,38.48c.14-.56-.61-1.23-1.67-1.49-1.06-.26-2.03-.01-2.17.55-.14.56.61,1.23,1.67,1.49,1.06.26,2.03.01,2.17-.55Z"/>
                  <path class="cls-24" d="m230.02,40.13c-.38.9-1.03,1.69-1.92,2.24-2.26,1.37-5.19.65-6.56-1.61-.32-.53-.52-1.1-.62-1.67-.57,1.36-.51,2.97.32,4.32,1.37,2.26,4.31,2.98,6.56,1.61,1.73-1.05,2.55-3.01,2.23-4.89Z"/>
                  <path class="cls-24" d="m230.07,41.35c-.38.91-1.03,1.71-1.93,2.25-2.26,1.37-5.19.65-6.56-1.61-.55-.9-.75-1.91-.67-2.89-.56,1.36-.5,2.96.32,4.31,1.37,2.26,4.31,2.98,6.56,1.61,1.35-.82,2.15-2.21,2.28-3.67Z"/>
                  <path class="cls-24" d="m229.4,38.46c-1.37-2.26-4.31-2.98-6.56-1.61-2.26,1.37-2.98,4.31-1.61,6.56,1.37,2.26,4.31,2.98,6.56,1.61,2.26-1.37,2.98-4.31,1.61-6.56Zm-7.86,4.77c-1.26-2.09-.6-4.8,1.49-6.07,2.09-1.26,4.8-.6,6.07,1.49,1.26,2.09.6,4.8-1.49,6.07-2.09,1.26-4.8.6-6.07-1.49Z"/>
                </g>
                <g>
                  <path class="cls-23" d="m208.25,69c-1.62.98-3.72.46-4.7-1.15-.98-1.62-.46-3.72,1.15-4.7,1.62-.98,3.72-.46,4.7,1.15.98,1.62.46,3.72-1.15,4.7Z"/>
                  <path class="cls-25" d="m208.37,64.32c.1-.4-.44-.88-1.2-1.07-.76-.19-1.45-.01-1.55.39-.1.4.44.88,1.2,1.07.76.19,1.45.01,1.55-.39Z"/>
                  <path class="cls-24" d="m209.85,65.5c-.27.64-.74,1.21-1.38,1.6-1.62.98-3.72.46-4.7-1.15-.23-.38-.37-.79-.44-1.2-.41.98-.36,2.13.23,3.1.98,1.62,3.09,2.13,4.7,1.15,1.24-.75,1.83-2.16,1.6-3.51Z"/>
                  <path class="cls-24" d="m209.89,66.37c-.27.65-.74,1.22-1.38,1.62-1.62.98-3.72.46-4.7-1.15-.39-.65-.54-1.37-.48-2.07-.4.97-.36,2.12.23,3.09.98,1.62,3.09,2.13,4.7,1.15.97-.59,1.54-1.58,1.63-2.63Z"/>
                  <path class="cls-24" d="m209.41,64.3c-.98-1.62-3.09-2.13-4.7-1.15-1.62.98-2.13,3.09-1.15,4.7.98,1.62,3.09,2.13,4.7,1.15,1.62-.98,2.13-3.09,1.15-4.7Zm-5.64,3.42c-.91-1.5-.43-3.44,1.07-4.35,1.5-.91,3.44-.43,4.35,1.07.91,1.5.43,3.44-1.07,4.35-1.5.91-3.44.43-4.35-1.07Z"/>
                </g>
                <g>
                  <path class="cls-23" d="m217.98,62.88c-2.22,1.34-5.1.64-6.44-1.58-1.34-2.22-.64-5.1,1.58-6.44,2.22-1.34,5.1-.64,6.44,1.58,1.34,2.22.64,5.1-1.58,6.44Z"/>
                  <path class="cls-25" d="m218.13,56.46c.14-.55-.6-1.21-1.64-1.46-1.04-.26-1.99-.01-2.13.54-.14.55.6,1.21,1.64,1.46,1.04.26,1.99.01,2.13-.54Z"/>
                  <path class="cls-24" d="m220.17,58.08c-.37.88-1.01,1.66-1.89,2.2-2.22,1.34-5.1.64-6.44-1.58-.32-.52-.51-1.08-.61-1.64-.56,1.34-.5,2.91.31,4.25,1.34,2.22,4.23,2.92,6.44,1.58,1.7-1.03,2.5-2.96,2.19-4.8Z"/>
                  <path class="cls-24" d="m220.22,59.28c-.37.89-1.01,1.68-1.9,2.21-2.22,1.34-5.1.64-6.44-1.58-.54-.89-.74-1.88-.66-2.84-.55,1.33-.49,2.9.32,4.23,1.34,2.22,4.23,2.92,6.44,1.58,1.33-.81,2.11-2.17,2.24-3.61Z"/>
                  <path class="cls-24" d="m219.56,56.44c-1.34-2.22-4.23-2.92-6.44-1.58-2.22,1.34-2.92,4.23-1.58,6.44,1.34,2.22,4.23,2.92,6.44,1.58,2.22-1.34,2.92-4.23,1.58-6.44Zm-7.72,4.68c-1.24-2.05-.59-4.72,1.46-5.96,2.05-1.24,4.72-.59,5.96,1.46,1.24,2.05.59,4.72-1.46,5.96-2.05,1.24-4.72.59-5.96-1.46Z"/>
                </g>
              </g>
              <g>
                <circle class="cls-23" cx="208.45" cy="52.06" r="4.69"/>
                <path class="cls-25" d="m211.04,49.65c.14-.55-.6-1.21-1.64-1.46-1.04-.26-1.99-.01-2.13.54s.6,1.21,1.64,1.46c1.04.26,1.99.01,2.13-.54Z"/>
                <path class="cls-24" d="m213.07,51.27c-.37.88-1.01,1.66-1.89,2.2-2.22,1.34-5.1.64-6.44-1.58-.32-.52-.51-1.08-.61-1.64-.56,1.34-.5,2.91.31,4.25,1.34,2.22,4.23,2.92,6.44,1.58,1.7-1.03,2.5-2.96,2.19-4.8Z"/>
                <path class="cls-24" d="m213.12,52.47c-.37.89-1.01,1.68-1.9,2.21-2.22,1.34-5.1.64-6.44-1.58-.54-.89-.74-1.88-.66-2.84-.55,1.33-.49,2.9.32,4.23,1.34,2.22,4.23,2.92,6.44,1.58,1.33-.81,2.11-2.17,2.24-3.61Z"/>
                <path class="cls-24" d="m212.46,49.63c-1.34-2.22-4.23-2.92-6.44-1.58-2.22,1.34-2.92,4.23-1.58,6.44,1.34,2.22,4.23,2.92,6.44,1.58,2.22-1.34,2.92-4.23,1.58-6.44Zm-7.72,4.68c-1.24-2.05-.59-4.72,1.46-5.96,2.05-1.24,4.72-.59,5.96,1.46,1.24,2.05.59,4.72-1.46,5.96-2.05,1.24-4.72.59-5.96-1.46Z"/>
              </g>
            </g>
            <g>
              <circle class="cls-23" cx="229.09" cy="61.67" r="4.69" transform="translate(-5.56 96.66) rotate(-23.55)"/>
              <path class="cls-25" d="m231.68,59.26c.14-.55-.6-1.21-1.64-1.46-1.04-.26-1.99-.01-2.13.54s.6,1.21,1.64,1.46c1.04.26,1.99.01,2.13-.54Z"/>
              <path class="cls-24" d="m233.71,60.88c-.37.88-1.01,1.66-1.89,2.2-2.22,1.34-5.1.64-6.44-1.58-.32-.52-.51-1.08-.61-1.64-.56,1.34-.5,2.91.31,4.25,1.34,2.22,4.23,2.92,6.44,1.58,1.7-1.03,2.5-2.96,2.19-4.8Z"/>
              <path class="cls-24" d="m233.76,62.07c-.37.89-1.01,1.68-1.9,2.21-2.22,1.34-5.1.64-6.44-1.58-.54-.89-.74-1.88-.66-2.84-.55,1.33-.49,2.9.32,4.23,1.34,2.22,4.23,2.92,6.44,1.58,1.33-.81,2.11-2.17,2.24-3.61Z"/>
              <path class="cls-24" d="m233.1,59.23c-1.34-2.22-4.23-2.92-6.44-1.58-2.22,1.34-2.92,4.23-1.58,6.44,1.34,2.22,4.23,2.92,6.44,1.58,2.22-1.34,2.92-4.23,1.58-6.44Zm-7.72,4.68c-1.24-2.05-.59-4.72,1.46-5.96,2.05-1.24,4.72-.59,5.96,1.46,1.24,2.05.59,4.72-1.46,5.96-2.05,1.24-4.72.59-5.96-1.46Z"/>
            </g>
          </g>
          <g>
            <circle class="cls-16" cx="214.84" cy="53.04" r="4.69" transform="translate(112.4 249.19) rotate(-76.29)"/>
            <path class="cls-25" d="m217.42,50.63c.14-.55-.6-1.21-1.64-1.46s-1.99-.01-2.13.54c-.14.55.6,1.21,1.64,1.46s1.99.01,2.13-.54Z"/>
            <path class="cls-17" d="m219.46,52.25c-.37.88-1.01,1.66-1.89,2.2-2.22,1.34-5.1.64-6.44-1.58-.32-.52-.51-1.08-.61-1.64-.56,1.34-.5,2.91.31,4.25,1.34,2.22,4.23,2.92,6.44,1.58,1.7-1.03,2.5-2.96,2.19-4.8Z"/>
            <path class="cls-17" d="m219.51,53.45c-.37.89-1.01,1.68-1.9,2.21-2.22,1.34-5.1.64-6.44-1.58-.54-.89-.74-1.88-.66-2.84-.55,1.33-.49,2.9.32,4.23,1.34,2.22,4.23,2.92,6.44,1.58,1.33-.81,2.11-2.17,2.24-3.61Z"/>
            <path class="cls-17" d="m218.85,50.61c-1.34-2.22-4.23-2.92-6.44-1.58-2.22,1.34-2.92,4.23-1.58,6.44,1.34,2.22,4.23,2.92,6.44,1.58,2.22-1.34,2.92-4.23,1.58-6.44Zm-7.72,4.68c-1.24-2.05-.59-4.72,1.46-5.96,2.05-1.24,4.72-.59,5.96,1.46,1.24,2.05.59,4.72-1.46,5.96-2.05,1.24-4.72.59-5.96-1.46Z"/>
          </g>
          <g>
            <circle class="cls-16" cx="220.71" cy="55.29" r="4.69" transform="translate(109.72 253.91) rotate(-74.87)"/>
            <path class="cls-25" d="m223.29,52.88c.14-.55-.6-1.21-1.64-1.46s-1.99-.01-2.13.54c-.14.55.6,1.21,1.64,1.46,1.04.26,1.99.01,2.13-.54Z"/>
            <path class="cls-17" d="m225.33,54.5c-.37.88-1.01,1.66-1.89,2.2-2.22,1.34-5.1.64-6.44-1.58-.32-.52-.51-1.08-.61-1.64-.56,1.34-.5,2.91.31,4.25,1.34,2.22,4.23,2.92,6.44,1.58,1.7-1.03,2.5-2.96,2.19-4.8Z"/>
            <path class="cls-17" d="m225.38,55.69c-.37.89-1.01,1.68-1.9,2.21-2.22,1.34-5.1.64-6.44-1.58-.54-.89-.74-1.88-.66-2.84-.55,1.33-.49,2.9.32,4.23,1.34,2.22,4.23,2.92,6.44,1.58,1.33-.81,2.11-2.17,2.24-3.61Z"/>
            <path class="cls-17" d="m224.72,52.86c-1.34-2.22-4.23-2.92-6.44-1.58-2.22,1.34-2.92,4.23-1.58,6.44,1.34,2.22,4.23,2.92,6.44,1.58s2.92-4.23,1.58-6.44Zm-7.72,4.68c-1.24-2.05-.59-4.72,1.46-5.96,2.05-1.24,4.72-.59,5.96,1.46,1.24,2.05.59,4.72-1.46,5.96-2.05,1.24-4.72.59-5.96-1.46Z"/>
          </g>
          <g>
            <circle class="cls-16" cx="227.01" cy="56.86" r="4.69" transform="translate(118.16 264.03) rotate(-76.34)"/>
            <path class="cls-25" d="m229.6,54.45c.14-.55-.6-1.21-1.64-1.46-1.04-.26-1.99-.01-2.13.54-.14.55.6,1.21,1.64,1.46s1.99.01,2.13-.54Z"/>
            <path class="cls-17" d="m231.64,56.08c-.37.88-1.01,1.66-1.89,2.2-2.22,1.34-5.1.64-6.44-1.58-.32-.52-.51-1.08-.61-1.64-.56,1.34-.5,2.91.31,4.25,1.34,2.22,4.23,2.92,6.44,1.58,1.7-1.03,2.5-2.96,2.19-4.8Z"/>
            <path class="cls-17" d="m231.68,57.27c-.37.89-1.01,1.68-1.9,2.21-2.22,1.34-5.1.64-6.44-1.58-.54-.89-.74-1.88-.66-2.84-.55,1.33-.49,2.9.32,4.23,1.34,2.22,4.23,2.92,6.44,1.58,1.33-.81,2.11-2.17,2.24-3.61Z"/>
            <path class="cls-17" d="m231.03,54.43c-1.34-2.22-4.23-2.92-6.44-1.58-2.22,1.34-2.92,4.23-1.58,6.44s4.23,2.92,6.44,1.58c2.22-1.34,2.92-4.23,1.58-6.44Zm-7.72,4.68c-1.24-2.05-.59-4.72,1.46-5.96,2.05-1.24,4.72-.59,5.96,1.46,1.24,2.05.59,4.72-1.46,5.96-2.05,1.24-4.72.59-5.96-1.46Z"/>
          </g>
          <g>
            <circle class="cls-16" cx="210.43" cy="60.25" r="4.69"/>
            <path class="cls-25" d="m213.02,57.84c.14-.55-.6-1.21-1.64-1.46-1.04-.26-1.99-.01-2.13.54-.14.55.6,1.21,1.64,1.46,1.04.26,1.99.01,2.13-.54Z"/>
            <path class="cls-17" d="m215.05,59.46c-.37.88-1.01,1.66-1.89,2.2-2.22,1.34-5.1.64-6.44-1.58-.32-.52-.51-1.08-.61-1.64-.56,1.34-.5,2.91.31,4.25,1.34,2.22,4.23,2.92,6.44,1.58,1.7-1.03,2.5-2.96,2.19-4.8Z"/>
            <path class="cls-17" d="m215.1,60.66c-.37.89-1.01,1.68-1.9,2.21-2.22,1.34-5.1.64-6.44-1.58-.54-.89-.74-1.88-.66-2.84-.55,1.33-.49,2.9.32,4.23,1.34,2.22,4.23,2.92,6.44,1.58,1.33-.81,2.11-2.17,2.24-3.61Z"/>
            <path class="cls-17" d="m214.44,57.82c-1.34-2.22-4.23-2.92-6.44-1.58-2.22,1.34-2.92,4.23-1.58,6.44s4.23,2.92,6.44,1.58c2.22-1.34,2.92-4.23,1.58-6.44Zm-7.72,4.68c-1.24-2.05-.59-4.72,1.46-5.96,2.05-1.24,4.72-.59,5.96,1.46,1.24,2.05.59,4.72-1.46,5.96-2.05,1.24-4.72.59-5.96-1.46Z"/>
          </g>
          <g>
            <circle class="cls-16" cx="222.51" cy="63.94" r="4.69"/>
            <path class="cls-25" d="m225.1,61.53c.14-.55-.6-1.21-1.64-1.46-1.04-.26-1.99-.01-2.13.54-.14.55.6,1.21,1.64,1.46,1.04.26,1.99.01,2.13-.54Z"/>
            <path class="cls-17" d="m227.14,63.15c-.37.88-1.01,1.66-1.89,2.2-2.22,1.34-5.1.64-6.44-1.58-.32-.52-.51-1.08-.61-1.64-.56,1.34-.5,2.91.31,4.25,1.34,2.22,4.23,2.92,6.44,1.58,1.7-1.03,2.5-2.96,2.19-4.8Z"/>
            <path class="cls-17" d="m227.18,64.34c-.37.89-1.01,1.68-1.9,2.21-2.22,1.34-5.1.64-6.44-1.58-.54-.89-.74-1.88-.66-2.84-.55,1.33-.49,2.9.32,4.23,1.34,2.22,4.23,2.92,6.44,1.58,1.33-.81,2.11-2.17,2.24-3.61Z"/>
            <path class="cls-17" d="m226.53,61.51c-1.34-2.22-4.23-2.92-6.44-1.58-2.22,1.34-2.92,4.23-1.58,6.44,1.34,2.22,4.23,2.92,6.44,1.58,2.22-1.34,2.92-4.23,1.58-6.44Zm-7.72,4.68c-1.24-2.05-.59-4.72,1.46-5.96,2.05-1.24,4.72-.59,5.96,1.46,1.24,2.05.59,4.72-1.46,5.96-2.05,1.24-4.72.59-5.96-1.46Z"/>
          </g>
          <g>
            <circle class="cls-16" cx="216.35" cy="48.17" r="4.69" transform="translate(150.85 259.92) rotate(-85.36)"/>
            <path class="cls-25" d="m218.94,45.76c.14-.55-.6-1.21-1.64-1.46-1.04-.26-1.99-.01-2.13.54-.14.55.6,1.21,1.64,1.46,1.04.26,1.99.01,2.13-.54Z"/>
            <path class="cls-17" d="m220.97,47.38c-.37.88-1.01,1.66-1.89,2.2-2.22,1.34-5.1.64-6.44-1.58-.32-.52-.51-1.08-.61-1.64-.56,1.34-.5,2.91.31,4.25,1.34,2.22,4.23,2.92,6.44,1.58,1.7-1.03,2.5-2.96,2.19-4.8Z"/>
            <path class="cls-17" d="m221.02,48.58c-.37.89-1.01,1.68-1.9,2.21-2.22,1.34-5.1.64-6.44-1.58-.54-.89-.74-1.88-.66-2.84-.55,1.33-.49,2.9.32,4.23,1.34,2.22,4.23,2.92,6.44,1.58,1.33-.81,2.11-2.17,2.24-3.61Z"/>
            <path class="cls-17" d="m220.36,45.74c-1.34-2.22-4.23-2.92-6.44-1.58-2.22,1.34-2.92,4.23-1.58,6.44,1.34,2.22,4.23,2.92,6.44,1.58,2.22-1.34,2.92-4.23,1.58-6.44Zm-7.72,4.68c-1.24-2.05-.59-4.72,1.46-5.96,2.05-1.24,4.72-.59,5.96,1.46,1.24,2.05.59,4.72-1.46,5.96-2.05,1.24-4.72.59-5.96-1.46Z"/>
          </g>
          <g>
            <circle class="cls-23" cx="224.07" cy="50.01" r="4.78" transform="translate(-4.95 33.92) rotate(-8.56)"/>
            <path class="cls-25" d="m226.71,47.56c.14-.56-.61-1.23-1.67-1.49-1.06-.26-2.03-.01-2.17.55-.14.56.61,1.23,1.67,1.49,1.06.26,2.03.01,2.17-.55Z"/>
            <path class="cls-24" d="m228.78,49.21c-.38.9-1.03,1.69-1.92,2.24-2.26,1.37-5.19.65-6.56-1.61-.32-.53-.52-1.1-.62-1.67-.57,1.36-.51,2.97.32,4.32,1.37,2.26,4.31,2.98,6.56,1.61,1.73-1.05,2.55-3.01,2.23-4.89Z"/>
            <path class="cls-24" d="m228.83,50.42c-.38.91-1.03,1.71-1.93,2.25-2.26,1.37-5.19.65-6.56-1.61-.55-.9-.75-1.91-.67-2.89-.56,1.36-.5,2.96.32,4.31,1.37,2.26,4.31,2.98,6.56,1.61,1.35-.82,2.15-2.21,2.28-3.67Z"/>
            <path class="cls-24" d="m228.16,47.53c-1.37-2.26-4.31-2.98-6.56-1.61-2.26,1.37-2.98,4.31-1.61,6.56,1.37,2.26,4.31,2.98,6.56,1.61,2.26-1.37,2.98-4.31,1.61-6.56Zm-7.86,4.77c-1.26-2.09-.6-4.8,1.49-6.07,2.09-1.26,4.8-.6,6.07,1.49,1.26,2.09.6,4.8-1.49,6.07-2.09,1.26-4.8.6-6.07-1.49Z"/>
          </g>
        </g>
        <g>
          <path class="cls-9" d="m239.71,45.08c0-2.67-1.17-5.1-3.07-6.92-1.9,1.82-3.07,4.24-3.07,6.92s1.17,5.1,3.07,6.92c1.9-1.82,3.07-4.24,3.07-6.92Z"/>
          <path class="cls-21" d="m233.57,45.08c0,2.67,1.17,5.1,3.07,6.92v-13.83c-1.9,1.82-3.07,4.24-3.07,6.92Z"/>
        </g>
      </g>
      <g>
        <path class="cls-19" d="m237.86,51.51c.39-.45.71-.91.94-1.47.5-1.21,1-2.59,1.2-3.88.43-2.93-.66-5.75-2.62-7.91l-.11.27c.57-.39,2.5-1.13,2.34-2.07-.09-.55-1.03-1.23-1.42-1.58-.44-.38-.85-.54-1.4-.18-.31.2-.46.51-.65.82-.53.84-1.16,1.61-1.82,2.35l.63-.07c-2.12-3.34-6.11-4.21-9.57-2.42-.07.03-.27.15-.21.27.1.19.19.35.3.54l.47-.37c-1.76-.11-3.31.49-4.5,1.79l.58-.11c-2.74-1.88-6.5-.89-7.88,2.16l.7-.08h0c-.08-.31-.66-.08-.73.12v.02c.24-.03.48-.05.72-.08h0c0-.35-.65-.15-.73.08-.26.74-.44,1.51-.35,2.29l.65-.28c-2.28-.98-4.84-.12-5.9,2.16l.7-.08h0c-.08-.3-.67-.08-.73.13v.02c.24-.03.48-.05.72-.08h0c0-.35-.66-.17-.73.07-.35,1.23-.39,2.26.2,3.43l.5-.32c-2.31-.19-4.38.92-5.36,3.04l.7-.08h0c-.08-.31-.66-.07-.73.12v.02c.24-.03.48-.05.72-.08h0c0-.35-.65-.15-.73.08-.92,2.64.24,5.53,3.03,6.42l.26-.43c-1.51.16-2.69.9-3.35,2.29l.7-.08h0c-.08-.3-.67-.08-.73.13h0c.24-.01.48-.04.73-.06h0c0-.35-.66-.17-.73.08-.48,1.67-.17,3.42,1.46,4.37l.14-.36c-1.06.4-1.8,1.06-2.29,2.09l.7-.08h0c-.08-.3-.67-.08-.73.13h0c.24-.01.48-.04.73-.06h0c0-.34-.66-.17-.73.08-.64,2.21.41,4.57,2.92,4.89,1.78.22,3.55-.79,4.17-2.47l-.73.14c1.4,3.29,6.01,2.8,7.16-.36l-.7.19c.86.95,1.96,1.59,3.25,1.73.55.06,1.06,0,1.6-.07.7-.08,1.33.02,2.04,0,1.92-.09,3.82-1.29,4.52-3.12l-.65.23c3.3,1.64,7.05-.3,7.58-3.91.05-.32-.61-.16-.7.02v.02c.23,0,.46-.01.69-.02.02-.44,0-.84-.04-1.27-.03-.28-.63-.07-.7.08h0c.23-.02.47-.04.7-.07-.18-.84-.48-1.54-1.01-2.2l-.47.37c2.89.08,5.17-1.77,5.58-4.61.05-.32-.61-.16-.7.02v.02c.22,0,.46-.01.69-.02.02-.45,0-.85-.04-1.29-.03-.28-.63-.07-.7.08h0c.23-.02.47-.04.7-.07-.06-.29-.16-.56-.24-.84-.1-.37-.4-.2-.04-.57.3-.31-.4-.34-.59-.15-.08.08-.16.16-.24.25-.03.04-.09.11-.07.17.2.44.35.86.45,1.34.06.27.62.08.7-.08h0c-.23.02-.47.04-.7.07.04.4.06.78.04,1.18-.02.33.61.17.7-.02v-.02c-.22,0-.46.01-.69.02-.34,2.37-2.02,4.15-4.58,4.08-.14,0-.65.14-.47.37.52.64.78,1.31.95,2.1.06.27.62.08.7-.08h0c-.23.02-.47.04-.7.07.04.39.06.77.04,1.16-.02.33.61.17.7-.02v-.02c-.23,0-.46.01-.69.02-.44,3.02-3.29,4.94-6.28,3.46-.21-.11-.56,0-.65.23-.72,1.86-2.7,2.76-4.61,2.51-.86-.11-1.63.25-2.51.15-1.16-.13-2.12-.71-2.9-1.57-.18-.2-.62-.03-.7.19-.23.62-.58,1.19-1.13,1.57-1.7,1.17-3.83.28-4.58-1.48-.12-.28-.65-.08-.73.14-.68,1.83-2.9,2.55-4.53,1.37-1.36-.98-1.53-2.47-1.11-3.95l-.73.08h0c0,.35.66.17.73-.08h0c-.24.03-.48.08-.73.12h0c.07.27.62.11.7-.07.4-.85,1.01-1.45,1.9-1.79.13-.05.33-.24.14-.36-1.53-.89-1.75-2.55-1.31-4.08l-.73.08h0c0,.35.66.17.73-.08h0c-.24.03-.48.08-.73.12h0c.07.27.62.11.7-.07.51-1.08,1.35-1.75,2.58-1.89.19-.02.64-.31.26-.43-2.65-.84-3.59-3.64-2.74-6.07l-.73.08h0c0,.35.65.15.73-.08v-.02c-.24.05-.48.09-.72.14h0c.07.27.62.11.7-.07.82-1.78,2.41-2.8,4.4-2.63.11,0,.6-.11.5-.32-.57-1.13-.54-2.13-.2-3.32l-.73.08h0c0,.35.66.17.73-.07v-.02c-.24.05-.48.09-.72.14h0c.07.27.62.11.7-.07.85-1.83,2.77-2.63,4.65-1.82.19.08.68,0,.65-.28-.09-.74.11-1.48.35-2.18l-.73.08h0c0,.35.65.15.73-.08v-.02c-.24.05-.48.09-.72.14h0c.07.27.62.11.7-.07,1.21-2.68,4.22-3.47,6.62-1.83.15.1.47.01.58-.11.98-1.07,2.18-1.58,3.64-1.49.18.01.61-.13.47-.37l-.24-.44-.21.27c3.21-1.66,6.69-.63,8.6,2.38.11.18.52.05.63-.07.56-.62,1.09-1.27,1.57-1.95.18-.27.37-.75.67-.9.38-.19.17-.09.5.15.27.19.93.77,1.06,1.06.34.77-1.39,1.56-1.89,1.9-.08.05-.19.18-.11.27,1.91,2.1,2.98,4.83,2.57,7.69-.17,1.13-.66,2.14-.97,3.22-.2.71-.55,1.34-1.03,1.9-.29.33.41.35.59.15Z"/>
        <path class="cls-19" d="m233.77,43.24c-1.56.12-2.96.87-3.9,2.12l.68-.13c-.11-.1-.22-.21-.34-.3l-.04.22c1.39-1.39,2.77-2.77,4.16-4.16.36-.36.72-.71,1.1-1.04l-.63-.09c-.71,1.11-1.2,2.34-1.42,3.65-.05.31.68.19.73-.08.21-1.26.68-2.45,1.38-3.53.08-.13-.05-.22-.16-.24-.17-.03-.35.03-.47.14-.71.62-1.36,1.3-2.03,1.97l-2.6,2.6c-.21.21-.42.42-.63.63-.05.05-.12.16-.04.22.12.1.23.2.34.3.18.17.54.05.68-.13.76-1.02,1.87-1.62,3.13-1.71.13-.01.39-.1.41-.26.02-.17-.2-.19-.32-.18Z"/>
        <path class="cls-19" d="m229.85,43.11c.34-.62.51-1.27.61-1.96.05-.32-.61-.16-.7.02v.02c.22,0,.46-.01.69-.02.02-.44,0-.86-.04-1.29-.01-.12-.24-.13-.32-.12-.13.01-.32.08-.38.2h0c.23-.02.47-.04.7-.07-.05-.28-.11-.55-.21-.82l-.58.31c1.31.34,2.69.29,3.98-.11l-.35-.28c-1.18,1.18-2.36,2.36-3.54,3.54-.17.17-.34.34-.5.5-.11.11-.07.24.08.29.16.05.39-.02.51-.14,1.18-1.18,2.36-2.36,3.54-3.54.17-.17.34-.34.5-.5.24-.24-.17-.33-.35-.28-1.13.35-2.3.39-3.44.1-.15-.04-.67.06-.58.31.09.27.16.54.21.82.02.12.23.13.32.12.13-.01.32-.08.38-.2h0c-.23.02-.47.04-.7.07.04.4.06.78.04,1.18-.02.33.61.17.7-.02v-.02c-.22,0-.46.01-.69.02-.09.65-.24,1.26-.56,1.85-.18.32.55.27.68.04Z"/>
      </g>
      <path class="cls-3" d="m196.64,26.86l2.81,4.96c.17.29.59.31.76.02.4-.66.86-1.82.22-3.18-1-2.09-3.13-3.21-3.79-1.81Z"/>
      <path class="cls-3" d="m196.2,27.18l2.94,4.92c.17.28-.02.64-.34.66-.77.03-2.03-.14-2.89-1.38-1.33-1.9-1.25-4.31.3-4.19Z"/>
      <path class="cls-2" d="m90.93,53.97s44.95-6.35,36.78-.2c-17.26,12.99-34.43,8.64-17.21,4.32s11.44,6.27,35.85,3.42,19.2-2.58,19.2-2.58"/>
    </g>
  </g>
</svg>