<?xml version="1.0" encoding="UTF-8"?>
<svg xmlns="http://www.w3.org/2000/svg" viewBox="0 0 332.15 80">
  <defs>
    <style>
      .cls-1 {
        isolation: isolate;
      }

      .cls-1, .cls-2 {
        fill: none;
      }

      .cls-2 {
        stroke: #f0cb9c;
        stroke-dasharray: 0 4;
        stroke-linecap: round;
        stroke-width: 2px;
      }

      .cls-2, .cls-3 {
        stroke-miterlimit: 10;
      }

      .cls-4 {
        fill: #f7eae0;
      }

      .cls-5 {
        fill: #eaddd5;
      }

      .cls-6 {
        fill: #e7dad2;
      }

      .cls-7 {
        fill: #655142;
      }

      .cls-8 {
        fill: #9c8b83;
      }

      .cls-9 {
        fill: #91b738;
      }

      .cls-10 {
        fill: #874937;
      }

      .cls-11 {
        fill: #a19088;
      }

      .cls-12, .cls-3 {
        fill: #cf995f;
      }

      .cls-13 {
        fill: #ce995f;
      }

      .cls-14 {
        fill: #241914;
      }

      .cls-15 {
        fill: #a2ce84;
      }

      .cls-16, .cls-17 {
        fill: #562e92;
      }

      .cls-18 {
        fill: #629b35;
      }

      .cls-19 {
        fill: #604c3f;
      }

      .cls-20 {
        fill: #7a3f31;
      }

      .cls-21 {
        fill: #76942c;
      }

      .cls-22 {
        fill: #79655a;
      }

      .cls-23, .cls-24 {
        fill: #7749bf;
      }

      .cls-3 {
        stroke: #604c3f;
        stroke-width: .25px;
      }

      .cls-24, .cls-17 {
        mix-blend-mode: multiply;
      }

      .cls-24, .cls-17, .cls-25 {
        opacity: .3;
      }

      .cls-25 {
        fill: #fff;
      }
    </style>
  </defs>
  <g class="cls-1">
    <g id="bg">
      <g>
        <g>
          <path class="cls-22" d="m153.93,16.14c0,.39,0,.79.18,1.16.11.23.25.43.54.43.29,0,.42-.21.53-.44.17-.01.33-.03.5-.04.2.9.67,1.52,1.5,2,2,1.17,3.02,3.04,3.3,5.3.18,1.42.72,2.58,1.72,3.62.63.65,1.48,1.18,1.68,2.18-.32.1-.48.32-.5.65-.06.81-.49,1.36-1.18,1.76-.47.28-.89.64-1.12,1.14-.31.66-.47,1.39-1.14,1.83-.24.16-.15.53.11.76.07.06.21.06.26.13.37.59.82.92,1.56.66.15-.05.37.09.56.14-.24.43-.4.93-.72,1.29-.85.97-.93,2.27-1.55,3.33,0,1.13-.7,1.91-1.35,2.72-.13.17-.38.32-.18.64,1.33-.11,2.59-.54,3.85-.94.18.11.35.29.2.47-1.39,1.57-1.25,3.34-.71,5.16.22.75.36,1.54.78,2.22.12.19.02.38,0,.57-2.03,1.14-4.06,2.27-6.08,3.41-.43.24-.84.53-1.27.76-.65.35-1.06.88-1.26,1.58-.1.33-.21.66-.28,1-.48,2.33-.99,4.65-1.39,6.99-.27,1.6-.53,3.23-.44,4.87-.18.09-.35.16-.55.09-2.22-.77-3.87.12-5.28,1.77-.22.26-.33.6-.65.77-.6-1.14-1.19-2.28-1.79-3.41-.28-.52-.56-1.05-.86-1.56-.2-.34-.42-.38-.72-.14-.39.31-.77.62-1.13.95-1.78,1.63-3.85,2.74-6.14,3.48-2.12.69-4.25,1.34-6.52,1.18-2.13-.15-4.24.03-6.34.37-.22-.08-.49-.09-.56-.4-.23-1.14-1.04-1.75-2.02-2.19-.45-.2-.92-.36-1.37-.54-.82-.33-1.65-.66-2.46-1.01-.9-.39-1.78-.85-2.82-.77-.27.02-.56-.16-.84-.24-.3-.31-.97-.18-.99-.86,0-.13-.24-.28-.4-.38-.22-.14-.46-.12-.66.06-.2.19-.22.42-.1.66.16.31.39.55.78.55.24,0,.48-.03.72-.04-.08.12-.18.23-.23.35-.31.72-.31.74-1.01.61-.3-.05-.6-.16-.79.14-.22.35-.5.41-.87.31-.26-.07-.49.05-.58.31-.12.33.05.56.32.73.54.32,1.09.63,1.65.95-.29.34-.64.33-.95.41-.51.14-.54.49-.49.91-3.02-.02-6.02-.37-9.02-.7-.79-.09-1.56-.26-2.35-.34-1.36-.15-2.09-1-2.57-2.17-.29-.71-.37-1.45-.16-2.18.16-.57,1.02-1.28.79-1.8-.48-1.08-1.85-1.97-2.12-3.13-.76-3.33-.82-6.66-.05-10,.13-.56.02-.95-.47-1.26-1.68-1.05-2.85-2.58-3.88-4.23-.42-.67-.84-1.34-1.25-2.02-.18-.3-.32-.63-.61-.83-.66-.44-.92-1.14-1.18-1.84-.7-1.97-1.07-4.01-1.28-6.08-.32-3.21.33-6.19,2.08-8.92.99-1.55,2.22-2.91,3.47-4.24.81-.86,1.59-1.78,2.52-2.51,1.87-1.47,3.58-3.12,5.41-4.63.68-.56,1.36-1.15,1.76-1.97.6-.13.99.35,1.49.5.43.13.78-.03.89-.47.04-.14.02-.29.05-.44.12-.81.29-.92,1.05-.73.2.05.38.1.41.34.03.25.03.51-.16.69-.14.13-.35.16-.52.27-.5.32-.69.83-.74,1.38-.07.8.48,1.29,1.54,1.34.32.01.4.12.45.4.12.62-.07,1.07-.41,1.62-.76,1.25-2.01,2.02-2.86,3.16-.54.26-.98.67-1.41,1.07-1.39,1.27-2.77,2.55-4.15,3.83-.72.68-1.46,1.34-2.13,2.07-1.26,1.38-2.18,2.95-2.4,4.84-.15,1.28-.15,2.57-.1,3.86.02.55.12,1.08.41,1.56.82,1.36,1.72,2.66,2.92,3.73.58.52.6.52,1.28.15,2.97-1.64,6.19-2.07,9.54-2.66,2.54-.45,4.82-.29,7.39-.46.84-.06,2.22-.14,3.06-.25,2.26-.29,4.35-.52,6.61-.83,2.3-.31,4.44-1.71,6.77-1.8.44-.02.89-.1,1.33-.14.34-.03.56-.18.6-.53.24-2.11,1.24-3.84,2.62-5.38.32-.36.41-.75.44-1.22.26-4.27,1.74-8.09,4.23-11.55.62-.86,1.36-1.62,2.28-2.09,1.05-.53,1.85-1.3,2.66-2.1,1.03-1.02,2.18-1.88,3.54-2.4,1.74-.66,3.22-1.73,4.57-2.96.77-.71,1.53-1.05,2.54-.69.45,2.08.71,4.17.67,6.3Zm-2.83,36.93c-.35-.12-.65.02-.72.3-.07.27.11.53.46.66.05.02.1.04.14.04.57-.02.9.33,1.19.74.31.44.68.74,1.25.43,1.19.22,1.66-.45,1.97-1.48.46-1.57.73-3.18,1.07-4.77.19-.91.27-1.86.97-2.59.14-.15.09-.4-.02-.56-.17-.23-.42-.23-.66-.09-.26.15-.51.31-.76.47-.5.33-1.06.57-1.64.67-1.43.24-2.77.25-4.06-.73-1.41-1.06-2.59-2.28-3.61-3.69-.2-.28-.41-.55-.62-.82-.29-.37-.69-.36-1.08-.22-.17.06-.36.21-.43.36-.09.18.03.41.22.5.37.18.66.44.87.78.21.35.78.61.46,1.13-.23.37.23.89-.35,1.18-.28.14-.21.52-.01.79.18.24.38.46.53.71.15.25.3.52.37.8.29,1.35.76,1.8,2.08,1.96.39.05.45.17.18.58-.15.23-.29.42-.1.65.35.42.79.74,1.3.96,1.23-.27,1.52.76,1.95,1.6-.31-.12-.61-.26-.92-.37Zm1.12-41.04c-.4-.23-.78-.12-1.09.17-.4.37-.79.76-1.13,1.18-1.13,1.4-1.95,2.98-2.68,4.61-.31.7.03,1.18.8,1.12.99-.07,1.96-.25,2.93-.46.45-.1.71-.31.79-.75.19-1.02.39-2.04.56-3.07.1-.63.15-1.28.25-2.16,0-.12-.09-.45-.42-.64Zm7.39,26.5c-.12-.21-.26-.4-.39-.6-.34-.51-.91-.46-1.22.13-.06.11-.08.32-.02.4.28.33.59.63.91.92.05.05.18.02.28.03.4-.05.65-.53.45-.88Z"/>
          <path class="cls-4" d="m99.48,15.72c.6-.13.99.35,1.49.5.43.13.78-.03.89-.47.04-.14.02-.29.05-.44.12-.81.29-.92,1.05-.73.2.05.38.1.41.34.03.25.03.51-.16.69-.14.13-.35.16-.52.27-.5.32-.69.83-.74,1.38-.07.8.48,1.29,1.54,1.34.32.01.4.12.45.4.12.62-.07,1.07-.41,1.62-.76,1.25-2.01,2.02-2.86,3.16.89.42,1.56.07,2.22-.55,1.61-1.51,3.05-3.17,4.3-4.97.42-.6.93-1.26.91-2.09-.03-.59.02-1.15.46-1.63.3-.33.41-.76.41-1.21,0-.29.07-.57.11-.86-.03-1.02.07-2.05-.31-3.04-.13-.33-.04-.67.04-1.01.28-1.2.3-2.42.1-3.64-.53-.94-.98-1.94-2.08-2.39-.13-.05-.23-.19-.31-.31-.5-.73-1.19-.97-2.05-.87-.34.04-.69,0-1.03-.03-.84-.06-1.39.37-1.81,1.05-.3.48-.33,1.01-.32,1.57.02.68.18,1.38-.25,2,0,.05-.03.1-.02.14.52,1.78.58,3.61.58,5.45.25.09.43.29.42.53-.08,1.24-.57,2.21-1.82,2.66-.37.3-.52.74-.74,1.14Z"/>
          <path class="cls-4" d="m111.35,69.85c-.08.12-.18.23-.23.35-.31.72-.31.74-1.01.61-.3-.05-.6-.16-.79.14-.22.35-.5.41-.87.31-.26-.07-.49.05-.58.31-.12.33.05.56.32.73.54.32,1.09.63,1.65.95-.29.34-.64.33-.95.41-.51.14-.54.49-.49.91.11.1.21.26.33.28.82.14,1.64.34,2.46.35.86.01,1.64.27,2.46.43,1.35.25,2.68.59,4.07.49.34-.02.69-.03,1.02-.12.31-.09.58-.1.82.11.59.52,1.12.19,1.6-.16.35-.25.62-.61.93-.92-.22-.08-.49-.09-.56-.4-.23-1.14-1.04-1.75-2.02-2.19-.45-.2-.92-.36-1.37-.54-.82-.33-1.65-.66-2.46-1.01-.9-.39-1.78-.85-2.82-.77-.27.02-.56-.16-.84-.24-.22,0-.43,0-.65-.01Z"/>
          <path class="cls-4" d="m162,50.11c-.54-1.82-.69-3.59.71-5.16.15-.17-.02-.36-.2-.47.03-.38.28-.62.55-.84.91-.73,1.97-1.08,3.13-1.12.09,0,.18,0,.27,0,.64.59,1.23,1.13,1.62,1.95-.03,1-.05,2,.18,2.95-.03.11-.07.22-.1.33-.09.38-.25.76-.28,1.14-.04.57-.32,1.03-.54,1.52-.18.38-.43.62-.85.75-1.32.39-2.47,1.16-3.71,1.74.03-.19.13-.38,0-.57-.42-.68-.56-1.47-.78-2.22Z"/>
          <path class="cls-4" d="m152.05,71.51c-.18.09-.35.16-.55.09-2.22-.77-3.87.12-5.28,1.77-.22.26-.33.6-.65.77-.08.97.18,1.82.95,2.45.37.31.49.84.95,1.06.07.09-.35.3-.28.39l.38.57c.34.22.06.02.28.39,1.17.4,3.13-.16,4.32-.22.63-.33.88-.85.85-1.56-.03-.78-.03-1.54-.42-2.27-.37-.69-.53-1.46-.49-2.26.02-.39-.04-.78-.06-1.17Z"/>
          <path class="cls-4" d="m163.89,30.35c-.32.1-.48.32-.5.65-.06.81-.49,1.36-1.18,1.76-.47.28-.89.64-1.12,1.14-.31.66-.47,1.39-1.14,1.83-.24.16-.15.53.11.76.07.06.21.06.26.13.37.59.82.92,1.56.66.15-.05.37.09.56.14.05-.02.12-.03.13-.06.23-.8.75-1.44,1.18-2.13.9-1.47,1.08-3.03.47-4.65-.04-.11-.22-.17-.33-.25Z"/>
          <path class="cls-8" d="m101.06,5.8c.43-.62.27-1.32.25-2-.02-.55.02-1.08.32-1.57.41-.68.96-1.11,1.81-1.05.34.03.69.07,1.03.03.86-.11,1.55.14,2.05.87.08.12.19.25.31.31,1.1.45,1.55,1.45,2.08,2.39.13,0,.26,0,.4-.01-.04-.71-.38-1.31-.74-1.9-.18-.29-.41-.61-.69-.74-.86-.39-1.59-.95-2.35-1.47-.54-.37-1.2-.4-1.83-.49-.14-.02-.31-.02-.43.04-1.57.74-3.14,1.87-2.6,4.03.13.52.27,1.04.41,1.56Z"/>
          <path class="cls-5" d="m153.26,9.84c.45,2.08.71,4.17.67,6.3,0,.39,0,.79.18,1.16.11.23.25.43.54.43.29,0,.42-.21.53-.44-.18-.72-.14-1.45-.11-2.18,0-.21.1-.37.28-.48-.01-.34.08-.73-.06-1-.49-.92-.53-1.94-.81-2.91-.21-.75-.2-.76-1.22-.88Z"/>
          <path class="cls-8" d="m152.16,78.78c-1.19.06-2.87.23-4.03-.17-.03.16-.05.32-.08.49,1.45.91,5.03.69,4.11-.32Z"/>
          <path class="cls-8" d="m109.41,11.95c-.16,0-.17.52-.33.52-.04.29-.11.57-.11.86,0,.46-.11.88-.41,1.21-.44.48-.49,1.03-.46,1.63.73-.5,1.16-1.18,1.27-2.08.06-.54.15-1.57.04-2.13Z"/>
          <path class="cls-8" d="m100.22,14.58c1.25-.45,1.74-1.42,1.82-2.66.02-.25-.17-.44-.42-.53-.25,1.16-.84,2.17-1.4,3.19Z"/>
          <path class="cls-8" d="m155.35,14.63c-.18.11-.27.28-.28.48-.03.73-.07,1.46.11,2.18.17-.01.33-.03.5-.04.09-.9-.27-1.74-.33-2.62Z"/>
          <path class="cls-11" d="m148.05,79.09c.03-.16.05-.32.08-.49-.22-.38-.63-.51-.98-.73.03.61.42.94.9,1.21Z"/>
          <path class="cls-11" d="m147.67,77.91c-.07-.09-.14-.17-.21-.26.07.09.14.17.21.26Z"/>
          <path class="cls-4" d="m152.02,53.44c-.31-.12-.61-.26-.92-.37-.35-.12-.65.02-.72.3-.07.27.11.53.46.66.05.02.1.04.14.04.57-.02.9.33,1.19.74.31.44.68.74,1.25.43,1.19.22,1.66-.45,1.97-1.48.46-1.57.73-3.18,1.07-4.77.19-.91.27-1.86.97-2.59.14-.15.09-.4-.02-.56-.17-.23-.42-.23-.66-.09-.26.15-.51.31-.76.47-.5.33-1.06.57-1.64.67-1.43.24-2.77.25-4.06-.73-1.41-1.06-2.59-2.28-3.61-3.69-.2-.28-.41-.55-.62-.82-.29-.37-.69-.36-1.08-.22-.17.06-.36.21-.43.36-.09.18.03.41.22.5.37.18.66.44.87.78.21.35.78.61.46,1.13-.23.37.23.89-.35,1.18-.28.14-.21.52-.01.79.18.24.38.46.53.71.15.25.3.52.37.8.29,1.35.76,1.8,2.08,1.96.39.05.45.17.18.58-.15.23-.29.42-.1.65.35.42.79.74,1.3.96,1.23-.27,1.52.76,1.95,1.6Z"/>
          <path class="cls-4" d="m152.64,12.68c0-.12-.09-.45-.42-.64-.4-.23-.78-.12-1.09.17-.4.37-.79.76-1.13,1.18-1.13,1.4-1.95,2.98-2.68,4.61-.31.7.03,1.18.8,1.12.99-.07,1.96-.25,2.93-.46.45-.1.71-.31.79-.75.19-1.02.39-2.04.56-3.07.1-.63.15-1.28.25-2.16Z"/>
          <path class="cls-6" d="m159.16,39.42c.4-.05.65-.53.45-.88-.12-.21-.26-.4-.39-.6-.34-.51-.91-.46-1.22.13-.06.11-.08.32-.02.4.28.33.59.63.91.92.05.05.18.02.28.03Z"/>
          <path class="cls-6" d="m111.35,69.85c.21,0,.43,0,.65.01-.3-.31-.97-.18-.99-.86,0-.13-.24-.28-.4-.38-.22-.14-.46-.12-.66.06-.2.19-.22.42-.1.66.16.31.39.55.78.55.24,0,.48-.03.72-.04Z"/>
        </g>
        <g>
          <path class="cls-14" d="m121.91,74.61c-.44-1.8-1.59-2.77-3.19-3.32-.46-.16-.91-.38-1.4-.58-.06-1.15-.33-2.25-.63-3.35-.47-1.71-1.28-3.22-2.55-4.46-.33-.32-.59-.59-.43-1.14.11-.35,0-.79-.08-1.17-.35-1.78-1.09-3.39-2.16-4.84-.14-.19-.34-.35-.54-.49-.13-.09-.3-.02-.39.1-.05.07-.1.2-.07.26.11.22.24.43.37.63.79,1.15,1.39,2.39,1.75,3.75.13.48.26.95.14,1.52-.65-.16-1.08-.67-1.63-.97-.56-.31-.93-.36-1.03-.08-.16.46.23.59.5.79.72.53,1.46,1.03,2.16,1.57,1.45,1.13,2.43,2.6,2.99,4.33.31.98.68,1.95.66,3.1-.51.05-.91-.12-1.32-.25-.57-.18-1.14-.35-1.74-.33-.24.01-.48.09-.72.16-.16.05-.2.2-.2.35,0,.18.13.29.27.29,2.3.04,4.28,1.13,6.35,1.9.66.24,1.19.7,1.56,1.32.58.95.28,1.65-.8,1.83-.24.04-.5.07-.74.04-2.71-.32-5.44-.29-8.14-.71-3.62-.56-7.25-1.07-10.87-1.59-1.18-.17-2.36-.35-3.54-.4-.97-.05-1.43-.56-1.68-1.38-.32-1.04-.21-2.06.26-3.03.17-.35.46-.69.49-1.05.04-.43-.51-.55-.76-.85-.92-1.07-1.6-2.24-1.84-3.66-.43-2.56-.66-5.11.16-7.64.15-.47.33-.93.51-1.39.13-.32.08-.59-.15-.81-.32-.3-.67-.58-1.02-.85-2.31-1.8-4.06-4.04-5.36-6.65-.89-1.8-1.29-3.74-1.64-5.69-.26-1.46-.39-2.94-.36-4.44.06-3.06,1.07-5.72,3.18-7.94,1.81-1.9,3.6-3.82,5.57-5.57,2.27-2.01,4.34-4.2,6.34-6.47.92-1.04,1.76-2.15,2.35-3.42.19-.42.56-.87.01-1.32-.08-.07-.05-.28-.05-.43.03-1.22-.33-2.34-.81-3.44-.43-.97-.6-1.99-.57-3.04,0-.25,0-.51.06-.74.54-1.86,1.39-2.29,2.85-2.16.76.07,1.48.29,2.09.71,1.39.96,2.33,2.27,2.82,3.89.06.18.12.41.06.57-.36,1.02-.49,2.13-1.22,3-.52.63-.85,1.34-.7,2.19.02.12.16.25.27.3.14.06.29-.03.35-.18.21-.5.16-1.09.55-1.52.06-.06.17-.11.25-.1.06,0,.14.13.14.2-.07,1.63.07,3.27-.4,4.87-.28.96-.69,1.85-1.25,2.68-1.56,2.34-3.54,4.26-5.84,5.86-.93.65-1.9,1.26-2.86,1.87-2.5,1.61-4.45,3.77-6.18,6.15-.29.4-.52.85-.71,1.3-.82,2.04-1.32,4.14-1.29,6.36.02,2.35.99,4.2,2.83,5.61.24.18.47.37.73.51.46.25.53.5.15.9-.16.17,0,.38.13.52.11.11.26.14.4.05.17-.1.33-.21.49-.33,2.78-2.07,5.98-3.02,9.36-3.47,3.24-.44,6.51-.57,9.77-.81,3.22-.23,6.4-.66,9.55-1.35,2.22-.49,4.47-.79,6.56-1.58.38.3.38.66.46,1,.13.53.27,1.05.44,1.57.09.27.41.42.58.32.2-.12.22-.31.18-.51-.13-.58-.27-1.16-.42-1.73-.53-1.97.29-3.58,1.35-5.13.05-.07.16-.11.25-.12.18,0,.24.15.27.29.35,1.56,1.11,2.96,1.84,4.36.16.3.3.64.64.79.08.03.22.05.27,0,.1-.09.23-.23.21-.34-.03-.19-.14-.36-.23-.53-.54-1.06-1.1-2.11-1.5-3.23-.5-1.38-.66-2.78-.38-4.23.37-1.95.8-3.88,1.41-5.76.75-2.32,1.88-4.46,3.31-6.44.41-.57.51-1.09.25-1.14-.51-.09-.67.35-.89.65-1.84,2.44-3.17,5.13-3.94,8.09-.44,1.68-.9,3.35-1.09,5.08-.06.52-.28.91-.61,1.3-1.03,1.23-1.79,2.62-2.12,4.2-.09.45-.3.66-.73.8-1.6.54-3.27.77-4.91,1.14-2.75.63-5.54,1.09-8.34,1.41-1.62.18-3.26.25-4.89.38-2.42.2-4.84.35-7.25.63-2.97.34-5.83,1.12-8.43,2.68-.5.3-.88.26-1.36-.01-1.06-.6-1.9-1.41-2.6-2.4-.47-.67-.71-1.44-.76-2.22-.25-3.37.39-6.52,2.57-9.2,1.69-2.09,3.58-3.96,5.93-5.33,1.46-.85,2.8-1.86,4.1-2.94,1.7-1.41,3.08-3.08,4.28-4.91.86-1.31,1.33-2.78,1.43-4.33.09-1.48.24-2.97-.06-4.44-.07-.34.08-.57.23-.82.54-.86.53-1.75.25-2.71-.49-1.62-1.39-2.98-2.67-4.03-1.51-1.23-3.26-1.59-5.17-1.03-.31.09-.55.2-.62.54,0,.05-.03.1-.06.13-1.46,1.85-1.27,3.86-.57,5.92.16.47.37.92.53,1.38.28.8.41,1.63.29,2.48-.1.71-.31,1.35-.89,1.82-.36.29-.68.58-.39,1.12.1.18-.06.37-.19.52-.35.41-.7.83-1.06,1.24-1.85,2.06-3.78,4.06-5.86,5.91-1.96,1.75-3.76,3.67-5.56,5.57-2.29,2.41-3.37,5.32-3.4,8.63-.03,2.9.44,5.73,1.33,8.47,1.07,3.28,3.02,5.99,5.64,8.22.38.32.77.63,1.17.92.33.24.38.48.23.88-.7,1.88-1.01,3.82-.89,5.83.08,1.34.28,2.66.58,3.96.17.73.49,1.4.92,2.01.29.4.6.79.92,1.16.32.37.46.71.18,1.19-.37.65-.52,1.38-.53,2.14-.02,1.14.42,2.11,1.01,3.05.15.24.4.27.64.29,1.18.13,2.37.22,3.54.38,1.91.26,3.81.61,5.73.85,3.68.47,7.34,1.16,11.06,1.3.89.03,1.78.14,2.66.23,1.01.1,1.99.08,2.82-.6.28-.23.63-.28.96-.36.34-.08.68-.12,1.02-.2.2-.05.37-.16.38-.39,0-.25-.2-.31-.39-.35-.14-.03-.3,0-.44,0-.24.01-.49.03-.89.06Z"/>
          <path class="cls-14" d="m155.89,46.97c.24,0,.52.08.73,0,1.31-.49,2.72-.53,4.07-.82.29-.06.59-.1.87-.17,1.49-.39,1.58-.47,2.14-1.92.34-.87.55-1.01,1.39-.96.67.04,1.25.31,1.77.7.15.11.31.29.34.46.2,1.11.49,2.22.36,3.37-.11.97-.48,1.81-1.13,2.53-.67.74-1.42,1.38-2.32,1.83-.35.18-.7.37-1.06.54-2.18,1.07-4.36,2.12-6.41,3.43-.45.29-.91.62-1.54.53-.21-.57-.14-1.13.06-1.7.15-.42.29-.84.41-1.27.06-.2.02-.41-.18-.51-.21-.1-.39,0-.5.19-.1.17-.18.35-.24.54-.35,1.08-.68,2.17-1.02,3.26-.06.19-.13.4-.1.58.25,1.51-.27,2.93-.49,4.38-.42,2.74-1.06,5.44-1.47,8.18-.22,1.5-.18,2.96.19,4.42.09.34.18.66.44.92.59.59.56,1.33.47,2.08-.06.49-.32.81-.72,1.06-.18.12-.27.32-.14.5.16.24.41.23.65.11.57-.29.9-.77,1.02-1.38.18-.95.16-1.9-.38-2.73-.68-1.05-.84-2.2-.79-3.4.07-1.69.41-3.34.73-4.99.49-2.53.97-5.05,1.36-7.6.08-.54.22-1.06.34-1.63.49-.05.99.07,1.42-.25.24-.17.53-.27.78-.43,2.17-1.4,4.49-2.52,6.8-3.64,1.17-.57,2.24-1.26,3.14-2.21,1-1.06,1.5-2.29,1.55-3.74.04-1.1-.33-2.15-.38-3.23,0-.13-.11-.28-.21-.38-.94-.98-2.07-1.53-3.46-1.35-.83.11-1.47.53-1.49,1.39-.02.92-.57,1.33-1.38,1.47-.97.16-1.92.48-2.97.37-.02-.62.45-.99.64-1.47.13-.32.36-.61.26-.98-.02-.08-.09-.19-.16-.22-.08-.04-.2-.02-.28.01-.08.03-.17.11-.21.19-.1.17-.19.35-.28.53-.6,1.21-1.41,2.24-2.61,2.93-.01.16-.02.32-.03.48Z"/>
          <path class="cls-14" d="m163.01,27.38c-.22.19-.4.46-.76.33-.43-.16-.82-.4-.95-.87-.14-.52-.24-1.06-.33-1.59-.09-.49-.14-.98-.21-1.47-.34-2.25-1.56-3.9-3.49-5.06-.42-.25-.85-.48-1.26-.71-.13-1.26-.24-2.49-.39-3.71-.18-1.43-.56-2.82-1.2-4.12-.49-.99-.82-1.15-1.89-.96-1.18.21-2.15.85-2.81,1.79-.28.4-.57.62-.97.81-2.99,1.41-5.26,3.66-7.21,6.26-.09.12-.15.26-.19.39-.04.15,0,.29.15.39.13.09.28.14.4.03.21-.2.43-.41.6-.65,1.16-1.64,2.68-2.92,4.2-4.18,1.28-1.06,2.78-1.69,4.4-2.05.62-.14.87.03.83.64-.08,1.09-.21,2.17-.35,3.25-.09.73-.25,1.46-.35,2.19-.02.14.07.28.23.34.16.06.32,0,.39-.11.12-.21.23-.44.27-.67.32-1.65.62-3.31.69-5,0-.15.01-.3,0-.45-.05-.83-.25-1.02-1.19-1.17-.1-.02-.19-.03-.29-.05-.04,0-.08-.04-.14-.08.34-.49.86-.64,1.39-.77.58-.14.82-.04,1.07.5.74,1.59,1.1,3.28,1.3,5.01.06.54.06,1.08.09,1.7-.61.06-1.09-.21-1.59-.31-.17-.03-.4-.1-.48.16-.06.21.03.43.19.53.24.16.52.29.8.37,1,.32,1.91.81,2.82,1.31,1.85,1,2.82,2.6,3,4.66.08.99.48,1.89.66,2.86.11.6.5,1.07,1.07,1.36.22.11.43.24.7.39-.31.73-.16,1.34.39,1.89.31.31.52.72.79,1.07.31.39.89.28,1.07-.19.25-.65.22-1.26-.27-1.8-.1-.11-.21-.21-.32-.31-.51-.42-.66-.96-.52-1.59l-.33-.34Z"/>
          <path class="cls-14" d="m141.29,65.74c.24.6.42,1.22.72,1.78.32.59.15,1.02-.24,1.47-.79.91-1.7,1.65-2.81,2.13-1.67.73-3.35,1.47-5.02,2.21-.3.13-.71.17-.67.64.02.31.41.4.99.16,1.88-.76,3.76-1.52,5.55-2.47.84-.44,1.57-1.03,2.21-1.73.2-.21.36-.48.74-.58.24.59.48,1.18.73,1.77.52,1.17.96,2.37,1.68,3.46.62.94,1.01,2.03,1.49,3.06.11.23.21.47.52.39.25-.07.34-.4.21-.76-.07-.18-.14-.37-.23-.54-1.17-2.13-1.94-4.44-2.76-6.71-.41-1.12-1.05-2.11-1.56-3.16-.21-.43-.3-.97-.85-1.16-.23.01-.46.02-.69.04Z"/>
          <path class="cls-14" d="m154.77,42.87s.05.1.09.11c.09.02.22.07.26.03.18-.16.37-.33.5-.53,1.58-2.45,3.46-4.69,4.92-7.22.4-.69.93-1.28,1.47-1.86.15-.16.43-.38.13-.59-.24-.18-.45.06-.62.23-.31.32-.64.63-.89.99-1.91,2.76-3.81,5.53-5.7,8.3-.11.16-.22.33-.16.55Z"/>
          <path class="cls-14" d="m160.37,41.85c.03.17.04.31.22.35.17.04.31-.04.36-.17.11-.27.23-.56.24-.84.02-.36.15-.65.36-.93.35-.48.63-.99.48-1.63-.08-.33.12-.55.36-.75,1.19-.97,1.49-2.39,1.88-3.76.04-.13,0-.29-.06-.42-.03-.07-.14-.14-.23-.16-.08-.02-.22,0-.27.06-.12.15-.21.33-.28.51-.19.51-.33,1.03-.54,1.53-.15.36-.3.76-.57,1.02-.92.91-1.26,2.04-1.41,3.27-.03.26-.13.45-.26.66-.25.38-.26.84-.28,1.26Z"/>
          <path class="cls-14" d="m140.42,64.25c-.33-.17-.18-.38-.06-.59.11-.19.12-.4-.04-.54-.16-.14-.36-.08-.55,0-.13.06-.26.13-.39.19-.17-.17-.11-.36-.1-.55.03-.36-.07-.64-.41-.87-.42-.29-.48-1.08-1.27-.89-.22.05-.48-.07-.73-.07-.2,0-.39.05-.42.31-.03.23.1.39.26.49.36.2.77.14,1.16.16.22,0,.51-.09.54.29.02.25-.01.5-.23.66-.12.08-.26.13-.4.17-.27.08-.45.21-.37.52.07.29.32.38.72.29.27-.06.5-.31.82-.18.15.25-.09.47-.04.7.03.14.07.32.17.37.1.05.31.02.4-.05.23-.18.4-.42.63-.6.16-.13.24.07.32.18,0,0-.01.01-.01.01Z"/>
          <path class="cls-14" d="m163.01,27.38l.33.34c.38-.34.5-.83.73-1.26.85-1.6,1.7-3.21,2.55-4.81.1-.19.14-.38-.08-.49-.2-.1-.38.02-.51.17-.07.07-.12.16-.16.24-.99,1.91-2.06,3.79-2.85,5.8Z"/>
          <path class="cls-14" d="m154.9,34.38c.07.05.13.14.21.16.09.02.2.02.29-.01,1.6-.6,3.2-1.2,4.8-1.82.15-.06.22-.19.16-.35-.06-.15-.19-.2-.35-.2-.05,0-.1,0-.15.02-1.56.58-3.12,1.16-4.67,1.75-.19.07-.31.24-.3.46Z"/>
          <path class="cls-14" d="m127.9,75.14c.85-.16,1.66-.07,2.36-.5.1-.06.21-.25.2-.36-.03-.21-.2-.33-.42-.3-.19.03-.39.05-.58.1-.92.22-1.83.3-2.76,0-.24-.08-.51-.05-.56.28-.04.28.15.48.4.54.47.11.96.17,1.37.24Z"/>
          <path class="cls-14" d="m150.39,80c.26-.03.38,0,.45-.05.11-.08.22-.19.26-.31.06-.2-.01-.45-.2-.48-.91-.16-1.83-.28-2.74-.4-.16-.02-.29.09-.31.24-.02.13,0,.3.07.41.07.11.21.24.33.26.77.13,1.54.24,2.15.33Z"/>
          <path class="cls-14" d="m155.98,28.13c.04.16.07.31.13.44.11.26.33.37.59.28.76-.27.94-1.23.34-1.78-.22-.2-.78-.08-.88.22-.09.28-.12.57-.18.85Z"/>
          <path class="cls-14" d="m155.89,46.97c.01-.16.02-.32.03-.48-.57.14-1.07.39-1.51.79-.17.15-.33.36-.6.35l.02-.02c.38.72.51.77,1.04.39.4-.28.78-.58,1.02-1.02Z"/>
          <path class="cls-14" d="m141.29,65.74c.23-.01.46-.02.69-.04-.08-.23-.17-.45-.24-.68-.21-.65-.72-.79-1.32-.77,0,0,.01-.01.01-.01.14.05.19.15.22.3.08.47.28.88.64,1.2Z"/>
          <path class="cls-14" d="m153.8,47.62c-.2-.15-.06-.36-.09-.53-.04-.23-.21-.39-.4-.34-.36.1-.81.08-.95.55-.09.29.36.4,1.09.23.16-.04.26-.06.36.07l-.02.02Z"/>
          <path class="cls-14" d="m124.19,74.47c.02.09.02.2.07.26.27.3.74.29.99-.03.05-.06.06-.18.05-.26-.04-.22-.21-.31-.41-.32-.3-.03-.57.04-.7.36Z"/>
          <path class="cls-14" d="m136.71,59.84c.26,0,.42-.08.49-.27.08-.21-.12-.42-.41-.43-.23,0-.48,0-.51.31-.02.21.22.39.42.39Z"/>
        </g>
      </g>
      <g>
        <g>
          <path class="cls-10" d="m222.52,23.66h-20.29l-4.27,16.2c-.09.33-.13.68-.13,1.02v24.09h29.09v-24.09c0-.34-.04-.69-.13-1.02l-4.27-16.2Z"/>
          <path class="cls-19" d="m222.66,23.46h-20.29c-.15,0-.46.07-.5.25-1.42,5.38-3.02,10.74-4.25,16.16-.42,1.83-.14,3.94-.14,5.8v19.4c0,.09.17.1.22.1h29.09c.17,0,.5-.08.5-.3v-17.92c0-2.15.18-4.38-.01-6.52-.08-.89-.41-1.79-.64-2.65l-1.33-5.05c-.81-3.06-1.61-6.12-2.42-9.18-.06-.25-.79-.05-.72.19,1.41,5.37,3.01,10.72,4.25,16.13.43,1.89.15,4.07.15,5.99v19.2l.5-.3h-26.67c-.67,0-1.48-.13-2.14,0-.41.08-.09-.14-.05.1-.02-.11-.02-.28,0-.39.15-.81,0-1.79,0-2.61v-18.26c0-1.36-.13-2.77.21-4.09,1.34-5.32,2.79-10.61,4.19-15.91l-.5.25h20.29c.27,0,.77-.4.28-.4Z"/>
        </g>
        <g>
          <rect class="cls-12" x="201.58" y="47.82" width="21.59" height="15.06"/>
          <path class="cls-19" d="m223.31,62.68h-19.87c-.39,0-1.36.19-1.72,0,.35.18.22-.16.22-.45v-14.51l-.51.29h19.87c.39,0,1.36-.19,1.72,0-.35-.18-.22.16-.22.45v14.51c0,.21.72.08.72-.19v-15.06c0-.08-.17-.1-.22-.1h-21.59c-.17,0-.51.08-.51.29v15.06c0,.08.17.1.22.1h21.59c.26,0,.77-.39.29-.39Z"/>
        </g>
        <g>
          <rect class="cls-20" x="202.19" y="20.42" width="20.33" height="3.24"/>
          <path class="cls-19" d="m222.75,23.51h-19.76c-.12,0-.36.05-.47,0-.02,0-.08.01-.09,0,.18.16.11-.17.13-.25.18-.9,0-2.01,0-2.94l-.6.25h19.76c.12,0,.36-.05.47,0,.02,0,.08-.01.09,0-.18-.16-.11.17-.13.25-.18.9,0,2.01,0,2.94,0,.12.72.02.72-.19v-3.24s-.11-.05-.13-.05h-20.33c-.13,0-.6.05-.6.25v3.24s.11.05.13.05h20.33c.16,0,.82-.3.47-.3Z"/>
        </g>
        <g>
          <path class="cls-13" d="m199.69,39.68l-.59-.25c3.67-8.23,3.2-14.92,3.2-14.98l.64-.05c0,.07.49,6.9-3.25,15.28Z"/>
          <path class="cls-19" d="m199.89,39.43l-.59-.25.14.3c1.48-3.35,2.52-6.9,2.99-10.53.19-1.48.34-3.02.23-4.52l-.4.3.64-.05-.34-.25c.11,1.47-.03,2.98-.21,4.43-.46,3.72-1.51,7.35-3.02,10.77-.17.39.56.4.7.1,1.51-3.41,2.56-7.03,3.04-10.74.19-1.51.35-3.09.23-4.61-.01-.18-.16-.27-.34-.25l-.64.05c-.14.01-.41.12-.4.3.1,1.44-.03,2.91-.21,4.34-.45,3.65-1.48,7.21-2.97,10.57-.06.13.02.25.14.3l.59.25c.32.14.84-.32.41-.51Z"/>
        </g>
        <g>
          <path class="cls-13" d="m213.39,44.24c-1.54,0-3.28-.06-5.25-.2l.05-.62c12.25.89,15.49-1.37,16.22-2.13-.61-.23-2.23-.59-5.44.19-4.71,1.15-10.51,1.15-14.42,0l.18-.6c3.81,1.12,9.47,1.12,14.08,0,4.59-1.12,6.2,0,6.27.05l.2.15-.1.22c-.06.14-1.41,2.95-11.79,2.95Z"/>
          <path class="cls-19" d="m213.43,43.98c-1.72,0-3.44-.08-5.16-.2l.24.23.05-.62-.49.29c4.19.29,8.58.47,12.7-.48,1.36-.31,2.94-.77,3.94-1.81.12-.12.06-.29-.09-.34-2.82-1.01-6.06.4-8.87.76-2.13.27-4.28.34-6.42.19-.93-.07-1.85-.18-2.76-.34-.37-.07-1.22-.1-1.53-.35l-.1.07.07-.24s.08-.27.09-.3l-.58.27c2.98.85,6.15.99,9.22.78,1.67-.12,3.33-.36,4.96-.74,1.48-.34,3.01-.64,4.54-.47.41.05,1.2.1,1.52.43.12.12.09.12-.02.28-.5.72-1.47,1.13-2.26,1.42-2.85,1.06-6.06,1.16-9.07,1.17-.41,0-.56.52-.07.52,3.33-.01,7.06-.11,10.14-1.56.86-.4,1.74-.94,2.12-1.84.04-.1.02-.18-.07-.24-1.74-1.27-4.51-.75-6.43-.32-4.62,1.03-9.57,1.41-14.19.1-.23-.06-.5.03-.58.27l-.18.6c-.03.1.08.19.16.21,3.43.97,7.11,1.07,10.64.7,1.95-.21,3.82-.75,5.76-1.02,1.13-.16,2.37-.25,3.46.14l-.09-.34c-.9.93-2.42,1.3-3.63,1.56-3.95.87-8.15.7-12.16.41-.17-.01-.48.07-.49.29l-.05.62c-.01.13.12.22.24.23,1.78.12,3.56.2,5.34.21.41,0,.56-.52.07-.52Z"/>
        </g>
      </g>
      <g>
        <g>
          <polygon class="cls-18" points="210.67 68.28 191.51 67.69 191.69 49.18 210.84 49.77 210.67 68.28"/>
          <path class="cls-19" d="m210.8,68.03c-5.59-.17-11.17-.34-16.76-.51l-2.4-.07.23.21c.05-5.39.1-10.78.15-16.17l.02-2.34-.5.28c5.59.17,11.17.34,16.76.51.8.02,1.6.05,2.4.07l-.23-.21c-.05,5.39-.1,10.78-.15,16.17l-.02,2.34c0,.35.73.23.73-.07.05-5.39.1-10.78.15-16.17l.02-2.34c0-.13-.11-.21-.23-.21-5.59-.17-11.17-.34-16.76-.51-.8-.02-1.6-.05-2.4-.07-.15,0-.49.07-.5.28-.05,5.39-.1,10.78-.15,16.17l-.02,2.34c0,.13.11.21.23.21,5.59.17,11.17.34,16.76.51.8.02,1.6.05,2.4.07.33,0,.75-.47.26-.49Z"/>
        </g>
        <g>
          <path class="cls-18" d="m210.92,64.11l-.08-10.02,2.1.1c1.29.06,2.5.64,3.42,1.63.92.99,1.43,2.27,1.44,3.61.02,2.76-2.12,4.91-4.77,4.78l-2.1-.1Zm.84-9.03l.06,8.13,1.19.06c2.15.11,3.89-1.63,3.87-3.87-.02-2.24-1.78-4.15-3.94-4.25l-1.19-.06Z"/>
          <g>
            <path class="cls-19" d="m211.21,64.03c-.02-2.92-.05-5.84-.07-8.77v-1.26c-.15.07-.28.15-.42.22.7.03,1.4.06,2.09.1,1.74.12,3.28,1.21,4.08,2.74.73,1.4.82,3.11.16,4.55s-1.96,2.38-3.5,2.45c-.83.04-1.68-.06-2.51-.1-.19,0-.62.27-.24.29.87.04,1.77.15,2.65.1,1.42-.09,2.79-.79,3.65-1.94,2.17-2.89.5-7.29-2.94-8.2-1.02-.27-2.15-.22-3.2-.27-.12,0-.41.07-.41.22.02,2.92.05,5.84.07,8.77v1.26c.01.14.59.05.59-.16Z"/>
            <path class="cls-19" d="m211.47,55.16l.06,7.11v1.02c0,.07.14.07.18.07.77.04,1.56.13,2.32-.05,1.08-.25,2.05-.93,2.6-1.89,1.24-2.15.21-5.01-2.01-6.04-.87-.4-1.81-.39-2.75-.43-.19,0-.62.27-.24.29.66.03,1.36.01,2,.21,1.05.32,1.94,1.09,2.45,2.06,1,1.91.43,4.67-1.75,5.46-.76.28-1.61.15-2.4.11l.17.07-.06-7.11v-1.02c0-.14-.59-.05-.59.16Z"/>
          </g>
        </g>
        <g>
          <path class="cls-15" d="m210.84,49.77c-.01,1.05-4.31,1.77-9.6,1.61-5.29-.16-9.57-1.14-9.56-2.19.01-1.05,4.31-1.77,9.6-1.61,5.29.16,9.57,1.14,9.56,2.19Z"/>
          <path class="cls-19" d="m210.48,49.81c-.07.68-1.61.86-2.11.95-1.48.28-3,.38-4.5.41-3.16.07-6.45-.07-9.53-.85-.53-.13-2.02-.4-2.25-1.05-.24-.69,1.23-.92,1.66-1.02,3.08-.69,6.41-.6,9.53-.37,1.64.12,3.29.32,4.89.72.56.14,2.23.45,2.3,1.24.02.24.75.09.72-.19-.06-.71-1.21-1.03-1.74-1.21-1.57-.51-3.24-.73-4.88-.89-3.66-.37-7.74-.54-11.32.42-.56.15-1.71.42-1.91,1.09s.82,1.07,1.29,1.25c1.45.56,3.04.78,4.58.96,2.11.25,4.25.34,6.38.29,1.83-.04,3.7-.15,5.48-.59.62-.15,2.04-.46,2.13-1.29.03-.29-.7-.16-.73.09Z"/>
        </g>
        <path class="cls-15" d="m192.03,52.63c-.06-.11,0,.12,0,0v-.92c.01.1.36.54,2.44,1.02,1.78.41,4.16.68,6.7.75,2.54.08,4.92-.05,6.71-.34,2.1-.35,2.53-.81,2.53-.91l-.02,1.03q-.29.24-2.38.59c-1.83.31-4.27.43-6.85.35-3.2-.1-7.64-.59-9.14-1.57Z"/>
        <g>
          <path class="cls-18" d="m210.67,68.28c0,1.05-4.31,1.77-9.6,1.61-5.29-.16-9.57-1.14-9.56-2.19.01-1.05,4.31-1.77,9.6-1.61,5.29.16,9.57,1.14,9.56,2.19Z"/>
          <path class="cls-19" d="m210.3,68.37c-.08.79-1.82.95-2.39,1.04-1.59.27-3.21.34-4.81.35-3.05.02-6.24-.13-9.19-.95-.5-.14-1.85-.44-2.02-1.08-.21-.78,1.43-1.01,1.89-1.1,3.19-.64,6.62-.55,9.84-.25,1.55.14,3.12.35,4.62.76.55.15,1.98.47,2.05,1.22,0,.11.74-.02.72-.19-.06-.73-1.32-1.04-1.86-1.2-1.76-.54-3.62-.75-5.45-.9-3.48-.28-7.31-.41-10.71.54-.5.14-1.69.41-1.84,1.04-.18.73,1.13,1.11,1.6,1.26,3.5,1.17,7.57,1.24,11.22,1.1,1.7-.07,3.43-.19,5.08-.63.58-.15,1.88-.44,1.96-1.2,0-.07-.7,0-.72.19Z"/>
        </g>
      </g>
      <g>
        <path class="cls-7" d="m181.44,14.18c.02,1.66-.14,3.31-.48,4.93-.16.78-.37,1.55-.61,2.31-.03.08-.06.17-.09.25-.03-.05-.06-.1-.09-.15-.29-.57-.53-1.16-.72-1.78-.38-1.27-.53-2.62-.4-3.95.09-.95-1.92-.19-2.19.19-2.04,2.85-3.29,6.19-4.51,9.5-.18.49.75.45.96.42.43-.07,1.13-.27,1.31-.77.71-1.93,1.43-3.87,2.32-5.72.12.6.27,1.19.49,1.76.28.73.65,1.42,1.08,2.06.21.31.43.71.77.87.47.23,1.14.09,1.59-.1.87-.37,1.13-1.19,1.44-2.06.32-.88.59-1.77.8-2.69.44-1.88.62-3.81.6-5.74,0-.63-2.29-.2-2.28.65Z"/>
        <g>
          <path class="cls-7" d="m188.43,17s0,0,0,0c0,.01-.04.03-.07.06.01,0,.06-.03.07-.06Z"/>
          <path class="cls-7" d="m192.14,16.11c-.61-.43-1.35-.75-2.09-.77-.97-.02-1.96.35-2.79.86-.52.32-1.19.78-1.48,1.37-.92,1.1-1.07,2.84-.15,3.99.34.42.86.62,1.36.71.93.18,1.95.21,2.84-.14.78-.31,1.49-.96,2.02-1.63.49-.63.99-1.42,1.11-2.24.12-.85-.12-1.66-.81-2.14Zm-3.26,5.14s.05-.04.09-.06c-.04.02-.08.03-.09.06Zm1.18-1.24c-.09.14-.18.27-.28.4-.04.06-.09.12-.14.17-.02.02-.03.04-.04.05-.01.01-.02.02-.05.04-.11.11-.21.21-.33.31-.04.03-.07.06-.11.09-.01,0-.02,0-.03,0-.12,0-.24,0-.36-.02-.08-.01-.16-.02-.24-.03-.09-.01-.18-.04-.26-.06-.03-.01-.06-.02-.09-.04-.07-.03-.28-.19-.12-.05-.07-.06-.13-.11-.2-.18-.06-.07-.12-.15-.17-.23-.02-.03-.04-.06-.05-.09.07.13-.04-.08-.05-.1-.14-.29-.22-.61-.25-.94-.05-.68.2-1.29.6-1.76.04-.07.08-.14.13-.2,0,0,.02-.03.03-.04,0,0,0,0,.02-.01.07-.07.14-.13.21-.2,0,0,.04-.03.07-.05,0,0,0-.01.07-.06,0,0,0,0,0,0,0,0,0,0,0,0,0,0,0,0,0,0,.09-.06.19-.13.29-.18,0,0,.02-.01.03-.02.05-.02.1-.05.15-.07.04-.02.08-.03.12-.05.03,0,.06-.02.09-.02,0,0,0,0,.01,0,0,0,.02,0,.03,0,.01,0,.03,0,.04,0,.27.12.55.23.81.37.19.11.32.19.48.42.15.21.23.58.23.87,0,.64-.3,1.18-.63,1.68Z"/>
        </g>
      </g>
      <g>
        <path class="cls-7" d="m196.06,12.1c-.48,1.89-.81,3.81-1,5.75-.11,1.14,2.11.86,2.21-.15.19-1.94.52-3.86,1-5.75.05-.21-.12-.45-.27-.56-.2-.14-.51-.2-.74-.18-.55.05-1.05.34-1.19.9h0Z"/>
        <path class="cls-7" d="m194.68,20.75l-.24,1.84c-.07.5.6.63.97.58.28-.04.59-.12.82-.29.17-.12.37-.29.4-.51l.24-1.84c.07-.5-.6-.63-.97-.58-.28.04-.59.12-.82.29-.17.12-.37.29-.4.51h0Z"/>
      </g>
      <g>
        <g>
          <path class="cls-9" d="m246.03,36.38c-1.81-.57-3.7-.28-5.34.62.83,1.67,2.23,2.98,4.04,3.54,1.81.57,3.7.29,5.34-.62-.83-1.67-2.23-2.98-4.04-3.54Z"/>
          <path class="cls-21" d="m244.74,40.53c1.81.57,3.7.29,5.34-.62l-9.38-2.92c.83,1.67,2.23,2.98,4.04,3.54Z"/>
        </g>
        <path class="cls-21" d="m254.31,37.77l-1.49-1.49c-.23-.23-.7-.1-.91.27-.44.77-1.29,2.05-2.74,3.5l-6.14,6.14c-.25.25-.3.61-.1.79l.5.48c.19.18.54.13.78-.11l5.36-5.36c1.4-1.4,3.4-2.67,4.47-3.31.36-.22.49-.68.26-.91Z"/>
        <g>
          <g>
            <g>
              <circle class="cls-16" cx="228.05" cy="67.29" r="3.43"/>
              <path class="cls-25" d="m229.94,65.53c.1-.4-.44-.88-1.2-1.07-.76-.19-1.45-.01-1.55.39-.1.4.44.88,1.2,1.07.76.19,1.45.01,1.55-.39Z"/>
              <path class="cls-17" d="m231.43,66.72c-.27.65-.74,1.21-1.38,1.6-1.62.98-3.72.46-4.7-1.15-.23-.38-.37-.79-.44-1.2-.41.98-.36,2.13.23,3.1.98,1.62,3.09,2.13,4.7,1.15,1.24-.75,1.83-2.16,1.6-3.51Z"/>
              <path class="cls-17" d="m231.46,67.59c-.27.65-.74,1.22-1.38,1.62-1.62.98-3.72.46-4.7-1.15-.39-.65-.54-1.37-.48-2.07-.4.97-.36,2.12.23,3.09.98,1.62,3.09,2.13,4.7,1.15.97-.59,1.54-1.58,1.63-2.63Z"/>
              <path class="cls-17" d="m230.98,65.52c-.98-1.62-3.09-2.13-4.7-1.15-1.62.98-2.13,3.09-1.15,4.7.98,1.62,3.09,2.13,4.7,1.15,1.62-.98,2.13-3.09,1.15-4.7Zm-5.64,3.42c-.91-1.5-.43-3.44,1.07-4.35,1.5-.91,3.44-.43,4.35,1.07.91,1.5.43,3.44-1.07,4.35-1.5.91-3.44.43-4.35-1.07Z"/>
            </g>
            <g>
              <path class="cls-16" d="m224.17,64.13c-1.62.98-3.72.46-4.7-1.15-.98-1.62-.46-3.72,1.15-4.7,1.62-.98,3.72-.46,4.7,1.15.98,1.62.46,3.72-1.15,4.7Z"/>
              <path class="cls-25" d="m224.28,59.44c.1-.4-.44-.88-1.2-1.07s-1.45-.01-1.55.39c-.1.4.44.88,1.2,1.07.76.19,1.45.01,1.55-.39Z"/>
              <path class="cls-17" d="m225.76,60.62c-.27.64-.74,1.21-1.38,1.6-1.62.98-3.72.46-4.7-1.15-.23-.38-.37-.79-.44-1.2-.41.98-.36,2.13.23,3.1.98,1.62,3.09,2.13,4.7,1.15,1.24-.75,1.83-2.16,1.6-3.51Z"/>
              <path class="cls-17" d="m225.8,61.5c-.27.65-.74,1.22-1.38,1.62-1.62.98-3.72.46-4.7-1.15-.39-.65-.54-1.37-.48-2.07-.4.97-.36,2.12.23,3.09.98,1.62,3.09,2.13,4.7,1.15.97-.59,1.54-1.58,1.63-2.63Z"/>
              <path class="cls-17" d="m225.32,59.42c-.98-1.62-3.09-2.13-4.7-1.15-1.62.98-2.13,3.09-1.15,4.7.98,1.62,3.09,2.13,4.7,1.15,1.62-.98,2.13-3.09,1.15-4.7Zm-5.64,3.42c-.91-1.5-.43-3.44,1.07-4.35,1.5-.91,3.44-.43,4.35,1.07.91,1.5.43,3.44-1.07,4.35-1.5.91-3.44.43-4.35-1.07Z"/>
            </g>
            <g>
              <circle class="cls-16" cx="234.9" cy="65.32" r="4.69" transform="translate(115.32 277.8) rotate(-76.17)"/>
              <path class="cls-25" d="m237.48,62.91c.14-.55-.6-1.21-1.64-1.46s-1.99-.01-2.13.54.6,1.21,1.64,1.46c1.04.26,1.99.01,2.13-.54Z"/>
              <path class="cls-17" d="m239.52,64.53c-.37.88-1.01,1.66-1.89,2.2-2.22,1.34-5.1.64-6.44-1.58-.32-.52-.51-1.08-.61-1.64-.56,1.34-.5,2.91.31,4.25,1.34,2.22,4.23,2.92,6.44,1.58,1.7-1.03,2.5-2.96,2.19-4.8Z"/>
              <path class="cls-17" d="m239.57,65.73c-.37.89-1.01,1.68-1.9,2.21-2.22,1.34-5.1.64-6.44-1.58-.54-.89-.74-1.88-.66-2.84-.55,1.33-.49,2.9.32,4.23,1.34,2.22,4.23,2.92,6.44,1.58,1.33-.81,2.11-2.17,2.24-3.61Z"/>
              <path class="cls-17" d="m238.91,62.89c-1.34-2.22-4.23-2.92-6.44-1.58s-2.92,4.23-1.58,6.44c1.34,2.22,4.23,2.92,6.44,1.58,2.22-1.34,2.92-4.23,1.58-6.44Zm-7.72,4.68c-1.24-2.05-.59-4.72,1.46-5.96,2.05-1.24,4.72-.59,5.96,1.46,1.24,2.05.59,4.72-1.46,5.96-2.05,1.24-4.72.59-5.96-1.46Z"/>
            </g>
            <g>
              <path class="cls-16" d="m241.21,61.62c-1.83,1.11-4.22.53-5.33-1.31s-.53-4.22,1.31-5.33c1.83-1.11,4.22-.53,5.33,1.31,1.11,1.83.53,4.22-1.31,5.33Z"/>
              <path class="cls-25" d="m241.34,56.3c.11-.46-.49-1-1.35-1.21-.86-.21-1.65-.01-1.76.44s.49,1,1.35,1.21c.86.21,1.65.01,1.76-.44Z"/>
              <path class="cls-17" d="m243.02,57.64c-.31.73-.83,1.38-1.56,1.82-1.83,1.11-4.22.53-5.33-1.31-.26-.43-.42-.89-.5-1.36-.46,1.11-.41,2.41.26,3.51,1.11,1.83,3.5,2.42,5.33,1.31,1.4-.85,2.07-2.45,1.81-3.97Z"/>
              <path class="cls-17" d="m243.06,58.63c-.31.74-.83,1.39-1.57,1.83-1.83,1.11-4.22.53-5.33-1.31-.44-.73-.61-1.55-.54-2.35-.46,1.1-.41,2.4.26,3.5,1.11,1.83,3.5,2.42,5.33,1.31,1.1-.67,1.75-1.79,1.85-2.98Z"/>
              <path class="cls-17" d="m242.52,56.29c-1.11-1.83-3.5-2.42-5.33-1.31-1.83,1.11-2.42,3.5-1.31,5.33,1.11,1.83,3.5,2.42,5.33,1.31,1.83-1.11,2.42-3.5,1.31-5.33Zm-6.39,3.87c-1.03-1.69-.49-3.9,1.21-4.93,1.69-1.03,3.9-.49,4.93,1.21,1.03,1.69.49,3.9-1.21,4.93s-3.9.49-4.93-1.21Z"/>
            </g>
            <g>
              <path class="cls-16" d="m239.35,51.08c-1.83,1.11-4.22.53-5.33-1.31-1.11-1.83-.53-4.22,1.31-5.33,1.83-1.11,4.22-.53,5.33,1.31,1.11,1.83.53,4.22-1.31,5.33Z"/>
              <path class="cls-25" d="m239.47,45.77c.11-.46-.49-1-1.35-1.21-.86-.21-1.65-.01-1.76.44-.11.46.49,1,1.35,1.21.86.21,1.65.01,1.76-.44Z"/>
              <path class="cls-17" d="m241.16,47.11c-.31.73-.83,1.38-1.56,1.82-1.83,1.11-4.22.53-5.33-1.31-.26-.43-.42-.89-.5-1.36-.46,1.11-.41,2.41.26,3.51,1.11,1.83,3.5,2.42,5.33,1.31,1.4-.85,2.07-2.45,1.81-3.97Z"/>
              <path class="cls-17" d="m241.2,48.1c-.31.74-.83,1.39-1.57,1.83-1.83,1.11-4.22.53-5.33-1.31-.44-.73-.61-1.55-.54-2.35-.46,1.1-.41,2.4.26,3.5,1.11,1.83,3.5,2.42,5.33,1.31,1.1-.67,1.75-1.79,1.85-2.98Z"/>
              <path class="cls-17" d="m240.65,45.75c-1.11-1.83-3.5-2.42-5.33-1.31-1.83,1.11-2.42,3.5-1.31,5.33,1.11,1.83,3.5,2.42,5.33,1.31,1.83-1.11,2.42-3.5,1.31-5.33Zm-6.39,3.87c-1.03-1.69-.49-3.9,1.21-4.93,1.69-1.03,3.9-.49,4.93,1.21,1.03,1.69.49,3.9-1.21,4.93-1.69,1.03-3.9.49-4.93-1.21Z"/>
            </g>
            <g>
              <path class="cls-16" d="m229.6,50.15c-1.83,1.11-4.22.53-5.33-1.31-1.11-1.83-.53-4.22,1.31-5.33,1.83-1.11,4.22-.53,5.33,1.31,1.11,1.83.53,4.22-1.31,5.33Z"/>
              <path class="cls-25" d="m229.73,44.84c.11-.46-.49-1-1.35-1.21-.86-.21-1.65-.01-1.76.44-.11.46.49,1,1.35,1.21.86.21,1.65.01,1.76-.44Z"/>
              <path class="cls-17" d="m231.41,46.18c-.31.73-.83,1.38-1.56,1.82-1.83,1.11-4.22.53-5.33-1.31-.26-.43-.42-.89-.5-1.36-.46,1.11-.41,2.41.26,3.51,1.11,1.83,3.5,2.42,5.33,1.31,1.4-.85,2.07-2.45,1.81-3.97Z"/>
              <path class="cls-17" d="m231.45,47.17c-.31.74-.83,1.39-1.57,1.83-1.83,1.11-4.22.53-5.33-1.31-.44-.73-.61-1.55-.54-2.35-.46,1.1-.41,2.4.26,3.5,1.11,1.83,3.5,2.42,5.33,1.31,1.1-.67,1.75-1.79,1.85-2.98Z"/>
              <path class="cls-17" d="m230.91,44.82c-1.11-1.83-3.5-2.42-5.33-1.31-1.83,1.11-2.42,3.5-1.31,5.33,1.11,1.83,3.5,2.42,5.33,1.31,1.83-1.11,2.42-3.5,1.31-5.33Zm-6.39,3.87c-1.03-1.69-.49-3.9,1.21-4.93,1.69-1.03,3.9-.49,4.93,1.21s.49,3.9-1.21,4.93c-1.69,1.03-3.9.49-4.93-1.21Z"/>
            </g>
            <g>
              <circle class="cls-16" cx="234.05" cy="42.95" r="4.78" transform="translate(171.64 272.57) rotate(-85.19)"/>
              <path class="cls-25" d="m236.68,40.49c.14-.56-.61-1.23-1.67-1.49s-2.03-.01-2.17.55c-.14.56.61,1.23,1.67,1.49,1.06.26,2.03.01,2.17-.55Z"/>
              <path class="cls-17" d="m238.75,42.14c-.38.9-1.03,1.69-1.92,2.24-2.26,1.37-5.19.65-6.56-1.61-.32-.53-.52-1.1-.62-1.67-.57,1.36-.51,2.97.32,4.32,1.37,2.26,4.31,2.98,6.56,1.61,1.73-1.05,2.55-3.01,2.23-4.89Z"/>
              <path class="cls-17" d="m238.8,43.36c-.38.91-1.03,1.71-1.93,2.25-2.26,1.37-5.19.65-6.56-1.61-.55-.9-.75-1.91-.67-2.89-.56,1.36-.5,2.96.32,4.31,1.37,2.26,4.31,2.98,6.56,1.61,1.35-.82,2.15-2.21,2.28-3.67Z"/>
              <path class="cls-17" d="m238.13,40.47c-1.37-2.26-4.31-2.98-6.56-1.61-2.26,1.37-2.98,4.31-1.61,6.56,1.37,2.26,4.31,2.98,6.56,1.61,2.26-1.37,2.98-4.31,1.61-6.56Zm-7.86,4.77c-1.26-2.09-.6-4.8,1.49-6.07,2.09-1.26,4.8-.6,6.07,1.49,1.26,2.09.6,4.8-1.49,6.07-2.09,1.26-4.8.6-6.07-1.49Z"/>
            </g>
            <g>
              <path class="cls-16" d="m244.63,54.41c-2.26,1.37-5.19.65-6.56-1.61s-.65-5.19,1.61-6.56c2.26-1.37,5.19-.65,6.56,1.61,1.37,2.26.65,5.19-1.61,6.56Z"/>
              <path class="cls-25" d="m244.79,47.87c.14-.56-.61-1.23-1.67-1.49-1.06-.26-2.03-.01-2.17.55-.14.56.61,1.23,1.67,1.49,1.06.26,2.03.01,2.17-.55Z"/>
              <path class="cls-17" d="m246.86,49.52c-.38.9-1.03,1.69-1.92,2.24-2.26,1.37-5.19.65-6.56-1.61-.32-.53-.52-1.1-.62-1.67-.57,1.36-.51,2.97.32,4.32,1.37,2.26,4.31,2.98,6.56,1.61,1.73-1.05,2.55-3.01,2.23-4.89Z"/>
              <path class="cls-17" d="m246.91,50.73c-.38.91-1.03,1.71-1.93,2.25-2.26,1.37-5.19.65-6.56-1.61-.55-.9-.75-1.91-.67-2.89-.56,1.36-.5,2.96.32,4.31,1.37,2.26,4.31,2.98,6.56,1.61,1.35-.82,2.15-2.21,2.28-3.67Z"/>
              <path class="cls-17" d="m246.24,47.84c-1.37-2.26-4.31-2.98-6.56-1.61-2.26,1.37-2.98,4.31-1.61,6.56s4.31,2.98,6.56,1.61c2.26-1.37,2.98-4.31,1.61-6.56Zm-7.86,4.77c-1.26-2.09-.6-4.8,1.49-6.07,2.09-1.26,4.8-.6,6.07,1.49,1.26,2.09.6,4.8-1.49,6.07-2.09,1.26-4.8.6-6.07-1.49Z"/>
            </g>
            <g>
              <path class="cls-16" d="m250.73,59.35c-2.26,1.37-5.19.65-6.56-1.61-1.37-2.26-.65-5.19,1.61-6.56,2.26-1.37,5.19-.65,6.56,1.61,1.37,2.26.65,5.19-1.61,6.56Z"/>
              <path class="cls-25" d="m250.88,52.81c.14-.56-.61-1.23-1.67-1.49-1.06-.26-2.03-.01-2.17.55-.14.56.61,1.23,1.67,1.49,1.06.26,2.03.01,2.17-.55Z"/>
              <path class="cls-17" d="m252.96,54.46c-.38.9-1.03,1.69-1.92,2.24-2.26,1.37-5.19.65-6.56-1.61-.32-.53-.52-1.1-.62-1.67-.57,1.36-.51,2.97.32,4.32,1.37,2.26,4.31,2.98,6.56,1.61,1.73-1.05,2.55-3.01,2.23-4.89Z"/>
              <path class="cls-17" d="m253,55.68c-.38.91-1.03,1.71-1.93,2.25-2.26,1.37-5.19.65-6.56-1.61-.55-.9-.75-1.91-.67-2.89-.56,1.36-.5,2.96.32,4.31,1.37,2.26,4.31,2.98,6.56,1.61,1.35-.82,2.15-2.21,2.28-3.67Z"/>
              <path class="cls-17" d="m252.34,52.79c-1.37-2.26-4.31-2.98-6.56-1.61-2.26,1.37-2.98,4.31-1.61,6.56,1.37,2.26,4.31,2.98,6.56,1.61,2.26-1.37,2.98-4.31,1.61-6.56Zm-7.86,4.77c-1.26-2.09-.6-4.8,1.49-6.07,2.09-1.26,4.8-.6,6.07,1.49,1.26,2.09.6,4.8-1.49,6.07-2.09,1.26-4.8.6-6.07-1.49Z"/>
            </g>
          </g>
          <g>
            <g>
              <g>
                <g>
                  <circle class="cls-23" cx="249.23" cy="49.65" r="4.78" transform="translate(140.18 279.19) rotate(-75.85)"/>
                  <path class="cls-25" d="m251.86,47.2c.14-.56-.61-1.23-1.67-1.49s-2.03-.01-2.17.55c-.14.56.61,1.23,1.67,1.49s2.03.01,2.17-.55Z"/>
                  <path class="cls-24" d="m253.94,48.85c-.38.9-1.03,1.69-1.92,2.24-2.26,1.37-5.19.65-6.56-1.61-.32-.53-.52-1.1-.62-1.67-.57,1.36-.51,2.97.32,4.32,1.37,2.26,4.31,2.98,6.56,1.61,1.73-1.05,2.55-3.01,2.23-4.89Z"/>
                  <path class="cls-24" d="m253.98,50.06c-.38.91-1.03,1.71-1.93,2.25-2.26,1.37-5.19.65-6.56-1.61-.55-.9-.75-1.91-.67-2.89-.56,1.36-.5,2.96.32,4.31,1.37,2.26,4.31,2.98,6.56,1.61,1.35-.82,2.15-2.21,2.28-3.67Z"/>
                  <path class="cls-24" d="m253.32,47.17c-1.37-2.26-4.31-2.98-6.56-1.61-2.26,1.37-2.98,4.31-1.61,6.56,1.37,2.26,4.31,2.98,6.56,1.61,2.26-1.37,2.98-4.31,1.61-6.56Zm-7.86,4.77c-1.26-2.09-.6-4.8,1.49-6.07,2.09-1.26,4.8-.6,6.07,1.49,1.26,2.09.6,4.8-1.49,6.07-2.09,1.26-4.8.6-6.07-1.49Z"/>
                </g>
                <g>
                  <circle class="cls-23" cx="240.51" cy="42.22" r="4.78" transform="translate(178.29 278.35) rotate(-85.19)"/>
                  <path class="cls-25" d="m243.14,39.77c.14-.56-.61-1.23-1.67-1.49-1.06-.26-2.03-.01-2.17.55-.14.56.61,1.23,1.67,1.49,1.06.26,2.03.01,2.17-.55Z"/>
                  <path class="cls-24" d="m245.22,41.42c-.38.9-1.03,1.69-1.92,2.24-2.26,1.37-5.19.65-6.56-1.61-.32-.53-.52-1.1-.62-1.67-.57,1.36-.51,2.97.32,4.32,1.37,2.26,4.31,2.98,6.56,1.61,1.73-1.05,2.55-3.01,2.23-4.89Z"/>
                  <path class="cls-24" d="m245.26,42.63c-.38.91-1.03,1.71-1.93,2.25-2.26,1.37-5.19.65-6.56-1.61-.55-.9-.75-1.91-.67-2.89-.56,1.36-.5,2.96.32,4.31,1.37,2.26,4.31,2.98,6.56,1.61,1.35-.82,2.15-2.21,2.28-3.67Z"/>
                  <path class="cls-24" d="m244.6,39.74c-1.37-2.26-4.31-2.98-6.56-1.61-2.26,1.37-2.98,4.31-1.61,6.56,1.37,2.26,4.31,2.98,6.56,1.61,2.26-1.37,2.98-4.31,1.61-6.56Zm-7.86,4.77c-1.26-2.09-.6-4.8,1.49-6.07,2.09-1.26,4.8-.6,6.07,1.49,1.26,2.09.6,4.8-1.49,6.07-2.09,1.26-4.8.6-6.07-1.49Z"/>
                </g>
                <g>
                  <path class="cls-23" d="m223.45,70.29c-1.62.98-3.72.46-4.7-1.15-.98-1.62-.46-3.72,1.15-4.7,1.62-.98,3.72-.46,4.7,1.15.98,1.62.46,3.72-1.15,4.7Z"/>
                  <path class="cls-25" d="m223.56,65.6c.1-.4-.44-.88-1.2-1.07-.76-.19-1.45-.01-1.55.39-.1.4.44.88,1.2,1.07.76.19,1.45.01,1.55-.39Z"/>
                  <path class="cls-24" d="m225.05,66.79c-.27.64-.74,1.21-1.38,1.6-1.62.98-3.72.46-4.7-1.15-.23-.38-.37-.79-.44-1.2-.41.98-.36,2.13.23,3.1.98,1.62,3.09,2.13,4.7,1.15,1.24-.75,1.83-2.16,1.6-3.51Z"/>
                  <path class="cls-24" d="m225.08,67.66c-.27.65-.74,1.22-1.38,1.62-1.62.98-3.72.46-4.7-1.15-.39-.65-.54-1.37-.48-2.07-.4.97-.36,2.12.23,3.09.98,1.62,3.09,2.13,4.7,1.15.97-.59,1.54-1.58,1.63-2.63Z"/>
                  <path class="cls-24" d="m224.6,65.59c-.98-1.62-3.09-2.13-4.7-1.15-1.62.98-2.13,3.09-1.15,4.7.98,1.62,3.09,2.13,4.7,1.15,1.62-.98,2.13-3.09,1.15-4.7Zm-5.64,3.42c-.91-1.5-.43-3.44,1.07-4.35,1.5-.91,3.44-.43,4.35,1.07.91,1.5.43,3.44-1.07,4.35-1.5.91-3.44.43-4.35-1.07Z"/>
                </g>
                <g>
                  <path class="cls-23" d="m233.17,64.17c-2.22,1.34-5.1.64-6.44-1.58-1.34-2.22-.64-5.1,1.58-6.44,2.22-1.34,5.1-.64,6.44,1.58,1.34,2.22.64,5.1-1.58,6.44Z"/>
                  <path class="cls-25" d="m233.33,57.75c.14-.55-.6-1.21-1.64-1.46-1.04-.26-1.99-.01-2.13.54-.14.55.6,1.21,1.64,1.46,1.04.26,1.99.01,2.13-.54Z"/>
                  <path class="cls-24" d="m235.36,59.37c-.37.88-1.01,1.66-1.89,2.2-2.22,1.34-5.1.64-6.44-1.58-.32-.52-.51-1.08-.61-1.64-.56,1.34-.5,2.91.31,4.25,1.34,2.22,4.23,2.92,6.44,1.58,1.7-1.03,2.5-2.96,2.19-4.8Z"/>
                  <path class="cls-24" d="m235.41,60.57c-.37.89-1.01,1.68-1.9,2.21-2.22,1.34-5.1.64-6.44-1.58-.54-.89-.74-1.88-.66-2.84-.55,1.33-.49,2.9.32,4.23,1.34,2.22,4.23,2.92,6.44,1.58,1.33-.81,2.11-2.17,2.24-3.61Z"/>
                  <path class="cls-24" d="m234.75,57.73c-1.34-2.22-4.23-2.92-6.44-1.58-2.22,1.34-2.92,4.23-1.58,6.44,1.34,2.22,4.23,2.92,6.44,1.58,2.22-1.34,2.92-4.23,1.58-6.44Zm-7.72,4.68c-1.24-2.05-.59-4.72,1.46-5.96,2.05-1.24,4.72-.59,5.96,1.46,1.24,2.05.59,4.72-1.46,5.96-2.05,1.24-4.72.59-5.96-1.46Z"/>
                </g>
              </g>
              <g>
                <circle class="cls-23" cx="223.64" cy="53.35" r="4.69"/>
                <path class="cls-25" d="m226.23,50.94c.14-.55-.6-1.21-1.64-1.46-1.04-.26-1.99-.01-2.13.54s.6,1.21,1.64,1.46c1.04.26,1.99.01,2.13-.54Z"/>
                <path class="cls-24" d="m228.27,52.56c-.37.88-1.01,1.66-1.89,2.2-2.22,1.34-5.1.64-6.44-1.58-.32-.52-.51-1.08-.61-1.64-.56,1.34-.5,2.91.31,4.25,1.34,2.22,4.23,2.92,6.44,1.58,1.7-1.03,2.5-2.96,2.19-4.8Z"/>
                <path class="cls-24" d="m228.31,53.76c-.37.89-1.01,1.68-1.9,2.21-2.22,1.34-5.1.64-6.44-1.58-.54-.89-.74-1.88-.66-2.84-.55,1.33-.49,2.9.32,4.23,1.34,2.22,4.23,2.92,6.44,1.58,1.33-.81,2.11-2.17,2.24-3.61Z"/>
                <path class="cls-24" d="m227.66,50.92c-1.34-2.22-4.23-2.92-6.44-1.58-2.22,1.34-2.92,4.23-1.58,6.44,1.34,2.22,4.23,2.92,6.44,1.58,2.22-1.34,2.92-4.23,1.58-6.44Zm-7.72,4.68c-1.24-2.05-.59-4.72,1.46-5.96,2.05-1.24,4.72-.59,5.96,1.46,1.24,2.05.59,4.72-1.46,5.96-2.05,1.24-4.72.59-5.96-1.46Z"/>
              </g>
            </g>
            <g>
              <circle class="cls-23" cx="244.29" cy="62.96" r="4.69" transform="translate(-4.81 102.84) rotate(-23.55)"/>
              <path class="cls-25" d="m246.87,60.55c.14-.55-.6-1.21-1.64-1.46-1.04-.26-1.99-.01-2.13.54s.6,1.21,1.64,1.46c1.04.26,1.99.01,2.13-.54Z"/>
              <path class="cls-24" d="m248.91,62.17c-.37.88-1.01,1.66-1.89,2.2-2.22,1.34-5.1.64-6.44-1.58-.32-.52-.51-1.08-.61-1.64-.56,1.34-.5,2.91.31,4.25,1.34,2.22,4.23,2.92,6.44,1.58,1.7-1.03,2.5-2.96,2.19-4.8Z"/>
              <path class="cls-24" d="m248.96,63.36c-.37.89-1.01,1.68-1.9,2.21-2.22,1.34-5.1.64-6.44-1.58-.54-.89-.74-1.88-.66-2.84-.55,1.33-.49,2.9.32,4.23,1.34,2.22,4.23,2.92,6.44,1.58,1.33-.81,2.11-2.17,2.24-3.61Z"/>
              <path class="cls-24" d="m248.3,60.52c-1.34-2.22-4.23-2.92-6.44-1.58-2.22,1.34-2.92,4.23-1.58,6.44,1.34,2.22,4.23,2.92,6.44,1.58,2.22-1.34,2.92-4.23,1.58-6.44Zm-7.72,4.68c-1.24-2.05-.59-4.72,1.46-5.96,2.05-1.24,4.72-.59,5.96,1.46,1.24,2.05.59,4.72-1.46,5.96-2.05,1.24-4.72.59-5.96-1.46Z"/>
            </g>
          </g>
          <g>
            <circle class="cls-16" cx="230.03" cy="54.33" r="4.69" transform="translate(122.74 264.93) rotate(-76.29)"/>
            <path class="cls-25" d="m232.62,51.92c.14-.55-.6-1.21-1.64-1.46s-1.99-.01-2.13.54c-.14.55.6,1.21,1.64,1.46s1.99.01,2.13-.54Z"/>
            <path class="cls-17" d="m234.65,53.54c-.37.88-1.01,1.66-1.89,2.2-2.22,1.34-5.1.64-6.44-1.58-.32-.52-.51-1.08-.61-1.64-.56,1.34-.5,2.91.31,4.25,1.34,2.22,4.23,2.92,6.44,1.58,1.7-1.03,2.5-2.96,2.19-4.8Z"/>
            <path class="cls-17" d="m234.7,54.74c-.37.89-1.01,1.68-1.9,2.21-2.22,1.34-5.1.64-6.44-1.58-.54-.89-.74-1.88-.66-2.84-.55,1.33-.49,2.9.32,4.23,1.34,2.22,4.23,2.92,6.44,1.58,1.33-.81,2.11-2.17,2.24-3.61Z"/>
            <path class="cls-17" d="m234.04,51.9c-1.34-2.22-4.23-2.92-6.44-1.58-2.22,1.34-2.92,4.23-1.58,6.44,1.34,2.22,4.23,2.92,6.44,1.58,2.22-1.34,2.92-4.23,1.58-6.44Zm-7.72,4.68c-1.24-2.05-.59-4.72,1.46-5.96,2.05-1.24,4.72-.59,5.96,1.46,1.24,2.05.59,4.72-1.46,5.96-2.05,1.24-4.72.59-5.96-1.46Z"/>
          </g>
          <g>
            <circle class="cls-16" cx="235.9" cy="56.58" r="4.69" transform="translate(119.71 269.53) rotate(-74.87)"/>
            <path class="cls-25" d="m238.49,54.17c.14-.55-.6-1.21-1.64-1.46s-1.99-.01-2.13.54c-.14.55.6,1.21,1.64,1.46,1.04.26,1.99.01,2.13-.54Z"/>
            <path class="cls-17" d="m240.52,55.79c-.37.88-1.01,1.66-1.89,2.2-2.22,1.34-5.1.64-6.44-1.58-.32-.52-.51-1.08-.61-1.64-.56,1.34-.5,2.91.31,4.25,1.34,2.22,4.23,2.92,6.44,1.58,1.7-1.03,2.5-2.96,2.19-4.8Z"/>
            <path class="cls-17" d="m240.57,56.98c-.37.89-1.01,1.68-1.9,2.21-2.22,1.34-5.1.64-6.44-1.58-.54-.89-.74-1.88-.66-2.84-.55,1.33-.49,2.9.32,4.23,1.34,2.22,4.23,2.92,6.44,1.58,1.33-.81,2.11-2.17,2.24-3.61Z"/>
            <path class="cls-17" d="m239.91,54.14c-1.34-2.22-4.23-2.92-6.44-1.58-2.22,1.34-2.92,4.23-1.58,6.44,1.34,2.22,4.23,2.92,6.44,1.58s2.92-4.23,1.58-6.44Zm-7.72,4.68c-1.24-2.05-.59-4.72,1.46-5.96,2.05-1.24,4.72-.59,5.96,1.46,1.24,2.05.59,4.72-1.46,5.96-2.05,1.24-4.72.59-5.96-1.46Z"/>
          </g>
          <g>
            <circle class="cls-16" cx="242.21" cy="58.15" r="4.69" transform="translate(128.51 279.78) rotate(-76.34)"/>
            <path class="cls-25" d="m244.79,55.74c.14-.55-.6-1.21-1.64-1.46-1.04-.26-1.99-.01-2.13.54-.14.55.6,1.21,1.64,1.46s1.99.01,2.13-.54Z"/>
            <path class="cls-17" d="m246.83,57.36c-.37.88-1.01,1.66-1.89,2.2-2.22,1.34-5.1.64-6.44-1.58-.32-.52-.51-1.08-.61-1.64-.56,1.34-.5,2.91.31,4.25,1.34,2.22,4.23,2.92,6.44,1.58,1.7-1.03,2.5-2.96,2.19-4.8Z"/>
            <path class="cls-17" d="m246.88,58.56c-.37.89-1.01,1.68-1.9,2.21-2.22,1.34-5.1.64-6.44-1.58-.54-.89-.74-1.88-.66-2.84-.55,1.33-.49,2.9.32,4.23,1.34,2.22,4.23,2.92,6.44,1.58,1.33-.81,2.11-2.17,2.24-3.61Z"/>
            <path class="cls-17" d="m246.22,55.72c-1.34-2.22-4.23-2.92-6.44-1.58-2.22,1.34-2.92,4.23-1.58,6.44s4.23,2.92,6.44,1.58c2.22-1.34,2.92-4.23,1.58-6.44Zm-7.72,4.68c-1.24-2.05-.59-4.72,1.46-5.96,2.05-1.24,4.72-.59,5.96,1.46,1.24,2.05.59,4.72-1.46,5.96-2.05,1.24-4.72.59-5.96-1.46Z"/>
          </g>
          <g>
            <circle class="cls-16" cx="225.62" cy="61.54" r="4.69"/>
            <path class="cls-25" d="m228.21,59.13c.14-.55-.6-1.21-1.64-1.46-1.04-.26-1.99-.01-2.13.54-.14.55.6,1.21,1.64,1.46,1.04.26,1.99.01,2.13-.54Z"/>
            <path class="cls-17" d="m230.25,60.75c-.37.88-1.01,1.66-1.89,2.2-2.22,1.34-5.1.64-6.44-1.58-.32-.52-.51-1.08-.61-1.64-.56,1.34-.5,2.91.31,4.25,1.34,2.22,4.23,2.92,6.44,1.58,1.7-1.03,2.5-2.96,2.19-4.8Z"/>
            <path class="cls-17" d="m230.29,61.95c-.37.89-1.01,1.68-1.9,2.21-2.22,1.34-5.1.64-6.44-1.58-.54-.89-.74-1.88-.66-2.84-.55,1.33-.49,2.9.32,4.23,1.34,2.22,4.23,2.92,6.44,1.58,1.33-.81,2.11-2.17,2.24-3.61Z"/>
            <path class="cls-17" d="m229.64,59.11c-1.34-2.22-4.23-2.92-6.44-1.58-2.22,1.34-2.92,4.23-1.58,6.44s4.23,2.92,6.44,1.58c2.22-1.34,2.92-4.23,1.58-6.44Zm-7.72,4.68c-1.24-2.05-.59-4.72,1.46-5.96,2.05-1.24,4.72-.59,5.96,1.46,1.24,2.05.59,4.72-1.46,5.96-2.05,1.24-4.72.59-5.96-1.46Z"/>
          </g>
          <g>
            <circle class="cls-16" cx="237.71" cy="65.23" r="4.69"/>
            <path class="cls-25" d="m240.3,62.82c.14-.55-.6-1.21-1.64-1.46-1.04-.26-1.99-.01-2.13.54-.14.55.6,1.21,1.64,1.46,1.04.26,1.99.01,2.13-.54Z"/>
            <path class="cls-17" d="m242.33,64.44c-.37.88-1.01,1.66-1.89,2.2-2.22,1.34-5.1.64-6.44-1.58-.32-.52-.51-1.08-.61-1.64-.56,1.34-.5,2.91.31,4.25,1.34,2.22,4.23,2.92,6.44,1.58,1.7-1.03,2.5-2.96,2.19-4.8Z"/>
            <path class="cls-17" d="m242.38,65.63c-.37.89-1.01,1.68-1.9,2.21-2.22,1.34-5.1.64-6.44-1.58-.54-.89-.74-1.88-.66-2.84-.55,1.33-.49,2.9.32,4.23,1.34,2.22,4.23,2.92,6.44,1.58,1.33-.81,2.11-2.17,2.24-3.61Z"/>
            <path class="cls-17" d="m241.72,62.79c-1.34-2.22-4.23-2.92-6.44-1.58-2.22,1.34-2.92,4.23-1.58,6.44,1.34,2.22,4.23,2.92,6.44,1.58,2.22-1.34,2.92-4.23,1.58-6.44Zm-7.72,4.68c-1.24-2.05-.59-4.72,1.46-5.96,2.05-1.24,4.72-.59,5.96,1.46,1.24,2.05.59,4.72-1.46,5.96-2.05,1.24-4.72.59-5.96-1.46Z"/>
          </g>
          <g>
            <circle class="cls-16" cx="231.55" cy="49.46" r="4.69" transform="translate(163.53 276.25) rotate(-85.36)"/>
            <path class="cls-25" d="m234.13,47.05c.14-.55-.6-1.21-1.64-1.46-1.04-.26-1.99-.01-2.13.54-.14.55.6,1.21,1.64,1.46,1.04.26,1.99.01,2.13-.54Z"/>
            <path class="cls-17" d="m236.17,48.67c-.37.88-1.01,1.66-1.89,2.2-2.22,1.34-5.1.64-6.44-1.58-.32-.52-.51-1.08-.61-1.64-.56,1.34-.5,2.91.31,4.25,1.34,2.22,4.23,2.92,6.44,1.58,1.7-1.03,2.5-2.96,2.19-4.8Z"/>
            <path class="cls-17" d="m236.22,49.87c-.37.89-1.01,1.68-1.9,2.21-2.22,1.34-5.1.64-6.44-1.58-.54-.89-.74-1.88-.66-2.84-.55,1.33-.49,2.9.32,4.23,1.34,2.22,4.23,2.92,6.44,1.58,1.33-.81,2.11-2.17,2.24-3.61Z"/>
            <path class="cls-17" d="m235.56,47.03c-1.34-2.22-4.23-2.92-6.44-1.58-2.22,1.34-2.92,4.23-1.58,6.44,1.34,2.22,4.23,2.92,6.44,1.58,2.22-1.34,2.92-4.23,1.58-6.44Zm-7.72,4.68c-1.24-2.05-.59-4.72,1.46-5.96,2.05-1.24,4.72-.59,5.96,1.46,1.24,2.05.59,4.72-1.46,5.96-2.05,1.24-4.72.59-5.96-1.46Z"/>
          </g>
          <g>
            <circle class="cls-23" cx="239.27" cy="51.3" r="4.78" transform="translate(-4.97 36.2) rotate(-8.56)"/>
            <path class="cls-25" d="m241.9,48.84c.14-.56-.61-1.23-1.67-1.49-1.06-.26-2.03-.01-2.17.55-.14.56.61,1.23,1.67,1.49,1.06.26,2.03.01,2.17-.55Z"/>
            <path class="cls-24" d="m243.97,50.5c-.38.9-1.03,1.69-1.92,2.24-2.26,1.37-5.19.65-6.56-1.61-.32-.53-.52-1.1-.62-1.67-.57,1.36-.51,2.97.32,4.32,1.37,2.26,4.31,2.98,6.56,1.61,1.73-1.05,2.55-3.01,2.23-4.89Z"/>
            <path class="cls-24" d="m244.02,51.71c-.38.91-1.03,1.71-1.93,2.25-2.26,1.37-5.19.65-6.56-1.61-.55-.9-.75-1.91-.67-2.89-.56,1.36-.5,2.96.32,4.31,1.37,2.26,4.31,2.98,6.56,1.61,1.35-.82,2.15-2.21,2.28-3.67Z"/>
            <path class="cls-24" d="m243.35,48.82c-1.37-2.26-4.31-2.98-6.56-1.61-2.26,1.37-2.98,4.31-1.61,6.56,1.37,2.26,4.31,2.98,6.56,1.61,2.26-1.37,2.98-4.31,1.61-6.56Zm-7.86,4.77c-1.26-2.09-.6-4.8,1.49-6.07,2.09-1.26,4.8-.6,6.07,1.49,1.26,2.09.6,4.8-1.49,6.07-2.09,1.26-4.8.6-6.07-1.49Z"/>
          </g>
        </g>
        <g>
          <path class="cls-9" d="m254.9,46.37c0-2.67-1.17-5.1-3.07-6.92-1.9,1.82-3.07,4.24-3.07,6.92s1.17,5.1,3.07,6.92c1.9-1.82,3.07-4.24,3.07-6.92Z"/>
          <path class="cls-21" d="m248.77,46.37c0,2.67,1.17,5.1,3.07,6.92v-13.83c-1.9,1.82-3.07,4.24-3.07,6.92Z"/>
        </g>
      </g>
      <g>
        <path class="cls-19" d="m253.06,52.8c.39-.45.71-.91.94-1.47.5-1.21,1-2.59,1.2-3.88.43-2.93-.66-5.75-2.62-7.91l-.11.27c.57-.39,2.5-1.13,2.34-2.07-.09-.55-1.03-1.23-1.42-1.58-.44-.38-.85-.54-1.4-.18-.31.2-.46.51-.65.82-.53.84-1.16,1.61-1.82,2.35l.63-.07c-2.12-3.34-6.11-4.21-9.57-2.42-.07.03-.27.15-.21.27.1.19.19.35.3.54l.47-.37c-1.76-.11-3.31.49-4.5,1.79l.58-.11c-2.74-1.88-6.5-.89-7.88,2.16l.7-.08h0c-.08-.31-.66-.08-.73.12v.02c.24-.03.48-.05.72-.08h0c0-.35-.65-.15-.73.08-.26.74-.44,1.51-.35,2.29l.65-.28c-2.28-.98-4.84-.12-5.9,2.16l.7-.08h0c-.08-.3-.67-.08-.73.13v.02c.24-.03.48-.05.72-.08h0c0-.35-.66-.17-.73.07-.35,1.23-.39,2.26.2,3.43l.5-.32c-2.31-.19-4.38.92-5.36,3.04l.7-.08h0c-.08-.31-.66-.07-.73.12v.02c.24-.03.48-.05.72-.08h0c0-.35-.65-.15-.73.08-.92,2.64.24,5.53,3.03,6.42l.26-.43c-1.51.16-2.69.9-3.35,2.29l.7-.08h0c-.08-.3-.67-.08-.73.13h0c.24-.01.48-.04.73-.06h0c0-.35-.66-.17-.73.08-.48,1.67-.17,3.42,1.46,4.37l.14-.36c-1.06.4-1.8,1.06-2.29,2.09l.7-.08h0c-.08-.3-.67-.08-.73.13h0c.24-.01.48-.04.73-.06h0c0-.34-.66-.17-.73.08-.64,2.21.41,4.57,2.92,4.89,1.78.22,3.55-.79,4.17-2.47l-.73.14c1.4,3.29,6.01,2.8,7.16-.36l-.7.19c.86.95,1.96,1.59,3.25,1.73.55.06,1.06,0,1.6-.07.7-.08,1.33.02,2.04,0,1.92-.09,3.82-1.29,4.52-3.12l-.65.23c3.3,1.64,7.05-.3,7.58-3.91.05-.32-.61-.16-.7.02v.02c.23,0,.46-.01.69-.02.02-.44,0-.84-.04-1.27-.03-.28-.63-.07-.7.08h0c.23-.02.47-.04.7-.07-.18-.84-.48-1.54-1.01-2.2l-.47.37c2.89.08,5.17-1.77,5.58-4.61.05-.32-.61-.16-.7.02v.02c.22,0,.46-.01.69-.02.02-.45,0-.85-.04-1.29-.03-.28-.63-.07-.7.08h0c.23-.02.47-.04.7-.07-.06-.29-.16-.56-.24-.84-.1-.37-.4-.2-.04-.57.3-.31-.4-.34-.59-.15-.08.08-.16.16-.24.25-.03.04-.09.11-.07.17.2.44.35.86.45,1.34.06.27.62.08.7-.08h0c-.23.02-.47.04-.7.07.04.4.06.78.04,1.18-.02.33.61.17.7-.02v-.02c-.22,0-.46.01-.69.02-.34,2.37-2.02,4.15-4.58,4.08-.14,0-.65.14-.47.37.52.64.78,1.31.95,2.1.06.27.62.08.7-.08h0c-.23.02-.47.04-.7.07.04.39.06.77.04,1.16-.02.33.61.17.7-.02v-.02c-.23,0-.46.01-.69.02-.44,3.02-3.29,4.94-6.28,3.46-.21-.11-.56,0-.65.23-.72,1.86-2.7,2.76-4.61,2.51-.86-.11-1.63.25-2.51.15-1.16-.13-2.12-.71-2.9-1.57-.18-.2-.62-.03-.7.19-.23.62-.58,1.19-1.13,1.57-1.7,1.17-3.83.28-4.58-1.48-.12-.28-.65-.08-.73.14-.68,1.83-2.9,2.55-4.53,1.37-1.36-.98-1.53-2.47-1.11-3.95l-.73.08h0c0,.35.66.17.73-.08h0c-.24.03-.48.08-.73.12h0c.07.27.62.11.7-.07.4-.85,1.01-1.45,1.9-1.79.13-.05.33-.24.14-.36-1.53-.89-1.75-2.55-1.31-4.08l-.73.08h0c0,.35.66.17.73-.08h0c-.24.03-.48.08-.73.12h0c.07.27.62.11.7-.07.51-1.08,1.35-1.75,2.58-1.89.19-.02.64-.31.26-.43-2.65-.84-3.59-3.64-2.74-6.07l-.73.08h0c0,.35.65.15.73-.08v-.02c-.24.05-.48.09-.72.14h0c.07.27.62.11.7-.07.82-1.78,2.41-2.8,4.4-2.63.11,0,.6-.11.5-.32-.57-1.13-.54-2.13-.2-3.32l-.73.08h0c0,.35.66.17.73-.07v-.02c-.24.05-.48.09-.72.14h0c.07.27.62.11.7-.07.85-1.83,2.77-2.63,4.65-1.82.19.08.68,0,.65-.28-.09-.74.11-1.48.35-2.18l-.73.08h0c0,.35.65.15.73-.08v-.02c-.24.05-.48.09-.72.14h0c.07.27.62.11.7-.07,1.21-2.68,4.22-3.47,6.62-1.83.15.1.47.01.58-.11.98-1.07,2.18-1.58,3.64-1.49.18.01.61-.13.47-.37l-.24-.44-.21.27c3.21-1.66,6.69-.63,8.6,2.38.11.18.52.05.63-.07.56-.62,1.09-1.27,1.57-1.95.18-.27.37-.75.67-.9.38-.19.17-.09.5.15.27.19.93.77,1.06,1.06.34.77-1.39,1.56-1.89,1.9-.08.05-.19.18-.11.27,1.91,2.1,2.98,4.83,2.57,7.69-.17,1.13-.66,2.14-.97,3.22-.2.71-.55,1.34-1.03,1.9-.29.33.41.35.59.15Z"/>
        <path class="cls-19" d="m248.97,44.53c-1.56.12-2.96.87-3.9,2.12l.68-.13c-.11-.1-.22-.21-.34-.3l-.04.22c1.39-1.39,2.77-2.77,4.16-4.16.36-.36.72-.71,1.1-1.04l-.63-.09c-.71,1.11-1.2,2.34-1.42,3.65-.05.31.68.19.73-.08.21-1.26.68-2.45,1.38-3.53.08-.13-.05-.22-.16-.24-.17-.03-.35.03-.47.14-.71.62-1.36,1.3-2.03,1.97-.87.87-1.74,1.74-2.6,2.6-.21.21-.42.42-.63.63-.05.05-.12.16-.04.22.12.1.23.2.34.3.18.17.54.05.68-.13.76-1.02,1.87-1.62,3.13-1.71.13-.01.39-.1.41-.26.02-.17-.2-.19-.32-.18Z"/>
        <path class="cls-19" d="m245.04,44.4c.34-.62.51-1.27.61-1.96.05-.32-.61-.16-.7.02v.02c.22,0,.46-.01.69-.02.02-.44,0-.86-.04-1.29-.01-.12-.24-.13-.32-.12-.13.01-.32.08-.38.2h0c.23-.02.47-.04.7-.07-.05-.28-.11-.55-.21-.82l-.58.31c1.31.34,2.69.29,3.98-.11l-.35-.28c-1.18,1.18-2.36,2.36-3.54,3.54-.17.17-.34.34-.5.5-.11.11-.07.24.08.29.16.05.39-.02.51-.14,1.18-1.18,2.36-2.36,3.54-3.54.17-.17.34-.34.5-.5.24-.24-.17-.33-.35-.28-1.13.35-2.3.39-3.44.1-.15-.04-.67.06-.58.31.09.27.16.54.21.82.02.12.23.13.32.12.13-.01.32-.08.38-.2h0c-.23.02-.47.04-.7.07.04.4.06.78.04,1.18-.02.33.61.17.7-.02v-.02c-.22,0-.46.01-.69.02-.09.65-.24,1.26-.56,1.85-.18.32.55.27.68.04Z"/>
      </g>
      <path class="cls-3" d="m211.83,28.15l2.81,4.96c.17.29.59.31.76.02.4-.66.86-1.82.22-3.18-1-2.09-3.13-3.21-3.79-1.81Z"/>
      <path class="cls-3" d="m211.4,28.47l2.94,4.92c.17.28-.02.64-.34.66-.77.03-2.03-.14-2.89-1.38-1.33-1.9-1.25-4.31.3-4.19Z"/>
      <path class="cls-2" d="m13.6,60.53s44.95-6.35,36.78-.2c-17.26,12.99-34.43,8.64-17.21,4.32s11.44,6.27,35.85,3.42,19.2-2.58,19.2-2.58"/>
      <path class="cls-2" d="m256.15,60.9s27.46-4.54,32.15-.24c4.69,4.3,4.49,14.29-11.92,11.94-16.42-2.35-2.55-9.98,7.03-7.32,9.58,2.66,11.56,4.87,21.47.95,9.91-3.91,17.19-2.67,17.19-2.67"/>
    </g>
  </g>
</svg>