<?xml version="1.0" encoding="UTF-8"?>
<svg id="bg" xmlns="http://www.w3.org/2000/svg" viewBox="0 0 332.15 116.29">
  <defs>
    <style>
      .cls-1 {
        fill: #f7eae0;
      }

      .cls-2 {
        fill: #f9be99;
      }

      .cls-3 {
        fill: #eaddd5;
      }

      .cls-4 {
        fill: #e9d2b3;
      }

      .cls-5 {
        fill: #e9c8ad;
      }

      .cls-6 {
        fill: #655142;
      }

      .cls-7 {
        fill: #bb8057;
      }

      .cls-8 {
        fill: #cd8850;
      }

      .cls-9 {
        fill: #36382b;
      }

      .cls-10 {
        fill: #604c3f;
      }

      .cls-11 {
        stroke: #604c3f;
      }

      .cls-11, .cls-12 {
        fill: none;
        stroke-miterlimit: 10;
      }

      .cls-12 {
        fill-rule: evenodd;
        stroke: #f0cb9c;
        stroke-dasharray: 0 6;
        stroke-linecap: round;
        stroke-width: 2px;
      }
    </style>
  </defs>
  <rect class="cls-11" x="246.19" y="71.65" width="27.25" height="15.57" rx="1.98" ry="1.98"/>
  <path class="cls-9" d="m252.87,79.75c-7.46-2.64-11.11,5.11-11.99,11.72-.64,4.79-.48,9.97-2.19,14.27-1.96,4.91-6.39,7.33-11.69,4.22-10.02-5.89-9.72-19.26-7.21-27.68,2.54-8.5,6.32-15.99,6.88-25.52.47-7.95-.98-16.88-5.71-24.39-4.01-6.36-10.11-11.69-16.54-13.28-8.39-2.06-13.47,4.04-20.26,6.56-7.83,2.91-14.71-3.84-21.89-9.08-7.51-5.48-14.4-6.52-21.56-3.82-7.53,2.84-14.26,8.46-23.13,7.58-1.41-.14-1.16,2.33.24,2.47,14.81,1.41,25.43-16.2,41.36-5.92,6.05,3.91,11.69,10.05,18.4,11.52,8.74,1.92,13.77-5.91,21.34-7.4,7.41-1.45,15.75,4.62,20.57,12.22,5.57,8.79,6.2,19.32,4.69,28.12-1.59,9.27-6.38,16.79-7.59,26.23-.94,7.34.62,16.32,6.98,22.02,2.96,2.65,6.67,4.32,9.97,3.75,3.88-.68,6.18-4.23,7.33-8.15,1.37-4.66,1.05-9.99,1.87-14.88.94-5.56,4.2-10.87,10.11-9.66.47.1.48-.73.01-.89Z"/>
  <g>
    <g>
      <path class="cls-1" d="m80.8,81.75c.25.05.51.08.77.09.69,0,.85-.19.88-1.07,1.26-.17,1.62-.57,1.67-1.87.2-.23.4-.46.59-.7.22-.28.42-.59.43-.94,0-.67.2-1.28.37-1.91.22-.84-.21-1.52-.68-2.16-.29-.38-.74-.62-.95-1.07.15-.86-.21-1.48-.83-2.06-.99-.94-2.02-1.77-3.3-2.27-.28-.11-.6-.22-.73-.52-.28-.64-.81-.72-1.41-.68-.81-.38-1.66-.55-2.55-.47-.93-.3-1.87-.59-2.79-.92-.37-.13-.74-.2-1.13-.2-.17-.19-.34-.33-.14-.66.34-.59.21-1.07-.39-1.23-1.29-.34-2.56-.88-3.95-.7-.27-.03-.47-.15-.62-.41-.62-1.1-1.08-2.27-1.45-3.48-.06-.21-.09-.44.03-.63.16-.26.45-.21.71-.23.1.08.18.18.29.24.89.45,1.38.27,1.8-.64.05-.11.07-.24.1-.36,1.53.06,2.98-.41,4.46-.71.85-.17,1.68-.4,2.56-.36.78.65,1.71.54,2.61.5.51-.02.74-.37.66-.89-.03-.21-.1-.42-.15-.63.87.02,1.7-.3,2.56-.38.21-.02.42-.12.63-.13.87-.02,1.74.03,2.57-.26,1.57.15,3.1-.31,4.66-.25.58.02,1.1-.2,1.66-.29.43,1.3.16,1.09,1.49,1.43.38.1.75.2,1.14.16.28-.03.49-.18.59-.44.11-.27.02-.54-.21-.69-.37-.24-.72-.47-.77-.96,1.23,0,2.47,0,3.7,0-.06.7.36,1.01,1.06,1.15-.2.18-.33.29-.45.4-.25.23-.35.49-.21.81.1.23.26.44.25.72-.03.59.36.87.87.95.46.08.94.1,1.42.1.32,0,.58-.18.68-.51.08-.28.02-.55-.23-.68-.41-.2-.48-.57-.61-.93-.09-.25-.02-.35.17-.52.59-.53.63-.74.07-1.25-.34-.31-.37-.53-.13-.86.26-.03.51.02.73.16.39.24.73.11,1.07-.11,1.13,0,2.27.13,3.38,0,1.5-.17,3-.38,4.46-.77,1.05-.28,2.09-.55,3.19-.5.23,0,.42-.08.56-.27.38.1.72.01,1-.26.46.08.82-.12,1.17-.4.68-.55,1.61-.79,2.03-1.66.7.03,1.23-.39,1.81-.67.86-.41,1.71-.87,2.69-.94.28.19.55.39.84.56.35.22.7.26,1.05-.03.36-.3.34-.64.14-1.02.04-.16.04-.37.22-.44.36-.13.73-.25,1.1-.35.99-.25,2-.46,2.93-.92.22-.11.5-.09.75-.13.35,0,.69,0,1.04,0-.07.2-.16.4-.2.61-.08.39.12.67.5.78.31.09.61-.05.77-.34.14-.27.04-.6-.22-.81-.26-.21-.59-.1-.87-.23,0-.35,0-.7,0-1.06.94,0,1.88.01,2.82.02.1.45.14.92.32,1.35.25.6.66.85,1.3.7.02.32.11.64.45.73.5.13,1.06.24,1.49-.17.56-.55,1.18-1.02,1.8-1.5.25-.2.5-.34.82-.37.26.59.51,1.2.98,1.67.15.15.43.09.56-.09.22-.32.22-.64.07-.98-.57-1.24-.38-2.56-.41-3.85,0-.06.08-.16.14-.18.06-.02.19,0,.23.05.57.66.98,1.43,1.42,2.17.15.26.3.53.47.78.07.11.23.15.34.06.09-.08.22-.2.21-.3-.02-.21-.11-.41-.19-.61-.32-.85-.82-1.64-.8-2.59,1.2-.64,1.66-1.81,2.14-2.97.23-.56.37-1.15.89-1.54.33.09.67.17.99-.03.26-.16.47-.38.46-.72-.01-.34-.21-.55-.52-.65-.16-.05-.33-.06-.5-.09.89-.49,1.79-.94,2.74-1.31.16-.06.31-.12.41-.27.65.1,1.19.47,1.77.75.26.12.4-.02.54-.48.22,0,.46.05.65-.03.68-.29,1.26-.24,1.74.36.67.15,1.34.34,2.02.44.39.05.76.18,1.14.22.68.07,1.11.45,1.48.95.18.24.31.56.54.72.9.61.87,1.41.55,2.28-.16.46-.21.92-.24,1.4-.1,1.49-.53,2.9-1.15,4.24-.25.53-.89.89-1.11,1.42-.23.56-.35,1.14-.74,1.64-.37.48-.69,1-1.01,1.52-.11.18-.14.4-.2.61-.38-.08-.76-.17-1.06.2-.23.28-.41.67-.23.94.42.61-.04,1.15,0,1.72-.21,0-.42.03-.63,0-.43-.05-.73.13-.95.48-.65-.11-1.24.29-1.88.27-.28-.11-.57-.24-.85,0-.63.53-1.27.38-1.9,0-.18-.11-.37-.22-.55-.34-.31-.19-.62-.3-.97-.12-.36.19-.4.53-.37.89-.29.87-.86,1.24-1.79,1.12-.61-.08-1.21.01-1.79.24-.8.32-1.11.81-1.2,1.67-.09.87.28,1.54.81,2.11.45.48.76,1.06,1.21,1.53.53.55.37,1.22.24,1.85-.07.34-.4.43-.72.45-.34-.34-.67-.67-.89-1.11-.24-.47-.64-.81-1.07-1.12-.27-.2-.63.23-.82-.11-.14-.26-.21-.56-.43-.79-.27-.28-.52-.58-.79-.86-.26-.27-.67-.27-.93.02-.26.29-.49.61-.69.94-.18.3-.03.73.3.88.23.11.49.16.74.22.38.09.76.17,1.14.24.19.04.33.13.36.32.07.42.29.7.68.89.14.07.25.24.33.38.34.58.82,1,1.4,1.32-.13.11-.27.21-.39.33-.91.88-2.04,1.27-3.24,1.53-2.66.56-5.34,1.07-7.93,1.93-.41.13-.84.18-1.27.27-.56-.22-.98,0-1.35.43-.26.3-.37.66-.44,1.04-.31.14-.67.22-.93.42-1.32,1.02-2.55,2.16-3.69,3.37-.22.24-.29.52-.29.83-.09.12-.19.23-.28.35-.43,0-.65.34-.95.58-.76.61-1.49,1.27-2.54,1.31-.29-.32-.64-.44-1.04-.24-.4.2-.49.56-.45.98,0,.09.01.17.02.26s0,.17.01.26c-.32.16-.63.34-.94-.02-.06-.07-.13-.12-.19-.18-.87-.98-1.98-1.06-3.12-.68-1.89.64-3.52,1.66-4.73,3.31-.57.77-1.18,1.5-1.48,2.43-.14.41-.45.57-.9.63-1.04.15-1.49.61-1.48,1.61,0,.74-.25,1.24-.9,1.58-.58.3-1.11.69-1.67,1.02-.66.39-1.77.09-2.16-.58-.2-.34-.39-.69-.53-1.05-.48-1.31-1.59-1.67-2.79-1.8-.82-.09-1.66-.05-2.48-.02-.84.03-1.63.33-2.35.73-.64.35-1.28.72-1.86,1.19-.8.65-1.78,1.07-2.6,1.73-.37.3-.79.54-1.15.85-.43.38-.91.48-1.45.44-.31-.16-.36-.5-.53-.75-.13-.63-.29-1.24-.25-1.9.05-.64-.29-1.13-.69-1.6-.39-.45-.88-.48-1.4-.48-.03-.37.39-.59.38-.91,0-.32-.41-.54-.36-.92.4-.04.75.14,1.13.22Zm32.25-23.19c.54.62,1.32.61,1.81.04.28-.33.37-.75.21-1.1-.31-.68-.25-1.34-.1-2.03.05-.2.03-.43-.01-.64-.12-.58-.51-.95-1.04-1.02-.62-.08-1.12.17-1.4.72-.2.38-.34,1.08-.34,1.48,0,1.07.28,1.88.87,2.56Zm15.46.89c.1-.22.05-.44-.1-.61-.2-.23-.46-.41-.63-.66-.44-.62-1.2-1.02-1.28-1.91-.02-.26-.33-.39-.59-.47-.28-.08-.52.03-.7.25-.15.18-.21.4-.1.61.42.76.84,1.51,1.29,2.25.26.42.68.67,1.12.88.11.05.25.06.32.08.35,0,.55-.16.67-.42Zm-24.02,19.15c.68-.04,1.32-.74,1.28-1.4-.04-.68-.74-1.32-1.4-1.28-.69.04-1.32.74-1.28,1.4.04.69.74,1.33,1.4,1.28Zm-28.1-16.25c-.22-.42-.57-.67-1.03-.66-.41,0-.73.23-.95.59-.16.27-.23.55-.24.86-.02.69.39,1.25.97,1.32.57.07,1.18-.37,1.35-.98.03-.12.04-.25.05-.32.01-.32-.03-.57-.16-.81Zm33.24,9.26c.73.07,1.36-.49,1.38-1.24.02-.69-.52-1.29-1.18-1.3-.61-.01-1.23.61-1.26,1.27-.03.64.45,1.22,1.06,1.28Zm33.38-18.8c.39,0,.75-.51.54-.84-.43-.65-.97-1.22-1.61-1.67-.32-.22-.84.1-.88.49-.06.69,1.21,2.01,1.95,2.02Zm-74.3,8.52c.25-.13.41-.34.37-.63-.03-.3-.3-.58-.6-.61-.3-.02-.61-.03-.91.01-.45.06-.74.4-.7.8.03.39.35.65.86.66.33.03.67-.07.98-.23Zm65.66-11.89c.21.19.44.27.71.16.28-.11.46-.43.38-.75-.07-.29-.17-.58-.3-.86-.14-.32-.43-.45-.74-.4-.3.05-.48.29-.49.73-.03.4.09.8.44,1.12Zm-34.73,13.5c.4-.02.72-.37.7-.77-.02-.4-.38-.72-.77-.7-.39.02-.72.38-.7.77.02.39.38.72.77.7Zm15.69,11.47c.39.06.81-.27.82-.65.01-.33-.28-.66-.64-.72-.38-.06-.8.28-.83.66-.02.33.28.66.64.71Zm-6.69-20.61c.23.02.53-.24.53-.46,0-.34-.37-.72-.75-.76-.23-.03-.53.24-.53.46,0,.35.36.72.75.76Zm-20.24,19.9c.4.02.68-.22.69-.6,0-.32-.26-.62-.54-.6-.37.02-.69.31-.71.62-.02.32.22.56.56.58Z"/>
      <path class="cls-4" d="m115.88,77.15c.36.08.61-.06.72-.38.12-.37.26-.74.16-1.14,1.05-.04,1.78-.7,2.54-1.31.29-.24.51-.58.95-.58.15.21.27.47.59.4.13-.03.21-.14.21-.29,0-.36-.29-.38-.52-.46,0-.31.06-.59.29-.83,1.15-1.22,2.37-2.35,3.69-3.37.26-.2.62-.28.93-.42.57.71.87.73,1.35.11.13-.17.24-.35.38-.51.29-.34.24-.7.06-1.06.42-.09.86-.13,1.27-.27,2.59-.86,5.27-1.36,7.93-1.93,1.2-.25,2.34-.65,3.24-1.53.12-.12.26-.22.39-.33q.72-.35.65-1.25c.32-.02.65-.11.72-.45.13-.63.28-1.3-.24-1.85-.45-.47-.76-1.05-1.21-1.53-.53-.57-.9-1.25-.81-2.11.08-.85.39-1.34,1.2-1.67.58-.23,1.18-.33,1.79-.24.93.12,1.5-.25,1.79-1.12.54.53,1.21.85,1.89,1.15.72.31,1.43.38,2.06-.23.12-.12.31-.16.45-.26.44-.3.46-.42.23-1.1.64.01,1.22-.38,1.88-.27.02.38.2.65.51.86.19.13.46.22.61.07.42-.43.97-.31,1.46-.43.11-.03.2-.15.3-.23h0c.62-.17,1.24-.35,1.86-.51.15-.04.39-.03.49.06.23.22-.05.36-.16.51-.07.11-.18.19-.25.3-.09.15-.17.33-.08.49.19.35.25.73.29,1.12.02.2.15.32.34.33.19,0,.33-.12.35-.31.03-.26.05-.52.02-.78-.05-.47.07-.85.42-1.17.98-.91,1.76-2.04,3.01-2.65.22-.11.29-.31.27-.54h-.01c.17,0,.25-.1.27-.26h-.01c.16.05.42.05.34.27-.16.45-.41.86-.6,1.3-.1.23-.18.48-.25.73-.02.06.04.18.09.22.1.08.25.12.35,0,.14-.16.28-.33.38-.51.24-.43.65-.55,1.07-.65.18-.04.33.06.29.29-.02.13-.1.29-.05.38.43.75-.1,1.11-.59,1.47-.52.39-1.05.76-1.58,1.13-.48.34-.86.74-.81,1.39.03.39-.15.69-.46.88-.83.51-1.21,1.45-1.97,2.03-.23.18-.15.48-.16.73q-.15.52-.79.54c0-.09,0-.17,0-.26-.07-.8-.55-1.06-1.2-.66-.15.09-.28.21-.4.33-.49.47-.5.71-.1,1.35.05.07.1.14.15.21-.05.16-.05.36-.15.46-.36.35-.72.75-1.16.98-.55.3-.88.96-1.59.98-.59-.66-.72-.66-1.22-.08-.1.12-.22.24-.33.35l-.03-.03c-.05-.44,0-.87.14-1.28.06-.21.11-.42.02-.63-.09-.21-.22-.37-.47-.4-.24-.03-.43.08-.54.28-.08.15-.13.32-.14.49-.06.86-.47,1.59-.94,2.26-.67.96-1.43,1.85-2.17,2.75-.19.23-.43.43-.67.61-.28.22-.58.17-.78-.13-.2-.28-.35-.6-.55-.88-.12-.18-.29-.32-.43-.48.35-.62.31-1.25-.05-1.85-.11-.18-.27-.34-.43-.47-.21-.17-.46-.23-.72-.08-.28.16-.44.48-.32.77.25.59.46,1.22.94,1.68.08.54.46.92.72,1.37.19.32.21.66-.02.98-.13.18-.25.35-.38.53-.23.3-.44.8-.85.66-.29-.1-.57-.56-.64-.91-.09-.45-.28-.77-.59-1.09-.35-.37-.22-.91-.31-1.37-.08-.41-.45-.56-.77-.3-.56.47-.72,1.16-.97,1.8-.01.03,0,.1.03.12.63.46.1.89,0,1.35-.12.54-.08,1.11-.33,1.63-.07.14-.02.35,0,.51.1.55.23,1.09.34,1.63-.27.15-.52.37-.85.4-.11-.13-.19-.31-.33-.4-.64-.37-.98-1-1.21-1.64-.4-1.1-1.13-1.94-1.85-2.81-.28-.33-.55-.67-.85-.98-.07-.07-.27-.09-.35-.04-.08.05-.16.25-.12.33.18.45.25.9.25,1.39,0,.23.21.46.33.69.27.49.63.93.79,1.49.2.69.31,1.35-.14,2-.1.14-.18.31-.2.48-.05.5-.43.65-.79.74-.4.11-.84.11-1.32.16-.05-1.2-.53-2.24-.6-3.38-.04-.64-.41-1.23-.89-1.7-.26-.25-.58-.29-.83-.12-.25.18-.36.5-.28.81.01.04.01.09.04.12.69,1.02.56,2.25.87,3.37.14.51-.19,1.09.07,1.65.08.19-.2.35-.35.5-.54.54-.53.6.09,1.23,0,.27-.11.5-.29.7-.82.89-1.77,1.63-2.78,2.29-1.44.94-2.99,1.71-4.47,2.57-.28.16-.56.21-.86.19.04-.26.08-.51.12-.77q.08-.51-.44-.77c-.48-.24-.61-.47-.35-.88.47-.75.55-1.62.82-2.43.08-.26.1-.5.04-.76-.13-.59-.31-.71-.91-.55-.25.06-.5.13-.76.19-.39.09-.58.32-.59.73-.02.7-.32,1.33-.51,1.99-.04.16-.12.36-.24.44-.46.29-.62.68-.57,1.21.02.2-.07.42-.14.62-.18.54-.15,1,.33,1.4.28.23.26.63.33.97-.03.24-.17.38-.38.49-1.35.71-2.69,1.42-4.03,2.15-2.03,1.11-4.22,1.84-6.38,2.63-.44.16-.87.42-1.38.28.11-.4.09-.76-.16-1.12-.2-.28-.34-.61-.53-.9-.18-.28-.24-.54,0-.83.11-.13.24-.31.23-.46-.06-.74.2-1.32.68-1.87.3-.35.17-.95-.17-1.33-.38-.42-.88-.56-1.43-.42-.45.12-.76.44-.83.91-.04.25-.06.53,0,.78.12.52-.13.82-.53,1.08-.07.05-.13.12-.21.15-.83.37-1.16,1-.91,1.94-.72.09-1.35.24-1.7.89-.11.21-.35.23-.56.29-.34.1-.66.22-.93.46-.21.19-.42.25-.7.1-.45-.24-.79-.08-1.13.3-.76.84-1.57,1.63-2.36,2.44-.34.35-.69.66-1.24.54-.36-.08-.68.09-.99.25-.82.4-.84.45-.62,1.4.03.12.03.25,0,.37-.02.07-.11.13-.17.18-.09.07-.17.06-.21-.04-.13-.31-.17-.7-.58-.79-.49-.11-.83.21-1.16.48-.51.41-.92.83-.96,1.61-.03.6-.24,1.28-.91,1.64-.47.25-.43.71-.38,1.15-.16.14-.3.3-.47.41-.74.51-1.5.99-2.24,1.5-.45.32-.92.65-1,1.27-.66.05-.91.56-1.16,1.06-.19.39-.39.77-.91.77-.16-.07-.31-.17-.47-.21-.35-.09-.48,0-.54.35-.02.13-.01.26-.03.39,0,.09,0,.19-.06.25-.07.1-.22.25-.28.23-.61-.21-.85.63-1.4.48-.41-.11-.51-.66-.16-.92.36-.27.69-.53.88-.94.09-.2.18-.4.21-.61.05-.44-.18-.75-.54-.96-.3-.18-.63-.15-.95.16-.37.37-.69.78-1.06,1.2-.42-.06-.66-.5-1.07-.64-.1-.03-.23-.2-.22-.29.08-.69-.39-.88-.9-1.08-.41-.16-.51-.38-.39-.68.18-.45.53-.67.9-.55.25.08.47.23.71.32.51.18.71.12.98-.32.5-.81,1-1.63,1.49-2.45.18-.3.31-.62.3-.98,0-.54-.36-.91-.9-.88-.21.01-.43.07-.63.15-.46.18-.83-.1-1.21-.26-.17-.07-.15-.3-.09-.47.07-.22.22-.39.45-.42.64-.1.74-.69,1-1.11.21-.34.06-.86-.19-1.08-.33-.29-.94-.31-1.33,0-.6.49-1.05,1.18-.99,1.91.09,1.21-.34,2.21-.83,3.23-.28.58-.37,1.25-.84,1.73-.23-.2.33.17.42-.09.32-.94.69-1.93.94-2.89.66-2.54.9-5.29,1.54-7.84.18-.71,1.03-1.18.43-2.48.09-.29.25-.56.61-.59.22.66-.16,1.4.24,2.04.04.06.01.18-.03.25-.3.52-.14,1,.09,1.49.09.19.07.43.13.63.07.24.03.41-.16.57-.16.14-.33.29-.43.48-.17.29-.05.76.24.93.41.24.82.5,1.26.65.79.26,1.56.35,2.34-.18.79-.54,1.67-.94,2.49-1.43.26-.15.49-.36.7-.58.16-.16.22-.37.1-.6-.11-.21-.3-.33-.52-.33-.21,0-.42.07-.63.12-.41.08-.7,0-.88-.33-.18-.34-.3-.71-.45-1.07.54.04,1.02-.06,1.45-.44.35-.32.78-.56,1.15-.85.82-.66,1.79-1.08,2.6-1.73.58-.47,1.22-.84,1.86-1.19.72-.39,1.5-.7,2.35-.73.83-.03,1.67-.07,2.48.02,1.2.13,2.31.49,2.79,1.8.13.37.33.71.53,1.05.39.67,1.5.97,2.16.58.56-.33,1.09-.72,1.67-1.02.66-.35.91-.84.9-1.58,0-1,.45-1.46,1.48-1.61.44-.06.76-.22.9-.63.3-.93.92-1.66,1.48-2.43,1.21-1.65,2.84-2.67,4.73-3.31,1.14-.38,2.24-.3,3.12.68.06.06.13.12.19.18.31.36.62.18.94.02.19.09.38.22.58.27Zm-3.39,5.59c.17-.63-.08-1.41.68-1.85.29-.17.52-.46.77-.7.19-.19.29-.43.29-.71,0-.33-.16-.64-.44-.73-.27-.09-.56-.04-.7.2-.33.55-.87.84-1.37,1.18-.6.41-1.09.89-.91,1.72.06.27-.08.5-.2.74-.12.23-.3.49-.28.72.08.71-.31,1.13-.8,1.53-.39.32-.62.73-.56,1.25.04.33-.05.59-.36.77-.15.09-.28.21-.39.34-.19.21-.25.45-.08.71.18.27.41.47.75.43.17-.02.34-.09.49-.18,1.08-.66,2.15-1.33,3.22-1.99.04-.02.07-.05.1-.08.47-.36.69-.91.24-1.47-.11-.13-.26-.24-.22-.55.32-.44.07-.9-.24-1.35Zm-18.02,4.84c.72.18,1.2-.03,1.52-.66.21-.41.24-.83.17-1.27-.07-.48-.48-.86-.96-.93-.53-.08-.92.13-1.18.62-.18.34-.24.65-.24,1.13,0,.64.22.99.69,1.11Zm32.54-17.37c-.05-.32-.31-.52-.63-.57-.3-.05-.49.16-.62.39-.1.18-.18.4-.2.61-.07.6-.12,1.2-.16,1.8,0,.12.04.25.09.37.13.32.38.45.71.46.33,0,.58-.16.68-.49.16-.5.2-1.02.13-1.54,0-.34.04-.7,0-1.03Zm-18.76,11c0-.66-.53-1.2-1.13-1.17-.56.03-1.21.68-1.19,1.19.03.65.54,1.15,1.19,1.14.67-.01,1.13-.49,1.13-1.16Zm-25.41,11.31c-.37.17-.53.44-.46.69.11.37.53.67.89.58.25-.06.49-.16.71-.29.34-.19.46-.54.34-.88-.09-.26-.38-.39-.89-.32-.12.04-.37.12-.6.23Zm44.58-16.05c-.13-.43-.68-.61-1.04-.34-.29.22-.44.52-.51.86-.07.33.24.68.58.71.59.04,1.13-.66.96-1.22Zm-11.87,2.28c-.4.06-.71.28-.92.62-.15.25-.05.62.2.79.53.34,1.39-.1,1.47-.74.04-.37-.36-.73-.75-.67Zm-21.77,12.3c-.04-.15-.16-.3-.28-.4-.23-.17-.69-.03-1.04.27-.23.2-.31.55-.18.81.09.19.27.29.52.31.68.04,1.12-.4.98-.99Zm26.6-15.23c.21.02.42-.18.4-.37-.03-.24-.26-.41-.55-.38-.16.02-.33.08-.34.29,0,.25.2.43.49.46Z"/>
      <path class="cls-4" d="m65.75,50.21c-.05.09-.1.19-.14.28.65-.09,1.28-.25,1.85-.66.2-.14.48-.25.73-.26.52-.02,1.02-.06,1.52-.24.35-.13.67.11.81.48.04.12.05.26.06.38.04.34.26.43.55.36,1.27-.29,2.53-.59,3.79-.9.33-.08.82.07.96-.24.2-.43-.33-.63-.55-.91-.14-.17-.3-.35-.24-.58.11-.42.29-.82.68-1.08.26-.17.62-.15.83.08.14.16.24.36.39.52.32.34.43.87.91,1.09.92-.8,1.64-1.74,2.1-2.87-.3-.07-.67-.13-.72-.47-.07-.52-.28-.78-.79-1.02-.48-.22-.82-.76-1.19-1.18-.1-.11-.17-.36-.12-.48.25-.58.12-1.07-.18-1.6-.21-.37.1-.78.55-.8.57-.02,1.01.17,1.23.75.27.7.69,1.21,1.54,1.13,1.48.51,1.51.34,1.48,1.82.22,0,.43-.04.6-.2,1.07-1.06,2.14-2.13,3.19-3.21.11-.11.12-.31.18-.47-.44-.03-.84-.01-1.24.26-.38.26-.77.12-.96-.3-.2-.43-.34-.87-.72-1.21-.27-.23-.24-.55,0-.82.63-.71,1.39-1.17,2.38-1.14.12,0,.31.03.36.11.42.63,1.2.87,1.62,1.49.69-.24,1.11-.82,1.53-1.35.35-.44.7-.88,1.09-1.28.34-.35.58-.75.67-1.23-.26-.17-.52-.34-.85-.3-.67.09-.92-.39-1.14-.87-.28-.62-.06-1.14.63-1.26.42-.08.72-.24.98-.56.14-.17.29-.33.45-.47.4-.35.94-.18.94.35,0,.55.15,1.02.38,1.5.08-.03.19-.05.23-.11.64-.87,1.28-1.74,1.9-2.63.09-.12.05-.33.07-.5-.66.19-1.11.02-1.52-.59-.64-.96-.62-1.26.4-1.75.24-.11.47-.24.73-.21.43.05.75-.13,1.02-.43.4-.44.83-.38,1.27-.08.21-.13.24-.33.24-.55-.36-.14-.72-.28-1.09-.41-.47-.17-.79-.52-1.07-.9-.27-.36-.23-.78.06-1.06.25-.24.57-.25.92.06.43.38.86.71,1.45.76.04-.33-.14-.56-.41-.69-.55-.28-.88-.75-1.12-1.3-.06.06-.12.1-.19.14-.45.62-1.2.67-1.82.96-.21.1-.45,0-.61-.15-.62-.56-1.32-.93-2.14-1.12-.19-.04-.33-.18-.4-.34-.8,1.76-1.81,3.37-3.12,4.75.28.08.58.14.68.5.07.24.23.34.46.38.17.03.34.07.49.15.36.2.38.77.04.99-.14.09-.32.13-.47.21-.96.53-1.96-.28-2.93.11-.12.05-.32-.1-.48-.16-.04-.01-.08-.02-.13-.04-.93.57-1.83,1.48-2.28,2.31.76.11,1.28.42,1.36,1.3.04.51.43.83.95.91.13.02.27,0,.39.05.26.09.44.28.47.57.03.28-.05.51-.27.69-.37.29-.8.31-1.16-.09-.27-.31-.48-.4-.88-.32-.51.1-1.04.08-1.56.11-.36.02-.68-.09-1.01-.23-.48-.2-.64-.55-.55-1.05-.22-.03-.43,0-.61.13-.12.09-.24.18-.36.26-.38.72-.94,1.33-1.64,1.98-.62.58-1.26,1.15-1.89,1.71.66-.17,1.31-.35,1.98-.46.46-.07.99-.1,1.38.24.58.51,1.12,1.07,1.66,1.63.16.16.16.4.05.61-.13.25-.35.39-.64.37-.17-.01-.36-.05-.49-.15-.67-.53-1.39-.47-2.08-.12-.56.28-1.17.32-1.75.48-.41.11-.82.15-1.21.39-.45.27-.92-.02-1.03-.59-.03-.15-.01-.31,0-.47-.41.38-.82.76-1.22,1.15-1.72,1.69-3.06,3.72-4.13,5.87.26-.03.51-.07.65-.33.25-.43.68-.55,1.1-.62,1.03-.15,2.07-.28,3.11-.34.78-.05,1,.27.82,1.03-.15.61-.09.78.44,1.02.19.09.42.1.58.28.12.14.19.29.16.48-.08.58-.9,1.02-1.28.63-.61-.63-1.37-.74-2.13-.8-.91-.07-1.84-.14-2.74.06-.57.13-.93-.05-1.15-.51-.47,1.04-.95,2.22-1.67,3.13Zm24.32-23.44c.2-.48.74-.79,1.26-.73.27.03.47.27.47.53-.02.57-.55,1.06-1.12,1.02-.41-.03-.74-.48-.6-.82Z"/>
      <path class="cls-4" d="m92.01,15.38c-.19.72-.42,1.41-.51,2.16-.06.47-.16.94-.42,1.36-.11.18-.25.4-.25.6,0,.63-.18,1.13-.62,1.56.42-1.02.77-2.08,1.08-3.16.72-2.54,1.2-5.23,1.17-7.89.16.61.36,1.22.31,1.81-.11,1.2-.47,2.39-.77,3.57Z"/>
      <path class="cls-8" d="m156.18,58.87c.36.07.69-.05.98-.25.86-.57,1.77-1.06,2.51-1.79.06-.18.12-.35.18-.53-.19-.15-.26-.33-.1-.54.24-.31.57-.49.91-.66.19-.1.41-.17.59-.01.24.2.16.45,0,.67.14.03.28.06.43.08.57-.32,1.18-.58,1.58-1.13.16-.06.34-.09.47-.18,1.29-.95,2.67-1.8,3.61-3.16.34-.49.9-.81,1.17-1.36.31.01.45-.22.6-.43,1.09-1.53,2.35-2.91,3.65-4.26.54-.56,1.14-1.07,1.6-1.72.17-.24.45-.41.69-.58.89-.64,1.69-1.37,2.44-2.16.78-.83,1.25-1.77,1.28-2.92.01-.56.17-1.11,0-1.69-.03-.12-.07-.23-.12-.34-1.07-.62-2.13-1.14-3.5-1.14-.07,0-.13,0-.2.01-1.13.6-2.31,1.14-3.24,2.06-.53.52-1.02,1.08-1.54,1.6-.37.37-.76.71-1.14,1.07-.27.56-.66.97-1.31,1.04h0c-.1.31-.37.48-.61.66-.7.51-1.44.99-2.12,1.52-1.16.91-2.3,1.85-3.43,2.8-.23.19-.4.45-.57.7-.06.09-.07.27-.02.37.1.2.28.1.45.07.44-.09.54-.55.87-.75.39-.25.87-.15,1.29.27.28.27.15.51.02.82-.3.69-.74,1.06-1.52.86-.08-.02-.18-.03-.26-.01-.82.12-1.44.5-1.71,1.33.16.04.42.04.34.26-.16.45-.41.86-.6,1.3-.1.23-.18.48-.25.73-.02.06.04.18.09.22.1.08.25.12.35,0,.14-.16.28-.33.38-.51.24-.43.65-.55,1.07-.65.18-.04.33.06.29.29-.02.13-.1.29-.05.38.43.75-.1,1.11-.59,1.47-.52.39-1.05.76-1.58,1.13-.48.34-.86.74-.81,1.39.03.39-.15.69-.46.88-.83.51-1.21,1.45-1.97,2.03-.23.18-.15.48-.16.73Zm12.63-16.4c-.21.18-.45.24-.7.1-.16-.08-.26-.21-.31-.43.04-.08.07-.21.14-.3.14-.17.35-.23.57-.22.22,0,.43.04.51.29.07.23-.04.41-.21.56Zm-.91,6.45s.04-.08.06-.11c.11-.19.24-.37.49-.29.25.08.3.29.25.51-.08.32-.27.63-.19.98-.83-.19-.94-.39-.61-1.09Zm-1.11-1.01c.35-.06.61.12.66.45.04.28-.13.54-.38.58-.41.06-.78-.14-.83-.43-.04-.27.22-.54.56-.6Zm-.57-2.01c0-.29.24-.54.48-.48.2.05.25.22.26.4,0,.23-.06.43-.33.47-.21.03-.41-.17-.41-.39Zm-1.61,5.52s0-.09.03-.36c0,.01,0-.21.06-.41.05-.16.18-.29.38-.3.2,0,.32.13.41.28.16.27.15.58.11.88-.05.32-.35.57-.64.51-.32-.07-.36-.33-.34-.61Zm-2.19,2.5c.16-.15.34-.27.57-.21.26.07.28.28.27.5,0,.17,0,.33,0,.5-.25-.05-.5-.07-.74-.15-.25-.09-.3-.44-.11-.64Z"/>
      <path class="cls-8" d="m89.83,21.97c.07.16.21.29.4.34.82.19,1.52.56,2.14,1.12.16.15.4.24.61.15.62-.29,1.37-.33,1.82-.96-.06-.47-.21-.85-.79-.81-.22.02-.44.01-.59-.19-.28-.38-.69-.48-1.12-.59-.42-.11-.54-.55-.22-.79.44-.33.75-.7.81-1.27.02-.2.18-.39.3-.57.16-.24.48-.24.65,0,.24.32.22.52-.08.86-.42.46-.37.87.17,1.13.45.22.92.32,1.31-.11.4-.44.75-.27,1.36.23-.96-.06-1.12.41-1.17,1.03-.03.32-.28.62-.43.93.24.55.57,1.01,1.12,1.3.27.14.45.36.41.69-.59-.05-1.02-.38-1.45-.76-.35-.31-.67-.3-.92-.06-.29.28-.33.7-.06,1.06.28.38.6.73,1.07.9.36.13.73.27,1.09.41.42-.18.77-.42.75-.94,0-.24.05-.43.29-.52.59-.22.63-.66.46-1.16-.09-.27-.15-.51.18-.65.31-.13.52-.32.67-.53.09-.3.18-.61.28-.91.01-.16.02-.32,0-.49-.41-.05-.63-.34-.67-.69-.08-.7-.46-1.29-.65-1.95-.11-.41-.28-.81-.39-1.22-.05-.18.09-.32.24-.42.16-.12.34-.1.48.02.16.13.33.29.42.47.21.42.4.86.57,1.3.14.36.24.74.56,1,.4-.28.46-.69.49-1.13.06-.85.04-1.72.24-2.56-.13-.03-.26-.1-.38-.08-.59.08-.97-.13-1.26-.67-.27-.49-.66-.91-1.21-1.14-.12-.05-.22-.13-.31-.22-.21-.2-.26-.6-.12-.84.13-.21.33-.26.56-.26.69,0,1.25.21,1.65.83.3.46.5,1.02,1.09,1.24,0-.34.01-.67.02-1.01-.59-.53-.5-1.33-.77-1.99-.08-.19-.01-.43.19-.56.19-.12.41-.11.6,0,.24.15.36.51.74.4-.12-1.17-.31-2.32-.56-3.46-.21-.97-.29-1.97-.46-2.95-.27-1.49-.87-2.8-2-3.86-1.52-1.43-4.27-1.51-5.87.22-.69.75-1.08,1.58-1.08,2.6.76,1.71,1.36,3.48,1.45,5.37.01.24.01.49.01.74.16.61.36,1.22.31,1.81-.11,1.2-.47,2.39-.77,3.57-.19.72-.42,1.41-.51,2.16-.06.47-.16.94-.42,1.36-.11.18-.25.4-.25.6,0,.63-.18,1.13-.62,1.56-.13.31-.26.61-.39.91Zm5.41-13.7c-.02.32-.29.53-.61.47-.26-.05-.43-.27-.41-.55.02-.32.29-.52.61-.47.26.04.43.27.41.55Zm-.99,3.21c-.07.05-.16.06-.24.08-.28.05-.6-.25-.59-.6,0-.18.12-.36.3-.49.99-.69,2.08-.8,3.23-.56.49.1.75.46.66.81-.07.28-.32.43-.87.35-.88-.12-1.71-.12-2.48.41Zm1,2.26c0,.31-.15.5-.59.53-.35.03-.67.13-.99.23-.26.08-.53.03-.69-.21-.15-.23-.14-.5,0-.73.26-.45.65-.66,1.39-.59,0,0,.22.01.42.08.31.11.47.35.46.69Zm-3.07,3.63c0-.19.12-.36.28-.4.62-.15,1.25-.25,1.84-.37.08,0,.12,0,.16,0,.36.02.63.21.67.48.04.27-.21.53-.58.56-.51.03-1.02.04-1.52.24-.14.06-.34,0-.5-.04-.22-.07-.36-.22-.36-.47Z"/>
      <path class="cls-8" d="m96.56,24.49s.07.06.1.08c-.01-.02-.02-.06-.03-.07-.02,0-.04-.01-.06-.02Z"/>
      <path class="cls-4" d="m160.12,49.21c.27-.83.89-1.21,1.71-1.33.08-.01.18,0,.26.01.79.2,1.22-.17,1.52-.86.13-.3.26-.55-.02-.82-.43-.42-.9-.52-1.29-.27-.33.21-.43.67-.87.75-.17.03-.35.13-.45-.07-.05-.1-.04-.28.02-.37.17-.25.34-.51.57-.7,1.13-.95,2.27-1.89,3.43-2.8.68-.54,1.42-1.01,2.12-1.52.24-.18.51-.35.61-.66-.36-.03-.68.05-.95.31-.22.21-.44.42-.78.43-.66.02-1.13-.39-1.65-.69-.28-.16-.3-.38-.05-.76.11-.17.21-.28.03-.43-.27-.22-.56-.41-.82-.64-.55-.49-.49-.72.23-1.1.07-.04.12-.1.22-.17-.16-.09-.31-.18-.46-.26-.15-.08-.32-.14-.47-.23-.5-.28-.51-.39-.09-.85.22-.25.19-.47-.09-.54-.08-.02-.17-.03-.26-.04-.77-.13-.76-.13-.83-.93-.03-.34-.09-.69-.17-1.03-.05-.24.08-.42.13-.62-.08-.26-.25-.48-.51-.52-.53-.08-.92-.44-1.37-.66-.67-.33-1.32-.83-1.27-1.76-.39.22-.79.35-1.24.25-1.53-.35-3.07-.58-4.64-.54-.31,0-.65,0-.86-.23-.35-.38-.9-.54-1.12-1.06-1.12,0-2.17.27-3.15.8-.23.12-.42.29-.51.54.22.28.55.19.83.27.58.15,1.19.22,1.56.8.17.26.49.33.77.44.32.13.64.26.95.41.2.1.35.3.24.52-.08.15-.29.17-.47.11-.33-.11-.65-.23-.98-.35-1.1-.39-2.21-.74-3.4-.72-.03.04-.06.07-.09.11.42.4.97.56,1.47.8.58.28,1.17.57,1.67.98.22,0,.46.05.65-.03.68-.29,1.26-.24,1.74.36.67.15,1.34.34,2.02.44.39.05.76.18,1.14.22.68.07,1.11.45,1.48.95.18.24.31.56.54.72.9.61.87,1.41.55,2.28-.16.46-.21.92-.24,1.4-.1,1.49-.53,2.9-1.15,4.24-.25.53-.89.89-1.11,1.42-.23.56-.35,1.14-.74,1.64-.37.48-.69,1-1.01,1.52-.11.18-.14.4-.2.61.09.28.28.56.13.87-.19.38-.21.72.04,1.09.11.16.07.42.09.63.75-.86,1.31-1.82,1.59-2.94.14-.58.28-.68.9-.75.09-.01.17-.02.26-.03.63-.03.88.18.96.79.04.28-.13.59.13.88.38-.13.6-.47.9-.7.24-.19.46-.4.79-.41l.27-.27c-.09-.38-.17-.76-.27-1.14-.08-.29-.2-.58-.25-.87-.08-.42.35-.76.76-.6.16.06.3.16.43.28.33.31.4.76.53,1.17.03.1,0,.27-.08.36-.3.37-.59.77-1.13.78-.02.15-.12.23-.27.26-.01.13-.03.26-.03.38,0,.49.02.51.58.62.08.02.17.04.25.05h-.01c0-.18.1-.26.27-.26h-.01Z"/>
      <path class="cls-8" d="m39.56,48.28c.18,1.18.83,2.1,1.71,2.86.53.46,1.12.84,1.8,1.04,1.1.33,1.87,1.06,2.49,2,.67,1.02,1.41,1.99,2.09,3.01.31.45.71.74,1.17,1.01,2,1.15,3.95,2.38,5.79,3.79.79.61,1.59,1.23,2.52,1.62.24-.17.55-.27.58-.63.03-.34-.12-.59-.35-.79-.29-.25-.61-.48-.91-.73-.39-.33-.84-.6-.92-1.19-.04-.26-.24-.47-.46-.6-1.03-.64-1.96-1.4-2.92-2.13-.21-.16-.46-.21-.73-.14-.18.53-.32.63-.67.46-.44-.21-.86-.44-.87-1.03,0-.32-.27-.39-.49-.54-.48-.32-.48-.98-.02-1.29.28-.19.58-.35.9-.54.17.45.35.9.87,1.06.21.06.48.11.61-.08.19-.28-.1-.34-.29-.43-.08-.04-.16-.07-.23-.12-.34-.26-.3-.63.08-.82.23-.12.53,0,.76-.25-.53-.68-1.07-.19-1.62.03-.05-.16-.11-.28-.12-.4,0-.45-.21-.73-.65-.87-.16-.05-.32-.15-.44-.27-.17-.17-.18-.39-.05-.59.16-.24.39-.35.67-.29.3.06.58.2.8.42.84.83,2,1.03,3,1.55.1.05.29.08.37.03.49-.36.91.1,1.37.09.25,0,.41.13.47.37.15.62.63.71,1.12.58.82-.22,1.63-.23,2.46-.18.34.02.69-.08,1.03-.13.13-.02.26-.07.38-.06.18.02.32.15.38.32.06.18.01.35-.15.46-.1.07-.23.16-.35.16-.77.02-1.03.54-1.19,1.17-.07.25-.14.5-.22.75-.18.53-.16,1.03.27,1.45.23.22.35.47.4.79.16.98.47,1.26,1.43,1.33.43.03.87.02,1.31,0,.38-.02.73-.22.84-.55.32-.95.62-1.94.21-2.92-.24-.59-.5-1.16-.99-1.65-.5-.5-.85-1.15-1.22-1.77-.19.02-.38.02-.58.02-2.27-.04-4.93-.95-7.13-2.37-.92-.38-1.78-.83-2.57-1.46-.4-.32-.87-.58-1.33-.82-1.36-.71-2.67-1.47-3.97-2.28-.78-.49-1.59-.9-2.48-1.18-.55-.17-1.11-.21-1.68-.22-1.35-.02-2.59,1.05-2.3,2.95Zm8.33,3.9c.05-.14.12-.25.27-.25.35,0,.63.28.63.66,0,.2-.15.29-.33.32-.04,0-.09-.01-.12-.03-.3-.14-.44-.39-.45-.7Z"/>
      <path class="cls-5" d="m49.4,56.29c.22.15.48.22.49.54,0,.59.42.82.87,1.03.35.17.49.07.67-.46.27-.07.52-.02.73.14.96.73,1.89,1.5,2.92,2.13.22.14.42.34.46.6.08.58.53.86.92,1.19.3.25.61.47.91.73.24.2.38.46.35.79-.03.37-.35.46-.58.63.78.65,1.86,1.19,2.84,1.42,0-.79.34-1.31,1.1-1.57.24-.08.46-.23.69-.35.39-.21.74-.16,1.08.12.73.6.76,1.52.03,2.13-.29.24-.68.38-1.02.56.06.22.2.36.43.41.31.07.37.31.41.57.98-.48,2-.41,3.03-.2.58.11,1.13.36,1.82.37-.13-.18-.18-.32-.28-.37-.54-.27-.8-.64-.52-1.25.08-.17-.04-.32-.2-.42-.15-.09-.29-.18-.42-.3-.35-.34-.43-.64-.13-1.03.3-.39.36-.88.64-1.26-.27-.03-.48-.15-.62-.41-.62-1.1-1.08-2.27-1.45-3.48-.06-.21-.09-.44.03-.63.16-.26.45-.21.71-.23-.06-.16-.16-.31-.18-.47-.07-.53.22-1.09.63-1.28.46-.21,1.04-.1,1.38.32.16.19.24.44.36.67,1.53.06,2.98-.41,4.46-.71.85-.17,1.68-.4,2.56-.36-.18-.24-.36-.49-.55-.72-.47-.56-.91-1.16-1.81-.91-.44.12-.84-.13-.94-.52-.15-.59-.5-.73-1.02-.76-.16,0-.31-.15-.48-.2-.3-.09-.63-.11-.87.1-.24.21-.03.48,0,.72.07.63-.22,1.08-.81,1.32-.47.19-.99,0-1.36-.49-.08-.1-.12-.23-.19-.34-.31-.53-.31-.47-1-.43-.75.04-1.52.04-2.11-.52-.51.3-1.1.48-1.79.53.38.62.72,1.27,1.22,1.77.49.49.75,1.06.99,1.65.41.99.11,1.98-.21,2.92-.11.32-.46.53-.84.55-.43.02-.87.03-1.31,0-.96-.07-1.27-.35-1.43-1.33-.05-.32-.17-.57-.4-.79-.43-.42-.44-.92-.27-1.45.08-.25.16-.5.22-.75.16-.63.42-1.15,1.19-1.17.12,0,.24-.09.35-.16.16-.11.21-.28.15-.46-.06-.17-.2-.3-.38-.32-.12-.01-.25.04-.38.06-.34.05-.69.15-1.03.13-.83-.05-1.64-.03-2.46.18-.49.13-.97.04-1.12-.58-.06-.24-.22-.37-.47-.37-.46,0-.88-.44-1.37-.09-.08.06-.27.03-.37-.03-1-.52-2.16-.72-3-1.55-.22-.22-.5-.36-.8-.42-.28-.06-.51.05-.67.29-.13.21-.13.42.05.59.12.12.28.22.44.27.44.14.64.42.65.87,0,.12.07.24.12.4.54-.22,1.08-.71,1.62-.03-.23.25-.53.14-.76.25-.38.19-.42.56-.08.82.07.05.15.08.23.12.19.09.47.15.29.43-.13.19-.4.14-.61.08-.52-.16-.7-.61-.87-1.06-.32.19-.62.35-.9.54-.46.32-.46.97.02,1.29Zm6.76-.55c.01-.11.1-.26.19-.31.14-.08.32-.1.39-.11.52,0,.79.16.84.41.05.26-.15.6-.44.73-.43.19-1.03-.23-.97-.71Zm-3.05.93c-.04-.51.49-1.04,1.09-1.08.49-.04,1,.42,1.06.95.06.54-.45,1.1-1.01,1.13-.61.03-1.1-.4-1.14-1Zm-1.79.59s.05.08.08.11c-.03-.01-.05-.02-.07-.04-.01-.01,0-.05,0-.07Z"/>
      <path class="cls-8" d="m81.9,105.8c-.11.18-.14.4-.21.6h0c-.57.49-.84,1.15-1.04,1.84h0c-.31.18-.49.44-.5.81-.29.28-.4.66-.57,1.01-.51,1.06-1.03,2.11-1.58,3.15-.35.66-.77,1.27-1.33,1.76-.67.58-1.49.88-2.3.55-1.19-.47-2.23-1.19-2.47-2.62-.17-1-.22-2-.07-2.99.15-.91.18-1.82.16-2.73.08-.1.2-.19.23-.3.29-.99.53-1.99.84-2.97.31-.99.33-2.02.46-3.03.18-.52.51-.98.57-1.54.47-.49.56-1.15.84-1.73.49-1.02.92-2.02.83-3.23-.06-.72.39-1.42.99-1.91.38-.31,1-.3,1.33,0,.25.23.4.75.19,1.08-.26.42-.36,1.01-1,1.11-.23.04-.38.21-.45.42-.05.17-.08.4.09.47.38.16.75.43,1.21.26.2-.08.42-.14.63-.15.54-.03.9.34.9.88,0,.37-.13.68-.3.98-.49.82-.99,1.64-1.49,2.45-.27.44-.48.5-.98.32-.24-.09-.47-.23-.71-.32-.37-.12-.72.11-.9.55-.12.3-.02.52.39.68.51.2.98.38.9,1.08-.01.09.12.26.22.29.41.13.65.58,1.07.64.37-.42.7-.83,1.06-1.2.32-.31.65-.35.95-.16.36.22.59.53.54.96-.03.21-.12.41-.21.61-.19.41-.52.68-.88.94-.35.26-.25.81.16.92.55.15.8-.69,1.4-.48.06.02.2-.13.28-.23.05-.06.05-.16.06-.25.01-.13,0-.26.03-.39.06-.34.2-.44.54-.35.17.04.32.14.47.21.11.7.03,1.37-.35,1.99Zm-4.66-.5c.34-.09.57-.45.47-.79-.07-.22-.22-.37-.47-.34-.41.05-.76.33-.73.58.05.34.43.63.73.55Zm-1.79-7.34c-.02.26.14.48.32.45.23-.04.36-.19.4-.42.03-.22-.14-.43-.33-.44-.27.02-.37.17-.39.41Zm4.52,8.89c.14-.1.22-.24.15-.43-.07-.18-.2-.25-.39-.21-.22.04-.35.27-.28.46.07.19.35.3.51.18Z"/>
      <path class="cls-8" d="m131.11,41.77c-.28-1.24-.37-2.49-.32-3.76.01-.37-.04-.73-.41-.88-.72-.3-1.05-.87-1.22-1.58-.05-.21-.13-.41-.22-.61-.08-.19-.41-.26-.55-.11-.18.18-.35.39-.51.58-.68.79-.68.79.26,1.41.22.15.32.33.14.52-.61.68-1.2,1.41-2.25,1.38-.32,0-.45.22-.56.47-.3.68-.59,1.35-.9,2.03-.18.4-.47.73-.83.99-.27.19-.61.15-.83-.07-.21-.21-.28-.5-.1-.71.83-.98.98-2.32,1.77-3.32.11-.15.14-.3.08-.49-.2-.62.1-1.1.49-1.53.29-.32.6-.63.86-.91.01-.27-.12-.38-.3-.42-.3-.07-.41-.52-.76-.44-.36.08-.56.4-.75.69-.1.14-.15.31-.22.47-.12.3-.31.53-.67.53-.36,0-.55-.22-.62-.55-.07-.35-.25-.27-.44-.12-.31.25-.55.55-.55.99,0,.17,0,.35-.04.52-.08.47-.62.69-1,.39-.4-.31-.6-.74-.66-1.23,1.05-2.14,2.88-3.42,4.92-4.46.31-.16.61-.29.89-.51,1.35-1.09,2.67-2.24,4.21-3.08.59-.32.89-.79.83-1.49-.05-.48-.04-.96-.05-1.44,0-.44.12-.86.33-1.25.46-.84,1.31-1.16,2.22-.87.7.22,1.24.67,1.6,1.28,1.29,2.17,1.46,3.82-.1,5.93-.21.28-.42.55-.66.8-.51.53-1.04,1.05-1.57,1.57-.22.22-.44.42-.75.51-.03-.35-.1-.68-.46-.84-.07-.03-.18-.03-.24,0-.44.21-.33.64-.35,1.01-.02.36.19.54.55.54-.03.47-.4.75-.65,1.09-.14.2-.18.38,0,.57.04.07.07.19.14.21.78.29,1,.83,1.1,1.67.24,2.18.64,4.34,1,6.5.06.38.17.76.31,1.12.14.33,0,.59-.11.86-.64.15-1.05-.11-1.3-.7-.19-.44-.23-.9-.32-1.35-.03-.66-.28-1.27-.42-1.9Zm-4.97-8.47c.03.19.13.32.32.33.19.01.34-.09.37-.27.03-.2.03-.42,0-.62-.03-.18-.18-.29-.37-.28-.19.01-.29.15-.33.33-.01.08-.02.17-.03.25,0,.08,0,.17.02.25Zm-2.59,0c.02.2.17.31.35.3.32,0,.6-.26.6-.55,0-.18-.1-.32-.3-.36-.36-.04-.69.25-.66.6Zm5.86.36c.32,0,.57-.31.5-.59-.05-.18-.19-.29-.37-.31-.28-.02-.53.3-.5.61.04.2.18.29.36.29Zm.07-3.44c.04-.19-.03-.33-.21-.4-.21-.08-.46.08-.45.3,0,.18.09.32.28.35.2.01.34-.06.39-.25Zm-1.89,2.42c.2-.01.3-.15.28-.34-.03-.2-.17-.3-.36-.28-.19.02-.28.17-.28.37.03.21.19.26.36.25Z"/>
      <path class="cls-5" d="m128.71,43.65c-.27-.12-.51-.31-.83-.3-.27.01-.5.1-.63.35-.11.21-.04.41.1.59.1.13.21.26.32.39-.25.04-.53.02-.75.13-.93.46-1.94.66-2.93.92-.37.09-.74.21-1.1.35-.18.07-.18.27-.22.44-.59-.2-1.03-.6-1.44-1.04-.47-.5-.96-.97-1.53-1.38-.56-.4-1.1-.66-1.77-.29-.16.09-.33.04-.48-.06.06-.37.34-.59.58-.83.29-.29.44-.56.3-1.02-.22-.75-.07-1.54-.07-2.31,0-.24.18-.37.4-.44.09.38.16.77.29,1.13.18.51.5.73.84.65.37-.08.56-.43.51-.93-.01-.13-.04-.26-.07-.39-.05-.3-.1-.6-.15-.9-.11-.7-.14-.72-1.05-.82-.09-.54.2-.99.35-1.47.08-.25.33-.37.59-.43.06.49.26.92.66,1.23.38.3.91.08,1-.39.03-.17.04-.35.04-.52,0-.44.24-.73.55-.99.19-.15.37-.23.44.12.07.33.27.55.62.55.35,0,.54-.23.67-.53.07-.16.12-.33.22-.47.19-.29.4-.61.75-.69.35-.08.45.37.76.44.18.04.31.14.3.42-.26.28-.57.58-.86.91-.39.44-.69.91-.49,1.53.06.18.03.34-.08.49-.78,1-.94,2.33-1.77,3.32-.18.21-.11.5.1.71.22.22.57.26.83.07.36-.25.65-.58.83-.99.3-.67.6-1.35.9-2.03.11-.25.24-.48.56-.47,1.05.03,1.64-.7,2.25-1.38.18-.2.09-.38-.14-.52-.94-.62-.94-.63-.26-1.41.17-.2.33-.4.51-.58.15-.15.47-.08.55.11.08.2.16.4.22.61.17.71.51,1.28,1.22,1.58.37.16.42.52.41.88-.05,1.27.04,2.52.32,3.76.14.63.39,1.24.42,1.9-.94,0-1.88-.01-2.82-.02Zm-.15-2.46c.14-.3,0-.65-.47-.95-.31-.2-.53-.43-.69-.74-.16-.31-.46-.38-.78-.29-.28.08-.44.28-.48.55-.04.26-.05.52-.02.78.1.71.57,1.01,1.55,1.03.36.03.71,0,.89-.37Zm-7.25-1.07c.34.07.8-.27.83-.62.04-.37-.32-.72-.73-.73-.32,0-.69.31-.72.62-.03.27.31.68.61.74Z"/>
      <path class="cls-5" d="m81.39,80.28c-.77-.1-1.21-.55-1.51-1.24-.29-.67-.51-.75-1.22-.53-.33.1-.66.22-.96.38-.59.31-.59,1.15.01,1.47.33.18.76.2.91.64-.56,0-1.12.06-1.67-.08.15-.57.08-1.04-.59-1.23-.23-.07-.14-.23-.09-.41.18-.6.03-.93-.52-1.08-.33-.09-.69-.09-.99-.3-.07-.05-.13-.12-.19-.17.01-.04,0-.09.04-.12.8-.81.75-.77.01-1.7-.53-.67-.98-1.42-1.23-2.25h0c.32.13.65.25.97.38.22.09.42.11.61-.04.23-.18.26-.42.25-.7-.01-.31-.55-.45-.29-.77.13-.17.48-.15.72-.25.21-.09.33-.28.35-.52.03-.35.02-.7.06-1.04.05-.43.22-.59.67-.67.13-.02.26,0,.39-.02.71-.14,1.01-.55,1.03-1.29,0-.41-.19-.76-.25-1.14-.06-.35-.15-.68-.3-1,.6-.05,1.12.04,1.41.68.13.29.45.41.73.52,1.28.5,2.31,1.34,3.3,2.27.62.59.98,1.2.83,2.06-.14-.1-.29-.19-.42-.3-.95-.81-2.12-.6-3.11.1-.64.46-.97,1.7-.17,2.39.55.48,1.07,1,1.78,1.27-.14.53-.29.98-.36,1.44-.12.75.18,1.36.79,1.79.32.22.69.34,1.11.19.2-.08.42-.08.64-.11-.06,1.3-.42,1.7-1.67,1.87-.32-.23-.65-.44-1.05-.5Zm-3.52-7.76c.31,0,.69-.37.68-.67,0-.4-.5-.79-.91-.74-.3.04-.56.35-.53.64.04.37.44.77.77.77Z"/>
      <path class="cls-8" d="m65.55,50.6s.04-.07.06-.11c.65-.09,1.28-.25,1.85-.66.2-.14.48-.25.73-.26.52-.02,1.02-.06,1.52-.24.35-.13.67.11.81.48.04.12.05.26.06.38.04.34.26.43.55.36,1.27-.29,2.53-.59,3.79-.9.33-.08.82.07.96-.24.2-.43-.33-.63-.55-.91-.14-.17-.3-.35-.24-.58.11-.42.29-.82.68-1.08.26-.17.62-.15.83.08.14.16.24.36.39.52.32.34.43.87.91,1.09,0,.09,0,.18-.02.27-.11.16-.18.32-.19.48-.02.02-.02.04-.04.06-.54.25-.49.78-.56,1.24-.06.4.09.77.3,1.12.1.16.25.22.43.26.17.03.35.05.5.13.26.12.37.36.36.64,0,.23-.12.4-.32.53-.43.28-.93.21-1.4.27-.19.03-.32.13-.36.32-.03.17-.03.37.14.47.3.18.61.33.91.5.05.21.11.42.15.63.08.53-.14.87-.66.89-.9.04-1.83.14-2.61-.5-.18-.24-.36-.49-.55-.72-.47-.56-.91-1.16-1.81-.91-.44.12-.84-.13-.94-.52-.15-.59-.5-.73-1.02-.76-.16,0-.31-.15-.48-.2-.3-.09-.63-.11-.87.1-.24.21-.03.48,0,.72.07.63-.22,1.08-.81,1.32-.47.19-.99,0-1.36-.49-.08-.1-.12-.23-.19-.34-.31-.53-.31-.47-1-.43-.75.04-1.52.04-2.11-.52.89-.52,1.56-1.37,2.16-2.5Z"/>
      <path class="cls-8" d="m106.51,89.6c.11-.4.09-.76-.16-1.12-.2-.28-.34-.61-.53-.9-.18-.28-.24-.54,0-.83.11-.13.24-.31.23-.46-.06-.74.2-1.32.68-1.87.3-.35.17-.95-.17-1.33-.38-.42-.88-.56-1.43-.42-.45.12-.76.44-.83.91-.04.25-.06.53,0,.78.12.52-.13.82-.53,1.08-.07.05-.13.12-.21.15-.83.37-1.16,1-.91,1.94-.72.09-1.35.24-1.7.89-.11.21-.35.23-.56.29-.34.1-.66.22-.93.46-.21.19-.42.25-.7.1-.45-.24-.79-.08-1.13.3-.76.84-1.57,1.63-2.36,2.44-.34.35-.69.66-1.24.54-.36-.08-.68.09-.99.25-.82.4-.84.45-.62,1.4.03.12.03.25,0,.37-.02.07-.11.13-.17.18-.09.07-.17.06-.21-.04-.13-.31-.17-.7-.58-.79-.49-.11-.83.21-1.16.48-.51.41-.92.83-.96,1.61-.03.6-.24,1.28-.91,1.64-.47.25-.43.71-.38,1.15.38.13.77.14,1.16.07.17-.03.4-.05.48-.16.49-.66,1.32-.8,1.9-1.34.54-.5,1.18-.9,1.72-1.4,1.88-1.74,3.75-3.5,5.67-5.31.26-.03.28.32.48.46.45.32.93.47,1.48.34,1.44-.35,2.87-.69,4.3-1.05.51-.13,1-.32,1.31-.8Z"/>
      <path class="cls-5" d="m75.05,66.13c-.93-.3-1.87-.59-2.79-.92-.37-.13-.74-.2-1.13-.2,0,.13,0,.27-.03.39-.19.66-.45,1.3-.05,1.98.07.12,0,.34-.02.51-.06.3-.11.6-.22.89-.15.39-.26.74.19,1.01.07.04.13.12.17.19.28.42.09.87-.4,1.01-.24.07-.5-.18-.71.07-.05.31-.07.62-.15.9-.21.69-.75.83-1.3.4-.74-.57-.98-1.41-1.22-2.25-.1-.35.07-.76.44-.84.54-.11.84-.62,1.39-.69.16-.02.25-.24.18-.43-.09-.29-.37-.36-.61-.42-.2-.05-.3.11-.34.3-.08.39-.31.63-.72.62-.33,0-.59.11-.83.31-.18.15-.4.16-.61.06-.16-.08-.31-.16-.46-.25-.33-.19-.59,0-.85.15-.29.17-.23.44-.14.69.24.65.19,1.38.57,2,.18.29.1.6-.18.81-.29.22-.57.14-.83-.07-.13-.11-.28-.21-.41-.31-.1.7.1,1.26.77,1.59.49.24.72.7.96,1.15.2.36.26.83.74.98,0-.64-.24-1.26-.11-1.91.13-.67.68-.97,1.23-.58.59.43,1.16.9,1.69,1.4.43.42.82.86,1.36,1.17.61.34.56.9-.06,1.3-.31.2-.6.36-.54.78.07.47-.3.68-.57.94,1.23,1.42,2.69,2.39,4.65,2.38.22,0,.43-.05.59-.21-.49-.19-.98-.36-1.46-.56-.24-.1-.47-.23-.67-.39-.29-.24-.3-.63-.06-.93.08-.1.19-.18.3-.25.23-.14.25-.34.14-.56-.27-.49-.56-.98-.84-1.47-.19-.34-.41-.71-.26-1.11.15-.39-.11-.5-.32-.72-.38-.38-.27-.84.23-1.02.53-.19,1.06-.41,1.64-.37h0c-.21-.46-.74-.58-1.04-.96-.44-.54-.44-1.23.13-1.59.52-.33.79-.79,1.01-1.31.14-.34.38-.57.77-.61.21-.02.43-.09.63-.17.21-.09.53.07.64-.26-.03-.05-.03-.1-.06-.12-.11-.07-.23-.12-.34-.18-.76-.42-.96-1.1-.52-1.84.11-.18.29-.32.44-.48Z"/>
      <path class="cls-5" d="m136.13,36.28c.62.27,1.14.29,1.72.03.2-.09.4-.16.61-.22.36-.09.5-.33.47-.67-.05-.54.22-1.01.32-1.51.11.07.21.18.33.2.64.09,1.14.28,1.28,1.03.06.3.47.39.77.21.48-.28.94-.6,1.41-.91.04.04.09.08.13.12-.3.67.03,1.1.56,1.46-.52.38-.67.98-.89,1.54-.47,1.16-.94,2.33-2.14,2.97-.23-.79-.5-1.56-.68-2.36-.15-.68-.63-.88-1.2-1.03-.14-.04-.37.19-.33.32.09.24.2.48.28.72.05.16.12.35.09.5-.03.15-.16.3-.28.41-.15.14-.34.08-.46-.05-.27-.28-.58-.54-.78-.88-.37-.65-1.04-.53-1.6-.69-.12-.03-.24.12-.23.26.02.21.05.43.12.63.34,1.07.69,2.15,1.05,3.22.32.95.66,1.88.99,2.83-.31.03-.57.17-.81.37-.61.49-1.23.96-1.8,1.5-.43.41-.98.3-1.49.17-.34-.09-.43-.4-.45-.73.11-.28.24-.53.11-.86-.15-.36-.25-.74-.31-1.12-.35-2.16-.76-4.32-1-6.5-.09-.84-.31-1.38-1.1-1.67-.06-.02-.09-.14-.14-.21,1.91-.34,3.7.17,5.41.92Zm-2.79.15c-.14-.24-.38-.33-.66-.36-.3-.04-.55.18-.45.44.34.89.51,1.83.73,2.76.1.41.3.81.49,1.2.13.27.37.35.66.27.23-.07.34-.26.35-.49,0-.13,0-.26,0-.62-.06-1.01-.51-2.13-1.13-3.19Zm.66,6.62c.05.19.19.31.37.29.26-.02.36-.23.33-.46-.04-.34-.1-.67-.18-1-.09-.39-.28-.56-.45-.47-.22.11-.34.36-.3.63.08.35.16.68.24,1.02Z"/>
      <path class="cls-8" d="m63.99,72.05c.14.1.28.2.41.31.26.21.54.29.83.07.28-.21.36-.52.18-.81-.38-.62-.33-1.34-.57-2-.09-.25-.15-.52.14-.69.26-.15.52-.34.85-.15.15.09.3.17.46.25.21.11.43.09.61-.06.24-.2.5-.31.83-.31.4,0,.64-.24.72-.62.04-.19.14-.35.34-.3.25.06.52.13.61.42.06.19-.02.41-.18.43-.55.07-.85.58-1.39.69-.37.08-.55.48-.44.84.24.83.48,1.67,1.22,2.25.55.43,1.1.28,1.3-.4.09-.29.1-.6.15-.9.21-.25.48,0,.71-.07.48-.14.67-.59.4-1.01-.05-.07-.1-.15-.17-.19-.44-.27-.33-.62-.19-1.01.11-.28.16-.59.22-.89.03-.17.1-.39.02-.51-.41-.68-.15-1.33.05-1.98.04-.12.02-.26.03-.39-.17-.19-.34-.33-.14-.66.34-.59.21-1.07-.39-1.23-1.29-.34-2.56-.88-3.95-.7-.28.39-.34.87-.64,1.26-.3.39-.22.69.13,1.03.12.12.27.22.42.3.17.1.28.25.2.42-.28.62-.02.98.52,1.25.1.05.15.19.28.37-.69,0-1.24-.25-1.82-.37-1.03-.2-2.05-.28-3.03.2-.42.9-.3,1.75.22,2.57.38.15.52.42.44.82.08.64.43,1.18.63,1.78Z"/>
      <path class="cls-4" d="m76.59,53.84c.04-.19.17-.29.36-.32.47-.06.96,0,1.4-.27.2-.13.31-.3.32-.53.01-.28-.09-.52-.36-.64-.15-.07-.33-.09-.5-.13-.18-.03-.33-.1-.43-.26-.21-.34-.36-.72-.3-1.12.07-.45.02-.99.56-1.24.01.02.03.03.05.05,0,.04.01.09.02.13-.04,0-.07,0-.1.03-.02.01-.04.02-.07.03-.23.08-.34.34-.23.56.1.2.39.31.59.16.06-.04.11-.09.15-.15.01-.02.02-.03.03-.05.43.37,1.14.48,1.64-.05.05-.05.13-.09.25-.12.05.08.14.14.26.15,1.26.09,2.51.11,3.77.23.95.09,1.95.26,2.76-.29.32.05.63.11.95.15.41.05.87.11,1.18.47-.41.96-.42,1.17.3,1.78.37.32.53.64.53,1.09-.55.09-1.07.31-1.65.29-1.56-.06-3.09.41-4.66.25-.84.29-1.71.24-2.57.26-.21,0-.42.11-.63.13-.86.08-1.68.4-2.56.38-.31-.16-.62-.32-.91-.5-.17-.1-.17-.3-.14-.47Z"/>
      <path class="cls-8" d="m150.93,62.81c-.59-.66-.72-.66-1.22-.08-.1.12-.22.24-.33.35-.05.03-.09.07-.14.1l.11-.13c-.05-.44,0-.87.14-1.28.06-.21.11-.42.02-.63-.09-.21-.22-.37-.47-.4-.24-.03-.43.08-.54.28-.08.15-.13.32-.14.49-.06.86-.47,1.59-.94,2.26-.67.96-1.43,1.85-2.17,2.75-.19.23-.43.43-.67.61-.28.22-.58.17-.78-.13-.2-.28-.35-.6-.55-.88-.12-.18-.29-.32-.43-.48-.19.02-.39.04-.58.05.08.54.46.92.72,1.37.19.32.21.66-.02.98-.13.18-.25.35-.38.53-.23.3-.44.8-.85.66-.29-.1-.57-.56-.64-.91-.09-.45-.28-.77-.59-1.09-.35-.37-.22-.91-.31-1.37-.08-.41-.45-.56-.77-.3-.56.47-.72,1.16-.97,1.8-.01.03,0,.1.03.12.63.46.1.89,0,1.35-.12.54-.08,1.11-.33,1.63-.07.14-.02.35,0,.51.1.55.23,1.09.34,1.63.21.07.43.13.62-.02.49-.38,1.03-.64,1.61-.82.45-.14.76-.42.79-.92.02-.23.09-.41.36-.45,1.09-.18,1.81-.97,2.64-1.58.24-.18.44-.42.67-.61.3-.24.61-.49,1.04-.45.37.03.69-.14.95-.36,1.5-1.33,2.91-2.73,3.77-4.58Z"/>
      <path class="cls-8" d="m150.72,28.49c.22.52.77.68,1.12,1.06.21.22.55.24.86.23,1.57-.04,3.11.19,4.64.54.46.11.86-.02,1.24-.25.87-1.03,1.66-2.11,2.4-3.23.12-.18.27-.35.36-.54.37-.76,0-1.39-.86-1.45-1.06-.07-2.07.2-3.06.53-1.44.47-2.84,1.08-4.2,1.76-.85.42-1.77.71-2.51,1.35Z"/>
      <path class="cls-8" d="m78.04,85.44c.22.66-.16,1.4.24,2.04.04.06.01.18-.03.25-.3.52-.14,1,.09,1.49.09.19.07.43.13.63.07.24.03.41-.16.57-.16.14-.33.29-.43.48-.17.29-.05.76.24.93.41.24.82.5,1.26.65.79.26,1.56.35,2.34-.18.79-.54,1.67-.94,2.49-1.43.26-.15.49-.36.7-.58.16-.16.22-.37.1-.6-.11-.21-.3-.33-.52-.33-.21,0-.42.07-.63.12-.41.08-.7,0-.88-.33-.18-.34-.3-.71-.45-1.07-.31-.16-.36-.5-.53-.75-.64-.04-1.08-.28-1.08-1.02,0-.27-.1-.54-.3-.7-.66-.54-1.28-1.2-2.28-.96-.1.26-.2.52-.3.78Z"/>
      <path class="cls-4" d="m99.92,51.09c-.36-.41-.83-.72-1.08-1.22.65-.36,1.35-.49,2.09-.5.78,0,1.56-.01,2.33-.02.31.96,1.17,1.29,1.95,1.71.22.12.42-.02.55-.2.14-.19.15-.41,0-.59-.1-.13-.25-.23-.37-.34-.29-.25-.58-.5-.87-.75,1.46-.13,2.85-.55,4.25-.97.53-.16,1.02-.47,1.61-.39-.35.49-.32.91.14,1.33.56.51,1.13,1.03,1.41,1.78-.14.19-.33.28-.56.27-1.1-.05-2.14.22-3.19.5-1.46.39-2.96.6-4.46.77-1.11.13-2.26,0-3.39,0,.13-.54-.07-.98-.43-1.38Zm6.74-1.17c-.13.13-.15.3-.05.47.17.3.42.54.72.71.16.09.34.09.49,0,.15-.1.22-.26.19-.45-.06-.46-.49-.9-.98-.96-.09.05-.25.12-.36.23Z"/>
      <path class="cls-8" d="m137.62,73.02c-.11-.13-.19-.31-.33-.4-.64-.37-.98-1-1.21-1.64-.4-1.1-1.13-1.94-1.85-2.81-.28-.33-.55-.67-.85-.98-.07-.07-.27-.09-.35-.04-.08.05-.16.25-.12.33.18.45.25.9.25,1.39,0,.23.21.46.33.69.27.49.63.93.79,1.49.2.69.31,1.35-.14,2-.1.14-.18.31-.2.48-.05.5-.43.65-.79.74-.4.11-.84.11-1.32.16-.05-1.2-.53-2.24-.6-3.38-.04-.64-.41-1.23-.89-1.7-.26-.25-.58-.29-.83-.12-.25.18-.36.5-.28.81.01.04.01.09.04.12.69,1.02.56,2.25.87,3.37.14.51-.19,1.09.07,1.65.08.19-.2.35-.35.5-.54.54-.53.6.09,1.23.52-.2,1.01-.43,1.58-.53.72-.13,1.3-.64,1.9-1.06.35-.25.67-.53,1.13-.57.2-.02.39-.17.58-.27.72-.37,1.35-.92,2.19-1.05.11-.02.19-.26.28-.4Z"/>
      <path class="cls-7" d="m95.67,53.02c-.06.7.36,1.01,1.06,1.15-.2.18-.33.29-.45.4-.25.23-.35.49-.21.81.1.23.26.44.25.72-.03.59.36.87.87.95.46.08.94.1,1.42.1.32,0,.58-.18.68-.51.08-.28.02-.55-.23-.68-.41-.2-.48-.57-.61-.93-.09-.25-.02-.35.17-.52.59-.53.63-.74.07-1.25-.34-.31-.37-.53-.13-.86,0-.25.04-.53-.18-.71-.22-.18-.6-.25-.71-.46-.18-.34.32-.54.37-.88.03-.21.06-.42.09-.62-.1-.05-.19-.1-.29-.15-.36,0-.73,0-1.09,0-.76.05-1.51.11-2.24.35-.29.89-.22,1.66.7,2.16.18.1.33.26.5.38.27.19.07.36-.03.53Z"/>
      <path class="cls-8" d="m73.4,73.66c-.58-.04-1.11.18-1.64.37-.5.18-.61.64-.23,1.02.21.21.47.33.32.72-.15.4.07.76.26,1.11.28.49.57.98.84,1.47.12.21.1.41-.14.56-.11.07-.22.15-.3.25-.24.31-.23.7.06.93.2.16.43.29.67.39.48.2.97.38,1.46.56.75,0,1.51.15,2.25-.12.15-.58.08-1.04-.59-1.23-.23-.07-.14-.23-.09-.41.18-.6.03-.93-.52-1.08-.33-.09-.69-.09-.99-.3-.07-.05-.13-.12-.19-.17.01-.04,0-.09.04-.12.8-.81.75-.77.01-1.7-.53-.67-.98-1.42-1.23-2.25Z"/>
      <path class="cls-8" d="m121.55,82.65c.04-.26.08-.51.12-.77q.08-.51-.44-.77c-.48-.24-.61-.47-.35-.88.47-.75.55-1.62.82-2.43.08-.26.1-.5.04-.76-.13-.59-.31-.71-.91-.55-.25.06-.5.13-.76.19-.39.09-.58.32-.59.73-.02.7-.32,1.33-.51,1.99-.04.16-.12.36-.24.44-.46.29-.62.68-.57,1.21.02.2-.07.42-.14.62-.18.54-.15,1,.33,1.4.28.23.26.63.33.97.4.02.75-.09,1.09-.32.57-.39,1.18-.72,1.77-1.08Z"/>
      <path class="cls-8" d="m69.46,78.87c.28-.26.64-.47.57-.94-.06-.42.23-.59.54-.78.63-.4.67-.95.06-1.3-.54-.31-.93-.75-1.36-1.17-.53-.51-1.09-.98-1.69-1.4-.55-.39-1.1-.09-1.23.58-.12.65.11,1.27.11,1.91.15.29.13.58.09.89-.05.4.13.71.5.82.49.14.82.43,1.13.81.32.39.8.5,1.28.58Z"/>
      <path class="cls-8" d="m67.55,46.79c.1-.2.2-.41.3-.61.26-.03.51-.07.65-.33.25-.43.68-.55,1.1-.62,1.03-.15,2.07-.28,3.11-.34.78-.05,1,.27.82,1.03-.15.61-.09.78.44,1.02.19.09.42.1.58.28.12.14.19.29.16.48-.08.58-.9,1.02-1.28.63-.61-.63-1.37-.74-2.13-.8-.91-.07-1.84-.14-2.74.06-.57.13-.93-.05-1.15-.51.04-.1.09-.19.13-.29Z"/>
      <path class="cls-8" d="m75.33,37.22c.66-.17,1.31-.35,1.98-.46.46-.07.99-.1,1.38.24.58.51,1.12,1.07,1.66,1.63.16.16.16.4.05.61-.13.25-.35.39-.64.37-.17-.01-.36-.05-.49-.15-.67-.53-1.39-.47-2.08-.12-.56.28-1.17.32-1.75.48-.41.11-.82.15-1.21.39-.45.27-.92-.02-1.03-.59-.03-.15-.01-.31,0-.47.7-.65,1.42-1.29,2.13-1.93Z"/>
      <path class="cls-4" d="m116.14,48.62c.7.03,1.23-.39,1.81-.67.86-.41,1.71-.87,2.69-.94-.54-.75-1.31-1.25-2.02-1.8-.22-.17-.44-.25-.72-.15-.89.31-1.8.09-2.7.09-.19,0-.38-.18-.58-.27-.13.27-.35.44-.6.61-.37.25-.8.44-1.04.84.47.22.93.44,1.41.65.52.23,1,.51,1.45.86.25.19.26.43.2.7l.09.09Z"/>
      <path class="cls-8" d="m81.81,43.82c.03-1.48,0-1.3-1.48-1.82-.85.08-1.27-.42-1.54-1.13-.22-.58-.66-.77-1.23-.75-.45.02-.76.43-.55.8.29.52.43,1.02.18,1.6-.05.12.02.37.12.48.37.42.71.96,1.19,1.18.51.24.72.49.79,1.02.05.34.42.4.72.47.77-.45,1.15-1.29,1.81-1.85Z"/>
      <path class="cls-8" d="m161.73,33.02c-.05.21-.18.39-.13.62.07.34.14.68.17,1.03.07.8.06.8.83.93.09.01.17.02.26.04.28.07.32.29.09.54-.42.46-.41.57.09.85.15.09.31.15.47.23.15.08.3.17.46.26-.09.07-.15.14-.22.17-.73.38-.78.61-.23,1.1.26.23.55.42.82.64.18.15.08.26-.03.43-.25.38-.23.6.05.76.52.3,1,.71,1.65.69.35-.75-.03-1.46-.23-2.13-.57-2.01-1.55-3.83-2.91-5.43-.3-.36-.57-.79-1.14-.73Z"/>
      <path class="cls-8" d="m114.63,44.87c.19.1.38.27.58.27.9,0,1.81.22,2.7-.09.28-.1.5-.02.72.15.71.56,1.48,1.05,2.02,1.8.28.19.56.39.84.56.35.22.7.26,1.05-.03.36-.3.34-.64.14-1.02-.59-.2-1.03-.6-1.44-1.04-.47-.5-.96-.97-1.53-1.38-.56-.4-1.1-.66-1.77-.29-.16.09-.33.04-.48-.06-.42-.03-.85-.06-1.27-.07-.25,0-.51-.02-.76.02-.3.05-.58.16-.75.43-.15.24-.08.49-.04.74Z"/>
      <path class="cls-8" d="m146.58,31.32c1.19-.02,2.3.33,3.4.72.33.12.65.23.98.35.18.06.39.04.47-.11.12-.23-.03-.42-.24-.52-.31-.15-.63-.28-.95-.41-.28-.11-.61-.18-.77-.44-.37-.58-.98-.66-1.56-.8-.28-.07-.62.01-.83-.27-.46-.06-.9-.17-1.23.33-.09.14-.38.14-.57.21-.13.66-.13.68-.63.72-.48.03-.95.02-1.2.54.17.23.42.27.68.27,1.19-.02,2.22.44,3.21,1.04.65.1,1.19.47,1.77.75.26.12.4-.02.54-.48-.5-.42-1.09-.7-1.67-.98-.5-.24-1.05-.41-1.47-.8-.12-.02-.25-.03-.36-.06-.07-.02-.13-.08-.19-.12.07-.04.13-.1.2-.1.17-.02.32.04.44.18Z"/>
      <path class="cls-4" d="m90.16,50.34c1.1.21,2.77.78,3.76.11.19-.13.32-.31.43-.52.05,0,.1.01.16.02-.29.89-.22,1.66.7,2.16.18.1.33.26.5.38.27.19.07.36-.03.53-1.23,0-2.47,0-3.7,0-.16-.11-.21-.27-.21-.45,0-.51-.31-.79-.73-.98-.43-.2-.91-.34-1.1-.85.04-.17.12-.3.23-.4Z"/>
      <path class="cls-8" d="m79.82,33.13c-.09.49.07.84.55,1.05.33.14.65.25,1.01.23.52-.03,1.05,0,1.56-.11.4-.08.61.01.88.32.35.4.79.39,1.16.09.22-.18.3-.42.27-.69-.03-.29-.21-.48-.47-.57-.12-.04-.26-.03-.39-.05-.53-.09-.91-.41-.95-.91-.07-.88-.6-1.19-1.36-1.3-.96.42-1.63,1.16-2.27,1.95Z"/>
      <path class="cls-8" d="m87.22,38.35c-.42-.62-1.2-.86-1.62-1.49-.05-.08-.24-.11-.36-.11-.99-.03-1.75.43-2.38,1.14-.24.27-.27.59,0,.82.38.33.53.77.72,1.21.19.42.58.55.96.3.4-.27.8-.29,1.24-.26.27-.19.53-.41.81-.58.39-.23.59-.57.63-1.01Z"/>
      <path class="cls-7" d="m91.97,53.02c-.16-.11-.21-.27-.21-.45,0-.51-.31-.79-.73-.98-.43-.2-.91-.34-1.1-.85-.34-.13-.69-.11-1.04-.1-.41.96-.42,1.17.3,1.78.37.32.53.64.53,1.09.43,1.3.16,1.09,1.49,1.43.38.1.75.2,1.14.16.28-.03.49-.18.59-.44.11-.27.02-.54-.21-.69-.37-.24-.72-.47-.77-.96Z"/>
      <path class="cls-4" d="m112.94,50.68c.46.08.82-.12,1.17-.4.68-.55,1.61-.79,2.03-1.66l-.09-.09c-.22.03-.43.05-.62-.08-.25-.17-.49-.34-.8-.41-.94-.22-1.74-.73-2.52-1.29-.39.18-.78.35-1.17.53-.22.1-.31.29-.33.51.68.44,1.2,1.06,1.73,1.66.32.35.55.75.59,1.23Z"/>
      <path class="cls-8" d="m82.44,80.77c-.32-.23-.65-.44-1.05-.5-.77-.1-1.21-.55-1.51-1.24-.29-.67-.51-.75-1.22-.53-.33.1-.66.22-.96.38-.59.31-.59,1.15.01,1.47.33.18.76.2.91.64.35.18.69.35,1.04.53.4-.04.75.14,1.13.22.25.05.51.08.77.09.69,0,.85-.19.88-1.07Z"/>
      <path class="cls-8" d="m91.9,32.87c-.23-.47-.37-.95-.38-1.5,0-.53-.54-.71-.94-.35-.16.14-.31.31-.45.47-.26.31-.56.48-.98.56-.69.13-.92.64-.63,1.26.22.48.47.96,1.14.87.32-.04.59.13.85.3.88-.18,1.26-.79,1.4-1.61Z"/>
      <path class="cls-1" d="m143.43,31.63c.25-.52.73-.51,1.2-.54.5-.03.5-.05.63-.72-.15-.25-.4-.3-.67-.31-1.05-.05-2.06.2-3.07.42-1.14.26-1.77,1.02-1.78,2.23.68-.04,1.35-.09,2.02.1.48-.51.92-1.06,1.67-1.18Z"/>
      <path class="cls-8" d="m96.01,26.57c-.44-.29-.87-.36-1.27.08-.27.3-.59.48-1.02.43-.27-.03-.5.1-.73.21-1.01.49-1.04.79-.4,1.75.41.61.86.78,1.52.59.52-.63,1.01-1.27,1.55-1.88.31-.35.43-.73.36-1.18Z"/>
      <path class="cls-8" d="m86.71,26.72c.28.08.58.14.68.5.07.24.23.34.46.38.17.03.34.07.49.15.36.2.38.77.04.99-.14.09-.32.13-.47.21-.96.53-1.96-.28-2.93.11-.12.05-.32-.1-.48-.16-.04-.01-.08-.02-.13-.04-.02-.05-.04-.1-.05-.15.89-.59,1.68-1.26,2.38-2Z"/>
      <path class="cls-8" d="m61.87,65.92c.34-.18.72-.32,1.02-.56.73-.6.7-1.53-.03-2.13-.34-.28-.69-.33-1.08-.12-.23.12-.45.27-.69.35-.76.25-1.11.78-1.1,1.57.43.73,1.14.85,1.89.89Z"/>
      <path class="cls-7" d="m141.76,32.81c-.67-.19-1.34-.14-2.02-.1-.35.33-.65.67-.49,1.2.11.07.21.18.33.2.64.09,1.14.28,1.28,1.03.06.3.47.39.77.21.48-.28.94-.6,1.41-.91.09-.58-.08-.97-.73-1.04-.34-.04-.47-.3-.56-.59Z"/>
      <path class="cls-5" d="m78.34,84.66c1-.25,1.62.41,2.28.96.2.17.3.44.3.7,0,.73.44.98,1.08,1.02-.13-.63-.29-1.24-.25-1.9.05-.64-.29-1.13-.69-1.6-.39-.45-.88-.48-1.4-.48-1.01.17-1.14.3-1.31,1.3Z"/>
      <path class="cls-5" d="m100.19,14.49c-.59-.22-.79-.78-1.09-1.24-.4-.62-.97-.83-1.65-.83-.22,0-.43.05-.56.26-.14.24-.09.64.12.84.09.09.2.17.31.22.55.23.94.65,1.21,1.14.3.54.68.75,1.26.67.12-.02.25.05.38.08,0-.38.01-.76.02-1.13Z"/>
      <path class="cls-5" d="m97.41,16.53c.16-.12.34-.1.48.02.16.13.33.29.42.47.21.42.4.86.57,1.3.14.36.24.74.56,1,0,.16-.01.33-.02.49-.13.32-.25.65-.37.98-.05.02-.11.03-.17.04-.41-.05-.63-.34-.67-.69-.08-.7-.46-1.29-.65-1.95-.11-.41-.28-.81-.39-1.22-.05-.18.09-.32.24-.42Z"/>
      <path class="cls-8" d="m98.12,49.75c-.03.21-.06.42-.09.62-.04.33-.55.53-.37.88.11.22.49.29.71.46.22.17.18.46.18.71.26-.03.51.02.73.16.39.24.73.11,1.07-.11.13-.54-.07-.98-.43-1.38-.36-.41-.83-.72-1.08-1.22-.24-.04-.48-.08-.72-.12Z"/>
      <path class="cls-4" d="m72,107.18c.08-.1.2-.19.23-.3.29-.99.53-1.99.84-2.97.31-.99.33-2.02.46-3.03-.17.05-.32.12-.39.3-.5,1.23-1.02,2.46-1.26,3.77-.14.74-.32,1.52.12,2.24Z"/>
      <path class="cls-8" d="m118.67,39.16c.09.38.16.77.29,1.13.18.51.5.73.84.65.37-.08.56-.43.51-.93-.01-.13-.04-.26-.07-.39-.05-.3-.1-.6-.15-.9-.11-.7-.14-.72-1.05-.82-.29.37-.33.81-.37,1.26Z"/>
      <path class="cls-8" d="m112.94,50.68c-.04-.49-.27-.89-.59-1.23-.54-.59-1.05-1.22-1.73-1.66-.08.02-.15.03-.23.04-.35.49-.32.91.14,1.33.56.51,1.13,1.03,1.41,1.78.38.1.72.01,1-.26Z"/>
      <path class="cls-8" d="m112.11,46.75c.78.55,1.58,1.06,2.52,1.29.31.07.55.25.8.41.2.13.41.12.62.08.05-.27.04-.51-.21-.7-.45-.35-.93-.63-1.45-.86-.47-.21-.94-.44-1.41-.65-.4-.07-.75-.06-.87.43Z"/>
      <path class="cls-8" d="m103.26,49.35c.31.96,1.17,1.29,1.95,1.71.22.12.42-.02.55-.2.14-.19.15-.41,0-.59-.1-.13-.25-.23-.37-.34-.29-.25-.58-.5-.87-.75-.11-.07-.22-.15-.34-.19-.48-.19-.52-.18-.92.37Z"/>
      <path class="cls-5" d="m82.24,103.8c.11.7.03,1.37-.35,1.99-.11.18-.14.4-.21.6.17,0,.37-.01.46-.18.72-1.33,1.58-2.58,2.14-3.99.03-.08.02-.17.02-.26-.66.05-.91.56-1.16,1.06-.19.39-.39.77-.91.77Z"/>
      <path class="cls-7" d="m155.39,59.41c0-.09,0-.17,0-.26-.07-.8-.55-1.06-1.2-.66-.15.09-.28.21-.4.33-.49.47-.5.71-.1,1.35.05.07.1.14.15.21.78.1,1.17-.44,1.56-.96Z"/>
      <path class="cls-5" d="m100.97,11.34c-.38.11-.5-.25-.74-.4-.19-.12-.41-.13-.6,0-.2.13-.27.37-.19.56.27.66.18,1.45.77,1.99.53-.03.78-.32.78-.84,0-.43-.01-.87-.02-1.3Z"/>
      <path class="cls-5" d="m131.87,33c-.03-.35-.1-.68-.46-.84-.07-.03-.18-.03-.24,0-.44.21-.33.64-.35,1.01-.02.36.19.54.55.54.32-.13.52-.34.51-.7Z"/>
      <path class="cls-2" d="m159.85,56.31c-.06.18-.12.35-.18.53.74-.18,1.45-.42,2.01-.99-.14-.03-.28-.05-.43-.08-.51.08-.87.53-1.4.54Z"/>
      <path class="cls-5" d="m81.69,106.4c-.57.49-.84,1.15-1.04,1.84.12-.03.3-.03.36-.11.38-.51.77-1.04.68-1.74Z"/>
      <path class="cls-4" d="m167.73,40.57c.65-.08,1.05-.48,1.31-1.04-.74-.04-1.18.31-1.31,1.04Z"/>
      <path class="cls-5" d="m63.36,70.28c.08-.39-.05-.67-.44-.82,0,.35-.02.71.44.82Z"/>
      <path class="cls-5" d="m80.65,108.24c-.31.18-.49.44-.5.81q.48-.18.5-.81Z"/>
      <path class="cls-8" d="m96.74,49.6c.36,0,.73,0,1.09,0-.54-.35-.56-.35-1.09,0Z"/>
      <path class="cls-8" d="m83.86,72.13c-.14-.1-.29-.19-.42-.3-.95-.81-2.12-.6-3.11.1-.64.46-.97,1.7-.17,2.39.55.48,1.07,1,1.78,1.27-.14.53-.29.98-.36,1.44-.12.75.18,1.36.79,1.79.32.22.69.34,1.11.19.2-.08.42-.08.64-.11.2-.23.4-.46.59-.7.22-.28.42-.59.43-.94,0-.67.2-1.28.37-1.91.22-.84-.21-1.52-.68-2.16-.29-.38-.74-.62-.95-1.07Z"/>
      <path class="cls-8" d="m140.71,40.53c-.23-.79-.5-1.56-.68-2.36-.15-.68-.63-.88-1.2-1.03-.14-.04-.37.19-.33.32.09.24.2.48.28.72.05.16.12.35.09.5-.03.15-.16.3-.28.41-.15.14-.34.08-.46-.05-.27-.28-.58-.54-.78-.88-.37-.65-1.04-.53-1.6-.69-.12-.03-.24.12-.23.26.02.21.05.43.12.63.34,1.07.69,2.15,1.05,3.22.32.95.66,1.88.99,2.83.26.59.51,1.2.98,1.67.15.15.43.09.56-.09.22-.32.22-.64.07-.98-.57-1.24-.38-2.56-.41-3.85,0-.06.08-.16.14-.18.06-.02.19,0,.23.05.57.66.98,1.43,1.42,2.17.15.26.3.53.47.78.07.11.23.15.34.06.09-.08.22-.2.21-.3-.02-.21-.11-.41-.19-.61-.32-.85-.82-1.64-.8-2.59Z"/>
      <path class="cls-8" d="m75.05,66.13c-.15.16-.33.3-.44.48-.44.74-.24,1.42.52,1.84.11.06.23.12.34.18.03.02.04.07.06.12-.11.33-.43.16-.64.26-.2.09-.41.15-.63.17-.4.04-.63.27-.77.61-.22.53-.49.98-1.01,1.31-.57.36-.57,1.04-.13,1.59.3.38.83.5,1.04.97.32.12.65.24.97.37.22.09.42.11.61-.04.23-.18.26-.42.25-.7-.01-.31-.55-.45-.29-.77.13-.17.48-.15.72-.25.21-.09.33-.28.35-.52.03-.35.02-.7.06-1.04.05-.43.22-.59.67-.67.13-.02.26,0,.39-.02.71-.14,1.01-.55,1.03-1.29,0-.41-.19-.76-.25-1.14-.06-.35-.15-.68-.3-1-.81-.38-1.66-.55-2.55-.47Z"/>
      <path class="cls-4" d="m112.17,56.01c0,1.07.28,1.88.87,2.56.54.62,1.32.61,1.81.04.28-.33.37-.75.21-1.1-.31-.68-.25-1.34-.1-2.03.05-.2.03-.43-.01-.64-.12-.58-.51-.95-1.04-1.02-.62-.08-1.12.17-1.4.72-.2.38-.34,1.08-.34,1.48Z"/>
      <path class="cls-7" d="m140.05,63.26q.72-.35.65-1.25c-.34-.34-.67-.67-.89-1.11-.24-.47-.64-.81-1.07-1.12-.27-.2-.63.23-.82-.11-.14-.26-.21-.56-.43-.79-.27-.28-.52-.58-.79-.86-.26-.27-.67-.27-.93.02-.26.29-.49.61-.69.94-.18.3-.03.73.3.88.23.11.49.16.74.22.38.09.76.17,1.14.24.19.04.33.13.36.32.07.42.29.7.68.89.14.07.25.24.33.38.34.58.82,1,1.4,1.32Z"/>
      <path class="cls-5" d="m141.76,32.81c.08.29.21.55.56.59.65.07.82.46.73,1.04.04.04.09.08.13.12.33-.01.66-.02.99-.03.89-.49,1.79-.94,2.74-1.31.16-.06.31-.12.41-.27-.99-.61-2.02-1.07-3.21-1.04-.27,0-.51-.04-.68-.27-.75.11-1.19.67-1.67,1.18Z"/>
      <path class="cls-8" d="m143.93,53.04c.54.53,1.21.85,1.89,1.15.72.31,1.43.38,2.06-.23.12-.12.31-.16.45-.26.44-.3.46-.42.23-1.1-.28-.11-.57-.24-.85,0-.63.53-1.27.38-1.9,0-.18-.11-.37-.22-.55-.34-.31-.19-.62-.3-.97-.12-.36.19-.4.53-.37.89Z"/>
      <path class="cls-4" d="m127.84,59.88c.35,0,.55-.16.67-.42.1-.22.05-.44-.1-.61-.2-.23-.46-.41-.63-.66-.44-.62-1.2-1.02-1.28-1.91-.02-.26-.33-.39-.59-.47-.28-.08-.52.03-.7.25-.15.18-.21.4-.1.61.42.76.84,1.51,1.29,2.25.26.42.68.67,1.12.88.11.05.25.06.32.08Z"/>
      <path class="cls-4" d="m103.09,77.32c.04.69.74,1.33,1.4,1.28.68-.04,1.32-.74,1.28-1.4-.04-.68-.74-1.32-1.4-1.28-.69.04-1.32.74-1.28,1.4Z"/>
      <path class="cls-4" d="m76.54,63.16c.01-.32-.03-.57-.16-.81-.22-.42-.57-.67-1.03-.66-.41,0-.73.23-.95.59-.16.27-.23.55-.24.86-.02.69.39,1.25.97,1.32.57.07,1.18-.37,1.35-.98.03-.12.04-.25.05-.32Z"/>
      <path class="cls-4" d="m108.57,70.33c-.03.64.45,1.22,1.06,1.28.73.07,1.36-.49,1.38-1.24.02-.69-.52-1.29-1.18-1.3-.61-.01-1.23.61-1.26,1.27Z"/>
      <path class="cls-7" d="m153.56,51.58c-.03-.21.01-.47-.09-.63-.25-.38-.23-.72-.04-1.09.16-.31-.03-.58-.13-.87-.38-.08-.76-.17-1.06.2-.23.28-.41.67-.23.94.42.61-.04,1.15,0,1.72.06.48.31.75.81.75.16,0,.33,0,.49,0h0c-.04-.37.05-.71.24-1.02Z"/>
      <path class="cls-8" d="m67.51,56.91c-.12-.22-.2-.48-.36-.67-.35-.41-.92-.53-1.38-.32-.41.19-.7.75-.63,1.28.02.16.12.32.18.47.1.08.18.18.29.24.89.45,1.38.27,1.8-.64.05-.11.07-.24.1-.36Z"/>
      <path class="cls-4" d="m141.06,50.8c-.06.69,1.21,2.01,1.95,2.02.39,0,.75-.51.54-.84-.43-.65-.97-1.22-1.61-1.67-.32-.22-.84.1-.88.49Z"/>
      <path class="cls-8" d="m67.73,61.56c.33.03.67-.07.98-.23.25-.13.41-.34.37-.63-.03-.3-.3-.58-.6-.61-.3-.02-.61-.03-.91.01-.45.06-.74.4-.7.8.03.39.35.65.86.66Z"/>
      <path class="cls-7" d="m144.17,34.53c-.33.01-.66.02-.99.03-.3.67.03,1.1.56,1.46.33.09.67.17.99-.03.26-.16.47-.38.46-.72-.01-.34-.21-.55-.52-.65-.16-.05-.33-.06-.5-.09Z"/>
      <path class="cls-7" d="m125.43,68.78c.57.71.87.73,1.35.11.13-.17.24-.35.38-.51.29-.34.24-.7.06-1.06-.56-.22-.98,0-1.35.43-.26.3-.37.66-.44,1.04Z"/>
      <path class="cls-4" d="m133.93,48.32c-.03.4.09.8.44,1.12.21.19.44.27.71.16.28-.11.46-.43.38-.75-.07-.29-.17-.58-.3-.86-.14-.32-.43-.45-.74-.4-.3.05-.48.29-.49.73Z"/>
      <path class="cls-8" d="m153.32,52.61c-.16,0-.33,0-.49,0-.5,0-.75-.27-.81-.75-.21,0-.42.03-.63,0-.43-.05-.73.13-.95.48.02.38.2.65.51.86.19.13.46.22.61.07.42-.43.97-.31,1.46-.43.11-.03.2-.15.3-.23Z"/>
      <path class="cls-7" d="m115.3,76.89c.19.09.38.22.58.27.36.08.61-.06.72-.38.12-.37.26-.74.16-1.14-.29-.32-.64-.44-1.04-.24-.4.2-.49.56-.45.98,0,.09.01.17.02.26s0,.17.01.26Z"/>
      <path class="cls-4" d="m98.88,62.24c.02.39.38.72.77.7.4-.02.72-.37.7-.77-.02-.4-.38-.72-.77-.7-.39.02-.72.38-.7.77Z"/>
      <path class="cls-4" d="m114.7,73.7c-.02.33.28.66.64.71.39.06.81-.27.82-.65.01-.33-.28-.66-.64-.72-.38-.06-.8.28-.83.66Z"/>
      <path class="cls-7" d="m128.72,44.69c-.07.2-.16.4-.2.61-.08.39.12.67.5.78.31.09.61-.05.77-.34.14-.27.04-.6-.22-.81-.26-.21-.59-.1-.87-.23l.02-.02Z"/>
      <path class="cls-7" d="m128.71,43.65c-.27-.12-.51-.31-.83-.3-.27.01-.5.1-.63.35-.11.21-.04.41.1.59.1.13.21.26.32.39.35,0,.69,0,1.04,0l-.02.02c0-.35,0-.7,0-1.06Z"/>
      <path class="cls-4" d="m107.89,53.05c0,.35.36.72.75.76.23.02.53-.24.53-.46,0-.34-.37-.72-.75-.76-.23-.03-.53.24-.53.46Z"/>
      <path class="cls-4" d="m87.84,73.12c-.02.32.22.56.56.58.4.02.68-.22.69-.6,0-.32-.26-.62-.54-.6-.37.02-.69.31-.71.62Z"/>
      <path class="cls-8" d="m120.24,73.75c.15.21.27.47.59.4.13-.03.21-.14.21-.29,0-.36-.29-.38-.52-.46-.09.12-.19.23-.28.35Z"/>
      <path class="cls-8" d="m112.72,84.09c.32-.44.07-.9-.24-1.35.17-.63-.08-1.41.68-1.85.29-.17.52-.46.77-.7.19-.19.29-.43.29-.71,0-.33-.16-.64-.44-.73-.27-.09-.56-.04-.7.2-.33.55-.87.84-1.37,1.18-.6.41-1.09.89-.91,1.72.06.27-.08.5-.2.74-.12.23-.3.49-.28.72.08.71-.31,1.13-.8,1.53-.39.32-.62.73-.56,1.25.04.33-.05.59-.36.77-.15.09-.28.21-.39.34-.19.21-.25.45-.08.71.18.27.41.47.75.43.17-.02.34-.09.49-.18,1.08-.66,2.15-1.33,3.22-1.99.04-.02.07-.05.1-.08.47-.36.69-.91.24-1.47-.11-.13-.26-.24-.22-.55Z"/>
      <path class="cls-8" d="m153.56,51.58c-.19.32-.29.66-.24,1.03.62-.17,1.24-.36,1.86-.51.15-.04.39-.03.49.06.23.22-.05.36-.16.51-.07.11-.18.19-.25.3-.09.15-.17.33-.08.49.19.35.25.73.29,1.12.02.2.15.32.34.33.19,0,.33-.12.35-.31.03-.26.05-.52.02-.78-.05-.47.07-.85.42-1.17.98-.91,1.76-2.04,3.01-2.65.22-.11.29-.31.27-.54-.08-.02-.17-.04-.25-.05-.56-.11-.58-.12-.58-.62,0-.13.02-.26.03-.38l.02.02c-.33,0-.55.22-.79.41-.3.23-.52.57-.9.7-.26-.29-.09-.6-.13-.88-.08-.61-.33-.82-.96-.79-.09,0-.17.02-.26.03-.62.07-.76.17-.9.75-.27,1.12-.84,2.08-1.59,2.94Z"/>
      <path class="cls-8" d="m93.77,86.47c0,.64.22.99.69,1.11.72.18,1.2-.03,1.52-.66.21-.41.24-.83.17-1.27-.07-.48-.48-.86-.96-.93-.53-.08-.92.13-1.18.62-.18.34-.24.65-.24,1.13Z"/>
      <path class="cls-7" d="m127.02,71.25c0-.34.04-.7,0-1.03-.05-.32-.31-.52-.63-.57-.3-.05-.49.16-.62.39-.1.18-.18.4-.2.61-.07.6-.12,1.2-.16,1.8,0,.12.04.25.09.37.13.32.38.45.71.46.33,0,.58-.16.68-.49.16-.5.2-1.02.13-1.54Z"/>
      <path class="cls-8" d="m107.11,82.38c.67-.01,1.13-.49,1.13-1.16,0-.66-.53-1.2-1.13-1.17-.56.03-1.21.68-1.19,1.19.03.65.54,1.15,1.19,1.14Z"/>
      <path class="cls-7" d="m142.23,65.69c.19-.02.39-.04.58-.05.35-.62.31-1.25-.05-1.85-.11-.18-.27-.34-.43-.47-.21-.17-.46-.23-.72-.08-.28.16-.44.48-.32.77.25.59.46,1.22.94,1.68Z"/>
      <path class="cls-8" d="m83.43,92.29c-.12.04-.37.12-.6.23-.37.17-.53.44-.46.69.11.37.53.67.89.58.25-.06.49-.16.71-.29.34-.19.46-.54.34-.88-.09-.26-.38-.39-.89-.32Z"/>
      <path class="cls-7" d="m126.45,77.69c.59.04,1.13-.66.96-1.22-.13-.43-.68-.61-1.04-.34-.29.22-.44.52-.51.86-.07.33.24.68.58.71Z"/>
      <path class="cls-7" d="m116.29,79.42c.04-.37-.36-.73-.75-.67-.4.06-.71.28-.92.62-.15.25-.05.62.2.79.53.34,1.39-.1,1.47-.74Z"/>
      <path class="cls-8" d="m92.79,92.05c.68.04,1.12-.4.98-.99-.04-.15-.16-.3-.28-.4-.23-.17-.69-.03-1.04.27-.23.2-.31.55-.18.81.09.19.27.29.52.31Z"/>
      <path class="cls-8" d="m119.88,75.36c0,.25.2.43.49.46.21.02.42-.18.4-.37-.03-.24-.26-.41-.55-.38-.16.02-.33.08-.34.29Z"/>
      <path class="cls-8" d="m160.13,49.2c-.18,0-.28.09-.27.27.17-.01.25-.11.27-.27Z"/>
      <path class="cls-5" d="m95,22.47c.15-.31.41-.61.43-.93.05-.63.21-1.09,1.17-1.03-.61-.51-.95-.67-1.36-.23-.4.43-.86.33-1.31.11-.53-.26-.58-.66-.17-1.13.3-.34.32-.54.08-.86-.17-.23-.49-.24-.65,0-.12.18-.28.37-.3.57-.07.57-.38.93-.81,1.27-.32.24-.2.68.22.79.43.11.84.21,1.12.59.15.2.37.21.59.19.59-.04.74.33.79.81.07-.04.14-.08.19-.14Z"/>
      <path class="cls-8" d="m90.67,27.59c.57.04,1.1-.44,1.12-1.02,0-.26-.2-.5-.47-.53-.52-.06-1.06.25-1.26.73-.14.34.19.79.6.82Z"/>
      <path class="cls-5" d="m164.64,51.07c-.02.27-.03.31-.03.36-.02.28.02.54.34.61.29.06.59-.19.64-.51.05-.3.05-.61-.11-.88-.09-.15-.2-.28-.41-.28-.2,0-.33.13-.38.3-.06.2-.06.42-.06.41Z"/>
      <path class="cls-3" d="m159.85,56.31c.53-.01.9-.46,1.4-.54.15-.23.23-.47,0-.67-.18-.15-.4-.09-.59.01-.34.18-.67.35-.91.66-.16.21-.08.39.1.54Z"/>
      <path class="cls-4" d="m168.51,50.02c-.09-.36.1-.66.19-.99.06-.22,0-.43-.25-.51-.26-.08-.38.1-.49.29-.02.04-.04.07-.06.11-.33.7-.22.9.62,1.09h0Z"/>
      <path class="cls-3" d="m166.23,48.51c.05.3.42.5.83.43.25-.04.43-.3.38-.58-.05-.33-.3-.51-.66-.45-.34.05-.6.33-.56.6Z"/>
      <path class="cls-3" d="m167.8,42.15c.05.22.15.35.31.43.26.14.49.08.7-.1.17-.15.28-.33.21-.56-.08-.25-.29-.28-.51-.29-.22,0-.43.05-.57.22-.08.09-.11.22-.14.3Z"/>
      <path class="cls-5" d="m163.26,54.72c0-.17,0-.34,0-.51,0-.22-.01-.43-.27-.5-.23-.06-.41.05-.57.21-.19.19-.15.55.11.64.24.08.5.11.74.16h0Z"/>
      <path class="cls-5" d="m166.22,45.9c0,.22.2.43.41.39.27-.04.33-.24.33-.47,0-.18-.06-.34-.26-.4-.23-.06-.48.19-.48.48Z"/>
      <path class="cls-5" d="m93.41,10.95c-.01.36.31.66.59.6.08-.02.18-.03.24-.08.76-.53,1.6-.53,2.48-.41.55.08.8-.07.87-.35.09-.35-.17-.71-.66-.81-1.14-.24-2.24-.13-3.23.56-.18.13-.3.3-.3.49Z"/>
      <path class="cls-5" d="m94.37,12.96c-.73-.07-1.13.14-1.39.59-.13.24-.14.51,0,.73.16.24.42.28.69.21.33-.1.65-.2.99-.23.43-.04.58-.22.59-.53,0-.34-.15-.58-.46-.69-.2-.07-.42-.08-.42-.08Z"/>
      <path class="cls-5" d="m94.3,16.61c-.59.11-1.22.22-1.84.37-.15.04-.27.2-.28.4,0,.25.14.41.36.47.16.05.36.1.5.04.49-.2,1-.2,1.52-.24.37-.02.62-.29.58-.56-.04-.27-.31-.47-.67-.48-.04,0-.09,0-.16,0Z"/>
      <path class="cls-5" d="m95.24,8.27c.02-.28-.15-.5-.41-.55-.32-.05-.59.15-.61.47-.02.28.15.5.41.55.32.06.59-.15.61-.47Z"/>
      <path class="cls-4" d="m96.54,24.46s.08.07.12.11c-.01-.02-.02-.06-.03-.07-.03-.02-.07-.02-.1-.02l.02-.02Z"/>
      <path class="cls-8" d="m159.34,48.15c.55,0,.84-.41,1.13-.78.07-.09.11-.26.08-.36-.13-.41-.2-.86-.53-1.17-.12-.12-.27-.22-.43-.28-.4-.16-.83.18-.76.6.05.3.17.58.25.87.1.38.18.76.27,1.14h-.02Z"/>
      <path class="cls-8" d="m159.07,48.41c.15-.03.24-.11.27-.26h.02c-.09.1-.18.19-.27.28l-.02-.02Z"/>
      <path class="cls-5" d="m47.89,52.17c0,.31.14.56.45.7.04.02.08.03.12.03.19-.02.34-.11.33-.32,0-.39-.28-.67-.63-.66-.15,0-.22.1-.27.25Z"/>
      <path class="cls-8" d="m53.11,56.67c.05.6.53,1.03,1.14,1,.57-.03,1.07-.59,1.01-1.13-.06-.53-.57-.99-1.06-.95-.6.04-1.13.57-1.09,1.08Z"/>
      <path class="cls-8" d="m56.74,55.32c-.06.02-.24.03-.39.11-.09.05-.18.2-.19.31-.05.48.54.91.97.71.29-.13.5-.47.44-.73-.05-.25-.32-.4-.84-.41Z"/>
      <path class="cls-8" d="m51.42,57.4s-.06-.09-.1-.13c0,.03,0,.06,0,.07.03.02.06.03.1.05h-.01Z"/>
      <path class="cls-5" d="m76.51,104.74c.05.34.43.63.73.55.34-.09.57-.45.47-.79-.07-.22-.22-.37-.47-.34-.41.05-.76.33-.73.58Z"/>
      <path class="cls-5" d="m75.84,97.54c-.27.02-.37.17-.39.41-.02.26.14.48.32.45.23-.04.36-.19.4-.42.03-.22-.14-.43-.33-.44Z"/>
      <path class="cls-5" d="m79.46,106.67c.07.19.35.3.51.18.14-.1.22-.24.15-.43-.07-.18-.2-.25-.39-.21-.22.04-.35.27-.28.46Z"/>
      <path class="cls-5" d="m126.12,33.05c0,.08,0,.17.02.25.03.19.13.32.32.33.19.01.34-.09.37-.27.03-.2.03-.42,0-.62-.03-.18-.18-.29-.37-.28-.19.01-.29.15-.33.33-.01.08-.02.17-.03.25Z"/>
      <path class="cls-5" d="m124.2,32.71c-.36-.04-.69.25-.66.6.02.2.17.31.35.3.32,0,.6-.26.6-.55,0-.18-.1-.32-.3-.36Z"/>
      <path class="cls-5" d="m129.05,33.38c.04.2.18.29.36.29.32,0,.57-.31.5-.59-.05-.18-.19-.29-.37-.31-.28-.02-.53.3-.5.61Z"/>
      <path class="cls-5" d="m129.09,30.49c.2.01.34-.06.39-.25.04-.19-.03-.33-.21-.4-.21-.08-.46.08-.45.3,0,.18.09.32.28.35Z"/>
      <path class="cls-5" d="m127.22,32.4c.03.21.19.26.36.25.2-.01.3-.15.28-.34-.03-.2-.17-.3-.36-.28-.19.02-.28.17-.28.37Z"/>
      <path class="cls-7" d="m127.67,41.57c.36.03.71,0,.89-.37.14-.3,0-.65-.47-.95-.31-.2-.53-.43-.69-.74-.16-.31-.46-.38-.78-.29-.28.08-.44.28-.48.55-.04.26-.05.52-.02.78.1.71.57,1.01,1.55,1.03Z"/>
      <path class="cls-8" d="m120.69,39.39c-.03.27.31.68.61.74.34.07.8-.27.83-.62.04-.37-.32-.72-.73-.73-.32,0-.69.31-.72.62Z"/>
      <path class="cls-8" d="m77.1,71.74c.04.37.44.77.77.77.31,0,.69-.37.68-.67,0-.4-.5-.79-.91-.74-.3.04-.56.35-.53.64Z"/>
      <path class="cls-8" d="m134.47,39.62c-.06-1.01-.51-2.13-1.13-3.19-.14-.24-.38-.33-.66-.36-.3-.04-.55.18-.45.44.34.89.51,1.83.73,2.76.1.41.3.81.49,1.2.13.27.37.35.66.27.23-.07.34-.26.35-.49,0-.13,0-.26,0-.62Z"/>
      <path class="cls-8" d="m133.76,42.04c.08.35.16.68.24,1.02.05.19.19.31.37.29.26-.02.36-.23.33-.46-.04-.34-.1-.67-.18-1-.09-.39-.28-.56-.45-.47-.22.11-.34.36-.3.63Z"/>
      <path class="cls-4" d="m149.34,63.05l-.11.13s.09-.07.14-.1l-.03-.03Z"/>
      <path class="cls-8" d="m107.03,49.69c-.09.05-.25.12-.36.23-.13.13-.15.3-.05.47.17.3.42.54.72.71.16.09.34.09.49,0,.15-.1.22-.26.19-.45-.06-.46-.49-.9-.98-.96Z"/>
      <path class="cls-4" d="m146.58,31.32c-.12-.13-.27-.19-.44-.18-.07,0-.14.07-.2.1.06.04.12.1.19.12.12.03.24.04.36.06.03-.04.06-.07.09-.11Z"/>
    </g>
    <path class="cls-10" d="m94.65,50.71c0,.5-.07.63-.38.63-1.57-.02-3.14.08-4.68-.33-.97-.26-1.97-.36-2.98-.28-2.05.15-4.1.15-6.15.1-2.59-.06-5.13.28-7.61,1.05-4.37,1.37-8.85,2.33-13.2,3.75-.33.11-.65.28-1.01.21-.14-.03-.25-.12-.25-.25,0-.12.03-.3.11-.34.31-.15.64-.27.96-.38.41-.13.87-.16,1.24-.57-.31-.08-.56-.16-.82-.21-1.86-.33-3.63-.93-5.3-1.81-1.2-.63-2.41-1.23-3.59-1.88-2.37-1.3-4.75-2.59-6.9-4.24-.45-.34-.93-.66-1.55-.55.11.76.1.78-.51.86-.44.06-.87.16-1.16-.32-.1-.17-.23-.01-.32.05-.14.1-.26.23-.38.36-.73.81-.81,1.41-.29,2.37.25.46.5.93.81,1.34.75.99,1.66,1.84,2.91,2.08.51.1.9.26,1.24.59.35.33.69.67.99,1.04.56.67,1.03,1.4,1.49,2.15.38.63.8,1.28,1.55,1.53.97.32,1.78.91,2.64,1.43.48.29.9.7,1.51.72.11,0,.28.1.31.2.24.69.89.94,1.41,1.3,1.35.96,2.74,1.87,4.1,2.81,1.31.9,2.74,1.55,4.28,1.89,2.43.54,4.82,1.2,7.21,1.89,2.39.69,4.87,1,7.24,1.77.2.07.43.09.64.09,1.06,0,2.06.33,3.09.54.25.05.52.14.72.29.64.45,1.28.9,2.08,1.05.05,0,.11.13.12.2.03.14-.06.25-.18.32-.24.15-.49.14-.75.07-.43-.11-.78-.38-1.16-.59-.1-.06-.3-.13-.34-.09-.34.39-.89.32-1.29.6-.72.52-.89,1-.47,1.78.37.7.9,1.15,1.75,1.16.44,0,.64.46.41.83-.07.11-.17.2-.27.28-.3.25-.36.57-.33.94.11,1.18.71,1.75,1.95,1.85.42.03,1-.19,1.19.29.22.59-.44.76-.78,1.03-1.2.94-2.42,1.87-3.63,2.79-.98.75-1.63,1.7-1.79,2.93-.16,1.22-.46,2.39-.97,3.51-.14.31-.23.66-.32,1-.42,1.74-.88,3.47-1.24,5.21-.47,2.28-1.14,4.47-2.32,6.49-.29.49-.48,1.03-.57,1.59-.26,1.64-.52,3.27-.76,4.91-.06.43-.1.87-.11,1.3,0,.41.36.62.72.41.66-.37,1.19-.88,1.67-1.45.18-.21.22-.46.21-.73,0-.13,0-.26.03-.38.03-.15.31-.2.44-.11.24.17.3.41.3.68-.01.46-.24.84-.53,1.17-.76.85-1.58,1.63-2.73,1.9.02.62.25,1.14.51,1.64.42.81,1.27,1.01,1.96.42.43-.36.78-.82,1.15-1.25.17-.19.31-.43.5-.6.07-.07.27-.08.35-.03.08.05.16.23.13.33-.1.44-.41.76-.68,1.1-.66.83-1.35,1.63-2.55,1.62-.05,0-.14.11-.15.17,0,.07.04.17.1.22.29.24.63.29.99.26,1.16-.09,2.09-.61,2.67-1.63.41-.72.77-1.47,1.15-2.2,1.07-2.05,2-4.17,3.27-6.11.81-1.25,1.56-2.53,2.05-3.94.29-.83.85-1.25,1.65-1.5.66-.21,1.31-.48,1.93-.8,1.28-.67,2.46-1.49,3.64-2.32.17-.12.42-.26.47-.43.14-.54.58-.74.97-1.01.75-.52,1.5-1.05,2.28-1.54,2.16-1.35,4.03-3.05,5.77-4.9,1.44-1.53,2.78-3.13,3.69-5.05.04-.08.07-.16.13-.22.12-.13.26-.23.46-.17.2.06.25.23.24.41-.03.64-.38,1.15-.7,1.67-.91,1.44-1.98,2.76-3.16,4-.24.25-.48.51-.7.77-.04.05-.05.17-.02.24.03.06.14.13.19.12.51-.1,1.02-.21,1.53-.34,2.33-.58,4.6-1.39,6.79-2.35,1.15-.51,2.31-1.01,3.49-1.44,1.92-.71,3.82-1.49,5.68-2.34,1.47-.67,2.85-1.5,4.17-2.45.28-.2.56-.41.82-.64.08-.07.14-.23.13-.34-.01-.11-.11-.22-.27-.21-.13.01-.26.02-.39,0-.19-.01-.35-.11-.4-.28-.05-.18.07-.33.25-.41,1.27-.57,2.54-1.16,3.82-1.7.64-.27,1.32-.44,1.85-.93.16-.15.39-.3.59-.18.53.31.9,0,1.31-.24,2.86-1.59,5.72-3.17,8.58-4.76,3.21-1.79,6.24-3.85,8.92-6.37,1.3-1.22,2.72-2.33,3.8-3.78.11-.14.24-.28.43-.25.43.06.62-.26.86-.49,1.63-1.61,3.47-2.91,5.52-3.93.62-.31,1.23-.67,1.85-.98.28-.14.53-.54.91-.23.23.19.06.48-.55.85-.41.25-.84.46-1.25.72-.36.22-.87.28-1.02.76-.21.71-.88.13-1.22.47-.15.15-.36.24-.54.36-1.25.81-2.38,1.77-3.42,2.83-.86.87-1.73,1.72-2.64,2.54-.85.75-1.77,1.42-2.62,2.17-2.8,2.45-5.86,4.53-9.12,6.33-2.68,1.47-5.34,2.97-8.01,4.45-.65.36-1.3.72-2.03.89-.57.13-1.03.43-1.48.79-1.02.82-2.07,1.6-3.1,2.41-2.18,1.7-4.56,3.06-7.12,4.1-2.38.97-4.75,1.97-7.14,2.92-2.59,1.02-5.2,2.02-7.92,2.67-.97.23-1.91.6-2.86.94-.7.25-1.33.63-1.9,1.13-2.61,2.33-5.46,4.34-8.45,6.15-.9.54-1.85,1.01-2.87,1.24-.51.11-.7.39-.87.83-.55,1.47-1.29,2.85-2.15,4.18-.54.84-1.02,1.72-1.49,2.61-.81,1.54-1.58,3.11-2.39,4.65-.22.41-.33.98-.83,1.12-.58.17-.41.84-.85,1.08-.23.12-.45.27-.67.41-.17.11-.44.1-.5.36-.7,0-1.4,0-2.1,0-.08-.04-.15-.1-.23-.11-.52-.06-.89-.3-.96-.86-.09-.66-.38-1.24-.66-1.83-.46-.97-.66-1.99-.59-3.05.06-.83.14-1.65.26-2.47.17-1.21.44-2.4.57-3.61.09-.8.3-1.53.65-2.24.33-.67.66-1.33,1-1.99.22-.43.44-.85.55-1.32.5-2.08,1.04-4.14,1.5-6.23.29-1.32.61-2.63,1.13-3.88.27-.65.47-1.31.54-2.01.16-1.69.85-3.09,2.23-4.13.17-.13.31-.3.44-.47.04-.05.02-.18-.02-.24-.04-.06-.17-.15-.19-.13-.53.42-1.1.09-1.59-.02-.59-.14-1.12-.29-1.7-.01-.15.07-.34.04-.52.04-1.5,0-2.95-.26-4.31-.94-1.29-.64-2.55-1.33-3.75-2.12-2.44-1.62-3.9-3.94-4.75-6.68-.17-.54-.24-1.11-.36-1.66-.06-.27-.04-.53.12-.75.07-.09.21-.15.33-.16.13-.02.25.06.28.21.12.64.18,1.29.35,1.92.75,2.8,2.24,5.09,4.74,6.64,1.07.66,2.19,1.27,3.3,1.86,1.05.56,2.21.8,3.39.9.81.07,1.55-.06,2.25-.49.62-.37,1.19-.25,1.83.22.59.43,1.18,1.02,2,.45.25-.17.5-.36.73-.56.21-.18.5-.29.62-.63-.21-.1-.36-.18-.52-.25-1.16-.48-1.61-1.4-1.62-2.59,0-.26.03-.53.1-.77.08-.26,0-.43-.21-.53-.71-.33-1.17-.9-1.48-1.6-.42-.96-.25-1.66.55-2.32.13-.11.28-.21.43-.3.18-.12.4-.2.29-.53-.62-.11-1.26-.29-1.91-.33-.57-.04-1.12-.16-1.67-.29-.76-.18-1.52-.39-2.29-.55-2.14-.42-4.25-.95-6.35-1.56-1.38-.4-2.76-.8-4.18-1.08-2.43-.48-4.63-1.46-6.65-2.91-2.34-1.68-4.74-3.26-7.13-4.87-.47-.31-.97-.6-1.5-.78-.61-.21-1.07-.56-1.49-1.01-.36-.39-.64-.82-.91-1.28-.54-.95-1.16-1.85-1.95-2.61-.21-.2-.42-.46-.76-.45-.85.03-1.48-.46-2.13-.89-1.28-.85-2.04-2.13-2.7-3.47-.28-.57-.23-1.21,0-1.79.75-1.96,3.14-2.86,5-1.89.31.16.58.38.87.58.79.54,1.56,1.12,2.38,1.62,2.69,1.62,5.44,3.13,8.26,4.51,1.54.75,3.17,1.22,4.84,1.57.6.13,1.22.2,1.82.08.47-.09.94-.55,1.37.08.04.06.25,0,.38-.02.3-.06.6-.13.89-.22,2.73-.76,5.45-1.53,8.19-2.28,1.22-.33,2.42-.74,3.7-.74.34.06.68.15.95-.17,1.92-.18,3.84-.04,5.75-.08.86-.01,1.75.1,2.58-.26.11-.05.26-.04.38-.03,1.16.16,2.35.19,3.5.47.89.22,1.8.31,2.72.31.39,0,.78.04,1.17.06.33.03.67.05,1,.08Zm29.2,29.77c.02.14.17.12.28.12.25-.09.42-.27.55-.5.03-.05.06-.11.1-.16-.05.03-.11.06-.16.1-.16.05-.33.1-.49.15-.11.09-.3.12-.27.3Zm-23.67,10.46s.05-.05.08-.08c-.05-.02-.11-.06-.17-.07-.02,0-.05.05-.08.07.06.03.12.06.17.07Zm23.28-10.35c-.03.06-.07.11-.08.18,0,.02.05.06.08.09.03-.06.06-.11.09-.17-.03-.04-.06-.06-.09-.09Z"/>
    <path class="cls-10" d="m83.38,42.35c.92-.11,1.59-.64,2.23-1.26,3-2.89,5.58-6.12,7.96-9.52,1.71-2.43,3.25-4.96,4.43-7.69,1.49-3.47,2.39-7.09,2.98-10.81.4-2.5.23-4.95-.27-7.4-.44-2.14-1.73-3.71-3.49-4.87-1.29-.85-2.69-.93-4.02.08-.62.48-1.28.91-1.76,1.55-.61.81-.77,1.65-.29,2.56.62,1.18.84,2.45.95,3.77.44,5.14-.86,9.84-3.52,14.21-.62,1.01-1.34,1.93-2.16,2.79-2.8,2.94-5.56,5.9-8.53,8.68-2.04,1.91-3.97,3.93-5.93,5.92-1.57,1.59-2.9,3.37-3.95,5.35-.69,1.31-1.39,2.62-2.08,3.93-.08.15-.15.31-.19.48-.02.07.04.17.09.23.1.11.23.1.36.04.3-.14.39-.46.54-.72.74-1.33,1.47-2.67,2.21-4.01.96-1.73,2.14-3.29,3.53-4.69,2.55-2.57,5.06-5.18,7.71-7.65,2.59-2.41,5-5,7.33-7.65,2.72-3.07,4.31-6.73,5.03-10.77.15-.86.27-1.72.4-2.58.03-.17.06-.35.07-.52.05-1.62-.08-3.22-.33-4.82-.12-.78-.38-1.52-.77-2.21-.43-.75-.26-1.43.29-2.04.62-.68,1.36-1.22,2.19-1.64.58-.3,1.17-.29,1.76,0,1.79.92,3.04,2.31,3.66,4.23.16.49.25,1.02.33,1.53.36,2.17.34,4.32,0,6.51-.86,5.5-2.57,10.68-5.61,15.36-2.56,3.96-5.36,7.75-8.74,11.07-.59.58-1.21,1.13-1.82,1.7-.25.24-.58.39-.7.75.05.02.08.06.1.11Z"/>
    <path class="cls-10" d="m150.01,54.06c-.04.16-.08.32-.11.47.09.1.16.08.25.03.98-.57,1.97-1.13,2.95-1.69,1.56-.89,3.06-1.85,4.47-2.95.31-.24.57-.54.98-.63.08-.02.18-.05.23-.11.96-1.21,2.35-1.93,3.43-2.99.69-.67,1.4-1.32,2.09-1.98.66-.63,1.31-1.28,2.09-1.78.29-.19.54-.44.79-.69,1-.97,2-1.95,2.99-2.93.34-.33.62-.73,1.18-.72.3,0,.41-.46.78-.38l-.02.03c-.05-.24.03-.34.28-.28h-.02c.09-.48.31-.8.88-.61.37.12.6-.02.68-.38.06-.25.02-.52.3-.67.28-.15.58-.2.88-.21.12,0,.25.07.28.22.1.4.34.43.69.31,1.3-.48,1.6-.27,2.17,1.04.06.15.07.32.11.49-.48.2-1,.13-1.38.47-.14.13-.21.3-.11.46.05.09.23.17.32.15.29-.07.56-.24.88-.19.21.03.32.16.32.34,0,.66-.26,1.18-.85,1.52-.95.55-1.73,1.31-2.57,2.01-1.18.98-2.21,2.11-3.19,3.28-1.18,1.4-2.37,2.8-3.58,4.17-.43.49-.92.93-1.41,1.36-1.5,1.33-3.02,2.64-4.53,3.97-.1.08-.18.19-.25.3-.03.06-.04.19,0,.23.08.08.24.2.31.17.24-.09.48-.22.68-.38,3.13-2.66,6.24-5.33,8.78-8.6,1.4-1.81,3.02-3.38,4.76-4.85.46-.39.98-.72,1.5-1.04.56-.34.89-.84,1.06-1.44.2-.72.23-1.47.06-2.21-.37-1.64-1.32-2.46-2.99-2.63-.94-.1-1.81.07-2.65.53-1.97,1.09-1.98,1.07-3.53,2.61-.93.92-1.86,1.84-2.8,2.75-.18.17-.32.43-.64.43-.26-.1-.16-.36-.21-.55-.06-.21-.09-.43-.15-.63-.13-.46-.26-.92-.43-1.37-.1-.27-.18-.62-.59-.57-.25.03-.31.32-.17.77.09.29.19.58.29.87.2.54.25,1.1.33,1.66.09.56-.03,1-.5,1.39-1.1.93-2.16,1.9-3.25,2.84-.46.4-.48.38-.95-.15-.1-.11-.23-.16-.33-.1-.09.06-.17.18-.11.33.06.16.1.33.14.5.04.18.03.37-.11.48-.49.41-.95.88-1.54,1.16-.34-.26-.23-.59-.31-.87-.07-.25-.1-.51-.16-.77-.03-.12-.07-.25-.13-.36-.04-.06-.14-.08-.22-.09-.1-.02-.15.04-.17.15-.07.4.1.77.14,1.16.03.3.06.61.1.91.05.33-.05.59-.32.8-1.1.85-2.21,1.71-3.4,2.45-.15.09-.33.25-.46.23-.8-.16-1.28.39-1.86.76-1.02.65-2.18.89-3.35,1.01-2.57.26-5.04.99-7.54,1.58-.3.07-.59.17-.8.41-.05.05-.06.17-.04.24.02.07.09.15.16.18.35.15.68-.03,1.02-.11,1.74-.4,3.48-.81,5.22-1.23.94-.23,1.9-.27,2.85-.37.37-.1.38-.09.29.25Z"/>
    <path class="cls-10" d="m133.59,23.86c1.16.86,1.54,2.18,2.01,3.44.21.57.02,1.13-.3,1.62-.31.47-.65.93-1.04,1.34-1.2,1.27-2.35,2.58-3.4,3.97-1.06,1.4-2.4,2.52-3.64,3.74-.15.15-.32.3-.46.46-.1.11-.05.24.03.35.08.12.23.17.34.1.22-.13.45-.27.64-.44.62-.55,1.23-1.11,1.82-1.69.3-.29.6-.44,1.04-.42,1.8.07,3.55.36,5.23,1.02.78.31,1.51.74,2.03,1.39.38.47,1.01.61,1.29,1.17.02.05.27.05.34,0,.08-.06.15-.26.11-.34-.24-.54-.19-1.1-.16-1.67.03-.59.01-.6-.75-.76h.04c.12.34,0,.66-.15.97-.26.07-.41-.11-.56-.25-.91-.85-2.11-1.21-3.11-1.91-.06-.04-.17-.07-.24-.05-1.23.22-2.38-.29-3.54-.32-.15-.33.04-.47.16-.64,1.05-1.4,2.16-2.74,3.39-3.98.46-.47.88-.97,1.23-1.53.54-.87.7-1.78.3-2.74-.3-.72-.59-1.46-.97-2.14-.66-1.18-1.69-1.7-3.05-1.59-.47.04-.84.21-1.13.56-.6.72-.82,1.53-.54,2.44.1.33.26.65.36.98.15.46.12.58-.33.85-2.16,1.32-4.22,2.79-6.47,3.96-.5.26-.99.54-1.48.83-1.66.99-2.85,2.39-3.69,4.13-.38.78-.86,1.49-.73,2.41-.42,1.05-.34,2.14-.23,3.23.02.24-.12.4-.38.44-.43.08-.88.02-1.28.22-.17.09-.3.25-.2.42.23.42.47.83,1.07.81.65-.02,1.31.02,1.96.03,1.48.02,2.96-.24,4.44,0,.19.03.35-.1.33-.3,0-.1-.11-.25-.2-.29-.49-.2-1-.29-1.53-.27-.65.03-1.31.06-1.96.09-.43.02-.87.07-1.31-.08,0-.4-.05-.78-.12-1.15-.15-.86-.24-1.73.09-2.58.06-.16.08-.34.11-.51.1-.51-.17-1.11.13-1.54.87-1.24,1.48-2.68,2.78-3.58.46-.32.91-.7,1.4-.95,2.45-1.26,4.74-2.78,7.06-4.24.36-.23.69-.53,1.2-.36.23.07.39-.15.5-.34.19-.34.35-.7.54-1.04.24-.4.44-.46.95-.24.17.07.32.14.47,0,.18-.18.16-.4.03-.59-.24-.36-.6-.47-1.03-.36-.48.13-.81.5-1.18.78-.09-.05-.22-.08-.23-.13-.08-.36-.49-.71-.18-1.09.35-.43.72-.9,1.39-.79.04,0,.09.02.13.01.17-.02.35-.04.36-.28,0-.21-.13-.3-.3-.37-.39.01-.79.03-1.18.04-.05.03-.11.06-.16.1.03-.05.07-.11.1-.16.18-.33.42-.52.83-.38.32.11.65.16.98.23Z"/>
    <path class="cls-10" d="m142.81,30.6c1.13.17,2.22-.22,3.34-.28.2,0,.41-.13.59-.24.59-.34,1.14-.34,1.67.14.09.08.23.11.34.17.32-.11.39-.57.79-.59.77-.34,1.49-.27,2.13.31.11-.12.23-.24.34-.36.02-.27-.02-.52-.27-.69-.18-.11-.41-.16-.47-.43,2.49-1.81,5.33-2.68,8.35-3.08.17-.02.35-.04.52-.03.41.03.97-.16,1.16.3.14.35-.27.69-.49,1-.63.88-1.28,1.76-1.95,2.62-.36.47-.59.5-1.12.22-.27-.14-.53-.3-.8-.44-.42-.23-.82-.16-1.33.14.66.38,1.22.67,1.76,1.01.43.27,1,.37,1.17.96.02.06.12.13.19.13.26,0,.51,0,.73.2,1.02.88,2.21,1.55,3.13,2.55.15.16.27.34.44.47.08.06.27.06.34,0,.08-.06.13-.23.12-.34-.04-.32-.26-.55-.49-.75-.51-.47-1.04-.93-1.57-1.38-.25-.21-.41-.4-.32-.76.04-.17-.13-.32-.34-.21-.41.21-.64-.09-.91-.29-.21-.16-.24-.35-.1-.56.22-.32.46-.64.69-.95.41-.56.83-1.11,1.25-1.67-.02-.42-.03-.84.15-1.25.15-.35.22-.73.33-1.09-.21-.54-.7-.61-1.17-.67-.83-.11-1.66-.03-2.47.12-2.59.48-5.07,1.28-7.27,2.78-.46.31-.89.53-1.41.13-.13-.1-.31.09-.25.28.04.12.11.23.17.34.08.15-.03.29-.13.3-.84.1-1.7.47-2.54-.03-.33.09-.37.55-.74.58-.83.37-1.85.51-2.56.35-.25-.06-.5-.12-.75-.15-.43-.05-.45.27-.49.58v-.02c.26.09.34.28.27.55h0Z"/>
    <path class="cls-10" d="m156.55,37.09c.35.19.6.36.87.49.32.15.67-.04.66-.36-.01-.67-.22-1.28-.6-1.83-.1-.15-.28-.21-.46-.12-.12.06-.21.15-.32.22-.78.55-1.2.48-1.72-.27-.17-.25-.16-.6-.46-.76-.07-.04-.16-.06-.25-.05-.15.01-.22.13-.22.27,0,.46.19.84.49,1.17.26.3.54.56.9.75.24.12.28.31.17.54-.28.57-.3,1.18-.22,1.79.03.21.1.42.19.61.05.09.19.19.29.2.22.02.29-.16.28-.34,0-.3-.04-.61-.05-.91-.01-.48.05-.95.44-1.39Z"/>
    <path class="cls-10" d="m76.59,50.31c.34.06.68.15.95-.17-.11-.34.12-.58.28-.82.97-1.44,1.99-2.84,3.22-4.06.46-.46.92-.93,1.19-1.53.26-.57.81-.89,1.14-1.39-.02-.05-.05-.08-.1-.11-.15.08-.31.15-.44.25-1.96,1.61-3.65,3.47-5.12,5.54-.25.35-.45.75-.73,1.08-.3.36-.09.86-.4,1.2Z"/>
    <path class="cls-10" d="m111.45,46.42c-.43.05-.64.42-.95.65-.83.62-1.56,1.38-2.58,1.73-.08.03-.19.06-.21.12-.18.43-.81.55-.77,1.12.56.38.86-.15,1.23-.37.6-.35,1.14-.75,1.83-.94,1.04-.29,1.56-1.1,1.76-2.13,0-.02-.06-.06-.08-.09-.09,0-.16-.02-.23-.08Z"/>
    <path class="cls-10" d="m174.22,38c-.12.07-.23.08-.35-.02-.35-.3-.76-.41-1.21-.34-.16.02-.23-.06-.29-.17h.02c.16.34-.08.29-.28.27l.02-.03c-.26,1.26.38,2.21,1.1,3.11.13.16.38.08.44-.06.28-.74.93-1.35.8-2.24h0c-.24-.1-.44-.23-.27-.54l.02.02Z"/>
    <path class="cls-10" d="m146.35,29.31c.37-.04.41-.5.74-.58-1.5-1.18-3.16-2.1-4.8-3.04-.11-.06-.24-.13-.36-.12-.11,0-.23.08-.32.15-.03.02,0,.18.06.22.2.16.42.3.64.44,1.25.77,2.5,1.55,3.76,2.3.27.16.32.37.29.64Z"/>
    <path class="cls-10" d="m93.65,50.63c.33.03.67.05,1,.08.42.08.84.17,1.27.22.2.02.55.03.61-.07.32-.59.72-.25,1.11-.17.18.04.36-.03.38-.24.01-.11-.03-.28-.11-.34-.35-.25-.72-.48-1.09-.7-.17-.1-.49.07-.46.28.06.46-.14.55-.5.46-.46-.12-.9-.29-1.35-.43-.38-.12-.58-.04-.61.38-.02.25-.08.4-.25.53Z"/>
    <path class="cls-10" d="m160.57,44.52c-.58-1.68-1.47-3.23-2.14-4.86-.03-.08-.24-.14-.34-.11-.12.03-.16.18-.12.32.01.04.02.09.03.12.71,1.67,1.39,3.35,2.25,4.95.11-.14.21-.28.32-.41Z"/>
    <path class="cls-10" d="m111.45,46.42c.07.05.15.08.23.08,1.29-.19,2.46-.77,3.72-1.08.11-.03.22-.14.3-.23.04-.05.05-.16.03-.23-.02-.07-.09-.17-.16-.18-.16-.03-.34-.06-.5-.02-.5.13-1,.27-1.49.43q-1.24.39-2.12,1.24Z"/>
    <path class="cls-10" d="m162.17,25.47c-.11.37-.18.75-.33,1.09-.18.41-.17.82-.15,1.25.26-.15.46-.36.54-.66.01-.5.02-.51.4-.52l.08-.07c-.04-.06-.08-.12-.13-.18.05.05.11.1.16.14.77-.7,1.34-1.57,2.01-2.36.08-.1.14-.22.19-.34.05-.13.03-.26-.1-.32-.06-.03-.19-.04-.23,0-.19.17-.36.36-.53.56-.42.49-.83,1-1.26,1.48-.23.25-.45.16-.64-.08Z"/>
    <path class="cls-10" d="m42.74,47.14c-.97,0-1.64.42-2.16,1.12-.11.15-.11.33.03.47.14.15.32.13.47.02.21-.15.38-.35.59-.5.54-.39,1.1-.5,1.68-.07.14.1.28.21.43.28.12.06.25.02.35-.09.09-.11.13-.23.05-.35-.36-.53-.84-.85-1.43-.88Z"/>
    <path class="cls-10" d="m149.54,29.81c-.4.01-.47.47-.79.59,1.15.92,2.31,1.84,3.46,2.76.05.04.18.03.23,0,.13-.09.13-.25.05-.35-.29-.32-.59-.64-.93-.91-.64-.53-1.3-1.02-1.96-1.53-.22-.17-.18-.36-.07-.56Z"/>
    <path class="cls-10" d="m152.01,29.76c-.11.12-.23.24-.34.36,1,1.15,2,2.29,3.01,3.44.03.03.07.06.11.07.08.02.18.05.23.02.06-.04.1-.15.09-.23,0-.28-.21-.47-.37-.67-.84-1.06-1.74-2.07-2.73-2.99Z"/>
    <path class="cls-10" d="m151.67,37.74c.03.08.05.21.11.32.04.07.12.12.2.14.13.04.25-.01.33-.12.17-.22.11-.5.16-.75.13-.64.26-1.28.98-1.56.15-.06.2-.28.09-.45-.11-.17-.28-.2-.45-.15-.34.09-.66.24-.84.56-.35.61-.6,1.25-.58,2.01Z"/>
    <path class="cls-10" d="m105.13,49c-.29-.22.02-1.02-.62-.87-.48.11-.21.66-.24,1.02-.02.21-.01.43,0,.65.01.26.23.39.45.25.25-.16.42-.36.79-.31.3.04.83-.74.77-1.05-.04-.18-.23-.27-.41-.19-.15.06-.29.18-.43.28-.1.07-.1.26-.3.22Z"/>
    <path class="cls-10" d="m84.15,78.23c.09.13.13.27.23.32.09.05.24.03.35,0,.07-.02.14-.09.2-.16.49-.61.77-1.33.89-2.1.03-.17-.12-.33-.3-.37-.11-.02-.3.03-.34.11-.36.72-.7,1.45-1.04,2.18Z"/>
    <path class="cls-10" d="m161.91,42.88c.01.08,0,.17.03.25.07.21.2.4.44.41.16,0,.37-.03.46-.14.36-.4.52-.87.39-1.42-.06-.24-.36-.4-.61-.32-.49.16-.73.55-.72,1.22Z"/>
    <path class="cls-10" d="m162.45,30.38c.88-.62,1.62-1.4,2.4-2.14.15-.14.33-.33.12-.55-.15-.15-.33-.03-.44.08-.81.76-1.7,1.45-2.41,2.32.11.09.23.19.34.28Z"/>
    <path class="cls-10" d="m148.92,26.92c-.58-.71-1.31-1.25-2.03-1.81-.13-.1-.31-.14-.47-.19-.03,0-.08.03-.1.05-.04.07-.09.15-.09.23,0,.08.07.16.13.21.73.61,1.47,1.2,2.2,1.81.12-.1.23-.2.35-.3Z"/>
    <path class="cls-10" d="m157.32,32.24s.2-.04.25-.13c.05-.09.04-.26-.02-.36-.32-.55-.77-.91-1.45-.88-.23.01-.41.11-.48.35-.05.18,0,.34.11.48.39.49.94.55,1.59.54Z"/>
    <path class="cls-10" d="m141.75,31.66c-.44.07-.57-.31-.77-.56-.14-.16-.19-.39-.32-.56-.1-.14-.26-.23-.44-.12-.15.1-.26.23-.22.42.02.12.06.26.14.36.23.31.46.63.72.91.2.21.45.46.78.25.27-.17,0-.49.11-.72h.01Z"/>
    <path class="cls-10" d="m100.11,49.48s0,.09.01.12c.42.55.91,1.03,1.62,1.16.09.02.23-.1.3-.19.08-.11.04-.25-.08-.34-.45-.33-.9-.66-1.35-.99-.12-.09-.25-.05-.35.04-.06.05-.1.13-.14.2Z"/>
    <path class="cls-10" d="m158.24,44.06c-.12-.56-.23-1.25-.52-1.88-.05-.11-.17-.23-.3-.13-.08.06-.17.22-.15.31.14.68.29,1.35.46,2.02.03.1.14.24.24.26.24.05.24-.17.27-.33,0-.04,0-.09,0-.24Z"/>
    <path class="cls-10" d="m103.77,49.12c.02-.12.03-.16.04-.2.05-.23,0-.43-.24-.53-.21-.09-.52.12-.57.39-.14.69.03,1.29.52,1.78.07.07.27.1.35.05.09-.05.15-.22.15-.33-.03-.42-.44-.77-.25-1.16Z"/>
    <path class="cls-10" d="m174.47,38.53c.08-.32.33-.16.51-.19.48-.08.66-.41.45-.83-.06-.11-.14-.22-.23-.31-.21-.22-.64-.18-.78.09-.11.22-.14.48-.21.72l-.02-.02c.41.14.48.28.27.55h0Z"/>
    <path class="cls-10" d="m138.86,34.5c.56.02,1.12-.02,1.63-.26.16-.07.26-.22.2-.42-.06-.2-.24-.25-.41-.24-.21.01-.42.1-.64.11-.52.03-.76.32-.78.82h-.01Z"/>
    <path class="cls-10" d="m138.75,37.13h-.04c.33-.31.67-.63.99-.96.12-.12.21-.29.12-.45-.13-.23-.34-.2-.54-.12-.15.07-.29.16-.43,0l.02-.02c.04.07.12.17.11.2-.15.2-.33.37-.49.56-.32.38-.29.48.27.8Z"/>
    <path class="cls-10" d="m141.74,31.64c.08-.09.14-.13.3-.11.49.06.52.02.59-.41.03-.19-.1-.43.19-.53h0c-.34-.01-.41-.16-.28-.54v.02c-.07.03-.15.06-.23.07-.54.07-.62.15-.54.58.04.25.12.5.16.75,0,.05-.11.11-.18.17h-.01Z"/>
    <path class="cls-10" d="m174.95,39.61c.02.15.03.24.05.32.04.19.18.32.35.35.23.05.43-.06.54-.27.17-.31,0-.86-.34-.99-.16-.06-.36-.02-.45.16-.08.15-.11.32-.15.43Z"/>
    <path class="cls-10" d="m138.85,35.6c-.01-.31.1-.64-.13-.92,0,0,.1-.11.15-.17h.01c-.15.44-.53.05-.75.22-.09.07-.22.16-.23.25-.01.1.07.26.15.3.26.12.54.2.82.29l-.02.02Z"/>
    <path class="cls-10" d="m131.84,24.07c.39-.01.79-.03,1.18-.04.17-.13.35-.19.57-.17-.33-.08-.67-.13-.98-.23-.41-.14-.65.05-.83.38l.06.07Z"/>
    <path class="cls-10" d="m148.69,27.35c.15.15.3.31.46.46.13.12.3.19.46.07.18-.14.08-.31-.05-.43-.19-.17-.4-.32-.6-.48-.09.13-.17.26-.26.39Z"/>
    <path class="cls-10" d="m162.62,26.63c-.37.01-.38.02-.4.52.2-.12.34-.29.4-.52Z"/>
    <path class="cls-10" d="m160.57,44.52c-.11.14-.21.28-.32.41.08.18.2.27.38.15.11-.08.11-.21.05-.34-.04-.08-.08-.15-.12-.23Z"/>
    <path class="cls-10" d="m148.92,26.92c-.12.1-.23.2-.35.3.01.07.05.11.13.13.09-.13.17-.26.26-.39l-.03-.04Z"/>
    <path class="cls-10" d="m162.73,26.53c-.05-.05-.11-.1-.16-.14.04.06.08.12.13.18l.03-.03Z"/>
    <path class="cls-10" d="m161.53,30.64s-.07.05-.1.08c-.14.12-.24.28-.07.42.16.14.3,0,.41-.14-.08-.12-.15-.24-.23-.36Z"/>
    <path class="cls-10" d="m161.79,30.39c-.09.08-.17.17-.26.25.08.12.15.24.23.36.09-.08.19-.16.28-.25-.08-.12-.17-.24-.25-.36Z"/>
    <path class="cls-10" d="m162.04,30.75c.09-.08.19-.17.28-.25-.09-.12-.18-.24-.26-.37-.09.08-.18.17-.27.25.08.12.17.24.25.36Z"/>
    <path class="cls-10" d="m162.45,30.38c-.11-.09-.23-.19-.34-.28l-.05.05c.09.12.18.24.26.37.07-.01.12-.05.13-.13Z"/>
    <path class="cls-10" d="m124.13,80.6c.25-.09.42-.27.55-.5l-.07-.07c-.16.05-.33.1-.49.15,0,.14,0,.28.01.42Z"/>
    <path class="cls-10" d="m124.68,80.1c.03-.05.06-.11.1-.16-.05.03-.11.06-.16.1l.07.07Z"/>
    <path class="cls-10" d="m131.78,24.01c-.03.05-.07.11-.1.16.05-.03.11-.06.16-.1l-.06-.07Z"/>
  </g>
  <path class="cls-9" d="m256.94,83.31l-6.38-.49c-.28-.02-.49-.25-.49-.53v-5.35c0-.28.22-.51.49-.53l6.38-.46c.31-.02.57.22.57.53v6.3c0,.31-.26.55-.57.53Z"/>
  <rect class="cls-10" x="262.6" y="76.59" width="1.48" height="2.86"/>
  <path class="cls-10" d="m265.17,80.85h.13c.49,0,.89.4.89.89v1.27h-1.91v-1.27c0-.49.4-.89.89-.89Z"/>
  <rect class="cls-10" x="266.41" y="76.59" width="1.48" height="2.86"/>
  <path class="cls-9" d="m117.58,20.34s-21.06-.86-23.93,15.73c-2.24,12.95-1.43,21.15,16.18,33s11.74,19.4,6.47,19.59-5.05-.58-5.05-.58l-3.35,1.25s3.55,2.28,9.57,2,7.97-7.75,6.1-10.63-5.85-9.69-12.55-14.09-16.7-11.69-15.76-22.96c.63-7.65,2.19-13.35,8.97-17.3,4.95-2.88,14.96-3.46,14.96-3.46,0,0,1.24-2.69-1.59-2.54Z"/>
  <path class="cls-9" d="m77.38,87.36s-4.76.74-1.36,5.77c3.15,4.66,6.94,13.6,12.47,6.51l1.71-1.05s-.04,1.6-1.73,3.39-3.59,2.41-5.64,1.74-5.61-4.48-5.81-4.81-3.25-6.25-3.62-6.63c0,0-1.14-2.83.52-5.19s3.82-1.68,3.82-1.68l-.34,1.95Z"/>
  <path class="cls-6" d="m174.75,56.01c-1.12,1.7-1.7,3.67-1.63,5.7.05,1.65.63,3.65,2.41,4.17,1.87.55,4.22-.48,5.2-2.14.52-.88.7-1.88.72-2.89s-.05-2.13-.31-3.11c-.62-2.32-3.47-2.59-5.28-1.5-.28.17-.66.55-.21.77s1.15,0,1.53-.23c.18-.11.12-.07.07-.05-.1.04-.06-.05.05-.01,0,0-.27-.04.02.02.25.05.48.1.71.24.64.37.89,1.04,1.01,1.74.28,1.56.44,3.34-.22,4.82-.24.55-.65.99-1.16,1.29-.08.05-.17.07-.22.07-.26-.02-.5-.09-.72-.23-1.15-.73-1.4-2.36-1.44-3.61-.04-1.78.49-3.58,1.46-5.06.27-.41-.24-.56-.57-.56-.44,0-1.17.17-1.44.57h0Z"/>
  <path class="cls-6" d="m183.26,58.22c-.66,1.01-1,2.16-.96,3.37.03,1,.4,2.14,1.46,2.46,1.3.39,3.06-.25,3.77-1.43.33-.55.43-1.14.45-1.77.01-.58-.03-1.21-.18-1.77-.43-1.63-2.58-1.55-3.76-.84-.26.16-.67.56-.21.77s1.14.01,1.53-.23c.18-.11-.36.11-.16.06-.08.02-.15.03-.23.04-.2.04.11.02-.05,0s.2.06.02,0c.09.03.17.06.25.11-.07-.04.02.02.03.02.04.03.07.06.1.09.06.05.11.11.15.18.11.18.16.41.2.61.16.88.23,1.84-.12,2.68-.05.12-.14.23-.25.37-.09.12-.04.04-.01.02-.04.03-.08.06-.11.1-.01.01-.11.09-.02.02.11-.09-.07.06-.09.05,0,0,.25-.09.05-.03,0,0,.24-.07.11-.04-.15.04.23-.04.09-.02-.12.02.1,0,.1,0-.16.02,0,0,.03,0-.03,0-.14-.04-.01,0-.05-.02-.09-.03-.13-.05,0,0-.1-.05-.05-.02-.64-.4-.77-1.32-.79-2-.02-.96.27-1.96.8-2.76.27-.41-.23-.56-.57-.56-.45.01-1.17.16-1.44.57h0Z"/>
  <path class="cls-6" d="m188.7,58.24c.03,2.21.21,4.41.26,6.61.02,1.1.01,2.2-.08,3.29-.07.82-.04,2-.66,2.63-.36.37-.17.85.27,1.01.52.2,1.17-.04,1.54-.41.71-.72.87-1.69.98-2.65.13-1.18.17-2.36.16-3.54-.02-2.38-.23-4.74-.27-7.12-.01-1.11-2.21-.75-2.2.18h0Z"/>
  <path class="cls-6" d="m191.12,58.12s.04-.07.06-.1c-.08.12-.09.14-.03.06.02-.03.05-.06.07-.09.07-.08.05-.06-.07.06.06-.03.12-.1.17-.14.16-.12-.22.11-.05.03.03-.02.07-.03.1-.05.11-.05.07-.03-.12.04.07-.01.15-.04.22-.06-.2.03-.25.04-.13.03.04,0,.07,0,.11,0,.2-.02-.28-.03-.03,0,.03,0,.06,0,.09.01.1.02.08.01-.08-.02.05.04.16.05.22.08.04.01.07.03.1.05-.13-.07-.15-.07-.06-.03.06.04.11.07.17.11.04.03.14.09.16.13-.09-.09-.1-.1-.04-.03.03.03.05.06.08.09.1.12.18.25.25.39l-.09-.19c.11.24.18.49.2.75l-.02-.21c0,.13.01.26,0,.39,0,.1,0,.3-.06.39.03-.11.03-.11,0-.02l-.02.06c-.02.06-.05.12-.07.17,0,.02-.06.16-.09.16.07-.11.08-.13.03-.04-.02.02-.04.05-.06.07-.02.02-.04.05-.06.07.1-.09.13-.11.07-.07-.05.04-.11.08-.16.12-.08.06.23-.12.01-.01-.04.02-.25.11-.05.03s0,0-.05,0c-.09.02-.04.01.15-.03-.08,0-.08,0,.03,0,.1,0,.11,0,.03,0,.15.04.19.05.12.03-.07-.02-.04,0,.09.05-.03-.02-.06-.04-.09-.07-.18-.15-.52-.19-.74-.17-.27.02-.6.13-.82.3-.39.32-.53.79-.11,1.14s1.01.39,1.51.3.97-.29,1.39-.58c.69-.48,1.12-1.33,1.16-2.17.03-.79-.23-1.54-.8-2.09-.6-.58-1.42-.86-2.25-.8-1.03.08-2.01.64-2.51,1.56-.25.47.23.89.67.93.55.05,1.14-.17,1.41-.67h0Z"/>
  <path class="cls-6" d="m199.82,54.89c-.68-1.08-2.04-1.44-3.18-.86-1.01.52-1.62,1.93-.85,2.91.33.42.82.65,1.3.84.22.09.44.17.65.25.11.04.22.09.32.13.06.03.12.06.18.08.03.01.13.07.05.03.2.11.41.25.57.42-.1-.1.07.1.1.13.03.04.05.07.07.11-.05-.1.02.07.02.09.03.14,0,.28-.09.46-.05.1-.01.03,0,.01-.03.05-.07.1-.11.15s-.08.1-.12.14c.07-.07.05-.05-.01,0-.04.03-.17.11.02,0-.05.03-.1.05-.15.08-.17.09.03-.04.04-.01,0,0-.17.04-.17.04,0-.02.23-.03.04-.02.08,0,.16,0,.03,0-.17,0-.04,0,.01.01-.05-.02-.1-.04-.16-.05-.15-.05-.06-.02-.01,0-.06-.03-.12-.07-.18-.12-.03-.03-.07-.05-.1-.08l-.07-.06s.05.05,0,0c-.16-.18-.3-.41-.35-.54-.2-.5-.81-.64-1.3-.5-.39.12-1.08.56-.88,1.08.39.99,1.23,1.79,2.33,1.9,1.27.12,2.51-.52,3.14-1.63.28-.49.41-1.1.19-1.64-.21-.5-.59-.9-1.05-1.19s-.97-.51-1.48-.7c-.21-.08-.42-.17-.63-.25-.03-.01-.15-.08-.01,0-.04-.02-.07-.04-.11-.07s-.07-.05-.1-.08c.1.07-.03-.03-.05-.06-.01-.02-.09-.18-.06-.09.03.07-.03-.15-.03-.14,0,.02,0,.11,0,0,0-.07,0-.14.02-.22,0,0,.04-.14.01-.06-.03.08.05-.11.06-.13-.01.02-.08.11,0,.03.09-.09-.09.06-.12.08.06-.04.19-.05-.04.01-.08.02-.18,0-.05.01-.02,0-.17.01-.2-.02.02.03.13.05.16.06-.16-.08.16.15.13.12-.05-.05.05.06.04.06.06.08.11.15.16.23.55.88,2.61.02,1.98-.98h0Z"/>
  <g>
    <path class="cls-6" d="m204.85,49.77c-.48,1.89-.81,3.81-1,5.75-.11,1.14,2.11.86,2.21-.15.19-1.94.52-3.86,1-5.75.05-.21-.12-.45-.27-.56-.2-.14-.51-.2-.74-.18-.55.05-1.05.34-1.19.9h0Z"/>
    <path class="cls-6" d="m203.47,58.42l-.24,1.84c-.07.5.6.63.97.58.28-.04.59-.12.82-.29.17-.12.37-.29.4-.51l.24-1.84c.07-.5-.6-.63-.97-.58-.28.04-.59.12-.82.29-.17.12-.37.29-.4.51h0Z"/>
  </g>
  <path class="cls-12" d="m15.91,83.36s16.61,3.63,24.6-2.1c7.99-5.74,15.46-3.88,21.19-.41"/>
  <path class="cls-12" d="m236,35.6s21.22-3.75,20.29,4.82-9.41,6.52-11.11,1.6,11.71-16.78,21.02-11.18,11.62,22.72,25.49,18.12"/>
</svg>