<?xml version="1.0" encoding="UTF-8"?>
<svg id="bg" xmlns="http://www.w3.org/2000/svg" viewBox="0 0 332.15 80">
  <defs>
    <style>
      .cls-1 {
        fill: none;
        stroke: #f0cb9c;
        stroke-dasharray: 0 6;
        stroke-linecap: round;
        stroke-miterlimit: 10;
        stroke-width: 2px;
      }

      .cls-2 {
        fill: #f9be99;
      }

      .cls-3 {
        fill: #eea77d;
      }

      .cls-4 {
        fill: #bb8057;
      }

      .cls-5 {
        fill: #241914;
      }
    </style>
  </defs>
  <g>
    <g>
      <path class="cls-3" d="m256.56,30.38c1.14-.11,2.11-.53,2.95-1.26-.97.45-1.95.9-2.95,1.26Z"/>
      <path class="cls-3" d="m319.36,45.05c-.55-3.01-1.56-5.91-2.36-8.87-.05-.08-.09-.16-.13-.23-.11-.17-.23-.34-.34-.51-1.35-1.7-2.68-3.41-4.24-4.92-.35-.34-.74-.66-1.03-1.05-1.96-1.52-4.17-2.71-5.85-4.53-1.98-.79-4.08-1.25-6.31-1.29-2-.04-3.96-.06-5.95.6-1.85.61-3.73,1.13-5.46,2.01-.67.34-1.31.42-1.99.28-.38-.08-.76-.18-1.12-.32-1.1-.17-2.2-.46-3.28-.64-1.09-.19-2.24-.28-3.36-.49-.36.02-.71.05-1.07.09.47.44,1.07.3,1.62.31.83,0,1.63.05,2.37.47.21.12.47.21.71.24,2.2.24,4.28.91,6.31,1.75.58.24,1.22.24,1.8.52.91.44,1.01.41,1.19-.55.26-1.38,1.26-1.84,2.41-2,.92-.13,1.89-.08,2.82.03.83.09,1.37.68,1.49,1.5.13.93.19,1.88-.07,2.81-.1.36-.16.73-.2,1.1-.02.18.08.38.31.39.12,0,.27,0,.34-.07.18-.17.34-.37.46-.59.28-.48.69-.72,1.24-.7.66.03,1.22-.11,1.68-.64.19-.22.54-.33.83-.41.8-.23,3.68.36,4.36.84.55.38.59.93.52,1.51-.07.62-.48,1-1.02,1.26-.11.05-.25.1-.36.09-1.18-.14-1.69.32-1.73,1.56-.02.62-.67,1.04-1.37,1.09-.37.03-.76.05-1.13-.02-1.29-.22-2.59-.45-3.87-.72-.85-.18-1.06-.46-1.09-1.28-.01-.37.06-.75.11-1.21-.76-.28-1.56-.12-2.35-.16.3.39.61.78.91,1.18.13.17.11.37-.06.49-.16.12-.36.09-.51-.04-.48-.4-.97-.8-1.42-1.24-1.28-1.23-2.83-2.11-4.38-2.89-2.06-1.04-4.18-2.02-6.51-2.39-.3-.05-.61,0-.96,0,.19.52.58.63.93.67,1.41.16,2.68.77,3.89,1.37,1.39.68,2.59,1.73,3.87,2.62.1.07.16.19.23.3.12.18.11.39-.05.5-.14.09-.39.16-.51.09-.61-.32-1.18-.7-1.79-1.03-1.32-.72-2.65-1.42-3.98-2.12-.16-.08-.36-.1-.54-.09-.07,0-.19.16-.19.24,0,.11.08.27.17.32,1.11.51,1.1,1.58,1.28,2.54.11.61-.48,1.09-1.08.89-.56-.18-.92-.51-1.16-1.12-.24-.64-1.56-.92-2.14-.58-.06.04-.1.25-.05.32.18.26.4.48.6.72.63.78,1.27,1.55,1.89,2.34.13.16.14.38-.01.5-.13.1-.36.17-.5.13-.23-.07-.45-.22-.63-.38-.33-.29-.65-.6-.94-.93-1.96-2.23-4.41-3.91-6.63-5.85-.39-.34-.84-.56-1.33-.68-.1-.02-.28.01-.34.09-.15.18-.02.35.13.44,1.5.96,2.59,2.37,3.85,3.59.69.67.94,1.61,1.28,2.47.16.39.21.84.41,1.24.5.99.48,2.22,1.43,3,.07.05.05.24.03.36-.02.11-.08.26-.17.31-.09.06-.27.07-.35.01-.72-.52-1.4-1.11-1.74-1.94-.54-1.33-1.8-2.07-2.55-3.25-.41-.65-1.39-.77-2.01-1.35-.57-.54-.64-1.35-1.26-1.84-.77-.61-1.57-1.01-2.57-.9-.19.02-.36.08-.43.28-.07.2.01.37.16.5.66.58,1.33,1.15,1.98,1.73.19.17.36.35.51.55.13.16.13.38-.01.5-.13.1-.37.18-.5.13-.28-.11-.55-.29-.79-.47-1.01-.74-2-1.51-3.02-2.24-.3-.21-.67-.34-1.01-.47-.08-.03-.26.05-.31.13-.04.08,0,.29.06.33.75.4.95,1.32,1.72,1.72.57.3.94.79,1.13,1.44.12.41.43.76.65,1.14.39.64.86,1.21.82,2.05-.03.56.28,1.12.69,1.51.6.59.87,1.38,1.36,2.02.96,1.25,1.2,2.74,1.58,4.19.06.22,0,.5-.11.72-.14.3-.43.46-.77.44-.26-.01-.5-.12-.63-.36-.11-.22-.23-.46-.25-.7-.1-1.45-.85-2.62-1.66-3.74-.38-.53-.7-1.01-.69-1.69.01-.52-.24-.97-.6-1.35-.56-.59-1.08-1.23-1.69-1.76-.39-.34-.73-.67-.97-1.12-.14-.27-.3-.61-.55-.74-.75-.41-1.24-1.02-1.68-1.73-.3-.5-.8-.78-1.44-.75-.89.05-1.75-.04-2.59-.35-.21-.08-.47-.1-.7.16.56.4,1.14.76,1.65,1.19.54.46,1.15.76,1.83.92.33.08.61.33.63.64.07,1.3,1.02,1.97,1.86,2.71.71.62,1.44,1.22,1.95,2.02.14.21.29.42.35.65.04.15-.05.35-.14.5-.04.07-.28.12-.33.07-.54-.49-1.49-.42-1.76-1.28-.03-.11-.15-.28-.22-.28-1.04-.03-1.43-.92-2.01-1.53-.56-.59-1.14-1.15-1.59-1.85-.57-.9-1.41-1.6-2.26-2.25-.16-.13-.37-.09-.5.06-.07.08-.13.23-.11.34.08.51.29.97.73,1.26.38.26.66.58.84.99.45,1.05,1.05,2,1.89,2.79.12.12.17.33.23.5.08.21-.19.57-.4.51-.42-.11-.95-.14-1.23-.41-.59-.57-1.5-.36-2.01-.92-.46-.5-.78-1.14-1.2-1.69-.49-.65-.99-1.3-1.51-1.92-.24-.29-.52-.56-.94-.56-.2,0-.35.08-.37.3,0,.06,0,.14.04.18.88,1.18.95,2.71,1.74,3.93.1.15.16.35.17.53,0,.17-.06.38-.17.5-.19.2-.47.2-.68.04-.2-.14-.39-.33-.51-.54-.29-.55-.57-1.12-.8-1.71-.14-.36-.29-.7-.58-.95-.08-.07-.23-.12-.33-.1-.09.02-.21.14-.22.23-.04.44-.06.88-.05,1.32,0,.5.07,1.01-.16,1.48-.2.43-.13.84,0,1.28.29.98.18,2,.12,3-.02.42-.37.66-.79.62-.35-.04-.64-.23-.63-.58.05-1.64-.6-3.21-.45-4.86.04-.5.02-1.01,0-1.51-.03-1.08-.05-1.02-1.07-1.39-1.47-.53-2.92-1.15-4.38-1.73-.64-.26-1.29-.5-1.92-.78-.28-.13-.54-.32-.75-.54-.11-.11-.15-.36-.12-.53.04-.26.22-.44.5-.48.63-.07,1.24-.03,1.84.23,1.44.62,2.9,1.2,4.35,1.79.35.14.74.32,1.02-.07.32-.45.11-1.26-.4-1.46-.58-.23-1.19-.37-1.8-.51-.73-.17-1.47-.29-2.21-.46-.24-.06-.47-.18-.7-.28-.55-.26-.79-.66-.61-1,.24-.46.67-.56,1.13-.48,1.29.23,2.58.5,3.87.75.4.08.67.32.87.66.3.52.84.44,1.35.62.09-.37.14-.68.23-.97.09-.28.26-.48.49-.6-.27-.19-.44-.52-.46-.84-.06-.09-.08-.23-.08-.38-1.06-.1-2.12-.02-3.17-.35-.59-.19-1.24-.11-1.85.14-.42.18-.86.2-1.28-.01-.3-.15-.49-.4-.5-.74s.14-.7.44-.77c.96-.24,1.91-.79,2.92-.47.99.31,1.98.25,2.98.3-.33-1.59-.63-3.19-1.6-4.57-.2-.29-.23-.71-.32-1.07-.3-1.15-.43-2.38-.92-3.44-.68-1.45-.89-2.99-1.26-4.51-.28-1.15-.52-2.32-.79-3.48-.2-.86-.59-1.65-1-2.42-.43-.81-1.07-1.38-1.89-1.77-1.07-.5-2.08-.45-2.94.42-.48.49-.96,1-1.33,1.57-.79,1.2-1.52,2.44-2.28,3.67,0,.25.06.52,0,.75-.38,1.39-.78,2.77-1.2,4.15-.05.18-.23.32-.43.21-.09-.05-.18-.18-.2-.29-.17-1.23.31-2.34.67-3.47.09-.29.28-.56.42-.84-.69.01-1.36-.15-2.03-.27-1.73-.31-3.47-.48-5.16.24.21.13.42.26.63.38.11.06.26.1.32.19.32.52.15,1.1.18,1.66.03.54-.07.99-.67,1.19-.27.09-.35.33-.28.61.07.3.13.61.19.92.23,1.22-.46,2.15-.99,3.13-.08.15-.33.21-.5.07-.13-.11-.32-.31-.29-.42.46-1.73.25-3.49.3-5.24.02-.75-.08-1.5-.12-2.25-.19.03-.37.09-.56.1-2.38.08-3.12-.39-4.01-2.54-.19-.46-.33-.95-.53-1.41-.29-.69-.55-1.41-.94-2.05-1.26-2.01-3.5-2.02-4.69.01-.76,1.3-1.45,2.67-1.78,4.14-.32,1.45-1,2.7-1.72,3.95-.94,1.63-1.86,3.28-2.78,4.93-.5.89-.91,1.89-.81,2.86.1.93-.14,1.72-.35,2.56-.29,1.15-.74,2.3-.11,3.48.63,0,1.21-.2,1.81-.36.79-.2,1.06,0,1.32,1,.11.43.38.41.66.46.25.04.49.12.55.41.08.37-.14.58-.44.72-.22.11-.45.24-.68.29-.85.16-1.7.29-2.55.43-.1.41-.17.83-.31,1.24-.16.48-.21.95-.09,1.44.55-.28,1.1-.55,1.65-.85.75-.4,1.55-.38,2.35-.26.27.04.45.24.42.51-.01.16-.14.39-.27.44-1.03.38-2.07.73-3.11,1.1-.41.15-.71-.1-1.05-.22-.08,1.44-.2,2.89.18,4.31.19-.46.34-.92.82-1.21.48-.29.9-.67,1.36-1,.27-.19.57-.22.9-.16.24.05.44.38.3.56-.84,1.11-1.84,2.02-3.23,2.43-.09,1.04.1,2.03.42,3.01.49,0,.88-.21,1.05-.65.52-1.32,1.59-2.25,2.43-3.33,1.09-1.41,2.72-2.2,4.24-3.08.76-.44,1.57-.8,2.35-1.21.32-.16.43-.42.32-.78-.09-.3-.16-.61-.19-.92-.14-1.45.4-2.57,1.7-3.25.4-.21.57-.49.54-.89-.07-1.22.27-2.34.64-3.49.29-.91.86-1.53,1.54-2.08.89-.72,2.04-.43,2.46.65.37.93.68,1.9.66,2.91-.02.83.15,1.62.36,2.41.08.3.1.64.4.81.81.46.78,1.22.74,1.98-.03.71-.54,1.11-1.01,1.52-.26.22-.59.37-1.15.71.69,0,1.06.03,1.42,0,1.23-.1,2.37.11,3.43.76.37.23.81.31,1.25.39,2.16.38,4.26.94,6.22,2.01,1.82.99,3.68,1.89,5.29,3.22,1.12.92,2.25,1.81,2.92,3.13.22.43.57.6.98.79.61.29.87.83.6,1.4-.54,1.1-.55,2.29-.79,3.44-.27,1.29-1.07,2.42-2,3.37-1.71,1.75-3.2,3.69-4.8,5.53-1.65,1.89-3.5,3.61-5.3,5.37-1.4,1.36-2.62,2.86-3.78,4.42-.41.55-.91,1.05-1.44,1.48-1.02.83-2.06,1.64-3.16,2.36-1.12.72-1.85,1.59-2.11,2.95-.24,1.22-1.2,1.64-2.29,1.06-1.5-.8-2.97-1.65-3.4-3.54-.2-.88-.75-1.56-1.63-1.96-1.77-.82-3.46-1.77-5.07-2.88-.09-.07-.24-.06-.36-.08.06.43.12.85.19,1.33-.58.25-1.15.48-1.72.72.36.38.74.18,1.1.05.49-.18.98-.24,1.47-.07.14.05.27.26.31.42.04.17-.04.37-.24.45-.11.05-.24.11-.35.11-1.6-.02-3.08.51-4.57.97-.24.07-.48.16-.72.18-.25.03-.54,0-.6-.3-.03-.15.03-.39.14-.5.32-.3.68-.54,1.02-.82.18-.14.49-.16.51-.62-1.04.05-2.07-.16-3.09.2-.23.08-.49.11-.73.12-.67.03-1.04-.45-.88-1.09.16-.64.39-1.17,1.21-1.18.36,0,.72-.21,1.06-.35.84-.35,1.03-1.04.5-1.77-.15-.2-.33-.38-.47-.58-.14-.21,0-.57.24-.59.5-.04,1-.03,1.5-.07.43-.04.69-.31.65-.75-.03-.43-.13-.86-.21-1.29-.21-1.06-.22-2.11-.06-3.17.01-.08.16-.19.26-.2.09-.01.28.07.29.13.18.92.34,1.84.51,2.75.25,1.29.39,2.6.87,3.83.32.82.7,1.64,1.76,1.75.02-.38-.1-.88.1-1.11.88-1.01.28-1.79-.23-2.66-.57-.98-.95-2.03-1-3.2-.04-.99.08-1.87.95-2.51.55-.4.56-.89.22-1.48-.41-.7-.76-1.44-1.11-2.18-.34-.73-.81-1.42-.85-2.27-.02-.4-.32-.67-.68-.83-.1.23-.23.45-.31.69-.39,1.25-.78,2.51-.92,3.83-.08.72-.1,1.49-.64,2.12-.98,1.14-1.89,2.34-2.85,3.5-.58.69-.97,1.47-1.26,2.3-.41,1.18-.81,2.37-.88,3.64-.04.63-.13,1.26-.72,1.66v2.27c.36-.02.6.13.68.49.59,2.68,2.44,3.93,4.97,4.54,1.31.31,2.63.24,3.94.33,1.11.08,2.28-.23,3.26.6.13.11.36.1.55.11,0,0,.01,0,.02,0,1.2-.08,2.38-.13,3.54-.17,1.98-.06,3.9.24,5.84.54.39,0,.77,0,1.16,0,.56,0,1.09.02,1.53.38,5.72.69,11.58.98,17.33,1.37,1.51-.09,3.02-.25,4.53-.39,1.91-.17,3.81-.83,5.75-.21.23.07.5.02.75.02,1.32,0,2.64,0,3.96,0-.13-.21-.27-.42-.39-.64-.71-1.27-.54-2.31.62-3.09.64-.43,1.21-.89,1.61-1.55.66-1.09.56-1.94-.33-2.88-.35-.37-.71-.71-1.06-1.07-.22-.23-.38-.49-.44-.81-.25-1.34.32-2.21,1.67-2.43.61-.1,1.24-.13,1.86-.24.87-.14,1.65.36,1.96,1.16.32.83.82,1,1.58.93.77-.07,1.49.02,2.12.57.21.18.59.15.9.21.03-.75.11-1.51.06-2.26-.08-1.28.31-2.49.51-3.72.14-.87.74-1.76,1.6-2.24.88-.49,1.74-1.01,2.71-1.31.73-.22,1.42-.41,2.2-.11.65.26,1.37.21,2.03-.03.95-.34,1.99-.19,2.96-.52.57-.2,1.24-.1,1.86.08,1.96.55,3.86.16,5.7-.49.77-.27,1.38-.5,2.06.14.25.24.7.26,1.02.45.45.26.89.67.79,1.19-.23,1.23.69,1.79,1.32,2.52.24.28.61.44.88.7.53.52.72,1.53.27,2.08-.95,1.17-1.92,2.35-3.53,2.65-.49.09-1,.08-1.5.1-.42.02-.73.17-.79.63-.11.84-.55,1.47-1.39,1.56-1.04.12-2.16.32-2.98-.66-.29-.34-.6-.66-.38-1.16.23-.53.47-1.05,1.14-1.13.37-.04.75-.04,1.13-.07.33-.03.63-.17.77-.47.15-.33-.05-.6-.27-.83-.09-.09-.17-.19-.28-.25-.99-.61-1.39-1.4-.88-2.54.15-.33-.09-.57-.42-.71-.7-.3-1.44-.41-2.19-.49-.36-.04-.72-.2-1.07-.31,0,.75,0,1.5,0,2.24,0,.25.04.53-.06.74-.24.49-.77.94-.79,1.41-.02.49.54.94.51,1.55-.03.58-.07,1.14-.61,1.49-.52.34-.57.73-.3,1.27.71,1.44.69,1.54-.46,2.73-.22.23-.39.46-.53.75-.64,1.24-1.25,1.53-2.54,1.27-.3-.06-.61-.12-.91-.18.04.46.31.8.63,1.09.45.41.58.92.53,1.5,2.64-.04,5.29-.12,7.93-.11,1.44,0,2.88.27,4.3-.21.3-.1.63-.09.91.06,1.85-.53,3.69-1.11,5.46-1.85,2.53-1.06,4.72-2.6,7.02-4.06.32-.2.63-.4.95-.58,1.47-1.46,2.93-2.93,4.43-4.37,1.83-1.76,3.36-3.75,4.62-5.94.23-.4.45-.8.67-1.2-.02-.11-.03-.23,0-.36,1.22-4.45,3.26-9.29,2.41-13.97Zm-103.32-13.3c-.37,0-.7-.43-.58-.77.11-.32.37-.53.71-.44.3.08.53.3.52.66-.1.32-.29.55-.65.55Zm3.3-15.77c-.61.12-1.22.23-1.82.36-.97.22-1.62-.44-1.39-1.39.17-.72.41-1.45.7-2.13.49-1.14,1.03-2.27,1.61-3.38.2-.37.55-.67.87-.97.35-.33.64-.3.92.09.98,1.35,1.42,2.88,1.5,4.13,0,1.88-.88,2.99-2.38,3.29Zm7.6,2.15c-.02.22-.18.45-.32.65-.05.08-.22.11-.32.1-.1-.02-.27-.12-.27-.19-.11-1.54-.64-3.03-.49-4.6.01-.12.07-.23.11-.35.09-.27.58-.34.79-.12.31.33.5.72.52,1.16.03.56,0,1.12,0,1.68,0,0,0,0,0,0,0,.56.03,1.12-.01,1.68Zm8.15-2.3c-.23.58-.44,1.17-.72,1.73-.22.45-.46.89-.54,1.4-.06.36.22,1.05-.49.96-.42-.05-.24-.62-.28-.98-.01-.12,0-.25,0-.3.02-.7,0-1.32.22-1.94.34-.98.06-2,.18-3,.02-.17.1-.38.22-.48.24-.2.47-.02.66.13.82.64,1.19,1.39.76,2.46Zm4.68-1.95c-.61-.21-.82-.74-.56-1.38.61-1.53,1.48-2.9,2.72-4.01.46-.42.88-.39,1.27.14.92,1.23,1.45,2.61,1.59,3.99-.03.48-.01.8-.08,1.1-.17.74-.98,1.31-1.71,1.13-1.09-.27-2.17-.6-3.23-.96Zm-2.94,60.44c-.17.16-.62.1-.63-.11-.07-1.41-.9-2.41-1.76-3.41-.11-.13-.16-.33-.21-.51-.09-.27.24-.54.59-.46.18.04.34.15.5.23.65,1.05,1.5,1.99,1.78,3.24.09.4.03.74-.28,1.02Zm3.23-2.47c-.12.55-.26,1.09-.44,1.62-.08.22-.27.43-.45.58-.39.33-1.08.03-1.14-.48-.04-.31-.03-.63-.04-.94-.07-1.85-.7-2.46-2.65-2.58,0-.18,0-.37.03-.55.06-.36.31-.61.65-.5.73.23,1.48.26,2.23.31,1.23.09,2.1,1.33,1.83,2.54Zm16.37-4.15c-.49.06-.98.06-1.47.08.62.77.98,1.61.66,2.6-.05.14-.25.3-.41.33-.15.02-.37-.07-.47-.2-.11-.13-.13-.35-.15-.53-.05-.53-.44-.73-.84-.91-.3-.13-.62-.21-.87.06-.24.27-.17.6.03.86.62.79,1.26,1.56,1.9,2.33.08.1.19.18.23.29.04.09.05.26-.01.32-.07.08-.22.12-.33.12-.41-.03-.7-.3-.92-.6-.64-.87-1.74-1.23-2.35-2.14-.05-.07-.24-.1-.33-.06-.08.04-.17.2-.15.29.09.49.14,1,.32,1.46.46,1.19.36,1.08-.81,1.93-.41.3-.99.13-1.03-.36-.07-.87-.54-1.53-1-2.19-.65-.93-1.74-1.1-2.64-.43-.23.17-.42.48-.51.77-.11.35-.11.74-.13,1.11-.03.51-.04,1.08-.65,1.21-.56.11-.59-.55-.9-.83-.18-.16-.31-.38-.53-.67-.35.42-.12.88-.24,1.24-.13.39-.38.63-.79.72-.25.05-.6-.17-.53-.37.42-1.34.13-2.6-.36-3.85-.06-.15-.04-.44.06-.52.48-.4.98-.77,1.51-1.09.35-.21.73-.02,1.08.12,1.39.55,2.68.26,3.95-.4.87-.45,1.56-1.04,1.99-1.93.36-.73.69-1.48,1.03-2.22.4-.85.78-1.71,1.19-2.56.19-.4.5-.72.89-.95.54-.32,1.18-.11,1.28.54.13.87.78,1.41,1.15,2.12.39.76.43.82-.32,1.34-.31.22-.64.39-.78.78.43.02.92-.16,1.25.17.47.47.99.94,1.23,1.59.04.1-.15.4-.25.41Zm2.11-20.41c-.12.22-.34.39-.61.33-.17-.03-.41-.14-.45-.27-.33-.93-.65-1.87-.91-2.82-.06-.22.16-.45.44-.51.47-.1.91,0,1.13.42.35.66.59,1.37.6,2.21-.05.16-.09.41-.21.62Zm4.58-1.22c-.25.11-.52.05-.67-.17-.53-.77-1.15-1.49-1.4-2.42-.08-.31-.06-.63.21-.86.24-.21.85-.2,1.05.05.64.79,1.02,1.7,1.32,2.54-.04.47-.19.73-.51.86Zm3.57.29c-.26.24-.57.3-.86.16-.21-.1-.43-.29-.54-.49-.43-.82-.83-1.66-1.2-2.51-.23-.53.16-1.06.69-1.04.49-.02.86.22,1.05.64.39.84.74,1.71,1.08,2.58.09.24-.03.48-.23.67Zm8.61-5.65c-.16.14-.44.14-.49,0-.3-.93-1.1-1.49-1.62-2.26-.2-.3-.33-.67-.43-1.03-.05-.17.06-.36.27-.45.09.01.26-.02.32.04.74.84,1.48,1.68,2.18,2.55.28.35.15.83-.24,1.16Zm5.56,3.46c-.33.21-.83.05-.88-.32-.13-.97,0-1.97-.33-2.92-.02-.06.23-.22.37-.35.19.1.39.15.5.27.52.64.67,1.45.86,2.22.11.43-.1.84-.51,1.1Zm4.23,5.04c-.08.18-.24.32-.42.26-.64-.22-1.07-.89-.87-1.38.05-.13.28-.28.42-.27.51.04.93.75.87,1.39Zm3.39-5.06c-.26.13-.48.02-.65-.18-.24-.28-.63-.54-.67-.85-.15-1.12-.9-1.72-1.75-2.26-.15-.1-.29-.23-.39-.38-.06-.09-.1-.28-.05-.34.11-.12.27-.22.43-.27.1-.03.25.01.36.07,1.37.69,2.41,1.71,3.07,3.1.07.16.07.36.09.46-.07.33-.21.53-.44.65Zm2.41,2.6c-.31.42-.76.63-1.22.8-.54.2-1.06-.18-.93-.72.18-.78.43-1.54.64-2.31.07-.27.23-.46.49-.48.33-.04.58.14.77.42.24.37-.16.73-.02,1.07.11.27.34.48.53.74-.08.17-.14.35-.25.49Zm1.81-7.06c-.11.02-.24-.03-.35-.07-.94-.35-1.5-1.35-2.55-1.51-.44-1.14-1.6-1.69-2.23-2.68-.06-.1-.08-.24-.07-.36.01-.11.07-.25.15-.32.08-.07.26-.12.33-.08.57.38,1.25.69,1.64,1.21.77,1.02,1.86,1.65,2.7,2.55.21.23.42.46.61.71.06.09.04.23.05.35-.09.07-.18.17-.29.19Zm7.99-1.06c1.58-1.48,3.49-2.42,5.38-3.34,1.07-.52,2.29-.96,3.6-.49.66.24,1.33.1,2.02-.11,1.13-.34,1.58-.08,2.04,1.02.17.4.31.82.42,1.24.35,1.31-.54,2.28-1.85,2.01-.37-.07-.72-.25-1.08-.29-.5-.05-.94-.46-1.45-.29-.58.19-.46.83-.69,1.25-.57,1.02-1.42,1.51-2.47,1.03-1.51-.68-2.78-.26-4.05.51-.21.13-.41.3-.64.39-1.15.45-2.01-.14-2.01-1.45-.05-.62.3-1.03.8-1.51Zm-2.06,10.97c.05.26-.13.46-.35.6-.18.12-.45.08-.48-.08-.13-.73-.55-1.39-.5-2.15.01-.19.07-.36.33-.39.08.03.24.04.29.11.43.56.56,1.24.7,1.9Zm-2.95,1.82c-.32.05-.51-.08-.59-.35-.16-.51.08-1.03.48-1,.26.02.44.18.49.46.08.48-.07.81-.38.89Zm-.23-8.85c0-.21.32-.49.51-.44.11.04.26.05.33.14.52.61,1.04,1.23,1.54,1.86.06.07.04.26-.02.34-.06.09-.21.18-.31.17-1.04-.11-2.04-1.13-2.06-2.07Zm11.47,17.91c-.24.28-.41.62-.57.96-.82,1.74-3.27,2.93-5.19,2.5-.91-.2-1.24-1.51-.58-2.33.24-.3.56-.48.91-.64.66-.32.75-.64.16-1.05-1.11-.77-1.75-2.11-3.13-2.56-.33-.11-.59-.46-.83-.74-.58-.68-.6-1.51-.07-2.24.26-.35.55-.68.8-1.04.21-.3.38-.63.55-.92.63-.03,1.05.25,1.43.57.43.37.86.46,1.39.23.71-.31,1.31-.14,1.91.35.82.67,1.82,1.06,2.65,1.73.59.47.92,1,1.07,1.7.04.18-.02.4.05.56.5,1.11.2,2.05-.55,2.93Zm7.21-6.34c-.37.35-.74.67-1.22.88-.73.32-1.37.22-1.89-.32-.54-.56-.63-1.19-.22-1.89.22-.38.52-.7.79-1.05.42-.55.41-.71.05-1.35-.23-.41-.53-.68-.95-.87-2.02-.95-3.98-.87-5.91.26-.54.32-1.1.62-1.68.86-.65.27-1.23.06-1.69-.47-1.05-1.2-.86-2.97.43-3.98.25-.19.56-.34.74-.58,1.39-1.81,3.4-1.94,5.41-2.07.64.02,1.26-.02,1.87.24.83.34,1.58.23,2.23-.47.61-.65,1.31-.65,2.03-.12.3.22.64.39.97.58,1.93,1.14,2.71,3.03,1.99,5.15-.65,1.9-1.41,3.77-2.93,5.21Z"/>
      <path class="cls-2" d="m211.15,43.22c.49,0,.88-.21,1.05-.65.52-1.32,1.59-2.25,2.43-3.33,1.09-1.41,2.72-2.2,4.24-3.08.76-.44,1.57-.8,2.35-1.21.32-.16.43-.42.32-.78-.09-.3-.16-.61-.19-.92-.14-1.45.4-2.57,1.7-3.25.4-.21.57-.49.54-.89-.07-1.22.27-2.34.64-3.49.29-.91.86-1.53,1.54-2.08.89-.72,2.04-.43,2.46.65.37.93.68,1.9.66,2.91-.02.83.15,1.62.36,2.41.08.3.1.64.4.81.81.46.78,1.22.74,1.98-.03.71-.54,1.11-1.01,1.52-.26.22-.59.37-1.15.71.69,0,1.06.03,1.42,0,1.23-.1,2.37.11,3.43.76.37.23.81.31,1.25.39,2.16.38,4.26.94,6.22,2.01,1.82.99,3.68,1.89,5.29,3.22,1.12.92,2.25,1.81,2.92,3.13.22.43.57.6.98.79.61.29.87.83.6,1.4-.54,1.1-.55,2.29-.79,3.44-.27,1.29-1.08,2.42-2,3.37-1.71,1.75-3.2,3.69-4.8,5.53-1.65,1.89-3.5,3.61-5.3,5.37-1.4,1.36-2.62,2.86-3.78,4.42-.41.55-.91,1.05-1.44,1.48-1.02.83-2.06,1.64-3.16,2.36-1.12.72-1.85,1.59-2.11,2.95-.24,1.22-1.2,1.64-2.29,1.06-1.5-.8-2.97-1.65-3.4-3.54-.2-.88-.75-1.56-1.63-1.96-1.77-.82-3.46-1.77-5.07-2.88-.09-.07-.24-.06-.36-.08-.03-.11-.05-.22-.06-.33.02-.38-.1-.88.1-1.11.88-1.01.28-1.79-.23-2.66-.57-.98-.95-2.03-1-3.2-.04-.99.08-1.87.95-2.51.55-.4.56-.89.22-1.48-.41-.7-.76-1.44-1.11-2.18-.34-.73-.81-1.42-.85-2.27-.02-.4-.32-.67-.68-.83.49-1.79.32-3.62.26-5.43-.03-.85-.43-1.69-.66-2.53Z"/>
      <path class="cls-4" d="m306.55,30.15c-.69-.48-3.56-1.06-4.36-.84-.3.08-.64.2-.83.41-.46.53-1.02.67-1.68.64-.55-.03-.96.22-1.24.7-.12.21-.28.41-.46.59-.07.07-.23.08-.34.07-.23-.02-.33-.21-.31-.39.04-.37.1-.74.2-1.1.25-.93.2-1.88.07-2.81-.12-.82-.66-1.4-1.49-1.5-.93-.1-1.9-.16-2.82-.03-1.15.16-2.15.62-2.41,2-.18.95-.28.99-1.19.55-.58-.28-1.22-.28-1.8-.52-2.03-.84-4.11-1.51-6.31-1.75-.24-.03-.5-.12-.71-.24-.74-.42-1.55-.47-2.37-.47-.55,0-1.14.14-1.62-.31-1,0-2-.02-3,0-.3,0-.63.06-.91.17-1.59.64-3.26.82-4.94.88-.47.02-.93.06-1.4.12-1.56.54-3.11,1.09-4.66,1.7-.81.32-1.63.7-2.46,1.09-.84.73-1.81,1.15-2.95,1.26-1.03.37-2.08.63-3.15.67-.2,0-.37-.06-.52-.16-.24.12-.41.32-.49.6-.09.29-.15.6-.23.97-.51-.18-1.05-.1-1.35-.62-.2-.34-.47-.58-.87-.66-1.29-.25-2.58-.52-3.87-.75-.45-.08-.89.02-1.13.48-.18.34.06.74.61,1,.23.11.46.23.7.28.73.17,1.47.29,2.21.46.61.14,1.23.28,1.8.51.51.2.72,1.01.4,1.46-.28.39-.67.21-1.02.07-1.45-.59-2.91-1.17-4.35-1.79-.61-.26-1.21-.3-1.84-.23-.28.03-.47.22-.5.48-.03.17.01.41.12.53.21.22.47.41.75.54.63.29,1.28.53,1.92.78,1.46.58,2.9,1.2,4.38,1.73,1.02.37,1.04.31,1.07,1.39.01.5.04,1.01,0,1.51-.15,1.65.5,3.22.45,4.86-.01.35.28.54.63.58.42.04.76-.2.79-.62.06-1,.17-2.01-.12-3-.13-.44-.21-.85,0-1.28.23-.48.16-.98.16-1.48,0-.44.01-.88.05-1.32,0-.09.13-.21.22-.23.1-.02.25.03.33.1.29.26.44.59.58.95.22.59.5,1.15.8,1.71.11.21.31.39.51.54.22.16.5.16.68-.04.11-.12.17-.33.17-.5,0-.18-.07-.38-.17-.53-.78-1.22-.86-2.75-1.74-3.93-.03-.05-.05-.12-.04-.18.02-.22.16-.31.37-.3.42,0,.7.27.94.56.52.63,1.02,1.27,1.51,1.92.41.55.73,1.19,1.2,1.69.51.56,1.42.35,2.01.92.28.27.81.29,1.23.41.21.06.48-.3.4-.51-.06-.17-.11-.38-.23-.5-.84-.79-1.43-1.74-1.89-2.79-.18-.42-.46-.74-.84-.99-.44-.3-.66-.75-.73-1.26-.02-.11.04-.26.11-.34.13-.15.33-.19.5-.06.85.65,1.68,1.35,2.26,2.25.45.71,1.03,1.27,1.59,1.85.59.61.97,1.5,2.01,1.53.08,0,.19.17.22.28.27.86,1.22.78,1.76,1.28.05.05.28,0,.33-.07.09-.14.18-.35.14-.5-.06-.23-.22-.45-.35-.65-.52-.8-1.24-1.4-1.95-2.02-.84-.73-1.79-1.41-1.86-2.71-.02-.3-.3-.56-.63-.64-.68-.17-1.29-.46-1.83-.92-.51-.43-1.09-.79-1.65-1.19.23-.26.49-.24.7-.16.84.31,1.71.4,2.59.35.63-.03,1.13.25,1.44.75.43.71.93,1.32,1.68,1.73.25.14.41.47.55.74.24.46.58.79.97,1.12.61.53,1.13,1.17,1.69,1.76.36.38.61.83.6,1.35-.01.68.31,1.16.69,1.69.81,1.12,1.55,2.29,1.66,3.74.02.24.13.48.25.7.13.24.37.34.63.36.34.02.63-.13.77-.44.1-.22.16-.5.11-.72-.38-1.45-.62-2.94-1.58-4.19-.49-.64-.76-1.43-1.36-2.02-.41-.4-.71-.95-.69-1.51.04-.84-.44-1.41-.82-2.05-.23-.37-.53-.73-.65-1.14-.2-.65-.56-1.14-1.13-1.44-.76-.39-.97-1.32-1.72-1.72-.06-.03-.1-.25-.06-.33.04-.08.23-.16.31-.13.35.13.71.26,1.01.47,1.02.73,2.01,1.5,3.02,2.24.25.18.51.37.79.47.14.05.38-.03.5-.13.15-.12.14-.34.01-.5-.16-.2-.33-.38-.51-.55-.66-.58-1.33-1.15-1.98-1.73-.14-.13-.23-.3-.16-.5.07-.2.24-.26.43-.28,1-.11,1.81.29,2.57.9.62.49.69,1.31,1.26,1.84.61.58,1.6.7,2.01,1.35.75,1.18,2,1.92,2.55,3.25.34.82,1.02,1.42,1.74,1.94.08.06.26.04.35-.01.09-.06.15-.2.17-.31.02-.12.04-.31-.03-.36-.95-.78-.93-2.01-1.43-3-.2-.4-.25-.84-.41-1.24-.35-.86-.59-1.8-1.28-2.47-1.26-1.22-2.35-2.63-3.85-3.59-.15-.09-.28-.27-.13-.44.06-.07.24-.11.34-.09.5.12.95.34,1.33.68,2.22,1.94,4.67,3.62,6.63,5.85.29.33.61.64.94.93.18.16.4.31.63.38.15.04.38-.03.5-.13.15-.12.14-.34.01-.5-.63-.78-1.26-1.56-1.89-2.34-.2-.24-.42-.47-.6-.72-.05-.07,0-.28.05-.32.59-.34,1.9-.06,2.14.58.23.61.6.94,1.16,1.12.6.2,1.19-.28,1.08-.89-.18-.96-.17-2.03-1.28-2.54-.09-.04-.16-.21-.17-.32,0-.08.12-.23.19-.24.18,0,.38.01.54.09,1.33.7,2.66,1.4,3.98,2.12.6.33,1.18.71,1.79,1.03.12.07.37,0,.51-.09.16-.11.17-.32.05-.5-.07-.1-.13-.23-.23-.3-1.28-.9-2.49-1.94-3.87-2.62-1.22-.6-2.48-1.22-3.89-1.37-.36-.04-.74-.15-.93-.67.35,0,.66-.04.96,0,2.32.37,4.45,1.35,6.51,2.39,1.55.78,3.1,1.65,4.38,2.89.45.43.94.83,1.42,1.24.15.13.35.16.51.04.17-.13.18-.32.06-.49-.3-.4-.61-.79-.91-1.18.79.04,1.59-.12,2.35.16-.04.46-.12.83-.11,1.21.03.82.24,1.1,1.09,1.28,1.28.27,2.57.5,3.87.72.37.06.75.04,1.13.02.7-.05,1.35-.47,1.37-1.09.05-1.24.56-1.7,1.73-1.56.12.01.25-.03.36-.09.54-.26.94-.64,1.02-1.26.07-.58.02-1.13-.52-1.51Zm-38.91-.04c-.04.08-.19.12-.29.17-.11-.04-.24-.05-.34-.12-.14-.1-.39-.29-.37-.34.12-.26.39-.2.61-.17.11.01.24.07.31.15.06.07.1.23.07.31Zm24.19-.15c-.07-.08-.1-.24-.07-.35.05-.21.26-.29.43-.21.44.2.85.02,1.27-.03.36-.04.73.29.65.52-.29.83.23,1.58.14,2.37-.95-.62-1.7-1.44-2.41-2.3Z"/>
      <path class="cls-4" d="m257.61,33.4s.03.1.06.14c.02.02.07.02.11.03l-.17-.16s-.03-.1-.06-.14c-.02-.02-.07-.02-.1-.03.06.05.11.11.17.16Z"/>
      <path class="cls-2" d="m261.77,78.79c.42.24.84.41,1.27.52.92-.04,1.85-.08,2.77-.11.1-.03.19-.06.29-.1.65-.25,1.33-.35,2.03-.34,1.13.02,2.26,0,3.39,0,1.59,0,3.17,0,4.76,0,.85-.06,1.58-.06,2.28,0,.23,0,.46,0,.69,0,.82,0,1.33-.3,1.4-1.16.04-.58-.08-1.09-.53-1.5-.32-.29-.59-.63-.63-1.09-.34-.21-.68-.42-1.11-.4-.52.32-.57.3-.78-.37-.35-.2-.68-.42-1.11-.39-.52.34-.59.31-.76-.4-.31-.21-.6-.49-.94-.63-1.75-.72-2.56-2.14-2.92-3.89-.31-.07-.69-.04-.9-.21-.63-.55-1.35-.64-2.12-.57-.76.06-1.26-.11-1.58-.93-.31-.8-1.09-1.3-1.96-1.16-.62.1-1.24.13-1.86.24-1.35.23-1.92,1.09-1.67,2.43.06.32.22.59.44.81.35.36.72.71,1.06,1.07.89.94.99,1.79.33,2.88-.4.66-.97,1.12-1.61,1.55-1.16.79-1.33,1.83-.62,3.09.12.22.26.43.39.64Z"/>
      <path class="cls-4" d="m229.65,12.66c.21.13.42.26.63.38.11.06.26.1.32.19.32.52.15,1.1.19,1.66.03.54-.07.99-.67,1.19-.27.09-.35.33-.28.61.07.3.13.61.19.92.23,1.22-.46,2.15-.99,3.13-.08.15-.33.21-.5.07-.13-.11-.32-.31-.29-.42.46-1.73.25-3.49.3-5.24.02-.75-.08-1.5-.12-2.25.02-.12.02-.25.06-.36.26-.68.48-.72.98-.18.08.09.14.2.21.3Z"/>
      <path class="cls-4" d="m252.5,27.94s-.05-.02-.08-.03c-.17-.06-.35-.1-.52-.14-1-.04-1.99,0-2.98-.3-1.01-.31-1.96.24-2.92.47-.29.07-.45.43-.44.77s.2.59.5.74c.42.21.86.19,1.28.01.6-.26,1.25-.34,1.85-.14,1.04.34,2.11.26,3.17.35.03,0,.05,0,.08-.01,0-.59.03-1.16.08-1.72Z"/>
      <path class="cls-4" d="m210.12,28.94c.63,0,1.21-.2,1.81-.36.79-.2,1.06,0,1.32,1,.11.43.38.41.66.46.25.04.49.12.55.41.08.37-.14.58-.44.72-.22.11-.45.24-.68.29-.85.16-1.7.29-2.55.43-.2-.37-.18-.74.02-1.1.43-.06,1.12-.22,1.06-.55-.1-.54-.7-.12-1.08-.13-.06,0-.12.03-.18.05-.34-.33-.53-.72-.48-1.21Z"/>
      <path class="cls-4" d="m210.4,34.56c.55-.28,1.1-.55,1.65-.85.75-.4,1.55-.38,2.35-.26.27.04.45.24.42.51-.01.16-.14.39-.27.44-1.03.38-2.07.73-3.11,1.1-.41.15-.71-.1-1.05-.22,0-.24,0-.48,0-.72Z"/>
      <path class="cls-4" d="m210.58,39.59c.19-.46.34-.92.82-1.21.48-.29.9-.67,1.36-1,.27-.19.57-.22.9-.16.24.05.44.38.3.56-.84,1.11-1.84,2.02-3.23,2.43-.05-.21-.1-.42-.16-.63Z"/>
      <path class="cls-4" d="m237.57,12.17c0,.25.06.52,0,.75-.38,1.39-.78,2.77-1.2,4.15-.05.18-.23.32-.43.21-.09-.05-.18-.18-.2-.29-.17-1.23.31-2.34.67-3.47.09-.29.28-.56.42-.84.12-.35.38-.5.73-.53Z"/>
      <path class="cls-3" d="m210.61,30.15c.06-.02.12-.05.18-.05.38.01.98-.41,1.08.13.06.33-.62.49-1.06.55-.07-.21-.14-.42-.21-.64Z"/>
      <path class="cls-4" d="m275.73,73.47c-.31-.21-.6-.49-.94-.63-1.75-.72-2.56-2.14-2.92-3.89.02-.75.11-1.51.06-2.26-.08-1.28.31-2.49.51-3.72.14-.87.74-1.76,1.6-2.24.88-.49,1.74-1.01,2.71-1.31.73-.22,1.42-.41,2.2-.11.65.26,1.37.21,2.03-.03.95-.34,1.99-.19,2.96-.52.57-.2,1.24-.1,1.86.08,1.96.55,3.86.16,5.7-.49.77-.27,1.38-.5,2.06.14.25.24.7.26,1.02.45.45.26.89.67.79,1.19-.23,1.23.69,1.79,1.32,2.52.24.28.61.44.88.7.53.52.72,1.53.27,2.08-.95,1.17-1.92,2.35-3.53,2.65-.49.09-1,.08-1.5.1-.42.02-.73.17-.79.63-.11.84-.55,1.47-1.39,1.56-1.04.12-2.16.32-2.98-.66-.29-.34-.6-.66-.38-1.16.23-.53.47-1.05,1.14-1.13.37-.04.75-.04,1.13-.07.33-.03.63-.17.77-.47.15-.33-.05-.6-.27-.83-.09-.09-.17-.19-.28-.25-.99-.61-1.39-1.4-.88-2.54.15-.33-.09-.57-.42-.71-.7-.3-1.44-.41-2.19-.49-.37-.04-.72-.2-1.08-.31-.03-.52-.25-.97-.53-1.38-.42-.63-1.07-.54-1.69-.4-.09.02-.22.19-.2.27.09.53.6.56.97.75.49.25.83.8,1.47.76,0,.75,0,1.5,0,2.25,0,.25.04.53-.06.74-.24.49-.77.94-.79,1.41-.02.49.54.94.51,1.55-.03.58-.07,1.14-.61,1.49-.52.34-.57.73-.3,1.27.71,1.44.69,1.54-.46,2.73-.22.23-.39.46-.53.75-.64,1.24-1.25,1.53-2.54,1.27-.3-.06-.61-.12-.91-.18-.34-.21-.68-.42-1.11-.4-.15-.35-.44-.42-.78-.37-.35-.2-.68-.42-1.11-.39-.15-.34-.43-.41-.76-.4Z"/>
      <path class="cls-4" d="m307.99,43.58c.64.02,1.26-.02,1.87.24.83.34,1.58.23,2.23-.47.61-.65,1.31-.65,2.03-.12.3.22.64.39.97.58,1.93,1.14,2.71,3.03,1.99,5.15-.65,1.9-1.41,3.77-2.93,5.21-.37.35-.74.67-1.22.88-.73.32-1.37.22-1.89-.32-.54-.56-.63-1.19-.22-1.89.22-.38.52-.7.79-1.05.42-.55.41-.71.05-1.35-.23-.41-.53-.68-.95-.87-2.02-.95-3.98-.87-5.91.26-.54.32-1.1.62-1.68.86-.65.27-1.23.06-1.69-.47-1.05-1.2-.86-2.97.43-3.98.25-.19.56-.34.74-.58,1.39-1.81,3.4-1.94,5.41-2.07Z"/>
      <path class="cls-4" d="m254.96,67.78c.62.77.98,1.61.66,2.6-.05.14-.25.3-.41.33-.15.02-.37-.07-.47-.2-.11-.13-.13-.35-.15-.53-.05-.53-.44-.73-.84-.91-.3-.13-.62-.21-.87.06-.24.27-.17.6.03.86.62.79,1.26,1.56,1.9,2.33.08.1.19.18.23.29.04.09.05.26-.01.32-.07.08-.22.12-.33.12-.41-.03-.7-.3-.92-.6-.64-.87-1.74-1.23-2.35-2.14-.05-.07-.24-.1-.33-.06-.08.04-.17.2-.15.29.09.49.14,1,.32,1.46.46,1.19.36,1.08-.81,1.93-.41.3-.99.13-1.03-.36-.07-.87-.54-1.53-1-2.19-.65-.93-1.74-1.1-2.64-.43-.23.17-.42.48-.51.77-.11.35-.11.74-.13,1.11-.03.51-.04,1.08-.65,1.21-.56.11-.59-.55-.9-.83-.18-.16-.31-.38-.53-.67-.35.42-.12.88-.24,1.24-.13.39-.38.63-.79.72-.25.05-.6-.17-.53-.37.42-1.34.13-2.6-.36-3.85-.06-.15-.04-.44.06-.52.48-.4.98-.77,1.51-1.09.35-.21.73-.02,1.08.12,1.39.55,2.68.26,3.95-.4.87-.45,1.56-1.04,1.99-1.93.36-.73.69-1.48,1.03-2.22.4-.85.78-1.71,1.19-2.56.19-.4.5-.72.89-.95.54-.32,1.18-.11,1.28.54.13.87.78,1.41,1.15,2.12.39.76.43.82-.32,1.34-.31.22-.64.39-.78.77h.01c-.65.11-1.48.19-1.42,1.03.05.69.84.75,1.43.85.12.02.24,0,.36,0h-.01c.06.19.19.32.39.38h0Zm-3.37.52c-.09.05-.23.09-.26.16-.02.08.04.25.11.28.18.08.34,0,.34-.21,0-.07-.12-.15-.19-.23Z"/>
      <path class="cls-4" d="m298.98,52.44c.63-.03,1.05.25,1.43.57.43.37.86.46,1.39.23.71-.31,1.31-.14,1.91.35.82.67,1.82,1.06,2.65,1.73.59.47.92,1,1.07,1.7.04.18-.02.4.05.56.5,1.11.2,2.05-.55,2.93-.24.28-.41.62-.57.96-.82,1.74-3.27,2.93-5.19,2.5-.91-.2-1.24-1.51-.58-2.33.24-.3.56-.48.91-.64.66-.32.75-.64.16-1.05-1.11-.77-1.75-2.11-3.13-2.56-.33-.11-.59-.46-.83-.74-.58-.68-.6-1.51-.07-2.24.26-.35.55-.68.8-1.04.21-.3.38-.63.55-.92Z"/>
      <path class="cls-4" d="m299.9,40.15c-.05-.62.3-1.03.8-1.51,1.58-1.48,3.49-2.42,5.38-3.34,1.07-.52,2.29-.96,3.6-.49.66.24,1.33.1,2.02-.11,1.13-.34,1.58-.08,2.04,1.02.17.4.31.82.42,1.24.35,1.31-.54,2.28-1.85,2.01-.37-.07-.72-.25-1.08-.29-.5-.05-.94-.46-1.45-.29-.58.19-.46.83-.69,1.25-.57,1.02-1.42,1.51-2.47,1.03-1.51-.68-2.78-.26-4.05.51-.21.13-.41.3-.64.39-1.15.45-2-.15-2.01-1.45Z"/>
      <path class="cls-4" d="m214.15,67.43c.01.11.03.22.06.33.06.43.12.85.19,1.33-.58.25-1.15.48-1.72.72.36.38.74.18,1.1.05.49-.18.98-.24,1.47-.07.14.05.27.26.31.42.04.17-.04.37-.24.45-.11.05-.24.11-.35.11-1.6-.02-3.08.51-4.57.97-.24.07-.48.16-.72.18-.25.03-.54,0-.6-.3-.03-.15.03-.39.14-.5.32-.3.68-.54,1.02-.82.18-.14.49-.16.51-.62-1.04.05-2.07-.16-3.09.2-.23.08-.49.11-.73.12-.67.03-1.04-.45-.88-1.09.16-.64.39-1.17,1.21-1.18.36,0,.72-.21,1.06-.35.84-.35,1.03-1.04.5-1.77-.15-.2-.33-.38-.47-.58-.14-.21,0-.57.24-.59.5-.04,1-.03,1.5-.07.43-.04.69-.31.65-.75-.03-.43-.13-.86-.21-1.29-.21-1.06-.22-2.11-.06-3.17.01-.08.16-.19.26-.2.09-.01.28.07.29.13.18.92.34,1.84.51,2.75.25,1.29.39,2.6.87,3.83.32.82.7,1.64,1.76,1.75Z"/>
      <path class="cls-2" d="m221.72,12.68c0,1.88-.88,2.99-2.38,3.29-.61.12-1.22.23-1.82.36-.97.22-1.62-.44-1.39-1.39.17-.72.41-1.45.7-2.13.49-1.14,1.03-2.27,1.61-3.38.2-.37.55-.67.87-.97.35-.33.64-.3.92.09.98,1.35,1.42,2.88,1.5,4.13Z"/>
      <path class="cls-2" d="m244.79,12.62c-.03.48-.01.8-.08,1.1-.17.74-.98,1.31-1.71,1.13-1.09-.27-2.17-.6-3.23-.96-.61-.21-.82-.74-.56-1.38.61-1.53,1.48-2.9,2.72-4.01.46-.42.88-.39,1.27.14.92,1.23,1.45,2.61,1.59,3.99Z"/>
      <path class="cls-4" d="m235.33,70.06c0-.19,0-.38.03-.57.06-.36.31-.61.65-.5.73.23,1.48.26,2.23.31,1.23.09,2.1,1.33,1.83,2.54-.12.55-.26,1.09-.44,1.62-.08.22-.27.43-.45.58-.39.33-1.08.03-1.14-.48-.04-.31-.03-.63-.04-.94-.08-1.86-.71-2.47-2.67-2.58l.02.02Z"/>
      <path class="cls-4" d="m233.05,18.64c.02-.7,0-1.32.22-1.94.34-.98.06-2,.18-3,.02-.17.1-.38.22-.48.24-.2.47-.02.66.13.82.64,1.19,1.39.76,2.46-.23.58-.44,1.17-.72,1.73-.22.45-.46.89-.54,1.4-.06.36.22,1.05-.49.96-.42-.05-.24-.62-.29-.98-.01-.12,0-.25,0-.3Z"/>
      <path class="cls-4" d="m292.99,39.52c-.09.07-.18.17-.29.19-.11.02-.24-.03-.35-.07-.94-.35-1.5-1.35-2.55-1.51-.44-1.14-1.6-1.69-2.23-2.68-.06-.1-.08-.24-.07-.36.01-.11.07-.25.15-.32.08-.07.26-.12.33-.08.57.38,1.25.69,1.64,1.21.77,1.02,1.86,1.65,2.7,2.55.21.23.42.46.61.71.06.09.04.23.05.35Z"/>
      <path class="cls-4" d="m264.78,42.49c.49-.02.86.22,1.05.64.39.84.74,1.71,1.08,2.58.09.24-.03.48-.23.67-.26.24-.57.3-.86.16-.21-.1-.43-.29-.54-.49-.43-.82-.83-1.66-1.2-2.51-.23-.53.16-1.06.69-1.04Z"/>
      <path class="cls-4" d="m226.95,16.45c0,.56.03,1.12-.01,1.68-.02.22-.18.45-.32.65-.05.08-.22.11-.32.1-.1-.02-.27-.12-.27-.19-.11-1.54-.64-3.03-.49-4.6.01-.12.07-.23.11-.35.09-.27.58-.34.79-.12.31.33.5.72.52,1.16.03.56,0,1.12,0,1.68,0,0,0,0,0,0Z"/>
      <path class="cls-4" d="m288.92,43.51c-.07.33-.21.53-.44.65-.26.13-.48.02-.65-.18-.24-.28-.63-.54-.67-.85-.15-1.12-.9-1.72-1.75-2.26-.15-.1-.29-.23-.39-.38-.06-.09-.1-.28-.05-.34.11-.12.27-.22.43-.27.1-.03.25.01.36.07,1.37.69,2.41,1.71,3.07,3.1.08.16.07.36.09.46Z"/>
      <path class="cls-4" d="m291.13,46.27c-.08.17-.14.35-.25.49-.31.42-.76.63-1.22.8-.54.2-1.06-.18-.93-.72.18-.78.43-1.54.64-2.31.07-.27.23-.46.49-.48.33-.04.58.14.77.42.24.37-.16.73-.02,1.07.11.27.34.48.53.74Z"/>
      <path class="cls-4" d="m263.62,45.21c-.04.47-.19.73-.51.86-.25.11-.52.05-.67-.17-.53-.77-1.15-1.49-1.4-2.42-.08-.31-.06-.63.21-.86.24-.21.85-.2,1.05.05.64.79,1.02,1.7,1.32,2.54Z"/>
      <path class="cls-4" d="m258.74,46.67c-.05.16-.09.41-.21.62-.12.22-.34.39-.61.33-.17-.03-.41-.14-.45-.27-.33-.93-.65-1.87-.91-2.82-.06-.22.16-.45.44-.51.47-.1.91,0,1.13.42.35.66.59,1.37.6,2.21Z"/>
      <path class="cls-4" d="m235.31,70.04c.65,1.05,1.5,2,1.79,3.25.09.4.03.74-.28,1.02-.17.16-.62.1-.63-.11-.07-1.41-.9-2.41-1.76-3.41-.11-.13-.16-.33-.21-.51-.09-.27.24-.54.59-.46.18.04.34.15.51.23l-.02-.02Z"/>
      <path class="cls-4" d="m273.04,36.98c.09.01.26-.02.32.04.74.84,1.48,1.68,2.18,2.55.28.35.15.83-.24,1.16-.16.14-.44.14-.49,0-.3-.93-1.1-1.49-1.62-2.26-.2-.3-.33-.67-.43-1.03-.05-.17.06-.36.27-.45Z"/>
      <path class="cls-4" d="m280.02,40.59c.19.1.39.15.5.27.52.64.67,1.45.86,2.22.11.43-.1.84-.51,1.1-.33.21-.83.05-.88-.32-.13-.97,0-1.97-.33-2.92-.02-.06.23-.22.37-.35Z"/>
      <path class="cls-4" d="m254.2,65.52c.43.02.92-.16,1.25.17.47.47.99.94,1.23,1.59.04.1-.15.4-.25.41-.49.06-.98.06-1.47.08h0c-.05-.2-.18-.33-.39-.38h.01c-.02-.64-.5-1.21-.38-1.89h-.01Z"/>
      <path class="cls-4" d="m295.97,42.15c.11.04.27.05.33.14.52.61,1.04,1.23,1.54,1.86.06.07.04.26-.02.34-.06.09-.21.18-.31.17-1.04-.11-2.04-1.13-2.06-2.07,0-.21.32-.49.51-.44Z"/>
      <path class="cls-4" d="m297.64,47.61c.08.03.24.04.29.11.43.56.56,1.24.7,1.9.05.26-.13.46-.35.6-.18.12-.45.08-.48-.08-.13-.73-.55-1.39-.5-2.15.01-.19.07-.36.33-.39Z"/>
      <path class="cls-4" d="m285.09,49.22c-.08.18-.24.32-.42.26-.64-.22-1.07-.89-.87-1.38.05-.13.28-.28.42-.27.5.04.93.75.87,1.39Z"/>
      <path class="cls-4" d="m295.69,51.44c-.32.05-.51-.08-.59-.35-.16-.51.08-1.03.48-1,.26.02.44.18.49.46.08.48-.07.81-.38.89Z"/>
      <path class="cls-4" d="m216.69,31.2c-.1.32-.29.55-.65.55-.37,0-.7-.43-.58-.77.11-.32.37-.53.71-.44.3.08.53.3.52.66Z"/>
      <path class="cls-3" d="m294.25,32.27c-.95-.62-1.7-1.45-2.42-2.31-.07-.08-.1-.24-.07-.35.05-.21.26-.29.43-.21.44.2.85.02,1.27-.03.36-.04.73.29.65.52-.29.84.24,1.59.14,2.39h0Z"/>
      <path class="cls-3" d="m267.36,30.28c-.11-.04-.24-.05-.34-.12-.14-.1-.39-.29-.37-.34.12-.26.39-.2.61-.17.11.01.24.07.31.15.06.07.1.23.07.31-.04.08-.19.12-.29.17Z"/>
      <path class="cls-3" d="m257.61,33.4c-.06-.05-.11-.11-.17-.16.04,0,.08,0,.1.03.03.04.04.09.06.14h0Z"/>
      <path class="cls-3" d="m257.61,33.41l.17.16s-.09,0-.11-.03c-.03-.04-.04-.09-.06-.14h0Z"/>
      <path class="cls-3" d="m275.73,73.47c.33-.01.62.06.76.4-.52.34-.59.31-.76-.4Z"/>
      <path class="cls-3" d="m277.6,74.26c.34-.05.63.02.78.37-.52.32-.57.3-.78-.37Z"/>
      <path class="cls-3" d="m285.19,61.73c-.64.03-.97-.51-1.47-.76-.36-.18-.88-.22-.97-.75-.01-.08.12-.25.2-.27.62-.14,1.27-.23,1.69.4.28.41.5.87.53,1.38h0Z"/>
      <path class="cls-3" d="m254.21,65.51c-.13.68.35,1.25.38,1.9-.12,0-.25.02-.36,0-.59-.11-1.39-.16-1.43-.85-.06-.84.77-.92,1.42-1.04Z"/>
      <path class="cls-3" d="m251.59,68.3c.07.08.19.15.19.23,0,.21-.16.29-.34.21-.07-.03-.13-.2-.11-.28.02-.07.17-.11.26-.16Z"/>
      <path class="cls-3" d="m254.58,67.4c.21.05.34.18.39.39-.2-.06-.33-.19-.39-.39Z"/>
    </g>
    <g>
      <path class="cls-5" d="m288.64,25.86c1.41-1.47,3.2-2.2,5.13-2.59,4.95-1.03,9.51.02,13.66,2.81,3.22,2.16,5.84,4.96,8.11,8.1,1.37,1.89,2.6,3.86,3.4,6.07,1.79,4.98,1.69,10.01.16,15.01-1.68,5.45-4.98,9.83-9.24,13.54-2,1.73-4.15,3.27-6.31,4.79q-1.43,1.01-2.08,2.94c.43.44.97,0,1.42.16.16.06.37.21.4.35.03.13-.12.39-.25.44-.35.13-.72.21-1.09.24-1.25.1-2.51.21-3.77.25-1.82.06-3.63.05-5.44.42-1.16.24-2.38.24-3.55-.08-.17-.05-.31-.23-.21-.45.04-.09.17-.2.26-.2.5.01,1,.08,1.51.09,1.8.04,3.51-.29,5.05-1.26.43-.27.82-.53,1.39-.36.35.11.72-.14,1.06-.31,1.17-.6,2.24-1.39,3.38-2.03,1.6-.9,3.01-2.04,4.49-3.1,1.18-.84,2.32-1.74,3.4-2.7,4.03-3.56,7.18-7.76,8.8-12.94,1.4-4.48,1.56-9.02.21-13.57-.38-1.27-.91-2.48-1.56-3.63-2.34-4.09-5.33-7.61-9.07-10.5-2.71-2.09-5.78-3.33-9.18-3.62-3.27-.28-6.4.22-9.15,2.23-.15.11-.33.18-.49.26-.14-.13-.28-.26-.42-.39Zm11.48,50.33c-.15-.16-.32-.15-.49-.05-.04.02-.07.09-.07.14,0,.12.1.18.25.12.1-.05.19-.15.27-.23.04-.09.08-.18.13-.27-.05,0-.12,0-.15.03-.09.1-.06.2.07.26Zm-1.26.53s-.07-.14-.09-.13c-.11.02-.21.06-.31.09.04.04.08.12.11.12.1,0,.2-.05.29-.08Z"/>
      <path class="cls-5" d="m233.16,78.34c-.3.08-.63.11-.88.27-.29.18-.54.31-.84.08-.78-.6-1.71-.11-2.55-.4-.82-.29-1.63-.59-2.53-.71-2.45-.31-4.89-.26-7.33-.07-1.82.14-3.64.21-5.44-.18-1-.21-1.99-.08-2.98.15-.18.04-.35-.09-.43-.29-.08-.21.03-.37.18-.48.58-.46,1.3-.4,1.98-.5.69-.1.81-.31.79-1-.03-.91-.46-1.53-1.23-1.97-.07-.04-.11-.23-.08-.33.05-.2.22-.3.42-.3.55,0,.96.27,1.26.71.29.42.45.89.51,1.4.07.55.16,1.1.24,1.63,1.05.31,2.06.26,3.07.24.69-.02.85-.18.87-.93.01-.56-.01-1.13-.1-1.69-.24-1.53-.93-2.22-2.43-2.44-.37-.05-.75.02-1.12,0-.19-.01-.38-.16-.35-.36.02-.16.14-.35.27-.43.21-.12.47-.23.71-.21,2.01.13,3.44.97,3.86,2.92.2.93.14,1.87.22,2.81.54.39,1.11.18,1.65.2.61.03.81-.54,1.18-.84.11-.09.05-.31-.08-.49-.84-1.17-1.56-2.42-2.5-3.53-.87-1.03-1.9-1.6-3.24-1.66-1.2-.05-2.37-.07-3.55.23-1.46.38-2.94.66-4.42.97-.37.08-.75.11-1.12.13-.61.04-1.13-.23-1.04-.52.14-.47.57-.39.93-.46,2.04-.38,4.07-.8,6.11-1.13.99-.16,2-.21,3-.23,1.53-.03,2.82.56,3.8,1.75.84,1.02,1.72,2.01,2.28,3.22.21.46.48.84.06,1.37-.21.27.36,1.07.73,1.09.81.06,1.63.07,2.45.09.36,0,.6-.23.72-.52.15-.34.18-.72.31-1.07.1-.29.23-.75.42-.79.85-.19.91-.94,1.2-1.51.84-1.66,2.31-2.44,4.02-2.84.79-.18,1.56-.29,2.33-.64,1.04-.48,2.26-.3,3.34-.04,1.28.32,2.54.7,3.87.71.11,0,.25.07.33.14.08.07.12.2.16.3.06.15-.01.25-.18.25-1.24-.03-2.5.2-3.72-.28-.76-.3-1.59-.38-2.41-.39-.25,0-.61-.04-.73.1-.73.83-1.74.54-2.62.77-1.08.28-2.19.54-2.96,1.62.35,0,.6-.03.84,0,.19.03.33.15.21.39-.26.55-.76.82-1.24,1.11-.83.5-1.48,1.16-1.89,2.04-.21.46.02.88.53.97.25.04.5.06.75.08.5.04,1.04.2,1.48.06.52-.17.4-.86.57-1.31.27-.72.64-1.37,1.19-1.9.47-.45,1.03-.71,1.71-.6.3.05.76.39.68.54-.14.25-.38.29-.63.25-.63-.09-1.09.2-1.46.68-.47.61-.81,1.28-.85,2.06-.02.44.41.88.94.99.24.05.5.05.75.07,0,.22,0,.43,0,.65Z"/>
      <path class="cls-5" d="m233.16,78.34c0-.22,0-.43,0-.65.67-.28,1.36-.13,2.04-.08,6.38.5,12.77.64,19.16.78,1.38.03,2.75-.07,4.08-.29,1.53-.24,2.98-.96,4.17-2.04.66-.6,1.08-1.38,1.14-2.3.04-.69.17-1.37-.05-2.05.15-.16.29-.33.43-.49.74.66,1.2,1.47,1.11,2.48-.11,1.24-.66,2.29-1.58,3.12-.5.46-1.1.81-1.65,1.21.12.5.5.31.75.31,3.58-.1,7.17-.2,10.75-.34,2.51-.1,5.02-.26,7.54-.39.08-.06.17-.13.25-.19-.1-.05-.19-.11-.29-.16-.01-.53.09-.65.46-.51.15.06.27.19.4.29.09.41.35.6.76.6.24,0,.48.02.72.03-.11.23-.22.46-.34.7-3.31.41-6.64.5-9.96.62-5.52.19-11.05.45-16.58.37-7.78-.11-15.58-.07-23.32-1.02Z"/>
      <path class="cls-5" d="m288.64,25.86c.14.13.28.26.42.39-.08.1-.15.2-.24.29-.27.27-.34.54.05.74,1.23.64,2.4,1.37,3.47,2.26.35.29.67.58.78,1.03.04.18.04.38-.14.5-.16.11-.33.14-.49-.03-1.34-1.38-2.97-2.3-4.74-2.97-3.79-1.46-7.72-2.21-11.79-2.15-2.52.04-5.03.13-7.5.67-1.04.23-2.09.48-3.08.85-2.05.78-4.18,1.37-6.13,2.39-1.47.77-3.08,1.06-4.7,1.28-.12.02-.26.04-.37,0-.1-.04-.21-.14-.25-.24-.03-.1,0-.3.05-.33.33-.17.67-.32,1.02-.44,2.77-.99,5.61-1.83,8.31-2.99,6.24-2.68,16.5-2.76,22.58-.69,1.15.39,1.91-.03,2.75-.55Z"/>
      <path class="cls-5" d="m247.95,14.94c.45.01.57.36.76.68.29.5.24.99.09,1.5.66.08.93.46,1.02,1.12.04.35.43.41.76.36.99-.15,1.98-.31,2.98-.47.99-.15,1.99-.31,2.98-.45.18-.03.4-.06.56,0,.15.06.27.23.35.38.02.04-.1.24-.19.27-.36.11-.72.21-1.09.27-1.8.29-3.6.56-5.4.85-.23.04-.5.01-.7.31.47,1.5.96,3.04,1.45,4.58.47,1.5.85,3.02,1.07,4.58.17,1.18.25,2.33-.03,3.54-.3,1.33-.29,2.74-.42,4.11-.04.37-.12.74-.22,1.1-.07.26-.3.42-.56.41-.27-.02-.47-.2-.45-.5.03-.5.09-1,.14-1.5.16-1.5.34-3,.5-4.49.12-1.14-.04-2.26-.25-3.37-.5-2.72-1.29-5.36-2.3-7.94-.14-.36-.34-.5-.69-.46-.56.07-1.12.15-1.68.22-2.18.29-4.36.59-6.53.87-.18.02-.37-.02-.56-.04-.16-.01-.23-.11-.18-.27.03-.11.08-.27.16-.3.23-.09.47-.16.72-.19,1.62-.23,3.23-.45,4.85-.68.93-.13,1.86-.28,2.79-.42.31-.05.62-.11.77-.44.11-.24-.06-1.29-.31-1.36-1.41-.39-.97-1.27-.63-2.14.02-.05-.03-.12-.05-.18h.15s.14.05.14.05Z"/>
      <path class="cls-5" d="m204.44,68.78c.02,2.57.47,4.4,2.13,5.77.59.49,1.22.88,1.96,1.08.36.1.76.12,1.03.42.07.08.13.22.11.32-.02.1-.12.24-.22.27-.17.05-.36.05-.54.02-2.43-.31-4.78-2.65-5.24-5.06-.39-2.03-.28-4,.42-5.94.84-2.33,1.97-4.47,3.88-6.15.89-.78,1.72-1.63,1.88-2.95.06-.5.08-.8-.36-1.09-.11-.07-.13-.34-.12-.51.02-.18.12-.35.2-.52.26-.51-.57-1.03.04-1.56.43-.37.8-.8,1.21-1.19.27-.26.55-.51.85-.73.07-.05.25-.02.34.04.08.06.18.25.15.31-.43.8-.23,1.85-1.03,2.51-.28.23-.44.61-.61.94-.07.14-.1.47-.03.5.83.46.37,1.07.22,1.64-.09.36-.18.73-.23,1.1-.02.16.04.47.13.49.9.26.6.95.62,1.55.02.82-.04,1.66.5,2.35.28.36.16.71.15,1.08-.01.44.54.53.56.93.03.45-.07.88-.35,1.23-.07.08-.22.15-.32.14-.1-.01-.26-.14-.27-.22-.15-1.72-1.16-3.23-1.22-4.99-.03-.69-.83-.98-1.37-.53-.43.36-.85.75-1.21,1.19-1.95,2.34-3.08,5.01-3.24,7.53Z"/>
      <path class="cls-5" d="m247.95,14.94l-.14-.05h-.15c-.41-.12-.81-.15-1.24,0-.51.17-1.05.27-1.57.39,0-.23.01-.47.02-.7.06-.03.11-.06.17-.08,2.04-.75,2.02-.75,1.52-2.93-.46-1.98-1.66-3.48-3.02-4.9-.33-.35-.65-.29-.98,0-1.34,1.15-2.56,2.41-3.39,3.99-.26.5-.53,1-.78,1.5-.42.82-1.03,1.22-1.99,1.04-.55-.1-1.12-.11-1.68-.15-.45-.04-.87.03-1.19.41-.14.16-.4.16-.5.04-.58-.71-1.39-.76-2.2-.82-.1,0-.26-.14-.27-.22-.02-.17-.01-.44.1-.52.7-.53,1.55-.75,2.38-1,.2-.06.47.16.51.45.06.45.3.68.75.62.7-.09,1.38,0,2.06.14.6.13.95-.15,1.2-.65.2-.39.4-.78.6-1.17.93-1.82,2.28-3.3,3.82-4.61.92-.79,1.43-.78,2.28.06,1.71,1.71,3.13,3.6,3.54,6.08.05.31.1.63.22.91.1.26.38.28.64.28,0,.25.01.5.02.76-.07.23-.17.46-.21.7-.05.28-.2.43-.48.45Z"/>
      <path class="cls-5" d="m215.11,46.2c-1.12.13-1.13.13-1.07,1.19.01.19.07.45-.07.5-.94.32-.96,1.2-1.24,1.93-.04.11-.14.21-.24.28-.09.06-.23.1-.33.08-.11-.03-.25-.14-.27-.23-.09-.58.08-1.13.31-1.64.37-.81.36-1.53-.13-2.31-.37-.58-.54-1.28-.54-1.98,0-.44-.15-.68-.62-.73-.28-.03-.41-.27-.43-.54-.03-.37-.04-.75-.05-1.13-.02-.61.05-1.2-.44-1.76-.28-.32-.23-.94-.33-1.44-.68-.05-1.21.33-1.79.54-1.95.71-3.89,1.44-5.83,2.15-.23.08-.48.13-.73.15-.09,0-.22-.11-.26-.21-.04-.1-.04-.27.02-.34.24-.32.63-.39.98-.52,2.11-.81,4.22-1.61,6.33-2.45.63-.25,1.34-.39,1.83-.93.08-.09.2-.19.31-.2,1.6-.07,2.98-.95,4.5-1.28.43-.09.87-.17,1.3-.2.23-.02.54.02.61.33.08.32-.17.46-.42.48-1.59.17-3.02.83-4.5,1.36-1.2.43-1.67,1.02-1.17,2.1.48,1.05.35,2.06.48,3.09.03.27.11.55.4.53.57-.03.82.17.74.76-.06.45.05.88.25,1.28.08.15.18.34.32.39.24.1.29-.15.37-.31.09-.16.15-.35.26-.49.21-.26.57-.2.81.06.17.2.3.4.28.67-.03.34.12.6.35.84l.04-.03Z"/>
      <path class="cls-5" d="m217.28,9.88c-.68,1.27-1.47,2.47-2.01,3.81-.2.49-.32.95-.03,1.43-.15.17-.31.33-.46.5-.16-.08-.32-.15-.48-.23-.08-.31-.26-.56-.51-.75-.18-.26-.37-.5-.52-.78-.13-.23,0-.51.28-.49.4.02.7,0,.91-.42.63-1.23,1.26-2.45,1.96-3.64.33-.57.3-1.03-.04-1.56-.44-.68-.87-1.38-1.25-2.1-.38-.72-.7-1.47-1.03-2.22-.07-.17-.1-.39.09-.5.27-.16.45,0,.58.24.59,1.11,1.18,2.21,1.79,3.31.18.32.4.62.66,1.01.67-.31.88-.94,1.19-1.43.7-1.11,1.68-1.49,3-.39.38.32.74.7,1,1.11,1.23,1.97,2.24,4.05,2.79,6.32l.04.08c-.67.3-.88.29-1.06-.1-.18-.4-.32-.82-.5-1.22-.51-1.14-1.02-2.29-1.57-3.42-.33-.68-.74-1.31-1.31-1.82-.63-.56-1.01-.53-1.52.19-.36.51-.7,1.04-1.04,1.57-.18.29-.13.6-.05.91-.3.19-.61.38-.91.57Z"/>
      <path class="cls-5" d="m295.39,56.99c.09.19.15.37.25.51.17.26.13.5-.15.58-.54.15-1.1.23-1.65.33-.31.06-.69.08-.79.41-.2.74-.79.72-1.35.77-1.51.14-3.02.06-4.52-.06-.64-.05-1.24-.21-1.67-.74-.07-.08-.11-.24-.08-.34.06-.19.26-.3.44-.2,1.38.82,2.92.56,4.41.62.23,0,.58-.05.7-.2.61-.8,1.55-.77,2.37-1,.46-.13.82-.2.83-.79,0-.25.25-.45.51-.49,1.57-.24,2.38-1.52,3.34-2.53,1.27-1.34,1.85-3.12,2.56-4.79.36-.85.23-1.87,0-2.8-.21-.85-.5-1.68-.78-2.52-.1-.3-.25-.58-.18-.9.01-.06.05-.15.09-.16.11-.02.22-.03.33,0,.05,0,.1.08.13.13,1.2,2.3,1.71,4.71,1.06,7.28-.06.24-.1.54-.25.69-1.3,1.29-1.62,3.28-3.15,4.39-.46.33-.24,1.14-.96,1.29-.49.1-.95.3-1.47.47Z"/>
      <path class="cls-5" d="m264.13,71.22c-.15.16-.29.33-.43.49-1.57-1.88-3.26-3.64-5.11-5.23-.14-.12-.26-.28-.34-.45-.04-.08,0-.25.06-.33.07-.08.25-.16.32-.13.27.14.54.31.77.51.75.65,1.48,1.32,2.37,2.12.15-.84.27-1.46-.3-2-.37-.35-.37-.77-.25-1.21,1.05-3.94.47-7.85-.25-11.75-.06-.31-.17-.61-.21-.91-.03-.23-.08-.54.2-.63.29-.1.46.13.52.39.21.92.44,1.83.6,2.75.33,1.92.59,3.84.55,5.8-.02,1.01-.08,2-.27,2.99-.18.9-.38,1.77.21,2.69.34.54.38,1.37-.03,1.98-.3.45-.09.65.16.93.54.61,1.09,1.21,1.43,1.96Z"/>
      <path class="cls-5" d="m213.84,33.01c-1.13,0-2.26,0-3.38,0-.24,0-.48.02-.68.23-.24.24-.26.79-.69.72-.19-.03-.29-.5-.45-.76-.15-.24-.41-.27-.65-.3-.56-.07-1.13-.1-1.68-.2-.14-.02-.33-.22-.35-.36-.04-.3.19-.44.47-.43.63.01,1.25.05,1.88.06.66,0,.85-.19,1.04-.84.15-.5.07-.99.04-1.49-.07-1.39-.02-2.76.43-4.09.12-.35.31-.68.52-.99.09-.14.32-.25.49-.09.12.12.26.29.26.44,0,.24-.1.48-.18.72-.63,1.91-.48,3.83-.14,5.77.08.48.35.62.77.61,1.38-.01,2.76-.03,4.14-.03.5,0,1,.06,1.49.15.15.03.38.24.38.37,0,.27-.24.41-.52.41-1.07,0-2.13,0-3.2,0,0,.04,0,.07,0,.11Z"/>
      <path class="cls-5" d="m278.87,76.13c-2.18-1.03-4.09-2.42-5.76-4.14-1.11-1.14-1.93-2.45-2.32-4.02-.83-3.3.8-6.72,3.89-8.11.28-.13.57-.28.89-.16.1.04.21.15.25.26.03.09,0,.27-.07.31-.27.15-.56.28-.85.4-2.71,1.12-4.62,4.98-2.83,8.47.7,1.37,1.67,2.51,2.86,3.45,1.03.82,2.14,1.53,3.21,2.29.41.29.82.57,1.23.85-.16.14-.33.28-.49.42Z"/>
      <path class="cls-5" d="m247.41,39.1c-.07.14-.09.3-.16.33-.17.07-.37.12-.54.09-.49-.09-.98-.2-1.46-.35-3.53-1.1-7.05-2.22-10.57-3.33-.24-.08-.5-.11-.71-.23-.21-.11-.5-.25-.33-.56.06-.12.31-.22.46-.2.37.04.74.13,1.1.24,2.93.9,5.87,1.8,8.8,2.7,1.02.31,2.03.63,3.04.97.15.05.26.22.38.33Z"/>
      <path class="cls-5" d="m243.14,29.56c.53,0,.72,0,.91,0,.26,0,.54.08.56.37.02.26-.18.44-.48.45-2.01.09-3.96.56-5.93.94-1.35.26-2.69.58-4.04.85-.67.13-1.35.27-2.04.07-.08-.03-.17-.18-.18-.28,0-.1.06-.22.12-.32.03-.04.1-.07.16-.07,3.11-.41,6.12-1.29,9.2-1.82.68-.12,1.37-.15,1.71-.19Z"/>
      <path class="cls-5" d="m244.88,14.58c0,.23-.01.47-.02.7-2.6,1.06-5.2,2.11-7.79,3.2-1.09.46-2.15,1-3.22,1.51-.28.13-.54.33-.87.28-.11-.02-.27-.07-.32-.16-.04-.08-.01-.26.05-.34.11-.14.26-.27.42-.35,3.7-1.82,7.45-3.52,11.37-4.82.11-.04.25-.01.37-.02Z"/>
      <path class="cls-5" d="m217.28,9.88c.3-.19.61-.38.91-.57,1.91,2.73,3.62,5.57,4.7,8.74.22.66.47,1.29.86,1.87.14.21.23.48-.07.62-.28.14-.47-.1-.62-.29-.44-.55-.68-1.19-.89-1.85-.96-2.96-2.66-5.52-4.27-8.14-.14-.22-.33-.37-.6-.38Z"/>
      <path class="cls-5" d="m234.22,28.29c-.45-.16-.98-.33-1.49-.55-.38-.16-.4-.7-.02-.89,1.52-.77,3.14-1.15,4.85-1.05.25.02.47.15.57.41.12.32.07.61-.16.86-.12.13-.27.27-.43.34-1.02.48-2.14.62-3.32.87Z"/>
      <path class="cls-5" d="m227.37,34.68c-.24-.02-.46.02-.61-.06-.95-.52-1.86-.37-2.82,0-.4.15-.87.12-1.21-.26-.25-.28-.54-.27-.81-.03-.45.4-.79.18-1.11-.16-.47-.5-.65-1.08-.4-1.73.17-.46.43-.9.68-1.33.12-.21.33-.36.62-.3.24.05.32.38.14.77-.11.23-.26.43-.35.66-.29.74-.06,1.52.61,1.95.13.08.39.09.51,0,.78-.51,1.86-.34,2.53-1.13.08-.09.41-.09.51,0,.63.58,1.4.77,2.21.89.07.01.17.19.17.29,0,.1-.08.25-.16.3-.16.09-.35.11-.48.15Z"/>
      <path class="cls-5" d="m252.36,43.12c-.03.64-.14,1.18-.68,1.67-.32.29-.29.93-.49,1.38-.09.2-.34.41-.61.23-.14-.09-.28-.28-.29-.43-.03-.45.06-.95.42-1.19.52-.36.51-.78.46-1.31-.11-1.06-.19-2.12-.26-3.18-.03-.37-.01-.74.02-1.11,0-.09.14-.21.25-.25.18-.06.37-.05.48.15.09.16.18.34.21.52.18,1.18.34,2.36.5,3.53Z"/>
      <path class="cls-5" d="m213.5,53.58c.03-.64.05-1.14.09-1.64.01-.23.2-.31.38-.32.22,0,.28.2.36.36.23.51-.06.98-.11,1.47-.07.65-.02,1.25.4,1.78.11.14.16.33.4.24.64-.25.8.23,1.14.62.63.71,1.14,1.45,1.4,2.36.08.27.02.49-.24.62-.28.14-.52-.03-.65-.22-.56-.82-1.13-1.63-1.59-2.5-.21-.39-.36-.57-.81-.54-.44.03-.68-.25-.7-.69-.03-.56-.05-1.13-.07-1.54Z"/>
      <path class="cls-5" d="m217.95,27.76c-.64-.04-1.28-.02-1.85-.32-.14-.08-.27-.25-.33-.41-.1-.26.03-.51.23-.66,1.06-.74,2.73-.66,3.66.16.3.27.24.75-.1.94-.52.29-1.08.26-1.62.28Z"/>
      <path class="cls-5" d="m226.18,29.93c.62.09,1.27-.04,1.83.3.13.08.25.3.26.46,0,.16-.1.45-.21.47-1.34.27-2.68.73-4.01-.01-.14-.08-.26-.28-.29-.44-.05-.28.14-.47.38-.57.17-.07.36-.11.55-.12.5-.04,1-.06,1.49-.09Z"/>
      <path class="cls-5" d="m248.65,13.79c0-.25-.01-.5-.02-.76,1.15-.94,2.3-1.89,3.47-2.8.38-.3.78-.65,1.33-.55.1.02.19.12.27.2.03.03,0,.12-.02.18-.02.06-.05.13-.09.16-1.53.86-2.74,2.13-4.14,3.14-.25.18-.53.3-.8.44Z"/>
      <path class="cls-5" d="m212.36,12.74c-1.18-1.21-2.07-2.62-2.96-4.04-.19-.31-.31-.68-.39-1.03-.03-.13.1-.41.21-.43.14-.03.4.08.46.2.83,1.76,2.17,3.17,3.14,4.83l-.45.47Z"/>
      <path class="cls-5" d="m216.59,16.71c1.18,1.14,2.13,2.45,2.81,3.95.03.07-.06.24-.14.3-.08.05-.24.06-.34.02-.11-.04-.19-.15-.27-.25-.83-1.17-1.66-2.35-2.48-3.53.14-.16.28-.32.42-.48Z"/>
      <path class="cls-5" d="m213.78,14.64c.26.19.43.44.51.75-.08.09-.14.24-.24.26-.58.16-.85.43-.53,1.06.12.22.04.51-.23.6-.15.05-.35-.04-.52-.08-.06-.01-.11-.06-.15-.1-1.01-.88-.98-1.46.13-2.11.31-.18.69-.26,1.04-.38Z"/>
      <path class="cls-5" d="m225.23,13.2l-.04-.08c.48.04.8-.32,1.21-.48.47-.19.92-.4,1.43-.44.52-.04.87.14.86.47-.02.43-.36.46-.64.57-.58.22-1.17.44-1.75.68-.7.29-.76.26-1.06-.71Z"/>
      <path class="cls-5" d="m244.01,69.38c.8.19,1.65.39,2.49.6.24.06.46.17.48.47.01.25-.32.47-.71.39-.91-.19-1.81-.4-2.71-.64-.13-.03-.28-.27-.28-.41,0-.28.24-.4.51-.41.06,0,.12,0,.23,0Z"/>
      <path class="cls-5" d="m283.36,77.67c-.24,0-.48-.03-.72-.03-.41,0-.68-.19-.76-.6.43.25.97.14,1.21-.09.48-.45.84-.35,1.32-.11.44.23.79.78,1.45.28.19-.15.71.1.94.43.06.09.09.26.04.34-.04.08-.25.17-.3.13-.88-.58-1.86-.37-2.8-.39l.05.03c-.06-.16-.09-.38-.31-.11l-.13.11Z"/>
      <path class="cls-5" d="m231.31,32.75c0,.51-.09,1.01-.54,1.33-.13.09-.35.11-.51.08-.2-.03-.35-.26-.24-.41.58-.85.29-1.66-.07-2.47-.09-.2,0-.38.16-.47.25-.15.48-.03.63.19.35.53.6,1.09.57,1.75Z"/>
      <path class="cls-5" d="m298.81,39.01c-1.15-.43-1.47-1.37-1.74-2.33-.06-.21.15-.32.35-.31.25.01.52.06.64.31.36.71.66,1.45.74,2.33Z"/>
      <path class="cls-5" d="m229.57,57.82c.16.01.31-.02.4.04.52.36.95.81,1.18,1.41.04.12-.1.33-.21.46-.06.07-.25.11-.33.07-.63-.33-1.11-.8-1.25-1.52-.03-.14.14-.31.22-.45Z"/>
      <path class="cls-5" d="m280.7,60.29c.02-.36.58-.35.55-.64-.07-.56.22-.67.63-.59.54.11,1.07.28,1.6.46.17.06.31.27.19.44-.08.12-.31.21-.45.19-.49-.07-.96-.21-1.45-.27-.2-.03-.28.17-.27.37l-.8.03Z"/>
      <path class="cls-5" d="m239.41,59.68c.04-.18.09-.41.15-.64.01-.04.09-.1.14-.1.11,0,.25.01.31.08.41.46.38,1,.21,1.54-.03.09-.18.17-.29.18-.1.01-.28-.05-.3-.12-.09-.28-.14-.58-.22-.95Z"/>
      <path class="cls-5" d="m211.86,20.73c.42.03.85.52.71.86-.06.13-.27.29-.41.28-.39-.02-.7-.25-.75-.66-.03-.25.2-.41.44-.48Z"/>
      <path class="cls-5" d="m215.07,46.23c.4.46.8.92,1.19,1.4.2.25.15.56-.06.62-.22.06-.37-.04-.4-.23-.11-.66-.93-1.04-.7-1.82l-.03.03Z"/>
      <path class="cls-5" d="m236.97,20.83c.17.03.3.02.41.07.1.05.22.15.24.24.01.08-.08.23-.17.28-.35.2-.71.23-1.06.02-.09-.05-.18-.2-.16-.29.02-.09.14-.21.24-.24.17-.06.37-.06.51-.08Z"/>
      <path class="cls-5" d="m244.99,56.54c-.05.12-.11.37-.26.55-.11.13-.36.13-.48-.02-.27-.34-.1-.92.29-1.08.2-.08.46.17.44.55Z"/>
      <path class="cls-5" d="m216.59,16.71c-.14.16-.28.32-.42.48-.47-.52-.93-1.05-1.4-1.57.15-.17.31-.33.46-.5.52.47,1.02.96,1.35,1.59Z"/>
      <path class="cls-5" d="m249.82,51.52c-.05.24-.45.49-.68.36-.18-.09-.21-.28-.16-.46.08-.28.31-.37.56-.33.2.03.29.18.28.43Z"/>
      <path class="cls-5" d="m283.02,78.36c.11-.23.22-.46.34-.7l.13-.11c.12-.02.22.02.31.11l-.05-.03c.21.13.43.24.62.4.2.17.08.35-.09.44-.43.23-.83-.05-1.25-.11Z"/>
      <path class="cls-5" d="m242.62,58.57c-.03.09-.07.27-.16.41-.05.08-.2.14-.3.14-.2,0-.33-.13-.31-.33.02-.17.07-.35.15-.49.05-.08.19-.15.3-.15.21,0,.28.16.32.42Z"/>
      <path class="cls-5" d="m247.34,54.01c.05.11.19.26.17.4-.03.28-.23.4-.5.29-.2-.08-.24-.26-.15-.44.08-.17.22-.28.48-.25Z"/>
      <path class="cls-5" d="m278.88,59.32c.26.06.46.19.46.49,0,.04-.08.09-.13.12-.27.17-.47-.01-.66-.15-.05-.04-.02-.23.02-.34.05-.15.17-.18.3-.12Z"/>
      <path class="cls-5" d="m280.7,60.29l.8-.03c.2.05.34.22.23.36-.28.35-.74.19-1.02-.33Z"/>
      <path class="cls-5" d="m231.92,71.74s.02.08.03.09c.05,0,.1,0,.14,0,0-.03-.02-.09-.03-.09-.05,0-.1,0-.14,0Z"/>
      <path class="cls-5" d="m279.78,59.71c.15.06.32.1.46.18.07.04.16.19.14.25-.06.16-.18.31-.39.19-.15-.08-.3-.19-.42-.31-.02-.02.12-.19.21-.31Z"/>
      <path class="cls-5" d="m212.36,12.74l.45-.47c.11.02.17.09.18.2-.13.18-.27.37-.4.55-.14-.04-.22-.13-.22-.27Z"/>
      <path class="cls-5" d="m212.99,12.47c.13.18.4.33.19.59-.2.25-.41.13-.59-.05.13-.18.27-.36.4-.55Z"/>
      <path class="cls-5" d="m281.01,77.26c.1.05.19.11.29.16-.08.06-.17.13-.25.19.05-.12.03-.24-.04-.35Z"/>
      <path class="cls-5" d="m280.62,76.56c.05.05.09.09.13.13-.08.04-.16.1-.25.12-.03,0-.08-.08-.12-.12.08-.05.16-.09.24-.13Z"/>
      <path class="cls-5" d="m279.68,76.37c.04-.08.09-.16.13-.24.04.04.13.09.12.12-.02.09-.08.17-.12.25-.04-.04-.08-.08-.13-.13Z"/>
      <path class="cls-5" d="m278.87,76.13c.16-.14.33-.28.49-.42.08.48-.02.57-.49.42Z"/>
      <path class="cls-5" d="m231.02,72.07s.09-.01.12,0c.1.07.08.15-.07.2-.02,0-.08-.06-.11-.11,0-.02.04-.07.06-.1Z"/>
    </g>
  </g>
  <path class="cls-1" d="m3.12,49.27c.81-.84,20.2-26.93,33.09-9.54,12.89,17.39,10.43,14.9,29.82,16.45,19.39,1.55,24.44-5.94,42.55,5.44,18.11,11.38,17.63,11.15,36.46-2.28,18.83-13.43,35.27.79,43.09,6.21"/>
</svg>