<svg width="52" height="52" viewBox="0 0 52 52" fill="none" xmlns="http://www.w3.org/2000/svg">
<rect x="1" y="1" width="50" height="50" fill="#F7853A"/>
<path d="M16 18.5C16 17.6703 16.6703 17 17.5 17H35.5C36.3297 17 37 17.6703 37 18.5C37 19.3297 36.3297 20 35.5 20H17.5C16.6703 20 16 19.3297 16 18.5ZM16 26C16 25.1703 16.6703 24.5 17.5 24.5H35.5C36.3297 24.5 37 25.1703 37 26C37 26.8297 36.3297 27.5 35.5 27.5H17.5C16.6703 27.5 16 26.8297 16 26ZM37 33.5C37 34.3297 36.3297 35 35.5 35H17.5C16.6703 35 16 34.3297 16 33.5C16 32.6703 16.6703 32 17.5 32H35.5C36.3297 32 37 32.6703 37 33.5Z" fill="white"/>
<rect x="1" y="1" width="50" height="50" stroke="#402716" stroke-width="2"/>
</svg>
