<svg width="32" height="32" viewBox="0 0 32 32" fill="none" xmlns="http://www.w3.org/2000/svg">
<circle cx="16" cy="16" r="16" fill="#F7853A"/>
<path d="M14.9608 10.1394C15.4635 11.6476 14.9503 13.1699 13.8147 13.5425C12.6792 13.9152 11.3503 12.9941 10.8475 11.4859C10.3448 9.97767 10.8581 8.45541 11.9936 8.08275C13.1292 7.7101 14.4581 8.63119 14.9608 10.1394ZM10.5276 13.8554C11.1921 14.9945 11.0303 16.3199 10.169 16.812C9.30769 17.3042 8.07019 16.7804 7.40925 15.6413C6.74831 14.5023 6.903 13.1769 7.76433 12.6847C8.62566 12.1925 9.86316 12.7163 10.5241 13.8554H10.5276ZM9.43074 20.9781C11.2729 16.0105 14.546 14.7484 15.9979 14.7484C17.4499 14.7484 20.7229 16.0105 22.5651 20.9781C22.6917 21.3191 22.7479 21.6847 22.7479 22.0503V22.1066C22.7479 23.0136 22.0132 23.7484 21.1061 23.7484C20.7018 23.7484 20.301 23.6992 19.9108 23.6007L16.8171 22.8273C16.2792 22.6937 15.7167 22.6937 15.1788 22.8273L12.085 23.6007C11.6948 23.6992 11.294 23.7484 10.8897 23.7484C9.98269 23.7484 9.24792 23.0136 9.24792 22.1066V22.0503C9.24792 21.6847 9.30417 21.3191 9.43074 20.9781ZM21.8268 16.812C20.9655 16.3199 20.8038 14.9945 21.4682 13.8554C22.1327 12.7163 23.3667 12.1925 24.228 12.6847C25.0893 13.1769 25.251 14.5023 24.5866 15.6413C23.9221 16.7804 22.6882 17.3042 21.8268 16.812ZM17.8999 13.5425C16.7643 13.1699 16.251 11.6476 16.7538 10.1394C17.2565 8.63119 18.5854 7.7101 19.721 8.08275C20.8565 8.45541 21.3698 9.97767 20.8671 11.4859C20.3643 12.9941 19.0354 13.9152 17.8999 13.5425Z" fill="white"/>
</svg>
