<svg width="48" height="48" viewBox="0 0 48 48" fill="none" xmlns="http://www.w3.org/2000/svg">
<path d="M6.772 26.4613L6.77304 26.4623L22.3018 40.9599C22.7607 41.3882 23.3675 41.6277 24 41.6277C24.6325 41.6277 25.2393 41.3882 25.6982 40.9599L41.227 26.4623L41.228 26.4613C43.6364 24.2193 45 21.0731 45 17.7831V17.2847C45 11.7665 41.0136 7.06181 35.5747 6.1539L6.772 26.4613ZM6.772 26.4613C4.3636 24.2193 3 21.0731 3 17.7831V17.2847C3 11.7665 6.98641 7.06181 12.4253 6.1539L6.772 26.4613ZM24 11.0419L23.2929 10.3348L22.2616 9.30351C19.6885 6.73037 16.0257 5.55391 12.4256 6.15386L24 11.0419ZM24 11.0419L24.7071 10.3348M24 11.0419L24.7071 10.3348M24.7071 10.3348L25.7384 9.30351C28.3115 6.73037 31.9743 5.55391 35.5744 6.15386L24.7071 10.3348Z" stroke="#402716" stroke-width="2"/>
</svg>
