<svg width="32" height="32" viewBox="0 0 32 32" fill="none" xmlns="http://www.w3.org/2000/svg">
<circle cx="16" cy="16" r="16" fill="#F7853A"/>
<path d="M17.0004 14H17.5348C18.2254 15.1969 19.5192 16 21.0004 16C21.3442 16 21.6817 15.9562 22.0004 15.875V16V17V23C22.0004 23.5531 21.5536 24 21.0004 24C20.4473 24 20.0004 23.5531 20.0004 23V18.6L15.7504 22H17.5004C18.0536 22 18.5004 22.4469 18.5004 23C18.5004 23.5531 18.0536 24 17.5004 24H13.0004C11.3442 24 10.0004 22.6562 10.0004 21V14.0156C10.0004 13.5125 9.62543 13.0844 9.12543 13.0219L8.87855 12.9906C8.33168 12.9219 7.94105 12.4219 8.0098 11.875C8.07855 11.3281 8.57855 10.9375 9.12543 11.0062L9.3723 11.0375C10.8723 11.225 12.0004 12.5 12.0004 14.0156V16.6812C13.0754 15.0656 14.9129 14 17.0004 14ZM22.0004 14.8281C21.6879 14.9375 21.3504 15 21.0004 15C20.1129 15 19.3129 14.6125 18.7629 14C18.6473 13.8719 18.5442 13.7344 18.4536 13.5875C18.1661 13.125 18.0004 12.5813 18.0004 12V9V8.375V8.33437C18.0004 8.15 18.1473 8.00313 18.3317 8H18.3379C18.4411 8 18.5379 8.05 18.6004 8.13125V8.13438L19.0004 8.66562L19.8504 9.8L20.0004 10H22.0004L22.1504 9.8L23.0004 8.66562L23.4004 8.13438V8.13125C23.4629 8.05 23.5598 8 23.6629 8H23.6692C23.8536 8.00313 24.0004 8.15 24.0004 8.33437V8.375V9V12C24.0004 12.5406 23.8567 13.05 23.6067 13.4875C23.2536 14.1063 22.6817 14.5875 22.0004 14.8281ZM20.5004 12C20.5004 11.8674 20.4477 11.7402 20.354 11.6464C20.2602 11.5527 20.133 11.5 20.0004 11.5C19.8678 11.5 19.7406 11.5527 19.6469 11.6464C19.5531 11.7402 19.5004 11.8674 19.5004 12C19.5004 12.1326 19.5531 12.2598 19.6469 12.3536C19.7406 12.4473 19.8678 12.5 20.0004 12.5C20.133 12.5 20.2602 12.4473 20.354 12.3536C20.4477 12.2598 20.5004 12.1326 20.5004 12ZM22.0004 12.5C22.133 12.5 22.2602 12.4473 22.354 12.3536C22.4477 12.2598 22.5004 12.1326 22.5004 12C22.5004 11.8674 22.4477 11.7402 22.354 11.6464C22.2602 11.5527 22.133 11.5 22.0004 11.5C21.8678 11.5 21.7406 11.5527 21.6469 11.6464C21.5531 11.7402 21.5004 11.8674 21.5004 12C21.5004 12.1326 21.5531 12.2598 21.6469 12.3536C21.7406 12.4473 21.8678 12.5 22.0004 12.5Z" fill="white"/>
</svg>
