<svg width="24" height="24" viewBox="0 0 24 24" fill="none" xmlns="http://www.w3.org/2000/svg">
<g clip-path="url(#clip0_278_3912)">
<path d="M13.4258 21.5C15.4297 18.9922 20 12.9141 20 9.5C20 5.35938 16.6406 2 12.5 2C8.35938 2 5 5.35938 5 9.5C5 12.9141 9.57031 18.9922 11.5742 21.5C12.0547 22.0977 12.9453 22.0977 13.4258 21.5ZM12.5 7C13.163 7 13.7989 7.26339 14.2678 7.73223C14.7366 8.20107 15 8.83696 15 9.5C15 10.163 14.7366 10.7989 14.2678 11.2678C13.7989 11.7366 13.163 12 12.5 12C11.837 12 11.2011 11.7366 10.7322 11.2678C10.2634 10.7989 10 10.163 10 9.5C10 8.83696 10.2634 8.20107 10.7322 7.73223C11.2011 7.26339 11.837 7 12.5 7Z" fill="#F7853A"/>
</g>
<defs>
<clipPath id="clip0_278_3912">
<rect width="15" height="20" fill="white" transform="translate(5 2)"/>
</clipPath>
</defs>
</svg>
