<svg width="48" height="48" viewBox="0 0 48 48" fill="none" xmlns="http://www.w3.org/2000/svg">
<path d="M7.45337 25.7294L7.45546 25.7314L22.9842 40.2288C23.2574 40.4838 23.6201 40.6277 24 40.6277C24.3799 40.6277 24.7426 40.4838 25.0158 40.2288L40.5445 25.7314L40.5466 25.7294C42.7509 23.6774 44 20.7967 44 17.7831V17.2847C44 12.2554 40.367 7.96785 35.4103 7.14029L7.45337 25.7294ZM7.45337 25.7294C5.24908 23.6774 4 20.7967 4 17.7831V17.2847C4 12.2554 7.63297 7.96784 12.5897 7.14029L7.45337 25.7294ZM24 12.4561L22.5858 11.0419L21.5545 10.0106C19.2098 7.66589 15.8717 6.59345 12.5902 7.14021L24 12.4561ZM24 12.4561L25.4142 11.0419M24 12.4561L25.4142 11.0419M25.4142 11.0419L26.4455 10.0106C28.7902 7.66589 32.1283 6.59345 35.4098 7.14021L25.4142 11.0419Z" stroke="white" stroke-width="4"/>
</svg>
