<svg width="44" height="44" viewBox="0 0 44 44" fill="none" xmlns="http://www.w3.org/2000/svg">
<g clip-path="url(#clip0_278_1044)">
<path d="M21.7584 13.914C17.2865 13.914 13.6795 17.5211 13.6795 21.9929C13.6795 26.4648 17.2865 30.0718 21.7584 30.0718C26.2303 30.0718 29.8373 26.4648 29.8373 21.9929C29.8373 17.5211 26.2303 13.914 21.7584 13.914ZM21.7584 27.2453C18.8686 27.2453 16.5061 24.8898 16.5061 21.9929C16.5061 19.0961 18.8615 16.7406 21.7584 16.7406C24.6553 16.7406 27.0107 19.0961 27.0107 21.9929C27.0107 24.8898 24.6482 27.2453 21.7584 27.2453ZM32.0521 13.5836C32.0521 14.6312 31.2084 15.4679 30.1678 15.4679C29.1201 15.4679 28.2834 14.6242 28.2834 13.5836C28.2834 12.5429 29.1272 11.6992 30.1678 11.6992C31.2084 11.6992 32.0521 12.5429 32.0521 13.5836ZM37.4029 15.4961C37.2834 12.9719 36.7068 10.7359 34.8576 8.89373C33.0154 7.05154 30.7795 6.47498 28.2553 6.34841C25.6537 6.20076 17.8561 6.20076 15.2545 6.34841C12.7373 6.46794 10.5014 7.04451 8.65215 8.88669C6.80293 10.7289 6.2334 12.9648 6.10684 15.489C5.95918 18.0906 5.95918 25.8883 6.10684 28.4898C6.22637 31.014 6.80293 33.25 8.65215 35.0922C10.5014 36.9344 12.7303 37.5109 15.2545 37.6375C17.8561 37.7851 25.6537 37.7851 28.2553 37.6375C30.7795 37.5179 33.0154 36.9414 34.8576 35.0922C36.6998 33.25 37.2764 31.014 37.4029 28.4898C37.5506 25.8883 37.5506 18.0976 37.4029 15.4961ZM34.042 31.2812C33.4936 32.6593 32.4318 33.7211 31.0467 34.2765C28.9725 35.0992 24.0506 34.9094 21.7584 34.9094C19.4662 34.9094 14.5373 35.0922 12.4701 34.2765C11.092 33.7281 10.0303 32.6664 9.4748 31.2812C8.65215 29.207 8.84199 24.2851 8.84199 21.9929C8.84199 19.7008 8.65918 14.7719 9.4748 12.7047C10.0232 11.3265 11.085 10.2648 12.4701 9.70935C14.5443 8.88669 19.4662 9.07654 21.7584 9.07654C24.0506 9.07654 28.9795 8.89373 31.0467 9.70935C32.4248 10.2578 33.4865 11.3195 34.042 12.7047C34.8646 14.7789 34.6748 19.7008 34.6748 21.9929C34.6748 24.2851 34.8646 29.214 34.042 31.2812Z" fill="#402716"/>
</g>
<defs>
<clipPath id="clip0_278_1044">
<rect width="31.5" height="36" fill="white" transform="translate(6 4)"/>
</clipPath>
</defs>
</svg>
