<svg width="24" height="24" viewBox="0 0 24 24" fill="none" xmlns="http://www.w3.org/2000/svg">
<g clip-path="url(#clip0_278_1041)">
<path d="M23.4922 11.9805C23.4922 12.6836 22.9063 13.2344 22.2422 13.2344H20.9922L21.0195 19.4922C21.0195 19.5977 21.0117 19.7031 21 19.8086V20.4375C21 21.3008 20.3008 22 19.4375 22H18.8125C18.7695 22 18.7266 22 18.6836 21.9961C18.6289 22 18.5742 22 18.5195 22H17.25H16.3125C15.4492 22 14.75 21.3008 14.75 20.4375V19.5V17C14.75 16.3086 14.1914 15.75 13.5 15.75H11C10.3086 15.75 9.75 16.3086 9.75 17V19.5V20.4375C9.75 21.3008 9.05078 22 8.1875 22H7.25H6.00391C5.94531 22 5.88672 21.9961 5.82813 21.9922C5.78125 21.9961 5.73438 22 5.6875 22H5.0625C4.19922 22 3.5 21.3008 3.5 20.4375V16.0625C3.5 16.0273 3.5 15.9883 3.50391 15.9531V13.2344H2.25C1.54688 13.2344 1 12.6875 1 11.9805C1 11.6289 1.11719 11.3164 1.39063 11.043L11.4063 2.3125C11.6797 2.03906 11.9922 2 12.2656 2C12.5391 2 12.8516 2.07812 13.0859 2.27344L23.0625 11.043C23.375 11.3164 23.5313 11.6289 23.4922 11.9805Z" fill="#F7853A"/>
</g>
<defs>
<clipPath id="clip0_278_1041">
<rect width="22.5" height="20" fill="white" transform="translate(1 2)"/>
</clipPath>
</defs>
</svg>
