<svg width="80" height="80" viewBox="0 0 80 80" fill="none" xmlns="http://www.w3.org/2000/svg">
<path d="M64.0132 30.8732C63.4971 31.7978 63.4 32.7586 63.3847 33.833C63.3643 35.4757 63.9059 36.7515 64.9534 37.9086C65.1629 38.1411 65.3469 38.4045 65.4951 38.6834C65.6892 39.0553 65.3724 39.6235 64.8717 39.8095C64.5446 39.9283 64.1767 39.856 64.095 39.5047C63.7526 38.0326 62.3883 37.2061 61.8824 35.8476C61.6831 35.0934 60.748 35.0779 60.4618 34.4167C60.8604 33.6987 60.3903 32.6243 61.4327 32.1284C61.5809 32.0561 61.5298 31.3743 61.4481 31.0024C60.7736 28.0425 59.9253 25.1344 58.7041 22.345C57.3857 19.3387 55.6177 16.6061 53.9928 13.8839C53.3336 13.8529 53.2161 14.2765 53.0525 14.6174C52.2452 16.3479 51.4276 18.0835 50.656 19.8346C49.7107 21.9782 49.3479 24.2666 49.0617 26.5704C49.0055 27.0301 49.0362 27.557 48.4077 27.6758H48.4332C47.7894 27.5776 47.7638 27.0611 47.7894 26.5962C47.8762 24.8399 48.1164 23.0992 48.6121 21.4049C49.4961 18.4037 50.8757 15.6195 52.332 12.8818C52.9044 11.8074 53.7373 11.7299 54.6468 12.5667C54.8206 12.7269 54.979 12.9077 55.1016 13.1091C57.4317 16.9057 59.8998 20.6352 61.259 24.9432C61.7598 26.5394 62.1941 28.1562 62.6744 29.7626C62.8328 30.2998 63.2059 30.2275 63.5891 30.0157C63.7322 30.2998 63.8701 30.5839 64.0132 30.8732Z" fill="#F7853A" stroke="#F7853A"/>
<path d="M36.9159 55.1509C36.7882 54.9908 36.5429 54.8358 36.3487 54.8307C36.0421 54.8255 35.7253 54.9288 35.4238 55.0218C30.9425 56.4785 26.3129 57.057 21.6476 57.4341C19.8847 57.5736 19.8898 57.6149 19.7161 55.8328C19.6956 55.5952 19.7365 55.3214 19.6343 55.1303C19.5423 54.9547 19.2869 54.7584 19.108 54.7635C18.9189 54.7687 18.6686 54.9598 18.5664 55.1354C18.2802 55.6417 18.316 56.215 18.3824 56.7729C18.735 59.7534 19.8438 62.3258 22.2863 64.1854C22.644 64.4591 23.1499 64.6606 23.247 65.1307C23.3901 65.234 23.5178 65.3579 23.6251 65.4922C23.758 65.4819 23.9113 65.5232 24.0748 65.6265C25.0355 66.2257 25.6844 67.1555 26.5071 67.8994C26.64 68.0182 26.9925 68.0337 27.1458 67.9355C27.3093 67.8374 27.4371 67.5429 27.4371 67.3363C27.432 66.732 27.059 66.2774 26.64 65.9106C25.5056 64.9137 24.3661 63.9168 23.1704 62.9973C22.0002 62.0985 21.1366 60.9879 20.549 59.6449C20.3037 59.087 20.4979 58.6635 21.06 58.5912C22.3937 58.4207 23.7324 58.2141 25.0712 58.1469C29.0671 57.9455 32.8587 56.7832 36.6553 55.6572C36.875 55.6003 37.1305 55.4247 36.9159 55.1509Z" fill="#F7853A" stroke="#F7853A"/>
<path d="M29.6746 30.0622C29.6388 30.1759 29.6235 30.3463 29.5417 30.4703C29.4651 30.5891 29.3271 30.6976 29.1943 30.7493C28.949 30.8474 28.719 30.7389 28.5913 30.5323C28.4687 30.336 28.3614 30.0984 28.3511 29.8763C28.254 28.2647 27.7226 26.7408 27.3598 25.1912C26.8028 22.8151 25.459 20.8109 24.1202 18.8273C23.6501 18.13 23.088 18.2126 22.6332 18.9306C21.6879 20.4286 21.1156 22.0919 20.4871 23.7345C20.0629 24.8554 19.6644 25.9867 19.1994 27.0869C19.0869 27.3555 18.7701 27.5621 18.4073 27.3865C18.0701 27.2212 17.9679 26.8855 18.0701 26.5859C19.0154 23.8688 19.787 21.0846 21.1769 18.5484C22.577 15.9915 23.9618 16.1464 25.4845 18.2178C27.9372 21.565 29.276 25.3875 29.6848 29.5405C29.7104 29.7007 29.6848 29.866 29.6746 30.0622Z" fill="#F7853A" stroke="#F7853A"/>
<path d="M68.9997 48.8645C68.9026 50.1662 68.6216 51.4163 68.2434 52.6405C68.131 53.0021 67.8551 53.3224 67.6098 53.6271C67.5434 53.7149 67.3083 53.7201 67.1755 53.6839C67.0426 53.6426 66.9047 53.5135 66.8382 53.3895C66.7718 53.2604 66.7463 53.0796 66.7769 52.9349C66.8484 52.5424 66.966 52.1601 67.058 51.7727C67.8755 48.2602 67.6405 48.4461 64.6257 48.8645C60.3947 49.4534 56.1688 50.0991 52.0809 51.4215C51.7794 51.5196 51.4524 51.5971 51.1765 51.3853C51.0947 51.3233 51.0436 51.1012 51.0896 51.0082C51.2787 50.6156 51.6824 50.533 52.0554 50.4039C54.084 49.7117 56.1586 49.2003 58.2639 48.8336C60.9108 48.3738 63.5781 48.0174 66.2353 47.6197C67.2368 47.4699 67.3543 47.2374 67.2879 46.1785C67.2112 45.0111 66.5878 44.0761 66.1484 43.0585C66.0002 42.7125 66.1944 42.4077 66.5061 42.2889C66.69 42.2166 67.0069 42.2527 67.155 42.3715C68.0135 43.0482 68.3865 44.0503 68.5756 45.0627C68.8106 46.3076 68.8668 47.5938 68.9997 48.8645Z" fill="#F7853A" stroke="#F7853A"/>
<path d="M18.5766 40.9149C18.4693 40.6308 18.27 40.3518 18.2649 40.0677C18.2496 39.1069 17.7539 38.4716 17.0283 37.955C17.0436 37.6451 17.0641 37.3352 17.0794 37.0201C17.6671 37.0356 17.9634 36.7825 17.8663 36.1575C17.6211 34.5665 17.6313 32.9652 17.713 31.3639C17.7488 30.7234 17.7641 30.0777 18.1065 29.5043C18.27 29.2305 18.4744 28.9774 18.8372 29.0136C19.246 29.0549 19.3175 29.3648 19.3124 29.6954C19.3073 30.0157 19.2613 30.3308 19.2256 30.651C18.9956 32.8929 19.0876 35.1244 19.3278 37.3662C19.4146 38.172 19.7314 38.6834 20.3702 39.1069C20.8301 39.4117 21.2337 39.7991 21.663 40.1504C21.4381 40.3157 21.2184 40.4758 20.9936 40.6411C20.922 40.6153 20.8454 40.5946 20.779 40.5636C19.8796 40.1555 19.8796 40.1555 19.1489 40.9407C18.9598 40.9407 18.7657 40.9304 18.5766 40.9149Z" fill="#F7853A" stroke="#F7853A"/>
<path d="M48.4294 27.6758H48.4039C48.2557 28.0012 48.2761 28.3215 48.598 28.4868C49.0119 28.6985 49.482 28.7915 49.8959 29.0085C50.1923 29.1634 50.2996 29.525 50.1872 29.835C50.1208 30.0106 49.8704 30.1604 49.6711 30.2379C49.4565 30.3153 49.2061 30.2895 48.971 30.3102C48.8433 30.8371 49.2163 31.2038 49.3645 31.6377C49.5791 32.2679 49.5434 32.8774 49.2572 32.8516C48.7615 32.8051 48.6798 32.3764 48.5009 32.0406C48.3885 31.8288 48.2761 31.6222 48.179 31.4053C47.6783 30.2895 46.8709 29.7368 45.6241 29.6387C44.2955 29.5354 42.9823 29.2203 41.669 28.9826C41.4391 28.9413 41.2654 28.776 41.2449 28.4971C41.2194 28.0994 41.4749 27.8669 41.7917 27.8721C42.5735 27.8772 43.3553 27.9444 44.1371 28.0219C45.3124 28.1355 46.4825 28.2956 47.6578 28.3938C48.0922 28.4144 48.3579 28.1252 48.4294 27.6758Z" fill="#F7853A" stroke="#F7853A"/>
<path d="M43.2674 52.6664C42.5214 52.5373 41.4585 52.7026 41.4483 51.6023C41.4381 50.6467 42.4396 50.4401 43.1755 50.2231C43.9266 50.001 44.7289 49.908 45.5107 49.8306C46.0932 49.7737 46.6297 49.9855 46.8852 50.5692C47.0896 51.0444 46.9619 51.5093 46.6604 51.9226C46.4202 52.2532 46.1238 52.5063 45.7253 52.6199C45.2756 52.6096 44.8157 52.5683 44.5245 53.0332C44.3609 53.028 44.1974 53.0228 44.0288 53.0228C43.8397 52.7594 43.5842 52.6406 43.2674 52.6664Z" fill="#F7853A" stroke="#F7853A"/>
<path d="M44.5187 53.0331C44.81 52.5734 45.2699 52.6095 45.7196 52.6199C45.9137 53.3017 46.1028 53.9784 46.297 54.6602C46.3889 54.9753 46.5422 55.2388 46.854 55.3834C47.2168 55.5539 47.6358 55.7657 47.4518 56.2357C47.2474 56.7523 46.6649 56.9021 46.2561 56.6748C45.3874 56.1892 44.8407 56.4992 44.3041 57.181C44.1764 57.3463 43.9056 57.4444 43.6858 57.4806C43.3741 57.5322 43.0215 57.4599 42.8989 57.1293C42.8274 56.9434 42.8529 56.5766 42.9756 56.4837C43.9209 55.7656 44.207 54.6706 44.6363 53.6581C44.7487 53.3999 44.6669 53.2191 44.5187 53.0331Z" fill="#F7853A" stroke="#F7853A"/>
<path d="M38.0457 58.9115C37.9691 59.0406 37.918 59.2317 37.8056 59.2886C35.1842 60.5644 32.5628 61.8351 29.9261 63.08C29.778 63.1523 29.5122 62.9767 29.3027 62.9147C29.3743 62.6978 29.3896 62.4085 29.5378 62.2845C29.8342 62.0314 30.1867 61.8351 30.5393 61.6698C32.6088 60.6936 34.6783 59.7328 36.7529 58.7668C37.1055 58.6015 37.453 58.4104 37.8669 58.5396C38.0662 58.6067 38.1275 58.7255 38.0457 58.9115Z" fill="#F7853A" stroke="#F7853A"/>
<path d="M56.3533 29.0085C56.2766 29.1996 56.2 29.4269 56.0978 29.6387C55.0911 31.7049 54.018 33.7401 53.2567 35.9251C53.1596 36.204 52.899 36.4364 52.6741 36.6431C52.6077 36.7051 52.3471 36.6741 52.2705 36.5914C52.0559 36.359 52.0814 36.736 52.1121 36.4158C52.1172 36.3383 52.107 36.2505 52.1274 36.1782C53.0165 33.6264 54.11 31.1677 55.4079 28.7967C55.4437 28.7295 55.4846 28.6469 55.5408 28.6004C55.7401 28.4454 55.9751 28.4041 56.1693 28.5643C56.2715 28.6521 56.2868 28.838 56.3533 29.0085Z" fill="#F7853A" stroke="#F7853A"/>
<path d="M20.9971 40.6462C21.2219 40.4809 21.4416 40.3208 21.6665 40.1555C22.295 40.6256 22.9388 41.0801 23.552 41.5709C24.7324 42.511 25.9025 43.4511 27.226 44.1846C27.7114 44.4532 28.1918 44.7528 28.4064 45.3107C28.4421 45.4037 28.3195 45.5793 28.2378 45.6981C28.202 45.7497 28.1049 45.7704 28.0282 45.7807C27.9567 45.7911 27.8596 45.8014 27.8034 45.7652C25.412 44.2208 22.9848 42.7383 20.9971 40.6462Z" fill="#F7853A" stroke="#F7853A"/>
<path d="M56.5018 53.9009C55.2499 53.9578 53.998 54.0249 52.7409 54.0611C52.6439 54.0662 52.4906 53.8648 52.4599 53.7356C52.4343 53.6323 52.5417 53.3999 52.6234 53.3844C55.163 52.8317 57.7282 52.6096 60.324 52.8833C60.5182 52.904 60.5744 53.0228 60.605 53.2088C60.651 53.5084 60.4671 53.6943 60.2627 53.7098C59.0107 53.7821 57.7537 53.8131 56.5018 53.8544C56.5018 53.8648 56.5018 53.8854 56.5018 53.9009Z" fill="#F7853A" stroke="#F7853A"/>
<path d="M35.7763 29.0395C35.7099 29.1789 35.6844 29.3855 35.577 29.4527C34.1003 30.3773 33.0119 31.7513 31.7089 32.8722C31.4789 33.0685 31.1877 33.239 30.9015 33.3113C30.7176 33.3578 30.4519 33.2597 30.2781 33.1357C30.0584 32.9859 30.0686 32.6708 30.227 32.5158C31.5249 31.271 32.5929 29.7781 34.1361 28.807C34.4529 28.6056 34.8463 28.5126 35.2142 28.4093C35.434 28.3421 35.8428 28.8225 35.7763 29.0395Z" fill="#F7853A" stroke="#F7853A"/>
<path d="M23.5996 37.1648C23.712 37.0098 23.7785 36.8342 23.8858 36.8032C24.0186 36.7619 24.2179 36.798 24.3252 36.8807C26.2465 38.3993 28.0401 40.0574 29.7774 41.7879C29.8336 41.8447 29.9001 41.917 29.9001 41.9842C29.9052 42.1236 29.9154 42.3096 29.8388 42.4026C29.7519 42.5059 29.5526 42.5937 29.4351 42.5627C29.2205 42.5007 29.0007 42.3767 28.8321 42.2218C27.197 40.7341 25.5669 39.2361 23.9471 37.7278C23.7887 37.5832 23.712 37.3456 23.5996 37.1648Z" fill="#F7853A" stroke="#F7853A"/>
<path d="M17.0739 37.0253C17.0585 37.3352 17.0381 37.6451 17.0228 37.9602C15.1117 37.0356 13.3794 35.8321 11.6727 34.582C11.4275 34.4012 11.2231 34.1481 11.0493 33.895C10.9778 33.7969 10.988 33.5747 11.0545 33.4611C11.1158 33.3578 11.2946 33.2751 11.4224 33.27C11.5654 33.2648 11.7341 33.3371 11.8567 33.4198C13.6043 34.6182 15.3365 35.8217 17.0739 37.0253Z" fill="#F7853A" stroke="#F7853A"/>
<path d="M60.4612 34.4167C60.7525 35.0831 61.6825 35.0934 61.8818 35.8476C61.4321 35.4653 61.008 35.2329 60.4663 35.7598C59.3319 36.86 58.1618 37.9241 56.9916 38.9882C56.8332 39.1328 56.5879 39.2103 56.3682 39.2465C56.2916 39.2568 56.1127 39.0657 56.0974 38.9469C56.0258 38.4923 56.3733 38.2082 56.6441 37.9551C57.8961 36.7567 59.1837 35.5945 60.4612 34.4167Z" fill="#F7853A" stroke="#F7853A"/>
<path d="M64.013 30.8732C63.8699 30.5891 63.7268 30.2999 63.5889 30.0158C64.4218 28.4816 65.2496 26.9423 66.0876 25.4081C66.1591 25.2738 66.2664 25.1344 66.3891 25.0569C66.5117 24.9794 66.7008 24.9123 66.8234 24.9484C66.9307 24.9846 67.0431 25.1757 67.0482 25.2997C67.0585 25.5321 67.0482 25.7956 66.946 25.9918C66.0569 27.6706 65.2496 29.4062 64.013 30.8732Z" fill="#F7853A" stroke="#F7853A"/>
<path d="M18.5761 40.9149C18.7703 40.9252 18.9593 40.9356 19.1535 40.9459C19.2966 41.7362 19.3477 42.4801 18.9031 43.2446C18.4688 43.9935 18.1469 44.8149 18.1366 45.724C18.1315 46.1166 17.7943 46.2457 17.4723 46.2302C17.0278 46.2095 16.7212 45.9151 16.711 45.4812C16.7008 45.099 16.7672 44.6754 16.9256 44.3293C17.4417 43.1826 18.0191 42.0565 18.5761 40.9149Z" fill="#F7853A" stroke="#F7853A"/>
<path d="M30.8924 53.2966C31.4085 53.3844 32.267 53.5187 33.1152 53.6944C33.2225 53.715 33.3554 53.9165 33.3758 54.0456C33.4116 54.2987 33.2583 54.5208 32.9977 54.5002C31.5874 54.3814 30.1566 54.4072 28.7872 53.963C28.6492 53.9165 28.5521 53.7667 28.4346 53.6634C28.5879 53.5136 28.7412 53.245 28.9047 53.2346C29.4463 53.2036 29.9982 53.2605 30.8924 53.2966Z" fill="#F7853A" stroke="#F7853A"/>
<path d="M64.3496 62.0728C64.3291 61.236 64.278 60.425 63.3992 59.9549C63.2101 59.8516 63.1999 59.5055 63.3736 59.3248C63.5167 59.1801 63.7722 59.0303 63.951 59.0561C64.4824 59.1388 64.9985 59.3093 65.5198 59.4487C66.3884 59.6863 66.5775 60.0996 65.8825 60.6729C65.2694 61.1792 65.6117 61.6286 65.6117 62.1193C65.1927 62.1038 64.7737 62.0883 64.3496 62.0728Z" fill="#F7853A" stroke="#F7853A"/>
<path d="M53.7689 45.6413C53.2528 45.5948 52.6805 45.0059 52.7111 44.5462C52.7622 43.7301 53.5645 43.0431 54.3105 43.1825C54.842 43.2807 55.2814 43.8592 55.2252 44.3861C55.1485 45.0886 54.4383 45.7033 53.7689 45.6413Z" fill="#F7853A" stroke="#F7853A"/>
<path d="M62.056 44.3913C62.01 44.5359 62.0049 44.7374 61.9078 44.8201C60.7734 45.7963 59.4653 46.4575 58.0703 46.9482C57.9681 46.9844 57.7331 46.8811 57.6871 46.7829C57.5951 46.566 57.6462 46.3129 57.8659 46.1889C59.0821 45.4967 60.3033 44.8149 61.5246 44.1382C61.591 44.102 61.6983 44.0762 61.7494 44.1072C61.867 44.1795 61.9589 44.2932 62.056 44.3913Z" fill="#F7853A" stroke="#F7853A"/>
<path d="M32.2498 49.5568C32.1732 50.1043 31.5958 50.5744 31.1052 50.4917C30.492 50.3833 30.0475 49.6962 30.1957 49.0867C30.303 48.627 30.7833 48.2344 31.1921 48.2602C31.8002 48.2912 32.3316 48.9524 32.2498 49.5568Z" fill="#F7853A" stroke="#F7853A"/>
<path d="M65.4848 62.6152C65.6177 62.8993 65.771 63.1782 65.8783 63.4727C66.0009 63.8136 65.8732 64.077 65.5563 64.2526C65.1884 64.4541 64.795 64.4748 64.4168 64.3611C64.0438 64.2526 63.6555 64.0873 63.5993 63.6225C63.5328 63.1059 63.9212 62.9768 64.3095 62.8528C64.4475 62.8063 64.565 62.6772 64.6877 62.5894C64.9483 62.5945 65.2191 62.6049 65.4848 62.6152Z" fill="#F7853A" stroke="#F7853A"/>
<path d="M32.538 40.9511C32.4715 41.2145 32.4204 41.447 32.3489 41.6639C32.3336 41.7156 32.2416 41.7517 32.1803 41.7879C32.0116 41.8861 31.843 41.8602 31.7715 41.6846C31.4444 40.8736 31.332 40.0316 31.516 39.169C31.5415 39.0554 31.7357 38.9211 31.8635 38.9004C31.9657 38.8849 32.17 39.0192 32.1905 39.1174C32.3336 39.732 32.4307 40.3571 32.538 40.9511Z" fill="#F7853A" stroke="#F7853A"/>
<path d="M66.1791 56.5611C66.1945 56.401 66.1689 56.2253 66.2354 56.1014C66.3529 55.8844 66.5624 55.7811 66.8128 55.8689C67.0427 55.9464 67.2676 56.1117 67.2062 56.3648C67.0478 56.9898 66.4295 57.4547 66.6697 58.2502C66.7617 58.5498 66.3222 58.7409 66.0003 58.7461C65.6784 58.7564 65.4024 58.617 65.2798 58.276C65.1418 57.8886 65.3871 57.6562 65.6682 57.5322C66.1127 57.3256 66.5522 57.1758 66.1791 56.5611Z" fill="#F7853A" stroke="#F7853A"/>
<path d="M18.9547 50.6519C18.9036 50.8895 18.8525 51.3699 18.689 51.7986C18.5868 52.0672 18.3211 52.3048 17.9634 52.248C17.5955 52.1912 17.4371 51.8916 17.4626 51.5713C17.4984 51.1064 17.6006 50.6467 17.7232 50.1973C17.8459 49.7479 18.3057 49.4793 18.5817 49.6446C18.8627 49.8099 18.97 50.0372 18.9547 50.6519Z" fill="#F7853A" stroke="#F7853A"/>
<path d="M38.8063 28.5023C38.5866 29.2151 37.5544 29.4889 37.0792 28.9981C36.9923 28.9052 36.9361 28.6985 36.9719 28.5797C37.1609 28.0064 37.9325 27.6861 38.4793 27.9857C38.6428 28.0735 38.7143 28.3473 38.8063 28.5023Z" fill="#F7853A" stroke="#F7853A"/>
<path d="M53.8145 29.6231C53.651 29.9692 53.4875 30.3153 53.0225 30.2998C52.6648 30.2895 52.4348 29.8969 52.5421 29.4527C52.6443 29.0188 52.9049 28.807 53.3597 28.931C53.7021 29.0239 53.789 29.3132 53.8145 29.6231Z" fill="#F7853A" stroke="#F7853A"/>
<path d="M65.485 62.6152C65.2193 62.6048 64.9536 62.5945 64.6827 62.5842C64.5703 62.4137 64.463 62.2381 64.3506 62.0676C64.7747 62.0831 65.1937 62.0986 65.6178 62.1141C65.5719 62.2846 65.531 62.4499 65.485 62.6152Z" fill="#F7853A" stroke="#F7853A"/>
<path d="M43.2676 52.6664C43.5844 52.6406 43.8399 52.7594 44.0289 53.0228C43.6917 53.0848 43.4464 52.9454 43.2676 52.6664Z" fill="#F7853A" stroke="#F7853A"/>
</svg>
