<svg width="137" height="51" viewBox="0 0 137 51" fill="none" xmlns="http://www.w3.org/2000/svg">
<path d="M1.23264 19.5343C1.05087 19.338 0.975131 19.1909 1.013 19.1091C0.975131 19.0028 1.02057 18.9128 1.14175 18.8229C1.27051 18.7411 1.41441 18.6593 1.58103 18.5857C1.74765 18.5121 1.83854 18.4549 1.86126 18.414C1.89913 18.3731 2.24752 18.2341 2.89886 17.9888C3.5502 17.7517 3.89859 17.5963 3.93646 17.5309C3.99705 17.4082 4.05007 17.073 4.11066 16.5414C4.17125 16.0017 4.23184 15.5029 4.3 15.0287C4.36816 14.5544 4.45148 14.3091 4.54994 14.2845C4.62567 14.1373 4.78472 14.0637 5.01951 14.0637C5.25429 14.0637 5.45878 14.1046 5.63298 14.1864C5.70871 14.2518 5.74658 14.3418 5.74658 14.4726C5.74658 14.6034 5.70114 14.7016 5.60268 14.7833C5.56482 14.7588 5.50423 14.9142 5.41334 15.2413C5.32246 15.5684 5.25429 15.8709 5.20885 16.1571C5.16341 16.4433 5.17855 16.615 5.25429 16.6805C5.33003 16.7622 5.48908 16.7459 5.72386 16.615C6.07226 16.4433 6.41307 16.2307 6.74632 15.9527C7.07956 15.6828 7.24618 15.4784 7.24618 15.3557C7.24618 15.1431 7.35979 15.0123 7.57943 14.9632C7.80664 14.9142 7.96569 14.9714 8.06415 15.135C8.26107 15.4539 8.07172 15.9036 7.51127 16.4924C7.17802 16.8685 6.76904 17.2283 6.26917 17.5636C5.7693 17.8989 5.45878 18.1278 5.32245 18.2587C5.28459 18.1769 5.26187 18.3731 5.26187 18.8556C5.26187 20.6219 5.30731 21.8812 5.40577 22.6335C5.44363 22.6743 5.5118 22.7316 5.61026 22.7888C5.70872 22.8542 5.77688 22.9033 5.8299 22.9442C5.87534 22.9851 5.89806 23.0505 5.89048 23.1323C5.88291 23.214 5.81475 23.3122 5.70114 23.4185C5.56481 23.5902 5.46636 23.7456 5.40577 23.9091C5.34518 24.0645 5.31488 24.2444 5.31488 24.4488C5.31488 24.6532 5.31488 24.8985 5.31488 25.1929C5.31488 25.4873 5.30731 25.8471 5.28459 26.2641C5.30731 26.9183 5.29973 27.4744 5.26944 27.9323C5.23914 28.3984 5.1937 28.889 5.14069 29.4124C5.0801 29.9357 5.04223 30.3773 5.02708 30.7371C4.96649 31.5548 4.79987 32.0536 4.53479 32.2171C4.36059 32.3234 4.18639 32.2989 4.02735 32.1517C3.86072 32.0045 3.6941 31.8001 3.51991 31.5384C3.34571 31.2768 3.20938 31.1132 3.11092 31.0478C2.50503 30.3364 2.14149 29.396 2.00516 28.243C1.96729 27.9895 1.9067 27.7279 1.81582 27.458C1.72493 27.1882 1.67191 27.0164 1.64162 26.9347C1.61133 26.8611 1.62647 26.7384 1.68706 26.5749C1.74765 26.4032 1.85369 26.2396 2.02031 26.0679C2.18693 25.8962 2.45201 25.659 2.82312 25.3401C3.60322 24.645 4.05007 24.1871 4.16367 23.9663C4.27728 23.7456 4.30757 23.2549 4.25456 22.5026C4.25456 22.3554 4.24699 21.7748 4.22427 20.7527C4.20154 19.7305 4.16367 19.1254 4.11066 18.9374C4.05007 18.8965 3.94404 18.9046 3.79256 18.9537C3.63351 19.0028 3.14122 19.2236 2.30054 19.5997C1.91428 19.7878 1.69464 19.8859 1.65677 19.8859C1.55074 19.8532 1.41441 19.7387 1.23264 19.5343ZM4.17882 25.7081C4.17125 25.5691 4.1258 25.5036 4.05007 25.5036C3.97433 25.5036 3.88345 25.5445 3.78499 25.6263C3.68653 25.7081 3.64109 25.798 3.64109 25.8798C3.64109 25.9452 3.47447 26.1415 3.14122 26.4767C2.80798 26.812 2.61106 27.0737 2.54289 27.2618C2.47473 27.4498 2.48231 27.7115 2.55804 28.0468C2.85342 29.1997 3.20181 29.9521 3.61079 30.2873C3.76984 30.41 3.87587 30.3527 3.92889 30.0992C4.1258 28.9217 4.20912 27.8505 4.19397 26.8856C4.19397 26.2396 4.1864 25.8471 4.17882 25.7081ZM13.343 12.0358C13.4112 12.1094 13.4339 12.1993 13.4188 12.3056C13.3809 12.4119 13.1991 12.6409 12.881 13.0007C12.5629 13.3605 12.2751 13.6549 12.0176 13.8838C11.8586 14.0065 11.7601 14.1292 11.7147 14.2273C11.6692 14.3336 11.6162 14.5544 11.5556 14.8896C11.4572 15.3557 11.4193 15.6338 11.442 15.7401C11.5026 15.8873 11.7223 15.9118 12.1009 15.8055C12.4796 15.6992 12.8432 15.5111 13.1916 15.2413C13.7142 14.8242 14.0853 14.7016 14.2973 14.8978C14.4564 15.0205 14.3655 15.2413 14.0322 15.5602C13.7975 15.8137 13.6005 16.0181 13.4339 16.1735C13.2673 16.3288 13.1007 16.476 12.9265 16.5987C12.7523 16.7213 12.6235 16.8113 12.5478 16.8685C12.4721 16.9176 12.313 16.9994 12.0782 17.1057C11.8434 17.212 11.6692 17.2937 11.5556 17.3592C11.5178 17.4246 11.4648 17.6862 11.4117 18.1442C11.3739 18.6103 11.4042 18.8883 11.5026 18.9946C11.7147 19.2236 12.0858 19.0845 12.6084 18.5694C13.131 18.0542 13.3658 17.7026 13.3052 17.5145C13.3052 17.3265 13.3658 17.1956 13.4945 17.122C13.6233 17.0484 13.7596 17.0566 13.9186 17.1384C14.0171 17.1629 14.0625 17.2365 14.0625 17.3592C14.0625 17.4818 14.0322 17.6372 13.9641 17.8171C13.8959 17.997 13.8202 18.1605 13.7444 18.3241C13.6687 18.4794 13.593 18.6348 13.5248 18.782C13.4566 18.9292 13.4264 19.0191 13.4264 19.0682C13.3127 19.338 13.0174 19.6488 12.5478 20.0004C12.0782 20.352 11.7298 20.4992 11.495 20.4583C11.3209 20.4992 11.1997 20.5074 11.1315 20.4747C11.0633 20.442 10.9422 20.3357 10.768 20.1476L10.4196 19.7714V17.4409C10.4347 15.9036 10.4196 15.1268 10.359 15.1104C10.2833 15.135 10.0788 15.2576 9.74552 15.4866C9.49558 15.6992 9.27594 15.7973 9.10175 15.7891C8.92755 15.781 8.80637 15.7074 8.73821 15.5847C8.67005 15.4621 8.60946 15.2821 8.54887 15.0532C8.54887 14.906 8.67762 14.7425 8.9427 14.5626C9.20778 14.3827 9.84398 14.0147 10.8513 13.4423C11.0103 13.3769 11.3587 13.1234 11.9192 12.6736C12.4721 12.2239 12.8356 11.9867 13.0174 11.9622C13.1613 11.9213 13.2749 11.9622 13.343 12.0358ZM25.0066 32.8795C25.2414 33.0676 25.3171 33.2393 25.2414 33.3865C25.2414 33.7463 25.1581 34.008 24.9914 34.1878C24.8248 34.3677 24.6052 34.4168 24.3325 34.3269C24.1356 34.2614 24.0069 34.1878 23.9387 34.1061C23.8705 34.0243 23.8251 33.8771 23.8099 33.6645C23.7721 33.4519 23.7191 33.3129 23.666 33.2393C23.613 33.1657 23.4843 33.0676 23.2874 32.9367C22.9541 32.7487 22.6133 32.4461 22.2498 32.0209C21.8862 31.6038 21.553 31.2768 21.2424 31.0478C21.0077 30.8761 20.788 30.6798 20.5684 30.4509C20.3563 30.2219 20.114 29.9275 19.8413 29.5841C19.5687 29.2406 19.3566 28.9708 19.1975 28.7827C19.1748 28.7827 19.0309 28.6682 18.7583 28.4393C18.5235 28.2267 18.3417 28.1204 18.2205 28.1204C18.0918 28.1204 17.9706 28.2348 17.857 28.4638C17.0996 29.8539 16.3574 30.6716 15.6379 30.9251C15.1153 31.1786 14.7518 31.2604 14.5548 31.1623C14.3579 31.0642 14.2519 30.7861 14.2367 30.3282C14.2595 30.0747 14.3049 29.9275 14.3806 29.8866C14.4564 29.8457 14.5927 29.8948 14.7896 30.042L15.0244 30.2301L15.3728 30.0093C15.6682 29.8376 16.0469 29.4451 16.524 28.8154C17.0012 28.1858 17.2359 27.7524 17.2359 27.5234C17.2359 27.3762 17.039 27.09 16.6528 26.673C16.3195 26.2968 16.0696 26.0679 15.8954 25.9943C15.7212 25.9207 15.4637 25.937 15.138 26.0433C14.8275 26.1497 14.6079 26.1578 14.4791 26.0761C14.3503 25.9943 14.2595 25.7817 14.1989 25.4464C14.1231 25.0866 14.2973 24.8658 14.7215 24.7841C15.8499 24.596 17.1148 23.7619 18.5159 22.2982C18.9628 21.8403 19.2733 21.5541 19.4475 21.4478C19.6595 21.3251 19.9019 21.3496 20.1745 21.5459C20.4472 21.734 20.4245 22.3473 20.114 23.3776C19.917 24.0318 19.6065 24.7841 19.1824 25.6427C18.887 26.2069 18.7658 26.583 18.8188 26.7629C18.8643 26.9428 19.1445 27.2536 19.652 27.6951C19.9473 27.965 20.2579 28.3166 20.5987 28.75C20.9395 29.1834 21.2879 29.5514 21.6363 29.8703C21.9847 30.2056 22.4845 30.6553 23.1283 31.2277C23.7721 31.7919 24.2644 32.2498 24.6203 32.5851C24.6431 32.5851 24.7718 32.6914 25.0066 32.8795ZM17.2814 12.1748C17.3268 12.2811 17.3495 12.3874 17.342 12.4937C17.3344 12.6 17.3117 12.739 17.2814 12.9189C17.2511 13.0988 17.2359 13.2378 17.2359 13.3442C17.1981 13.8266 17.1223 14.5053 17.0012 15.3803C16.8875 16.2552 16.7967 17.0321 16.7361 17.7271C16.6982 17.9806 16.6755 18.2259 16.6603 18.4713C16.6528 18.7084 16.6452 18.8801 16.6452 18.9782C16.6452 19.0764 16.6225 19.1663 16.5846 19.2481C16.5467 19.3299 16.4937 19.3871 16.4255 19.4198C16.3574 19.4525 16.2438 19.4852 16.0923 19.5261C15.8954 19.5915 15.7591 19.5507 15.6682 19.4035C15.5773 19.2563 15.547 19.0764 15.5621 18.8638C15.6 18.4876 15.6909 17.6208 15.8424 16.2634C15.9863 14.906 16.0772 13.9084 16.1226 13.2542C16.1832 12.5183 16.2665 12.1012 16.3877 11.9949C16.4861 11.9131 16.5619 11.8641 16.6225 11.8559C16.6831 11.8477 16.8042 11.8804 17.0012 11.9622C17.1451 11.9949 17.2359 12.0685 17.2814 12.1748ZM18.993 23.2386C18.8794 23.2631 18.5235 23.5657 17.9403 24.1544C17.4556 24.6778 17.1829 25.0212 17.1375 25.1766C17.092 25.3319 17.1981 25.5282 17.4707 25.7572C17.6449 25.8798 17.7812 25.9452 17.8797 25.9452C17.9782 25.9452 18.0388 25.9125 18.0691 25.8389C18.0993 25.7653 18.1372 25.6508 18.1827 25.4955C18.2281 25.3401 18.2811 25.2175 18.3417 25.1357C18.4023 24.964 18.4705 24.7677 18.5613 24.5387C18.6522 24.3098 18.7431 24.0972 18.8416 23.9091C19.0385 23.4594 19.0915 23.2386 18.993 23.2386ZM18.4705 15.9609C18.3569 15.8954 18.2811 15.8464 18.2508 15.8055C18.2205 15.7646 18.1751 15.6665 18.1221 15.5193C18.1599 15.3721 18.4402 15.1922 18.9552 14.9796C19.4702 14.767 19.7883 14.5953 19.9019 14.4399C20.4093 14.0229 20.7502 13.7448 20.9244 13.6222C20.9849 13.6467 21.038 13.5241 21.0834 13.2624C21.1288 13.0007 21.1516 12.739 21.144 12.4774C21.1364 12.2157 21.091 12.0849 21.0152 12.0849C20.8562 11.8968 20.5835 11.8641 20.1973 11.9867C19.811 12.1094 19.4172 12.3629 19.0309 12.739C18.834 12.9271 18.6977 13.0416 18.6068 13.0743C18.5159 13.107 18.425 13.0579 18.3266 12.9353C18.213 12.7881 18.1599 12.6491 18.1827 12.5264C18.1978 12.4038 18.2963 12.2075 18.478 11.9622C18.728 11.6678 18.9249 11.4552 19.0612 11.3326C19.1975 11.2099 19.4096 11.0954 19.6898 10.9891C19.9701 10.8828 20.3109 10.8419 20.6971 10.8665C21.2046 10.891 21.5302 10.9809 21.6741 11.1527C21.818 11.3244 21.9695 11.7332 22.1286 12.3792C22.227 12.5019 22.2422 12.8126 22.174 13.2951C22.1059 13.7775 22.0831 14.0719 22.0983 14.1782C22.0983 14.8324 21.9317 15.6501 21.5984 16.6396L21.5302 16.7132C21.5075 16.8195 21.4848 16.9667 21.4545 17.1711C21.4242 17.3755 21.3939 17.5145 21.3636 17.6127C21.3333 17.7108 21.2803 17.8253 21.2046 17.9725C21.1288 18.1196 21.0304 18.2587 20.9092 18.3813C20.8107 18.4467 20.7123 18.553 20.6138 18.7084C20.5154 18.8638 20.4169 18.9782 20.3109 19.0437C20.2048 19.1091 20.0458 19.1254 19.8262 19.1091C19.6671 19.0845 19.4778 19.1091 19.243 19.1745C19.0082 19.2399 18.8264 19.2563 18.6901 19.2399C18.5538 19.2236 18.4477 19.1009 18.372 18.8965C18.2963 18.7248 18.2811 18.5857 18.3417 18.4713C18.4023 18.3568 18.5538 18.2259 18.8113 18.0788C18.8491 18.0624 18.9628 17.9806 19.1445 17.858C19.3263 17.7353 19.4626 17.6372 19.5535 17.5718C19.6444 17.5063 19.7656 17.4 19.9322 17.2529C20.0988 17.1057 20.22 16.9748 20.2957 16.8604C20.3715 16.7459 20.4548 16.5987 20.5457 16.4188C20.6365 16.2389 20.6971 16.059 20.735 15.8709C20.8713 15.3067 20.9092 14.9959 20.8486 14.9551C20.8107 14.9305 20.6668 15.0614 20.4093 15.3312C19.9398 15.7973 19.4247 16.0263 18.8643 16.0263C18.7204 16.0426 18.5841 16.0181 18.4705 15.9609Z" fill="#F7853A" stroke="#F7853A"/>
<path d="M35.883 13.8349C35.9577 13.9129 36.0489 13.9042 36.1567 13.8175C36.2645 13.7308 36.3392 13.6094 36.3806 13.4534C36.4221 13.2106 36.5796 13.0459 36.8616 12.9679C37.1436 12.8898 37.3592 12.9332 37.5333 13.0806C37.6577 13.2106 37.7158 13.384 37.7075 13.5834C37.6992 13.7828 37.6163 13.9736 37.467 14.1556C37.4006 14.2684 37.127 14.5024 36.6377 14.8579C36.1484 15.2134 35.8748 15.4388 35.8084 15.5255C35.8084 15.5688 35.7587 15.8463 35.6508 16.3578C35.543 16.8693 35.4269 17.2595 35.3025 17.5282C35.0703 18.1091 34.9957 18.3866 35.0786 18.3606C35.1201 18.3346 35.1782 18.2825 35.2362 18.1958C35.9991 17.5022 36.7289 16.9387 37.4089 16.4879C37.4919 16.4879 37.5831 16.5572 37.666 16.7046C37.7489 16.852 37.7821 16.9647 37.7655 17.0514C37.7407 17.1641 37.4421 17.5196 36.8699 18.1178C36.3972 18.612 36.107 18.9328 35.9909 19.0888C35.8748 19.2449 35.7918 19.4443 35.7504 19.6871C35.7255 19.8691 35.7338 20.4674 35.7669 21.4904C35.8001 22.5135 35.8333 23.0857 35.883 23.1897C35.966 23.4325 36.2811 23.2157 36.8119 22.5221C36.8533 22.4788 36.8865 22.4354 36.9114 22.3921C37.4007 21.7245 37.8485 21.1436 38.2548 20.6581C38.3626 20.528 38.4953 20.4587 38.6695 20.4587C38.8436 20.4587 38.9597 20.5367 39.0178 20.6928C39.1007 20.9355 39.0426 21.2303 38.8436 21.5771C38.6446 21.9239 38.3626 22.2967 37.9977 22.6955C37.6328 23.0943 37.4089 23.3631 37.326 23.4932C37.2431 23.6059 37.0772 23.8139 36.8284 24.1087C36.5796 24.4122 36.3889 24.6549 36.2562 24.8457C36.1153 25.0364 35.9826 25.2705 35.8416 25.5479C35.7006 25.8254 35.626 26.0768 35.6011 26.3022C35.6011 26.5016 35.6757 26.6143 35.825 26.6404C35.9079 26.6664 36.1567 26.7704 36.5631 26.9611C36.9694 27.1519 37.2431 27.2559 37.3924 27.2819C37.6246 27.3079 38.1719 27.4466 39.0261 27.7154C40.1788 28.0969 41.1656 28.3223 41.9949 28.4003C42.8242 28.4784 43.5042 28.5737 44.0433 28.6865C44.3169 28.7992 44.7399 28.8252 45.3038 28.7731C45.8677 28.7211 46.216 28.7038 46.3404 28.7211C46.8545 28.7645 48.2643 28.8252 50.5781 28.8859C52.8918 28.9552 54.3099 29.0159 54.8406 29.0853C55.4792 29.1113 55.8606 29.1546 55.9933 29.2153C56.126 29.276 56.1841 29.4494 56.1841 29.7182C56.1841 30.117 56.0099 30.3511 55.6699 30.4204C55.3299 30.4898 54.6167 30.4291 53.5303 30.2557C53.4889 30.2297 53.0991 30.2124 52.361 30.1863C51.623 30.1603 50.7605 30.143 49.7736 30.117C48.7868 30.091 47.7916 30.0736 46.8048 30.0476C45.8179 30.0216 44.9886 29.9956 44.3252 29.9609C43.6618 29.9262 43.3632 29.9002 43.4296 29.8742C43.2803 29.8482 42.9154 29.7962 42.3266 29.7095C41.7378 29.6228 41.2485 29.5448 40.8588 29.4754C40.4607 29.406 40.0544 29.3194 39.6314 29.2066C39.2085 29.0939 38.9265 28.9986 38.8021 28.9032C38.7358 28.8599 38.4953 28.7731 38.0641 28.6518C37.6411 28.5304 37.3924 28.435 37.326 28.3657C37.0689 28.253 36.5714 28.1402 35.825 28.0102C35.0786 27.8888 34.5645 27.7674 34.2908 27.6634C34.1167 27.5767 33.8928 27.5073 33.6191 27.464C33.3454 27.4206 33.0966 27.3513 32.881 27.2646C32.5161 27.1345 32.2922 27.0825 32.1927 27.1172C32.0932 27.1519 31.9854 27.2906 31.861 27.5334C31.7781 27.7328 31.4049 28.2876 30.7415 29.2066C29.8458 30.4551 29.2156 31.1487 28.859 31.2788C28.6433 31.3655 28.4858 31.3568 28.378 31.2441C28.2702 31.1314 28.2785 30.984 28.4112 30.8106C28.8341 30.3164 29.7878 28.9726 31.2556 26.7704C31.322 26.571 31.5044 26.0941 31.8112 25.3312C32.1181 24.5769 32.3171 24.0827 32.4 23.8573C32.5244 23.4151 32.7152 23.0683 32.9557 22.8256C33.1961 22.5828 33.4118 22.5395 33.5776 22.6955C33.7518 22.8256 33.7601 23.0943 33.6108 23.4932C33.503 23.7359 33.362 24.1434 33.1962 24.7156C33.022 25.2878 32.9391 25.6086 32.9391 25.704C32.9391 25.9294 33.2791 26.0508 33.9591 26.0681L34.4401 26.1028L34.6308 25.4352C34.7386 25.1665 34.7884 24.863 34.7884 24.5336C34.7884 24.1954 34.7635 23.8139 34.722 23.3805C34.6806 22.947 34.6723 22.5828 34.6889 22.2967C34.664 21.1783 34.5728 20.5887 34.3986 20.5281C34.3157 20.4847 33.9176 20.6754 33.2127 21.1003C32.7649 21.3864 32.4664 21.5338 32.3171 21.5338C32.1015 21.5338 31.9605 21.4384 31.8859 21.2477C31.8112 21.0569 31.8361 20.8662 31.9688 20.6668C32.0351 20.5541 32.2591 20.3633 32.6571 20.0859C33.0552 19.8084 33.2874 19.6697 33.3786 19.6697C33.4615 19.6697 33.5527 19.6004 33.6523 19.4703C33.7518 19.3403 33.7932 19.2015 33.7932 19.0715C33.7932 18.9154 33.9093 18.4906 34.1415 17.8057C34.3157 17.2508 34.4152 16.878 34.4484 16.6873C34.4816 16.4965 34.4401 16.3838 34.3323 16.3405C34.1167 16.3405 33.9259 16.3751 33.7601 16.4445C33.5859 16.5139 33.4035 16.6006 33.2044 16.7133C33.0054 16.826 32.8147 16.9127 32.6488 16.9821C32.2425 17.1381 32.0186 17.2335 31.9771 17.2855C31.8942 17.3722 31.7864 17.4069 31.6537 17.3895C31.5293 17.3635 31.4381 17.3028 31.3966 17.1901C31.3303 17.0341 31.3966 16.8086 31.5873 16.5225C31.7615 16.0544 32.4415 15.6555 33.6357 15.3174C33.9591 15.2741 34.1913 15.17 34.3406 15.014C34.4484 14.8839 34.5147 14.7365 34.5479 14.5805C34.5811 14.4244 34.6308 13.9649 34.6889 13.2106C34.7138 12.1616 35.0123 11.8928 35.5845 12.413C35.7587 12.6124 35.8416 12.9158 35.8416 13.3147C35.7918 13.5748 35.8084 13.7568 35.883 13.8349ZM45.6189 21.9066C45.594 21.9066 45.4033 22.0886 45.0467 22.4441C44.5574 22.999 43.8193 23.5452 42.8408 24.0827C42.2852 24.3948 41.8788 24.5249 41.6134 24.4642C41.3481 24.4122 41.2486 24.1694 41.3066 23.7446C41.3315 23.4758 41.431 23.2851 41.6134 23.1637C41.7959 23.0423 42.053 22.9383 42.3764 22.8603C42.7081 22.7822 42.9569 22.6955 43.131 22.6088C43.4545 22.4961 43.8193 22.21 44.234 21.7592C44.6486 21.3083 44.9389 21.0222 45.113 20.9095C45.4365 20.6841 45.6106 20.5454 45.6604 20.476C45.7433 20.346 45.8262 19.9818 45.9009 19.3923C45.9755 18.8027 45.9838 18.4733 45.9174 18.4039C45.7931 18.4039 45.5526 18.5166 45.196 18.7334C44.8477 18.9588 44.6486 19.0802 44.6072 19.0975C44.4579 19.1409 44.3667 19.2189 44.3335 19.3316C44.3003 19.4443 44.2672 19.7998 44.2257 20.398C44.2008 20.8662 44.1759 21.1696 44.1428 21.317C44.1096 21.4644 44.0433 21.5424 43.9354 21.5684C43.8111 21.6378 43.6867 21.6031 43.5871 21.4644C43.4793 21.3344 43.4047 21.1263 43.3632 20.8662C43.3218 20.1119 43.3384 19.0888 43.413 17.8057C43.4876 16.5225 43.612 15.6295 43.7779 15.118L43.2388 15.1874C42.9652 15.2134 42.7827 15.2134 42.7081 15.2047C42.6335 15.196 42.5422 15.1354 42.4344 15.0226C42.2188 14.7972 42.1608 14.5891 42.2603 14.3897C42.3598 14.1903 42.5837 14.0516 42.9486 13.9909C43.2223 13.9476 43.5291 13.8609 43.8608 13.7395C44.1925 13.6181 44.4496 13.5054 44.6403 13.41C44.8311 13.306 45.1047 13.1586 45.4696 12.9419C45.8345 12.7338 46.0418 12.6037 46.1082 12.5604C46.1911 12.5604 46.4067 12.4043 46.7467 12.0922C47.2111 11.6067 47.576 11.494 47.8331 11.7541C47.916 11.9101 47.9741 12.0402 47.9907 12.1529C48.0155 12.2656 47.9907 12.3696 47.9243 12.4737C47.858 12.5777 47.7999 12.6558 47.7502 12.7078C47.7004 12.7598 47.6092 12.8465 47.4765 12.9592C47.3521 13.0719 47.2609 13.1499 47.2194 13.1933C46.838 13.5054 46.6223 13.8002 46.5809 14.0776C46.5394 14.3551 46.6638 14.5805 46.9624 14.7625C47.2194 14.8492 47.2858 15.144 47.1531 15.6295C47.1282 15.7422 47.0619 16.93 46.9458 19.2016C46.8297 21.4731 46.7136 23.2851 46.5975 24.6289C46.4814 25.9728 46.3404 26.8658 46.1662 27.2819C46.0999 27.412 45.9921 27.5073 45.8345 27.5507C45.677 27.594 45.5526 27.5854 45.4696 27.516C45.3618 27.4467 45.2955 27.0738 45.2789 26.3803C45.2126 25.756 45.254 25.2878 45.3867 24.9584C45.5277 24.6376 45.6023 24.1954 45.6272 23.6406C45.677 22.4875 45.677 21.9066 45.6189 21.9066ZM45.4365 17.2248C45.7433 16.956 45.8179 16.748 45.6438 16.5919C45.5609 16.5659 45.4033 16.6353 45.1794 16.7913C44.9555 16.9474 44.7896 17.1034 44.6818 17.2595C44.6155 17.3722 44.574 17.4502 44.5574 17.5109C44.5325 17.5629 44.5242 17.615 44.5242 17.641C44.5242 17.6756 44.5325 17.693 44.5574 17.7103C44.5823 17.719 44.6238 17.7277 44.6818 17.7277C44.8808 17.6583 45.1296 17.4936 45.4365 17.2248ZM44.914 15.5082C44.9555 15.5428 45.055 15.5255 45.2043 15.4561C45.4613 15.3001 45.5277 15.1007 45.395 14.8579C45.2706 14.5891 45.1296 14.5458 44.9804 14.7279C44.8974 14.8406 44.856 15.0053 44.856 15.2307C44.8477 15.3781 44.8725 15.4735 44.914 15.5082ZM55.8109 22.106C53.9367 21.1956 52.6015 20.6061 51.8137 20.3373C51.7308 20.3807 51.54 20.6408 51.2415 21.1089C50.2795 22.6002 49.5166 23.3458 48.9444 23.3458C48.6458 23.3458 48.4965 23.155 48.4965 22.7736C48.5214 22.5915 48.6873 22.3921 49.0107 22.158C49.3341 21.9239 49.5249 21.7505 49.5829 21.6378C49.7736 21.4124 50.0224 21.0743 50.3376 20.6061C50.6444 20.1379 50.802 19.8865 50.802 19.8345C50.802 19.7911 50.7024 19.6697 50.5117 19.4703C50.2132 19.2449 50.1385 19.0108 50.2878 18.7507C50.4371 18.4993 50.6859 18.3866 51.0259 18.4299C51.283 18.4559 51.4488 18.4559 51.54 18.4299C51.623 18.4299 51.8386 18.0485 52.1786 17.2942C52.5186 16.5399 52.6927 16.0717 52.6927 15.8896C52.6927 15.6209 52.3527 15.7336 51.6727 16.2191C51.2 16.5312 50.8766 16.6699 50.6859 16.6352C50.4951 16.6006 50.3956 16.3925 50.3956 16.0197C50.3707 15.8203 50.4454 15.6295 50.6029 15.4475C50.7605 15.2654 50.9015 15.1527 51.0176 15.092C51.1337 15.04 51.3244 14.9533 51.5732 14.8406C51.6561 14.8232 51.8303 14.7539 52.0957 14.6412C52.361 14.5285 52.6098 14.4331 52.8337 14.3551C53.0576 14.277 53.2898 14.225 53.5386 14.1903C53.7791 14.1557 53.945 14.2077 54.0362 14.3377C54.1025 14.3811 54.144 14.4504 54.1772 14.5371C54.2103 14.6238 54.2269 14.7192 54.2269 14.8059C54.2269 14.8926 54.2186 15.0053 54.1938 15.144C54.1689 15.2741 54.144 15.3955 54.1108 15.4908C54.0777 15.5949 54.0445 15.7076 54.003 15.8376C53.9616 15.9677 53.9201 16.0804 53.8952 16.1584C53.862 16.2364 53.8289 16.3318 53.7874 16.4445C53.7459 16.5572 53.7128 16.6266 53.6879 16.6439C53.663 16.7306 53.5469 16.93 53.3396 17.2421C53.124 17.5543 53.0079 17.7884 52.9913 17.9444C52.9664 17.9878 52.9415 18.0745 52.9084 18.1958C52.8752 18.3172 52.8586 18.4126 52.842 18.4819C52.8254 18.5513 52.8171 18.638 52.7923 18.7507C52.7674 18.8634 52.7674 18.9414 52.7757 19.0021C52.784 19.0542 52.8088 19.1235 52.842 19.2016C52.8752 19.2796 52.9249 19.3316 52.9996 19.3489C53.0742 19.3663 53.1654 19.3836 53.2732 19.3836C53.7874 19.5137 54.426 19.7911 55.1889 20.1986C55.9601 20.6147 56.466 20.8748 56.7231 20.9876C56.8475 21.0569 57.0963 21.187 57.4612 21.3864C57.826 21.5858 58.1495 21.7505 58.4397 21.8719C58.73 21.9933 58.9456 22.054 59.0949 22.054C59.6256 22.054 59.9573 22.236 60.0817 22.5915C60.1895 22.8603 60.1812 23.1204 60.0651 23.3805C59.949 23.6405 59.7749 23.7619 59.5427 23.7619C58.9207 23.5799 57.6851 23.0163 55.8109 22.106Z" fill="#F7853A" stroke="#F7853A"/>
<path d="M71.4943 32.6015C71.3418 32.4233 71.1589 32.1089 70.9456 31.6478C70.8643 31.4591 70.5798 30.9561 70.0819 30.1281C69.5839 29.3106 69.3096 28.8075 69.2588 28.6084C69.2588 28.5036 69.3807 28.3359 69.6144 28.1263C69.8481 27.9376 70.346 27.4031 71.098 26.5123L72.236 25.2232L72.3885 24.2589C72.4698 23.7978 72.5206 22.9803 72.5612 21.796C72.6019 20.6117 72.6323 19.8885 72.6628 19.616C72.6323 19.2911 72.6425 19.0396 72.6831 18.8719C72.7238 18.6937 72.6933 18.5994 72.6019 18.5889C72.5104 18.5784 72.4393 18.5784 72.3885 18.6099C72.3377 18.6413 72.2157 18.7042 72.0125 18.809C71.8194 18.9138 71.6264 18.9977 71.4435 19.0501C70.7423 19.4274 70.2546 19.6055 69.9904 19.5741C69.7567 19.5217 69.5941 19.4483 69.5027 19.354C69.4112 19.2597 69.3706 19.1025 69.3706 18.8929C69.3706 18.6518 69.4823 18.4107 69.7059 18.1697C69.9294 17.9286 70.1936 17.7714 70.5086 17.6876C70.8439 17.5828 71.3215 17.3627 71.9414 17.0168C72.551 16.6815 72.8965 16.4404 72.9778 16.3146C73.0794 16.1784 73.1302 15.9897 73.1302 15.7487C73.1607 15.6124 73.1912 15.4028 73.2318 15.0989C73.2725 14.8054 73.3131 14.5329 73.3538 14.2919C73.3944 14.0508 73.4452 13.7783 73.5062 13.4849C73.5672 13.1914 73.6586 12.9503 73.7602 12.7617C73.8619 12.573 73.9838 12.4158 74.1362 12.2796C74.2785 12.1433 74.4512 12.0909 74.6646 12.1224C74.878 12.1538 75.1218 12.2586 75.4064 12.4473C75.823 12.6883 76.453 12.7303 77.2862 12.573C77.4996 12.5206 77.6215 12.5102 77.6622 12.5311C77.7028 12.5626 77.7435 12.6359 77.7943 12.7722C77.7638 13.2543 77.4589 13.9355 76.8696 14.7949C76.2802 15.6543 75.7417 16.2622 75.2438 16.6081C74.9796 16.7653 74.7865 16.9435 74.6544 17.1112C74.5223 17.2788 74.4207 17.5199 74.3394 17.8134C74.2581 18.1068 74.2175 18.3584 74.2073 18.5575C74.1972 18.7566 74.1768 19.1339 74.1464 19.6894C74.1159 20.2449 74.0956 20.6955 74.0651 21.0414C74.0346 22.1733 74.0752 22.7812 74.187 22.8755C74.2886 22.9698 74.6443 22.7078 75.2438 22.0895C75.6909 21.6283 76.138 21.2405 76.5952 20.9156C77.0525 20.5907 77.3472 20.4545 77.4793 20.5069C77.7638 20.6117 77.5199 21.0414 76.7375 21.796C76.453 22.0685 76.0262 22.5506 75.4673 23.2528C74.9085 23.955 74.5427 24.3847 74.3902 24.5419C74.2073 24.6467 73.9939 25.1708 73.7399 26.114C73.4859 27.0573 73.3944 27.8538 73.4452 28.4931C73.4452 29.2477 73.3843 29.9709 73.2522 30.6731C73.0998 31.4591 72.927 32.0146 72.7441 32.35C72.5612 32.6854 72.3275 32.8531 72.043 32.8531C71.8398 32.8635 71.6568 32.7797 71.4943 32.6015ZM71.6873 28.0948C71.606 28.0948 71.5349 28.1892 71.4536 28.3778C71.3723 28.5979 71.3317 28.818 71.3317 29.0696C71.3317 29.3106 71.3622 29.5202 71.4333 29.6984C71.4943 29.8766 71.5857 29.9499 71.6873 29.9185C71.9007 29.8346 71.982 29.4259 71.9617 28.6713C71.9414 28.2835 71.8499 28.0948 71.6873 28.0948ZM75.9551 13.3172C75.6706 13.2648 75.4877 13.2543 75.4064 13.2962C75.3251 13.3381 75.2235 13.4953 75.0914 13.7574C74.8272 14.3757 74.8272 14.7216 75.0914 14.8054C75.1727 14.8578 75.3962 14.6901 75.7722 14.3023C76.1481 13.9146 76.3412 13.663 76.3412 13.5582C76.3412 13.4534 76.2193 13.3696 75.9551 13.3172ZM93.6154 13.8202C93.7983 13.9146 93.8897 14.0299 93.8897 14.1661C93.8897 14.2499 93.7068 14.5015 93.341 14.9312C92.9752 15.3609 92.7923 15.6019 92.7923 15.6543C92.4773 16.8072 92.1623 17.6981 91.8575 18.3164C91.6441 18.6413 91.5323 18.9662 91.5222 19.3016C91.512 19.637 91.5425 19.92 91.6238 20.1505C91.7051 20.3811 91.8168 20.6746 91.9794 21.0414C92.142 21.4082 92.2436 21.6493 92.2944 21.7855C92.5078 22.4039 92.711 22.7183 92.9244 22.7183C93.1378 22.7183 93.463 23.0851 93.8999 23.8083C94.4994 24.8878 94.8957 25.4118 95.0786 25.3804C95.231 25.3804 95.3022 24.9402 95.2717 24.0493C95.2412 23.0851 95.4241 22.7183 95.8204 22.9593C95.9017 22.9908 95.9728 23.0432 96.0541 23.1165C96.1049 23.2214 96.176 23.6406 96.2675 24.3742C96.3589 25.0974 96.4301 25.7472 96.4809 26.3131L96.5622 27.4451L96.1354 27.8852C95.8509 28.1787 95.5968 28.3254 95.3733 28.3254C95.1497 28.3254 94.8957 28.1682 94.6112 27.8433C94.1641 27.4136 93.7068 26.7743 93.2394 25.9254C92.772 25.0764 92.3859 24.479 92.1014 24.1332C91.8372 23.8921 91.5933 23.5672 91.3799 23.169C91.1564 22.7602 90.9328 22.4563 90.6991 22.2362C90.5975 22.1838 90.506 22.2047 90.4451 22.2991C90.3841 22.3934 90.2825 22.6449 90.1504 23.0432C90.0691 23.2842 89.9167 23.5987 89.683 23.976C89.4493 24.3533 89.1546 24.783 88.7989 25.2651C88.4433 25.7472 88.2096 26.0826 88.0775 26.2712C87.7625 26.8686 87.4272 27.3612 87.0817 27.749C86.726 28.1368 86.4517 28.3359 86.2383 28.3359C85.9741 28.3045 85.7912 28.2311 85.6693 28.0948C85.5473 27.9586 85.4965 27.77 85.4965 27.5289C85.4965 27.2878 85.5067 27.0678 85.5372 26.8581C85.5575 26.659 85.6185 26.397 85.6896 26.093C85.7709 25.7891 85.8217 25.5795 85.842 25.4642C85.9436 25.1708 86.1164 25.2127 86.3501 25.59C86.4517 25.7472 86.5431 25.8206 86.6244 25.8101C86.7057 25.7996 86.7972 25.6633 86.8988 25.4223C87.0817 25.0764 87.4373 24.479 87.9556 23.6406C88.4738 22.8021 88.8294 22.0685 89.0123 21.4187C89.0428 21.2615 89.1343 20.9995 89.2867 20.6536C89.4391 20.3078 89.5204 20.0352 89.5204 19.8466C89.4391 19.3121 89.1851 18.4212 88.7583 17.1845C88.3315 15.9478 87.9962 15.1093 87.7625 14.6796C87.7117 14.3862 87.6406 14.1661 87.5491 14.0298C87.4576 13.8936 87.3459 13.8307 87.2138 13.8307C87.0817 13.8307 86.9801 13.8517 86.8988 13.8936C86.8175 13.9355 86.6854 14.0194 86.5025 14.1347C86.3196 14.2604 86.1977 14.3338 86.1468 14.3547C85.6794 14.7635 85.1104 15.2037 84.4601 15.6858C83.8097 16.1679 83.3118 16.5557 82.9765 16.8596C82.7123 17.0797 82.3262 17.3208 81.8181 17.5828C81.3101 17.8448 80.9646 17.9915 80.7817 17.9915C80.4972 17.9077 80.2228 17.719 79.9789 17.4256C79.7249 17.1321 79.7351 16.8701 79.9993 16.6605C80.2127 16.4718 80.6394 16.2308 81.2897 15.9373C81.9401 15.6439 82.3872 15.3818 82.6209 15.1722C82.8038 15.036 83.261 14.7321 83.9927 14.2604C84.7243 13.7888 85.3543 13.3696 85.8928 12.9923C86.4314 12.615 86.6955 12.3634 86.6955 12.2272C86.6955 12.1224 86.6549 11.9547 86.5736 11.7241C86.4923 11.4935 86.4415 11.3154 86.4212 11.1791C86.3907 11.0429 86.4212 10.8333 86.5025 10.5293C86.5533 9.91097 86.7667 9.59654 87.1528 9.57558C87.5389 9.55462 87.9149 9.77472 88.3112 10.2044C88.4636 10.3616 88.5551 10.4769 88.5652 10.5293C88.5754 10.5817 88.5449 10.6761 88.4636 10.8123C88.3112 11.0534 88.2807 11.1896 88.3823 11.221C88.4839 11.2525 88.6262 11.1896 88.8091 11.0638C89.7744 10.414 90.3231 10.0053 90.4552 9.81663C90.5568 9.57558 90.7499 9.46029 91.0446 9.47077C91.3291 9.48125 91.4713 9.64895 91.4713 9.97385C91.5526 10.1625 91.3189 10.5084 90.7702 11.0009C90.2215 11.504 89.7744 11.8708 89.4391 12.1119L88.9717 12.3949L89.053 12.9608C89.1851 13.8517 89.6017 15.0989 90.3028 16.7129C90.4552 17.1111 90.5975 17.1321 90.7296 16.7548C90.7601 16.671 90.7804 16.5766 90.8109 16.4718C91.0954 15.56 91.512 14.7845 92.0607 14.1661C92.2741 13.946 92.4265 13.8202 92.5281 13.7574C92.6297 13.705 92.7923 13.6735 92.9955 13.6735C93.2292 13.6735 93.4325 13.7259 93.6154 13.8202ZM94.3064 5.32045C94.0015 4.92219 93.7881 4.69161 93.656 4.62873C93.5239 4.54488 93.2801 4.36671 92.9143 4.08373C92.5485 3.80075 92.2233 3.58066 91.9388 3.41297C91.573 3.22432 91.3088 3.02519 91.136 2.82606C90.9633 2.62693 90.8414 2.34396 90.7601 1.9981C90.6788 1.6732 90.6991 1.42165 90.8007 1.233C90.9531 0.719448 91.7254 1.05483 93.1073 2.23915C93.5544 2.64789 93.8084 2.84702 93.8897 2.84702C94.3876 3.19288 94.7941 3.64356 95.1193 4.17807C95.4444 4.71258 95.5867 5.17372 95.5257 5.55103C95.5257 5.68728 95.4952 5.77112 95.4444 5.81304C95.3936 5.85497 95.2717 5.87592 95.0888 5.87592C94.8754 5.90737 94.601 5.71872 94.3064 5.32045Z" fill="#F7853A" stroke="#F7853A"/>
<path d="M112.68 7.2651C112.79 7.39689 112.836 7.53809 112.836 7.67929C112.836 8.06525 112.478 8.56417 111.771 9.16663C111.247 9.55259 110.503 10.381 109.539 11.633C108.574 12.8944 107.977 13.7981 107.766 14.3535C107.766 14.4477 107.931 14.6924 108.262 15.0784C108.593 15.4643 108.923 16.0009 109.254 16.6787C109.585 17.3564 109.759 17.8554 109.787 18.166C109.833 18.4296 109.759 18.6179 109.575 18.7308C109.392 18.8438 109.19 18.8438 108.969 18.7497C108.804 18.7026 108.685 18.599 108.602 18.439C108.519 18.279 108.326 17.8271 108.014 17.074C107.876 16.7634 107.748 16.5469 107.647 16.4245C107.537 16.3021 107.344 16.1327 107.059 15.9162C106.802 15.7467 106.637 15.6526 106.563 15.6243C106.49 15.5961 106.389 15.6338 106.242 15.7373C105.865 15.935 105.672 15.8691 105.672 15.5585C105.626 15.4643 105.755 15.1913 106.058 14.7395C106.361 14.297 106.71 13.7981 107.105 13.2709C107.5 12.7438 107.72 12.4049 107.794 12.2543C108.152 11.6989 108.942 10.6257 110.163 9.02544C110.375 8.73362 110.595 8.48886 110.815 8.28176C111.036 8.07466 111.302 7.86756 111.596 7.65105C111.89 7.43454 112.129 7.23686 112.322 7.06741C112.459 7.06741 112.57 7.13331 112.68 7.2651ZM112.34 32.1922C112.009 31.7215 111.872 31.1002 111.917 30.3189C111.89 29.933 111.991 29.7541 112.221 29.7729C112.441 29.8012 112.579 29.9424 112.625 30.206C112.625 30.2813 112.625 30.3377 112.625 30.3848C112.505 30.8931 112.68 31.2885 113.157 31.5615C113.626 31.8345 114.03 31.7592 114.36 31.3262C114.553 31.1097 114.7 30.8367 114.801 30.5072C114.902 30.1777 115.04 29.5847 115.205 28.7092C115.343 27.8902 115.417 26.7041 115.417 25.1509C115.417 23.3152 115.334 22.3833 115.169 22.355C115.049 22.3268 114.838 22.5527 114.535 23.0046C114.443 23.1269 114.315 23.3152 114.149 23.5882C113.773 24.1719 113.212 25.1226 112.469 26.4499C111.725 27.7773 111.146 28.7751 110.714 29.4246C110.503 29.7918 110.108 30.4507 109.53 31.4015C108.951 32.3523 108.565 33.0018 108.382 33.3407C108.354 33.3689 108.326 33.416 108.271 33.4819C108.152 33.6796 108.06 33.8208 107.987 33.9149C107.913 34.009 107.821 34.1126 107.702 34.2256C107.582 34.3385 107.472 34.3856 107.362 34.3667C107.252 34.3573 107.151 34.2914 107.059 34.1691C106.94 34.0467 106.921 33.8019 106.985 33.4442C107.059 33.2748 107.114 32.9453 107.142 32.4464C107.178 31.9475 107.261 31.5615 107.39 31.2885C107.518 31.0155 107.766 30.9214 108.115 31.0155C108.28 31.0626 108.427 31.0155 108.556 30.8743C108.685 30.7331 108.923 30.3095 109.282 29.6035C109.52 29.1893 109.768 28.7657 110.044 28.3138C110.31 27.8714 110.558 27.4478 110.788 27.0618C111.008 26.6759 111.265 26.1581 111.55 25.4992C111.761 25.0379 112.009 24.652 112.294 24.3413C112.579 24.0024 112.983 23.3529 113.497 22.3833C114.011 21.4137 114.287 20.8018 114.315 20.5382C114.36 20.0581 114.232 19.8134 113.929 19.8134C113.672 19.8134 113.176 20.5759 112.441 22.1009C111.991 22.9952 111.66 23.5976 111.431 23.8989C111.201 24.2001 110.99 24.3507 110.779 24.3507C110.145 24.2095 110.081 23.8047 110.604 23.1552C111.174 22.2609 111.679 21.2254 112.129 20.0393C112.294 19.6251 112.358 19.3709 112.322 19.2768C112.285 19.1827 112.129 19.1356 111.844 19.1356C111.651 19.1356 111.486 19.2109 111.348 19.3521C111.21 19.4933 111.017 19.7663 110.779 20.1523C110.494 20.7077 110.035 21.3854 109.401 22.1856C108.767 22.9857 108.317 23.6447 108.06 24.1813C107.711 24.8308 107.325 25.1509 106.93 25.1226C106.765 25.0944 106.664 25.0662 106.627 25.0285C106.591 24.9908 106.563 24.8779 106.535 24.6802C106.581 24.2942 106.692 23.9554 106.857 23.6635C107.022 23.3717 107.279 23.0328 107.619 22.6469C107.959 22.2609 108.207 21.9691 108.345 21.7714C108.584 21.4796 108.804 21.2066 109.015 20.9336C109.3 20.5665 109.603 20.0675 109.915 19.4274C110.237 18.7873 110.393 18.3543 110.393 18.1378C110.393 17.8742 110.42 17.6953 110.485 17.6106C110.54 17.5259 110.678 17.4318 110.889 17.3376C111.1 17.2623 111.339 17.027 111.596 16.6128C111.881 16.2268 112.028 15.9821 112.055 15.8879C112.083 15.7938 112.009 15.6902 111.844 15.5961C111.752 15.5961 111.467 15.3043 110.999 14.7301C110.531 14.1464 110.255 13.8452 110.182 13.8263C109.924 13.6287 109.897 13.3369 110.09 12.9415C110.292 12.5461 110.494 12.3202 110.705 12.2731C110.797 12.2731 110.944 12.3672 111.128 12.5461C111.32 12.725 111.431 12.8756 111.477 12.998C111.523 13.1392 111.697 13.4498 112.009 13.9205C112.322 14.3912 112.505 14.6265 112.579 14.6265C112.625 14.6736 112.735 14.4947 112.9 14.0805C112.992 13.8828 113.139 13.5157 113.323 12.9603C113.956 11.2188 114.397 10.2963 114.636 10.2021C115.251 9.64673 115.628 9.58083 115.766 10.0233C115.885 10.3151 115.793 10.7387 115.481 11.2941C114.847 12.4802 114.296 13.6004 113.837 14.6453C113.378 15.6997 112.891 16.6881 112.367 17.6012C112.413 17.8177 112.579 17.9213 112.863 17.9118C113.148 17.9024 113.415 17.8648 113.681 17.7989C113.938 17.7424 114.149 17.8177 114.315 18.0342C114.783 18.5143 115.16 18.9285 115.426 19.2674C115.692 19.6063 115.949 20.0864 116.188 20.7171C116.427 21.3478 116.556 22.035 116.574 22.7881C116.666 23.5129 116.712 24.4166 116.693 25.5086C116.684 26.6006 116.638 27.2972 116.574 27.6172C116.5 27.909 116.427 28.3044 116.344 28.7939C116.262 29.2834 116.17 29.7447 116.078 30.1495C115.821 31.2132 115.371 32.0039 114.737 32.5029C114.48 32.7194 114.158 32.8323 113.782 32.8323C113.157 32.8888 112.671 32.6629 112.34 32.1922ZM120.643 13.7416C119.853 14.0052 119.421 14.137 119.348 14.137C119.09 14.137 118.879 13.9299 118.714 13.5157C118.549 13.1298 118.558 12.8473 118.751 12.6779C118.943 12.5085 119.357 12.4049 119.99 12.3484C120.606 12.3202 121.065 12.2355 121.368 12.0943C121.653 12.0472 121.791 11.8683 121.772 11.5671C121.754 11.2659 121.699 10.9552 121.579 10.6446C121.46 10.3339 121.506 10.0421 121.717 9.77852C122.002 9.51494 122.259 9.53377 122.498 9.835C122.737 10.1362 122.874 10.4469 122.92 10.7575C122.966 10.974 123.03 11.1058 123.113 11.1529C123.196 11.2 123.37 11.1623 123.627 11.0399C124.123 10.7952 124.491 10.7858 124.72 11.0023C124.913 11.1435 124.941 11.3318 124.831 11.5483C124.711 11.7648 124.463 11.9719 124.087 12.1696C123.71 12.3861 123.48 12.5838 123.398 12.772C123.315 12.9603 123.297 13.318 123.343 13.8828C123.389 14.5324 123.352 14.9371 123.232 15.0784C122.994 15.389 122.709 15.4267 122.388 15.1725C122.057 14.9183 121.965 14.6265 122.103 14.2876C122.195 13.6569 122.13 13.3463 121.892 13.3463C121.846 13.3463 121.432 13.478 120.643 13.7416ZM122.727 29.707C122.645 29.66 122.562 29.547 122.479 29.3776C122.397 29.2081 122.378 28.9916 122.424 28.728C122.709 24.9532 122.847 22.2797 122.847 20.7077C122.874 19.7663 122.893 19.1921 122.92 18.985C122.948 18.7779 123.003 18.6367 123.095 18.5708C123.517 18.3543 123.829 18.3449 124.032 18.552C124.234 18.7591 124.381 19.2109 124.472 19.9075C124.518 20.1523 124.564 20.2746 124.592 20.2935C124.629 20.3029 124.693 20.2558 124.785 20.1334C124.831 20.0581 124.876 20.0111 124.922 19.9922C125.115 19.6816 125.685 19.3239 126.64 18.9379C127.595 18.552 128.578 18.3072 129.597 18.2131C130.617 18.1189 131.416 18.3449 132.003 18.9003C132.426 19.3803 132.683 19.8887 132.766 20.4064C132.848 20.9242 132.876 21.9973 132.858 23.6165C132.812 25.2638 132.747 26.3746 132.683 26.9489C132.637 27.4854 132.656 27.8902 132.757 28.182L132.931 28.6151L132.224 29.3399C131.756 29.8012 131.416 30.0459 131.214 30.0647C131.012 30.093 130.663 29.933 130.167 29.5941L129.459 29.0857L128.716 29.161C127.861 29.2081 127.062 29.3587 126.309 29.5941C125.905 29.7164 125.62 29.7729 125.446 29.7541C125.271 29.7447 125.088 29.66 124.895 29.5188C124.592 29.2081 124.546 28.8692 124.766 28.5209C124.987 28.1726 125.299 27.9938 125.703 27.9938C125.868 27.9655 126.006 27.9279 126.126 27.862C126.245 27.8055 126.346 27.7114 126.429 27.589C126.511 27.4666 126.585 27.3631 126.64 27.2783C126.695 27.1936 126.75 27.0524 126.796 26.8453C126.842 26.6382 126.879 26.4782 126.906 26.3746C126.934 26.2617 126.961 26.0828 127.016 25.8286C127.062 25.5745 127.099 25.3956 127.127 25.3015C127.154 24.9438 127.154 24.7178 127.145 24.6519C127.136 24.5861 127.081 24.539 126.989 24.539C126.778 24.6143 126.374 24.7932 125.767 25.085C125.17 25.3768 124.775 25.5462 124.583 25.5933C124.537 25.8569 124.463 26.3652 124.371 27.1183C124.28 27.8714 124.178 28.4833 124.087 28.9634C124.059 29.1328 123.94 29.3305 123.719 29.547C123.49 29.7635 123.315 29.8765 123.168 29.8765C122.957 29.8106 122.81 29.7541 122.727 29.707ZM126.961 21.3101C126.961 21.103 126.961 20.943 126.961 20.8395C126.961 20.7265 126.943 20.6324 126.906 20.5476C126.869 20.4629 126.796 20.4347 126.677 20.4535C126.557 20.4817 126.401 20.5476 126.217 20.67C125.914 20.8677 125.63 21.1689 125.382 21.5925C125.134 22.0161 124.978 22.4303 124.904 22.8445C124.812 23.4282 124.812 23.7482 124.904 23.8047C124.996 23.8612 125.317 23.7671 125.859 23.4941C126.429 23.2305 126.759 23.014 126.869 22.8634C126.98 22.7033 127.016 22.3644 126.989 21.8279C126.97 21.6867 126.961 21.5078 126.961 21.3101ZM125.933 11.8213C125.887 11.5294 126.107 11.3035 126.603 11.1341C126.796 11.0588 126.989 11.0117 127.209 10.9929C127.512 10.9646 127.77 10.9646 127.972 10.9929C128.174 11.0211 128.403 11.0211 128.66 10.9929C128.991 10.9458 129.184 10.8705 129.248 10.7764C129.303 10.6822 129.395 10.2398 129.515 9.46788C129.56 9.32667 129.606 9.1384 129.634 8.92189C129.671 8.70537 129.698 8.56416 129.726 8.48886C129.753 8.41355 129.781 8.31941 129.818 8.19704C129.854 8.07466 129.891 7.98995 129.937 7.92405C129.983 7.86757 130.056 7.80167 130.148 7.72636C130.24 7.65105 130.36 7.58516 130.506 7.50985C130.745 7.36865 130.911 7.28393 131.002 7.27451C131.094 7.2651 131.214 7.31217 131.361 7.43454C131.553 7.63223 131.48 8.06525 131.149 8.74303C130.911 9.15722 130.736 9.58084 130.617 10.0139C130.497 10.4469 130.479 10.6916 130.543 10.7387C130.516 10.8328 131.076 10.7952 132.206 10.6257C134.401 10.2869 135.494 10.1268 135.494 10.1551C135.778 10.2021 135.944 10.3716 135.989 10.6634C136.035 10.9552 135.934 11.2188 135.668 11.4635C135.503 11.6612 135.31 11.7554 135.08 11.7742C134.86 11.7836 134.639 11.7554 134.447 11.6801C134.244 11.6047 133.978 11.6236 133.647 11.7177C133.528 11.746 133.188 11.793 132.637 11.8589C132.086 11.9248 131.553 12.0189 131.048 12.1131C130.543 12.2072 130.249 12.2825 130.185 12.3296C130.093 12.4237 129.955 12.725 129.799 13.2333C129.606 13.9581 129.386 14.5135 129.129 14.8807C128.872 15.2572 128.633 15.4078 128.422 15.3325C128.137 15.2384 128.119 14.9183 128.348 14.3912C128.486 14.0523 128.624 13.6663 128.734 13.2333C128.853 12.772 128.853 12.499 128.752 12.4143C128.642 12.3296 128.229 12.2919 127.494 12.2919C126.502 12.3861 125.979 12.226 125.933 11.8213ZM130.534 21.6867C130.58 21.8091 130.617 21.9126 130.644 22.0162C130.663 22.1103 130.663 22.2044 130.644 22.2891C130.617 22.3739 130.598 22.4398 130.571 22.4868C130.543 22.5339 130.497 22.5904 130.415 22.6469C130.332 22.7033 130.268 22.7504 130.222 22.7692C130.176 22.7975 130.084 22.8445 129.937 22.9104C129.79 22.9763 129.689 23.0422 129.616 23.0893C129.028 23.4282 128.697 23.6541 128.642 23.7577C128.587 23.8706 128.495 24.3225 128.376 25.1226C128.376 25.4333 128.302 25.8851 128.164 26.4688C128.027 27.0524 127.944 27.429 127.916 27.5984C127.99 27.6455 128.55 27.6831 129.616 27.7114C130.415 27.7396 130.892 27.7396 131.03 27.7302C131.168 27.7208 131.278 27.6549 131.351 27.5325C131.544 27.2407 131.618 25.7345 131.599 22.9952C131.599 21.7337 131.563 20.9618 131.489 20.6512C131.416 20.3499 131.186 20.0675 130.782 19.7946C130.617 19.6251 130.415 19.5216 130.167 19.4839C129.919 19.4463 129.744 19.4368 129.634 19.4462C129.524 19.4557 129.276 19.5121 128.872 19.6063C128.614 19.6816 128.458 19.7475 128.412 19.804C128.367 19.8604 128.33 19.9922 128.302 20.1805C128.256 20.5194 128.247 20.9336 128.284 21.4137C128.321 21.8938 128.376 22.1479 128.44 22.1762C128.532 22.2044 128.734 22.1009 129.046 21.8844C129.469 21.5455 129.965 21.4702 130.534 21.6867Z" fill="#F7853A" stroke="#F7853A"/>
<path d="M9.5264 50.4676C8.31292 50.4676 7.12371 50.0065 6.25 49.1692L7.28146 47.9315C7.91247 48.5261 8.77404 48.9144 9.56281 48.9144C10.4972 48.9144 10.9826 48.5139 10.9826 47.8951C10.9826 47.2276 10.4365 47.0092 9.63562 46.6694L8.43427 46.1598C7.53629 45.7957 6.61404 45.0555 6.61404 43.7571C6.61404 42.2888 7.91247 41.1602 9.72056 41.1602C10.7642 41.1602 11.8078 41.5728 12.5358 42.313L11.6379 43.4416C11.0554 42.9683 10.4608 42.7014 9.72056 42.7014C8.9318 42.7014 8.43427 43.0533 8.43427 43.6357C8.43427 44.2789 9.07742 44.5216 9.84191 44.8249L11.019 45.3103C12.099 45.7593 12.8149 46.4632 12.8149 47.7494C12.8149 49.2178 11.5893 50.4676 9.5264 50.4676Z" fill="#FAAD7B"/>
<path d="M18.2031 50.4676C16.2979 50.4676 14.8175 49.1571 14.8175 46.9121C14.8175 44.7036 16.3707 43.3445 17.9725 43.3445C19.8534 43.3445 20.8121 44.7036 20.8121 46.5845C20.8121 46.9243 20.7757 47.2398 20.7393 47.4097H16.5406C16.6984 48.5261 17.4265 49.0964 18.4337 49.0964C18.9797 49.0964 19.4651 48.9265 19.9626 48.6232L20.5573 49.7274C19.8898 50.1885 19.0404 50.4676 18.2031 50.4676ZM16.5164 46.2205H19.2952C19.2952 45.2982 18.8826 44.7157 18.0089 44.7157C17.293 44.7157 16.662 45.2254 16.5164 46.2205Z" fill="#FAAD7B"/>
<path d="M24.6894 50.4676C23.476 50.4676 22.6872 49.6182 22.6872 48.4533C22.6872 47.0092 23.8643 46.2447 26.5946 45.9414C26.5582 45.2739 26.2791 44.7764 25.4418 44.7764C24.8108 44.7764 24.1919 45.0434 23.573 45.4196L22.9299 44.2303C23.7308 43.7449 24.6894 43.3445 25.7694 43.3445C27.4926 43.3445 28.3784 44.3638 28.3784 46.3418V50.2978H26.9223L26.7888 49.5818H26.7402C26.1456 50.0915 25.4661 50.4676 24.6894 50.4676ZM25.2719 49.0721C25.7816 49.0721 26.1578 48.8416 26.5946 48.4169V47.0456C24.9321 47.2519 24.3861 47.7009 24.3861 48.3198C24.3861 48.8416 24.7501 49.0721 25.2719 49.0721Z" fill="#FAAD7B"/>
<path d="M31.1673 50.2978V43.5144H32.6113L32.7569 44.7157H32.7933C33.2787 43.8178 34.0189 43.3445 34.7228 43.3445C35.0868 43.3445 35.3052 43.393 35.5115 43.4901L35.2082 45.0191C34.9655 44.9584 34.7834 44.9099 34.4922 44.9099C33.9704 44.9099 33.3273 45.2739 32.9511 46.2569V50.2978H31.1673Z" fill="#FAAD7B"/>
<path d="M40.1097 50.4676C38.2409 50.4676 36.809 49.1571 36.809 46.9121C36.809 44.6551 38.4229 43.3445 40.2674 43.3445C41.1169 43.3445 41.7479 43.66 42.2454 44.0969L41.4081 45.2375C41.0683 44.9463 40.7407 44.8007 40.3767 44.8007C39.3209 44.8007 38.6292 45.6258 38.6292 46.9121C38.6292 48.1863 39.3331 49.0236 40.3038 49.0236C40.8014 49.0236 41.2625 48.7809 41.6387 48.4775L42.3425 49.6546C41.6993 50.2128 40.862 50.4676 40.1097 50.4676Z" fill="#FAAD7B"/>
<path d="M44.6037 50.2978V40.6263H46.3876V43.0654L46.3026 44.3396C46.8366 43.8299 47.5161 43.3445 48.4384 43.3445C49.8945 43.3445 50.5377 44.3638 50.5377 46.0627V50.2978H48.7539V46.2933C48.7539 45.2254 48.4505 44.8735 47.7952 44.8735C47.237 44.8735 46.8851 45.1405 46.3876 45.6258V50.2978H44.6037Z" fill="#FAAD7B"/>
<path d="M57.2023 50.2978V41.318H62.7357V42.8106H58.9982V45.1647H62.1897V46.6573H58.9982V50.2978H57.2023Z" fill="#FAAD7B"/>
<path d="M67.6691 50.4676C65.9581 50.4676 64.4049 49.1571 64.4049 46.9121C64.4049 44.6551 65.9581 43.3445 67.6691 43.3445C69.368 43.3445 70.9213 44.6551 70.9213 46.9121C70.9213 49.1571 69.368 50.4676 67.6691 50.4676ZM67.6691 49.0236C68.5914 49.0236 69.101 48.1863 69.101 46.9121C69.101 45.6258 68.5914 44.8007 67.6691 44.8007C66.7347 44.8007 66.2251 45.6258 66.2251 46.9121C66.2251 48.1863 66.7347 49.0236 67.6691 49.0236Z" fill="#FAAD7B"/>
<path d="M73.3965 50.2978V43.5144H74.8405L74.9861 44.7157H75.0225C75.5079 43.8178 76.2482 43.3445 76.952 43.3445C77.316 43.3445 77.5345 43.393 77.7407 43.4901L77.4374 45.0191C77.1947 44.9584 77.0127 44.9099 76.7214 44.9099C76.1996 44.9099 75.5565 45.2739 75.1803 46.2569V50.2978H73.3965Z" fill="#FAAD7B"/>
<path d="M83.5301 50.2978V41.318H85.5081L87.0371 45.5288C87.2434 46.087 87.4011 46.6694 87.5953 47.2519H87.6438C87.8501 46.6694 88.0079 46.087 88.1899 45.5288L89.6825 41.318H91.6726V50.2978H90.0344V46.5481C90.0344 45.6987 90.18 44.4488 90.2771 43.5993H90.2164L89.4762 45.7108L88.0928 49.4969H87.0613L85.678 45.7108L84.9499 43.5993H84.9013C84.9984 44.4488 85.1319 45.6987 85.1319 46.5481V50.2978H83.5301Z" fill="#FAAD7B"/>
<path d="M97.6616 50.4676C95.7564 50.4676 94.276 49.1571 94.276 46.9121C94.276 44.7036 95.8292 43.3445 97.431 43.3445C99.3119 43.3445 100.271 44.7036 100.271 46.5845C100.271 46.9243 100.234 47.2398 100.198 47.4097H95.9991C96.1569 48.5261 96.885 49.0964 97.8922 49.0964C98.4382 49.0964 98.9236 48.9265 99.4211 48.6232L100.016 49.7274C99.3483 50.1885 98.4989 50.4676 97.6616 50.4676ZM95.9749 46.2205H98.7537C98.7537 45.2982 98.3411 44.7157 97.4674 44.7157C96.7515 44.7157 96.1205 45.2254 95.9749 46.2205Z" fill="#FAAD7B"/>
<path d="M105.562 50.4676C103.851 50.4676 102.298 49.1571 102.298 46.9121C102.298 44.6551 103.851 43.3445 105.562 43.3445C107.261 43.3445 108.814 44.6551 108.814 46.9121C108.814 49.1571 107.261 50.4676 105.562 50.4676ZM105.562 49.0236C106.484 49.0236 106.994 48.1863 106.994 46.9121C106.994 45.6258 106.484 44.8007 105.562 44.8007C104.628 44.8007 104.118 45.6258 104.118 46.9121C104.118 48.1863 104.628 49.0236 105.562 49.0236Z" fill="#FAAD7B"/>
<path d="M112.24 50.2978L110.492 43.5144H112.264L113.016 46.8636C113.138 47.531 113.223 48.1742 113.344 48.8416H113.405C113.526 48.1742 113.648 47.5189 113.817 46.8636L114.643 43.5144H116.22L117.07 46.8636C117.227 47.531 117.361 48.1742 117.506 48.8416H117.567C117.688 48.1742 117.773 47.531 117.907 46.8636L118.635 43.5144H120.297L118.611 50.2978H116.511L115.795 47.3369C115.65 46.7058 115.541 46.087 115.407 45.3589H115.346C115.225 46.087 115.116 46.7058 114.97 47.349L114.279 50.2978H112.24Z" fill="#FAAD7B"/>
</svg>
